<?xml version="1.0" encoding="iso-8859-1"?>
<!-- Generator: Adobe Illustrator 19.0.0, SVG Export Plug-In . SVG Version: 6.00 Build 0)  -->
<svg version="1.1" id="Capa_1" xmlns="http://www.w3.org/2000/svg" xmlns:xlink="http://www.w3.org/1999/xlink" x="0px" y="0px"
	 viewBox="0 0 504.123 504.123" style="enable-background:new 0 0 504.123 504.123;" xml:space="preserve">
<circle style="fill:#FBBD5E;" cx="252.062" cy="252.062" r="252.062"/>
<rect x="134.695" y="7.877" style="fill:#F06151;" width="361.551" height="271.754"/>
<path style="fill:#183651;" d="M496.246,287.508H348.948c-4.726,0-7.877-3.151-7.877-7.877s3.151-7.877,7.877-7.877h139.422v-256
	H142.572v160.689c0,4.726-3.151,7.877-7.877,7.877s-7.877-3.151-7.877-7.877V7.877c0-4.726,3.151-7.877,7.877-7.877h361.551
	c4.726,0,7.877,3.151,7.877,7.877v271.754C504.123,284.357,500.972,287.508,496.246,287.508z"/>
<rect x="166.203" y="39.385" style="fill:#FFFFFF;" width="298.535" height="208.738"/>
<path style="fill:#CECFD0;" d="M289.083,212.677H29.145c-11.815,0-21.268,9.452-21.268,21.268v191.409
	c0,11.815,9.452,21.268,21.268,21.268h259.938c11.815,0,21.268-9.452,21.268-21.268V233.945
	C310.351,222.129,300.898,212.677,289.083,212.677z"/>
<path style="fill:#183651;" d="M289.083,454.498H29.145C13.391,454.498,0,441.108,0,425.354V233.945
	C0,218.191,13.391,204.8,29.145,204.8h259.938c15.754,0,29.145,13.391,29.145,29.145v191.409
	C318.228,441.895,304.837,454.498,289.083,454.498z M29.145,220.554c-7.089,0-13.391,6.302-13.391,13.391v191.409
	c0,7.089,6.302,13.391,13.391,13.391h259.938c7.089,0,13.391-6.302,13.391-13.391V233.945c0-7.089-6.302-13.391-13.391-13.391
	H29.145z"/>
<g>
	<rect x="36.234" y="241.822" style="fill:#FFFFFF;" width="245.76" height="155.175"/>
	<polygon style="fill:#FFFFFF;" points="215.04,496.246 103.188,496.246 125.243,446.622 192.985,446.622 	"/>
</g>
<path style="fill:#183651;" d="M215.04,504.123L215.04,504.123H103.188c-2.363,0-5.514-1.575-6.302-3.938
	c-1.575-2.363-1.575-4.726-0.788-7.089l22.055-49.625c1.575-3.151,3.938-4.726,7.089-4.726h67.742c3.151,0,6.302,1.575,7.089,4.726
	l21.268,48.049c0.788,1.575,1.575,3.151,1.575,4.726C222.917,500.972,219.766,504.123,215.04,504.123z M115.003,488.369h87.434
	l-14.966-33.871h-57.502L115.003,488.369z"/>
<g>
	<path style="fill:#183651;" d="M229.218,504.123H89.009c-4.726,0-7.877-3.151-7.877-7.877s3.151-7.877,7.877-7.877h139.422
		c4.726,0,7.877,3.151,7.877,7.877S233.157,504.123,229.218,504.123z"/>
	<rect x="422.991" y="163.052" style="fill:#183651;" width="18.905" height="44.898"/>
	<rect x="385.969" y="144.935" style="fill:#183651;" width="18.905" height="63.015"/>
	<rect x="348.948" y="119.729" style="fill:#183651;" width="18.905" height="87.434"/>
</g>
<g>
	<rect x="192.985" y="64.591" style="fill:#E0E4E8;" width="107.126" height="14.966"/>
	<rect x="192.985" y="97.674" style="fill:#E0E4E8;" width="107.126" height="14.966"/>
</g>
<g>
	<circle style="fill:#183651;" cx="126.031" cy="418.265" r="9.452"/>
	<circle style="fill:#183651;" cx="159.114" cy="418.265" r="9.452"/>
	<circle style="fill:#183651;" cx="192.197" cy="418.265" r="9.452"/>
</g>
<circle style="fill:#2EA0DA;" cx="159.114" cy="319.015" r="59.865"/>
<path style="fill:#FFFFFF;" d="M181.169,315.077h-20.48v-37.022c0-3.151-2.363-5.514-5.514-5.514c-3.151,0-5.514,2.363-5.514,5.514
	v41.748c0,3.151,2.363,5.514,5.514,5.514h25.994c3.151,0,5.514-2.363,5.514-5.514C186.683,317.44,183.532,315.077,181.169,315.077z"
	/>
<g>
	<rect x="195.348" y="134.695" style="fill:#183651;" width="15.754" height="15.754"/>
	<rect x="238.671" y="134.695" style="fill:#183651;" width="15.754" height="15.754"/>
	<rect x="281.994" y="134.695" style="fill:#183651;" width="15.754" height="15.754"/>
</g>
<g>
</g>
<g>
</g>
<g>
</g>
<g>
</g>
<g>
</g>
<g>
</g>
<g>
</g>
<g>
</g>
<g>
</g>
<g>
</g>
<g>
</g>
<g>
</g>
<g>
</g>
<g>
</g>
<g>
</g>
</svg>
