<?xml version="1.0" encoding="iso-8859-1"?>
<!-- Generator: Adobe Illustrator 19.0.0, SVG Export Plug-In . SVG Version: 6.00 Build 0)  -->
<svg version="1.1" id="Capa_1" xmlns="http://www.w3.org/2000/svg" xmlns:xlink="http://www.w3.org/1999/xlink" x="0px" y="0px"
	 viewBox="0 0 504.123 504.123" style="enable-background:new 0 0 504.123 504.123;" xml:space="preserve">
<circle style="fill:#E1E6E7;" cx="252.062" cy="252.062" r="252.062"/>
<rect x="7.877" y="7.877" style="fill:#4FBF9F;" width="333.194" height="458.437"/>
<path style="fill:#183651;" d="M341.071,474.191H7.877c-4.726,0-7.877-3.151-7.877-7.877V7.877C0,3.151,3.151,0,7.877,0h333.194
	c4.726,0,7.877,3.151,7.877,7.877v458.437C348.948,470.252,345.009,474.191,341.071,474.191z M15.754,458.437h317.44V15.754H15.754
	V458.437z"/>
<rect x="39.385" y="39.385" style="fill:#FFFFFF;" width="270.178" height="395.422"/>
<g>
	<polygon style="fill:#173651;" points="91.372,293.022 70.105,271.754 79.557,262.302 91.372,274.905 119.729,247.335 128.394,256 
			"/>
	<polygon style="fill:#173651;" points="91.372,381.243 70.105,359.975 79.557,351.311 91.372,363.126 119.729,335.557 
		128.394,345.009 	"/>
	<polygon style="fill:#173651;" points="91.372,115.791 70.105,93.735 79.557,85.071 91.372,97.674 119.729,69.317 128.394,78.769 	
		"/>
	<rect x="175.655" y="85.858" style="fill:#173651;" width="102.4" height="14.178"/>
	<polygon style="fill:#173651;" points="91.372,204.012 70.105,182.745 79.557,174.08 91.372,185.895 119.729,158.326 
		128.394,167.778 	"/>
	<rect x="175.655" y="174.08" style="fill:#173651;" width="102.4" height="14.178"/>
</g>
<path style="fill:#F06151;" d="M480.492,496.246H201.649c-8.665,0-15.754-7.089-15.754-15.754V300.898h310.351v179.594
	C496.246,489.157,489.157,496.246,480.492,496.246z"/>
<path style="fill:#183651;" d="M480.492,504.123H201.649c-13.391,0-23.631-10.24-23.631-23.631V300.898
	c0-4.726,3.151-7.877,7.877-7.877h310.351c4.726,0,7.877,3.151,7.877,7.877v179.594
	C504.123,493.883,493.883,504.123,480.492,504.123z M193.772,308.775v171.717c0,4.726,3.151,7.877,7.877,7.877h278.843
	c4.726,0,7.877-3.151,7.877-7.877V308.775H193.772z"/>
<path style="fill:#FFFFFF;" d="M480.492,238.671H201.649c-8.665,0-15.754,7.089-15.754,15.754v47.262h310.351v-47.262
	C496.246,245.76,489.157,238.671,480.492,238.671z"/>
<path style="fill:#183651;" d="M496.246,308.775H185.895c-4.726,0-7.877-3.151-7.877-7.877v-47.262
	c0-13.391,10.24-23.631,23.631-23.631h278.843c13.391,0,23.631,10.24,23.631,23.631v47.262
	C504.123,305.625,500.972,308.775,496.246,308.775z M193.772,293.022h294.597v-39.385c0-4.726-3.151-7.877-7.877-7.877H201.649
	c-4.726,0-7.877,3.151-7.877,7.877V293.022z"/>
<path style="fill:#FFFFFF;" d="M440.32,207.951c-8.665,0-16.542,7.089-16.542,16.542v29.145c0,8.665,7.089,16.542,16.542,16.542
	c8.665,0,16.542-7.089,16.542-16.542v-29.145C456.074,215.04,448.985,207.951,440.32,207.951z"/>
<path style="fill:#183651;" d="M440.32,277.268c-13.391,0-24.418-11.028-24.418-24.418v-29.145
	c0-13.391,11.028-24.418,24.418-24.418c13.391,0,24.418,11.028,24.418,24.418v29.145C463.951,266.24,453.711,277.268,440.32,277.268
	z M440.32,215.828c-4.726,0-8.665,3.938-8.665,8.665v29.145c0,4.726,3.938,8.665,8.665,8.665s8.665-3.938,8.665-8.665v-29.145
	C448.197,219.766,445.046,215.828,440.32,215.828z"/>
<path style="fill:#FFFFFF;" d="M241.822,207.951c-8.665,0-16.542,7.089-16.542,16.542v29.145c0,8.665,7.089,16.542,16.542,16.542
	c8.665,0,16.542-7.089,16.542-16.542v-29.145C258.363,215.04,250.486,207.951,241.822,207.951z"/>
<path style="fill:#183651;" d="M241.822,277.268c-13.391,0-24.418-11.028-24.418-24.418v-29.145
	c0-13.391,11.028-24.418,24.418-24.418s24.418,11.028,24.418,24.418v29.145C266.24,266.24,255.212,277.268,241.822,277.268z
	 M241.822,215.828c-4.726,0-8.665,3.938-8.665,8.665v29.145c0,4.726,3.938,8.665,8.665,8.665c4.726,0,8.665-3.938,8.665-8.665
	v-29.145C250.486,219.766,246.548,215.828,241.822,215.828z"/>
<g>
	<rect x="217.403" y="442.683" style="fill:#FFFFFF;" width="21.268" height="22.055"/>
	<rect x="217.403" y="406.449" style="fill:#FFFFFF;" width="21.268" height="22.055"/>
	<rect x="217.403" y="369.428" style="fill:#FFFFFF;" width="21.268" height="22.055"/>
	<rect x="255.212" y="442.683" style="fill:#FFFFFF;" width="21.268" height="22.055"/>
	<rect x="255.212" y="406.449" style="fill:#FFFFFF;" width="21.268" height="22.055"/>
	<rect x="255.212" y="369.428" style="fill:#FFFFFF;" width="21.268" height="22.055"/>
	<rect x="292.234" y="442.683" style="fill:#FFFFFF;" width="21.268" height="22.055"/>
	<rect x="292.234" y="406.449" style="fill:#FFFFFF;" width="21.268" height="22.055"/>
	<rect x="292.234" y="369.428" style="fill:#FFFFFF;" width="21.268" height="22.055"/>
	<rect x="330.043" y="406.449" style="fill:#FFFFFF;" width="21.268" height="22.055"/>
	<rect x="330.043" y="369.428" style="fill:#FFFFFF;" width="21.268" height="22.055"/>
	<rect x="367.852" y="406.449" style="fill:#FFFFFF;" width="21.268" height="22.055"/>
	<rect x="367.852" y="369.428" style="fill:#FFFFFF;" width="21.268" height="22.055"/>
	<rect x="367.852" y="332.406" style="fill:#FFFFFF;" width="21.268" height="22.055"/>
	<rect x="405.662" y="406.449" style="fill:#FFFFFF;" width="21.268" height="22.055"/>
	<rect x="405.662" y="369.428" style="fill:#FFFFFF;" width="21.268" height="22.055"/>
	<rect x="405.662" y="332.406" style="fill:#FFFFFF;" width="21.268" height="22.055"/>
	<rect x="443.471" y="406.449" style="fill:#FFFFFF;" width="21.268" height="22.055"/>
	<rect x="443.471" y="369.428" style="fill:#FFFFFF;" width="21.268" height="22.055"/>
	<rect x="443.471" y="332.406" style="fill:#FFFFFF;" width="21.268" height="22.055"/>
</g>
<g>
	<rect x="288.295" y="262.302" style="fill:#183651;" width="15.754" height="15.754"/>
	<rect x="333.194" y="262.302" style="fill:#183651;" width="15.754" height="15.754"/>
	<rect x="378.092" y="262.302" style="fill:#183651;" width="15.754" height="15.754"/>
</g>
<g>
</g>
<g>
</g>
<g>
</g>
<g>
</g>
<g>
</g>
<g>
</g>
<g>
</g>
<g>
</g>
<g>
</g>
<g>
</g>
<g>
</g>
<g>
</g>
<g>
</g>
<g>
</g>
<g>
</g>
</svg>
