<?xml version="1.0" encoding="iso-8859-1"?>
<!-- Generator: Adobe Illustrator 19.0.0, SVG Export Plug-In . SVG Version: 6.00 Build 0)  -->
<svg version="1.1" id="Capa_1" xmlns="http://www.w3.org/2000/svg" xmlns:xlink="http://www.w3.org/1999/xlink" x="0px" y="0px"
	 viewBox="0 0 504.324 504.324" style="enable-background:new 0 0 504.324 504.324;" xml:space="preserve">
<polygon style="fill:#E0E4E8;" points="251.475,152.913 495.659,223.017 251.475,359.288 8.078,223.017 "/>
<path style="fill:#183651;" d="M251.475,367.165c-1.575,0-2.363,0-3.938-0.788L4.139,230.107c-3.151-1.575-3.938-4.726-3.938-7.877
	c0-3.151,2.363-5.514,5.514-6.302l243.397-70.105c1.575-0.788,3.151-0.788,4.726,0l243.397,70.105
	c3.151,0.788,5.514,3.151,5.514,6.302c0,3.151-1.575,6.302-3.938,7.877L255.413,366.377
	C254.625,367.165,253.05,367.165,251.475,367.165z M28.558,225.38l222.917,125.243L475.179,225.38L251.475,160.79L28.558,225.38z"/>
<rect x="69.518" y="8.765" style="fill:#FBBD5E;" width="364.702" height="352.098"/>
<path style="fill:#183651;" d="M434.219,368.74H69.518c-4.726,0-7.877-3.151-7.877-7.877V8.765c0-4.726,3.151-7.877,7.877-7.877
	h364.702c4.726,0,7.877,3.151,7.877,7.877v352.098C442.096,364.802,438.158,368.74,434.219,368.74z M77.395,352.987h348.948V16.642
	H77.395V352.987z"/>
<rect x="100.238" y="40.273" style="fill:#FFFFFF;" width="302.474" height="319.015"/>
<polygon style="fill:#4FBF9F;" points="8.078,495.559 495.659,223.017 495.659,495.559 "/>
<path style="fill:#183651;" d="M495.659,503.436H8.078c-3.938,0-7.089-2.363-7.877-5.514s0.788-7.089,3.938-8.665l487.582-272.542
	c2.363-1.575,5.514-1.575,7.877,0c2.363,1.575,3.938,3.938,3.938,7.089v272.542C502.748,500.285,499.598,503.436,495.659,503.436z
	 M38.01,487.682h448.985V236.408L38.01,487.682z"/>
<polygon style="fill:#FFFFFF;" points="464.152,468.777 464.152,273.43 114.416,468.777 "/>
<polygon style="fill:#4FBF9F;" points="251.475,359.288 8.078,495.559 8.078,495.559 8.078,223.017 "/>
<path style="fill:#183651;" d="M8.078,503.436c-1.575,0-2.363,0-3.938-0.788c-2.363-1.575-3.938-3.938-3.938-7.089V223.017
	c0-3.151,1.575-5.514,3.938-7.089c2.363-1.575,5.514-1.575,7.877,0l243.397,136.271c2.363,1.575,3.938,3.938,3.938,7.089
	c0,3.151-1.575,5.514-3.938,7.089L12.016,502.648C10.441,503.436,9.653,503.436,8.078,503.436z M15.955,236.408v245.76
	l219.766-122.88L15.955,236.408z"/>
<polygon style="fill:#FFFFFF;" points="193.973,359.288 39.585,273.43 39.585,445.934 "/>
<g>
	<rect x="418.465" y="419.94" style="fill:#183651;" width="15.754" height="15.754"/>
	<rect x="379.081" y="419.94" style="fill:#183651;" width="15.754" height="15.754"/>
	<rect x="339.696" y="419.94" style="fill:#183651;" width="15.754" height="15.754"/>
	<rect x="300.311" y="419.94" style="fill:#183651;" width="15.754" height="15.754"/>
</g>
<path style="fill:#FFFFFF;" d="M324.73,148.187v-23.631l-17.329-2.363c-1.575-5.514-3.938-11.028-6.302-15.754l11.028-14.178
	l-16.542-16.542l-14.178,11.028c-4.726-3.151-10.24-5.514-15.754-6.302l-2.363-17.329h-23.631l-2.363,17.329
	c-5.514,1.575-11.028,3.938-15.754,6.302l-14.178-11.028L190.822,92.26l11.028,14.178c-3.151,4.726-5.514,10.24-6.302,15.754
	l-17.329,2.363v23.631l17.329,2.363c1.575,5.514,3.938,11.028,6.302,15.754l-11.028,14.178l16.542,16.542l14.178-11.028
	c4.726,3.151,10.24,5.514,15.754,6.302l2.363,17.329h23.631l2.363-17.329c5.514-1.575,11.028-3.938,15.754-6.302l14.178,11.028
	l16.542-16.542l-11.028-13.391c3.151-4.726,5.514-10.24,6.302-15.754L324.73,148.187z"/>
<path style="fill:#183651;" d="M263.29,217.503h-23.631c-3.938,0-7.089-3.151-7.877-7.089l-1.575-12.603
	c-2.363-0.788-5.514-2.363-7.877-3.151l-9.452,7.877c-3.151,2.363-7.877,2.363-10.24-0.788l-16.542-16.542
	c-3.151-3.151-3.151-7.089-0.788-10.24l7.877-9.452c-1.575-2.363-2.363-5.514-3.151-7.877l-12.603-1.575
	c-3.938-0.788-7.089-3.938-7.089-7.877v-23.631c0-3.938,3.151-7.089,7.089-7.877l12.603-1.575c0.788-2.363,2.363-5.514,3.151-7.877
	l-7.877-9.452c-2.363-3.151-2.363-7.877,0.788-10.24l16.542-16.542c3.151-3.151,7.089-3.151,10.24-0.788l9.452,7.877
	c2.363-1.575,5.514-2.363,7.877-3.151l1.575-12.603c0.788-3.938,3.938-7.089,7.877-7.089h23.631c3.938,0,7.089,3.151,7.877,7.089
	l1.575,12.603c2.363,0.788,5.514,2.363,7.877,3.151l9.452-7.877c3.151-2.363,7.877-2.363,10.24,0.788l16.542,16.542
	c3.151,3.151,3.151,7.089,0.788,10.24l-7.877,9.452c1.575,2.363,2.363,5.514,3.151,7.877l12.603,1.575
	c3.938,0.788,7.089,3.938,7.089,7.877v23.631c0,3.938-3.151,7.089-7.089,7.877l-12.603,1.575c-0.788,2.363-2.363,5.514-3.151,7.877
	l7.877,9.452c2.363,3.151,2.363,7.877-0.788,10.24l-16.542,16.542c-3.151,3.151-7.089,3.151-10.24,0.788l-9.452-7.877
	c-2.363,1.575-5.514,2.363-7.877,3.151l-1.575,12.603C270.379,215.14,267.228,217.503,263.29,217.503z M246.748,201.75h9.452
	l1.575-10.24c0.788-3.151,2.363-5.514,6.302-6.302c4.726-1.575,9.452-3.151,13.391-5.514c3.151-1.575,6.302-1.575,8.665,0.788
	l8.665,6.302l7.089-7.089l-6.302-8.665c-2.363-2.363-2.363-6.302-0.788-8.665c2.363-3.938,4.726-8.665,5.514-13.391
	c0.788-3.151,3.151-5.514,6.302-6.302l10.24-1.575v-9.452l-10.24-1.575c-3.151-0.788-5.514-2.363-6.302-6.302
	c-1.575-4.726-3.151-9.452-5.514-13.391c-1.575-3.151-1.575-6.302,0.788-8.665l6.302-8.665l-7.089-7.089l-8.665,6.302
	c-2.363,2.363-6.302,2.363-8.665,0.788c-3.938-2.363-8.665-4.726-13.391-5.514c-3.151-0.788-5.514-3.151-6.302-6.302l-1.575-9.452
	h-9.452l-1.575,10.24c-0.788,3.151-2.363,5.514-6.302,6.302c-4.726,1.575-9.452,3.151-13.391,5.514
	c-3.151,1.575-6.302,1.575-8.665-0.788l-7.877-5.514l-7.089,7.089l6.302,8.665c2.363,2.363,2.363,6.302,0.788,8.665
	c-2.363,3.938-4.726,8.665-5.514,13.391c-0.788,3.151-3.151,5.514-6.302,6.302l-10.24,1.575v9.452l10.24,1.575
	c3.151,0.788,5.514,2.363,6.302,6.302c1.575,4.726,3.151,9.452,5.514,13.391c1.575,3.151,1.575,6.302-0.788,8.665l-6.302,8.665
	l7.089,7.089l8.665-6.302c2.363-2.363,6.302-2.363,8.665-0.788c3.938,2.363,8.665,4.726,13.391,5.514
	c3.151,0.788,5.514,3.151,6.302,6.302L246.748,201.75z"/>
<circle style="fill:#FFFFFF;" cx="251.475" cy="137.159" r="21.268"/>
<path style="fill:#183651;" d="M251.475,166.303c-16.542,0-29.145-13.391-29.145-29.145c0-16.542,13.391-29.145,29.145-29.145
	c16.542,0,29.145,13.391,29.145,29.145C281.407,152.913,268.016,166.303,251.475,166.303z M251.475,122.98
	c-7.877,0-13.391,6.302-13.391,13.391c0,7.877,6.302,13.391,13.391,13.391c7.877,0,13.391-6.302,13.391-13.391
	C265.653,129.282,259.352,122.98,251.475,122.98z"/>
<rect x="355.45" y="74.143" style="fill:#183651;" width="148.874" height="15.754"/>
<rect x="355.45" y="115.103" style="fill:#183651;" width="133.908" height="15.754"/>
<rect x="355.45" y="155.276" style="fill:#183651;" width="118.942" height="15.754"/>
<rect x="0.201" y="74.143" style="fill:#183651;" width="148.874" height="15.754"/>
<rect x="15.167" y="115.103" style="fill:#183651;" width="133.908" height="15.754"/>
<rect x="30.133" y="155.276" style="fill:#183651;" width="118.942" height="15.754"/>
<g>
</g>
<g>
</g>
<g>
</g>
<g>
</g>
<g>
</g>
<g>
</g>
<g>
</g>
<g>
</g>
<g>
</g>
<g>
</g>
<g>
</g>
<g>
</g>
<g>
</g>
<g>
</g>
<g>
</g>
</svg>
