<?xml version="1.0" encoding="iso-8859-1"?>
<!-- Generator: Adobe Illustrator 19.0.0, SVG Export Plug-In . SVG Version: 6.00 Build 0)  -->
<svg version="1.1" id="Capa_1" xmlns="http://www.w3.org/2000/svg" xmlns:xlink="http://www.w3.org/1999/xlink" x="0px" y="0px"
	 viewBox="0 0 504.123 504.123" style="enable-background:new 0 0 504.123 504.123;" xml:space="preserve">
<circle style="fill:#2EA0DA;" cx="251.274" cy="252.849" r="251.274"/>
<path style="fill:#F06151;" d="M156.751,74.831v223.705c0,13.391,10.24,23.631,23.631,23.631h292.234
	c13.391,0,23.631-10.24,23.631-23.631V74.831H156.751z"/>
<path style="fill:#183651;" d="M472.615,329.255H180.382c-17.329,0-31.508-14.178-31.508-31.508V74.831
	c0-4.726,3.151-7.877,7.877-7.877h339.495c4.726,0,7.877,3.151,7.877,7.877v223.705
	C504.123,315.077,489.945,329.255,472.615,329.255z M164.628,82.708v215.828c0,8.665,7.089,15.754,15.754,15.754h292.234
	c8.665,0,15.754-7.089,15.754-15.754V82.708H164.628z"/>
<rect x="188.258" y="106.338" style="fill:#FFFFFF;" width="276.48" height="184.32"/>
<path style="fill:#FBBD5E;" d="M472.615,7.877H180.382c-13.391,0-23.631,10.24-23.631,23.631v43.323h339.495V31.508
	C496.246,18.117,486.006,7.877,472.615,7.877z"/>
<path style="fill:#183651;" d="M496.246,82.708H156.751c-4.726,0-7.877-3.151-7.877-7.877V31.508
	C148.874,14.178,163.052,0,180.382,0h292.234c17.329,0,31.508,14.178,31.508,31.508v43.323
	C504.123,78.769,500.972,82.708,496.246,82.708z M164.628,66.954h323.742V31.508c0-8.665-7.089-15.754-15.754-15.754H180.382
	c-8.665,0-15.754,7.089-15.754,15.754V66.954z"/>
<path style="fill:#F06151;" d="M245.76,385.182L245.76,385.182c-29.145-29.932-68.529-47.262-110.277-47.262l0,0
	c-41.748,0-81.92,17.329-110.277,47.262c-11.028,11.815-17.329,26.782-17.329,42.535v68.529h255.212v-68.529
	C263.089,411.963,257.575,396.997,245.76,385.182z"/>
<path style="fill:#183651;" d="M263.089,504.123H7.877c-4.726,0-7.877-3.151-7.877-7.877v-68.529
	c0-18.117,7.089-35.446,19.692-48.049c29.932-31.508,72.468-49.625,115.791-49.625s85.858,18.117,115.791,49.625
	c12.603,13.391,19.692,29.932,19.692,48.049v68.529C270.966,500.972,267.815,504.123,263.089,504.123z M15.754,488.369h239.458
	v-60.652c0-14.178-5.514-27.569-14.966-37.809c-27.569-28.357-65.378-44.898-104.763-44.898S58.289,361.551,30.72,389.908
	c-9.452,10.24-14.966,23.631-14.966,37.809C15.754,427.717,15.754,488.369,15.754,488.369z"/>
<path style="fill:#FFFFFF;" d="M38.597,465.526v-37.022c0-7.877,3.151-15.754,8.665-21.268
	c22.843-23.631,55.138-37.809,88.222-37.809s65.378,13.391,88.222,37.809c5.514,5.514,8.665,13.391,8.665,21.268v37.022H38.597z"/>
<polygon style="fill:#2EA0DA;" points="144.148,363.126 149.662,343.434 134.695,326.892 118.942,343.434 124.455,363.126 
	108.702,430.08 134.695,460.012 159.902,430.08 "/>
<path style="fill:#FBBD5E;" d="M187.471,191.409l-36.234-5.514l-51.988,17.329L71.68,236.308l8.665,57.502c0,0,0,9.452,2.363,14.178
	c14.966,45.686,78.769,49.625,100.037,6.302c3.151-6.302,5.514-18.117,7.877-26.782l7.877-65.378L187.471,191.409z"/>
<path style="fill:#183651;" d="M133.908,352.886L133.908,352.886c-27.569,0-50.412-16.542-58.289-42.535
	c-1.575-5.514-2.363-14.178-2.363-16.542l-8.665-56.714c0-2.363,0-4.726,1.575-6.302l27.569-33.083
	c0.788-0.788,2.363-2.363,3.938-2.363l51.988-17.329c1.575-0.788,2.363-0.788,3.938,0l36.234,5.514
	c3.151,0.788,5.514,2.363,6.302,5.514l11.028,30.72c0.788,0.788,0.788,2.363,0.788,3.938l-7.877,65.378v0.788l-2.363,5.514
	c-2.363,7.877-3.938,17.329-7.089,22.843C179.594,339.495,157.538,352.886,133.908,352.886z M81.132,238.671l7.877,53.563v0.788
	c0,3.151,0.788,9.452,1.575,12.603c6.302,18.905,22.843,31.508,43.323,31.508c18.117,0,33.871-9.452,42.535-25.994
	c2.363-3.938,3.938-12.603,5.514-19.692l1.575-4.726l7.089-63.015l-8.665-24.418l-29.932-4.726l-48.049,16.542L81.132,238.671z"/>
<path style="fill:#E0E4E8;" d="M170.142,204.8c0,0-5.514,32.295-65.378,26.782c0,0-27.569-13.391-22.055,37.809
	c0,0,0.788,18.117-1.575,24.418c0,0-65.378-105.551,22.055-139.422c0,0,50.412-25.206,73.255,17.329c0,0,51.988,5.514,29.145,81.132
	l-14.178,34.658C191.409,288.295,197.711,198.498,170.142,204.8z"/>
<g>
	<path style="fill:#183651;" d="M81.132,301.686c-2.363,0-5.514-1.575-7.089-3.938c-1.575-2.363-36.234-59.077-20.48-105.551
		c7.089-20.48,22.843-36.234,46.474-44.898c0,0,15.754-7.877,34.658-7.877c19.692,0,36.234,8.665,46.474,25.994
		c6.302,1.575,19.692,6.302,29.145,19.692c11.028,16.542,11.815,40.172,3.151,70.892l-14.178,35.446
		c-1.575,3.938-5.514,5.514-9.452,4.726s-6.302-4.726-6.302-7.877c1.575-24.418,0-63.803-8.665-73.255
		c-4.726,10.24-18.905,25.994-57.502,25.994c-3.938,0-8.665,0-13.391-0.788c-0.788,0-1.575,0-3.151-0.788l0,0
		c0,0-1.575-0.788-3.938-0.788c-2.363,0-3.151,0.788-3.938,1.575c-1.575,1.575-5.514,8.665-3.151,29.145
		c0,4.726,0.788,20.48-1.575,27.569c-0.788,3.151-3.151,4.726-6.302,5.514C81.92,301.686,81.132,301.686,81.132,301.686z
		 M134.695,154.388c-14.966,0-28.357,7.089-28.357,7.089c-19.692,7.877-32.295,19.692-37.809,35.446
		c-7.089,20.48-1.575,44.898,5.514,63.015c-0.788-14.178,2.363-24.418,7.877-30.72c3.938-4.726,9.452-7.089,15.754-7.089
		c3.938,0,7.089,0.788,9.452,1.575c3.938,0,7.089,0.788,10.24,0.788c40.172,0,44.898-20.48,44.898-20.48
		c0.788-3.151,3.151-5.514,6.302-6.302c7.089-1.575,13.391,0.788,18.117,5.514c7.877,8.665,11.815,26.782,12.603,44.111
		c6.302-22.843,5.514-41.748-1.575-53.563c-7.877-12.603-21.268-14.178-22.055-14.178c-2.363,0-4.726-1.575-6.302-3.938
		C161.477,161.477,150.449,154.388,134.695,154.388z"/>
	<rect x="359.975" y="33.083" style="fill:#183651;" width="15.754" height="15.754"/>
	<rect x="404.086" y="33.083" style="fill:#183651;" width="15.754" height="15.754"/>
	<rect x="448.985" y="33.083" style="fill:#183651;" width="15.754" height="15.754"/>
</g>
<g>
	<rect x="396.209" y="171.717" style="fill:#E0E4E8;" width="52.775" height="52.775"/>
	<rect x="317.44" y="171.717" style="fill:#E0E4E8;" width="52.775" height="52.775"/>
	<rect x="238.671" y="171.717" style="fill:#E0E4E8;" width="52.775" height="52.775"/>
</g>
<g>
	<rect x="396.209" y="245.76" style="fill:#183651;" width="52.775" height="14.178"/>
	<rect x="317.44" y="245.76" style="fill:#183651;" width="52.775" height="14.178"/>
	<rect x="238.671" y="245.76" style="fill:#183651;" width="52.775" height="14.178"/>
	<rect x="238.671" y="132.332" style="fill:#183651;" width="210.314" height="14.178"/>
</g>
<g>
</g>
<g>
</g>
<g>
</g>
<g>
</g>
<g>
</g>
<g>
</g>
<g>
</g>
<g>
</g>
<g>
</g>
<g>
</g>
<g>
</g>
<g>
</g>
<g>
</g>
<g>
</g>
<g>
</g>
</svg>
