<?xml version="1.0" encoding="iso-8859-1"?>
<!-- Generator: Adobe Illustrator 19.0.0, SVG Export Plug-In . SVG Version: 6.00 Build 0)  -->
<svg version="1.1" id="Capa_1" xmlns="http://www.w3.org/2000/svg" xmlns:xlink="http://www.w3.org/1999/xlink" x="0px" y="0px"
	 viewBox="0 0 504.001 504.001" style="enable-background:new 0 0 504.001 504.001;" xml:space="preserve">
<circle style="fill:#FBBD5E;" cx="255.9" cy="252.4" r="248.1"/>
<g>
	<path style="fill:#183651;" d="M370.2,427.3H133.8c-3.9,0-7.9-3.2-7.9-7.9c0-3.9,3.2-7.9,7.9-7.9h237.1c3.9,0,7.9,3.2,7.9,7.9
		C378,424.1,374.9,427.3,370.2,427.3z"/>
	<path style="fill:#183651;" d="M476.5,374.5h-15.8v-3.2h15.8V374.5z M43.3,374.5H27.5v-15.8h15.8V374.5z M476.5,354.8h-15.8V339
		h15.8V354.8z M43.3,343H27.5v-15.8h15.8V343z M476.5,324.1h-15.8v-15.8h15.8V324.1z M43.3,312.3H27.5v-15.8h15.8V312.3z
		 M476.5,293.4h-15.8v-15.8h15.8V293.4z M43.3,280.8H27.5V265h15.8V280.8z M476.5,261.9h-15.8v-15.8h15.8V261.9z M43.3,250H27.5
		v-15.8h15.8V250z M476.5,231.1h-15.8v-15.7h15.8V231.1z M43.3,219.3H27.5v-15.8h15.8V219.3z M476.5,199.6h-15.8v-15.8h15.8V199.6z
		 M43.3,187.8H27.5V172h15.8V187.8z M476.5,168.9h-15.8v-15.8h15.8V168.9z M43.3,157.1H27.5v-15.8h15.8V157.1z M476.5,138.2h-15.8
		v-15.8h15.8V138.2z M43.3,125.6H27.5v-15.8h15.8V125.6z M476.5,106.7h-15.8V84.6h15.8V106.7z M452.1,100.4h-15.8V84.6h15.8V100.4z
		 M420.6,100.4h-15.8V84.6h15.8V100.4z M389.8,100.4H374V84.6h15.8V100.4z M359.1,100.4h-15.8V84.6h15.8V100.4z M327.6,100.4h-15.8
		V84.6h15.8V100.4z M296.9,100.4h-15.8V84.6h15.8V100.4z M265.4,100.4h-15.8V84.6h15.8V100.4z M234.7,100.4h-15.8V84.6h15.8V100.4z
		 M204,100.4h-15.8V84.6H204V100.4z M172.4,100.4h-15.8V84.6h15.8V100.4z M141.7,100.4H126V84.6h15.8v15.8H141.7z M111,100.4H95.2
		V84.6H111V100.4z M79.5,100.4H63.7V84.6h15.8V100.4z M48.8,100.4H35.4h-7.9v-5.5V84.6h21.3C48.8,84.6,48.8,100.4,48.8,100.4z"/>
</g>
<path style="fill:#FFFFFF;" d="M300,374.5h-96c-7.9,0-15,6.3-15,15v61.4c0,7.9,6.3,15,15,15h96c7.9,0,15-6.3,15-15v-61.4
	C315,380.8,307.9,374.5,300,374.5z"/>
<path style="fill:#183651;" d="M300,473h-96c-12.6,0-22.8-10.2-22.8-22.8v-61.4c0-12.6,10.2-22.8,22.8-22.8h96
	c12.6,0,22.8,10.2,22.8,22.8v61.4C322.9,462.7,312.7,473,300,473z M204,381.6c-3.9,0-7.1,3.2-7.1,7.1v61.4c0,3.9,3.2,7.1,7.1,7.1h96
	c3.9,0,7.1-3.2,7.1-7.1v-61.4c0-3.9-3.2-7.1-7.1-7.1H204z"/>
<polygon style="fill:#FFFFFF;" points="273.3,492.6 230.7,492.6 237,465.1 267,465.1 "/>
<g>
	<path style="fill:#183651;" d="M274.1,500.5C274.1,500.5,273.3,500.5,274.1,500.5h-43.3c-2.4,0-4.7-0.8-6.3-3.2
		c-1.6-1.6-2.4-3.9-1.6-6.3l6.3-27.6c0.8-3.2,3.9-6.3,7.9-6.3h30.7c3.9,0,7.1,2.4,7.9,6.3l6.3,26c0.8,0.8,0.8,2.4,0.8,3.2
		C281.1,497.4,278,500.5,274.1,500.5z M240.2,484.8h23.6l-3.2-12.6h-18.1L240.2,484.8z"/>
	<path style="fill:#183651;" d="M279.6,500.5h-55.1c-3.9,0-7.9-3.2-7.9-7.9s3.2-7.9,7.9-7.9h55.1c3.9,0,7.9,3.2,7.9,7.9
		S284.3,500.5,279.6,500.5z"/>
</g>
<path style="fill:#FFFFFF;" d="M481.2,374.5h-96.1c-7.9,0-15,6.3-15,15v61.4c0,7.9,6.3,15,15,15h96.1c7.9,0,15-6.3,15-15v-61.4
	C496.2,380.8,489.9,374.5,481.2,374.5z"/>
<path style="fill:#183651;" d="M481.2,473h-96.1c-12.6,0-22.8-10.2-22.8-22.8v-61.4c0-12.6,10.2-22.8,22.8-22.8h96.1
	c12.6,0,22.8,10.2,22.8,22.8v61.4C504.1,462.7,493.8,473,481.2,473z M385.1,381.6c-3.9,0-7.1,3.2-7.1,7.1v61.4
	c0,3.9,3.2,7.1,7.1,7.1h96.1c3.9,0,7.1-3.2,7.1-7.1v-61.4c0-3.9-3.2-7.1-7.1-7.1H385.1z"/>
<polygon style="fill:#FFFFFF;" points="455.2,492.6 411.9,492.6 418.2,465.1 448.9,465.1 "/>
<g>
	<path style="fill:#183651;" d="M455.2,500.5L455.2,500.5h-43.3c-2.4,0-4.7-0.8-6.3-3.2c-1.6-1.6-2.4-3.9-1.6-6.3l6.3-27.6
		c0.8-3.2,3.9-6.3,7.9-6.3h30.7c3.9,0,7.1,2.4,7.9,6.3l6.3,26c0.8,0.8,0.8,2.4,0.8,3.2C463.1,497.4,459.2,500.5,455.2,500.5z
		 M421.4,484.8H445l-3.2-12.6h-18.1L421.4,484.8z"/>
	<path style="fill:#183651;" d="M461.5,500.5h-55.9c-3.9,0-7.9-3.2-7.9-7.9s3.2-7.9,7.9-7.9h55.9c3.9,0,7.9,3.2,7.9,7.9
		S465.5,500.5,461.5,500.5z"/>
</g>
<path style="fill:#FFFFFF;" d="M118.9,374.5H22.8c-7.9,0-15,6.3-15,15v61.4c0,7.9,6.3,15,15,15h96.1c7.9,0,15-6.3,15-15v-61.4
	C133.8,380.8,126.8,374.5,118.9,374.5z"/>
<path style="fill:#183651;" d="M118.9,473H22.8C10.2,473,0,462.8,0,450.2v-61.4C0,376.2,10.2,366,22.8,366h96.1
	c12.6,0,22.8,10.2,22.8,22.8v61.4C141.7,462.7,131.5,473,118.9,473z M22.8,381.6c-3.9,0-7.1,3.2-7.1,7.1v61.4c0,3.9,3.2,7.1,7.1,7.1
	h96.1c3.9,0,7.1-3.2,7.1-7.1v-61.4c0-3.9-3.2-7.1-7.1-7.1H22.8z"/>
<polygon style="fill:#FFFFFF;" points="92.1,492.6 48.8,492.6 55.1,465.1 85.8,465.1 "/>
<g>
	<path style="fill:#183651;" d="M92.1,500.5L92.1,500.5H48.8c-2.4,0-4.7-0.8-6.3-3.2c-1.6-1.6-2.4-3.9-1.6-6.3l6.3-27.6
		c0.8-3.2,3.9-6.3,7.9-6.3h30.7c3.9,0,7.1,2.4,7.9,6.3l5.5,26c0.8,0.8,0.8,2.4,0.8,3.2C100,497.4,96.8,500.5,92.1,500.5z M59,484.8
		h23.6l-3.2-12.6h-18L59,484.8z"/>
	<path style="fill:#183651;" d="M98.4,500.5H42.5c-3.9,0-7.9-3.2-7.9-7.9s3.2-7.9,7.9-7.9h55.9c3.9,0,7.9,3.2,7.9,7.9
		S103.1,500.5,98.4,500.5z"/>
</g>
<path style="fill:#F06151;" d="M376.5,12.2h-249c-8.7,0-15.8,7.1-15.8,15.8v156.8h279.6V27.1C392.2,19.2,385.1,12.2,376.5,12.2z"/>
<path style="fill:#183651;" d="M392.2,192.5H111.8c-3.9,0-7.9-3.2-7.9-7.9V27.1c0-12.6,10.2-23.6,23.6-23.6h248.9
	C389,3.5,400,13.7,400,27.1v156.8C400.1,188.6,396.1,192.5,392.2,192.5z M119.7,176.8h264.7V27.1c0-3.9-3.2-7.9-7.9-7.9h-249
	c-3.9,0-7.9,3.2-7.9,7.9C119.7,27.1,119.7,176.8,119.7,176.8z"/>
<g>
	<rect x="143.3" y="42.9" style="fill:#FFFFFF;" width="218.2" height="110.3"/>
	<path style="fill:#FFFFFF;" d="M111.8,184.7v41c0,8.7,7.1,15.8,15.8,15.8h248.9c8.7,0,15.8-7.1,15.8-15.8v-41H111.8L111.8,184.7z"
		/>
</g>
<path style="fill:#183651;" d="M376.5,249.2h-249c-12.6,0-23.6-10.2-23.6-23.6v-41c0-3.9,3.2-7.9,7.9-7.9h279.6
	c3.9,0,7.9,3.2,7.9,7.9v41C400.1,238.2,389.1,249.2,376.5,249.2z M119.7,192.5v33.1c0,3.9,3.2,7.9,7.9,7.9h248.9
	c3.9,0,7.9-3.2,7.9-7.9v-33.1H119.7L119.7,192.5z"/>
<polygon style="fill:#FFFFFF;" points="300,288.6 204,288.6 218.1,241.4 285.9,241.4 "/>
<g>
	<path style="fill:#183651;" d="M300,296.5L300,296.5h-96c-2.4,0-4.7-0.8-6.3-3.2c-1.6-1.6-1.6-4.7-1.6-7.1l14.2-47.3
		c0.8-3.2,3.9-5.5,7.1-5.5h68.5c3.2,0,6.3,2.4,7.1,5.5l13.4,45.7c0.8,0.8,0.8,2.4,0.8,3.9C307.9,292.6,304.8,296.5,300,296.5z
		 M214.2,280.8H289l-9.5-31.5h-56.7L214.2,280.8z"/>
	<path style="fill:#183651;" d="M314.2,296.5H189.8c-3.9,0-7.9-3.2-7.9-7.9c0-3.9,3.2-7.9,7.9-7.9h124.5c3.9,0,7.9,3.2,7.9,7.9
		C322.1,292.6,318.2,296.5,314.2,296.5z"/>
	<path style="fill:#183651;" d="M273.3,220.9h-42.5c-3.9,0-7.9-3.2-7.9-7.9s3.2-7.9,7.9-7.9h42.5c3.9,0,7.9,3.2,7.9,7.9
		C281.1,217.7,277.2,220.9,273.3,220.9z"/>
</g>
<g>
	<circle style="fill:#F06151;" cx="433.2" cy="419.4" r="17.3"/>
	<circle style="fill:#F06151;" cx="252" cy="419.4" r="17.3"/>
	<circle style="fill:#F06151;" cx="70.8" cy="419.4" r="17.3"/>
</g>
<path style="fill:#2EA0DA;" d="M237.8,113v9.5H267V113c11-5.5,18.1-16.5,18.1-29.1c0-18.1-15-32.3-32.3-32.3s-32.3,15-32.3,32.3
	C219.7,97.2,226.8,107.5,237.8,113z"/>
<path style="fill:#E0E4E8;" d="M235.5,120.9v7.9c0,9.5,7.1,16.5,16.5,16.5l0,0c9.5,0,16.5-7.1,16.5-16.5v-7.9
	C268.5,120.9,235.5,120.9,235.5,120.9z"/>
<g>
</g>
<g>
</g>
<g>
</g>
<g>
</g>
<g>
</g>
<g>
</g>
<g>
</g>
<g>
</g>
<g>
</g>
<g>
</g>
<g>
</g>
<g>
</g>
<g>
</g>
<g>
</g>
<g>
</g>
</svg>
