<svg xmlns="http://www.w3.org/2000/svg" width="256" height="256" viewBox="0 0 2000 2000">
  <defs>
    <style>
      .cls-1 {
        fill: #fff;
        fill-rule: evenodd;
      }
    </style>
  </defs>
  <path id="Forma_1" data-name="Forma 1" class="cls-1" d="M69.969,1699.76L495.1,1274.64c2.259-2.26,4.909-3.84,7.27-5.94A800.611,800.611,0,0,1,369.9,826.56C369.9,382.211,730.108,22,1174.45,22S1979,382.211,1979,826.552,1618.8,1631.1,1174.46,1631.1a800.568,800.568,0,0,1-442.139-132.47c-2.1,2.35-3.675,5-5.934,7.26l-425.14,425.14A163.535,163.535,0,0,1,69.969,1699.76ZM1174.45,1352.19c290.31,0,525.65-235.33,525.65-525.638S1464.75,300.9,1174.45,300.9,648.809,536.248,648.809,826.552,884.153,1352.19,1174.45,1352.19Z"/>
</svg>
