<svg xmlns="http://www.w3.org/2000/svg" width="256" height="256" viewBox="0 0 2000 2000">
  <defs>
    <style>
      .cls-1 {
        fill: #275362;
        fill-rule: evenodd;
      }
    </style>
  </defs>
  <path id="Rounded_Rectangle_2_copy" data-name="Rounded Rectangle 2 copy" class="cls-1" d="M217,67H1783a150,150,0,0,1,150,150V1783a150,150,0,0,1-150,150H217A150,150,0,0,1,67,1783V217A150,150,0,0,1,217,67Zm21,118H1762a50,50,0,0,1,50,50V934H188V235A50,50,0,0,1,238,185Zm-50,863H1812v712a50.005,50.005,0,0,1-50,50H238a50,50,0,0,1-50-50V1048Z"/>
  <path class="cls-1" d="M67,934.484H1933V1048.3H67V934.484Z"/>
  <path id="Forma_1_copy" data-name="Forma 1 copy" class="cls-1" d="M1221.04,1563.83H778.965c-77.755,0-140.988-63.28-140.988-141.09v-60.18a40.225,40.225,0,1,1,80.45,0v60.18a60.62,60.62,0,0,0,60.538,60.58H1221.04a60.617,60.617,0,0,0,60.53-60.58v-60.18a40.225,40.225,0,1,1,80.45,0v60.18C1362.02,1500.55,1298.79,1563.83,1221.04,1563.83Zm0-896.6H778.965c-77.755,0-140.988-63.294-140.988-141.122V465.917a40.225,40.225,0,1,1,80.45,0V526.11a60.629,60.629,0,0,0,60.538,60.6H1221.04a60.626,60.626,0,0,0,60.53-60.6V465.917a40.225,40.225,0,1,1,80.45,0V526.11C1362.02,603.938,1298.79,667.232,1221.04,667.232Z"/>
</svg>
