<svg xmlns="http://www.w3.org/2000/svg" xmlns:xlink="http://www.w3.org/1999/xlink" width="256" height="256" viewBox="0 0 2000 2000">
  <defs>
    <style>
      .cls-1 {
        fill: #fff;
        fill-rule: evenodd;
        filter: url(#filter);
      }
    </style>
    <filter id="filter" x="44.031" y="13" width="1911.939" height="1975" filterUnits="userSpaceOnUse">
      <feFlood result="flood" flood-color="#fff"/>
      <feComposite result="composite" operator="in" in2="SourceGraphic"/>
      <feBlend result="blend" in2="SourceGraphic"/>
    </filter>
  </defs>
  <path class="cls-1" d="M1941.2,1278.23l-207.99-173.98a686.945,686.945,0,0,0,0-207.5L1941.2,722.764a41.074,41.074,0,0,0,9.25-52.114l-189.38-327.8a41.244,41.244,0,0,0-49.78-18.083l-254.38,92.9a738.3,738.3,0,0,0-180.17-103.549l-46.8-267.087A41.179,41.179,0,0,0,1189.38,13H810.63a41.179,41.179,0,0,0-40.567,34.034l-46.8,267.087A738.3,738.3,0,0,0,543.1,417.67l-254.39-92.9a41.086,41.086,0,0,0-49.776,18.083L49.556,670.65A41.071,41.071,0,0,0,58.8,722.764L266.791,896.749a686.945,686.945,0,0,0,0,207.5L58.8,1278.23a41.08,41.08,0,0,0-9.248,52.12l189.375,327.79a41.263,41.263,0,0,0,49.776,18.09l254.386-92.9a738.434,738.434,0,0,0,180.166,103.55l46.8,267.09A41.186,41.186,0,0,0,810.626,1988H1189.37a41.193,41.193,0,0,0,40.57-34.03l46.8-267.09a738.489,738.489,0,0,0,180.16-103.55l254.39,92.9a41.39,41.39,0,0,0,49.78-18.09l189.37-327.79A41.079,41.079,0,0,0,1941.2,1278.23ZM1000.5,671c181.98,0,329.5,147.522,329.5,329.5S1182.48,1330,1000.5,1330,671,1182.48,671,1000.5,818.522,671,1000.5,671Z"/>
</svg>
