<svg xmlns="http://www.w3.org/2000/svg" width="256" height="256" viewBox="0 0 2000 2000">
  <defs>
    <style>
      .cls-1 {
        fill: #fff;
        fill-rule: evenodd;
      }
    </style>
  </defs>
  <path id="Rounded_Rectangle_1" data-name="Rounded Rectangle 1" class="cls-1" d="M58.774,211.2L220.936,49.062c33.17-33.165,91.771-28.344,130.89,10.768L1934.17,1641.92c39.12,39.12,43.94,97.71,10.77,130.87l-162.16,162.14c-33.17,33.17-91.77,28.34-130.89-10.77L69.544,342.068C30.425,302.956,25.6,244.363,58.774,211.2Z"/>
  <path id="Rounded_Rectangle_1_copy" data-name="Rounded Rectangle 1 copy" class="cls-1" d="M1944.23,211.2L1782.06,49.062c-33.17-33.165-91.77-28.344-130.89,10.768L68.831,1641.92c-39.118,39.12-43.94,97.71-10.77,130.87l162.162,162.14c33.17,33.17,91.771,28.34,130.89-10.77L1933.46,342.068C1972.57,302.956,1977.4,244.363,1944.23,211.2Z"/>
</svg>
