<svg xmlns="http://www.w3.org/2000/svg" width="256" height="256" viewBox="0 0 2000 2000">
  <defs>
    <style>
      .cls-1 {
        fill: #275362;
        fill-rule: evenodd;
      }
    </style>
  </defs>
  <path id="Forma_1" data-name="Forma 1" class="cls-1" d="M205.794,703.473q37.32,26.354,225.014,156.5T718.4,1060.39q10.974,7.71,46.641,33.49,35.673,25.83,59.266,41.76,23.6,15.915,57.087,35.68,33.481,19.74,63.114,29.63,29.651,9.885,54.89,9.88h2.205q25.245,0,54.9-9.88,29.61-9.855,63.11-29.63,33.465-19.785,57.07-35.68,23.61-15.915,59.28-41.76,35.655-25.83,46.65-33.49,100.965-70.29,513.7-356.942,80.115-55.992,133.89-135.084,53.82-79.045,53.8-165.817,0-72.5-52.15-124.111-52.14-51.628-123.48-51.617H192.618q-84.517,0-130.068,57.1Q17,341.044,17,426.7q0,69.19,60.371,149.92T205.794,703.473ZM1874.22,820.983q-359.985,243.789-546.61,378.9-62.565,46.125-101.54,71.93-38.97,25.83-103.73,52.72-64.74,26.925-120.72,26.9H999.4q-55.98,0-120.74-26.9t-103.729-52.72q-38.958-25.785-101.525-71.93-148.191-108.72-545.535-378.9A581.89,581.89,0,0,1,17,725.431V1597.44q0,72.51,51.588,124.11,51.588,51.645,124.042,51.63H1808.38q72.435,0,124.03-51.63,51.615-51.66,51.59-124.11V725.431Q1936.8,778.124,1874.22,820.983Z"/>
</svg>
