<svg xmlns="http://www.w3.org/2000/svg" width="256" height="256" viewBox="0 0 2000 2000">
  <defs>
    <style>
      .cls-1 {
        fill: #275362;
        fill-rule: evenodd;
      }
    </style>
  </defs>
  <path id="Rounded_Rectangle_1_copy" data-name="Rounded Rectangle 1 copy" class="cls-1" d="M182,406H1819a109,109,0,0,1,109,109v970a109,109,0,0,1-109,109H182A109,109,0,0,1,73,1485V515A109,109,0,0,1,182,406Zm49,111H1770a50,50,0,0,1,50,50v867a50.005,50.005,0,0,1-50,50H231a50,50,0,0,1-50-50V567A50,50,0,0,1,231,517Z"/>
  <path id="Rounded_Rectangle_2_copy_2" data-name="Rounded Rectangle 2 copy 2" class="cls-1" d="M1099,744h637a40,40,0,0,1,40,40v48a40,40,0,0,1-40,40H1099a40,40,0,0,1-40-40V784A40,40,0,0,1,1099,744Zm0,190h637a40,40,0,0,1,40,40v48a40,40,0,0,1-40,40H1099a40,40,0,0,1-40-40V974A40,40,0,0,1,1099,934Zm0,195h637a40,40,0,0,1,40,40v48a40,40,0,0,1-40,40H1099a40,40,0,0,1-40-40v-48A40,40,0,0,1,1099,1129Z"/>
  <path id="Forma_1" data-name="Forma 1" class="cls-1" d="M540.5,1017.42c73.178,0,132.507-69.269,132.507-154.713C673.009,744.22,613.683,708,540.5,708S408,744.22,408,862.707C408,948.151,467.318,1017.42,540.5,1017.42Zm292.6,227.71-66.85-150.22a33.475,33.475,0,0,0-15.115-16.05l-103.75-53.87a6.676,6.676,0,0,0-7.115.6c-29.344,22.13-63.845,33.84-99.771,33.84s-70.431-11.71-99.775-33.84a6.685,6.685,0,0,0-7.12-.6l-103.744,53.87a33.47,33.47,0,0,0-15.115,16.05L247.9,1245.13A33.343,33.343,0,0,0,278.446,1292H802.553A33.349,33.349,0,0,0,833.1,1245.13Z"/>
</svg>
