<?xml version="1.0" encoding="iso-8859-1"?>
<!-- Generator: Adobe Illustrator 19.0.0, SVG Export Plug-In . SVG Version: 6.00 Build 0)  -->
<svg version="1.1" id="Capa_1" xmlns="http://www.w3.org/2000/svg" xmlns:xlink="http://www.w3.org/1999/xlink" x="0px" y="0px"
	 viewBox="0 0 504.123 504.123" style="enable-background:new 0 0 504.123 504.123;" xml:space="preserve">
<circle style="fill:#F06151;" cx="252.062" cy="251.274" r="251.274"/>
<path style="fill:#4FBF9F;" d="M434.806,496.246H69.317c-33.871,0-60.652-26.782-60.652-60.652V10.24h365.489v425.354
	C374.154,469.465,400.935,496.246,434.806,496.246z"/>
<path style="fill:#183651;" d="M434.806,504.123L434.806,504.123H69.317c-37.809,0-68.529-30.72-68.529-68.529V10.24
	c0-3.938,3.151-7.877,7.877-7.877h365.489c3.938,0,7.877,3.151,7.877,7.877v425.354c0,29.145,23.631,52.775,52.775,52.775l0,0l0,0
	c3.938,0,7.877,3.151,7.877,7.877C442.683,500.972,438.745,504.123,434.806,504.123z M16.542,18.117v417.477
	c0,29.145,23.631,52.775,52.775,52.775h321.378c-14.966-12.603-25.206-31.508-25.206-52.775V18.117
	C365.489,18.117,16.542,18.117,16.542,18.117z"/>
<path style="fill:#FFFFFF;" d="M69.317,464.738c-15.754,0-29.145-13.391-29.145-29.145V40.96h302.474v394.634
	c0,10.24,1.575,19.692,4.726,29.145H69.317z"/>
<path style="fill:#FBBD5E;" d="M434.806,496.246L434.806,496.246c-33.871,0-60.652-26.782-60.652-60.652v-133.12h121.305v133.12
	C495.458,469.465,467.889,496.246,434.806,496.246z"/>
<path style="fill:#183651;" d="M434.806,504.123c-37.809,0-68.529-30.72-68.529-68.529v-133.12c0-3.938,3.151-7.877,7.877-7.877
	h121.305c3.938,0,7.877,3.151,7.877,7.877v133.12C503.335,473.403,472.615,504.123,434.806,504.123z M382.031,310.351v125.243
	c0,29.145,23.631,52.775,52.775,52.775s52.775-23.631,52.775-52.775V310.351H382.031z"/>
<path style="fill:#FFFFFF;" d="M434.806,464.738c-15.754,0-29.145-13.391-29.145-29.145V333.982h58.289v101.612
	C463.951,452.135,450.56,464.738,434.806,464.738z"/>
<g>
	<rect x="70.892" y="87.434" style="fill:#183651;" width="133.908" height="15.754"/>
	<rect x="116.578" y="159.902" style="fill:#183651;" width="93.735" height="15.754"/>
	<rect x="215.04" y="409.6" style="fill:#183651;" width="93.735" height="15.754"/>
	<polygon style="fill:#183651;" points="282.782,252.849 174.08,252.849 174.08,237.095 267.028,237.095 267.028,163.052 
		282.782,163.052 	"/>
	<path style="fill:#183651;" d="M274.905,131.545l-37.022-37.022l37.022-37.022l37.022,37.022L274.905,131.545z M259.938,94.523
		l14.966,14.966l14.966-14.966l-14.966-14.966L259.938,94.523z"/>
	<path style="fill:#183651;" d="M104.763,282.782L67.742,245.76l37.022-37.022l37.022,37.022L104.763,282.782z M89.797,244.972
		l14.966,14.966l14.966-14.966l-14.966-14.966L89.797,244.972z"/>
	<path style="fill:#183651;" d="M274.905,371.791l-37.022-37.022l37.022-37.022l37.022,37.022L274.905,371.791z M259.938,334.769
		l14.966,14.966l14.966-14.966l-14.966-14.966L259.938,334.769z"/>
	<rect x="78.769" y="332.406" style="fill:#183651;" width="126.031" height="15.754"/>
	<rect x="84.283" y="409.6" style="fill:#183651;" width="15.754" height="15.754"/>
	<rect x="124.455" y="409.6" style="fill:#183651;" width="15.754" height="15.754"/>
	<rect x="163.84" y="409.6" style="fill:#183651;" width="15.754" height="15.754"/>
</g>
<g>
</g>
<g>
</g>
<g>
</g>
<g>
</g>
<g>
</g>
<g>
</g>
<g>
</g>
<g>
</g>
<g>
</g>
<g>
</g>
<g>
</g>
<g>
</g>
<g>
</g>
<g>
</g>
<g>
</g>
</svg>
