<?xml version="1.0" encoding="iso-8859-1"?>
<!-- Generator: Adobe Illustrator 19.0.0, SVG Export Plug-In . SVG Version: 6.00 Build 0)  -->
<svg version="1.1" id="Capa_1" xmlns="http://www.w3.org/2000/svg" xmlns:xlink="http://www.w3.org/1999/xlink" x="0px" y="0px"
	 viewBox="0 0 504.123 504.123" style="enable-background:new 0 0 504.123 504.123;" xml:space="preserve">
<circle style="fill:#E0E4E8;" cx="252.062" cy="237.883" r="237.883"/>
<path style="fill:#FFFFFF;" d="M111.852,154.388h0.788c0-3.938-0.788-7.089-0.788-11.028c0-60.652,49.625-110.277,111.065-110.277
	c52.775,0,97.674,37.809,107.914,87.434c10.24-6.302,22.055-9.452,34.658-9.452c37.809,0,68.529,30.72,68.529,68.529
	c0,8.665-1.575,16.542-4.726,24.418c23.631,0.788,42.535,20.48,42.535,44.111c0,24.418-19.692,44.111-44.111,44.111H111.852
	c-37.809,0-68.529-30.72-68.529-68.529S74.043,154.388,111.852,154.388z"/>
<path style="fill:#183651;" d="M428.505,299.323H111.852c-41.748,0-76.406-33.871-76.406-76.406
	c0-39.385,29.932-71.68,68.529-75.618c0-0.788,0-2.363,0-3.938c0-65.378,53.563-118.942,118.942-118.942
	c51.988,0,98.462,34.658,113.428,83.495c9.452-3.938,19.692-6.302,29.932-6.302c41.748,0,76.406,33.871,76.406,76.406
	c0,5.514-0.788,11.815-2.363,17.329c23.631,5.514,40.172,25.994,40.172,50.412C480.492,276.48,456.862,299.323,428.505,299.323z
	 M111.852,162.265c-33.083,0-59.865,27.569-59.865,60.652s26.782,60.652,60.652,60.652h315.865
	c19.692,0,36.234-16.542,36.234-36.234s-15.754-35.446-35.446-36.234c-2.363,0-4.726-1.575-6.302-3.151
	c-1.575-2.363-1.575-4.726-0.788-7.089c2.363-7.089,3.938-14.178,3.938-21.268c0-33.083-26.782-60.652-60.652-60.652
	c-11.028,0-21.268,3.151-30.72,8.665c-2.363,1.575-4.726,1.575-7.089,0.788c-2.363-0.788-3.938-3.151-4.726-5.514
	c-10.24-47.262-52.775-81.132-100.825-81.132c-56.714,0-103.188,46.474-103.188,103.188c0,2.363,0,4.726,0.788,6.302
	c0,1.575,0,2.363,0.788,3.938c0,2.363-0.788,4.726-2.363,6.302c-1.575,1.575-3.938,2.363-6.302,2.363
	C112.64,163.052,111.852,163.052,111.852,162.265z"/>
<path style="fill:#2EA0DA;" d="M432.443,194.56c1.575-4.726,2.363-10.24,2.363-15.754c0-37.809-30.72-68.529-68.529-68.529
	c-12.603,0-24.418,3.938-34.658,9.452c-11.028-49.625-55.138-87.434-107.914-87.434c-62.228,0.788-111.852,50.412-111.852,111.065
	c0,3.938,0.788,7.089,0.788,11.028h-0.788c-27.569,0-51.2,16.542-62.228,39.385"/>
<path style="fill:#183651;" d="M50.412,202.437c-0.788,0-2.363,0-3.151-0.788c-3.938-1.575-5.514-6.302-3.938-10.24
	c11.028-24.418,34.658-40.96,61.44-44.111c0-0.788,0-2.363,0-3.938c0-65.378,53.563-118.942,118.942-118.942
	c51.988,0,98.462,34.658,113.428,83.495c9.452-3.938,19.692-6.302,29.932-6.302c41.748,0,76.406,33.871,76.406,76.406
	c0,5.514-0.788,11.028-2.363,17.329c-0.788,3.938-5.514,7.089-9.452,5.514c-3.938-0.788-7.089-5.514-5.514-9.452
	c1.575-4.726,1.575-9.452,1.575-13.391c0-33.083-26.782-60.652-60.652-60.652c-11.028,0-21.268,3.151-30.72,8.665
	c-2.363,1.575-4.726,1.575-7.089,0.788c-2.363-0.788-3.938-3.151-4.726-5.514c-10.24-47.262-52.775-81.132-100.825-81.132
	c-56.714,0-103.188,46.474-103.188,103.188c0,2.363,0,4.726,0.788,6.302c0,1.575,0,2.363,0.788,3.938
	c0,2.363-0.788,4.726-2.363,6.302c-1.575,1.575-3.938,2.363-6.302,2.363h-1.575c-22.843,0-44.111,14.178-54.351,35.446
	C55.926,200.862,52.775,202.437,50.412,202.437z"/>
<path style="fill:#F06151;" d="M361.551,392.271L361.551,392.271c-26.782-28.357-64.591-44.111-103.975-44.111l0,0
	c-39.385,0-76.406,15.754-103.975,44.111c-10.24,11.028-16.542,25.206-16.542,40.172v63.803h239.458v-63.803
	C377.305,417.477,371.791,402.511,361.551,392.271z"/>
<path style="fill:#183651;" d="M377.305,504.123H137.846c-4.726,0-7.877-3.151-7.877-7.877v-63.803
	c0-17.329,6.302-33.083,18.117-45.686c28.357-29.932,68.529-46.474,109.489-46.474s81.132,17.329,109.489,46.474
	c11.815,12.603,18.117,28.357,18.117,45.686v63.803C385.182,500.972,382.031,504.123,377.305,504.123z M145.723,488.369h223.705
	v-55.926c0-13.391-4.726-25.206-14.178-34.658c-25.206-26.782-61.44-41.748-97.674-41.748c-37.022,0-72.468,14.966-97.674,41.748
	c-8.665,9.452-14.178,22.055-14.178,34.658L145.723,488.369L145.723,488.369z"/>
<path style="fill:#FFFFFF;" d="M169.354,464.738v-32.295c0-7.089,2.363-13.391,7.089-18.117
	c21.268-22.055,50.412-34.658,81.132-34.658s59.865,12.603,81.132,34.658c4.726,4.726,7.089,11.815,7.089,18.117v32.295H169.354z"/>
<polygon style="fill:#2EA0DA;" points="265.452,371.003 270.966,352.886 256.788,337.92 242.609,352.886 247.335,371.003 
	232.369,434.806 256.788,462.375 280.418,434.806 "/>
<path style="fill:#FBBD5E;" d="M306.412,210.314l-33.871-5.514l-48.049,16.542l-25.994,31.508l7.877,53.563
	c0,0,0,8.665,1.575,13.391c14.178,43.323,73.255,46.474,93.735,5.514c3.151-5.514,5.514-17.329,7.089-24.418l7.089-61.44
	L306.412,210.314z"/>
<path style="fill:#183651;" d="M256,362.338L256,362.338c-25.994,0-47.262-15.754-55.138-40.172
	c-1.575-5.514-2.363-13.391-2.363-14.966l-7.877-52.775c0-2.363,0-4.726,1.575-6.302l25.994-31.508
	c0.788-0.788,2.363-2.363,3.938-2.363l48.837-16.542c1.575-0.788,2.363-0.788,3.938,0l33.871,5.514
	c3.151,0.788,5.514,2.363,6.302,5.514l10.24,29.145c0.788,0.788,0.788,2.363,0.788,3.938l-7.089,61.44v0.788l-1.575,4.726
	c-1.575,7.877-3.938,16.542-6.302,21.268C299.323,349.735,278.843,362.338,256,362.338z M207.163,255.212l7.089,50.412v0.788
	c0,3.151,0.788,8.665,1.575,11.815c5.514,17.329,21.268,29.145,40.172,29.145c17.329,0,31.508-8.665,39.385-24.418
	c1.575-3.938,3.938-11.815,5.514-18.117l0.788-4.726l7.089-59.077l-7.877-22.843l-27.569-4.726l-44.898,14.966L207.163,255.212z"/>
<path style="fill:#E0E4E8;" d="M289.871,222.917c0,0-4.726,29.932-60.652,25.206c0,0-25.994-12.603-21.268,35.446
	c0,0,0.788,16.542-1.575,22.843c0,0-61.44-98.462,20.48-130.757c0,0,47.262-23.631,69.317,16.542c0,0,48.837,4.726,27.569,76.406
	l-13.391,33.083C309.563,300.898,315.865,217.403,289.871,222.917z"/>
<g>
	<path style="fill:#183651;" d="M206.375,314.289c-2.363,0-5.514-1.575-7.089-3.938c-1.575-2.363-33.871-55.926-19.692-99.249
		c6.302-19.692,21.268-33.871,43.323-42.535c0,0,14.966-7.877,33.083-7.877c18.905,0,33.871,8.665,44.111,24.418
		c6.302,1.575,18.905,6.302,26.782,18.905c10.24,15.754,11.028,38.597,2.363,66.954l-13.391,33.083
		c-1.575,3.938-5.514,5.514-9.452,4.726c-3.938-0.788-6.302-4.726-6.302-7.877c1.575-22.843,0-58.289-7.089-67.742
		c-4.726,9.452-18.905,24.418-54.351,24.418c-3.938,0-7.877,0-12.603-0.788c-0.788,0-1.575,0-3.151-0.788
		c0,0-1.575-0.788-3.151-0.788s-2.363,0.788-3.151,1.575c-1.575,1.575-4.726,7.877-3.151,26.782c0,4.726,0.788,19.692-1.575,25.994
		c-0.788,3.151-3.151,4.726-6.302,5.514C207.163,314.289,206.375,314.289,206.375,314.289z M256.788,176.443
		c-14.178,0-26.782,6.302-26.782,6.302c-18.905,7.089-29.932,18.117-35.446,33.083c-6.302,18.117-1.575,39.385,3.938,55.926
		c0-11.815,2.363-20.48,7.877-26.782c3.938-3.938,8.665-6.302,14.966-6.302c3.938,0,7.089,0.788,8.665,1.575
		c3.151,0,7.089,0.788,9.452,0.788c37.809,0,41.748-18.905,41.748-18.905c0.788-3.151,3.151-5.514,6.302-6.302
		c6.302-1.575,12.603,0.788,17.329,5.514c7.089,7.877,10.24,22.843,11.815,38.597c5.514-20.48,4.726-36.234-2.363-47.262
		c-7.089-11.815-18.905-13.391-18.905-13.391c-2.363,0-4.726-1.575-6.302-3.938C281.994,182.745,271.754,176.443,256.788,176.443z"
		/>
	<rect x="169.354" y="110.277" style="fill:#183651;" width="15.754" height="14.178"/>
	<rect x="212.677" y="110.277" style="fill:#183651;" width="15.754" height="14.178"/>
	<rect x="256" y="110.277" style="fill:#183651;" width="15.754" height="14.178"/>
	<rect x="59.077" y="354.462" style="fill:#183651;" width="15.754" height="15.754"/>
	<rect x="59.077" y="403.298" style="fill:#183651;" width="15.754" height="15.754"/>
	<rect x="59.077" y="452.923" style="fill:#183651;" width="15.754" height="15.754"/>
	<rect x="440.32" y="354.462" style="fill:#183651;" width="15.754" height="15.754"/>
	<rect x="440.32" y="403.298" style="fill:#183651;" width="15.754" height="15.754"/>
	<rect x="440.32" y="452.923" style="fill:#183651;" width="15.754" height="15.754"/>
</g>
<g>
</g>
<g>
</g>
<g>
</g>
<g>
</g>
<g>
</g>
<g>
</g>
<g>
</g>
<g>
</g>
<g>
</g>
<g>
</g>
<g>
</g>
<g>
</g>
<g>
</g>
<g>
</g>
<g>
</g>
</svg>
