<?xml version="1.0" encoding="iso-8859-1"?>
<!-- Generator: Adobe Illustrator 19.0.0, SVG Export Plug-In . SVG Version: 6.00 Build 0)  -->
<svg version="1.1" id="Capa_1" xmlns="http://www.w3.org/2000/svg" xmlns:xlink="http://www.w3.org/1999/xlink" x="0px" y="0px"
	 viewBox="0 0 504.123 504.123" style="enable-background:new 0 0 504.123 504.123;" xml:space="preserve">
<path style="fill:#4FBF9F;" d="M252.062,504.123C113.428,504.123,0,390.695,0,252.062S113.428,0,252.062,0
	s252.062,113.428,252.062,252.062S390.695,504.123,252.062,504.123z"/>
<path style="fill:#E0E4E8;" d="M252.062,88.222L252.062,88.222c-90.585,0-163.84,73.255-163.84,163.84l0,0
	c0,90.585,73.255,163.84,163.84,163.84l0,0c90.585,0,163.84-73.255,163.84-163.84l0,0
	C415.902,161.477,342.646,88.222,252.062,88.222z"/>
<path style="fill:#183651;" d="M252.062,423.778c-94.523,0-171.717-77.194-171.717-171.717S157.538,80.345,252.062,80.345
	s171.717,77.194,171.717,171.717S346.585,423.778,252.062,423.778z M252.062,95.311c-86.646,0-156.751,70.105-156.751,156.751
	s70.105,156.751,156.751,156.751s156.751-70.105,156.751-156.751S338.708,95.311,252.062,95.311z"/>
<g>
	<path style="fill:#FFFFFF;" d="M252.062,385.182c-73.255,0-133.12-59.865-133.12-133.12s59.865-133.12,133.12-133.12
		s133.12,59.865,133.12,133.12S325.317,385.182,252.062,385.182z"/>
	<path style="fill:#FFFFFF;" d="M252.062,234.732L252.062,234.732c-9.452,0-17.329,7.877-17.329,17.329l0,0
		c0,9.452,7.877,17.329,17.329,17.329l0,0c9.452,0,17.329-7.877,17.329-17.329l0,0C269.391,242.609,261.514,234.732,252.062,234.732
		z"/>
</g>
<path style="fill:#183651;" d="M252.062,277.268c-13.391,0-25.206-11.028-25.206-25.206c0-13.391,11.028-25.206,25.206-25.206
	c13.391,0,25.206,11.028,25.206,25.206C277.268,265.452,265.452,277.268,252.062,277.268z M252.062,242.609
	c-5.514,0-9.452,3.938-9.452,9.452c0,5.514,3.938,9.452,9.452,9.452c5.514,0,9.452-3.938,9.452-9.452
	C261.514,246.548,257.575,242.609,252.062,242.609z"/>
<path style="fill:#FBBD5E;" d="M252.062,415.902L252.062,415.902c-62.228,0-115.791-34.658-144.148-85.071l66.166,136.271h156.751
	l66.166-136.271C367.852,382.031,314.289,415.902,252.062,415.902z"/>
<path style="fill:#183651;" d="M330.043,474.978H174.08c-3.151,0-5.514-1.575-7.089-4.726l-66.166-136.271
	c-1.575-3.938,0-8.665,3.151-10.24c3.938-1.575,8.665-0.788,10.24,3.151c27.569,50.412,80.345,81.132,137.058,81.132
	c57.502,0,109.489-31.508,137.058-81.132c2.363-3.938,6.302-4.726,10.24-3.151c3.938,1.575,5.514,6.302,3.151,10.24l-66.166,136.271
	C336.345,473.403,333.194,474.978,330.043,474.978z M178.806,459.225h146.511l36.234-74.831
	c-30.72,25.206-69.317,39.385-109.489,39.385c-40.96,0-79.557-14.178-109.489-39.385L178.806,459.225z"/>
<path style="fill:#FBBD5E;" d="M252.062,88.222L252.062,88.222c62.228,0,115.791,34.658,144.148,85.071L330.043,37.022H174.08
	l-66.166,136.271C136.271,122.092,189.834,88.222,252.062,88.222z"/>
<path style="fill:#183651;" d="M396.209,181.169c-2.363,0-5.514-1.575-7.089-3.938c-27.569-50.412-80.345-81.132-137.058-81.132
	c-57.502,0-109.489,31.508-137.058,81.132c-2.363,3.938-6.302,4.726-10.24,3.151c-3.938-1.575-5.514-6.302-3.151-10.24
	l66.166-136.271c1.575-2.363,3.938-4.726,7.089-4.726h156.751c3.151,0,5.514,1.575,7.089,4.726l65.378,135.483
	c0.788,1.575,1.575,3.151,1.575,4.726C404.086,177.231,400.935,181.169,396.209,181.169z M252.062,80.345
	c40.96,0,79.557,14.178,109.489,39.385l-36.234-74.831H178.806l-36.234,74.831C172.505,94.523,211.102,80.345,252.062,80.345z"/>
<path style="fill:#183651;" d="M252.062,242.609c-3.938,0-7.877-3.151-7.877-7.877v-54.351c0-3.938,3.151-7.877,7.877-7.877
	c3.938,0,7.877,3.151,7.877,7.877v54.351C259.938,239.458,256,242.609,252.062,242.609z"/>
<path style="fill:#183651;" d="M292.234,259.938h-23.631c-3.938,0-7.877-3.151-7.877-7.877c0-3.938,3.151-7.877,7.877-7.877h23.631
	c3.938,0,7.877,3.151,7.877,7.877C300.111,256,296.96,259.938,292.234,259.938z"/>
<polyline style="fill:#F06151;" points="304.049,12.603 304.049,61.44 200.074,61.44 200.074,12.603 "/>
<path style="fill:#183651;" d="M304.049,69.317H200.074c-3.938,0-7.877-3.151-7.877-7.877V12.603c0-3.938,3.151-7.877,7.877-7.877
	c3.938,0,7.877,3.151,7.877,7.877v40.96h88.222v-40.96c0-3.938,3.151-7.877,7.877-7.877s7.877,3.151,7.877,7.877V61.44
	C311.926,65.378,307.988,69.317,304.049,69.317z"/>
<polyline style="fill:#F06151;" points="200.074,491.52 200.074,442.683 304.049,442.683 304.049,491.52 "/>
<g>
	<path style="fill:#183651;" d="M304.049,499.397c-3.938,0-7.877-3.151-7.877-7.877v-40.96h-88.222v40.96
		c0,3.938-3.151,7.877-7.877,7.877c-3.938,0-7.877-3.151-7.877-7.877v-48.837c0-3.938,3.151-7.877,7.877-7.877h103.975
		c3.938,0,7.877,3.151,7.877,7.877v48.837C311.926,496.246,307.988,499.397,304.049,499.397z"/>
	<rect x="139.422" y="244.185" style="fill:#183651;" width="15.754" height="15.754"/>
	<rect x="349.735" y="244.185" style="fill:#183651;" width="15.754" height="15.754"/>
	
		<rect x="152.787" y="296.681" transform="matrix(-0.4999 -0.8661 0.8661 -0.4999 -22.795 595.9531)" style="fill:#183651;" width="15.754" height="15.754"/>
	
		<rect x="335.558" y="191.665" transform="matrix(-0.4999 -0.8661 0.8661 -0.4999 342.296 596.7361)" style="fill:#183651;" width="15.754" height="15.754"/>
	
		<rect x="191.329" y="335.418" transform="matrix(-0.8661 -0.4999 0.4999 -0.8661 200.1244 740.2007)" style="fill:#183651;" width="15.754" height="15.754"/>
	
		<rect x="297.071" y="152.925" transform="matrix(-0.866 -0.5001 0.5001 -0.866 488.6108 452.5529)" style="fill:#183651;" width="15.754" height="15.754"/>
	<rect x="244.185" y="349.735" style="fill:#183651;" width="15.754" height="15.754"/>
	<rect x="244.185" y="139.422" style="fill:#183651;" width="15.754" height="15.754"/>
	
		<rect x="296.669" y="335.578" transform="matrix(-0.4999 -0.8661 0.8661 -0.4999 159.3242 778.9094)" style="fill:#183651;" width="15.754" height="15.754"/>
	
		<rect x="191.692" y="152.799" transform="matrix(-0.4999 -0.8661 0.8661 -0.4999 160.1731 413.8407)" style="fill:#183651;" width="15.754" height="15.754"/>
	
		<rect x="335.462" y="297.06" transform="matrix(-0.8661 -0.4999 0.4999 -0.8661 488.2643 740.6717)" style="fill:#183651;" width="15.754" height="15.754"/>
	
		<rect x="152.931" y="191.277" transform="matrix(-0.8661 -0.4999 0.4999 -0.8661 200.5258 452.0265)" style="fill:#183651;" width="15.754" height="15.754"/>
</g>
<g>
</g>
<g>
</g>
<g>
</g>
<g>
</g>
<g>
</g>
<g>
</g>
<g>
</g>
<g>
</g>
<g>
</g>
<g>
</g>
<g>
</g>
<g>
</g>
<g>
</g>
<g>
</g>
<g>
</g>
</svg>
