<?xml version="1.0" encoding="iso-8859-1"?>
<!-- Generator: Adobe Illustrator 19.0.0, SVG Export Plug-In . SVG Version: 6.00 Build 0)  -->
<svg version="1.1" id="Capa_1" xmlns="http://www.w3.org/2000/svg" xmlns:xlink="http://www.w3.org/1999/xlink" x="0px" y="0px"
	 viewBox="0 0 504.432 504.432" style="enable-background:new 0 0 504.432 504.432;" xml:space="preserve">
<circle style="fill:#2CA0DA;" cx="300.42" cy="204.167" r="204.012"/>
<circle style="fill:#F06151;" cx="300.42" cy="204.167" r="171.717"/>
<path style="fill:#183651;" d="M300.42,383.761c-99.249,0-179.594-80.345-179.594-179.594S201.171,24.573,300.42,24.573
	s179.594,80.345,179.594,179.594S399.669,383.761,300.42,383.761z M300.42,40.327c-90.585,0-163.84,73.255-163.84,163.84
	s73.255,163.84,163.84,163.84s163.84-73.255,163.84-163.84C464.26,113.582,391.004,40.327,300.42,40.327z"/>
<path style="fill:#FFFFFF;" d="M300.42,345.951c-77.982,0-141.785-63.803-141.785-141.785S222.438,62.382,300.42,62.382
	s141.785,63.803,141.785,141.785S379.189,345.951,300.42,345.951z"/>
<g>
	<rect x="412.272" y="196.29" style="fill:#183651;" width="15.754" height="14.966"/>
	
		<rect x="396.592" y="136.467" transform="matrix(-0.5001 -0.866 0.866 -0.5001 481.1486 566.4486)" style="fill:#183651;" width="14.967" height="15.754"/>
	
		<rect x="352.302" y="92.856" transform="matrix(-0.8659 -0.5002 0.5002 -0.8659 620.939 367.9237)" style="fill:#183651;" width="14.966" height="15.754"/>
	<rect x="293.331" y="316.019" style="fill:#183651;" width="14.966" height="15.754"/>
	<rect x="293.331" y="76.561" style="fill:#183651;" width="14.966" height="15.754"/>
	
		<rect x="352.259" y="300.177" transform="matrix(-0.4999 -0.8661 0.8661 -0.4999 273.7039 773.3669)" style="fill:#183651;" width="15.754" height="14.966"/>
	
		<rect x="232.844" y="92.911" transform="matrix(-0.4999 -0.8661 0.8661 -0.4999 274.1056 359.0665)" style="fill:#183651;" width="15.754" height="14.966"/>
	
		<rect x="396.592" y="256.374" transform="matrix(-0.8661 -0.4999 0.4999 -0.8661 622.8741 694.5722)" style="fill:#183651;" width="15.754" height="14.966"/>
</g>
<circle style="fill:#FFFFFF;" cx="300.42" cy="204.167" r="20.48"/>
<path style="fill:#183651;" d="M300.42,232.524c-15.754,0-28.357-12.603-28.357-28.357s12.603-28.357,28.357-28.357
	s28.357,12.603,28.357,28.357S316.174,232.524,300.42,232.524z M300.42,191.564c-7.089,0-12.603,5.514-12.603,12.603
	c0,7.089,5.514,12.603,12.603,12.603s12.603-5.514,12.603-12.603C313.023,197.078,307.509,191.564,300.42,191.564z"/>
<path style="fill:#183651;" d="M300.42,191.564c-4.726,0-7.877-3.151-7.877-7.877v-66.954c0-4.726,3.151-7.877,7.877-7.877
	s7.877,3.151,7.877,7.877v66.954C308.297,187.625,305.146,191.564,300.42,191.564z"/>
<path style="fill:#183651;" d="M361.072,212.044H320.9c-4.726,0-7.877-3.151-7.877-7.877c0-4.726,3.151-7.877,7.877-7.877h40.172
	c4.726,0,7.877,3.151,7.877,7.877C368.949,208.893,365.011,212.044,361.072,212.044z"/>
<path style="fill:#FBBD5E;" d="M105.86,207.318v77.194c0,33.871,27.569,62.228,62.228,62.228c33.871,0,62.228-27.569,62.228-62.228
	v-77.194H105.86z"/>
<path style="fill:#183651;" d="M167.3,354.616c-38.597,0-70.105-31.508-70.105-70.105v-77.194c0-4.726,3.151-7.877,7.877-7.877
	H228.74c4.726,0,7.877,3.151,7.877,7.877v77.194C237.404,323.108,205.897,354.616,167.3,354.616z M113.737,215.195v69.317
	c0,29.932,24.418,54.351,54.351,54.351s54.351-24.418,54.351-54.351v-69.317H113.737z"/>
<path style="fill:#E1E6E7;" d="M105.86,285.299c0,0-48.049-103.975,14.966-116.578c0,0,36.234-46.474,100.825,0
	c0,0,75.618,13.391,7.877,116.578c0,0-7.089-37.809,0-73.255c-24.418,7.089-44.111,30.72-108.702,3.938
	C120.826,215.982,122.401,244.339,105.86,285.299z"/>
<path style="fill:#183651;" d="M229.527,293.176c-0.788,0-0.788,0-1.575,0c-3.151-0.788-5.514-3.151-6.302-6.302
	c0-1.575-5.514-30.72-1.575-62.228c-0.788,0-1.575,0.788-1.575,0.788c-11.815,5.514-24.418,11.028-43.323,11.028
	c-13.391,0-28.357-3.151-45.686-9.452c-0.788,12.603-4.726,33.871-15.754,61.44c-1.575,3.151-3.938,4.726-7.089,4.726
	s-6.302-1.575-7.089-4.726c-1.575-2.363-30.72-66.954-11.815-103.975c6.302-11.815,16.542-19.692,29.932-23.631
	c5.514-6.302,22.843-21.268,50.412-21.268c18.905,0,38.597,7.089,58.289,21.268c6.302,1.575,26.782,8.665,36.234,29.932
	c10.24,24.418,1.575,57.502-25.206,98.462C234.254,292.388,231.891,293.176,229.527,293.176z M166.512,156.118
	c-25.994,0-40.172,17.329-40.172,18.117c-0.788,1.575-3.151,2.363-4.726,3.151c-10.24,2.363-18.117,7.089-22.055,15.754
	c-9.452,18.117-2.363,49.625,4.726,70.892c8.665-28.357,7.877-46.474,7.877-46.474c0-2.363,0.788-5.514,3.151-7.089
	c2.363-1.575,4.726-1.575,7.877-0.788c19.692,7.877,36.234,11.815,50.412,11.815c15.754,0,26.782-4.726,37.022-9.452
	c5.514-2.363,10.24-4.726,16.542-6.302c2.363-0.788,5.514,0,7.877,1.575s3.151,4.726,2.363,7.089
	c-3.151,16.542-3.938,33.871-3.151,47.262c14.178-26.782,18.117-48.837,11.815-63.803c-7.089-17.329-25.994-20.48-26.782-20.48
	c-0.788,0-2.363-0.788-3.151-1.575C199.595,162.419,182.266,156.118,166.512,156.118z"/>
<path style="fill:#FFFFFF;" d="M327.201,496.401H8.186l17.329-78.769c5.514-25.206,25.994-45.686,51.2-51.2l34.658-7.877
	c15.754,11.815,35.446,18.905,55.926,18.905c21.268,0,40.172-7.089,55.926-18.905l34.658,7.877
	c25.206,5.514,45.686,25.206,51.2,51.2L327.201,496.401z"/>
<path style="fill:#183651;" d="M327.201,504.278L327.201,504.278H8.186c-2.363,0-4.726-0.788-6.302-3.151
	c-1.575-1.575-2.363-3.938-1.575-6.302l17.329-78.769c6.302-28.357,28.357-50.412,57.502-56.714l34.658-7.877
	c2.363-0.788,4.726,0,6.302,1.575c14.966,11.028,32.295,17.329,51.2,17.329s36.234-6.302,51.2-17.329
	c1.575-1.575,3.938-1.575,6.302-1.575l34.658,7.877c28.357,6.302,51.2,28.357,57.502,56.714l17.329,77.982
	c0.788,0.788,0.788,2.363,0.788,3.151C335.078,500.339,331.14,504.278,327.201,504.278z M17.638,488.524h299.323l-14.966-69.317
	c-4.726-22.055-22.843-40.172-44.898-44.898l-31.508-7.089c-17.329,11.815-37.022,18.117-58.289,18.117s-40.96-6.302-58.289-18.117
	l-31.508,7.089c-22.055,4.726-40.172,22.843-44.898,44.898L17.638,488.524z"/>
<path style="fill:#4FBF9F;" d="M45.207,466.468l9.452-42.535c3.151-14.178,14.178-25.206,28.357-28.357l22.055-4.726
	c18.905,11.028,40.172,16.542,62.228,16.542s43.323-5.514,62.228-16.542l22.055,4.726c14.178,3.151,25.206,14.178,28.357,28.357
	l9.452,42.535H45.207z"/>
<g>
	<rect x="112.949" y="435.748" style="fill:#183651;" width="15.754" height="14.966"/>
	<rect x="159.423" y="435.748" style="fill:#183651;" width="15.754" height="14.966"/>
	<rect x="206.684" y="435.748" style="fill:#183651;" width="15.754" height="14.966"/>
</g>
<g>
</g>
<g>
</g>
<g>
</g>
<g>
</g>
<g>
</g>
<g>
</g>
<g>
</g>
<g>
</g>
<g>
</g>
<g>
</g>
<g>
</g>
<g>
</g>
<g>
</g>
<g>
</g>
<g>
</g>
</svg>
