<?xml version="1.0" encoding="iso-8859-1"?>
<!-- Generator: Adobe Illustrator 19.0.0, SVG Export Plug-In . SVG Version: 6.00 Build 0)  -->
<svg version="1.1" id="Capa_1" xmlns="http://www.w3.org/2000/svg" xmlns:xlink="http://www.w3.org/1999/xlink" x="0px" y="0px"
	 viewBox="0 0 504.123 504.123" style="enable-background:new 0 0 504.123 504.123;" xml:space="preserve">
<circle style="fill:#E0E4E8;" cx="248.123" cy="256" r="248.123"/>
<g>
	<rect x="74.831" y="76.406" style="fill:#183651;" width="15.754" height="15.754"/>
	<rect x="134.695" y="76.406" style="fill:#183651;" width="15.754" height="15.754"/>
	<rect x="193.772" y="76.406" style="fill:#183651;" width="15.754" height="15.754"/>
	<rect x="45.686" y="26.782" style="fill:#183651;" width="15.754" height="15.754"/>
	<rect x="105.551" y="26.782" style="fill:#183651;" width="15.754" height="15.754"/>
	<rect x="164.628" y="26.782" style="fill:#183651;" width="15.754" height="15.754"/>
</g>
<rect x="7.877" y="384.394" style="fill:#FBBD5E;" width="480.492" height="45.686"/>
<path style="fill:#183651;" d="M488.369,437.957H7.877c-3.938,0-7.877-3.151-7.877-7.877v-45.686c0-3.938,3.151-7.877,7.877-7.877
	h480.492c3.938,0,7.877,3.151,7.877,7.877v45.686C496.246,434.018,493.095,437.957,488.369,437.957z M15.754,422.203H481.28v-29.932
	H15.754V422.203z"/>
<rect x="48.049" y="430.08" style="fill:#FBBD5E;" width="45.686" height="66.166"/>
<path style="fill:#183651;" d="M93.735,504.123H48.049c-3.938,0-7.877-3.151-7.877-7.877V430.08c0-3.938,3.151-7.877,7.877-7.877
	h45.686c3.938,0,7.877,3.151,7.877,7.877v66.166C101.612,500.972,97.674,504.123,93.735,504.123z M55.926,488.369h29.932v-50.412
	H55.926V488.369z"/>
<rect x="402.511" y="430.08" style="fill:#FBBD5E;" width="45.686" height="66.166"/>
<path style="fill:#183651;" d="M448.197,504.123h-45.686c-3.938,0-7.877-3.151-7.877-7.877V430.08c0-3.938,3.151-7.877,7.877-7.877
	h45.686c3.938,0,7.877,3.151,7.877,7.877v66.166C456.074,500.972,452.923,504.123,448.197,504.123z M410.388,488.369h29.932v-50.412
	h-29.932V488.369z"/>
<path style="fill:#FFFFFF;" d="M266.24,145.723H23.631c-8.665,0-15.754,7.089-15.754,15.754v166.991
	c0,8.665,7.089,15.754,15.754,15.754H266.24c8.665,0,15.754-7.089,15.754-15.754V160.689
	C281.206,152.025,274.905,145.723,266.24,145.723z"/>
<path style="fill:#183651;" d="M266.24,351.311H23.631C11.028,351.311,0,341.071,0,327.68V160.689
	c0-12.603,10.24-23.631,23.631-23.631H266.24c12.603,0,23.631,10.24,23.631,23.631V327.68
	C289.083,341.071,278.843,351.311,266.24,351.311z M23.631,152.812c-3.938,0-7.877,3.151-7.877,7.877V327.68
	c0,3.938,3.151,7.877,7.877,7.877H266.24c3.938,0,7.877-3.151,7.877-7.877V160.689c0-3.938-3.151-7.877-7.877-7.877H23.631z"/>
<rect x="37.022" y="176.443" style="fill:#2EA0DA;" width="211.889" height="136.271"/>
<rect x="88.222" y="343.434" style="fill:#FFFFFF;" width="113.428" height="40.96"/>
<path style="fill:#183651;" d="M201.649,392.271H88.222c-3.938,0-7.877-3.151-7.877-7.877v-40.96c0-3.938,3.151-7.877,7.877-7.877
	h113.428c3.938,0,7.877,3.151,7.877,7.877v40.96C208.738,389.12,205.588,392.271,201.649,392.271z M96.098,376.517h97.674v-25.206
	H96.098V376.517z"/>
<rect x="337.132" y="348.16" style="fill:#4FBF9F;" width="151.237" height="37.022"/>
<path style="fill:#183651;" d="M488.369,392.271H337.132c-3.938,0-7.877-3.151-7.877-7.877v-37.022c0-3.938,3.151-7.877,7.877-7.877
	h151.237c3.938,0,7.877,3.151,7.877,7.877v37.022C496.246,389.12,493.095,392.271,488.369,392.271z M345.009,376.517H481.28v-21.268
	H345.009V376.517z"/>
<rect x="337.132" y="274.117" style="fill:#4FBF9F;" width="151.237" height="37.022"/>
<path style="fill:#183651;" d="M488.369,319.015H337.132c-3.938,0-7.877-3.151-7.877-7.877v-37.022c0-3.938,3.151-7.877,7.877-7.877
	h151.237c3.938,0,7.877,3.151,7.877,7.877v37.022C496.246,315.077,493.095,319.015,488.369,319.015z M345.009,303.262H481.28
	v-21.268H345.009V303.262z"/>
<rect x="320.591" y="311.138" style="fill:#FFFFFF;" width="151.237" height="37.022"/>
<path style="fill:#183651;" d="M471.828,355.249H320.591c-3.938,0-7.877-3.151-7.877-7.877v-36.234c0-3.938,3.151-7.877,7.877-7.877
	h151.237c3.938,0,7.877,3.151,7.877,7.877v37.022C479.705,352.098,476.554,355.249,471.828,355.249z M328.468,340.283h136.271
	v-21.268H328.468V340.283z"/>
<rect x="320.591" y="237.883" style="fill:#FFFFFF;" width="151.237" height="37.022"/>
<path style="fill:#183651;" d="M471.828,281.994H320.591c-3.938,0-7.877-3.151-7.877-7.877v-37.022c0-3.938,3.151-7.877,7.877-7.877
	h151.237c3.938,0,7.877,3.151,7.877,7.877v37.022C479.705,278.843,476.554,281.994,471.828,281.994z M328.468,266.24h136.271
	v-21.268H328.468V266.24z"/>
<circle style="fill:#F06151;" cx="401.723" cy="102.4" r="94.523"/>
<path style="fill:#183651;" d="M401.723,204.8c-56.714,0-102.4-45.686-102.4-102.4S345.009,0,401.723,0s102.4,45.686,102.4,102.4
	S457.649,204.8,401.723,204.8z M401.723,15.754c-48.049,0-86.646,39.385-86.646,86.646s39.385,86.646,86.646,86.646
	s86.646-39.385,86.646-86.646S449.772,15.754,401.723,15.754z"/>
<g>
	<path style="fill:#FFFFFF;" d="M401.723,155.175c-29.145,0-52.775-23.631-52.775-52.775s23.631-52.775,52.775-52.775
		s52.775,23.631,52.775,52.775S430.868,155.175,401.723,155.175z"/>
	<circle style="fill:#FFFFFF;" cx="401.723" cy="33.871" r="7.089"/>
	<circle style="fill:#FFFFFF;" cx="401.723" cy="170.929" r="7.089"/>
	<circle style="fill:#FFFFFF;" cx="470.252" cy="102.4" r="7.089"/>
	<circle style="fill:#FFFFFF;" cx="333.194" cy="102.4" r="7.089"/>
</g>
<polygon style="fill:#183651;" points="397.785,60.652 397.785,98.462 370.215,98.462 370.215,107.126 405.662,107.126 
	405.662,60.652 "/>
<g>
</g>
<g>
</g>
<g>
</g>
<g>
</g>
<g>
</g>
<g>
</g>
<g>
</g>
<g>
</g>
<g>
</g>
<g>
</g>
<g>
</g>
<g>
</g>
<g>
</g>
<g>
</g>
<g>
</g>
</svg>
