<?xml version="1.0" encoding="iso-8859-1"?>
<!-- Generator: Adobe Illustrator 19.0.0, SVG Export Plug-In . SVG Version: 6.00 Build 0)  -->
<svg version="1.1" id="Capa_1" xmlns="http://www.w3.org/2000/svg" xmlns:xlink="http://www.w3.org/1999/xlink" x="0px" y="0px"
	 viewBox="0 0 504.123 504.123" style="enable-background:new 0 0 504.123 504.123;" xml:space="preserve">
<path style="fill:#FBBD5E;" d="M318.228,496.246H53.563c-25.206,0-45.686-20.48-45.686-45.686V53.563
	c0-25.206,20.48-45.686,45.686-45.686h264.665c25.206,0,45.686,20.48,45.686,45.686v396.209
	C364.702,475.766,344.222,496.246,318.228,496.246z"/>
<path style="fill:#183651;" d="M318.228,504.123H53.563C23.631,504.123,0,479.705,0,450.56V53.563C0,23.631,24.418,0,53.563,0
	h264.665c29.932,0,53.563,24.418,53.563,53.563v396.209C372.578,479.705,348.16,504.123,318.228,504.123z M53.563,15.754
	c-21.268,0-37.809,17.329-37.809,37.809v396.209c0,21.268,17.329,37.809,37.809,37.809h264.665
	c21.268,0,37.809-17.329,37.809-37.809V53.563c0-21.268-17.329-37.809-37.809-37.809H53.563z"/>
<g>
	<path style="fill:#FFFFFF;" d="M53.563,464.738c-7.877,0-14.178-6.302-14.178-14.178V53.563c0-7.877,6.302-14.178,14.178-14.178
		h264.665c7.877,0,14.178,6.302,14.178,14.178v396.209c0,7.877-6.302,14.178-14.178,14.178H53.563V464.738z"/>
	<rect x="124.455" y="194.56" style="fill:#FFFFFF;" width="371.791" height="237.883"/>
</g>
<path style="fill:#183651;" d="M496.246,440.32H124.455c-4.726,0-7.877-3.151-7.877-7.877V194.56c0-4.726,3.151-7.877,7.877-7.877
	h371.791c4.726,0,7.877,3.151,7.877,7.877v237.883C504.123,436.382,500.972,440.32,496.246,440.32z M132.332,424.566h356.037
	V202.437H132.332V424.566z"/>
<rect x="124.455" y="111.065" style="fill:#FFFFFF;" width="371.791" height="83.495"/>
<path style="fill:#183651;" d="M496.246,202.437H124.455c-4.726,0-7.877-3.151-7.877-7.877v-83.495c0-4.726,3.151-7.877,7.877-7.877
	h371.791c4.726,0,7.877,3.151,7.877,7.877v83.495C504.123,199.286,500.972,202.437,496.246,202.437z M132.332,186.683h356.037
	v-67.742H132.332V186.683z"/>
<rect x="408.812" y="74.831" style="fill:#E1E6E7;" width="40.172" height="73.255"/>
<path style="fill:#183651;" d="M448.197,155.963h-40.172c-4.726,0-7.877-3.151-7.877-7.877V74.831c0-4.726,3.151-7.877,7.877-7.877
	h40.172c4.726,0,7.877,3.151,7.877,7.877v73.255C456.074,152.812,452.923,155.963,448.197,155.963z M416.689,140.209h24.418V82.708
	h-24.418V140.209z"/>
<rect x="172.505" y="74.831" style="fill:#E1E6E7;" width="40.172" height="73.255"/>
<path style="fill:#183651;" d="M211.889,155.963h-40.172c-4.726,0-7.877-3.151-7.877-7.877V74.831c0-4.726,3.151-7.877,7.877-7.877
	h40.172c4.726,0,7.877,3.151,7.877,7.877v73.255C219.766,152.812,216.615,155.963,211.889,155.963z M180.382,140.209H204.8V82.708
	h-24.418V140.209z"/>
<g>
	<rect x="157.538" y="356.037" style="fill:#2CA0DA;" width="42.535" height="42.535"/>
	<rect x="157.538" y="292.234" style="fill:#2CA0DA;" width="42.535" height="42.535"/>
	<rect x="223.705" y="356.037" style="fill:#2CA0DA;" width="42.535" height="42.535"/>
	<rect x="223.705" y="292.234" style="fill:#2CA0DA;" width="42.535" height="42.535"/>
	<rect x="289.083" y="292.234" style="fill:#2CA0DA;" width="42.535" height="42.535"/>
	<rect x="289.083" y="228.431" style="fill:#2CA0DA;" width="42.535" height="42.535"/>
	<rect x="354.462" y="292.234" style="fill:#2CA0DA;" width="42.535" height="42.535"/>
	<rect x="354.462" y="228.431" style="fill:#2CA0DA;" width="42.535" height="42.535"/>
	<rect x="419.84" y="292.234" style="fill:#2CA0DA;" width="42.535" height="42.535"/>
	<rect x="419.84" y="228.431" style="fill:#2CA0DA;" width="42.535" height="42.535"/>
</g>
<g>
	<rect x="263.089" y="144.935" style="fill:#183651;" width="15.754" height="15.754"/>
	<rect x="302.474" y="144.935" style="fill:#183651;" width="15.754" height="15.754"/>
	<rect x="341.858" y="144.935" style="fill:#183651;" width="15.754" height="15.754"/>
</g>
<g>
</g>
<g>
</g>
<g>
</g>
<g>
</g>
<g>
</g>
<g>
</g>
<g>
</g>
<g>
</g>
<g>
</g>
<g>
</g>
<g>
</g>
<g>
</g>
<g>
</g>
<g>
</g>
<g>
</g>
</svg>
