<?xml version="1.0" encoding="iso-8859-1"?>
<!-- Generator: Adobe Illustrator 19.0.0, SVG Export Plug-In . SVG Version: 6.00 Build 0)  -->
<svg version="1.1" id="Capa_1" xmlns="http://www.w3.org/2000/svg" xmlns:xlink="http://www.w3.org/1999/xlink" x="0px" y="0px"
	 viewBox="0 0 504.123 504.123" style="enable-background:new 0 0 504.123 504.123;" xml:space="preserve">
<path style="fill:#FFFFFF;" d="M456.862,7.877h-409.6c-22.055,0-39.385,17.329-39.385,39.385v71.68h488.369v-71.68
	C496.246,25.206,478.917,7.877,456.862,7.877z"/>
<path style="fill:#183651;" d="M496.246,126.818H7.877c-4.726,0-7.877-3.151-7.877-7.877v-71.68C0,21.268,21.268,0,47.262,0h409.6
	c25.994,0,47.262,21.268,47.262,47.262v71.68C504.123,123.668,500.972,126.818,496.246,126.818z M15.754,111.065h472.615V47.262
	c0-17.329-14.178-31.508-31.508-31.508h-409.6c-17.329,0-31.508,14.178-31.508,31.508V111.065z"/>
<path style="fill:#FBBD5E;" d="M7.877,118.942v337.92c0,22.055,17.329,39.385,39.385,39.385h409.6
	c22.055,0,39.385-17.329,39.385-39.385v-337.92H7.877z"/>
<path style="fill:#183651;" d="M456.862,504.123h-409.6C21.268,504.123,0,482.855,0,456.862v-337.92
	c0-4.726,3.151-7.877,7.877-7.877h488.369c4.726,0,7.877,3.151,7.877,7.877v337.92C504.123,482.855,482.855,504.123,456.862,504.123
	z M15.754,126.818v330.043c0,17.329,14.178,31.508,31.508,31.508h409.6c17.329,0,31.508-14.178,31.508-31.508V126.818H15.754z"/>
<path style="fill:#FFFFFF;" d="M47.262,464.738c-4.726,0-7.877-3.151-7.877-7.877V150.449h425.354v306.412
	c0,4.726-3.151,7.877-7.877,7.877H47.262z"/>
<g>
	<circle style="fill:#E0E4E8;" cx="440.32" cy="63.803" r="18.905"/>
	<circle style="fill:#E0E4E8;" cx="382.031" cy="63.803" r="18.905"/>
	<circle style="fill:#E0E4E8;" cx="324.529" cy="63.803" r="18.905"/>
</g>
<g>
	<path style="fill:#183651;" d="M348.16,366.277c-3.151,0-6.302-2.363-6.302-6.302v-36.234H162.265v36.234
		c0,3.151-2.363,6.302-6.302,6.302s-6.302-2.363-6.302-6.302V317.44c0-3.151,2.363-6.302,6.302-6.302h191.409
		c3.151,0,6.302,2.363,6.302,6.302v42.535C353.674,363.914,351.311,366.277,348.16,366.277z"/>
	<path style="fill:#183651;" d="M251.274,323.742c-3.151,0-6.302-2.363-6.302-6.302v-43.323c0-3.151,2.363-6.302,6.302-6.302
		s6.302,2.363,6.302,6.302v43.323C257.575,321.378,255.212,323.742,251.274,323.742z"/>
</g>
<rect x="212.677" y="196.135" style="fill:#F06151;" width="78.769" height="78.769"/>
<g>
	<rect x="318.228" y="359.975" style="fill:#2EA0DA;" width="59.077" height="59.077"/>
	<rect x="126.818" y="359.975" style="fill:#2EA0DA;" width="59.077" height="59.077"/>
</g>
<path style="fill:#E0E4E8;" d="M58.289,82.708h144.148c10.24,0,18.905-8.665,18.905-18.905l0,0c0-10.24-8.665-18.905-18.905-18.905
	H58.289c-10.24,0-18.905,8.665-18.905,18.905l0,0C39.385,74.043,48.049,82.708,58.289,82.708z"/>
<g>
	<rect x="397.785" y="189.834" style="fill:#183651;" width="15.754" height="15.754"/>
	<rect x="397.785" y="221.342" style="fill:#183651;" width="15.754" height="15.754"/>
	<rect x="397.785" y="252.849" style="fill:#183651;" width="15.754" height="15.754"/>
	<rect x="90.585" y="189.834" style="fill:#183651;" width="15.754" height="15.754"/>
	<rect x="90.585" y="221.342" style="fill:#183651;" width="15.754" height="15.754"/>
	<rect x="90.585" y="252.849" style="fill:#183651;" width="15.754" height="15.754"/>
</g>
<g>
</g>
<g>
</g>
<g>
</g>
<g>
</g>
<g>
</g>
<g>
</g>
<g>
</g>
<g>
</g>
<g>
</g>
<g>
</g>
<g>
</g>
<g>
</g>
<g>
</g>
<g>
</g>
<g>
</g>
</svg>
