<?xml version="1.0" encoding="iso-8859-1"?>
<!-- Generator: Adobe Illustrator 19.0.0, SVG Export Plug-In . SVG Version: 6.00 Build 0)  -->
<svg version="1.1" id="Capa_1" xmlns="http://www.w3.org/2000/svg" xmlns:xlink="http://www.w3.org/1999/xlink" x="0px" y="0px"
	 viewBox="0 0 504.123 504.123" style="enable-background:new 0 0 504.123 504.123;" xml:space="preserve">
<circle style="fill:#E1E6E7;" cx="376.517" cy="376.517" r="127.606"/>
<path style="fill:#FFFFFF;" d="M350.523,7.877H27.569c-11.028,0-19.692,9.452-19.692,20.48v58.289h362.338V28.357
	C370.215,17.329,361.551,7.877,350.523,7.877z"/>
<path style="fill:#183651;" d="M370.215,94.523H7.877C3.151,94.523,0,91.372,0,86.646V28.357C0,12.603,12.603,0,27.569,0h322.954
	c14.966,0,27.569,12.603,27.569,28.357v58.289C378.092,90.585,374.154,94.523,370.215,94.523z M15.754,78.769h346.585V28.357
	c0-7.089-5.514-12.603-11.815-12.603H27.569c-6.302,0-11.815,5.514-11.815,12.603V78.769z"/>
<path style="fill:#2CA0DA;" d="M7.877,86.646v223.705c0,11.028,8.665,20.48,19.692,20.48h322.954
	c11.028,0,19.692-9.452,19.692-20.48V86.646H7.877z"/>
<path style="fill:#183651;" d="M350.523,338.708H27.569C12.603,338.708,0,326.105,0,310.351V86.646c0-4.726,3.151-7.877,7.877-7.877
	h362.338c4.726,0,7.877,3.151,7.877,7.877v223.705C378.092,326.105,365.489,338.708,350.523,338.708z M15.754,94.523v215.828
	c0,7.089,5.514,12.603,11.815,12.603h322.954c6.302,0,11.815-5.514,11.815-12.603V94.523H15.754z"/>
<rect x="37.022" y="116.578" style="fill:#FFFFFF;" width="304.049" height="184.32"/>
<g>
	<ellipse style="fill:#E1E6E7;" cx="322.166" cy="47.262" rx="12.603" ry="12.603"/>
	<ellipse style="fill:#E1E6E7;" cx="278.843" cy="47.262" rx="12.603" ry="12.603"/>
	<ellipse style="fill:#E1E6E7;" cx="235.52" cy="47.262" rx="12.603" ry="12.603"/>
</g>
<path style="fill:#F06151;" d="M181.957,34.658H51.2c-7.089,0-12.603,5.514-12.603,12.603S44.111,59.865,51.2,59.865h130.757
	c7.089,0,12.603-5.514,12.603-12.603C194.56,40.172,189.046,34.658,181.957,34.658z"/>
<g>
	<rect x="218.978" y="154.388" style="fill:#183651;" width="15.754" height="15.754"/>
	<rect x="258.363" y="154.388" style="fill:#183651;" width="15.754" height="15.754"/>
	<rect x="297.748" y="154.388" style="fill:#183651;" width="15.754" height="15.754"/>
</g>
<circle style="fill:#FFFFFF;" cx="376.517" cy="376.517" r="104.763"/>
<path style="fill:#183651;" d="M376.517,489.157c-62.228,0-112.64-50.412-112.64-112.64s50.412-112.64,112.64-112.64
	s112.64,50.412,112.64,112.64S438.745,489.157,376.517,489.157z M376.517,280.418c-53.563,0-96.886,43.323-96.886,96.886
	s43.323,96.886,96.886,96.886s96.886-43.323,96.886-96.886S430.08,280.418,376.517,280.418z"/>
<path style="fill:#FBBD5E;" d="M376.517,301.686c-40.96,0-74.831,33.871-74.831,74.831c0,20.48,8.665,39.385,22.055,52.775
	l52.775-52.775V301.686z"/>
<path style="fill:#4FBF9F;" d="M376.517,376.517l-52.775,52.775c13.391,13.391,32.295,22.055,52.775,22.055
	c40.96,0,74.831-33.871,74.831-74.831H376.517z"/>
<path style="fill:#F06151;" d="M452.135,376.517L452.135,376.517c0-40.96-33.871-74.831-74.831-74.831v74.831H452.135z"/>
<rect x="7.877" y="363.126" style="fill:#FFFFFF;" width="173.292" height="133.12"/>
<path style="fill:#183651;" d="M181.169,504.123H7.877c-4.726,0-7.877-3.151-7.877-7.877v-133.12c0-4.726,3.151-7.877,7.877-7.877
	h173.292c4.726,0,7.877,3.151,7.877,7.877v133.12C189.046,500.972,185.895,504.123,181.169,504.123z M15.754,488.369h157.538
	V371.003H15.754V488.369z"/>
<polygon style="fill:#F06151;" points="72.468,404.086 72.468,455.286 116.578,429.292 "/>
<g>
	<rect x="33.083" y="386.757" style="fill:#183651;" width="15.754" height="15.754"/>
	<rect x="33.083" y="421.415" style="fill:#183651;" width="15.754" height="15.754"/>
	<rect x="33.083" y="456.862" style="fill:#183651;" width="15.754" height="15.754"/>
	<rect x="140.209" y="386.757" style="fill:#183651;" width="15.754" height="15.754"/>
	<rect x="140.209" y="421.415" style="fill:#183651;" width="15.754" height="15.754"/>
	<rect x="140.209" y="456.862" style="fill:#183651;" width="15.754" height="15.754"/>
</g>
<g>
</g>
<g>
</g>
<g>
</g>
<g>
</g>
<g>
</g>
<g>
</g>
<g>
</g>
<g>
</g>
<g>
</g>
<g>
</g>
<g>
</g>
<g>
</g>
<g>
</g>
<g>
</g>
<g>
</g>
</svg>
