<?xml version="1.0" encoding="iso-8859-1"?>
<!-- Generator: Adobe Illustrator 19.0.0, SVG Export Plug-In . SVG Version: 6.00 Build 0)  -->
<svg version="1.1" id="Capa_1" xmlns="http://www.w3.org/2000/svg" xmlns:xlink="http://www.w3.org/1999/xlink" x="0px" y="0px"
	 viewBox="0 0 504.07 504.07" style="enable-background:new 0 0 504.07 504.07;" xml:space="preserve">
<circle style="fill:#F06151;" cx="316.652" cy="187.417" r="134.695"/>
<path style="fill:#FBBD5E;" d="M450.56,166.15H52.775c-13.391,0-23.631,10.24-23.631,23.631v267.815h444.258V189.78
	C474.191,177.177,463.163,166.15,450.56,166.15z"/>
<path style="fill:#183651;" d="M474.191,465.473H29.145c-4.726,0-7.877-3.151-7.877-7.877V189.78
	c0-17.329,14.178-31.508,31.508-31.508h396.997c17.329,0,31.508,14.178,31.508,31.508v267.815
	C482.068,462.322,478.129,465.473,474.191,465.473z M37.022,449.719h428.505V189.78c0-8.665-7.089-15.754-15.754-15.754H52.775
	c-8.665,0-15.754,7.089-15.754,15.754V449.719z"/>
<g>
	<rect x="60.652" y="197.657" style="fill:#FFFFFF;" width="381.243" height="259.938"/>
	<path style="fill:#FFFFFF;" d="M305.625,419.786v30.72H197.711v-30.72H7.877v21.268c0,30.72,24.418,55.138,55.138,55.138H440.32
		c30.72,0,55.138-24.418,55.138-55.138v-21.268H305.625z"/>
</g>
<g>
	<path style="fill:#183651;" d="M440.32,504.07H63.015C28.357,504.07,0,475.713,0,441.054v-21.268c0-4.726,3.151-7.877,7.877-7.877
		h189.834c4.726,0,7.877,3.151,7.877,7.877v22.843h92.16v-22.843c0-4.726,3.151-7.877,7.877-7.877h189.834
		c4.726,0,7.877,3.151,7.877,7.877v21.268C503.335,475.713,474.978,504.07,440.32,504.07z M15.754,427.663v13.391
		c0,25.994,21.268,47.262,47.262,47.262H440.32c25.994,0,47.262-21.268,47.262-47.262v-13.391h-174.08v22.843
		c0,4.726-3.151,7.877-7.877,7.877H197.711c-4.726,0-7.877-3.151-7.877-7.877v-22.843H15.754z"/>
	<rect x="346.585" y="449.719" style="fill:#183651;" width="15.754" height="15.754"/>
	<rect x="385.969" y="449.719" style="fill:#183651;" width="15.754" height="15.754"/>
	<rect x="424.566" y="449.719" style="fill:#183651;" width="15.754" height="15.754"/>
	<rect x="63.015" y="449.719" style="fill:#183651;" width="15.754" height="15.754"/>
	<rect x="102.4" y="449.719" style="fill:#183651;" width="15.754" height="15.754"/>
	<rect x="140.997" y="449.719" style="fill:#183651;" width="15.754" height="15.754"/>
	<polygon style="fill:#183651;" points="268.603,359.922 111.852,359.922 111.852,249.645 99.249,249.645 99.249,359.922 
		85.071,359.922 85.071,372.525 99.249,372.525 99.249,381.19 111.852,381.19 111.852,372.525 268.603,372.525 	"/>
</g>
<g>
	<rect x="128.394" y="311.085" style="fill:#F06151;" width="17.329" height="34.658"/>
	<rect x="163.052" y="267.762" style="fill:#F06151;" width="17.329" height="77.982"/>
	<rect x="196.923" y="281.94" style="fill:#F06151;" width="17.329" height="64.591"/>
	<rect x="231.582" y="263.823" style="fill:#F06151;" width="17.329" height="82.708"/>
</g>
<path style="fill:#FFFFFF;" d="M338.708,144.094l21.268,21.268L486.006,60.599c13.391-11.028,14.178-31.508,2.363-44.111
	s-33.083-11.815-44.111,2.363L338.708,144.094z"/>
<path style="fill:#183651;" d="M359.188,173.239c-2.363,0-3.938-0.788-5.514-2.363l-21.268-21.268
	c-3.151-3.151-3.151-7.877-0.788-10.24L437.169,13.337c14.178-16.542,40.172-18.117,55.926-2.363s14.178,41.748-2.363,55.926
	L364.702,171.663C363.126,173.239,361.551,173.239,359.188,173.239z M348.948,144.094l11.028,11.028L480.492,54.297
	c10.24-8.665,10.24-22.843,1.575-32.295c-8.665-8.665-24.418-7.877-32.295,1.575L348.948,144.094z"/>
<circle style="fill:#FFFFFF;" cx="316.652" cy="187.417" r="89.797"/>
<path style="fill:#183651;" d="M316.652,285.091c-25.994,0-50.412-10.24-69.317-28.357c-18.117-18.117-28.357-43.323-28.357-69.317
	s10.24-50.412,28.357-69.317c18.117-18.117,43.323-28.357,69.317-28.357s50.412,10.24,69.317,28.357
	c37.809,37.809,37.809,100.037,0,137.846C367.065,274.851,342.646,285.091,316.652,285.091z M316.652,105.497
	c-22.055,0-42.535,8.665-58.289,23.631c-15.754,15.754-23.631,36.234-23.631,58.289s8.665,42.535,23.631,58.289
	c14.966,15.754,36.234,23.631,58.289,23.631c22.055,0,42.535-8.665,58.289-23.631c32.295-32.295,32.295-83.495,0-115.791
	C358.4,114.162,337.92,105.497,316.652,105.497z"/>
<circle style="fill:#2EA0DA;" cx="316.652" cy="187.417" r="63.803"/>
<path style="fill:#FFFFFF;" d="M283.569,220.5c-18.117-18.117-18.117-47.262,0-65.378c2.363-2.363,6.302-2.363,8.665,0
	s2.363,6.302,0,8.665c-13.391,13.391-13.391,34.658,0,48.049c2.363,2.363,2.363,6.302,0,8.665
	C289.871,222.863,285.932,222.863,283.569,220.5z"/>
<g>
</g>
<g>
</g>
<g>
</g>
<g>
</g>
<g>
</g>
<g>
</g>
<g>
</g>
<g>
</g>
<g>
</g>
<g>
</g>
<g>
</g>
<g>
</g>
<g>
</g>
<g>
</g>
<g>
</g>
</svg>
