<?xml version="1.0" encoding="iso-8859-1"?>
<!-- Generator: Adobe Illustrator 19.0.0, SVG Export Plug-In . SVG Version: 6.00 Build 0)  -->
<svg version="1.1" id="Capa_1" xmlns="http://www.w3.org/2000/svg" xmlns:xlink="http://www.w3.org/1999/xlink" x="0px" y="0px"
	 viewBox="0 0 504.123 504.123" style="enable-background:new 0 0 504.123 504.123;" xml:space="preserve">
<circle style="fill:#FBBD5E;" cx="252.062" cy="252.062" r="252.062"/>
<rect x="25.994" y="78.769" style="fill:#E1E6E7;" width="452.135" height="311.926"/>
<path style="fill:#183651;" d="M478.129,398.572H25.994c-4.726,0-7.877-3.151-7.877-7.877V78.769c0-4.726,3.151-7.877,7.877-7.877
	h452.135c4.726,0,7.877,3.151,7.877,7.877v311.926C486.006,395.422,482.855,398.572,478.129,398.572z M33.871,382.818h436.382
	V86.646H33.871V382.818z"/>
<rect x="57.502" y="110.277" style="fill:#FFFFFF;" width="389.12" height="280.418"/>
<polygon style="fill:#CFD0D1;" points="496.246,368.64 496.246,402.511 447.409,440.32 56.714,440.32 7.877,402.511 7.877,368.64 
	194.56,368.64 194.56,390.695 309.563,390.695 309.563,368.64 "/>
<path style="fill:#183651;" d="M447.409,448.197H56.714c-1.575,0-3.151-0.788-4.726-1.575L3.151,408.812
	C1.575,407.237,0,404.874,0,402.511v-33.083c0-4.726,3.151-7.877,7.877-7.877H194.56c4.726,0,7.877,3.151,7.877,7.877v14.178h99.249
	v-14.178c0-4.726,3.151-7.877,7.877-7.877h186.683c4.726,0,7.877,3.151,7.877,7.877v33.083c0,2.363-0.788,4.726-3.151,6.302
	l-48.837,37.809C450.56,447.409,448.985,448.197,447.409,448.197z M59.077,432.443h385.969l43.323-33.871v-21.268H317.44v14.178
	c0,4.726-3.151,7.877-7.877,7.877H194.56c-4.726,0-7.877-3.151-7.877-7.877v-14.178H15.754v21.268L59.077,432.443z"/>
<path style="fill:#F06151;" d="M273.329,319.015l85.858-117.366L235.52,279.631c-15.754,9.452-18.905,30.72-6.302,44.111
	C241.822,336.345,263.089,334.769,273.329,319.015z"/>
<path style="fill:#2CA0DA;" d="M252.062,187.471c-66.166,0-120.517,52.775-122.092,118.154h39.385
	c2.363-44.111,38.597-78.769,82.708-78.769c10.24,0,19.692,1.575,28.357,5.514l38.597-24.418
	C300.111,195.348,277.268,187.471,252.062,187.471z"/>
<path style="fill:#4FBF9F;" d="M374.154,306.412c-0.788-25.206-9.452-48.049-22.843-66.954l-25.206,34.658
	c4.726,10.24,7.877,21.268,8.665,33.083h39.385V306.412z"/>
<g>
	<rect x="81.132" y="136.271" style="fill:#183651;" width="15.754" height="15.754"/>
	<rect x="125.243" y="136.271" style="fill:#183651;" width="15.754" height="15.754"/>
	<rect x="170.142" y="136.271" style="fill:#183651;" width="15.754" height="15.754"/>
	<rect x="319.015" y="136.271" style="fill:#183651;" width="15.754" height="15.754"/>
	<rect x="363.126" y="136.271" style="fill:#183651;" width="15.754" height="15.754"/>
	<rect x="407.237" y="136.271" style="fill:#183651;" width="15.754" height="15.754"/>
</g>
<g>
</g>
<g>
</g>
<g>
</g>
<g>
</g>
<g>
</g>
<g>
</g>
<g>
</g>
<g>
</g>
<g>
</g>
<g>
</g>
<g>
</g>
<g>
</g>
<g>
</g>
<g>
</g>
<g>
</g>
</svg>
