<?xml version="1.0" encoding="iso-8859-1"?>
<!-- Generator: Adobe Illustrator 19.0.0, SVG Export Plug-In . SVG Version: 6.00 Build 0)  -->
<svg version="1.1" id="Capa_1" xmlns="http://www.w3.org/2000/svg" xmlns:xlink="http://www.w3.org/1999/xlink" x="0px" y="0px"
	 viewBox="0 0 504.123 504.123" style="enable-background:new 0 0 504.123 504.123;" xml:space="preserve">
<circle style="fill:#FBBD5E;" cx="252.062" cy="252.062" r="252.062"/>
<g>
	
		<rect x="366.614" y="232.28" transform="matrix(-0.707 -0.7072 0.7072 -0.707 469.4185 674.7911)" style="fill:#183651;" width="15.754" height="15.754"/>
	
		<rect x="398.417" y="200.705" transform="matrix(-0.707 -0.7072 0.7072 -0.707 546.0362 643.3845)" style="fill:#183651;" width="15.754" height="15.754"/>
	
		<rect x="430.753" y="168.579" transform="matrix(-0.7071 -0.7071 0.7071 -0.7071 624.015 611.387)" style="fill:#183651;" width="15.754" height="15.754"/>
	
		<rect x="281.787" y="121.813" transform="matrix(-0.707 -0.7072 0.7072 -0.707 402.7401 426.2339)" style="fill:#183651;" width="15.754" height="15.754"/>
	
		<rect x="314.147" y="89.674" transform="matrix(-0.707 -0.7072 0.7072 -0.707 480.7082 394.2573)" style="fill:#183651;" width="15.754" height="15.754"/>
	
		<rect x="346.515" y="57.543" transform="matrix(-0.707 -0.7072 0.7072 -0.707 558.6841 362.2997)" style="fill:#183651;" width="15.754" height="15.754"/>
	<path style="fill:#183651;" d="M40.172,472.615c-2.363,0-3.938-0.788-5.514-2.363c-1.575-1.575-2.363-3.938-2.363-6.302
		l24.418-169.354c0.788-3.938,4.726-7.089,8.665-6.302c3.938,0.788,7.089,4.726,6.302,8.665L49.625,455.286l159.114-22.843
		c4.726-0.788,8.665,2.363,8.665,6.302c0.788,3.938-2.363,8.665-6.302,8.665L40.96,472.615H40.172z"/>
</g>
<circle style="fill:#FFFFFF;" cx="40.172" cy="464.738" r="31.508"/>
<path style="fill:#183651;" d="M40.172,504.123c-11.028,0-20.48-3.938-28.357-11.815c-15.754-15.754-15.754-40.96,0-55.926
	c7.877-7.877,17.329-11.815,28.357-11.815s20.48,3.938,28.357,11.815c15.754,15.754,15.754,40.96,0,55.926
	C60.652,500.185,50.412,504.123,40.172,504.123z M40.172,440.32c-6.302,0-12.603,2.363-16.542,7.089
	c-9.452,9.452-9.452,24.418,0,33.871c8.665,8.665,24.418,8.665,33.871,0c9.452-9.452,9.452-24.418,0-33.871
	C52.775,442.683,46.474,440.32,40.172,440.32z"/>
<circle style="fill:#FFFFFF;" cx="463.163" cy="40.96" r="31.508"/>
<path style="fill:#183651;" d="M463.163,80.345c-10.24,0-20.48-3.938-28.357-11.815c-15.754-15.754-15.754-40.96,0-55.926
	c7.877-7.877,17.329-11.815,28.357-11.815c10.24,0,20.48,3.938,28.357,11.815c15.754,15.754,15.754,40.96,0,55.926
	C484.431,76.406,474.191,80.345,463.163,80.345z M463.163,17.329c-6.302,0-12.603,2.363-16.542,7.089
	c-9.452,9.452-9.452,24.418,0,33.871c8.665,8.665,24.418,8.665,33.871,0c9.452-9.452,9.452-24.418,0-33.871
	C475.766,19.692,470.252,17.329,463.163,17.329z"/>
<circle style="fill:#FFFFFF;" cx="209.526" cy="440.32" r="31.508"/>
<path style="fill:#183651;" d="M209.526,479.705c-10.24,0-20.48-3.938-28.357-11.815c-15.754-15.754-15.754-40.96,0-55.926
	c7.877-7.877,17.329-11.815,28.357-11.815c10.24,0,20.48,3.938,28.357,11.815c15.754,15.754,15.754,40.96,0,55.926
	C230.006,475.766,219.766,479.705,209.526,479.705z M209.526,415.902c-6.302,0-12.603,2.363-16.542,7.089
	c-9.452,9.452-9.452,24.418,0,33.871c8.665,8.665,24.418,8.665,33.871,0c9.452-9.452,9.452-24.418,0-33.871
	C221.342,419.052,215.828,415.902,209.526,415.902z"/>
<circle style="fill:#FFFFFF;" cx="64.591" cy="295.385" r="31.508"/>
<g>
	<path style="fill:#183651;" d="M64.591,334.769c-10.24,0-20.48-3.938-28.357-11.815c-15.754-15.754-15.754-40.96,0-55.926
		c7.877-7.877,17.329-11.815,28.357-11.815s20.48,3.938,28.357,11.815c15.754,15.754,15.754,40.96,0,55.926
		C85.071,330.831,74.831,334.769,64.591,334.769z M64.591,270.966c-6.302,0-12.603,2.363-16.542,7.089
		c-9.452,9.452-9.452,24.418,0,33.871c8.665,8.665,24.418,8.665,33.871,0c9.452-9.452,9.452-24.418,0-33.871
		C76.406,274.117,70.892,270.966,64.591,270.966z"/>
	<path style="fill:#183651;" d="M334.769,456.862c-2.363,0-4.726-0.788-6.302-3.151c-1.575-2.363-2.363-5.514-0.788-7.877
		l51.2-119.729c1.575-3.938,6.302-5.514,10.24-3.938c3.938,1.575,5.514,6.302,3.938,10.24l-45.686,107.126l121.305-18.117
		c3.938-0.788,8.665,2.363,8.665,6.302c0.788,3.938-2.363,8.665-6.302,8.665l-135.483,19.692
		C335.557,456.862,334.769,456.862,334.769,456.862z"/>
</g>
<circle style="fill:#FFFFFF;" cx="334.769" cy="448.985" r="25.206"/>
<path style="fill:#183651;" d="M334.769,482.068c-8.665,0-17.329-3.151-23.631-9.452c-6.302-6.302-9.452-14.966-9.452-23.631
	s3.151-17.329,9.452-23.631c6.302-6.302,14.966-9.452,23.631-9.452s17.329,3.151,23.631,9.452
	c6.302,6.302,9.452,14.966,9.452,23.631s-3.151,17.329-9.452,23.631C352.098,478.917,343.434,482.068,334.769,482.068z
	 M334.769,431.655c-4.726,0-9.452,1.575-12.603,5.514c-3.151,3.151-5.514,7.877-5.514,12.603c0,4.726,1.575,9.452,5.514,12.603
	c6.302,6.302,18.117,6.302,25.206,0c3.151-3.151,5.514-7.877,5.514-12.603c0-4.726-1.575-9.452-5.514-12.603
	C343.434,433.231,339.495,431.655,334.769,431.655z"/>
<circle style="fill:#FFFFFF;" cx="470.252" cy="429.292" r="25.206"/>
<path style="fill:#183651;" d="M470.252,463.163c-8.665,0-17.329-3.151-23.631-9.452c-6.302-6.302-9.452-14.966-9.452-23.631
	s3.151-17.329,9.452-23.631c6.302-6.302,14.966-9.452,23.631-9.452s17.329,3.151,23.631,9.452
	c6.302,6.302,9.452,14.966,9.452,23.631s-3.151,17.329-9.452,23.631C487.582,459.225,478.917,463.163,470.252,463.163z
	 M470.252,411.963c-4.726,0-9.452,1.575-12.603,5.514c-3.151,3.151-5.514,7.877-5.514,12.603s1.575,9.452,5.514,12.603
	c6.302,6.302,18.117,6.302,25.206,0c3.151-3.151,5.514-7.877,5.514-12.603s-1.575-9.452-5.514-12.603
	C478.917,413.538,474.978,411.963,470.252,411.963z"/>
<circle style="fill:#FFFFFF;" cx="385.182" cy="329.255" r="25.206"/>
<g>
	<path style="fill:#183651;" d="M385.182,362.338c-8.665,0-17.329-3.151-23.631-9.452c-12.603-12.603-12.603-33.871,0-47.262
		c6.302-6.302,14.966-9.452,23.631-9.452s17.329,3.151,23.631,9.452c6.302,6.302,9.452,14.966,9.452,23.631
		c0,8.665-3.151,17.329-9.452,23.631C402.511,359.188,394.634,362.338,385.182,362.338z M385.182,311.926
		c-4.726,0-9.452,1.575-12.603,5.514c-7.089,7.089-7.089,18.117,0,25.206c6.302,6.302,18.117,6.302,25.206,0
		c3.151-3.151,5.514-7.877,5.514-12.603s-1.575-9.452-5.514-12.603C394.634,313.502,389.908,311.926,385.182,311.926z"/>
	<path style="fill:#183651;" d="M113.428,186.683c-0.788,0-1.575,0-2.363-0.788c-2.363-0.788-3.938-2.363-4.726-5.514L63.015,37.809
		c-0.788-3.938,1.575-8.665,5.514-9.452c3.938-1.575,8.665,0.788,9.452,5.514l39.385,133.12l117.366-76.406
		c3.938-2.363,8.665-1.575,11.028,2.363s1.575,8.665-2.363,11.028l-125.243,81.132C116.578,185.895,115.003,186.683,113.428,186.683
		z"/>
</g>
<circle style="fill:#FFFFFF;" cx="113.428" cy="178.806" r="27.569"/>
<path style="fill:#183651;" d="M113.428,214.252c-3.938,0-8.665-0.788-12.603-2.363c-18.117-7.089-27.569-27.569-21.268-45.686
	c5.514-14.178,18.905-23.631,33.083-23.631c3.938,0,8.665,0.788,12.603,2.363c18.117,7.089,27.569,27.569,21.268,45.686
	C141.785,204.8,128.394,214.252,113.428,214.252z M113.428,159.114c-8.665,0-15.754,5.514-18.905,13.391
	c-3.938,10.24,1.575,22.055,11.815,25.206c10.24,3.938,22.055-1.575,25.206-11.815c3.938-10.24-1.575-22.055-11.815-25.206
	C118.154,159.114,115.791,159.114,113.428,159.114z"/>
<circle style="fill:#FFFFFF;" cx="238.671" cy="97.674" r="27.569"/>
<path style="fill:#183651;" d="M238.671,133.12c-3.938,0-8.665-0.788-12.603-2.363c-18.117-7.089-27.569-27.569-21.268-45.686
	c5.514-14.178,18.905-23.631,33.083-23.631c3.938,0,8.665,0.788,12.603,2.363c8.665,3.151,15.754,10.24,19.692,18.117
	c3.938,8.665,4.726,18.117,0.788,27.569C267.028,123.668,253.637,133.12,238.671,133.12z M238.671,77.194
	c-8.665,0-15.754,5.514-18.905,13.391c-3.938,10.24,1.575,22.055,11.815,25.206c10.24,3.938,22.055-1.575,25.206-11.815
	c3.938-10.24-1.575-22.055-11.815-25.206C243.397,77.982,241.034,77.194,238.671,77.194z"/>
<circle style="fill:#FFFFFF;" cx="70.892" cy="35.446" r="27.569"/>
<path style="fill:#183651;" d="M70.892,70.892c-3.938,0-8.665,0-12.603-1.575c-8.665-3.151-15.754-10.24-19.692-18.905
	s-4.726-18.117-0.788-26.782C43.323,9.452,56.714,0,70.892,0c3.938,0,8.665,0.788,12.603,2.363
	c18.117,7.089,27.569,27.569,21.268,45.686C99.249,62.228,85.858,70.892,70.892,70.892z M70.892,15.754
	c-8.665,0-15.754,5.514-18.905,13.391c-1.575,4.726-1.575,10.24,0.788,14.966c2.363,4.726,6.302,8.665,11.028,10.24
	c10.24,3.938,22.055-1.575,25.206-11.815c3.938-10.24-1.575-22.055-11.815-25.206C75.618,15.754,73.255,15.754,70.892,15.754z"/>
<path style="fill:#183651;" d="M71.68,272.542c-1.575,0-2.363,0-3.938-0.788c-3.938-2.363-5.514-7.089-3.151-11.028l32.295-59.865
	c2.363-3.938,7.089-5.514,11.028-3.151c3.938,2.363,5.514,7.089,3.151,11.028l-32.295,59.865
	C77.194,270.966,74.831,272.542,71.68,272.542z"/>
<circle style="fill:#FFFFFF;" cx="252.062" cy="248.123" r="59.077"/>
<path style="fill:#183651;" d="M252.062,315.077c-18.117,0-34.658-7.089-47.262-19.692c-12.603-12.603-19.692-29.145-19.692-47.262
	s7.089-34.658,19.692-47.262c12.603-12.603,29.145-19.692,47.262-19.692s34.658,7.089,47.262,19.692
	c25.994,25.994,25.994,68.529,0,94.523C286.72,307.988,270.178,315.077,252.062,315.077z M252.062,196.923
	c-13.391,0-26.782,5.514-36.234,14.966c-9.452,9.452-14.966,22.055-14.966,36.234c0,13.391,5.514,26.782,14.966,36.234
	c9.452,9.452,22.843,14.966,36.234,14.966c13.391,0,26.782-5.514,36.234-14.966c19.692-19.692,19.692-52.775,0-72.468
	C278.843,202.437,265.452,196.923,252.062,196.923z"/>
<circle style="fill:#F06151;" cx="252.062" cy="248.123" r="27.569"/>
<path style="fill:#183651;" d="M296.172,216.615c-2.363,0-3.938-0.788-5.514-2.363c-3.151-3.151-3.151-7.877,0-11.028
	L435.594,57.502c3.151-3.151,7.877-3.151,11.028,0c3.151,3.151,3.151,7.877,0,11.028L301.686,214.252
	C300.111,215.828,297.748,216.615,296.172,216.615z"/>
<path style="fill:#183651;" d="M62.228,449.772c-2.363,0-3.938-0.788-5.514-2.363c-3.151-3.151-3.151-7.877,0-11.028L206.375,286.72
	c3.151-3.151,7.877-3.151,11.028,0c3.151,3.151,3.151,7.877,0,11.028L67.742,447.409C66.166,448.985,64.591,449.772,62.228,449.772z
	"/>
<path style="fill:#183651;" d="M308.775,456.862h-0.788l-67.742-7.089c-3.938-0.788-7.089-3.938-7.089-8.665
	c0.788-3.938,3.938-7.877,8.665-7.089l67.742,7.089c3.938,0.788,7.089,3.938,7.089,8.665
	C316.652,453.711,312.714,456.862,308.775,456.862z"/>
<g>
</g>
<g>
</g>
<g>
</g>
<g>
</g>
<g>
</g>
<g>
</g>
<g>
</g>
<g>
</g>
<g>
</g>
<g>
</g>
<g>
</g>
<g>
</g>
<g>
</g>
<g>
</g>
<g>
</g>
</svg>
