<?xml version="1.0" encoding="iso-8859-1"?>
<!-- Generator: Adobe Illustrator 19.0.0, SVG Export Plug-In . SVG Version: 6.00 Build 0)  -->
<svg version="1.1" id="Capa_1" xmlns="http://www.w3.org/2000/svg" xmlns:xlink="http://www.w3.org/1999/xlink" x="0px" y="0px"
	 viewBox="0 0 506.486 506.486" style="enable-background:new 0 0 506.486 506.486;" xml:space="preserve">
<circle style="fill:#F06151;" cx="252.849" cy="253.637" r="221.342"/>
<polygon style="fill:#FFFFFF;" points="272.542,336.345 233.157,336.345 233.157,444.258 209.526,444.258 252.849,497.822 
	296.172,444.258 272.542,444.258 "/>
<path style="fill:#183651;" d="M252.849,505.698L252.849,505.698c-2.363,0-4.726-0.788-6.302-3.151l-43.323-53.563
	c-1.575-2.363-2.363-5.514-0.788-8.665c1.575-2.363,3.938-4.726,7.089-4.726h15.754v-99.249c0-4.726,3.151-7.877,7.877-7.877h39.385
	c2.363,0,3.938,0.788,5.514,2.363c1.575,1.575,2.363,3.151,2.363,5.514v100.825h15.754c3.151,0,5.514,1.575,7.089,4.726
	c1.575,2.363,0.788,6.302-0.788,8.665l-43.323,53.563C257.575,504.911,255.212,505.698,252.849,505.698z M226.068,452.135
	l26.782,33.083l26.782-33.083h-7.089c-2.363,0-3.938-0.788-5.514-2.363c-1.575-1.575-2.363-3.151-2.363-5.514V343.434h-23.631
	v100.825c0,4.726-3.151,7.877-7.877,7.877H226.068z"/>
<polyline style="fill:#E1E6E7;" points="233.157,424.566 233.157,444.258 209.526,444.258 252.849,497.822 296.172,444.258 
	272.542,444.258 272.542,424.566 "/>
<path style="fill:#183651;" d="M252.849,505.698L252.849,505.698c-2.363,0-4.726-0.788-6.302-3.151l-43.323-53.563
	c-1.575-2.363-2.363-5.514-0.788-8.665c1.575-2.363,3.938-4.726,7.089-4.726h15.754v-11.815c0-4.726,3.151-7.877,7.877-7.877
	c4.726,0,7.877,3.151,7.877,7.877v19.692c0,4.726-3.151,7.877-7.877,7.877h-7.089l26.782,33.083l26.782-33.083h-7.089
	c-2.363,0-3.938-0.788-5.514-2.363c-1.575-0.788-2.363-2.363-2.363-4.726v-19.692c0-4.726,3.151-7.877,7.877-7.877l0,0
	c4.726,0,7.877,3.151,7.877,7.877v11.815h15.754c3.151,0,5.514,1.575,7.089,4.726c1.575,2.363,0.788,6.302-0.788,8.665
	l-43.323,53.563C257.575,504.911,255.212,505.698,252.849,505.698z"/>
<polygon style="fill:#FFFFFF;" points="233.157,170.929 272.542,170.929 272.542,63.015 296.172,63.015 252.849,9.452 
	209.526,63.015 233.157,63.015 "/>
<path style="fill:#183651;" d="M272.542,178.806h-39.385c-2.363,0-3.938-0.788-5.514-2.363c-1.575-0.788-2.363-3.151-2.363-5.514
	V70.105h-15.754c-3.151,0-5.514-1.575-7.089-4.726c-0.788-1.575-0.788-5.514,1.575-7.877l43.323-53.563
	c1.575-1.575,3.938-3.151,6.302-3.151l0,0c2.363,0,4.726,0.788,6.302,3.151l42.535,51.988c0,2.363,1.575,4.726,1.575,7.089
	c0,4.726-3.151,7.877-7.877,7.877l0,0h-15.754v100.037C280.418,175.655,276.48,178.806,272.542,178.806z M241.034,163.84h23.631
	V63.015c0-4.726,3.151-7.877,7.877-7.877h7.089l-26.782-33.083l-26.782,33.083h7.089c2.363,0,3.938,0.788,5.514,2.363
	c1.575,1.575,2.363,3.151,2.363,5.514V163.84z"/>
<polyline style="fill:#E1E6E7;" points="272.542,82.708 272.542,63.015 296.172,63.015 252.849,9.452 209.526,63.015 
	233.157,63.015 233.157,82.708 "/>
<path style="fill:#183651;" d="M233.157,90.585L233.157,90.585c-4.726,0-7.877-3.151-7.877-7.877V70.892h-15.754
	c-3.151,0-5.514-1.575-7.089-4.726c-0.788-2.363-0.788-6.302,1.575-8.665l43.323-53.563c1.575-1.575,3.938-3.151,6.302-3.151l0,0
	c2.363,0,4.726,0.788,6.302,3.151l43.323,53.563c0.788,2.363,0.788,6.302,0,8.665c-1.575,2.363-4.726,4.726-7.089,4.726h-15.754
	v11.815c0,4.726-3.151,7.877-7.877,7.877s-7.877-3.151-7.877-7.877V63.015c0-4.726,3.151-7.877,7.877-7.877h7.089l-26.782-33.083
	l-26.782,33.083h7.089c2.363,0,3.938,0.788,5.514,2.363c1.575,1.575,2.363,3.151,2.363,5.514v19.692
	C241.034,86.646,237.883,90.585,233.157,90.585z"/>
<polygon style="fill:#FFFFFF;" points="170.142,273.329 170.142,233.945 62.228,233.945 62.228,210.314 8.665,253.637 
	62.228,296.96 62.228,273.329 "/>
<path style="fill:#183651;" d="M56.714,302.474L3.151,259.151C1.575,257.575,0,255.212,0,252.849c0-2.363,0.788-4.726,3.151-6.302
	l53.563-43.323c2.363-0.788,6.302-0.788,8.665,0c2.363,1.575,4.726,4.726,4.726,7.089v15.754h100.037
	c4.726,0,7.877,3.151,7.877,7.877v39.385c0,2.363-0.788,3.938-2.363,5.514c-0.788,1.575-3.151,2.363-5.514,2.363l0,0H70.105v15.754
	c0,3.151-1.575,5.514-4.726,7.089C63.015,304.837,59.077,304.837,56.714,302.474z M21.268,253.637l33.083,26.782v-7.089
	c0-2.363,0.788-3.938,2.363-5.514s3.151-2.363,5.514-2.363l0,0h100.825v-23.631H62.228c-4.726,0-7.877-3.151-7.877-7.877v-7.089
	L21.268,253.637z"/>
<polyline style="fill:#E1E6E7;" points="81.92,233.945 62.228,233.945 62.228,210.314 8.665,253.637 62.228,296.96 62.228,273.329 
	81.92,273.329 "/>
<path style="fill:#183651;" d="M56.714,302.474L3.151,259.151C1.575,257.575,0,255.212,0,252.849c0-2.363,0.788-4.726,3.151-6.302
	l53.563-43.323c2.363-0.788,6.302-0.788,8.665,0c2.363,1.575,4.726,4.726,4.726,7.089v15.754H81.92c4.726,0,7.877,3.151,7.877,7.877
	c0,4.726-3.151,7.877-7.877,7.877l0,0H62.228c-4.726,0-7.877-3.151-7.877-7.877v-7.089l-33.083,26.782l33.083,26.782v-7.089
	c0-4.726,3.151-7.877,7.877-7.877H81.92c4.726,0,7.877,3.151,7.877,7.877s-3.151,7.877-7.877,7.877H70.105v15.754
	c0,3.151-1.575,5.514-4.726,7.089C63.015,304.837,59.077,304.837,56.714,302.474z"/>
<polygon style="fill:#FFFFFF;" points="335.557,233.945 335.557,273.329 443.471,273.329 443.471,296.96 497.034,253.637 
	443.471,210.314 443.471,233.945 "/>
<path style="fill:#183651;" d="M440.32,304.049c-2.363-1.575-4.726-3.938-4.726-7.089v-15.754H335.557
	c-4.726,0-7.877-3.151-7.877-7.877v-39.385c0-2.363,0.788-3.938,2.363-5.514c1.575-1.575,3.151-2.363,5.514-2.363l0,0h100.825
	v-15.754c0-3.151,1.575-5.514,4.726-7.089c2.363-1.575,6.302-0.788,8.665,0.788l53.563,43.323c1.575,1.575,3.151,3.938,3.151,6.302
	s-0.788,4.726-3.151,6.302l-53.563,43.323C446.622,304.837,443.471,304.837,440.32,304.049z M342.646,265.452h100.825
	c4.726,0,7.877,3.151,7.877,7.877v7.089l33.083-26.782l-33.083-26.782v7.089c0,2.363-0.788,3.938-2.363,5.514
	c-1.575,1.575-3.151,2.363-5.514,2.363l0,0H342.646V265.452z"/>
<polyline style="fill:#E1E6E7;" points="423.778,273.329 443.471,273.329 443.471,296.96 497.034,253.637 443.471,210.314 
	443.471,233.945 423.778,233.945 "/>
<path style="fill:#183651;" d="M440.32,304.049c-2.363-1.575-4.726-3.938-4.726-7.089v-15.754h-11.815
	c-4.726,0-7.877-3.151-7.877-7.877s3.151-7.877,7.877-7.877l0,0h19.692c4.726,0,7.877,3.151,7.877,7.877v7.089l33.083-26.782
	l-33.083-26.782v7.089c0,4.726-3.151,7.877-7.877,7.877h-19.692c-4.726,0-7.877-3.151-7.877-7.877c0-4.726,3.151-7.877,7.877-7.877
	h11.815v-15.754c0-3.151,1.575-5.514,4.726-7.089c2.363-1.575,6.302-0.788,8.665,0.788l53.563,43.323
	c1.575,1.575,3.151,3.938,3.151,6.302s-0.788,4.726-3.151,6.302l-53.563,43.323C446.622,304.837,443.471,304.837,440.32,304.049z"/>
<circle style="fill:#FFFFFF;" cx="252.849" cy="253.637" r="137.846"/>
<path style="fill:#183651;" d="M252.849,399.36c-38.597,0-75.618-14.966-103.188-42.535
	c-27.569-27.569-42.535-64.591-42.535-103.188s14.966-75.618,42.535-103.188s64.591-42.535,103.188-42.535
	s75.618,14.966,103.188,42.535c27.569,27.569,42.535,64.591,42.535,103.188s-14.966,75.618-42.535,103.188
	C328.468,384.394,291.446,399.36,252.849,399.36z M252.849,123.668c-34.658,0-67.742,13.391-92.16,37.809
	s-37.809,57.502-37.809,92.16s13.391,67.742,37.809,92.16c24.418,24.418,57.502,37.809,92.16,37.809
	c34.658,0,67.742-13.391,92.16-37.809c24.418-24.418,37.809-57.502,37.809-92.16s-13.391-67.742-37.809-92.16
	S287.508,123.668,252.849,123.668z"/>
<path style="fill:#4FBF9F;" d="M349.735,352.098c-25.206,24.418-59.077,39.385-96.886,39.385c-37.022,0-70.892-14.966-96.098-38.597
	c13.391-11.028,31.508-24.418,57.502-37.809l80.345,2.363C294.597,317.44,325.317,330.043,349.735,352.098z"/>
<path style="fill:#FBBD5E;" d="M278.055,287.508c0,0-1.575,17.329,17.329,29.932c0,0-44.111,33.871-80.345-2.363
	c0,0,11.028-8.665,11.028-30.72L278.055,287.508z"/>
<path style="fill:#E1E6E7;" d="M297.748,252.849c0,0-7.877,40.172-44.111,45.686c0,0-36.234-0.788-48.049-54.351l-7.089-12.603
	v-31.508l13.391-18.905l32.295-3.938l48.049,16.542l15.754,32.295L297.748,252.849z"/>
<path style="fill:#173651;" d="M297.748,252.849c0,0,17.329-42.535-29.932-48.837c0,0-18.905,2.363-35.446-18.117
	c0,0-43.323,7.089-27.569,58.289c0,0-41.748-60.652,22.055-89.009s88.222,29.145,88.222,29.145S329.255,226.855,297.748,252.849z"/>
<g>
	<path style="fill:#183651;" d="M252.849,399.36c-37.022,0-74.831-14.178-103.188-42.535c-3.151-3.151-3.151-7.877,0-11.028
		c3.151-3.151,7.877-3.151,11.028,0c50.412,50.412,133.12,50.412,184.32,0c3.151-3.151,7.877-3.151,11.028,0
		c3.151,3.151,3.151,7.877,0,11.028C327.68,385.182,289.871,399.36,252.849,399.36z"/>
	<path style="fill:#183651;" d="M8.665,320.591c-0.788-2.363-1.575-5.514-2.363-7.877l14.966-3.938
		c0.788,2.363,1.575,4.726,1.575,7.089L8.665,320.591z"/>
	<path style="fill:#183651;" d="M170.929,493.095c-4.726-1.575-9.452-3.151-14.178-5.514l6.302-14.178
		c4.726,1.575,8.665,3.151,13.391,4.726L170.929,493.095z M142.572,481.28c-4.726-2.363-9.452-4.726-13.391-7.089l7.877-13.391
		c3.938,2.363,8.665,4.726,12.603,7.089L142.572,481.28z M115.791,466.314c-3.938-3.151-8.665-5.514-12.603-8.665l9.452-12.603
		c3.938,3.151,7.877,5.514,11.815,7.877L115.791,466.314z M90.585,448.197c-3.938-3.151-7.877-7.089-11.815-10.24l11.028-11.815
		c3.151,3.151,7.089,6.302,11.028,9.452L90.585,448.197z M68.529,426.929c-3.151-3.938-7.089-7.877-10.24-11.815l11.815-10.24
		c3.151,3.938,6.302,7.089,9.452,11.028L68.529,426.929z M48.837,403.298c-3.151-3.938-6.302-8.665-8.665-12.603l13.391-8.665
		c2.363,3.938,5.514,7.877,7.877,11.815L48.837,403.298z M32.295,377.305c-2.363-4.726-4.726-8.665-7.089-13.391l14.178-7.089
		c2.363,4.726,4.726,8.665,6.302,12.603L32.295,377.305z M18.905,349.735c-1.575-4.726-3.938-9.452-5.514-14.178l14.966-5.514
		c1.575,4.726,3.151,9.452,4.726,13.391L18.905,349.735z"/>
	<path style="fill:#183651;" d="M193.772,500.185c-2.363-0.788-5.514-1.575-7.877-2.363l3.938-14.966
		c2.363,0.788,4.726,1.575,7.089,1.575L193.772,500.185z"/>
	<path style="fill:#183651;" d="M311.926,500.185l-3.938-14.966c2.363-0.788,4.726-1.575,7.089-1.575l3.938,14.966
		C316.652,498.609,314.289,499.397,311.926,500.185z"/>
	<path style="fill:#183651;" d="M334.769,493.095l-5.514-14.966c4.726-1.575,9.452-3.151,13.391-4.726l6.302,14.178
		C344.222,489.945,339.495,491.52,334.769,493.095z M363.126,481.28l-7.089-14.178c4.726-2.363,8.665-4.726,12.603-6.302
		l7.877,13.391C371.791,477.342,367.852,479.705,363.126,481.28z M389.908,466.314l-8.665-13.391
		c3.938-2.363,7.877-5.514,11.815-7.877l9.452,12.603C398.572,460.8,393.846,463.951,389.908,466.314z M415.114,448.197
		l-10.24-11.815c3.938-3.151,7.089-6.302,11.028-9.452l11.028,11.815C422.203,441.895,419.052,445.046,415.114,448.197z
		 M437.169,426.929l-11.815-11.028c3.151-3.151,6.302-7.089,9.452-11.028l11.815,10.24
		C444.258,419.84,441.108,422.991,437.169,426.929z M456.862,403.298l-12.603-9.452c3.151-3.938,5.514-7.877,7.877-11.815
		l13.391,8.665C463.163,395.422,460.012,399.36,456.862,403.298z M473.403,377.305l-13.391-7.877
		c2.363-3.938,4.726-8.665,7.089-12.603l14.178,7.089C478.917,368.64,476.554,373.366,473.403,377.305z M486.794,349.735
		l-14.178-6.302c1.575-4.726,3.151-8.665,4.726-13.391l14.966,4.726C490.732,340.283,489.157,345.009,486.794,349.735z"/>
	<path style="fill:#183651;" d="M497.034,320.591l-14.966-3.938c0.788-2.363,1.575-4.726,1.575-7.089l14.966,3.938
		C498.609,315.077,497.822,317.44,497.034,320.591z"/>
	<path style="fill:#183651;" d="M189.834,24.418l-3.938-14.966c2.363-0.788,5.514-1.575,7.877-2.363l3.938,14.966
		C195.348,23.631,192.985,23.631,189.834,24.418z"/>
	<path style="fill:#183651;" d="M28.357,177.231l-14.966-4.726c1.575-4.726,3.151-9.452,5.514-14.178l14.178,6.302
		C31.508,167.778,29.932,172.505,28.357,177.231z M38.597,150.449l-14.178-7.089c2.363-4.726,4.726-9.452,7.089-13.391l13.391,7.877
		C43.323,141.785,40.96,145.723,38.597,150.449z M53.563,125.243l-13.391-8.665c3.151-3.938,5.514-8.665,8.665-12.603l12.603,9.452
		C58.289,117.366,55.926,121.305,53.563,125.243z M70.105,101.612l-11.815-10.24c3.151-3.938,7.089-7.877,10.24-11.815
		l11.815,11.028C76.406,94.523,73.255,97.674,70.105,101.612z M89.797,80.345L78.769,68.529c3.938-3.151,7.877-7.089,11.815-10.24
		l10.24,11.815C97.674,74.043,93.735,77.194,89.797,80.345z M112.64,62.228l-9.452-12.603c3.938-3.151,8.665-6.302,12.603-8.665
		l8.665,13.391C120.517,56.714,116.578,59.077,112.64,62.228z M137.058,46.474l-7.877-13.391c4.726-2.363,8.665-4.726,13.391-7.089
		l7.089,14.178C144.935,41.748,140.997,44.111,137.058,46.474z M163.052,33.871l-6.302-14.178c4.726-1.575,9.452-3.938,14.178-5.514
		l5.514,14.966C171.717,30.72,166.991,32.295,163.052,33.871z"/>
	<path style="fill:#183651;" d="M22.055,198.498L6.302,194.56c0.788-2.363,1.575-5.514,2.363-7.877l14.966,3.938
		C22.843,193.772,22.843,196.135,22.055,198.498z"/>
	<path style="fill:#183651;" d="M483.643,198.498c-0.788-2.363-1.575-4.726-1.575-7.089l14.966-3.938
		c0.788,2.363,1.575,5.514,2.363,7.877L483.643,198.498z"/>
	<path style="fill:#183651;" d="M477.342,177.231c-1.575-4.726-3.151-9.452-4.726-13.391l14.178-6.302
		c1.575,4.726,3.938,9.452,5.514,14.178L477.342,177.231z M467.102,150.449c-2.363-4.726-4.726-8.665-6.302-12.603l13.391-7.877
		c2.363,4.726,4.726,8.665,7.089,13.391L467.102,150.449z M452.923,125.243c-2.363-3.938-5.514-7.877-7.877-11.815l12.603-9.452
		c3.151,3.938,6.302,8.665,8.665,12.603L452.923,125.243z M435.594,101.612c-3.151-3.938-6.302-7.089-9.452-11.028l11.815-11.028
		c3.151,3.938,7.089,7.877,10.24,11.815L435.594,101.612z M415.902,80.345c-3.151-3.151-7.089-6.302-11.028-9.452l10.24-11.815
		c3.938,3.151,7.877,7.089,11.815,10.24L415.902,80.345z M393.058,62.228c-3.938-3.151-7.877-5.514-11.815-7.877l8.665-13.391
		c3.938,3.151,8.665,5.514,12.603,8.665L393.058,62.228z M368.64,46.474c-3.938-2.363-8.665-4.726-12.603-7.089l7.089-14.178
		c4.726,2.363,9.452,4.726,13.391,7.089L368.64,46.474z M342.646,33.871c-4.726-1.575-8.665-3.151-13.391-4.726l4.726-14.966
		c4.726,1.575,9.452,3.151,14.178,5.514L342.646,33.871z"/>
	<path style="fill:#183651;" d="M315.865,24.418c-2.363-0.788-4.726-1.575-7.089-1.575l3.151-15.754
		c2.363,0.788,5.514,1.575,7.877,2.363L315.865,24.418z"/>
</g>
<g>
</g>
<g>
</g>
<g>
</g>
<g>
</g>
<g>
</g>
<g>
</g>
<g>
</g>
<g>
</g>
<g>
</g>
<g>
</g>
<g>
</g>
<g>
</g>
<g>
</g>
<g>
</g>
<g>
</g>
</svg>
