<?xml version="1.0" encoding="iso-8859-1"?>
<!-- Generator: Adobe Illustrator 19.0.0, SVG Export Plug-In . SVG Version: 6.00 Build 0)  -->
<svg version="1.1" id="Capa_1" xmlns="http://www.w3.org/2000/svg" xmlns:xlink="http://www.w3.org/1999/xlink" x="0px" y="0px"
	 viewBox="0 0 504.911 504.911" style="enable-background:new 0 0 504.911 504.911;" xml:space="preserve">
<circle style="fill:#F06151;" cx="252.062" cy="252.455" r="252.062"/>
<rect x="28.357" y="172.111" style="fill:#E0E4E8;" width="447.409" height="269.391"/>
<path style="fill:#183651;" d="M475.766,449.378H28.357c-4.726,0-7.877-3.151-7.877-7.877V172.111c0-4.726,3.151-7.877,7.877-7.877
	h447.409c4.726,0,7.877,3.151,7.877,7.877v269.391C483.643,445.44,480.492,449.378,475.766,449.378z M36.234,433.625h431.655
	V179.988H36.234V433.625z"/>
<rect x="59.865" y="203.618" style="fill:#FFFFFF;" width="384.394" height="206.375"/>
<path style="fill:#CECFD0;" d="M7.877,441.502L7.877,441.502c0,34.658,28.357,55.138,63.015,55.138h361.551
	c34.658,0,63.015-20.48,63.015-55.138l0,0H7.877z"/>
<g>
	<path style="fill:#183651;" d="M432.443,504.517H71.68c-41.748,0-70.892-25.994-70.892-63.015c0-4.726,3.151-7.877,7.877-7.877
		h488.369c4.726,0,7.877,3.151,7.877,7.877C504.123,478.523,474.978,504.517,432.443,504.517z M16.542,449.378
		c3.938,27.569,29.932,39.385,55.138,39.385h361.551c25.206,0,51.2-12.603,55.138-39.385H16.542z"/>
	<polygon style="fill:#183651;" points="449.772,172.111 434.018,172.111 434.018,116.185 488.369,87.04 488.369,0.394 
		504.123,0.394 504.123,96.492 449.772,125.637 	"/>
	<polygon style="fill:#183651;" points="401.723,172.111 385.969,172.111 385.969,100.431 440.32,71.286 440.32,60.258 
		456.074,60.258 456.074,80.738 401.723,109.883 	"/>
	<rect x="440.32" y="0.394" style="fill:#183651;" width="15.754" height="14.966"/>
	<rect x="440.32" y="31.902" style="fill:#183651;" width="15.754" height="14.966"/>
	<polygon style="fill:#183651;" points="355.249,172.111 339.495,172.111 339.495,84.677 393.846,55.532 393.846,28.751 
		409.6,28.751 409.6,64.985 355.249,94.129 	"/>
	<rect x="393.846" y="0.394" style="fill:#183651;" width="15.754" height="14.966"/>
	<polygon style="fill:#183651;" points="70.105,172.111 54.351,172.111 54.351,125.637 0,96.492 0,0.394 15.754,0.394 15.754,87.04 
		70.105,116.185 	"/>
	<polygon style="fill:#183651;" points="118.154,172.111 102.4,172.111 102.4,109.883 48.049,80.738 48.049,60.258 63.803,60.258 
		63.803,71.286 118.154,100.431 	"/>
	<rect x="48.049" y="0.394" style="fill:#183651;" width="15.754" height="14.966"/>
	<rect x="48.049" y="31.902" style="fill:#183651;" width="15.754" height="14.966"/>
	<polygon style="fill:#183651;" points="164.628,172.111 148.874,172.111 148.874,94.129 94.523,64.985 94.523,28.751 
		110.277,28.751 110.277,55.532 164.628,84.677 	"/>
	<rect x="94.523" y="0.394" style="fill:#183651;" width="15.754" height="14.966"/>
</g>
<circle style="fill:#2EA0DA;" cx="252.062" cy="306.806" r="72.468"/>
<path style="fill:#183651;" d="M252.062,387.151c-44.111,0-80.345-36.234-80.345-80.345s36.234-80.345,80.345-80.345
	s80.345,36.234,80.345,80.345S296.172,387.151,252.062,387.151z M252.062,242.215c-35.446,0-64.591,29.145-64.591,64.591
	s29.145,64.591,64.591,64.591s64.591-29.145,64.591-64.591S287.508,242.215,252.062,242.215z"/>
<polygon style="fill:#FFFFFF;" points="233.157,276.874 233.157,336.738 285.145,306.806 "/>
<g>
	<rect x="385.969" y="251.668" style="fill:#183651;" width="15.754" height="15.754"/>
	<rect x="385.969" y="298.929" style="fill:#183651;" width="15.754" height="15.754"/>
	<rect x="385.969" y="345.403" style="fill:#183651;" width="15.754" height="15.754"/>
	<rect x="102.4" y="251.668" style="fill:#183651;" width="15.754" height="15.754"/>
	<rect x="102.4" y="298.929" style="fill:#183651;" width="15.754" height="15.754"/>
	<rect x="102.4" y="345.403" style="fill:#183651;" width="15.754" height="15.754"/>
</g>
<g>
</g>
<g>
</g>
<g>
</g>
<g>
</g>
<g>
</g>
<g>
</g>
<g>
</g>
<g>
</g>
<g>
</g>
<g>
</g>
<g>
</g>
<g>
</g>
<g>
</g>
<g>
</g>
<g>
</g>
</svg>
