<?xml version="1.0" encoding="iso-8859-1"?>
<!-- Generator: Adobe Illustrator 19.0.0, SVG Export Plug-In . SVG Version: 6.00 Build 0)  -->
<svg version="1.1" id="Capa_1" xmlns="http://www.w3.org/2000/svg" xmlns:xlink="http://www.w3.org/1999/xlink" x="0px" y="0px"
	 viewBox="0 0 504.123 504.123" style="enable-background:new 0 0 504.123 504.123;" xml:space="preserve">
<path style="fill:#F06151;" d="M254.441,272.542c-74.831,0-136.271-61.44-136.271-136.271S179.61,0,254.441,0
	s136.271,61.44,136.271,136.271S330.059,272.542,254.441,272.542z"/>
<rect x="18.133" y="173.292" style="fill:#FFFFFF;" width="467.889" height="322.954"/>
<path style="fill:#183651;" d="M486.022,504.123H18.133c-3.938,0-7.877-3.151-7.877-7.877V173.292c0-3.938,3.151-7.877,7.877-7.877
	h467.889c3.938,0,7.877,3.151,7.877,7.877v322.954C493.899,500.972,489.961,504.123,486.022,504.123z M25.222,489.157h452.923
	V181.169H25.222V489.157z"/>
<rect x="48.065" y="204.012" style="fill:#FBBD5E;" width="408.025" height="262.302"/>
<polygon style="fill:#FFFFFF;" points="486.022,496.246 252.077,256 18.133,496.246 "/>
<path style="fill:#183651;" d="M486.022,504.123H18.133c-3.151,0-5.514-1.575-7.089-4.726s-0.788-6.302,1.575-7.877l233.945-240.246
	c3.151-3.151,7.877-3.151,11.028,0L491.536,491.52c2.363,2.363,2.363,5.514,1.575,7.877
	C491.536,502.548,489.173,504.123,486.022,504.123z M36.25,489.157h432.443L252.077,267.028L36.25,489.157z"/>
<polygon style="fill:#4FBF9F;" points="89.813,466.314 252.077,299.323 414.342,466.314 "/>
<polygon style="fill:#FFFFFF;" points="18.133,173.292 252.077,389.12 486.022,173.292 "/>
<path style="fill:#183651;" d="M252.077,396.997c-1.575,0-3.938-0.788-4.726-2.363L12.619,179.594
	c-2.363-2.363-3.151-5.514-1.575-8.665c0.788-3.151,3.938-4.726,7.089-4.726h467.889c3.151,0,5.514,1.575,7.089,4.726
	c0.788,3.151,0,6.302-1.575,8.665l-234.732,215.04C256.016,396.209,253.653,396.997,252.077,396.997z M37.037,181.169
	l215.04,197.711l215.04-197.711L37.037,181.169L37.037,181.169z"/>
<polygon style="fill:#4FBF9F;" points="95.327,204.012 408.828,204.012 252.077,348.16 "/>
<circle style="fill:#E0E4E8;" cx="254.441" cy="136.271" r="107.914"/>
<path style="fill:#183651;" d="M254.441,251.274c-63.803,0-115.003-51.988-115.003-115.003S191.425,21.268,254.441,21.268
	s115.003,51.988,115.003,115.003S318.244,251.274,254.441,251.274z M254.441,36.234c-55.138,0-100.037,44.898-100.037,100.037
	s44.898,100.037,100.037,100.037s100.037-44.898,100.037-100.037C355.265,81.132,310.367,36.234,254.441,36.234z"/>
<g>
	<path style="fill:#FFFFFF;" d="M254.441,210.314c-40.96,0-74.831-33.083-74.831-74.831s33.083-74.831,74.831-74.831
		s74.831,33.083,74.831,74.831S296.188,210.314,254.441,210.314z"/>
	<polygon style="fill:#FFFFFF;" points="239.474,106.338 239.474,166.203 291.462,136.271 	"/>
</g>
<g>
	<path style="fill:#183651;" d="M235.536,172.505c-2.363-1.575-3.938-3.938-3.938-6.302v-59.865c0-2.363,1.575-5.514,3.938-6.302
		c2.363-1.575,5.514-1.575,7.877,0l51.988,29.932c2.363,1.575,3.938,3.938,3.938,6.302s-1.575,5.514-3.938,6.302l-51.988,29.932
		C241.05,174.08,237.899,174.08,235.536,172.505z M247.351,118.942V153.6l29.932-17.329L247.351,118.942z"/>
	<rect x="383.622" y="54.351" style="fill:#183651;" width="14.966" height="14.966"/>
	<rect x="430.884" y="54.351" style="fill:#183651;" width="14.966" height="14.966"/>
	<rect x="478.933" y="54.351" style="fill:#183651;" width="14.966" height="14.966"/>
	<rect x="10.256" y="54.351" style="fill:#183651;" width="14.966" height="14.966"/>
	<rect x="58.305" y="54.351" style="fill:#183651;" width="14.966" height="14.966"/>
	<rect x="105.567" y="54.351" style="fill:#183651;" width="14.966" height="14.966"/>
</g>
<g>
</g>
<g>
</g>
<g>
</g>
<g>
</g>
<g>
</g>
<g>
</g>
<g>
</g>
<g>
</g>
<g>
</g>
<g>
</g>
<g>
</g>
<g>
</g>
<g>
</g>
<g>
</g>
<g>
</g>
</svg>
