<?xml version="1.0" encoding="iso-8859-1"?>
<!-- Generator: Adobe Illustrator 19.0.0, SVG Export Plug-In . SVG Version: 6.00 Build 0)  -->
<svg version="1.1" id="Capa_1" xmlns="http://www.w3.org/2000/svg" xmlns:xlink="http://www.w3.org/1999/xlink" x="0px" y="0px"
	 viewBox="0 0 504.123 504.123" style="enable-background:new 0 0 504.123 504.123;" xml:space="preserve">
<circle style="fill:#E0E4E8;" cx="318.228" cy="241.034" r="185.895"/>
<rect x="7.877" y="68.529" style="fill:#FFFFFF;" width="358.4" height="344.222"/>
<path style="fill:#183651;" d="M366.277,420.628H7.877c-4.726,0-7.877-3.151-7.877-7.877V68.529c0-4.726,3.151-7.877,7.877-7.877
	h358.4c4.726,0,7.877,3.151,7.877,7.877v344.222C374.154,416.689,371.003,420.628,366.277,420.628z M15.754,404.874H358.4V76.406
	H15.754V404.874z"/>
<rect x="39.385" y="100.037" style="fill:#2EA0DA;" width="295.385" height="281.206"/>
<rect x="181.169" y="141.785" style="fill:#FBBD5E;" width="274.905" height="197.711"/>
<path style="fill:#183651;" d="M455.286,347.372H181.169c-4.726,0-7.877-3.151-7.877-7.877V141.785c0-4.726,3.151-7.877,7.877-7.877
	h274.905c4.726,0,7.877,3.151,7.877,7.877v197.711C463.163,343.434,460.012,347.372,455.286,347.372z M189.046,331.618h259.151
	V149.662H189.046V331.618z"/>
<g>
	<rect x="208.738" y="170.142" style="fill:#FFFFFF;" width="218.978" height="141.785"/>
	<path style="fill:#FFFFFF;" d="M366.277,68.529V39.385c0-17.329-14.178-31.508-31.508-31.508H39.385
		c-17.329,0-31.508,14.178-31.508,31.508v29.145H366.277z"/>
</g>
<path style="fill:#183651;" d="M366.277,76.406H7.877C3.151,76.406,0,73.255,0,68.529V39.385C0,17.329,17.329,0,39.385,0h295.385
	c22.055,0,39.385,17.329,39.385,39.385v29.145C374.154,73.255,371.003,76.406,366.277,76.406z M15.754,60.652H358.4V39.385
	c0-13.391-10.24-23.631-23.631-23.631H39.385c-13.391,0-23.631,10.24-23.631,23.631V60.652z"/>
<path style="fill:#FFFFFF;" d="M7.877,412.751v51.988c0,17.329,14.178,31.508,31.508,31.508h295.385
	c17.329,0,31.508-14.178,31.508-31.508v-51.988H7.877z"/>
<g>
	<path style="fill:#183651;" d="M334.769,504.123H39.385C17.329,504.123,0,486.794,0,464.738v-51.988
		c0-4.726,3.151-7.877,7.877-7.877h358.4c4.726,0,7.877,3.151,7.877,7.877v51.988C374.154,486.794,356.825,504.123,334.769,504.123z
		 M15.754,420.628v44.111c0,13.391,10.24,23.631,23.631,23.631h295.385c13.391,0,23.631-10.24,23.631-23.631v-44.111H15.754z"/>
	<path style="fill:#183651;" d="M218.978,46.474h-48.049c-4.726,0-7.877-3.151-7.877-7.877s3.151-7.877,7.877-7.877h48.049
		c4.726,0,7.877,3.151,7.877,7.877S223.705,46.474,218.978,46.474z"/>
	<path style="fill:#183651;" d="M137.058,46.474h-10.24c-4.726,0-7.877-3.151-7.877-7.877s3.151-7.877,7.877-7.877h10.24
		c4.726,0,7.877,3.151,7.877,7.877S140.997,46.474,137.058,46.474z"/>
</g>
<circle style="fill:#F06151;" cx="318.228" cy="241.034" r="45.686"/>
<circle style="fill:#183651;" cx="187.471" cy="454.498" r="19.692"/>
<polygon style="fill:#FFFFFF;" points="304.837,217.403 304.837,263.877 341.071,241.034 "/>
<g>
	<rect x="233.157" y="191.409" style="fill:#183651;" width="14.178" height="15.754"/>
	<rect x="233.157" y="233.157" style="fill:#183651;" width="14.178" height="15.754"/>
	<rect x="233.157" y="274.905" style="fill:#183651;" width="14.178" height="15.754"/>
	<rect x="389.908" y="191.409" style="fill:#183651;" width="14.178" height="15.754"/>
	<rect x="389.908" y="233.157" style="fill:#183651;" width="14.178" height="15.754"/>
	<rect x="389.908" y="274.905" style="fill:#183651;" width="14.178" height="15.754"/>
</g>
<g>
</g>
<g>
</g>
<g>
</g>
<g>
</g>
<g>
</g>
<g>
</g>
<g>
</g>
<g>
</g>
<g>
</g>
<g>
</g>
<g>
</g>
<g>
</g>
<g>
</g>
<g>
</g>
<g>
</g>
</svg>
