<?xml version="1.0" encoding="iso-8859-1"?>
<!-- Generator: Adobe Illustrator 19.0.0, SVG Export Plug-In . SVG Version: 6.00 Build 0)  -->
<svg version="1.1" id="Capa_1" xmlns="http://www.w3.org/2000/svg" xmlns:xlink="http://www.w3.org/1999/xlink" x="0px" y="0px"
	 viewBox="0 0 504.549 504.549" style="enable-background:new 0 0 504.549 504.549;" xml:space="preserve">
<path style="fill:#F06151;" d="M393.09,8.893H130.001L7.909,131.773v324.529c0,21.268,17.329,39.385,39.385,39.385H393.09
	c21.268,0,39.385-17.329,39.385-39.385V48.278C431.687,27.01,414.358,8.893,393.09,8.893z"/>
<path style="fill:#183651;" d="M393.09,503.564H47.293c-25.994,0-47.262-21.268-47.262-47.262V131.773
	c0-2.363,0.788-3.938,2.363-5.514L124.487,3.38c1.575-1.575,3.151-2.363,5.514-2.363h262.302c25.994,0,47.262,21.268,47.262,47.262
	v408.025C439.564,482.297,418.297,503.564,393.09,503.564z M15.786,134.924v321.378c0,17.329,14.178,31.508,31.508,31.508H393.09
	c17.329,0,31.508-14.178,31.508-31.508V48.278c0-17.329-14.178-31.508-31.508-31.508H133.152L15.786,134.924z"/>
<g>
	<path style="fill:#FFFFFF;" d="M47.293,464.18c-3.938,0-7.877-3.151-7.877-7.877V144.377L143.392,40.401H393.09
		c3.938,0,7.877,3.151,7.877,7.877v408.025c0,3.938-3.151,7.877-7.877,7.877L47.293,464.18L47.293,464.18z"/>
	<path style="fill:#FFFFFF;" d="M7.909,131.773h82.708c21.268,0,39.385-17.329,39.385-39.385V8.893L7.909,131.773z"/>
</g>
<path style="fill:#183651;" d="M90.617,139.65H7.909c-3.151,0-6.302-1.575-7.089-4.726c-1.575-3.151-0.788-6.302,1.575-8.665
	L124.487,3.38c2.363-2.363,5.514-3.151,8.665-1.575c3.151,1.575,4.726,3.938,4.726,7.089v82.708
	C137.878,118.383,116.61,139.65,90.617,139.65z M26.813,123.897h63.803c17.329,0,31.508-14.178,31.508-31.508V27.798L26.813,123.897
	z"/>
<path style="fill:#FFFFFF;" d="M294.629,284.586l140.209,140.209c14.178,14.178,37.022,14.178,51.2,0
	c14.178-14.178,14.178-37.022,0-51.2L345.829,233.386L294.629,284.586z"/>
<path style="fill:#183651;" d="M429.324,430.309L289.115,290.1c-3.151-3.151-3.151-7.877,0-11.028l51.2-51.2
	c3.151-3.151,7.877-3.151,11.028,0l140.209,140.209c17.329,17.329,17.329,44.898,0,62.228
	C474.223,447.638,446.653,447.638,429.324,430.309z M305.657,284.586l134.695,134.695c11.028,11.028,29.145,11.028,40.172,0
	c11.028-11.028,11.028-29.145,0-40.172L345.829,244.413L305.657,284.586z"/>
<circle style="fill:#2CA0DA;" cx="256.82" cy="195.577" r="128.394"/>
<path style="fill:#183651;" d="M256.82,331.847c-75.618,0-136.271-61.44-136.271-136.271c0-74.831,61.44-136.271,136.271-136.271
	c75.618,0,136.271,61.44,136.271,136.271C393.09,271.195,332.438,331.847,256.82,331.847z M256.82,75.06
	c-66.954,0-120.517,54.351-120.517,120.517s54.351,120.517,120.517,120.517s120.517-54.351,120.517-120.517
	S323.773,75.06,256.82,75.06z"/>
<circle style="fill:#FFFFFF;" cx="256.82" cy="195.577" r="96.886"/>
<g>
	<rect x="61.472" y="421.644" style="fill:#183651;" width="143.36" height="15.754"/>
	<rect x="61.472" y="390.137" style="fill:#183651;" width="143.36" height="15.754"/>
	<rect x="61.472" y="358.629" style="fill:#183651;" width="143.36" height="15.754"/>
	
		<rect x="377.3" y="316.173" transform="matrix(-0.7071 -0.7071 0.7071 -0.7071 428.4005 825.5491)" style="fill:#183651;" width="15.754" height="15.754"/>
	
		<rect x="411.644" y="350.953" transform="matrix(-0.7071 -0.7071 0.7071 -0.7071 462.4349 909.2074)" style="fill:#183651;" width="15.754" height="15.754"/>
	
		<rect x="446.034" y="384.62" transform="matrix(-0.7071 -0.7071 0.7071 -0.7071 497.3376 990.9974)" style="fill:#183651;" width="15.754" height="15.754"/>
</g>
<path style="fill:#E1E6E7;" d="M256.82,293.25c32.295,0,61.44-15.754,78.769-40.96c-5.514-13.391-18.117-23.631-33.871-24.418
	c-10.24,16.542-26.782,26.782-45.686,26.782s-34.658-10.24-45.686-26.782c-14.966,0.788-28.357,10.24-33.871,24.418
	C195.38,276.709,224.524,293.25,256.82,293.25z"/>
<ellipse style="fill:#FBBD5E;" cx="256.82" cy="181.398" rx="39.385" ry="53.563"/>
<path style="fill:#173651;" d="M299.355,143.589c-0.788-10.24-8.665-16.542-17.329-21.268c-15.754-7.877-35.446-7.877-51.2,0
	c-8.665,4.726-15.754,11.028-17.329,21.268c0,0-11.815,8.665,3.938,45.686c0,0-3.938-15.754,7.877-24.418
	c0,0-5.514-17.329,9.452-17.329c0,0,12.603,7.089,20.48,5.514c7.877,1.575,20.48-5.514,20.48-5.514
	c15.754,0,9.452,17.329,9.452,17.329c11.815,9.452,7.877,24.418,7.877,24.418C311.958,152.253,299.355,143.589,299.355,143.589z"/>
<g>
</g>
<g>
</g>
<g>
</g>
<g>
</g>
<g>
</g>
<g>
</g>
<g>
</g>
<g>
</g>
<g>
</g>
<g>
</g>
<g>
</g>
<g>
</g>
<g>
</g>
<g>
</g>
<g>
</g>
</svg>
