<?xml version="1.0" encoding="iso-8859-1"?>
<!-- Generator: Adobe Illustrator 19.0.0, SVG Export Plug-In . SVG Version: 6.00 Build 0)  -->
<svg version="1.1" id="Capa_1" xmlns="http://www.w3.org/2000/svg" xmlns:xlink="http://www.w3.org/1999/xlink" x="0px" y="0px"
	 viewBox="0 0 504.123 504.123" style="enable-background:new 0 0 504.123 504.123;" xml:space="preserve">
<circle style="fill:#F06151;" cx="324.135" cy="178.806" r="178.806"/>
<rect x="30.326" y="134.695" style="fill:#FFFFFF;" width="444.258" height="322.954"/>
<path style="fill:#183651;" d="M474.585,465.526H30.326c-4.726,0-7.877-3.151-7.877-7.877V134.695c0-4.726,3.151-7.877,7.877-7.877
	h444.258c4.726,0,7.877,3.151,7.877,7.877v322.954C482.462,462.375,479.311,465.526,474.585,465.526z M38.203,449.772h428.505
	v-307.2H38.203V449.772z"/>
<rect x="61.834" y="234.732" style="fill:#FBBD5E;" width="381.243" height="222.917"/>
<rect x="61.834" y="166.203" style="fill:#2EA0DA;" width="381.243" height="68.529"/>
<rect x="120.911" y="296.172" style="fill:#FFFFFF;" width="50.412" height="50.412"/>
<path style="fill:#183651;" d="M171.323,354.462h-50.412c-4.726,0-7.877-3.151-7.877-7.877v-50.412c0-4.726,3.151-7.877,7.877-7.877
	h50.412c4.726,0,7.877,3.151,7.877,7.877v50.412C179.2,351.311,176.049,354.462,171.323,354.462z M128.788,338.708h34.658v-34.658
	h-34.658V338.708z"/>
<rect x="227.249" y="296.172" style="fill:#FFFFFF;" width="50.412" height="50.412"/>
<path style="fill:#183651;" d="M277.662,354.462h-50.412c-4.726,0-7.877-3.151-7.877-7.877v-50.412c0-4.726,3.151-7.877,7.877-7.877
	h50.412c4.726,0,7.877,3.151,7.877,7.877v50.412C285.538,351.311,281.6,354.462,277.662,354.462z M235.126,338.708h34.658v-34.658
	h-34.658L235.126,338.708L235.126,338.708z"/>
<rect x="332.8" y="296.172" style="fill:#FFFFFF;" width="50.412" height="50.412"/>
<path style="fill:#183651;" d="M384,354.462h-50.412c-4.726,0-7.877-3.151-7.877-7.877v-50.412c0-4.726,3.151-7.877,7.877-7.877H384
	c4.726,0,7.877,3.151,7.877,7.877v50.412C391.877,351.311,387.938,354.462,384,354.462z M340.677,338.708h34.658v-34.658h-34.658
	V338.708z"/>
<path style="fill:#183651;" d="M171.323,385.969h-50.412c-4.726,0-7.877-3.151-7.877-7.877s3.151-7.877,7.877-7.877h50.412
	c4.726,0,7.877,3.151,7.877,7.877S176.049,385.969,171.323,385.969z"/>
<path style="fill:#183651;" d="M277.662,385.969h-50.412c-4.726,0-7.877-3.151-7.877-7.877s3.151-7.877,7.877-7.877h50.412
	c4.726,0,7.877,3.151,7.877,7.877S281.6,385.969,277.662,385.969z"/>
<g>
	<path style="fill:#183651;" d="M384,385.969h-50.412c-4.726,0-7.877-3.151-7.877-7.877s3.151-7.877,7.877-7.877H384
		c4.726,0,7.877,3.151,7.877,7.877S387.938,385.969,384,385.969z"/>
	<rect x="91.766" y="192.985" style="fill:#183651;" width="15.754" height="15.754"/>
	<rect x="133.514" y="192.985" style="fill:#183651;" width="15.754" height="15.754"/>
	<rect x="174.474" y="192.985" style="fill:#183651;" width="15.754" height="15.754"/>
</g>
<path style="fill:#FFFFFF;" d="M306.018,419.84v30.72H198.105v-30.72H8.271v21.268c0,30.72,24.418,55.138,55.138,55.138h377.305
	c30.72,0,55.138-24.418,55.138-55.138V419.84H306.018z"/>
<path style="fill:#183651;" d="M440.714,504.123H63.409c-34.658,0-63.015-28.357-63.015-63.015V419.84
	c0-4.726,3.151-7.877,7.877-7.877h189.834c4.726,0,7.877,3.151,7.877,7.877v22.843h92.16V419.84c0-4.726,3.151-7.877,7.877-7.877
	h189.834c4.726,0,7.877,3.151,7.877,7.877v21.268C503.729,475.766,475.372,504.123,440.714,504.123z M16.148,427.717v13.391
	c0,25.994,21.268,47.262,47.262,47.262h377.305c25.994,0,47.262-21.268,47.262-47.262v-13.391h-174.08v22.843
	c0,4.726-3.151,7.877-7.877,7.877H198.105c-4.726,0-7.877-3.151-7.877-7.877v-22.843H16.148z"/>
<path style="fill:#FFFFFF;" d="M346.191,137.846l20.48,20.48L486.4,58.289c12.603-11.028,13.391-29.932,1.575-41.748
	c-11.815-11.815-30.72-11.028-41.748,1.575L346.191,137.846z"/>
<path style="fill:#183651;" d="M366.671,166.203c-2.363,0-3.938-0.788-5.514-2.363l-20.48-20.48
	c-3.151-3.151-3.151-7.877-0.788-10.24L439.926,13.391c7.089-7.877,17.329-12.603,27.569-12.603c9.452,0,18.905,3.938,25.206,10.24
	c7.089,7.089,11.028,17.329,10.24,27.569s-5.514,19.692-12.603,25.994L371.397,164.628
	C370.609,165.415,368.246,166.203,366.671,166.203z M357.218,137.846l10.24,10.24l113.428-96.098
	c4.726-3.938,7.089-8.665,7.089-14.966c0-5.514-1.575-11.028-6.302-15.754c-7.877-7.877-22.843-7.877-29.932,1.575L357.218,137.846z
	"/>
<circle style="fill:#E0E4E8;" cx="325.711" cy="178.806" r="85.071"/>
<path style="fill:#183651;" d="M325.711,272.542c-25.206,0-48.049-9.452-66.166-27.569s-26.782-40.96-26.782-66.166
	c0-25.206,9.452-48.049,27.569-66.166s40.96-27.569,66.166-27.569c25.206,0,48.049,9.452,66.166,27.569
	c36.234,36.234,36.234,95.311,0,131.545C373.76,262.302,350.129,272.542,325.711,272.542z M325.711,101.612
	c-20.48,0-40.172,7.877-54.351,22.843c-29.932,29.932-29.932,79.557,0,109.489c14.966,14.966,33.871,22.843,54.351,22.843
	c20.48,0,40.172-7.877,54.351-22.843c29.932-29.932,29.932-79.557,0-109.489C365.883,109.489,346.191,101.612,325.711,101.612z"/>
<circle style="fill:#FFFFFF;" cx="325.711" cy="178.806" r="58.289"/>
<g>
	<polygon style="fill:#183651;" points="317.046,204.8 291.84,179.594 301.292,169.354 317.046,185.895 350.129,152.812 
		359.582,163.052 	"/>
	<rect x="346.978" y="449.772" style="fill:#183651;" width="15.754" height="15.754"/>
	<rect x="386.363" y="449.772" style="fill:#183651;" width="15.754" height="15.754"/>
	<rect x="424.96" y="449.772" style="fill:#183651;" width="15.754" height="15.754"/>
	<rect x="63.409" y="449.772" style="fill:#183651;" width="15.754" height="15.754"/>
	<rect x="102.794" y="449.772" style="fill:#183651;" width="15.754" height="15.754"/>
	<rect x="141.391" y="449.772" style="fill:#183651;" width="15.754" height="15.754"/>
</g>
<g>
</g>
<g>
</g>
<g>
</g>
<g>
</g>
<g>
</g>
<g>
</g>
<g>
</g>
<g>
</g>
<g>
</g>
<g>
</g>
<g>
</g>
<g>
</g>
<g>
</g>
<g>
</g>
<g>
</g>
</svg>
