<?xml version="1.0" encoding="iso-8859-1"?>
<!-- Generator: Adobe Illustrator 19.0.0, SVG Export Plug-In . SVG Version: 6.00 Build 0)  -->
<svg version="1.1" id="Capa_1" xmlns="http://www.w3.org/2000/svg" xmlns:xlink="http://www.w3.org/1999/xlink" x="0px" y="0px"
	 viewBox="0 0 504.123 504.123" style="enable-background:new 0 0 504.123 504.123;" xml:space="preserve">
<circle style="fill:#FBBD5E;" cx="252.849" cy="251.274" r="251.274"/>
<rect x="294.597" y="66.954" style="fill:#FFFFFF;" width="32.295" height="32.295"/>
<path style="fill:#183651;" d="M326.892,107.126h-32.295c-4.726,0-7.877-3.151-7.877-7.877V66.954c0-4.726,3.151-7.877,7.877-7.877
	h32.295c4.726,0,7.877,3.151,7.877,7.877v32.295C334.769,103.975,331.618,107.126,326.892,107.126z M302.474,91.372h16.542V74.831
	h-16.542V91.372z"/>
<circle style="fill:#F06151;" cx="311.138" cy="225.28" r="132.332"/>
<path style="fill:#183651;" d="M311.138,365.489c-77.194,0-140.209-63.015-140.209-140.209S233.945,85.071,311.138,85.071
	s140.209,63.015,140.209,140.209S388.332,365.489,311.138,365.489z M311.138,100.825c-68.529,0-124.455,55.926-124.455,124.455
	s55.138,124.455,124.455,124.455s124.455-55.926,124.455-124.455S379.668,100.825,311.138,100.825z"/>
<g>
	<path style="fill:#FFFFFF;" d="M311.138,333.194c-59.865,0-107.914-48.049-107.914-107.914s48.049-107.914,107.914-107.914
		s107.914,48.049,107.914,107.914S370.215,333.194,311.138,333.194z"/>
</g>
<path style="fill:#183651;" d="M396.209,134.695c-3.151-3.151-3.151-7.877,0-11.028l16.542-16.542c3.151-3.151,7.877-3.151,11.028,0
	c3.151,3.151,3.151,7.877,0,11.028l-16.542,16.542C404.086,137.846,399.36,137.846,396.209,134.695z"/>
<rect x="271.754" y="29.932" style="fill:#FFFFFF;" width="77.982" height="37.022"/>
<path style="fill:#183651;" d="M349.735,74.831h-77.982c-4.726,0-7.877-3.151-7.877-7.877V29.932c0-4.726,3.151-7.877,7.877-7.877
	h77.982c4.726,0,7.877,3.151,7.877,7.877v37.022C357.612,70.892,354.462,74.831,349.735,74.831z M279.631,59.077h62.228V37.809
	h-62.228V59.077z"/>
<rect x="221.342" y="217.403" style="fill:#183651;" width="13.391" height="15.754"/>
<rect x="386.757" y="217.403" style="fill:#183651;" width="13.391" height="15.754"/>
<rect x="244.959" y="158.684" transform="matrix(-0.7071 -0.7071 0.7071 -0.7071 311.8246 462.2843)" style="fill:#183651;" width="13.391" height="15.754"/>
<rect x="362.196" y="276.119" transform="matrix(-0.707 -0.7072 0.7072 -0.707 428.8568 745.6649)" style="fill:#183651;" width="13.391" height="15.754"/>
<rect x="303.262" y="135.483" style="fill:#183651;" width="15.754" height="13.391"/>
<rect x="303.262" y="301.686" style="fill:#183651;" width="15.754" height="13.391"/>
<rect x="361.691" y="160.022" transform="matrix(-0.7071 -0.7071 0.7071 -0.7071 513.0054 545.928)" style="fill:#183651;" width="15.754" height="13.391"/>
<polyline style="fill:#FFFFFF;" points="311.138,174.08 311.138,225.28 342.646,225.28 "/>
<polygon style="fill:#183651;" points="342.646,233.157 303.262,233.157 303.262,174.08 319.015,174.08 319.015,217.403 
	342.646,217.403 "/>
<path style="fill:#FFFFFF;" d="M218.191,204.012c0,42.535-33.871,84.283-76.406,84.283s-76.406-41.748-76.406-84.283
	s33.871-76.406,76.406-76.406S218.191,162.265,218.191,204.012z"/>
<path style="fill:#183651;" d="M141.785,296.172c-44.898,0-84.283-43.323-84.283-92.16c0-46.474,37.809-84.283,84.283-84.283
	s84.283,37.809,84.283,84.283C226.068,253.637,186.683,296.172,141.785,296.172z M141.785,135.483
	c-37.809,0-68.529,30.72-68.529,68.529c0,36.234,29.145,76.406,68.529,76.406s68.529-40.172,68.529-76.406
	C210.314,166.203,179.594,135.483,141.785,135.483z"/>
<path style="fill:#FFFFFF;" d="M228.431,281.206c-18.117,28.357-49.625,47.262-85.858,47.262s-67.742-18.905-85.858-47.262
	c-27.569,7.877-48.049,33.083-48.049,63.803v151.237H276.48V345.009C275.692,314.289,256,289.083,228.431,281.206z"/>
<path style="fill:#183651;" d="M275.692,504.123H7.877c-4.726,0-7.877-3.151-7.877-7.877V345.009
	c0-33.083,22.055-62.228,53.563-70.892c3.151-0.788,7.089,0.788,8.665,3.151c17.329,27.569,47.262,44.111,79.557,44.111
	s62.228-16.542,79.557-44.111c1.575-3.151,5.514-3.938,8.665-3.151c31.508,9.452,53.563,38.597,53.563,70.892v151.237
	C283.569,500.972,280.418,504.123,275.692,504.123z M15.754,488.369h252.062v-143.36c0-23.631-14.966-45.686-37.022-54.351
	c-20.48,29.145-53.563,46.474-89.009,46.474s-68.529-17.329-89.009-46.474c-22.055,8.665-37.022,29.932-37.022,54.351V488.369z"/>
<path style="fill:#4FBF9F;" d="M40.96,463.163V345.009c0-7.877,3.151-14.966,7.877-21.268
	c25.206,24.418,58.289,37.809,93.735,37.809s68.529-14.178,93.735-37.809c4.726,5.514,7.877,13.391,7.877,21.268v118.942H40.96
	V463.163z"/>
<path style="fill:#183651;" d="M226.068,504.123c-4.726,0-7.877-3.151-7.877-7.877v-89.009c0-4.726,3.151-7.877,7.877-7.877
	c4.726,0,7.877,3.151,7.877,7.877v89.009C233.945,500.972,230.006,504.123,226.068,504.123z"/>
<g>
	<path style="fill:#183651;" d="M57.502,504.123c-4.726,0-7.877-3.151-7.877-7.877v-89.009c0-4.726,3.151-7.877,7.877-7.877
		c4.726,0,7.877,3.151,7.877,7.877v89.009C65.378,500.972,62.228,504.123,57.502,504.123z"/>
	<rect x="168.566" y="407.237" style="fill:#183651;" width="15.754" height="16.542"/>
	<rect x="133.908" y="407.237" style="fill:#183651;" width="15.754" height="16.542"/>
	<rect x="100.037" y="407.237" style="fill:#183651;" width="15.754" height="16.542"/>
</g>
<g>
</g>
<g>
</g>
<g>
</g>
<g>
</g>
<g>
</g>
<g>
</g>
<g>
</g>
<g>
</g>
<g>
</g>
<g>
</g>
<g>
</g>
<g>
</g>
<g>
</g>
<g>
</g>
<g>
</g>
</svg>
