<?xml version="1.0" encoding="iso-8859-1"?>
<!-- Generator: Adobe Illustrator 19.0.0, SVG Export Plug-In . SVG Version: 6.00 Build 0)  -->
<svg version="1.1" id="Capa_1" xmlns="http://www.w3.org/2000/svg" xmlns:xlink="http://www.w3.org/1999/xlink" x="0px" y="0px"
	 viewBox="0 0 504.123 504.123" style="enable-background:new 0 0 504.123 504.123;" xml:space="preserve">
<rect x="129.182" y="7.877" style="fill:#4FBF9F;" width="367.065" height="367.065"/>
<path style="fill:#183651;" d="M496.246,382.818H129.182c-4.726,0-7.877-3.151-7.877-7.877V7.877c0-4.726,3.151-7.877,7.877-7.877
	h367.065c4.726,0,7.877,3.151,7.877,7.877v367.065C504.123,378.88,500.972,382.818,496.246,382.818z M137.058,367.065h351.311
	V15.754H137.058V367.065z"/>
<rect x="160.689" y="39.385" style="fill:#FFFFFF;" width="304.049" height="304.049"/>
<rect x="66.166" y="70.892" style="fill:#E0E4E8;" width="367.065" height="367.065"/>
<path style="fill:#183651;" d="M433.231,445.834H66.166c-4.726,0-7.877-3.151-7.877-7.877V70.892c0-4.726,3.151-7.877,7.877-7.877
	h367.065c4.726,0,7.877,3.151,7.877,7.877v367.065C441.108,441.895,437.957,445.834,433.231,445.834z M74.043,430.08h351.311V78.769
	H74.043V430.08z"/>
<rect x="97.674" y="102.4" style="fill:#FFFFFF;" width="304.049" height="304.049"/>
<rect x="7.877" y="129.182" style="fill:#FBBD5E;" width="367.065" height="367.065"/>
<path style="fill:#183651;" d="M374.942,504.123H7.877c-4.726,0-7.877-3.151-7.877-7.877V129.182c0-4.726,3.151-7.877,7.877-7.877
	h367.065c4.726,0,7.877,3.151,7.877,7.877v367.065C382.818,500.972,379.668,504.123,374.942,504.123z M15.754,488.369h351.311
	V137.058H15.754V488.369z"/>
<rect x="39.385" y="160.689" style="fill:#FFFFFF;" width="304.049" height="304.049"/>
<path style="fill:#F06151;" d="M83.495,267.028c11.028-8.665,20.48-22.055,20.48-22.055l6.302-1.575l32.295,20.48
	c33.871,14.178,25.206,46.474,25.206,46.474c-37.809,32.295-76.406,25.206-96.098,18.905v-39.385
	C72.468,281.206,76.406,272.542,83.495,267.028z"/>
<path style="fill:#FBBD5E;" d="M152.025,205.588l-3.151-6.302l-26.782-4.726l-14.966,8.665l-12.603,14.966l1.575,14.966
	l7.877,11.815c7.877,11.028,15.754,16.542,21.268,19.692c7.089,3.938,16.542,1.575,20.48-4.726
	C163.052,233.945,152.025,205.588,152.025,205.588z"/>
<g>
	<path style="fill:#183651;" d="M152.025,205.588c0,0,3.938-7.877,0.788-12.603c-3.151-3.938-40.172-17.329-56.714,3.151
		s7.877,48.837,7.877,48.837s-12.603-18.117-3.151-21.268c0,0,4.726-2.363,7.877,5.514c0,0-3.151-23.631,11.815-24.418
		c0,0,6.302-3.938,18.117,6.302C139.422,211.889,144.935,203.225,152.025,205.588z"/>
	<rect x="199.286" y="200.074" style="fill:#183651;" width="15.754" height="16.542"/>
	<rect x="230.794" y="200.074" style="fill:#183651;" width="15.754" height="16.542"/>
	<rect x="263.089" y="200.074" style="fill:#183651;" width="15.754" height="16.542"/>
	<rect x="294.597" y="200.074" style="fill:#183651;" width="15.754" height="16.542"/>
</g>
<g>
	<rect x="199.286" y="256" style="fill:#CECFD0;" width="111.065" height="16.542"/>
	<rect x="199.286" y="311.926" style="fill:#CECFD0;" width="111.065" height="16.542"/>
	<rect x="72.468" y="367.852" style="fill:#CECFD0;" width="237.883" height="16.542"/>
	<rect x="72.468" y="423.778" style="fill:#CECFD0;" width="237.883" height="16.542"/>
</g>
<g>
</g>
<g>
</g>
<g>
</g>
<g>
</g>
<g>
</g>
<g>
</g>
<g>
</g>
<g>
</g>
<g>
</g>
<g>
</g>
<g>
</g>
<g>
</g>
<g>
</g>
<g>
</g>
<g>
</g>
</svg>
