<?xml version="1.0" encoding="iso-8859-1"?>
<!-- Generator: Adobe Illustrator 19.0.0, SVG Export Plug-In . SVG Version: 6.00 Build 0)  -->
<svg version="1.1" id="Capa_1" xmlns="http://www.w3.org/2000/svg" xmlns:xlink="http://www.w3.org/1999/xlink" x="0px" y="0px"
	 viewBox="0 0 504.123 504.123" style="enable-background:new 0 0 504.123 504.123;" xml:space="preserve">
<circle style="fill:#FBBD5E;" cx="252.062" cy="252.062" r="252.062"/>
<path style="fill:#F06151;" d="M473.403,7.877H139.422c-12.603,0-22.843,10.24-22.843,22.843v238.671h379.668V30.72
	C496.246,18.117,486.006,7.877,473.403,7.877z"/>
<path style="fill:#183651;" d="M496.246,277.268H116.578c-4.726,0-7.877-3.151-7.877-7.877V30.72c0-16.542,13.391-30.72,30.72-30.72
	h333.982c16.542,0,30.72,13.391,30.72,30.72v238.671C504.123,273.329,500.972,277.268,496.246,277.268z M124.455,261.514h363.914
	V30.72c0-7.877-6.302-14.966-14.966-14.966H139.422c-7.877,0-14.966,6.302-14.966,14.966L124.455,261.514L124.455,261.514z"/>
<g>
	<rect x="148.086" y="39.385" style="fill:#FFFFFF;" width="316.652" height="198.498"/>
	<path style="fill:#FFFFFF;" d="M116.578,269.391v52.775c0,12.603,10.24,22.843,22.843,22.843h333.982
		c12.603,0,22.843-10.24,22.843-22.843v-52.775H116.578z"/>
</g>
<path style="fill:#183651;" d="M473.403,352.886H139.422c-16.542,0-30.72-13.391-30.72-30.72v-52.775
	c0-4.726,3.151-7.877,7.877-7.877h379.668c4.726,0,7.877,3.151,7.877,7.877v52.775C504.123,338.708,490.732,352.886,473.403,352.886
	z M124.455,277.268v44.898c0,7.877,6.302,14.966,14.966,14.966h333.982c7.877,0,14.966-6.302,14.966-14.966v-44.898H124.455z"/>
<polygon style="fill:#FFFFFF;" points="376.517,398.572 236.308,398.572 256,345.009 356.825,345.009 "/>
<path style="fill:#183651;" d="M377.305,406.449C377.305,406.449,376.517,406.449,377.305,406.449H236.308
	c-2.363,0-4.726-1.575-6.302-3.151c-1.575-2.363-1.575-4.726-0.788-7.089l20.48-53.563c0.788-3.151,3.938-4.726,7.089-4.726h100.037
	c3.151,0,6.302,2.363,7.089,4.726l19.692,52.775c0.788,1.575,1.575,2.363,1.575,3.938
	C385.182,402.511,381.243,406.449,377.305,406.449z M247.335,390.695h118.154l-14.178-37.809h-89.797L247.335,390.695z"/>
<g>
	<path style="fill:#183651;" d="M392.271,406.449H220.554c-4.726,0-7.877-3.151-7.877-7.877s3.151-7.877,7.877-7.877h171.717
		c4.726,0,7.877,3.151,7.877,7.877S396.997,406.449,392.271,406.449z"/>
	<circle style="fill:#183651;" cx="306.412" cy="305.625" r="14.966"/>
</g>
<path style="fill:#FFFFFF;" d="M230.006,307.2c-18.905,14.966-42.535,23.631-67.742,23.631c-25.994,0-48.837-8.665-67.742-23.631
	c-51.2,25.206-86.646,77.982-86.646,138.634v50.412h308.775v-50.412C316.652,385.182,281.206,332.406,230.006,307.2z"/>
<path style="fill:#183651;" d="M316.652,504.123H7.877c-4.726,0-7.877-3.151-7.877-7.877v-50.412
	c0-62.228,34.658-118.154,90.585-144.935c2.363-1.575,6.302-0.788,8.665,0.788c18.117,14.178,40.172,22.055,63.015,22.055
	s44.898-7.877,63.015-22.055c2.363-1.575,5.514-2.363,8.665-0.788c55.926,27.569,90.585,83.495,90.585,144.935v50.412
	C324.529,500.185,320.591,504.123,316.652,504.123z M15.754,488.369h293.022v-42.535c0-54.351-29.932-103.188-77.194-129.182
	c-20.48,14.178-44.111,22.055-68.529,22.055c-25.206,0-48.837-7.877-68.529-22.055c-48.049,25.206-77.194,74.831-77.194,129.182
	v42.535H15.754z"/>
<path style="fill:#4FBF9F;" d="M43.323,460.8v-14.966c0-39.385,18.905-74.831,49.625-96.886
	c21.268,11.028,44.898,17.329,69.317,17.329s48.049-6.302,68.529-17.329c31.508,22.055,49.625,57.502,49.625,96.886V460.8H43.323z"
	/>
<g>
	<rect x="102.4" y="404.874" style="fill:#183651;" width="15.754" height="15.754"/>
	<rect x="154.388" y="404.874" style="fill:#183651;" width="15.754" height="15.754"/>
	<rect x="206.375" y="404.874" style="fill:#183651;" width="15.754" height="15.754"/>
</g>
<rect x="173.292" y="60.652" style="fill:#E0E4E8;" width="266.24" height="31.508"/>
<g>
	<rect x="419.052" y="194.56" style="fill:#183651;" width="21.268" height="18.905"/>
	<rect x="381.243" y="194.56" style="fill:#183651;" width="21.268" height="18.905"/>
	<rect x="343.434" y="194.56" style="fill:#183651;" width="21.268" height="18.905"/>
	<rect x="306.412" y="194.56" style="fill:#183651;" width="21.268" height="18.905"/>
	<rect x="268.603" y="194.56" style="fill:#183651;" width="21.268" height="18.905"/>
</g>
<g>
	<rect x="263.877" y="111.065" style="fill:#2EA0DA;" width="175.655" height="53.563"/>
	<rect x="173.292" y="111.065" style="fill:#2EA0DA;" width="67.742" height="53.563"/>
</g>
<circle style="fill:#FFFFFF;" cx="162.265" cy="219.766" r="70.892"/>
<path style="fill:#183651;" d="M162.265,299.323c-43.323,0-78.769-35.446-78.769-78.769s35.446-78.769,78.769-78.769
	s78.769,35.446,78.769,78.769S205.588,299.323,162.265,299.323z M162.265,156.751c-34.658,0-63.015,28.357-63.015,63.015
	s28.357,63.015,63.015,63.015s63.015-28.357,63.015-63.015S196.923,156.751,162.265,156.751z"/>
<g>
</g>
<g>
</g>
<g>
</g>
<g>
</g>
<g>
</g>
<g>
</g>
<g>
</g>
<g>
</g>
<g>
</g>
<g>
</g>
<g>
</g>
<g>
</g>
<g>
</g>
<g>
</g>
<g>
</g>
</svg>
