<?xml version="1.0" encoding="iso-8859-1"?>
<!-- Generator: Adobe Illustrator 19.0.0, SVG Export Plug-In . SVG Version: 6.00 Build 0)  -->
<svg version="1.1" id="Capa_1" xmlns="http://www.w3.org/2000/svg" xmlns:xlink="http://www.w3.org/1999/xlink" x="0px" y="0px"
	 viewBox="0 0 504.911 504.911" style="enable-background:new 0 0 504.911 504.911;" xml:space="preserve">
<circle style="fill:#FFFFFF;" cx="252.849" cy="252.455" r="152.812"/>
<path id="SVGCleanerId_0" style="fill:#183651;" d="M252.849,413.145c-89.009,0-160.689-72.468-160.689-160.689
	S164.628,91.766,252.849,91.766s160.689,72.468,160.689,160.689S341.858,413.145,252.849,413.145z M252.849,107.52
	c-79.557,0-144.935,65.378-144.935,144.935s65.378,144.935,144.935,144.935s144.935-65.378,144.935-144.935
	S332.406,107.52,252.849,107.52z"/>
<g>
	
		<rect x="15.065" y="78.331" transform="matrix(-0.7071 -0.7071 0.7071 -0.7071 -21.7947 163.3882)" style="fill:#183651;" width="15.754" height="15.754"/>
	
		<rect x="31.185" y="31.245" transform="matrix(-0.7072 -0.707 0.707 -0.7072 39.0278 94.4069)" style="fill:#183651;" width="15.754" height="15.754"/>
	
		<rect x="78.84" y="14.537" transform="matrix(-0.7072 -0.707 0.707 -0.7072 132.1966 99.5751)" style="fill:#183651;" width="15.754" height="15.754"/>
	
		<rect x="411.904" y="475.388" transform="matrix(-0.7071 -0.7071 0.7071 -0.7071 374.8905 1121.8154)" style="fill:#183651;" width="15.754" height="15.754"/>
	
		<rect x="459.563" y="458.679" transform="matrix(-0.7071 -0.7071 0.7071 -0.7071 468.0656 1126.991)" style="fill:#183651;" width="15.754" height="15.754"/>
	
		<rect x="475.68" y="411.587" transform="matrix(-0.7072 -0.707 0.707 -0.7072 528.9678 1057.9894)" style="fill:#183651;" width="15.754" height="15.754"/>
	
		<rect x="412.078" y="14.595" transform="matrix(-0.7074 -0.7069 0.7069 -0.7074 701.1284 335.2166)" style="fill:#183651;" width="15.755" height="15.755"/>
	
		<rect x="459.683" y="31.279" transform="matrix(-0.7071 -0.7071 0.7071 -0.7071 770.4882 397.4577)" style="fill:#183651;" width="15.754" height="15.754"/>
	
		<rect x="475.834" y="78.381" transform="matrix(-0.7074 -0.7069 0.7069 -0.7074 764.8954 489.1885)" style="fill:#183651;" width="15.755" height="15.755"/>
	
		<rect x="15.046" y="411.472" transform="matrix(-0.7071 -0.7071 0.7071 -0.7071 -257.3925 732.083)" style="fill:#183651;" width="15.754" height="15.754"/>
	
		<rect x="31.191" y="459.681" transform="matrix(-0.7071 -0.7071 0.7071 -0.7071 -263.9206 825.796)" style="fill:#183651;" width="15.754" height="15.754"/>
	
		<rect x="78.865" y="475.291" transform="matrix(-0.7071 -0.7071 0.7071 -0.7071 -193.5737 886.1555)" style="fill:#183651;" width="15.754" height="15.754"/>
</g>
<path style="fill:#4FBF9F;" d="M232.369,61.834c7.089-0.788,13.391-0.788,20.48-0.788c85.071,0,156.751,55.138,181.957,132.332
	l33.083,21.268l20.48-24.418C460.8,85.465,365.489,9.058,252.062,9.058c-9.452,0-18.117,0.788-27.569,1.575l26.782,25.206
	L232.369,61.834z"/>
<path style="fill:#183651;" d="M467.889,221.735c-1.575,0-3.151-0.788-3.938-1.575l-33.083-21.268
	c-1.575-0.788-2.363-2.363-3.151-3.938c-25.206-75.618-95.311-126.031-174.868-126.031c-6.302,0-13.391,0-19.692,0.788
	c-3.151,0-6.302-0.788-7.877-3.938c-1.575-2.363-1.575-6.302,0.788-8.665l14.966-20.48L219.766,15.36
	c-2.363-2.363-3.151-5.514-1.575-7.877c1.575-2.363,3.938-4.726,6.302-5.514c9.452-0.788,18.905-1.575,28.357-1.575
	c114.215,0,214.252,77.194,243.397,187.471c0.788,2.363,0,5.514-1.575,7.089l-20.48,24.418
	C472.615,220.948,470.252,221.735,467.889,221.735z M441.895,187.865l25.206,15.754l13.391-15.754
	C451.348,86.252,358.4,16.148,252.849,16.148c-3.151,0-6.302,0-9.452,0l13.391,14.178c2.363,2.363,3.151,7.089,0.788,10.24
	l-9.452,12.603c1.575,0,3.151,0,4.726,0C338.708,53.169,413.538,106.732,441.895,187.865z"/>
<path style="fill:#FBBD5E;" d="M62.228,272.935c-0.788-6.302-0.788-13.391-0.788-20.48c0-83.495,53.563-154.388,128.394-181.169
	l22.843-35.446l-22.055-18.905C85.858,43.717,8.665,139.028,8.665,252.455c0,7.877,0.788,16.542,1.575,24.418l24.418-24.418
	L62.228,272.935z"/>
<path style="fill:#183651;" d="M7.089,283.963c-3.151-0.788-4.726-3.938-5.514-6.302C0.788,268.997,0,261.12,0,252.455
	C0.788,138.24,77.982,38.203,188.258,9.058c2.363-0.788,5.514,0,7.089,1.575l22.055,18.905c3.151,2.363,3.938,7.089,1.575,10.24
	l-22.843,36.234c-0.788,1.575-2.363,2.363-3.938,3.151c-73.255,25.994-122.88,95.311-122.88,173.292c0,6.302,0,12.603,0.788,19.692
	c0,3.151-1.575,6.302-3.938,7.877c-2.363,1.575-6.302,1.575-8.665-0.788l-22.843-16.542l-19.692,19.692
	C13.391,284.751,10.24,285.538,7.089,283.963z M188.258,24.812C86.646,53.957,16.542,146.905,16.542,252.455
	c0,2.363,0,3.938,0,6.302l11.815-11.815c2.363-2.363,7.089-3.151,10.24-0.788l14.966,10.24c0-1.575,0-3.151,0-3.938
	c0-83.495,52.775-158.326,130.757-187.471l18.117-28.357L188.258,24.812z"/>
<path style="fill:#4FBF9F;" d="M270.178,443.077c-5.514,0.788-11.028,0.788-17.329,0.788c-84.283,0-155.175-54.351-181.169-129.182
	l-37.809-23.631L15.754,312.32c26.782,105.551,122.88,184.32,237.095,184.32c7.877,0,16.542-0.788,24.418-1.575l-25.994-25.994
	L270.178,443.077z"/>
<path style="fill:#183651;" d="M252.849,504.517c-115.791,0-216.615-77.982-244.185-190.622c-0.788-2.363,0-4.726,1.575-7.089
	l18.117-21.268c2.363-3.151,7.089-3.938,10.24-1.575l37.809,23.631c1.575,0.788,2.363,2.363,3.151,3.938
	c25.206,74.043,95.311,123.668,174.08,123.668c5.514,0,10.24,0,16.542-0.788c3.151,0,6.302,1.575,7.877,3.938
	s1.575,6.302-0.788,8.665l-14.966,20.48l21.268,21.268c2.363,2.363,3.151,5.514,1.575,7.877c-0.788,3.151-3.938,4.726-6.302,5.514
	C269.391,503.729,260.726,504.517,252.849,504.517z M24.418,313.895c27.569,103.188,121.305,174.868,228.431,174.868
	c2.363,0,3.938,0,6.302,0l-13.391-13.391c-2.363-2.363-3.151-7.089-0.788-10.24l9.452-12.603h-0.788
	c-84.283,0-159.114-52.775-187.471-131.545L37.022,302.08L24.418,313.895z"/>
<path style="fill:#FBBD5E;" d="M467.889,252.455l-24.418-17.329c0.788,5.514,0.788,11.815,0.788,17.329
	c0,85.071-55.926,157.538-133.12,182.745l-21.268,33.871l22.843,19.692c105.551-25.994,184.32-122.092,184.32-236.308
	c0-9.452-0.788-18.117-1.575-27.569L467.889,252.455z"/>
<path style="fill:#183651;" d="M312.714,497.428c-1.575,0-3.938-0.788-5.514-1.575l-22.843-19.692
	c-3.151-2.363-3.938-7.089-1.575-10.24l22.055-34.658c0.788-1.575,2.363-2.363,3.938-3.151
	c76.406-24.418,127.606-94.523,127.606-174.868c0-5.514,0-11.028-0.788-16.542c0-3.151,1.575-6.302,3.938-7.877
	s6.302-1.575,8.665,0.788l18.905,13.391l22.843-22.843c2.363-2.363,5.514-3.151,7.877-1.575c3.151,0.788,4.726,3.938,5.514,6.302
	c0.788,9.452,1.575,18.905,1.575,28.357c0,115.791-77.982,215.828-190.622,244.185C314.289,496.64,313.502,497.428,312.714,497.428z
	 M300.111,467.495l14.966,12.603c103.188-27.569,174.08-121.305,174.08-228.431c0-3.151,0-6.302,0-9.452l-14.966,14.966
	c-2.363,2.363-7.089,3.151-10.24,0.788l-11.028-7.877c0,0.788,0,0.788,0,1.575c0,85.858-54.351,161.477-135.483,189.046
	L300.111,467.495z"/>
<path style="fill:#F06151;" d="M322.954,198.892c0,38.597-31.508,77.982-70.105,77.982s-70.105-39.385-70.105-77.982
	s31.508-70.105,70.105-70.105S322.954,160.295,322.954,198.892z"/>
<path style="fill:#2EA0DA;" d="M376.517,341.465c-13.391-24.418-34.658-44.111-59.077-56.714
	c-18.117,12.603-40.96,19.692-64.591,19.692s-46.474-7.089-64.591-19.692c-25.206,12.603-45.686,32.295-59.077,56.714
	c27.569,38.597,72.468,63.015,122.88,63.803h0.788h0.788C304.049,405.268,348.948,380.062,376.517,341.465z"/>
<g>
	<path id="SVGCleanerId_0_1_" style="fill:#183651;" d="M252.849,413.145c-89.009,0-160.689-72.468-160.689-160.689
		S164.628,91.766,252.849,91.766s160.689,72.468,160.689,160.689S341.858,413.145,252.849,413.145z M252.849,107.52
		c-79.557,0-144.935,65.378-144.935,144.935s65.378,144.935,144.935,144.935s144.935-65.378,144.935-144.935
		S332.406,107.52,252.849,107.52z"/>
</g>
<g>
</g>
<g>
</g>
<g>
</g>
<g>
</g>
<g>
</g>
<g>
</g>
<g>
</g>
<g>
</g>
<g>
</g>
<g>
</g>
<g>
</g>
<g>
</g>
<g>
</g>
<g>
</g>
<g>
</g>
</svg>
