<?xml version="1.0" encoding="iso-8859-1"?>
<!-- Generator: Adobe Illustrator 19.0.0, SVG Export Plug-In . SVG Version: 6.00 Build 0)  -->
<svg version="1.1" id="Capa_1" xmlns="http://www.w3.org/2000/svg" xmlns:xlink="http://www.w3.org/1999/xlink" x="0px" y="0px"
	 viewBox="0 0 504.123 504.123" style="enable-background:new 0 0 504.123 504.123;" xml:space="preserve">
<path style="fill:#E0E4E8;" d="M58.289,288.295h178.806c10.24,0,18.117-7.877,18.117-18.117V25.994
	c0-10.24-7.877-18.117-18.117-18.117H117.366L40.172,76.406v192.985C40.172,279.631,48.049,288.295,58.289,288.295z"/>
<path style="fill:#183651;" d="M237.095,295.385H58.289c-14.178,0-25.994-11.815-25.994-25.994V76.406
	c0-2.363,0.788-4.726,2.363-5.514l77.194-68.529C113.428,0.788,115.003,0,117.366,0h119.729c14.178,0,25.994,11.815,25.994,25.994
	v244.185C263.089,284.357,251.274,295.385,237.095,295.385z M48.049,80.345v189.834c0,5.514,4.726,10.24,10.24,10.24h178.806
	c5.514,0,10.24-4.726,10.24-10.24V25.994c0-5.514-4.726-10.24-10.24-10.24H120.517L48.049,80.345z"/>
<polygon style="fill:#FFFFFF;" points="71.68,256.788 71.68,76.406 117.366,39.385 223.705,39.385 223.705,256.788 "/>
<polygon style="fill:#2EA0DA;" points="117.366,7.877 40.172,76.406 117.366,76.406 "/>
<path style="fill:#183651;" d="M117.366,84.283H40.172c-3.151,0-6.302-2.363-7.089-4.726c-0.788-3.151,0-6.302,2.363-8.665
	L112.64,2.363C115.003,0,118.154,0,121.305,0.788c3.151,1.575,4.726,3.938,4.726,7.089v68.529
	C125.243,81.132,121.305,84.283,117.366,84.283z M60.652,68.529h48.837V25.206L60.652,68.529z"/>
<rect x="8.665" y="231.582" style="fill:#FBBD5E;" width="486.794" height="264.665"/>
<path style="fill:#183651;" d="M495.458,504.123H8.665c-4.726,0-7.877-3.151-7.877-7.877V231.582c0-4.726,3.151-7.877,7.877-7.877
	h486.794c4.726,0,7.877,3.151,7.877,7.877v264.665C503.335,500.972,500.185,504.123,495.458,504.123z M16.542,488.369h471.04
	V239.458H16.542V488.369z"/>
<g>
	<rect x="40.172" y="263.089" style="fill:#FFFFFF;" width="423.778" height="201.649"/>
	<rect x="8.665" y="163.84" style="fill:#FFFFFF;" width="486.794" height="67.742"/>
</g>
<g>
	<path style="fill:#183651;" d="M495.458,239.458H8.665c-4.726,0-7.877-3.151-7.877-7.877V163.84c0-4.726,3.151-7.877,7.877-7.877
		h486.794c4.726,0,7.877,3.151,7.877,7.877v67.742C503.335,236.308,500.185,239.458,495.458,239.458z M16.542,223.705h471.04
		v-51.988H16.542V223.705z"/>
	<rect x="385.182" y="189.834" style="fill:#183651;" width="15.754" height="15.754"/>
	<rect x="416.689" y="189.834" style="fill:#183651;" width="15.754" height="15.754"/>
	<rect x="448.197" y="189.834" style="fill:#183651;" width="15.754" height="15.754"/>
	<rect x="367.852" y="18.905" style="fill:#183651;" width="107.126" height="15.754"/>
	<rect x="367.852" y="55.138" style="fill:#183651;" width="107.126" height="15.754"/>
	<rect x="367.852" y="90.585" style="fill:#183651;" width="107.126" height="15.754"/>
	<rect x="152.812" y="61.44" style="fill:#183651;" width="50.412" height="15.754"/>
	<rect x="103.188" y="111.065" style="fill:#183651;" width="100.037" height="15.754"/>
</g>
<g>
	<polygon style="fill:#2EA0DA;" points="244.972,394.634 244.972,438.745 281.994,416.689 	"/>
	<polygon style="fill:#2EA0DA;" points="160.689,416.689 123.668,394.634 123.668,405.662 104.763,394.634 104.763,438.745 
		123.668,427.717 123.668,438.745 	"/>
	<rect x="400.148" y="392.271" style="fill:#2EA0DA;" width="12.603" height="48.049"/>
	<rect x="374.942" y="392.271" style="fill:#2EA0DA;" width="12.603" height="48.049"/>
</g>
<rect x="292.234" y="314.289" style="fill:#E0E4E8;" width="138.634" height="18.117"/>
<rect x="73.255" y="314.289" style="fill:#F06151;" width="218.978" height="18.117"/>
<circle style="fill:#CECFD0;" cx="292.234" cy="323.742" r="19.692"/>
<g>
</g>
<g>
</g>
<g>
</g>
<g>
</g>
<g>
</g>
<g>
</g>
<g>
</g>
<g>
</g>
<g>
</g>
<g>
</g>
<g>
</g>
<g>
</g>
<g>
</g>
<g>
</g>
<g>
</g>
</svg>
