<?xml version="1.0" encoding="iso-8859-1"?>
<!-- Generator: Adobe Illustrator 19.0.0, SVG Export Plug-In . SVG Version: 6.00 Build 0)  -->
<svg version="1.1" id="Capa_1" xmlns="http://www.w3.org/2000/svg" xmlns:xlink="http://www.w3.org/1999/xlink" x="0px" y="0px"
	 viewBox="0 0 504.123 504.123" style="enable-background:new 0 0 504.123 504.123;" xml:space="preserve">
<rect x="144.148" y="7.877" style="fill:#FFFFFF;" width="215.04" height="488.369"/>
<path style="fill:#183651;" d="M359.975,504.123H144.148c-4.726,0-7.877-3.151-7.877-7.877V7.877c0-4.726,3.151-7.877,7.877-7.877
	h215.04c4.726,0,7.877,3.151,7.877,7.877v488.369C367.852,500.972,363.914,504.123,359.975,504.123z M152.025,488.369h199.286
	V15.754H152.025V488.369z"/>
<rect x="175.655" y="15.754" style="fill:#E0E4E8;" width="152.025" height="472.615"/>
<polygon style="fill:#CECFD0;" points="359.975,57.502 472.615,57.502 472.615,77.194 359.975,169.354 "/>
<path style="fill:#183651;" d="M359.975,177.231c-0.788,0-2.363,0-3.151-0.788c-2.363-1.575-4.726-3.938-4.726-7.089V57.502
	c0-4.726,3.151-7.877,7.877-7.877h112.64c4.726,0,7.877,3.151,7.877,7.877v19.692c0,2.363-0.788,4.726-3.151,6.302l-112.64,92.16
	C363.126,176.443,361.551,177.231,359.975,177.231z M367.852,65.378v86.646l96.886-78.769v-7.877
	C464.738,65.378,367.852,65.378,367.852,65.378z"/>
<polygon style="fill:#CECFD0;" points="359.975,211.102 472.615,211.102 472.615,230.794 359.975,322.954 "/>
<path style="fill:#183651;" d="M359.975,330.831c-0.788,0-2.363,0-3.151-0.788c-2.363-1.575-4.726-3.938-4.726-7.089V211.102
	c0-4.726,3.151-7.877,7.877-7.877h112.64c4.726,0,7.877,3.151,7.877,7.877v19.692c0,2.363-0.788,4.726-3.151,6.302l-112.64,91.372
	C363.126,330.043,361.551,330.831,359.975,330.831z M367.852,218.978v86.646l96.886-78.769v-7.877H367.852z"/>
<polygon style="fill:#CECFD0;" points="359.975,364.702 472.615,364.702 472.615,384.394 359.975,475.766 "/>
<path style="fill:#183651;" d="M359.975,483.643c-0.788,0-2.363,0-3.151-0.788c-2.363-1.575-4.726-3.938-4.726-7.089V364.702
	c0-4.726,3.151-7.877,7.877-7.877h112.64c4.726,0,7.877,3.151,7.877,7.877v19.692c0,2.363-0.788,4.726-3.151,6.302l-112.64,91.372
	C363.126,483.643,361.551,483.643,359.975,483.643z M367.852,372.578v86.646l96.886-78.769v-7.877H367.852z"/>
<polygon style="fill:#CECFD0;" points="144.148,57.502 31.508,57.502 31.508,77.194 144.148,169.354 "/>
<path style="fill:#183651;" d="M144.148,177.231c-1.575,0-3.151-0.788-4.726-1.575l-112.64-92.16
	c-1.575-1.575-3.151-3.938-3.151-6.302V57.502c0-4.726,3.151-7.877,7.877-7.877h112.64c4.726,0,7.877,3.151,7.877,7.877v111.852
	c0,3.151-1.575,5.514-4.726,7.089C146.511,177.231,145.723,177.231,144.148,177.231z M39.385,73.255l96.886,78.769V65.378H39.385
	V73.255z"/>
<polygon style="fill:#CECFD0;" points="144.148,211.102 31.508,211.102 31.508,230.794 144.148,322.954 "/>
<path style="fill:#183651;" d="M144.148,330.831c-1.575,0-3.151-0.788-4.726-1.575l-112.64-92.16
	c-1.575-1.575-3.151-3.938-3.151-6.302v-19.692c0-4.726,3.151-7.877,7.877-7.877h112.64c4.726,0,7.877,3.151,7.877,7.877v111.852
	c0,3.151-1.575,5.514-4.726,7.089C146.511,330.043,145.723,330.831,144.148,330.831z M39.385,226.855l96.886,78.769v-86.646H39.385
	V226.855z"/>
<polygon style="fill:#CECFD0;" points="144.148,364.702 31.508,364.702 31.508,384.394 144.148,475.766 "/>
<path style="fill:#183651;" d="M144.148,483.643c-1.575,0-3.151-0.788-4.726-1.575l-112.64-92.16
	c-1.575-1.575-3.151-3.938-3.151-6.302v-19.692c0-4.726,3.151-7.877,7.877-7.877h112.64c4.726,0,7.877,3.151,7.877,7.877v111.852
	c0,3.151-1.575,5.514-4.726,7.089C146.511,483.643,145.723,483.643,144.148,483.643z M39.385,380.455l96.886,78.769v-86.646H39.385
	V380.455z"/>
<circle style="fill:#F06151;" cx="252.062" cy="92.948" r="53.563"/>
<path style="fill:#183651;" d="M252.062,154.388c-33.871,0-61.44-27.569-61.44-61.44s27.569-61.44,61.44-61.44
	s61.44,27.569,61.44,61.44S285.932,154.388,252.062,154.388z M252.062,47.262c-25.206,0-45.686,20.48-45.686,45.686
	s20.48,45.686,45.686,45.686s45.686-20.48,45.686-45.686S277.268,47.262,252.062,47.262z"/>
<circle style="fill:#FBBD5E;" cx="252.062" cy="252.062" r="53.563"/>
<path style="fill:#183651;" d="M252.062,313.502c-33.871,0-61.44-27.569-61.44-61.44s27.569-61.44,61.44-61.44
	s61.44,27.569,61.44,61.44S285.932,313.502,252.062,313.502z M252.062,206.375c-25.206,0-45.686,20.48-45.686,45.686
	s20.48,45.686,45.686,45.686s45.686-20.48,45.686-45.686S277.268,206.375,252.062,206.375z"/>
<circle style="fill:#4FBF9F;" cx="252.062" cy="411.175" r="53.563"/>
<path style="fill:#183651;" d="M252.062,472.615c-33.871,0-61.44-27.569-61.44-61.44s27.569-61.44,61.44-61.44
	s61.44,27.569,61.44,61.44S285.932,472.615,252.062,472.615z M252.062,365.489c-25.206,0-45.686,20.48-45.686,45.686
	c0,25.206,20.48,45.686,45.686,45.686s45.686-20.48,45.686-45.686C297.748,385.969,277.268,365.489,252.062,365.489z"/>
<g>
	<path style="fill:#FFFFFF;" d="M281.994,96.886c-2.363,0-3.938-1.575-3.938-3.938c0-14.178-11.815-25.994-25.994-25.994
		c-2.363,0-3.938-1.575-3.938-3.938s1.575-3.938,3.938-3.938c18.905,0,33.871,14.966,33.871,33.871
		C285.932,95.311,284.357,96.886,281.994,96.886z"/>
	<path style="fill:#FFFFFF;" d="M281.994,256c-2.363,0-3.938-1.575-3.938-3.938c0-14.178-11.815-25.994-25.994-25.994
		c-2.363,0-3.938-1.575-3.938-3.938c0-2.363,1.575-3.938,3.938-3.938c18.905,0,33.871,14.966,33.871,33.871
		C285.932,254.425,284.357,256,281.994,256z"/>
	<path style="fill:#FFFFFF;" d="M281.994,415.114c-2.363,0-3.938-1.575-3.938-3.938c0-14.178-11.815-25.994-25.994-25.994
		c-2.363,0-3.938-1.575-3.938-3.938c0-2.363,1.575-3.938,3.938-3.938c18.905,0,33.871,14.966,33.871,33.871
		C285.932,413.538,284.357,415.114,281.994,415.114z"/>
</g>
<g>
</g>
<g>
</g>
<g>
</g>
<g>
</g>
<g>
</g>
<g>
</g>
<g>
</g>
<g>
</g>
<g>
</g>
<g>
</g>
<g>
</g>
<g>
</g>
<g>
</g>
<g>
</g>
<g>
</g>
</svg>
