<?xml version="1.0" encoding="iso-8859-1"?>
<!-- Generator: Adobe Illustrator 19.0.0, SVG Export Plug-In . SVG Version: 6.00 Build 0)  -->
<svg version="1.1" id="Capa_1" xmlns="http://www.w3.org/2000/svg" xmlns:xlink="http://www.w3.org/1999/xlink" x="0px" y="0px"
	 viewBox="0 0 504.2 504.2" style="enable-background:new 0 0 504.2 504.2;" xml:space="preserve">
<circle style="fill:#2EA0DA;" cx="252.1" cy="252.1" r="252.1"/>
<g>
	<path style="fill:#183651;" d="M430.9,395.5l-12.6-9.5c3.2-3.9,6.3-8.7,9.5-12.6l13.3,8.7C437.2,386.8,434.1,390.7,430.9,395.5z
		 M449.8,367.1l-13.4-7.9c2.4-4.7,4.7-9.5,7.1-14.2l14.2,6.3C455.3,356.9,452.2,362.4,449.8,367.1z M464,336.4l-15-5.5
		c1.6-4.7,3.2-10.2,4.7-15l15,3.9C467.9,325.4,466.4,330.9,464,336.4z M473.4,303.3l-15.8-3.2c0.8-5.5,1.6-10.2,2.4-15.8l15.8,1.6
		C475,291.5,474.2,297.8,473.4,303.3z M477.4,269.4l-15.8-0.8c0-2.4,0-5.5,0-7.9s0-5.5,0-7.9l15.8-0.8c0,3.2,0,5.5,0,8.7
		C477.4,263.1,477.4,266.3,477.4,269.4z M460.8,237.1c-0.8-5.5-1.6-10.2-2.4-15.8l15.8-3.2c0.8,5.5,2.4,11,2.4,16.5L460.8,237.1z
		 M454.5,205.6c-1.6-4.7-3.2-10.2-4.7-15l15-5.5c1.6,5.5,3.9,11,5.5,16.5L454.5,205.6z M443.5,175.7c-2.4-4.7-4.7-9.5-7.1-14.2
		l13.4-7.9c3.2,4.7,5.5,10.2,7.9,15L443.5,175.7z M427.8,148.1c-3.2-4.7-6.3-8.7-9.5-12.6l12.6-9.5c3.9,4.7,7.1,9.5,10.2,14.2
		L427.8,148.1z"/>
	<path style="fill:#183651;" d="M413.6,414.4l-11-11c1.6-1.6,3.9-3.9,5.5-5.5l11.8,11C417.5,410.4,415.9,412.8,413.6,414.4z"/>
	<path style="fill:#183651;" d="M260,477.4L260,477.4c-58.3,0-112.6-22.8-153.6-63.8l11-11c37.8,37.8,89,59.1,142.6,59.1
		s104.8-21.3,142.6-59.1l11,11C372.6,455.3,318.3,477.4,260,477.4z"/>
	<polygon style="fill:#183651;" points="109.5,445.1 103.2,401.8 146.5,395.5 148.9,411.2 120.6,415.2 125.3,443.5 	"/>
	<path style="fill:#183651;" d="M73.3,378.9c-3.2-4.7-7.1-9.5-10.2-14.2l13.4-8.7c3.2,4.7,6.3,8.7,9.5,12.6L73.3,378.9z M54.4,350.6
		c-3.2-4.7-5.5-10.2-7.9-15l14.2-6.3c2.4,4.7,4.7,9.5,7.1,14.2L54.4,350.6z M40.2,319.1c-2.4-5.5-3.9-11-5.5-16.5l15-3.9
		c1.6,4.7,3.2,10.2,4.7,15L40.2,319.1z M30.8,286.8c-0.8-5.5-2.4-11-2.4-16.5l15.8-1.6c0.8,5.5,1.6,10.2,2.4,15.8L30.8,286.8z
		 M26.8,252.1c0-3.2,0-5.5,0-8.7s0-5.5,0-8.7l15.8,0.8c0,2.4,0,5.5,0,7.9s0,5.5,0,7.9L26.8,252.1z M43.4,219.8l-15.8-1.6
		c0.8-5.5,1.6-11,2.4-16.5l15.8,3.2C44.9,209.6,44.1,215.1,43.4,219.8z M49.7,189.1l-15-3.9c1.6-5.5,3.2-11,5.5-16.5l15,5.5
		C52.8,178.8,51.2,184.4,49.7,189.1z M60.7,159.2l-14.2-6.3c2.4-5.5,4.7-10.2,7.9-15l13.4,7.9C65.4,149.7,63.1,154.4,60.7,159.2z
		 M76.4,131.6l-13.3-8.7c3.2-4.7,6.3-9.5,10.2-14.2l12.6,9.5C82.7,122.9,79.6,127.6,76.4,131.6z"/>
	<path style="fill:#183651;" d="M386.8,101.7c-78.8-78.8-206.4-78.8-285.1,0l-11-11c84.3-85.1,222.1-85.1,307.2,0L386.8,101.7z"/>
	<polygon style="fill:#183651;" points="357.7,108.7 355.3,93 383.6,89 378.9,60.7 394.7,59.1 401,102.4 	"/>
</g>
<circle style="fill:#FBBD5E;" cx="252.1" cy="252.1" r="153.6"/>
<path style="fill:#183651;" d="M252.1,413.6c-89,0-161.5-72.5-161.5-161.5S163.1,90.6,252.1,90.6s161.5,72.5,161.5,161.5
	S341.1,413.6,252.1,413.6z M252.1,106.4c-80.3,0-145.7,65.4-145.7,145.7s65.4,145.7,145.7,145.7s145.7-65.4,145.7-145.7
	S332.4,106.4,252.1,106.4z"/>
<path style="fill:#FFFFFF;" d="M252.1,377.3c-69.3,0-125.2-55.9-125.2-125.2s55.9-125.2,125.2-125.2s125.2,55.9,125.2,125.2
	S321.4,377.3,252.1,377.3z"/>
<g>
	<circle style="fill:#183651;" cx="252.1" cy="148.9" r="7.9"/>
	<circle style="fill:#183651;" cx="252.1" cy="355.3" r="7.9"/>
	<circle style="fill:#183651;" cx="355.3" cy="252.1" r="7.9"/>
	<circle style="fill:#183651;" cx="148.9" cy="252.1" r="7.9"/>
	<polygon style="fill:#183651;" points="260,260 192.2,260 192.2,244.2 244.2,244.2 244.2,173.3 260,173.3 	"/>
</g>
<g>
</g>
<g>
</g>
<g>
</g>
<g>
</g>
<g>
</g>
<g>
</g>
<g>
</g>
<g>
</g>
<g>
</g>
<g>
</g>
<g>
</g>
<g>
</g>
<g>
</g>
<g>
</g>
<g>
</g>
</svg>
