<?xml version="1.0" encoding="iso-8859-1"?>
<!-- Generator: Adobe Illustrator 19.0.0, SVG Export Plug-In . SVG Version: 6.00 Build 0)  -->
<svg version="1.1" id="Capa_1" xmlns="http://www.w3.org/2000/svg" xmlns:xlink="http://www.w3.org/1999/xlink" x="0px" y="0px"
	 viewBox="0 0 504.911 504.911" style="enable-background:new 0 0 504.911 504.911;" xml:space="preserve">
<path style="fill:#FFFFFF;" d="M308.382,388.726v-40.96l-29.932-3.938c-2.363-9.452-6.302-18.905-11.028-27.569l18.905-23.631
	l-29.932-27.569l-23.631,18.905c-8.665-4.726-17.329-8.665-27.569-11.028l-3.938-29.932h-40.96l-2.363,29.145
	c-9.452,2.363-18.905,6.302-27.569,11.028l-23.631-18.905l-28.357,28.357l18.905,23.631c-4.726,8.665-8.665,17.329-11.028,27.569
	l-29.932,3.938v40.96l29.932,3.938c2.363,9.452,6.302,18.905,11.028,27.569l-18.905,23.631l28.357,28.357l23.631-18.905
	c8.665,4.726,17.329,8.665,27.569,11.028l3.938,29.932h40.96l3.938-29.932c9.452-2.363,18.905-6.302,27.569-11.028l23.631,18.905
	l28.357-28.357l-18.905-23.631c4.726-8.665,8.665-17.329,11.028-27.569L308.382,388.726z"/>
<path style="fill:#183651;" d="M202.043,502.942h-40.96c-3.938,0-7.089-3.151-7.877-7.089l-3.151-25.206
	c-7.089-2.363-13.391-4.726-19.692-7.877l-19.692,15.754c-3.151,2.363-7.877,2.363-10.24-0.788l-28.357-28.357
	c-3.151-3.151-3.151-7.089-0.788-10.24l15.754-19.692c-3.151-6.302-6.302-12.603-7.877-19.692l-25.206-3.151
	c-3.938-0.788-7.089-3.938-7.089-7.877v-40.96c0-3.938,3.151-7.089,7.089-7.877l25.206-3.151c2.363-7.089,4.726-13.391,7.877-19.692
	l-15.754-19.692c-2.363-3.151-2.363-7.877,0.788-10.24l28.357-28.357c3.151-3.151,7.089-3.151,10.24-0.788l19.692,15.754
	c6.302-3.151,12.603-6.302,19.692-7.877l3.151-25.206c0.788-3.938,3.938-7.089,7.877-7.089h40.96c3.938,0,7.089,3.151,7.877,7.089
	l3.151,25.206c7.089,2.363,13.391,4.726,19.692,7.877l19.692-15.754c3.151-2.363,7.877-2.363,10.24,0.788l28.357,28.357
	c3.151,3.151,3.151,7.089,0.788,10.24l-15.754,19.692c3.151,6.302,6.302,12.603,7.877,19.692l25.206,3.151
	c3.938,0.788,7.089,3.938,7.089,7.877v40.96c0,3.938-3.151,7.089-7.089,7.877l-25.206,3.151c-2.363,7.089-4.726,13.391-7.877,19.692
	l15.754,19.692c2.363,3.151,2.363,7.877-0.788,10.24l-28.357,28.357c-3.151,3.151-7.089,3.151-10.24,0.788l-19.692-15.754
	c-6.302,3.151-12.603,6.302-19.692,7.877l-3.151,25.206C209.132,499.791,205.982,502.942,202.043,502.942z M168.172,487.188h26.782
	l3.151-22.843c0.788-3.151,2.363-5.514,6.302-6.302c8.665-2.363,17.329-5.514,25.206-10.24c3.151-1.575,6.302-1.575,8.665,0.788
	l18.117,14.178l18.905-18.905l-14.178-18.117c-2.363-2.363-2.363-6.302-0.788-8.665c4.726-7.877,7.877-16.542,10.24-25.206
	c0.788-3.151,3.151-5.514,6.302-6.302l22.843-3.151v-26.782l-22.843-3.151c-3.151,0-5.514-2.363-6.302-6.302
	c-2.363-8.665-5.514-17.329-10.24-25.206c-1.575-3.151-1.575-6.302,0.788-8.665l14.178-18.117l-18.905-18.905l-18.117,14.178
	c-2.363,2.363-6.302,2.363-8.665,0.788c-7.877-4.726-16.542-7.877-25.206-10.24c-3.151-0.788-5.514-3.151-6.302-6.302l-3.151-22.843
	h-26.782l-3.151,22.843c-0.788,3.151-2.363,5.514-6.302,6.302c-8.665,2.363-17.329,5.514-25.206,10.24
	c-3.151,1.575-6.302,1.575-8.665-0.788l-18.117-14.178l-18.905,18.905l14.178,18.117c2.363,2.363,2.363,6.302,0.788,8.665
	c-4.726,7.877-7.877,16.542-10.24,25.206c-0.788,3.151-3.151,5.514-6.302,6.302l-22.843,3.151v26.782l22.843,3.151
	c3.151,0.788,5.514,2.363,6.302,6.302c2.363,8.665,5.514,17.329,10.24,25.206c1.575,3.151,1.575,6.302-0.788,8.665l-14.178,18.117
	l18.905,18.905l18.117-14.178c2.363-2.363,6.302-2.363,8.665-0.788c7.877,4.726,16.542,7.877,25.206,10.24
	c3.151,0.788,5.514,3.151,6.302,6.302L168.172,487.188z"/>
<circle style="fill:#4FBF9F;" cx="181.563" cy="368.246" r="70.892"/>
<circle style="fill:#FFFFFF;" cx="181.563" cy="368.246" r="28.357"/>
<path style="fill:#183651;" d="M181.563,404.48c-19.692,0-36.234-16.542-36.234-36.234c0-19.692,16.542-36.234,36.234-36.234
	s36.234,16.542,36.234,36.234C217.797,388.726,201.255,404.48,181.563,404.48z M181.563,348.554c-11.028,0-20.48,9.452-20.48,20.48
	c0,11.028,9.452,20.48,20.48,20.48s20.48-9.452,20.48-20.48C202.043,357.218,192.591,348.554,181.563,348.554z"/>
<circle style="fill:#FBBD5E;" cx="173.686" cy="172.898" r="172.505"/>
<circle style="fill:#F06151;" cx="173.686" cy="172.898" r="140.997"/>
<path style="fill:#183651;" d="M173.686,321.772c-82.708,0-148.874-66.954-148.874-148.874S90.978,24.025,173.686,24.025
	S322.56,90.978,322.56,172.898S255.606,321.772,173.686,321.772z M173.686,39.778c-73.255,0-133.12,59.865-133.12,133.12
	s59.865,133.12,133.12,133.12s133.12-59.865,133.12-133.12S246.942,39.778,173.686,39.778z"/>
<path style="fill:#FFFFFF;" d="M173.686,280.812c-59.865,0-107.914-48.837-107.914-107.914S113.822,64.197,173.686,64.197
	S281.6,113.034,281.6,172.111S232.763,280.812,173.686,280.812z"/>
<g>
	<rect x="76.8" y="164.234" style="fill:#183651;" width="15.754" height="16.542"/>
	<rect x="254.031" y="164.234" style="fill:#183651;" width="15.754" height="16.542"/>
	
		<rect x="102.862" y="227.462" transform="matrix(-0.7072 -0.707 0.707 -0.7072 23.3405 480.3438)" style="fill:#183651;" width="16.541" height="15.754"/>
	
		<rect x="228.151" y="102.219" transform="matrix(-0.707 -0.7072 0.7072 -0.707 325.7127 355.1337)" style="fill:#183651;" width="16.541" height="15.754"/>
	<rect x="165.022" y="253.243" style="fill:#183651;" width="16.542" height="15.754"/>
	<rect x="165.022" y="76.012" style="fill:#183651;" width="16.542" height="15.754"/>
	
		<rect x="227.953" y="227.063" transform="matrix(-0.7071 -0.7071 0.7071 -0.7071 236.1811 568.4964)" style="fill:#183651;" width="15.754" height="16.541"/>
	
		<rect x="102.702" y="101.853" transform="matrix(-0.7071 -0.7071 0.7071 -0.7071 110.901 266.1841)" style="fill:#183651;" width="15.754" height="16.541"/>
	<polygon style="fill:#183651;" points="213.071,180.775 165.809,180.775 165.809,109.883 181.563,109.883 181.563,165.022 
		213.071,165.022 	"/>
</g>
<path style="fill:#E0E4E8;" d="M449.378,362.732V142.178c27.569-11.815,46.474-38.597,46.474-70.105
	c0-26.782-14.178-50.412-35.446-63.803v62.228l-40.96,29.932l-40.96-29.932V8.271c-21.268,13.391-35.446,37.022-35.446,63.803
	c0,31.508,18.905,58.289,46.474,70.105V363.52l0,0c-27.569,11.815-46.474,38.597-46.474,70.105
	c0,26.782,14.178,50.412,35.446,63.803V435.2l40.96-29.932l40.96,29.932v62.228c21.268-13.391,35.446-37.022,35.446-63.803
	C495.852,401.329,476.948,374.548,449.378,362.732z"/>
<path style="fill:#183651;" d="M457.255,503.729c-2.363-1.575-3.938-3.938-3.938-7.089v-58.289l-33.083-23.631l-33.083,23.631
	v58.289c0,3.151-1.575,5.514-3.938,7.089c-2.363,1.575-5.514,1.575-7.877,0c-24.418-15.754-38.597-41.748-38.597-70.105
	c0-32.295,18.117-60.652,46.474-74.831V146.905c-28.357-14.178-46.474-42.535-46.474-74.831c0-28.357,14.178-55.138,38.597-70.105
	c2.363-1.575,5.514-1.575,7.877,0s3.938,3.938,3.938,7.089v58.289l33.083,23.631l33.083-23.631V8.271
	c0-3.151,1.575-5.514,3.938-7.089s5.514-1.575,7.877,0c24.418,15.754,38.597,41.748,38.597,70.105
	c0,32.295-18.117,60.652-46.474,74.831v211.102c28.357,14.178,46.474,42.535,46.474,74.831c0,28.357-14.178,55.138-38.597,70.105
	C462.769,504.517,459.618,505.305,457.255,503.729z M420.234,396.603c1.575,0,3.151,0.788,4.726,1.575l40.96,29.932
	c2.363,1.575,3.151,3.938,3.151,6.302v45.686c12.603-12.603,19.692-29.145,19.692-47.262c0-27.569-16.542-51.988-41.748-63.015
	c-3.151-1.575-4.726-3.938-4.726-7.089V142.178c0-3.151,1.575-6.302,4.726-7.089c25.206-10.24,41.748-35.446,41.748-62.228
	c0-18.117-7.089-34.658-19.692-47.262v45.686c0,2.363-1.575,4.726-3.151,6.302l-40.96,29.145c-3.151,2.363-6.302,2.363-9.452,0
	L374.548,76.8c-2.363-1.575-3.151-3.938-3.151-6.302V24.812c-12.603,12.603-19.692,29.145-19.692,47.262
	c0,27.569,16.542,51.988,41.748,62.228c3.151,1.575,4.726,3.938,4.726,7.089v221.342c0,3.151-1.575,6.302-4.726,7.089
	c-25.206,10.24-41.748,35.446-41.748,62.228c0,18.117,7.089,34.658,19.692,47.262v-45.686c0-2.363,1.575-4.726,3.151-6.302
	l40.96-29.932C417.083,397.391,418.658,396.603,420.234,396.603z"/>
<g>
</g>
<g>
</g>
<g>
</g>
<g>
</g>
<g>
</g>
<g>
</g>
<g>
</g>
<g>
</g>
<g>
</g>
<g>
</g>
<g>
</g>
<g>
</g>
<g>
</g>
<g>
</g>
<g>
</g>
</svg>
