<?xml version="1.0" encoding="iso-8859-1"?>
<!-- Generator: Adobe Illustrator 19.0.0, SVG Export Plug-In . SVG Version: 6.00 Build 0)  -->
<svg version="1.1" id="Capa_1" xmlns="http://www.w3.org/2000/svg" xmlns:xlink="http://www.w3.org/1999/xlink" x="0px" y="0px"
	 viewBox="0 0 504.123 504.123" style="enable-background:new 0 0 504.123 504.123;" xml:space="preserve">
<circle style="fill:#E0E4E8;" cx="252.062" cy="252.062" r="252.062"/>
<rect x="65.378" y="244.972" style="fill:#FBBD5E;" width="186.683" height="232.369"/>
<path style="fill:#183651;" d="M252.062,485.218H65.378c-4.726,0-7.877-3.151-7.877-7.877V244.972c0-4.726,3.151-7.877,7.877-7.877
	h186.683c4.726,0,7.877,3.151,7.877,7.877v232.369C259.938,481.28,256,485.218,252.062,485.218z M73.255,469.465h170.929V252.849
	H73.255V469.465z"/>
<rect x="94.523" y="274.117" style="fill:#FFFFFF;" width="129.182" height="174.08"/>
<polygon style="fill:#F06151;" points="213.465,313.502 252.062,244.972 65.378,244.972 26.782,313.502 "/>
<path style="fill:#183651;" d="M213.465,321.378H26.782c-3.151,0-5.514-1.575-7.089-3.938c-1.575-2.363-1.575-5.514,0-7.877
	l38.597-68.529c1.575-2.363,3.938-3.938,7.089-3.938h186.683c3.151,0,5.514,1.575,7.089,3.938c1.575,2.363,1.575,5.514,0,7.877
	l-38.597,68.529C218.978,319.803,216.615,321.378,213.465,321.378z M40.172,305.625h168.566l29.932-52.775H70.105L40.172,305.625z"
	/>
<rect x="252.062" y="244.972" style="fill:#FBBD5E;" width="186.683" height="232.369"/>
<path style="fill:#183651;" d="M438.745,485.218H252.062c-4.726,0-7.877-3.151-7.877-7.877V244.972c0-4.726,3.151-7.877,7.877-7.877
	h186.683c4.726,0,7.877,3.151,7.877,7.877v232.369C446.622,481.28,442.683,485.218,438.745,485.218z M259.938,469.465h170.929
	V252.849H259.938V469.465z"/>
<rect x="280.418" y="274.117" style="fill:#FFFFFF;" width="129.182" height="174.08"/>
<polygon style="fill:#F06151;" points="290.658,313.502 252.062,244.972 438.745,244.972 476.554,313.502 "/>
<g>
	<path style="fill:#183651;" d="M477.342,321.378L477.342,321.378H290.658c-3.151,0-5.514-1.575-7.089-3.938l-38.597-68.529
		c-1.575-2.363-1.575-5.514,0-7.877c1.575-2.363,3.938-3.938,7.089-3.938h186.683c3.151,0,5.514,1.575,7.089,3.938l37.809,67.742
		c0.788,1.575,1.575,3.151,1.575,4.726C485.218,317.44,481.28,321.378,477.342,321.378z M295.385,305.625h168.566l-29.932-52.775
		H265.452L295.385,305.625z"/>
	<path style="fill:#183651;" d="M48.049,145.723L20.48,118.154c-1.575-1.575-2.363-3.151-2.363-5.514
		c0-2.363,0.788-3.938,2.363-5.514l27.569-27.569c3.151-3.151,7.877-3.151,11.028,0c3.151,3.151,3.151,7.877,0,11.028L37.022,112.64
		l22.055,22.055c3.151,3.151,3.151,7.877,0,11.028C55.926,148.874,51.2,148.874,48.049,145.723z"/>
	<path style="fill:#183651;" d="M154.388,240.246h-15.754v-15.754h15.754V240.246z M138.634,208.738
		c0-4.726-0.788-9.452-1.575-14.178l15.754-3.151c0.788,5.514,1.575,11.028,2.363,16.542L138.634,208.738z M133.12,181.169
		c-1.575-4.726-3.938-8.665-6.302-13.391l13.391-7.877c3.151,4.726,5.514,10.24,7.089,14.966L133.12,181.169z M118.154,155.963
		c-3.151-3.938-6.302-7.089-10.24-10.24l11.028-11.815c3.938,3.938,7.877,7.877,11.815,12.603L118.154,155.963z M96.886,136.271
		c-3.938-2.363-8.665-4.726-12.603-7.089l6.302-14.178c4.726,2.363,10.24,5.514,14.966,8.665L96.886,136.271z M70.892,123.668
		c-4.726-1.575-9.452-2.363-14.178-3.151l1.575-15.754c5.514,0.788,11.028,1.575,16.542,3.151L70.892,123.668z M41.748,120.517
		H25.994v-15.754h15.754V120.517z"/>
	<path style="fill:#183651;" d="M444.258,145.723c-3.151-3.151-3.151-7.877,0-11.028l22.055-22.055l-22.055-22.055
		c-3.151-3.151-3.151-7.877,0-11.028c3.151-3.151,7.877-3.151,11.028,0l27.569,27.569c3.151,3.151,3.151,7.877,0,11.028
		l-27.569,27.569C452.135,148.874,446.622,148.874,444.258,145.723z"/>
	<path style="fill:#183651;" d="M363.914,240.246H348.16v-15.754h15.754V240.246z M363.914,209.526l-15.754-0.788
		c0-5.514,0.788-11.028,2.363-16.542l15.754,3.151C365.489,199.286,364.702,204.012,363.914,209.526z M370.215,181.169
		l-14.966-5.514c2.363-5.514,4.726-10.24,7.089-14.966l13.391,7.877C374.154,171.717,371.791,176.443,370.215,181.169z
		 M384.394,155.963l-11.815-10.24c3.151-4.726,7.089-8.665,11.815-12.603l11.028,11.815
		C390.695,148.086,387.545,152.025,384.394,155.963z M405.662,136.271l-8.665-13.391c4.726-3.151,9.452-6.302,14.966-8.665
		l6.302,14.178C414.326,130.757,409.6,133.12,405.662,136.271z M432.443,123.668l-4.726-14.966
		c5.514-1.575,11.028-2.363,16.542-3.151l1.575,15.754C441.895,121.305,437.169,122.88,432.443,123.668z M477.342,120.517h-15.754
		v-15.754h15.754V120.517z"/>
	<path style="fill:#183651;" d="M218.978,59.865c-3.151-3.151-3.151-7.877,0-11.028l27.569-26.782c3.151-3.151,7.877-3.151,11.028,0
		l27.569,26.782c3.151,3.151,3.151,7.877,0,11.028c-3.151,3.151-7.877,3.151-11.028,0l-22.055-21.268l-22.055,21.268
		C226.855,63.015,222.129,63.015,218.978,59.865z"/>
	<path style="fill:#183651;" d="M376.517,96.098c-3.938-0.788-7.089-4.726-6.302-9.452l4.726-29.932l-29.932-4.726
		c-3.938-0.788-7.089-4.726-6.302-8.665c0.788-3.938,4.726-7.089,8.665-6.302l37.809,6.302c2.363,0,3.938,1.575,5.514,3.151
		c1.575,1.575,1.575,3.938,1.575,6.302l-6.302,37.809C384.394,94.523,380.455,96.886,376.517,96.098z"/>
	<path style="fill:#183651;" d="M289.083,244.972c0,0,0-3.151,0-9.452c0-2.363,0-4.726,0-7.089l15.754,0.788
		c0,2.363,0,4.726,0,6.302c0,5.514,0,7.877,0,8.665L289.083,244.972z M305.625,214.252l-15.754-1.575
		c0.788-4.726,0.788-10.24,1.575-15.754l15.754,2.363C306.412,204.012,305.625,209.526,305.625,214.252z M309.563,183.532
		l-15.754-3.151c0.788-5.514,2.363-10.24,3.151-15.754l14.966,3.938C311.138,173.292,310.351,178.806,309.563,183.532z
		 M316.652,153.6l-14.966-4.726c1.575-5.514,3.151-10.24,5.514-14.966l14.966,5.514C320.591,144.148,318.228,148.874,316.652,153.6z
		 M328.468,126.031l-14.178-7.089c2.363-4.726,4.726-9.452,7.877-14.178l13.391,7.877
		C332.406,116.578,330.043,121.305,328.468,126.031z M343.434,100.037l-12.603-9.452c3.151-4.726,6.302-8.665,10.24-12.603
		l11.815,10.24C349.735,91.372,346.585,95.311,343.434,100.037z M363.126,77.194l-11.028-11.028
		c3.938-3.938,7.877-7.089,12.603-11.028l9.452,11.815C370.215,70.105,366.277,73.255,363.126,77.194z M386.757,58.289
		l-8.665-13.391l1.575-0.788l7.877,13.391L386.757,58.289z"/>
	<path style="fill:#183651;" d="M118.942,89.797l-6.302-37.809c0-2.363,0-3.938,1.575-6.302c0.788-0.788,2.363-2.363,4.726-2.363
		l37.809-6.302c3.938-0.788,8.665,2.363,8.665,6.302c0.788,3.938-2.363,8.665-6.302,8.665l-29.932,4.726l4.726,29.932
		c0.788,3.938-2.363,8.665-6.302,9.452C123.668,96.886,119.729,94.523,118.942,89.797z"/>
	<path style="fill:#183651;" d="M215.04,244.972l-15.754-0.788c0,0,0-3.151,0-8.665c0-1.575,0-3.938,0-6.302l15.754-0.788
		c0,2.363,0,4.726,0,7.089C215.828,241.822,215.04,244.972,215.04,244.972z M198.498,214.252c0-4.726-0.788-9.452-1.575-14.966
		l15.754-2.363c0.788,5.514,1.575,11.028,1.575,15.754L198.498,214.252z M194.56,183.532c-0.788-4.726-2.363-10.24-3.151-14.966
		l14.966-3.938c1.575,5.514,2.363,11.028,3.151,15.754L194.56,183.532z M187.471,153.6c-1.575-4.726-3.151-9.452-4.726-14.178
		l14.966-5.514c2.363,4.726,3.938,10.24,5.514,14.966L187.471,153.6z M175.655,126.031c-2.363-4.726-4.726-9.452-7.089-13.391
		l13.391-7.877c2.363,4.726,5.514,9.452,7.877,14.178L175.655,126.031z M160.689,100.037c-3.151-3.938-6.302-7.877-9.452-11.815
		l11.815-10.24c3.151,3.938,7.089,8.665,10.24,12.603L160.689,100.037z M140.997,77.194c-3.938-3.938-7.089-7.089-11.028-10.24
		l9.452-12.603c3.938,3.151,8.665,7.089,12.603,11.028L140.997,77.194z M117.366,58.289l-1.575-0.788l7.877-13.391l1.575,0.788
		L117.366,58.289z"/>
	<path style="fill:#183651;" d="M259.938,231.582h-15.754v-15.754h15.754V231.582z M259.938,200.074h-15.754V184.32h15.754V200.074z
		 M259.938,168.566h-15.754v-15.754h15.754V168.566z M259.938,137.058h-15.754v-15.754h15.754V137.058z M259.938,105.551h-15.754
		V89.797h15.754V105.551z M259.938,74.043h-15.754V58.289h15.754V74.043z M259.938,42.535h-15.754V26.782h15.754V42.535z"/>
</g>
<g>
</g>
<g>
</g>
<g>
</g>
<g>
</g>
<g>
</g>
<g>
</g>
<g>
</g>
<g>
</g>
<g>
</g>
<g>
</g>
<g>
</g>
<g>
</g>
<g>
</g>
<g>
</g>
<g>
</g>
</svg>
