<?xml version="1.0" encoding="iso-8859-1"?>
<!-- Generator: Adobe Illustrator 19.0.0, SVG Export Plug-In . SVG Version: 6.00 Build 0)  -->
<svg version="1.1" id="Capa_1" xmlns="http://www.w3.org/2000/svg" xmlns:xlink="http://www.w3.org/1999/xlink" x="0px" y="0px"
	 viewBox="0 0 504.123 504.123" style="enable-background:new 0 0 504.123 504.123;" xml:space="preserve">
<circle style="fill:#E0E4E8;" cx="252.062" cy="252.062" r="208.738"/>
<path style="fill:#183651;" d="M252.062,468.677c-119.729,0-216.615-96.886-216.615-216.615S132.332,35.446,252.062,35.446
	s216.615,96.886,216.615,216.615S371.791,468.677,252.062,468.677z M252.062,51.2C140.997,51.2,51.2,140.997,51.2,252.062
	s89.797,200.862,200.862,200.862s200.862-89.797,200.862-200.862S363.126,51.2,252.062,51.2z"/>
<path style="fill:#FBBD5E;" d="M20.48,7.877h137.058c7.089,0,12.603,5.514,12.603,12.603v79.557c0,7.089-5.514,12.603-12.603,12.603
	h-18.905v39.385L69.317,112.64H20.48c-7.089,0-12.603-5.514-12.603-12.603V20.48C7.877,13.391,13.391,7.877,20.48,7.877z"/>
<path style="fill:#183651;" d="M134.695,159.114l-66.954-38.597H20.48c-11.028,0-20.48-9.452-20.48-20.48V20.48
	C0,9.452,9.452,0,20.48,0h137.058c11.028,0,20.48,9.452,20.48,20.48v79.557c0,11.028-9.452,20.48-20.48,20.48h-11.028v31.508
	c0,3.151-1.575,5.514-3.938,7.089C140.209,160.689,137.846,160.689,134.695,159.114z M20.48,15.754
	c-2.363,0-4.726,2.363-4.726,4.726v79.557c0,2.363,2.363,4.726,4.726,4.726h49.625c1.575,0,2.363,0,3.938,0.788l57.502,32.295
	v-25.994c0-4.726,3.151-7.877,7.877-7.877h18.905c2.363,0,4.726-2.363,4.726-4.726V20.48c0-2.363-2.363-4.726-4.726-4.726H20.48z"/>
<path style="fill:#2EA0DA;" d="M483.643,7.877H346.585c-7.089,0-12.603,5.514-12.603,12.603v79.557
	c0,7.089,5.514,12.603,12.603,12.603h18.905v39.385l69.317-39.385h49.625c7.089,0,12.603-5.514,12.603-12.603V20.48
	C496.246,13.391,490.732,7.877,483.643,7.877z"/>
<path style="fill:#183651;" d="M361.551,159.114c-2.363-1.575-3.938-3.938-3.938-7.089v-31.508h-11.028
	c-11.028,0-20.48-9.452-20.48-20.48V20.48c0-11.028,9.452-20.48,20.48-20.48h137.058c11.028,0,20.48,9.452,20.48,20.48v79.557
	c0,11.028-9.452,20.48-20.48,20.48h-47.262l-66.954,38.597C366.277,160.689,363.914,160.689,361.551,159.114z M346.585,15.754
	c-2.363,0-4.726,2.363-4.726,4.726v79.557c0,2.363,2.363,4.726,4.726,4.726h18.905c4.726,0,7.877,3.151,7.877,7.877v25.994
	l57.502-32.295c1.575-0.788,2.363-0.788,3.938-0.788h49.625c2.363,0,4.726-2.363,4.726-4.726V20.48c0-2.363-2.363-4.726-4.726-4.726
	H346.585z"/>
<path style="fill:#FBBD5E;" d="M483.643,496.246H346.585c-7.089,0-12.603-5.514-12.603-12.603v-79.557
	c0-7.089,5.514-12.603,12.603-12.603h18.905v-39.385l69.317,39.385h49.625c7.089,0,12.603,5.514,12.603,12.603v79.557
	C496.246,490.732,490.732,496.246,483.643,496.246z"/>
<path style="fill:#183651;" d="M483.643,504.123H346.585c-11.028,0-20.48-9.452-20.48-20.48v-79.557
	c0-11.028,9.452-20.48,20.48-20.48h11.028v-31.508c0-3.151,1.575-5.514,3.938-7.089c2.363-1.575,5.514-1.575,7.877,0l66.954,38.597
	h47.262c11.028,0,20.48,9.452,20.48,20.48v79.557C504.123,494.671,494.671,504.123,483.643,504.123z M346.585,399.36
	c-2.363,0-4.726,2.363-4.726,4.726v79.557c0,2.363,2.363,4.726,4.726,4.726h137.058c2.363,0,4.726-2.363,4.726-4.726v-79.557
	c0-2.363-2.363-4.726-4.726-4.726h-49.625c-1.575,0-2.363,0-3.938-0.788l-57.502-32.295v25.994c0,4.726-3.151,7.877-7.877,7.877
	h-18.117V399.36z"/>
<path style="fill:#2EA0DA;" d="M20.48,496.246h137.058c7.089,0,12.603-5.514,12.603-12.603v-79.557
	c0-7.089-5.514-12.603-12.603-12.603h-18.905v-39.385l-69.317,39.385H19.692c-7.089,0-12.603,5.514-12.603,12.603v79.557
	C7.877,490.732,13.391,496.246,20.48,496.246z"/>
<path style="fill:#183651;" d="M157.538,504.123H20.48c-11.028,0-20.48-9.452-20.48-20.48v-79.557c0-11.028,9.452-20.48,20.48-20.48
	h47.262l66.954-38.597c2.363-1.575,5.514-1.575,7.877,0c2.363,1.575,3.938,3.938,3.938,7.089v31.508h11.028
	c11.028,0,20.48,9.452,20.48,20.48v79.557C178.806,494.671,169.354,504.123,157.538,504.123z M20.48,399.36
	c-2.363,0-4.726,2.363-4.726,4.726v79.557c0,2.363,2.363,4.726,4.726,4.726h137.058c2.363,0,4.726-2.363,4.726-4.726v-79.557
	c0-2.363-2.363-4.726-4.726-4.726h-18.905c-4.726,0-7.877-3.151-7.877-7.877v-25.994l-56.714,32.295
	c-1.575,0.788-2.363,0.788-3.938,0.788H20.48V399.36z"/>
<path style="fill:#FFFFFF;" d="M316.652,134.695H187.471c-9.452,0-17.329,7.877-17.329,17.329v200.074
	c0,9.452,7.877,17.329,17.329,17.329h129.182c9.452,0,17.329-7.877,17.329-17.329V152.025
	C333.982,142.572,326.105,134.695,316.652,134.695z"/>
<g>
	<path style="fill:#F06151;" d="M170.142,319.015v33.083c0,9.452,7.877,17.329,17.329,17.329h129.182
		c9.452,0,17.329-7.877,17.329-17.329v-33.083H170.142z"/>
	<path style="fill:#F06151;" d="M333.982,174.868v-22.843c0-9.452-7.877-17.329-17.329-17.329H187.471
		c-9.452,0-17.329,7.877-17.329,17.329v22.843H333.982z"/>
</g>
<g>
	<circle style="fill:#FFFFFF;" cx="252.062" cy="344.222" r="14.178"/>
	<rect x="229.218" y="149.662" style="fill:#FFFFFF;" width="46.474" height="9.452"/>
</g>
<g>
	<rect x="196.135" y="196.923" style="fill:#183651;" width="80.345" height="15.754"/>
	<rect x="292.234" y="196.923" style="fill:#183651;" width="15.754" height="15.754"/>
	<rect x="227.643" y="234.732" style="fill:#183651;" width="80.345" height="15.754"/>
	<rect x="196.135" y="234.732" style="fill:#183651;" width="15.754" height="15.754"/>
	<rect x="196.135" y="272.542" style="fill:#183651;" width="80.345" height="15.754"/>
	<rect x="292.234" y="272.542" style="fill:#183651;" width="15.754" height="15.754"/>
	<rect x="43.323" y="53.563" style="fill:#183651;" width="15.754" height="15.754"/>
	<rect x="81.132" y="53.563" style="fill:#183651;" width="15.754" height="15.754"/>
	<rect x="119.729" y="53.563" style="fill:#183651;" width="15.754" height="15.754"/>
	<rect x="368.64" y="53.563" style="fill:#183651;" width="15.754" height="15.754"/>
	<rect x="407.237" y="53.563" style="fill:#183651;" width="15.754" height="15.754"/>
	<rect x="445.046" y="53.563" style="fill:#183651;" width="15.754" height="15.754"/>
	<rect x="43.323" y="435.594" style="fill:#183651;" width="15.754" height="15.754"/>
	<rect x="81.132" y="435.594" style="fill:#183651;" width="15.754" height="15.754"/>
	<rect x="119.729" y="435.594" style="fill:#183651;" width="15.754" height="15.754"/>
	<rect x="368.64" y="435.594" style="fill:#183651;" width="15.754" height="15.754"/>
	<rect x="407.237" y="435.594" style="fill:#183651;" width="15.754" height="15.754"/>
	<rect x="445.046" y="435.594" style="fill:#183651;" width="15.754" height="15.754"/>
</g>
<g>
</g>
<g>
</g>
<g>
</g>
<g>
</g>
<g>
</g>
<g>
</g>
<g>
</g>
<g>
</g>
<g>
</g>
<g>
</g>
<g>
</g>
<g>
</g>
<g>
</g>
<g>
</g>
<g>
</g>
</svg>
