<?xml version="1.0" encoding="iso-8859-1"?>
<!-- Generator: Adobe Illustrator 19.0.0, SVG Export Plug-In . SVG Version: 6.00 Build 0)  -->
<svg version="1.1" id="Capa_1" xmlns="http://www.w3.org/2000/svg" xmlns:xlink="http://www.w3.org/1999/xlink" x="0px" y="0px"
	 viewBox="0 0 504.123 504.123" style="enable-background:new 0 0 504.123 504.123;" xml:space="preserve">
<path style="fill:#FFFFFF;" d="M439.532,174.868c-20.48,18.905-48.049,30.72-78.769,30.72s-58.289-11.815-78.769-30.72
	c-34.658,24.418-56.714,64.591-56.714,110.277v112.64h270.966V285.932C496.246,240.246,473.403,200.074,439.532,174.868z"/>
<path style="fill:#183651;" d="M496.246,406.449H225.28c-4.726,0-7.877-3.151-7.877-7.877v-112.64
	c0-46.474,22.843-89.797,59.865-116.578c3.151-2.363,7.089-1.575,10.24,0.788c20.48,18.905,46.474,29.145,73.255,29.145
	s52.775-10.24,73.255-29.145c2.363-2.363,7.089-3.151,10.24-0.788c37.809,26.782,59.865,70.892,59.865,116.578v112.64
	C504.123,402.511,500.972,406.449,496.246,406.449z M233.157,390.695h255.212V285.932c0-39.385-18.117-76.406-48.837-100.037
	c-22.055,18.117-50.412,28.357-78.769,28.357c-28.357,0-56.714-10.24-78.769-28.357c-30.72,24.418-48.837,61.44-48.837,100.037
	L233.157,390.695L233.157,390.695z"/>
<path style="fill:#2EA0DA;" d="M260.726,363.126v-77.194c0-23.631,8.665-46.474,23.631-64.591
	c22.843,13.391,49.625,20.48,76.406,20.48s53.563-7.089,76.406-20.48c14.966,18.117,23.631,40.96,23.631,64.591v77.194H260.726z"/>
<ellipse style="fill:#E0E4E8;" cx="360.763" cy="89.009" rx="81.132" ry="81.132"/>
<path style="fill:#183651;" d="M360.763,178.806c-48.837,0-89.009-40.172-89.009-89.009S311.926,0,360.763,0
	s89.009,40.172,89.009,89.009S409.6,178.806,360.763,178.806z M360.763,15.754c-40.172,0-73.255,33.083-73.255,73.255
	s33.083,73.255,73.255,73.255s73.255-33.083,73.255-73.255S400.935,15.754,360.763,15.754z"/>
<path style="fill:#FFFFFF;" d="M7.877,496.246h405.662c0-81.92-48.049-152.025-117.366-184.32
	c-19.692,18.117-46.474,30.72-82.708,30.72c-11.815,0-25.206-1.575-37.809-4.726c-14.178-2.363-33.871-10.24-51.2-25.994
	C55.926,345.009,7.877,415.114,7.877,496.246z"/>
<path style="fill:#183651;" d="M413.538,504.123H7.877c-4.726,0-7.877-3.151-7.877-7.877c0-81.132,47.262-156.751,121.305-191.409
	c3.151-1.575,6.302-0.788,8.665,1.575c20.48,18.117,40.96,22.843,47.262,24.418c48.049,10.24,85.858,1.575,113.428-24.418
	c2.363-2.363,5.514-2.363,8.665-1.575c74.043,34.658,122.092,109.489,122.092,191.409
	C421.415,500.972,418.265,504.123,413.538,504.123z M15.754,488.369h389.908c-3.151-70.892-44.898-135.483-107.914-166.991
	c-31.508,26.782-74.043,35.446-123.668,24.418c-16.542-3.151-35.446-11.815-50.412-24.418
	C59.865,353.674,18.905,417.477,15.754,488.369z"/>
<path style="fill:#4FBF9F;" d="M42.535,464.738c8.665-47.262,37.809-89.797,79.557-115.003
	c20.48,13.391,39.385,18.117,48.049,19.692c14.966,3.151,29.932,4.726,44.111,4.726c32.295,0,61.44-8.665,85.858-25.206
	c41.748,25.206,70.892,67.742,79.557,115.791H42.535z"/>
<path style="fill:#FBBD5E;" d="M307.988,200.074c0,0-8.665,121.305-125.243,94.523c0,0-55.138-8.665-61.44-73.255l-5.514-18.117
	l-14.178-92.948l61.44-43.323l100.037-4.726l48.049,35.446v74.043L307.988,200.074z"/>
<path style="fill:#183651;" d="M213.465,306.412c-10.24,0-21.268-1.575-33.083-3.938l0,0c0,0-59.865-10.24-66.954-79.557
	l-5.514-17.329V204.8l-14.178-92.948c-0.788-3.151,0.788-6.302,3.151-7.877l62.228-44.111c0.788-0.788,2.363-0.788,3.938-0.788
	l100.037-4.726c1.575,0,3.938,0.788,4.726,1.575l48.049,35.446c2.363,1.575,3.151,3.938,3.151,6.302v74.043v0.788l-3.151,28.357
	C315.865,201.649,306.412,306.412,213.465,306.412z M123.668,201.649l5.514,18.117c0,0.788,0,0.788,0,1.575
	c5.514,58.289,54.351,66.166,54.351,66.166c11.028,2.363,21.268,3.938,29.932,3.938c77.982,0,85.858-87.434,86.646-91.372
	l3.151-28.357v-70.105l-42.535-31.508l-94.523,3.938l-55.926,39.385L123.668,201.649z"/>
<path style="fill:#F06151;" d="M115.791,203.225c0,0,4.726-18.117-17.329-29.932c0,0-40.172-103.975,55.138-134.695
	c0,0-7.089-7.877-5.514-20.48c0,0,13.391,8.665,81.132,4.726c0,0,44.111,3.938,56.714,40.172c0,0,68.529,0,37.809,107.126
	c0,0-16.542,9.452-15.754,29.932c0,0,14.178-115.791-44.111-103.188c0,0-52.775,25.994-89.797-10.24
	C174.08,86.646,104.763,83.495,115.791,203.225z"/>
<g>
	<path style="fill:#183651;" d="M115.791,211.102C115.003,211.102,115.003,211.102,115.791,211.102
		c-4.726,0-7.877-3.151-7.877-7.089s-0.788-7.877-0.788-11.815c-1.575-4.726-6.302-9.452-12.603-12.603
		c-1.575-0.788-3.151-2.363-3.151-3.938c-0.788-2.363-20.48-53.563,0.788-96.886c9.452-20.48,26.782-35.446,50.412-45.686
		c-1.575-4.726-2.363-10.24-1.575-17.329c0-2.363,2.363-4.726,4.726-6.302c2.363-0.788,5.514-0.788,7.877,0.788l0,0
		c0,0,10.24,4.726,46.474,4.726c8.665,0,18.905,0,29.932-0.788h0.788c1.575,0,45.686,4.726,61.44,40.96
		c7.877,1.575,23.631,5.514,34.658,20.48c15.754,20.48,17.329,52.775,4.726,96.098c-0.788,2.363-1.575,3.938-3.938,4.726
		c0,0-7.877,4.726-11.028,14.178c-0.788,6.302-0.788,9.452-0.788,9.452c-0.788,3.938-3.938,7.089-7.877,7.089
		c-3.938,0-7.089-3.151-7.877-7.089c0-3.938,0-7.877,0.788-11.815c2.363-37.809-2.363-66.954-13.391-78.769
		c-5.514-5.514-11.815-7.089-20.48-5.514c-3.938,1.575-22.055,9.452-43.323,9.452c-20.48,0-37.809-6.302-51.988-18.905
		c-5.514,0.788-17.329,3.151-28.357,14.178c-14.966,15.754-22.055,43.323-20.48,80.345c2.363,8.665,0.788,14.966,0.788,15.754
		C122.092,208.738,118.942,211.102,115.791,211.102z M104.763,167.778c0.788,0.788,1.575,0.788,1.575,1.575
		c1.575-31.508,9.452-55.138,24.418-70.892c17.329-18.117,37.809-18.905,41.748-18.905h0.788c1.575,0,3.938,0.788,4.726,2.363
		c11.815,11.028,25.994,17.329,43.323,17.329c20.48,0,37.809-7.877,37.809-7.877c0.788,0,0.788-0.788,1.575-0.788
		c14.966-3.151,26.782,0,36.234,10.24c13.391,14.178,17.329,40.96,18.117,63.803c9.452-35.446,7.877-62.228-3.151-77.194
		c-11.028-14.966-27.569-14.966-28.357-14.966c-3.151,0-6.302-2.363-7.089-5.514c-10.24-29.145-44.898-34.658-49.625-34.658
		c-11.028,0.788-20.48,0.788-29.932,0.788c-20.48,0-33.871-1.575-41.748-3.151c0.788,2.363,2.363,3.938,2.363,3.938
		c1.575,2.363,2.363,4.726,1.575,7.089c-0.788,2.363-2.363,4.726-4.726,5.514c-24.418,7.877-40.96,21.268-49.625,40.172
		C90.585,118.154,101.612,157.538,104.763,167.778z"/>
	<rect x="149.662" y="415.902" style="fill:#183651;" width="15.754" height="15.754"/>
	<rect x="205.588" y="415.902" style="fill:#183651;" width="15.754" height="15.754"/>
	<rect x="261.514" y="415.902" style="fill:#183651;" width="15.754" height="15.754"/>
</g>
<g>
</g>
<g>
</g>
<g>
</g>
<g>
</g>
<g>
</g>
<g>
</g>
<g>
</g>
<g>
</g>
<g>
</g>
<g>
</g>
<g>
</g>
<g>
</g>
<g>
</g>
<g>
</g>
<g>
</g>
</svg>
