<?xml version="1.0" encoding="iso-8859-1"?>
<!-- Generator: Adobe Illustrator 19.0.0, SVG Export Plug-In . SVG Version: 6.00 Build 0)  -->
<svg version="1.1" id="Capa_1" xmlns="http://www.w3.org/2000/svg" xmlns:xlink="http://www.w3.org/1999/xlink" x="0px" y="0px"
	 viewBox="0 0 504.123 504.123" style="enable-background:new 0 0 504.123 504.123;" xml:space="preserve">
<circle style="fill:#FFFFFF;" cx="252.062" cy="252.062" r="244.185"/>
<path style="fill:#183651;" d="M252.062,504.123C113.428,504.123,0,390.695,0,252.062S113.428,0,252.062,0
	s252.062,113.428,252.062,252.062S390.695,504.123,252.062,504.123z M252.062,14.966c-130.757,0-237.095,106.338-237.095,237.095
	s106.338,237.095,237.095,237.095s237.095-106.338,237.095-237.095S382.818,14.966,252.062,14.966z"/>
<circle style="fill:#4FBF9F;" cx="249.698" cy="293.809" r="43.323"/>
<g>
	<path style="fill:#183651;" d="M249.698,341.071c-25.994,0-47.262-21.268-47.262-47.262s21.268-47.262,47.262-47.262
		s47.262,21.268,47.262,47.262S275.692,341.071,249.698,341.071z M249.698,253.637c-22.055,0-40.172,18.117-40.172,40.172
		c0,22.055,18.117,40.172,40.172,40.172s40.172-18.117,40.172-40.172C289.871,271.754,271.754,253.637,249.698,253.637z"/>
	<rect x="205.588" y="433.231" style="fill:#183651;" width="14.966" height="14.966"/>
	<rect x="244.185" y="433.231" style="fill:#183651;" width="14.966" height="14.966"/>
	<rect x="283.569" y="433.231" style="fill:#183651;" width="14.966" height="14.966"/>
	<rect x="437.957" y="205.588" style="fill:#183651;" width="14.966" height="14.966"/>
	<rect x="437.957" y="244.185" style="fill:#183651;" width="14.966" height="14.966"/>
	<rect x="437.957" y="283.569" style="fill:#183651;" width="14.966" height="14.966"/>
	<rect x="50.412" y="205.588" style="fill:#183651;" width="14.966" height="14.966"/>
	<rect x="50.412" y="244.185" style="fill:#183651;" width="14.966" height="14.966"/>
	<rect x="50.412" y="283.569" style="fill:#183651;" width="14.966" height="14.966"/>
</g>
<path style="fill:#2EA0DA;" d="M78.769,386.757h131.545c0-25.994-15.754-48.837-37.809-59.865
	c-6.302,5.514-14.966,10.24-26.782,10.24c-3.938,0-7.877-0.788-12.603-1.575c-4.726-0.788-11.028-3.151-16.542-8.665
	C93.735,337.92,78.769,360.763,78.769,386.757z"/>
<path style="fill:#FBBD5E;" d="M175.655,292.234c0,0-3.151,39.385-40.96,30.72c0,0-18.117-2.363-19.692-23.631l-1.575-6.302
	l-4.726-29.932l19.692-14.178l32.295-1.575l15.754,11.028v23.631L175.655,292.234z"/>
<path style="fill:#F06151;" d="M113.428,293.022c0,0,1.575-5.514-5.514-9.452c0,0-12.603-33.871,18.117-43.323
	c0,0-2.363-2.363-1.575-6.302c0,0,3.938,2.363,25.994,1.575c0,0,14.178,1.575,18.117,12.603c0,0,22.055,0,11.815,34.658
	c0,0-5.514,3.151-4.726,9.452c0,0,4.726-37.809-14.178-33.083c0,0-17.329,8.665-29.145-3.151
	C132.332,255.212,109.489,254.425,113.428,293.022z"/>
<path style="fill:#2EA0DA;" d="M294.597,386.757h131.545c0-25.994-15.754-48.837-37.809-59.865
	c-6.302,5.514-14.966,10.24-26.782,10.24c-3.938,0-7.877-0.788-12.603-1.575c-4.726-0.788-11.028-3.151-16.542-8.665
	C309.563,337.92,294.597,360.763,294.597,386.757z"/>
<path style="fill:#FBBD5E;" d="M391.483,292.234c0,0-3.151,39.385-40.96,30.72c0,0-18.117-2.363-19.692-23.631l-1.575-6.302
	l-4.726-29.932l19.692-14.178l32.295-1.575l15.754,11.028v23.631L391.483,292.234z"/>
<path style="fill:#F06151;" d="M329.255,293.022c0,0,1.575-5.514-5.514-9.452c0,0-12.603-33.871,18.117-43.323
	c0,0-2.363-2.363-1.575-6.302c0,0,3.938,2.363,25.994,1.575c0,0,14.178,1.575,18.117,12.603c0,0,22.055,0,11.815,34.658
	c0,0-5.514,3.151-4.726,9.452c0,0,4.726-37.809-14.178-33.083c0,0-17.329,8.665-29.145-3.151
	C348.16,255.212,325.317,254.425,329.255,293.022z"/>
<path style="fill:#2EA0DA;" d="M186.683,208.738h131.545c0-25.994-15.754-48.837-37.809-59.865
	c-6.302,5.514-14.966,10.24-26.782,10.24c-3.938,0-7.877-0.788-12.603-1.575c-4.726-0.788-11.028-3.151-16.542-8.665
	C201.649,159.902,186.683,182.745,186.683,208.738z"/>
<path style="fill:#FBBD5E;" d="M283.569,113.428c0,0-3.151,39.385-40.96,30.72c0,0-18.117-2.363-19.692-23.631l-1.575-6.302
	l-4.726-29.145l19.692-14.178l32.295-1.575l15.754,11.028v23.631L283.569,113.428z"/>
<path style="fill:#F06151;" d="M221.342,115.003c0,0,1.575-5.514-5.514-9.452c0,0-12.603-33.871,18.117-43.323
	c0,0-2.363-2.363-1.575-6.302c0,0,3.938,2.363,25.994,1.575c0,0,14.178,1.575,18.117,12.603c0,0,22.055,0,11.815,34.658
	c0,0-5.514,3.151-4.726,9.452c0,0,4.726-37.809-14.178-33.083c0,0-17.329,8.665-29.145-3.151
	C240.246,77.194,217.403,76.406,221.342,115.003z"/>
<g>
	<polygon style="fill:#183651;" points="385.182,195.348 370.215,195.348 370.215,101.612 311.926,101.612 311.926,85.858 
		385.182,85.858 	"/>
	<polygon style="fill:#183651;" points="378.092,206.375 345.797,173.292 356.825,162.265 378.092,184.32 398.572,162.265 
		409.6,173.292 	"/>
	<polygon style="fill:#183651;" points="133.908,195.348 118.942,195.348 118.942,85.858 192.197,85.858 192.197,101.612 
		133.908,101.612 	"/>
	<polygon style="fill:#183651;" points="126.031,206.375 94.523,173.292 105.551,162.265 126.031,184.32 147.298,162.265 
		158.326,173.292 	"/>
</g>
<polygon style="fill:#FFFFFF;" points="244.972,311.138 226.068,293.022 233.157,285.932 244.972,297.748 266.24,276.48 
	272.542,282.782 "/>
<g>
</g>
<g>
</g>
<g>
</g>
<g>
</g>
<g>
</g>
<g>
</g>
<g>
</g>
<g>
</g>
<g>
</g>
<g>
</g>
<g>
</g>
<g>
</g>
<g>
</g>
<g>
</g>
<g>
</g>
</svg>
