<?xml version="1.0" encoding="iso-8859-1"?>
<!-- Generator: Adobe Illustrator 19.0.0, SVG Export Plug-In . SVG Version: 6.00 Build 0)  -->
<svg version="1.1" id="Capa_1" xmlns="http://www.w3.org/2000/svg" xmlns:xlink="http://www.w3.org/1999/xlink" x="0px" y="0px"
	 viewBox="0 0 504.123 504.123" style="enable-background:new 0 0 504.123 504.123;" xml:space="preserve">
<rect x="7.877" y="7.877" style="fill:#F06151;" width="488.369" height="305.625"/>
<path style="fill:#183651;" d="M496.246,321.378H7.877c-4.726,0-7.877-3.151-7.877-7.877V7.877C0,3.151,3.151,0,7.877,0h488.369
	c4.726,0,7.877,3.151,7.877,7.877v305.625C504.123,317.44,500.972,321.378,496.246,321.378z M15.754,305.625h472.615V15.754H15.754
	V305.625z"/>
<rect x="39.385" y="39.385" style="fill:#FFFFFF;" width="425.354" height="242.609"/>
<path style="fill:#2CA0DA;" d="M457.649,440.32l-57.502-31.508l-57.502,31.508c-10.24,5.514-17.329,17.329-17.329,29.145v26.782
	h148.874v-26.782C474.978,457.649,468.677,445.834,457.649,440.32z"/>
<path style="fill:#183651;" d="M474.978,504.123H326.105c-4.726,0-7.877-3.151-7.877-7.877v-26.782
	c0-14.966,7.877-29.145,21.268-36.234l57.502-31.508c2.363-1.575,5.514-1.575,7.877,0l57.502,31.508
	c13.391,7.089,21.268,21.268,21.268,36.234v26.782C482.855,500.972,479.705,504.123,474.978,504.123z M333.982,488.369h133.12
	v-18.905c0-9.452-4.726-18.117-13.391-22.055l-53.563-29.145l-53.563,29.145c-7.877,4.726-13.391,13.391-13.391,22.055v18.905
	H333.982z"/>
<path style="fill:#FFFFFF;" d="M437.957,375.729c0,25.206-16.542,53.563-37.022,53.563s-37.022-28.357-37.022-53.563
	c0-25.206,16.542-37.809,37.022-37.809S437.957,350.523,437.957,375.729z"/>
<path style="fill:#183651;" d="M400.935,437.169c-25.994,0-45.686-32.295-45.686-61.44c0-27.569,18.117-45.686,45.686-45.686
	c26.782,0,44.898,18.117,44.898,45.686C445.834,404.874,426.929,437.169,400.935,437.169z M400.935,345.797
	c-18.117,0-29.932,11.028-29.932,29.932c0,22.843,14.966,45.686,29.932,45.686s29.145-22.843,29.145-45.686
	C430.08,356.825,419.052,345.797,400.935,345.797z"/>
<path style="fill:#E1E6E7;" d="M309.563,440.32l-57.502-31.508L194.56,440.32c-10.24,5.514-17.329,17.329-17.329,29.145v26.782
	h148.874v-26.782C326.105,457.649,319.803,445.834,309.563,440.32z"/>
<path style="fill:#183651;" d="M326.105,504.123H178.018c-4.726,0-7.877-3.151-7.877-7.877v-26.782
	c0-14.966,7.877-29.145,21.268-36.234l57.502-31.508c2.363-1.575,5.514-1.575,7.877,0l57.502,31.508
	c13.391,7.089,21.268,21.268,21.268,36.234v26.782C333.982,500.972,330.831,504.123,326.105,504.123z M185.895,488.369h133.12
	v-18.905c0-9.452-4.726-18.117-13.391-22.055l-53.563-29.145l-53.563,29.145c-7.877,4.726-13.391,13.391-13.391,22.055v18.905
	H185.895z"/>
<path style="fill:#FFFFFF;" d="M289.871,375.729c0,25.206-16.542,53.563-37.022,53.563s-37.022-28.357-37.022-53.563
	c0-25.206,16.542-37.809,37.022-37.809S289.871,350.523,289.871,375.729z"/>
<path style="fill:#183651;" d="M252.062,437.169c-25.994,0-44.898-32.295-44.898-61.44c0-27.569,18.117-45.686,44.898-45.686
	s45.686,18.117,45.686,45.686C297.748,404.874,278.055,437.169,252.062,437.169z M252.062,345.797
	c-18.117,0-29.145,11.028-29.145,29.932c0,22.843,14.966,45.686,29.145,45.686c14.966,0,29.932-22.843,29.932-45.686
	C281.994,356.825,270.178,345.797,252.062,345.797z"/>
<path style="fill:#FBBD5E;" d="M160.689,440.32l-57.502-31.508L45.686,440.32c-10.24,5.514-17.329,17.329-17.329,29.145v26.782
	h148.874v-26.782C178.018,457.649,170.929,445.834,160.689,440.32z"/>
<path style="fill:#183651;" d="M178.018,504.123H29.145c-4.726,0-7.877-3.151-7.877-7.877v-26.782
	c0-14.966,7.877-29.145,21.268-36.234l57.502-31.508c2.363-1.575,5.514-1.575,7.877,0l57.502,31.508
	c13.391,7.089,21.268,21.268,21.268,36.234v26.782C185.895,500.972,181.957,504.123,178.018,504.123z M37.022,488.369h133.12
	v-18.905c0-9.452-4.726-18.117-13.391-22.055l-53.563-29.145l-53.563,29.145c-7.877,4.726-13.391,13.391-13.391,22.055v18.905
	H37.022z"/>
<path style="fill:#FFFFFF;" d="M140.997,375.729c0,25.206-16.542,53.563-37.022,53.563s-37.022-28.357-37.022-53.563
	c0-25.206,16.542-37.809,37.022-37.809S140.997,350.523,140.997,375.729z"/>
<g>
	<path style="fill:#183651;" d="M103.188,437.169c-25.994,0-45.686-32.295-45.686-61.44c0-27.569,18.117-45.686,45.686-45.686
		s44.898,18.117,44.898,45.686C148.874,404.874,129.182,437.169,103.188,437.169z M103.188,345.797
		c-18.117,0-29.932,11.028-29.932,29.932c0,22.843,14.966,45.686,29.932,45.686s29.145-22.843,29.145-45.686
		C133.12,356.825,122.092,345.797,103.188,345.797z"/>
	<path style="fill:#183651;" d="M79.557,197.711c-3.151-3.151-3.151-7.877,0-11.028l63.015-63.015c3.151-3.151,7.877-3.151,11.028,0
		l33.871,33.871l61.44-61.44c3.151-3.151,7.877-3.151,11.028,0l58.289,58.289l95.311-95.311c3.151-3.151,7.877-3.151,11.028,0
		c3.151,3.151,3.151,7.877,0,11.028L324.529,170.929c-3.151,3.151-7.877,3.151-11.028,0l-58.289-58.289l-62.228,61.44
		c-3.151,3.151-7.877,3.151-11.028,0l-33.871-33.871l-57.502,57.502C87.434,200.862,82.708,200.862,79.557,197.711z"/>
	<polygon style="fill:#183651;" points="426.929,109.489 411.175,109.489 411.175,72.468 374.942,72.468 374.942,56.714 
		426.929,56.714 	"/>
	<rect x="103.975" y="165.415" style="fill:#183651;" width="15.754" height="92.948"/>
	<rect x="153.6" y="142.572" style="fill:#183651;" width="15.754" height="115.003"/>
	<rect x="207.163" y="140.209" style="fill:#183651;" width="15.754" height="118.154"/>
	<rect x="259.938" y="115.003" style="fill:#183651;" width="15.754" height="143.36"/>
	<rect x="313.502" y="162.265" style="fill:#183651;" width="15.754" height="95.311"/>
	<rect x="367.065" y="109.489" style="fill:#183651;" width="15.754" height="148.874"/>
	<rect x="70.105" y="64.591" style="fill:#183651;" width="15.754" height="15.754"/>
	<rect x="109.489" y="64.591" style="fill:#183651;" width="15.754" height="15.754"/>
	<rect x="148.086" y="64.591" style="fill:#183651;" width="15.754" height="15.754"/>
</g>
<g>
</g>
<g>
</g>
<g>
</g>
<g>
</g>
<g>
</g>
<g>
</g>
<g>
</g>
<g>
</g>
<g>
</g>
<g>
</g>
<g>
</g>
<g>
</g>
<g>
</g>
<g>
</g>
<g>
</g>
</svg>
