<?xml version="1.0" encoding="iso-8859-1"?>
<!-- Generator: Adobe Illustrator 19.0.0, SVG Export Plug-In . SVG Version: 6.00 Build 0)  -->
<svg version="1.1" id="Capa_1" xmlns="http://www.w3.org/2000/svg" xmlns:xlink="http://www.w3.org/1999/xlink" x="0px" y="0px"
	 viewBox="0 0 504.123 504.123" style="enable-background:new 0 0 504.123 504.123;" xml:space="preserve">
<circle style="fill:#FBBD5E;" cx="252.062" cy="252.062" r="252.062"/>
<rect x="391.483" y="7.877" style="fill:#FFFFFF;" width="47.262" height="351.311"/>
<path style="fill:#183651;" d="M438.745,367.065h-47.262c-4.726,0-7.877-3.151-7.877-7.877V7.877c0-4.726,3.151-7.877,7.877-7.877
	h47.262c4.726,0,7.877,3.151,7.877,7.877v351.311C446.622,363.126,442.683,367.065,438.745,367.065z M399.36,351.311h31.508V15.754
	H399.36V351.311z"/>
<polyline style="fill:#F06151;" points="391.483,88.222 391.483,359.188 438.745,359.188 438.745,88.222 "/>
<path style="fill:#183651;" d="M438.745,367.065h-47.262c-4.726,0-7.877-3.151-7.877-7.877V88.222c0-4.726,3.151-7.877,7.877-7.877
	c4.726,0,7.877,3.151,7.877,7.877v263.089h31.508V88.222c0-4.726,3.151-7.877,7.877-7.877s7.877,3.151,7.877,7.877v270.966
	C446.622,363.126,442.683,367.065,438.745,367.065z"/>
<rect x="228.431" y="7.877" style="fill:#FFFFFF;" width="47.262" height="351.311"/>
<path style="fill:#183651;" d="M275.692,367.065h-47.262c-4.726,0-7.877-3.151-7.877-7.877V7.877c0-4.726,3.151-7.877,7.877-7.877
	h47.262c4.726,0,7.877,3.151,7.877,7.877v351.311C283.569,363.126,280.418,367.065,275.692,367.065z M236.308,351.311h31.508V15.754
	h-31.508V351.311z"/>
<polyline style="fill:#4FBF9F;" points="228.431,149.662 228.431,359.188 275.692,359.188 275.692,149.662 "/>
<path style="fill:#183651;" d="M275.692,367.065h-47.262c-4.726,0-7.877-3.151-7.877-7.877V149.662c0-4.726,3.151-7.877,7.877-7.877
	c4.726,0,7.877,3.151,7.877,7.877v201.649h31.508V149.662c0-4.726,3.151-7.877,7.877-7.877c4.726,0,7.877,3.151,7.877,7.877v209.526
	C283.569,363.126,280.418,367.065,275.692,367.065z"/>
<rect x="65.378" y="7.877" style="fill:#FFFFFF;" width="47.262" height="351.311"/>
<path style="fill:#183651;" d="M112.64,367.065H65.378c-4.726,0-7.877-3.151-7.877-7.877V7.877C57.502,3.151,60.652,0,65.378,0
	h47.262c4.726,0,7.877,3.151,7.877,7.877v351.311C120.517,363.126,117.366,367.065,112.64,367.065z M73.255,351.311h31.508V15.754
	H73.255V351.311z"/>
<polyline style="fill:#E1E6E7;" points="65.378,209.526 65.378,359.188 112.64,359.188 112.64,209.526 "/>
<g>
	<path style="fill:#183651;" d="M112.64,367.065H65.378c-4.726,0-7.877-3.151-7.877-7.877V209.526c0-4.726,3.151-7.877,7.877-7.877
		s7.877,3.151,7.877,7.877v141.785h31.508V209.526c0-4.726,3.151-7.877,7.877-7.877s7.877,3.151,7.877,7.877v149.662
		C120.517,363.126,117.366,367.065,112.64,367.065z"/>
	<rect x="325.317" y="299.323" style="fill:#183651;" width="15.754" height="15.754"/>
	<rect x="325.317" y="252.062" style="fill:#183651;" width="15.754" height="15.754"/>
	<rect x="325.317" y="204.8" style="fill:#183651;" width="15.754" height="15.754"/>
	<rect x="325.317" y="157.538" style="fill:#183651;" width="15.754" height="15.754"/>
	<rect x="325.317" y="110.277" style="fill:#183651;" width="15.754" height="15.754"/>
	<rect x="325.317" y="63.015" style="fill:#183651;" width="15.754" height="15.754"/>
	<rect x="163.052" y="299.323" style="fill:#183651;" width="15.754" height="15.754"/>
	<rect x="163.052" y="252.062" style="fill:#183651;" width="15.754" height="15.754"/>
	<rect x="163.052" y="204.8" style="fill:#183651;" width="15.754" height="15.754"/>
	<rect x="163.052" y="157.538" style="fill:#183651;" width="15.754" height="15.754"/>
	<rect x="163.052" y="110.277" style="fill:#183651;" width="15.754" height="15.754"/>
	<rect x="163.052" y="63.015" style="fill:#183651;" width="15.754" height="15.754"/>
</g>
<path style="fill:#2CA0DA;" d="M477.342,434.806l-62.228-33.871l-62.228,33.871c-11.815,6.302-18.905,18.905-18.905,32.295v29.145
	h163.052v-29.145C496.246,453.711,489.157,441.108,477.342,434.806z"/>
<path style="fill:#183651;" d="M496.246,504.123H333.194c-4.726,0-7.877-3.151-7.877-7.877v-29.145
	c0-16.542,8.665-31.508,22.843-39.385l62.228-33.871c2.363-1.575,5.514-1.575,7.877,0l62.228,33.871
	c14.178,7.877,22.843,22.843,22.843,39.385v29.145C504.123,500.972,500.972,504.123,496.246,504.123z M341.071,488.369h147.298
	v-21.268c0-10.24-5.514-20.48-14.966-25.206L414.326,409.6l-59.077,32.295c-9.452,4.726-14.966,14.966-14.966,25.206v21.268H341.071
	z"/>
<path style="fill:#F06151;" d="M314.289,434.806l-62.228-33.871l-62.228,33.871c-11.815,6.302-18.905,18.905-18.905,32.295v29.145
	h163.052v-29.145C333.194,453.711,326.105,441.108,314.289,434.806z"/>
<path style="fill:#183651;" d="M333.194,504.123H170.929c-4.726,0-7.877-3.151-7.877-7.877v-29.145
	c0-16.542,8.665-31.508,22.843-39.385l62.228-33.871c2.363-1.575,5.514-1.575,7.877,0l62.228,33.871
	c14.178,7.877,22.843,22.843,22.843,39.385v29.145C341.071,500.972,337.92,504.123,333.194,504.123z M178.806,488.369h147.298
	v-21.268c0-10.24-5.514-20.48-14.966-25.206L252.062,409.6l-59.077,32.295c-9.452,4.726-14.966,14.966-14.966,25.206v21.268H178.806
	z"/>
<path style="fill:#FFFFFF;" d="M456.074,363.914c0,27.569-18.117,59.077-40.96,59.077c-22.843,0-40.96-30.72-40.96-59.077
	c0-27.569,18.117-41.748,40.96-41.748C437.957,322.166,456.074,336.345,456.074,363.914z"/>
<path style="fill:#183651;" d="M415.114,430.868c-27.569,0-48.837-35.446-48.837-66.954c0-29.932,19.692-49.625,48.837-49.625
	s48.837,19.692,48.837,49.625C463.951,395.422,442.683,430.868,415.114,430.868z M415.114,330.831
	c-20.48,0-33.083,12.603-33.083,33.871c0,25.206,16.542,51.2,33.083,51.2c16.542,0,33.083-25.994,33.083-51.2
	C448.197,343.434,435.594,330.831,415.114,330.831z"/>
<path style="fill:#FFFFFF;" d="M293.022,363.914c0,27.569-18.117,59.077-40.96,59.077s-40.96-30.72-40.96-59.077
	c0-27.569,18.117-41.748,40.96-41.748S293.022,336.345,293.022,363.914z"/>
<path style="fill:#183651;" d="M252.062,430.868c-27.569,0-48.837-35.446-48.837-66.954c0-29.932,19.692-49.625,48.837-49.625
	s48.837,19.692,48.837,49.625C300.898,395.422,279.631,430.868,252.062,430.868z M252.062,330.831
	c-20.48,0-33.083,12.603-33.083,33.871c0,25.206,16.542,51.2,33.083,51.2s33.083-25.994,33.083-51.2
	C285.145,343.434,272.542,330.831,252.062,330.831z"/>
<path style="fill:#4FBF9F;" d="M152.025,434.806l-62.228-33.871l-62.228,33.871c-11.815,6.302-18.905,18.905-18.905,32.295v29.145
	h163.052v-29.145C170.929,453.711,163.052,441.108,152.025,434.806z"/>
<path style="fill:#183651;" d="M170.929,504.123H7.877c-4.726,0-7.877-3.151-7.877-7.877v-29.145
	c0-16.542,8.665-31.508,22.843-39.385l62.228-33.871c2.363-1.575,5.514-1.575,7.877,0l62.228,33.871
	c14.178,7.877,22.843,22.843,22.843,39.385v29.145C178.806,500.972,174.868,504.123,170.929,504.123z M15.754,488.369h147.298
	v-21.268c0-10.24-5.514-20.48-14.966-25.206L89.009,409.6l-59.077,32.295c-9.452,4.726-14.966,14.966-14.966,25.206v21.268H15.754z"
	/>
<path style="fill:#FFFFFF;" d="M129.969,363.914c0,27.569-18.117,59.077-40.96,59.077s-40.96-30.72-40.96-59.077
	c0-27.569,18.117-41.748,40.96-41.748S129.969,336.345,129.969,363.914z"/>
<path style="fill:#183651;" d="M89.009,430.868c-27.569,0-48.837-35.446-48.837-66.954c0-29.932,19.692-49.625,48.837-49.625
	s48.837,20.48,48.837,49.625C137.846,395.422,117.366,430.868,89.009,430.868z M89.009,330.831
	c-20.48,0-33.083,12.603-33.083,33.871c0,25.206,16.542,51.2,33.083,51.2s33.083-25.994,33.083-51.2
	C122.092,343.434,110.277,330.831,89.009,330.831z"/>
<g>
</g>
<g>
</g>
<g>
</g>
<g>
</g>
<g>
</g>
<g>
</g>
<g>
</g>
<g>
</g>
<g>
</g>
<g>
</g>
<g>
</g>
<g>
</g>
<g>
</g>
<g>
</g>
<g>
</g>
</svg>
