<?xml version="1.0" encoding="iso-8859-1"?>
<!-- Generator: Adobe Illustrator 19.0.0, SVG Export Plug-In . SVG Version: 6.00 Build 0)  -->
<svg version="1.1" id="Capa_1" xmlns="http://www.w3.org/2000/svg" xmlns:xlink="http://www.w3.org/1999/xlink" x="0px" y="0px"
	 viewBox="0 0 504.269 504.269" style="enable-background:new 0 0 504.269 504.269;" xml:space="preserve">
<circle style="fill:#FBBD5E;" cx="346.731" cy="346.658" r="157.538"/>
<path style="fill:#E0E4E8;" d="M317.586,7.95c-116.578,140.997,116.578,281.206,0,422.203c-81.132,0-194.56,0-275.692,0
	c116.578-140.997-116.578-281.206,0-422.203C123.026,7.95,236.454,7.95,317.586,7.95z"/>
<path style="fill:#183651;" d="M317.586,438.03H41.894c-3.151,0-5.514-1.575-7.089-4.726c-1.575-3.151-0.788-6.302,0.788-8.665
	c55.138-66.954,27.569-133.12-1.575-203.225C4.872,150.522-25.848,77.267,35.592,3.224c1.575-1.575,3.938-3.151,6.302-3.151h275.692
	c3.151,0,5.514,1.575,7.089,4.726c1.575,3.151,0.788,6.302-0.788,8.665c-55.138,66.954-27.569,133.12,1.575,203.225
	c29.932,71.68,59.865,144.935-1.575,218.978C322.313,437.242,319.949,438.03,317.586,438.03z M57.648,422.276h256
	c51.988-66.166,25.206-130.757-3.151-200.074c-27.569-66.954-56.714-136.271-8.665-206.375h-256
	c-51.988,66.166-25.206,130.757,3.151,200.074C76.552,283.642,105.697,352.959,57.648,422.276z"/>
<path style="fill:#FFFFFF;" d="M94.669,400.221c26.782-67.742-0.788-133.12-25.206-192.985
	C39.531,135.556,22.989,87.507,56.86,37.882h207.951c-26.782,67.742,0.788,133.12,25.206,192.985
	c29.932,71.68,46.474,119.729,12.603,170.142H94.669V400.221z"/>
<path style="fill:#183651;" d="M214.399,88.295H83.642c-4.726,0-7.877-3.151-7.877-7.877c0-4.726,3.151-7.877,7.877-7.877h130.757
	c4.726,0,7.877,3.151,7.877,7.877C222.276,85.144,218.337,88.295,214.399,88.295z"/>
<path style="fill:#183651;" d="M219.912,143.433H89.156c-4.726,0-7.877-3.151-7.877-7.877s3.151-7.877,7.877-7.877h130.757
	c4.726,0,7.877,3.151,7.877,7.877S224.639,143.433,219.912,143.433z"/>
<path style="fill:#183651;" d="M233.303,198.572H102.546c-4.726,0-7.877-3.151-7.877-7.877c0-4.726,3.151-7.877,7.877-7.877h130.757
	c4.726,0,7.877,3.151,7.877,7.877C241.18,195.421,238.029,198.572,233.303,198.572z"/>
<path style="fill:#183651;" d="M255.359,253.71H125.389c-4.726,0-7.877-3.151-7.877-7.877s3.151-7.877,7.877-7.877h130.757
	c4.726,0,7.877,3.151,7.877,7.877C263.236,250.559,260.085,253.71,255.359,253.71z"/>
<g>
	<path style="fill:#183651;" d="M267.962,308.849H137.205c-4.726,0-7.877-3.151-7.877-7.877c0-4.726,3.151-7.877,7.877-7.877
		h130.757c4.726,0,7.877,3.151,7.877,7.877C275.839,305.698,272.688,308.849,267.962,308.849z"/>
	<rect x="137.205" y="346.658" style="fill:#183651;" width="15.754" height="14.966"/>
	<rect x="175.802" y="346.658" style="fill:#183651;" width="15.754" height="14.966"/>
</g>
<circle style="fill:#F06151;" cx="346.731" cy="346.658" r="128.394"/>
<path style="fill:#183651;" d="M346.731,483.716c-75.618,0-137.058-61.44-137.058-136.271S271.9,210.387,346.731,210.387
	c75.618,0,136.271,61.44,136.271,136.271S422.349,483.716,346.731,483.716z M346.731,226.141
	c-66.954,0-121.305,54.351-121.305,120.517s54.351,120.517,121.305,120.517s121.305-53.563,121.305-120.517
	S413.685,226.141,346.731,226.141z"/>
<path style="fill:#FFFFFF;" d="M346.731,445.907c-54.351,0-98.462-44.111-98.462-98.462s44.111-99.249,98.462-99.249
	s98.462,44.111,98.462,98.462S401.082,445.907,346.731,445.907z"/>
<g>
	<rect x="258.509" y="339.569" style="fill:#183651;" width="15.754" height="14.966"/>
	<rect x="419.986" y="339.569" style="fill:#183651;" width="15.754" height="14.966"/>
	
		<rect x="282.114" y="396.127" transform="matrix(-0.7071 -0.7071 0.7071 -0.7071 208.6996 894.4537)" style="fill:#183651;" width="14.966" height="15.754"/>
	
		<rect x="396.282" y="281.765" transform="matrix(-0.707 -0.7072 0.7072 -0.707 484.3932 779.9668)" style="fill:#183651;" width="14.966" height="15.754"/>
	<rect x="339.642" y="419.913" style="fill:#183651;" width="14.966" height="15.754"/>
	<rect x="339.642" y="258.436" style="fill:#183651;" width="14.966" height="15.754"/>
	
		<rect x="396.532" y="396.418" transform="matrix(-0.7071 -0.7071 0.7071 -0.7071 404.7675 975.4621)" style="fill:#183651;" width="15.754" height="14.966"/>
	
		<rect x="282.182" y="282.266" transform="matrix(-0.7071 -0.7071 0.7071 -0.7071 290.2784 699.736)" style="fill:#183651;" width="15.754" height="14.966"/>
	<polygon style="fill:#183651;" points="382.965,354.535 338.854,354.535 338.854,289.944 354.608,289.944 354.608,338.781 
		382.965,338.781 	"/>
</g>
<g>
</g>
<g>
</g>
<g>
</g>
<g>
</g>
<g>
</g>
<g>
</g>
<g>
</g>
<g>
</g>
<g>
</g>
<g>
</g>
<g>
</g>
<g>
</g>
<g>
</g>
<g>
</g>
<g>
</g>
</svg>
