<?xml version="1.0" encoding="iso-8859-1"?>
<!-- Generator: Adobe Illustrator 19.0.0, SVG Export Plug-In . SVG Version: 6.00 Build 0)  -->
<svg version="1.1" id="Capa_1" xmlns="http://www.w3.org/2000/svg" xmlns:xlink="http://www.w3.org/1999/xlink" x="0px" y="0px"
	 viewBox="0 0 504.123 504.123" style="enable-background:new 0 0 504.123 504.123;" xml:space="preserve">
<circle style="fill:#E0E4E8;" cx="307.988" cy="307.988" r="196.135"/>
<path style="fill:#FFFFFF;" d="M495.458,389.12v-40.96l-29.932-3.938c-2.363-9.452-6.302-18.905-11.028-27.569l18.905-23.631
	l-28.357-28.357l-23.631,18.905c-8.665-4.726-17.329-8.665-27.569-11.028l-3.938-29.932h-40.96l-3.939,29.145
	c-9.452,2.363-18.905,6.302-27.569,11.028l-23.631-18.905l-28.357,28.357l18.905,23.631c-4.726,8.665-8.665,17.329-11.028,27.569
	l-29.932,3.938v40.96l29.932,3.938c2.363,9.452,6.302,18.905,11.028,27.569l-18.905,23.631l28.357,28.357l23.631-18.905
	c8.665,4.726,17.329,8.665,27.569,11.028l3.938,29.932h40.96l3.938-29.932c9.452-2.363,18.905-6.302,27.569-11.028l23.631,18.905
	l28.357-29.145l-18.905-23.631c4.726-8.665,8.665-17.329,11.028-27.569L495.458,389.12z"/>
<path style="fill:#183651;" d="M389.12,503.335h-40.96c-3.938,0-7.089-3.151-7.877-7.089l-3.151-25.206
	c-7.089-2.363-13.391-4.726-19.692-7.877l-19.692,15.754c-3.151,2.363-7.877,2.363-10.24-0.788l-28.357-28.357
	c-3.151-3.151-3.151-7.089-0.788-10.24l15.754-19.692c-3.151-6.302-6.302-12.603-7.877-19.692l-25.206-3.151
	c-3.938-0.788-7.089-3.938-7.089-7.877v-40.96c0-3.938,3.151-7.089,7.089-7.877l25.206-3.151c2.363-7.089,4.726-13.391,7.877-19.692
	l-15.754-19.692c-2.363-3.151-2.363-7.877,0.788-10.24l28.357-28.357c3.151-3.151,7.089-3.151,10.24-0.788l19.692,15.754
	c6.302-3.151,12.603-6.302,19.692-7.877l3.151-25.206c0.788-3.938,3.938-7.089,7.877-7.089h40.96c3.938,0,7.089,3.151,7.877,7.089
	l3.151,25.206c7.089,2.363,13.391,4.726,19.692,7.877l19.692-15.754c3.151-2.363,7.877-2.363,10.24,0.788l28.357,28.357
	c3.151,3.151,3.151,7.089,0.788,10.24l-15.754,19.692c3.151,6.302,6.302,12.603,7.877,19.692l25.206,3.151
	c3.938,0.788,7.089,3.938,7.089,7.877v40.96c0,3.938-3.151,7.089-7.089,7.877l-25.206,3.151c-2.363,7.089-4.726,13.391-7.877,19.692
	l15.754,19.692c2.363,3.151,2.363,7.877-0.788,10.24l-28.357,29.145c-3.151,3.151-7.089,3.151-10.24,0.788l-19.692-15.754
	c-6.302,3.151-12.603,6.302-19.692,7.877l-3.151,25.206C396.997,500.185,393.058,503.335,389.12,503.335z M356.037,487.582h26.782
	l3.151-22.843c0-3.151,2.363-5.514,6.302-6.302c8.665-2.363,17.329-5.514,25.206-10.24c3.151-1.575,6.302-1.575,8.665,0.788
	l18.117,14.178l18.905-18.905l-14.178-18.117c-2.363-2.363-2.363-6.302-0.788-8.665c4.726-7.877,7.877-16.542,10.24-25.206
	c0.788-3.151,3.151-5.514,6.302-6.302l22.843-3.151v-26.782l-22.843-3.151c-3.151-0.788-5.514-2.363-6.302-6.302
	c-2.363-8.665-5.514-17.329-10.24-25.206c-1.575-3.151-1.575-6.302,0.788-8.665l14.178-18.117l-18.905-18.905l-18.117,14.178
	c-2.363,2.363-6.302,2.363-8.665,0.788c-7.877-4.726-16.542-7.877-25.206-10.24c-3.151-0.788-5.514-3.151-6.302-6.302l-3.151-22.843
	h-26.782l-3.151,22.843c-0.788,3.151-2.363,5.514-6.302,6.302c-8.665,2.363-17.329,5.514-25.206,10.24
	c-3.151,1.575-6.302,1.575-8.665-0.788l-18.117-14.178l-18.905,18.905l14.178,18.117c2.363,2.363,2.363,6.302,0.788,8.665
	c-4.726,7.877-7.877,16.542-10.24,25.206c-0.788,3.151-3.151,5.514-6.302,6.302l-22.843,3.151v25.994l22.843,3.151
	c3.151,0,5.514,2.363,6.302,6.302c2.363,8.665,5.514,17.329,10.24,25.206c1.575,3.151,1.575,6.302-0.788,8.665l-14.178,18.117
	l18.905,18.905l18.117-14.178c2.363-2.363,6.302-2.363,8.665-0.788c7.877,4.726,16.542,7.877,25.206,10.24
	c3.151,0.788,5.514,3.151,6.302,6.302L356.037,487.582z"/>
<circle style="fill:#F06151;" cx="369.428" cy="368.64" r="70.892"/>
<circle style="fill:#FFFFFF;" cx="369.428" cy="368.64" r="28.357"/>
<path style="fill:#183651;" d="M369.428,404.874c-19.692,0-36.234-16.542-36.234-36.234c0-19.692,16.542-36.234,36.234-36.234
	s36.234,16.542,36.234,36.234C405.662,388.332,389.12,404.874,369.428,404.874z M369.428,348.16c-11.028,0-20.48,9.452-20.48,20.48
	c0,11.028,9.452,20.48,20.48,20.48c11.028,0,20.48-9.452,20.48-20.48C389.908,357.612,380.455,348.16,369.428,348.16z"/>
<circle style="fill:#FBBD5E;" cx="191.409" cy="191.409" r="183.532"/>
<path style="fill:#183651;" d="M191.409,382.818C85.858,382.818,0,296.96,0,191.409S85.858,0,191.409,0
	s191.409,85.858,191.409,191.409S296.96,382.818,191.409,382.818z M191.409,15.754c-96.886,0-175.655,78.769-175.655,175.655
	s78.769,175.655,175.655,175.655s175.655-78.769,175.655-175.655S288.295,15.754,191.409,15.754z"/>
<g>
	<path style="fill:#FFFFFF;" d="M191.409,342.646c-82.708,0-150.449-67.742-150.449-151.237S108.702,40.172,191.409,40.172
		s151.237,67.742,151.237,151.237S274.905,342.646,191.409,342.646z"/>
	<path style="fill:#FFFFFF;" d="M215.04,228.431v87.434c51.2-9.452,91.372-49.625,100.825-100.825"/>
</g>
<g>
	<path style="fill:#183651;" d="M207.163,325.317v-96.886h15.754v77.194c43.323-11.815,76.406-48.049,85.071-92.16l15.754,3.151
		c-10.24,53.563-53.563,96.886-107.126,107.126L207.163,325.317z"/>
	<polygon style="fill:#183651;" points="231.582,262.302 215.04,241.034 199.286,262.302 186.683,252.062 215.04,215.828 
		244.185,252.062 	"/>
</g>
<path style="fill:#FFFFFF;" d="M229.218,167.778h87.434c-10.24-51.2-50.412-91.372-101.612-100.825"/>
<g>
	<path style="fill:#183651;" d="M325.317,175.655h-96.098v-15.754h77.194c-11.815-43.323-48.049-77.194-92.16-85.071l2.363-15.754
		c53.563,10.24,96.886,53.563,107.126,107.126L325.317,175.655z"/>
	<polygon style="fill:#183651;" points="252.849,196.135 215.828,167.778 252.849,139.422 262.302,152.025 241.822,167.778 
		262.302,183.532 	"/>
</g>
<path style="fill:#FFFFFF;" d="M168.566,154.388V66.954c-51.2,9.452-91.372,49.625-100.825,100.825"/>
<g>
	<path style="fill:#183651;" d="M74.831,169.354l-15.754-3.151C70.105,112.64,112.64,69.317,166.991,59.077l9.452-1.575v96.886
		h-15.754V77.194C117.366,89.009,83.495,125.243,74.831,169.354z"/>
	<polygon style="fill:#183651;" points="168.566,166.991 139.422,129.969 152.025,120.517 168.566,141.785 184.32,120.517 
		196.923,129.969 	"/>
</g>
<path style="fill:#FFFFFF;" d="M154.388,215.04H66.954c9.452,51.2,49.625,91.372,100.825,100.825"/>
<g>
	<path style="fill:#183651;" d="M166.991,323.742c-54.351-10.24-96.886-53.563-107.126-107.126l-1.575-9.452h96.886v15.754H77.982
		c11.815,43.323,48.049,77.194,92.16,85.071L166.991,323.742z"/>
	<polygon style="fill:#183651;" points="130.757,243.397 121.305,230.794 141.785,215.04 121.305,198.498 130.757,186.683 
		167.778,215.04 	"/>
	
		<rect x="130.128" y="264.808" transform="matrix(-0.8261 -0.5636 0.5636 -0.8261 95.4515 574.8287)" style="fill:#183651;" width="12.604" height="15.755"/>
	
		<rect x="241.237" y="101.65" transform="matrix(-0.8262 -0.5634 0.5634 -0.8262 390.3462 339.4778)" style="fill:#183651;" width="12.603" height="15.754"/>
	
		<rect x="265.684" y="240.342" transform="matrix(-0.8261 -0.5635 0.5635 -0.8261 360.5672 604.5523)" style="fill:#183651;" width="15.754" height="12.603"/>
	
		<rect x="102.522" y="129.25" transform="matrix(-0.8261 -0.5635 0.5635 -0.8261 125.2164 309.7432)" style="fill:#183651;" width="15.754" height="12.603"/>
	<rect x="469.465" y="33.083" style="fill:#183651;" width="15.754" height="15.754"/>
	<rect x="469.465" y="82.708" style="fill:#183651;" width="15.754" height="15.754"/>
	<rect x="469.465" y="132.332" style="fill:#183651;" width="15.754" height="15.754"/>
	<rect x="128.394" y="454.498" style="fill:#183651;" width="15.754" height="15.754"/>
	<rect x="78.769" y="454.498" style="fill:#183651;" width="15.754" height="15.754"/>
	<rect x="29.932" y="454.498" style="fill:#183651;" width="15.754" height="15.754"/>
</g>
<g>
</g>
<g>
</g>
<g>
</g>
<g>
</g>
<g>
</g>
<g>
</g>
<g>
</g>
<g>
</g>
<g>
</g>
<g>
</g>
<g>
</g>
<g>
</g>
<g>
</g>
<g>
</g>
<g>
</g>
</svg>
