<?xml version="1.0" encoding="iso-8859-1"?>
<!-- Generator: Adobe Illustrator 19.0.0, SVG Export Plug-In . SVG Version: 6.00 Build 0)  -->
<svg version="1.1" id="Capa_1" xmlns="http://www.w3.org/2000/svg" xmlns:xlink="http://www.w3.org/1999/xlink" x="0px" y="0px"
	 viewBox="0 0 504.194 504.194" style="enable-background:new 0 0 504.194 504.194;" xml:space="preserve">
<path style="fill:#F06151;" d="M215.828,71.322C96.886,71.322,0,168.208,0,287.149s96.886,215.828,215.828,215.828
	s215.828-96.886,215.828-215.828S335.557,71.322,215.828,71.322z"/>
<rect x="192.985" y="60.294" style="fill:#FFFFFF;" width="46.474" height="46.474"/>
<path style="fill:#183651;" d="M239.458,114.645h-46.474c-4.726,0-7.877-3.151-7.877-7.877V60.294c0-4.726,3.151-7.877,7.877-7.877
	h46.474c4.726,0,7.877,3.151,7.877,7.877v46.474C247.335,110.706,244.185,114.645,239.458,114.645z M200.862,98.891h30.72v-30.72
	h-30.72V98.891z"/>
<path style="fill:#FBBD5E;" d="M405.662,272.183c9.452,117.366-87.434,214.252-204.8,204.8
	c-92.16-7.877-166.991-81.92-174.08-174.08c-9.452-117.366,87.434-214.252,204.8-204.8
	C323.742,105.192,398.572,180.023,405.662,272.183z"/>
<path style="fill:#183651;" d="M215.828,484.86c-108.702,0-197.711-88.222-197.711-197.711
	c0-108.702,89.009-197.711,197.711-197.711s197.711,89.009,197.711,197.711C414.326,396.639,325.317,484.86,215.828,484.86z
	 M215.828,105.192c-100.037,0-181.957,81.92-181.957,181.957s81.92,181.957,181.957,181.957s181.957-81.92,181.957-181.957
	S316.652,105.192,215.828,105.192z"/>
<g>
	<path style="fill:#FFFFFF;" d="M232.369,446.263C131.545,456.503,47.262,372.22,57.502,271.396
		c7.089-74.831,67.742-134.695,142.572-142.572c100.825-10.24,185.108,74.043,174.868,174.868
		C367.852,378.522,307.2,439.174,232.369,446.263z"/>
</g>
<path style="fill:#183651;" d="M341.071,155.605c-3.151-3.151-3.151-7.877,0-11.028l23.631-23.631c3.151-3.151,7.877-3.151,11.028,0
	c3.151,3.151,3.151,7.877,0,11.028l-23.631,23.631C349.735,158.756,344.222,158.756,341.071,155.605z"/>
<path style="fill:#183651;" d="M80.345,155.605l-23.631-23.631c-3.151-3.151-3.151-7.877,0-11.028c3.151-3.151,7.877-3.151,11.028,0
	l23.631,23.631c3.151,3.151,3.151,7.877,0,11.028C88.222,158.756,82.708,158.756,80.345,155.605z"/>
<rect x="170.142" y="9.094" style="fill:#FFFFFF;" width="91.372" height="50.412"/>
<path style="fill:#183651;" d="M261.514,68.171h-91.372c-4.726,0-7.877-3.151-7.877-7.877v-51.2c0-4.726,3.151-7.877,7.877-7.877
	h91.372c4.726,0,7.877,3.151,7.877,7.877v50.412C269.391,64.232,266.24,68.171,261.514,68.171z M178.018,52.417h75.618V16.971
	h-75.618V52.417z"/>
<path style="fill:#FFFFFF;" d="M215.828,265.094c-12.603,0-22.843,10.24-22.843,22.843c0,12.603,10.24,22.843,22.843,22.843
	c12.603,0,22.843-10.24,22.843-22.843C238.671,275.334,228.431,265.094,215.828,265.094z"/>
<path style="fill:#183651;" d="M215.828,317.869c-16.542,0-30.72-13.391-30.72-30.72c0-17.329,13.391-30.72,30.72-30.72
	c16.542,0,30.72,13.391,30.72,30.72C246.548,304.479,233.157,317.869,215.828,317.869z M215.828,272.971
	c-7.877,0-14.966,6.302-14.966,14.966s6.302,14.966,14.966,14.966c7.877,0,14.966-6.302,14.966-14.966
	S224.492,272.971,215.828,272.971z"/>
<path style="fill:#183651;" d="M432.443,295.026H238.671c-4.726,0-7.877-3.151-7.877-7.877s3.151-7.877,7.877-7.877h193.772
	c4.726,0,7.877,3.151,7.877,7.877S437.169,295.026,432.443,295.026z"/>
<polygon style="fill:#FFFFFF;" points="496.246,309.992 450.56,309.992 432.443,287.149 450.56,265.094 496.246,265.094 
	478.129,287.149 "/>
<path style="fill:#183651;" d="M496.246,317.869L496.246,317.869H450.56c-2.363,0-4.726-0.788-6.302-3.151l-18.117-22.843
	c-2.363-3.151-2.363-7.089,0-10.24l18.117-22.843c1.575-1.575,3.938-3.151,6.302-3.151h45.686c3.151,0,5.514,1.575,7.089,4.726
	c1.575,2.363,0.788,6.302-0.788,8.665l-14.178,17.329l13.391,16.542c1.575,1.575,2.363,3.938,2.363,6.302
	C504.123,314.719,500.972,317.869,496.246,317.869z M454.498,302.116h25.206l-7.877-9.452c-2.363-3.151-2.363-7.089,0-10.24
	l7.877-9.452h-25.206l-11.815,14.966L454.498,302.116z"/>
<path style="fill:#FFFFFF;" d="M301.686,264.306c-7.877-29.932-32.295-54.351-62.228-62.228"/>
<path style="fill:#183651;" d="M294.597,265.882c-7.877-27.569-29.145-49.625-56.714-56.714c-3.938-0.788-6.302-5.514-5.514-9.452
	c0.788-3.938,5.514-6.302,9.452-5.514c33.083,8.665,59.077,34.658,67.742,67.742c0.788,3.938-1.575,8.665-5.514,9.452
	C299.323,272.971,295.385,270.608,294.597,265.882z"/>
<path style="fill:#FFFFFF;" d="M192.985,202.079c-29.932,7.877-54.351,32.295-62.228,62.228"/>
<path style="fill:#183651;" d="M128.394,271.396c-3.938-0.788-6.302-5.514-5.514-9.452c8.665-33.083,34.658-59.077,67.742-67.742
	c3.938-0.788,8.665,1.575,9.452,5.514c0.788,3.938-1.575,8.665-5.514,9.452c-27.569,7.877-49.625,29.145-56.714,56.714
	C137.058,270.608,133.12,272.971,128.394,271.396z"/>
<path style="fill:#FFFFFF;" d="M239.458,373.008c29.932-7.877,54.351-32.295,62.228-62.228"/>
<path style="fill:#183651;" d="M231.582,375.371c-0.788-3.938,1.575-8.665,5.514-9.452c27.569-7.877,49.625-29.145,56.714-56.714
	c0.788-3.938,5.514-6.302,9.452-5.514c3.938,0.788,6.302,5.514,5.514,9.452c-8.665,33.083-34.658,59.077-67.742,67.742
	C237.095,381.672,233.157,379.309,231.582,375.371z"/>
<path style="fill:#FFFFFF;" d="M130.757,310.78c7.877,29.932,32.295,54.351,62.228,62.228"/>
<g>
	<path style="fill:#183651;" d="M190.622,380.885c-33.083-8.665-59.077-34.658-67.742-67.742c-0.788-3.938,1.575-8.665,5.514-9.452
		c3.938-0.788,8.665,1.575,9.452,5.514c7.877,27.569,29.145,49.625,56.714,56.714c3.938,0.788,6.302,5.514,5.514,9.452
		C199.286,379.309,195.348,381.672,190.622,380.885z"/>
	<rect x="207.163" y="145.365" style="fill:#183651;" width="17.329" height="15.754"/>
	<rect x="207.163" y="413.968" style="fill:#183651;" width="17.329" height="15.754"/>
	
		<rect x="302.373" y="184.677" transform="matrix(-0.7071 -0.7071 0.7071 -0.7071 394.8186 548.6467)" style="fill:#183651;" width="17.329" height="15.754"/>
	
		<rect x="112.522" y="374.566" transform="matrix(-0.7071 -0.7071 0.7071 -0.7071 -63.5497 738.5623)" style="fill:#183651;" width="17.329" height="15.754"/>
	<rect x="74.043" y="278.485" style="fill:#183651;" width="15.754" height="17.329"/>
	
		<rect x="303.152" y="373.74" transform="matrix(-0.7071 -0.7071 0.7071 -0.7071 260.5591 872.7355)" style="fill:#183651;" width="15.754" height="17.329"/>
	
		<rect x="113.295" y="183.928" transform="matrix(-0.7071 -0.7071 0.7071 -0.7071 70.6694 414.4567)" style="fill:#183651;" width="15.754" height="17.329"/>
</g>
<g>
</g>
<g>
</g>
<g>
</g>
<g>
</g>
<g>
</g>
<g>
</g>
<g>
</g>
<g>
</g>
<g>
</g>
<g>
</g>
<g>
</g>
<g>
</g>
<g>
</g>
<g>
</g>
<g>
</g>
</svg>
