<?xml version="1.0" encoding="iso-8859-1"?>
<!-- Generator: Adobe Illustrator 19.0.0, SVG Export Plug-In . SVG Version: 6.00 Build 0)  -->
<svg version="1.1" id="Capa_1" xmlns="http://www.w3.org/2000/svg" xmlns:xlink="http://www.w3.org/1999/xlink" x="0px" y="0px"
	 viewBox="0 0 504.123 504.123" style="enable-background:new 0 0 504.123 504.123;" xml:space="preserve">
<path style="fill:#FBBD5E;" d="M222.507,332.406c-44.111,0-85.858-17.329-117.366-48.837c-64.591-64.591-64.591-170.142,0-234.732
	C136.649,17.329,178.396,0,222.507,0s85.858,17.329,117.366,48.837c64.591,64.591,64.591,170.142,0,234.732
	C309.153,315.077,267.406,332.406,222.507,332.406z"/>
<path style="fill:#FFFFFF;" d="M332.784,286.72c-29.145,25.994-67.742,42.535-110.277,42.535s-81.132-15.754-110.277-42.535
	c-47.262,33.871-78.769,89.797-78.769,152.812v56.714h378.092v-56.714C411.553,376.517,380.833,320.591,332.784,286.72z"/>
<path style="fill:#183651;" d="M411.553,504.123H33.461c-3.938,0-7.089-3.151-7.089-7.089V440.32
	c0-63.015,30.72-122.092,81.92-159.114c3.151-2.363,7.089-1.575,9.452,0.788c29.145,25.994,66.166,40.172,105.551,40.172
	s76.406-14.178,105.551-40.172c2.363-2.363,6.302-2.363,9.452-0.788c51.2,37.022,81.92,96.098,81.92,159.114v56.714
	C418.642,500.972,415.492,504.123,411.553,504.123z M41.338,489.157h363.126v-49.625c0-55.926-25.994-109.489-70.892-143.36
	c-30.72,25.994-70.105,40.172-110.277,40.172s-79.557-14.178-110.277-40.172c-44.111,34.658-70.892,87.434-70.892,143.36v49.625
	H41.338z"/>
<path style="fill:#4FBF9F;" d="M71.27,459.225v-19.692c0-39.385,15.754-77.194,42.535-104.763
	c32.295,20.48,70.105,31.508,108.702,31.508s76.406-11.028,108.702-31.508c26.782,28.357,42.535,65.378,42.535,104.763v19.692H71.27
	z"/>
<circle style="fill:#FFFFFF;" cx="222.507" cy="166.203" r="133.12"/>
<path style="fill:#183651;" d="M222.507,306.412c-37.809,0-72.468-14.966-99.249-40.96s-40.96-61.44-40.96-99.249
	s14.966-72.468,40.96-99.249s61.44-40.96,99.249-40.96s72.468,14.966,99.249,40.96s40.96,61.44,40.96,99.249
	s-14.966,72.468-40.96,99.249S260.316,306.412,222.507,306.412z M222.507,40.96c-33.871,0-65.378,13.391-89.009,37.022
	s-37.022,55.138-37.022,89.009s13.391,65.378,37.022,89.009s55.138,37.022,89.009,37.022s65.378-13.391,89.009-37.022
	s37.022-55.138,37.022-89.009s-13.391-65.378-37.022-89.009S256.378,40.96,222.507,40.96z"/>
<path style="fill:#F06151;" d="M222.507,266.24c-26.782,0-51.988-10.24-70.892-29.145c-39.385-39.385-39.385-102.4,0-141.785
	c18.905-18.905,44.111-29.145,70.892-29.145s51.988,10.24,70.892,29.145c39.385,39.385,39.385,102.4,0,141.785
	C274.495,256,249.289,266.24,222.507,266.24z"/>
<path style="fill:#FFFFFF;" d="M222.507,226.855c-16.542,0-31.508-6.302-43.323-18.117c-23.631-23.631-23.631-62.228,0-85.858
	c11.815-11.815,26.782-18.117,43.323-18.117s31.508,6.302,43.323,18.117c23.631,23.631,23.631,62.228,0,85.858
	C254.015,220.554,239.049,226.855,222.507,226.855z"/>
<path style="fill:#F06151;" d="M222.507,188.258c-5.514,0-11.028-2.363-15.754-6.302c-8.665-8.665-8.665-22.055,0-30.72
	c3.938-3.938,9.452-6.302,15.754-6.302c5.514,0,11.028,2.363,15.754,6.302c3.938,3.938,6.302,9.452,6.302,15.754
	c0,5.514-2.363,11.028-6.302,15.754C233.535,185.895,228.809,188.258,222.507,188.258z"/>
<path style="fill:#183651;" d="M395.012,173.292H224.87c-3.938,0-7.089-3.151-7.089-7.089s3.151-7.089,7.089-7.089h170.929
	c3.938,0,7.089,3.151,7.089,7.089S399.738,173.292,395.012,173.292z"/>
<polygon style="fill:#FFFFFF;" points="469.055,192.985 419.43,192.985 394.224,165.415 419.43,137.846 469.055,137.846 
	444.636,165.415 "/>
<path style="fill:#183651;" d="M469.842,200.074C469.842,200.074,469.055,200.074,469.842,200.074H419.43
	c-2.363,0-3.938-0.788-5.514-2.363l-25.206-27.569c-2.363-3.151-2.363-7.089,0-10.24l25.206-27.569
	c1.575-1.575,3.151-2.363,5.514-2.363h50.412c3.151,0,5.514,1.575,7.089,4.726c1.575,2.363,0.788,5.514-1.575,7.877l-20.48,22.055
	l19.692,21.268c1.575,1.575,3.151,3.151,3.151,6.302C476.932,196.923,473.781,200.074,469.842,200.074z M422.581,185.108h29.932
	l-13.391-14.966c-2.363-3.151-2.363-7.089,0-10.24l13.391-14.178h-29.932l-18.117,19.692L422.581,185.108z"/>
<path style="fill:#183651;" d="M182.335,137.058L142.95,97.674c-3.151-3.151-3.151-7.877,0-10.24c3.151-3.151,7.877-3.151,10.24,0
	l39.385,39.385c3.151,3.151,3.151,7.877,0,10.24C190.212,139.422,185.486,139.422,182.335,137.058z"/>
<path style="fill:#183651;" d="M291.036,244.972l-39.385-39.385c-3.151-3.151-3.151-7.877,0-10.24c3.151-3.151,7.877-3.151,10.24,0
	l39.385,39.385c3.151,3.151,3.151,7.877,0,10.24C298.913,248.123,294.187,248.123,291.036,244.972z"/>
<path style="fill:#183651;" d="M252.439,137.058c-3.151-3.151-3.151-7.877,0-10.24l39.385-39.385c3.151-3.151,7.877-3.151,10.24,0
	c3.151,3.151,3.151,7.877,0,10.24l-39.385,39.385C259.529,139.422,254.803,139.422,252.439,137.058z"/>
<g>
	<path style="fill:#183651;" d="M143.738,244.972c-3.151-3.151-3.151-7.877,0-10.24l39.385-39.385c3.151-3.151,7.877-3.151,10.24,0
		c3.151,3.151,3.151,7.877,0,10.24l-39.385,39.385C150.827,248.123,146.101,248.123,143.738,244.972z"/>
	<rect x="167.369" y="407.237" style="fill:#183651;" width="14.966" height="14.966"/>
	<rect x="215.418" y="407.237" style="fill:#183651;" width="14.966" height="14.966"/>
	<rect x="262.679" y="407.237" style="fill:#183651;" width="14.966" height="14.966"/>
</g>
<g>
</g>
<g>
</g>
<g>
</g>
<g>
</g>
<g>
</g>
<g>
</g>
<g>
</g>
<g>
</g>
<g>
</g>
<g>
</g>
<g>
</g>
<g>
</g>
<g>
</g>
<g>
</g>
<g>
</g>
</svg>
