<?xml version="1.0" encoding="iso-8859-1"?>
<!-- Generator: Adobe Illustrator 19.0.0, SVG Export Plug-In . SVG Version: 6.00 Build 0)  -->
<svg version="1.1" id="Capa_1" xmlns="http://www.w3.org/2000/svg" xmlns:xlink="http://www.w3.org/1999/xlink" x="0px" y="0px"
	 viewBox="0 0 504.123 504.123" style="enable-background:new 0 0 504.123 504.123;" xml:space="preserve">
<rect x="8.22" y="76.406" style="fill:#FFFFFF;" width="487.582" height="330.043"/>
<path style="fill:#183651;" d="M496.589,414.326H8.22c-4.726,0-7.877-3.151-7.877-7.877V76.406c0-4.726,3.151-7.877,7.877-7.877
	h487.582c4.726,0,7.877,3.151,7.877,7.877v330.043C504.466,411.175,500.528,414.326,496.589,414.326z M16.097,398.572h471.828
	V84.283H16.097V398.572z"/>
<rect x="39.728" y="107.914" style="fill:#2EA0DA;" width="424.566" height="231.582"/>
<rect x="174.423" y="406.449" style="fill:#E0E4E8;" width="156.751" height="59.865"/>
<path style="fill:#183651;" d="M330.386,474.191H174.423c-4.726,0-7.877-3.151-7.877-7.877v-59.865c0-4.726,3.151-7.877,7.877-7.877
	h156.751c4.726,0,7.877,3.151,7.877,7.877v59.865C338.263,471.04,335.112,474.191,330.386,474.191z M182.3,458.437h140.997v-44.111
	H182.3V458.437z"/>
<rect x="137.402" y="466.314" style="fill:#CECFD0;" width="229.218" height="29.932"/>
<g>
	<path style="fill:#183651;" d="M367.408,504.123H137.402c-4.726,0-7.877-3.151-7.877-7.877v-29.932
		c0-4.726,3.151-7.877,7.877-7.877H366.62c4.726,0,7.877,3.151,7.877,7.877v29.932C375.285,500.972,371.346,504.123,367.408,504.123
		z M145.279,488.369h213.465v-14.178H145.279V488.369z"/>
	<rect x="294.152" y="273.329" style="fill:#183651;" width="15.754" height="15.754"/>
	<rect x="339.839" y="273.329" style="fill:#183651;" width="15.754" height="15.754"/>
	<rect x="384.737" y="273.329" style="fill:#183651;" width="15.754" height="15.754"/>
	<path style="fill:#183651;" d="M205.931,352.886c-6.302,0-11.815,5.514-11.815,11.815l0,0c0,6.302,5.514,11.815,11.815,11.815
		s11.815-5.514,11.815-11.815l0,0C217.746,358.4,212.232,352.886,205.931,352.886z"/>
	<path style="fill:#183651;" d="M252.405,352.886c-6.302,0-11.815,5.514-11.815,11.815l0,0c0,6.302,5.514,11.815,11.815,11.815
		c6.302,0,11.815-5.514,11.815-11.815l0,0C264.22,358.4,258.706,352.886,252.405,352.886z"/>
	<path style="fill:#183651;" d="M298.879,352.886c-6.302,0-11.815,5.514-11.815,11.815l0,0c0,6.302,5.514,11.815,11.815,11.815
		c6.302,0,11.815-5.514,11.815-11.815l0,0C310.694,358.4,305.18,352.886,298.879,352.886z"/>
</g>
<path style="fill:#FBBD5E;" d="M329.599,226.855h35.446l3.151-25.994c8.665-2.363,16.542-5.514,23.631-9.452l20.48,15.754
	l24.418-24.418l-15.754-20.48c4.726-7.089,7.877-14.966,9.452-23.631l25.994-3.151v-35.446l-25.994-3.151
	c-2.363-8.665-5.514-16.542-9.452-23.631l15.754-20.48l-24.418-25.206l-20.48,15.754c-7.089-4.726-14.966-7.877-23.631-9.452
	l-3.151-25.994h-35.446l-3.151,25.994c-8.665,2.363-16.542,5.514-23.631,9.452l-20.48-15.754l-24.418,24.418l15.754,20.48
	c-4.726,7.089-7.877,14.966-9.452,23.631l-25.994,3.151v35.446l25.994,3.151c2.363,8.665,5.514,16.542,9.452,23.631l-15.754,20.48
	l24.418,24.418l20.48-15.754c7.089,4.726,14.966,7.877,23.631,9.452L329.599,226.855z"/>
<path style="fill:#183651;" d="M365.045,234.732h-35.446c-3.938,0-7.089-3.151-7.877-7.089l-2.363-21.268
	c-5.514-1.575-11.028-3.938-15.754-6.302l-16.542,12.603c-3.151,2.363-7.877,2.363-10.24-0.788l-24.418-24.418
	c-3.151-3.151-3.151-7.089-0.788-10.24l12.603-16.542c-2.363-4.726-4.726-10.24-6.302-15.754l-20.48-2.363
	c-3.938-0.788-7.089-3.938-7.089-7.877V99.249c0-3.938,3.151-7.089,7.089-7.877l20.48-2.363c1.575-5.514,3.938-11.028,6.302-15.754
	l-12.603-16.542c-2.363-3.151-2.363-7.877,0.788-10.24l24.418-24.418c3.151-3.151,7.089-3.151,10.24-0.788l16.542,12.603
	c4.726-2.363,10.24-4.726,15.754-6.302l2.363-20.48C322.509,3.151,325.66,0,329.599,0h35.446c3.938,0,7.089,3.151,7.877,7.089
	l2.363,20.48c5.514,1.575,11.028,3.938,15.754,6.302l16.542-12.603c3.151-2.363,7.877-2.363,10.24,0.788l24.418,24.418
	c3.151,3.151,3.151,7.089,0.788,10.24l-12.603,16.542c2.363,4.726,4.726,10.24,6.302,15.754l20.48,2.363
	c3.938,0.788,7.089,3.938,7.089,7.877v35.446c0,3.938-3.151,7.089-7.089,7.877l-20.48,2.363c-1.575,5.514-3.938,11.028-6.302,15.754
	l12.603,16.542c2.363,3.151,2.363,7.877-0.788,10.24l-24.418,24.418c-3.151,3.151-7.089,3.151-10.24,0.788l-16.542-12.603
	c-4.726,2.363-10.24,4.726-15.754,6.302l-2.363,20.48C372.134,231.582,368.983,234.732,365.045,234.732z M336.688,218.978h21.268
	l2.363-18.905c0.788-3.151,2.363-5.514,6.302-6.302c7.877-1.575,14.966-4.726,21.268-8.665c3.151-1.575,6.302-1.575,8.665,0.788
	l14.966,11.815l14.966-14.966l-11.815-14.966c-2.363-2.363-2.363-6.302-0.788-8.665c3.938-6.302,7.089-14.178,8.665-21.268
	c0.788-3.151,3.151-5.514,6.302-6.302l18.905-2.363v-22.843l-18.117-2.363c-3.151-0.788-5.514-2.363-6.302-6.302
	c-1.575-7.877-4.726-14.966-8.665-21.268c-1.575-3.151-1.575-6.302,0.788-8.665l11.815-14.966l-14.966-14.966L397.34,49.625
	c-2.363,2.363-6.302,2.363-8.665,0.788c-7.877-3.938-14.966-7.089-22.055-8.665c-3.151-0.788-5.514-3.151-6.302-6.302l-2.363-18.905
	h-21.268l-2.363,18.905c-0.788,3.151-2.363,5.514-6.302,6.302c-7.877,1.575-14.966,4.726-21.268,8.665
	c-3.151,1.575-6.302,1.575-8.665-0.788l-14.966-11.815l-14.966,14.966l11.815,14.966c2.363,2.363,2.363,6.302,0.788,8.665
	c-3.938,7.089-7.089,14.178-8.665,22.055c-0.788,3.151-3.151,5.514-6.302,6.302l-19.692,1.575v21.268l18.905,2.363
	c3.151,0.788,5.514,2.363,6.302,6.302c1.575,7.877,4.726,14.966,8.665,21.268c1.575,3.151,1.575,6.302-0.788,8.665l-11.815,14.966
	l14.966,14.966l14.966-11.815c2.363-2.363,6.302-2.363,8.665-0.788c6.302,3.938,14.178,7.089,21.268,8.665
	c3.151,0.788,5.514,3.151,6.302,6.302L336.688,218.978z"/>
<circle style="fill:#FFFFFF;" cx="347.715" cy="117.366" r="37.022"/>
<path style="fill:#183651;" d="M347.715,162.265c-24.418,0-44.898-20.48-44.898-44.898s20.48-44.898,44.898-44.898
	c24.418,0,44.898,20.48,44.898,44.898c0,11.815-4.726,23.631-13.391,31.508C370.559,157.538,359.531,162.265,347.715,162.265z
	 M347.715,88.222c-15.754,0-29.145,13.391-29.145,29.145s13.391,29.145,29.145,29.145c7.877,0,14.966-3.151,20.48-8.665
	c5.514-5.514,8.665-12.603,8.665-20.48C376.86,100.825,363.469,88.222,347.715,88.222z"/>
<g>
	<path style="fill:#FFFFFF;" d="M127.949,315.865h27.569l2.363-20.48c6.302-1.575,12.603-3.938,18.117-7.877l15.754,12.603
		l19.692-19.692l-12.603-15.754c3.151-5.514,6.302-11.815,7.877-18.117l20.48-2.363v-27.569l-20.48-2.363
		c-1.575-6.302-3.938-12.603-7.877-18.117l12.603-15.754l-19.692-19.692l-15.754,12.603c-5.514-3.151-11.815-6.302-18.117-7.877
		l-2.363-19.692h-27.569l-2.363,20.48c-6.302,1.575-12.603,3.938-18.117,7.877l-15.754-12.603l-19.692,19.692l12.603,15.754
		c-3.151,5.514-6.302,11.815-7.877,18.117l-20.48,2.363v27.569l20.48,2.363c1.575,6.302,3.938,12.603,7.877,18.117l-12.603,15.754
		l19.692,19.692l15.754-12.603c5.514,3.151,11.815,6.302,18.117,7.877L127.949,315.865z"/>
	<circle style="fill:#FFFFFF;" cx="141.34" cy="230.794" r="29.145"/>
</g>
<path style="fill:#183651;" d="M141.34,267.815c-20.48,0-37.022-16.542-37.022-37.022s16.542-37.022,37.022-37.022
	s37.022,16.542,37.022,37.022C178.362,251.274,161.82,267.815,141.34,267.815z M141.34,209.526
	c-11.815,0-21.268,9.452-21.268,21.268s9.452,21.268,21.268,21.268s21.268-9.452,21.268-21.268S153.155,209.526,141.34,209.526z"/>
<g>
</g>
<g>
</g>
<g>
</g>
<g>
</g>
<g>
</g>
<g>
</g>
<g>
</g>
<g>
</g>
<g>
</g>
<g>
</g>
<g>
</g>
<g>
</g>
<g>
</g>
<g>
</g>
<g>
</g>
</svg>
