<?xml version="1.0" encoding="iso-8859-1"?>
<!-- Generator: Adobe Illustrator 19.0.0, SVG Export Plug-In . SVG Version: 6.00 Build 0)  -->
<svg version="1.1" id="Capa_1" xmlns="http://www.w3.org/2000/svg" xmlns:xlink="http://www.w3.org/1999/xlink" x="0px" y="0px"
	 viewBox="0 0 504.123 504.123" style="enable-background:new 0 0 504.123 504.123;" xml:space="preserve">
<circle style="fill:#FBBD5E;" cx="328.468" cy="175.655" r="175.655"/>
<path style="fill:#FFFFFF;" d="M433.231,428.505H7.877v14.966c0,29.145,23.631,52.775,52.775,52.775h319.803
	c29.145,0,52.775-23.631,52.775-52.775V428.505z"/>
<path style="fill:#183651;" d="M380.455,504.123H60.652C27.569,504.123,0,477.342,0,443.471v-14.966
	c0-4.726,3.151-7.877,7.877-7.877h425.354c4.726,0,7.877,3.151,7.877,7.877v14.966C441.108,477.342,414.326,504.123,380.455,504.123
	z M15.754,436.382v7.089c0,24.418,20.48,44.898,44.898,44.898h319.803c24.418,0,44.898-20.48,44.898-44.898v-7.089H15.754z"/>
<rect x="33.871" y="193.772" style="fill:#FFFFFF;" width="373.366" height="234.732"/>
<path style="fill:#183651;" d="M407.237,436.382H33.871c-4.726,0-7.877-3.151-7.877-7.877V193.772c0-4.726,3.151-7.877,7.877-7.877
	h373.366c4.726,0,7.877,3.151,7.877,7.877v234.732C415.114,432.443,411.175,436.382,407.237,436.382z M41.748,420.628H399.36
	V201.649H41.748V420.628z"/>
<rect x="65.378" y="225.28" style="fill:#2CA0DA;" width="310.351" height="171.717"/>
<g>
	<rect x="165.415" y="454.498" style="fill:#183651;" width="15.754" height="15.754"/>
	<rect x="220.554" y="454.498" style="fill:#183651;" width="15.754" height="15.754"/>
	<rect x="275.692" y="454.498" style="fill:#183651;" width="15.754" height="15.754"/>
</g>
<circle style="fill:#E1E6E7;" cx="328.468" cy="175.655" r="126.031"/>
<path style="fill:#183651;" d="M328.468,309.563c-74.043,0-133.908-59.865-133.908-133.908S254.425,41.748,328.468,41.748
	s133.908,59.865,133.908,133.908S401.723,309.563,328.468,309.563z M328.468,57.502c-65.378,0-118.154,52.775-118.154,118.154
	s52.775,118.154,118.154,118.154s118.154-52.775,118.154-118.154S393.058,57.502,328.468,57.502z"/>
<path style="fill:#FFFFFF;" d="M328.468,269.391c-51.2,0-92.948-41.748-92.948-92.948s41.748-93.735,92.948-93.735
	s92.948,41.748,92.948,92.948S379.668,269.391,328.468,269.391z"/>
<path style="fill:#F06151;" d="M360.763,175.655c0-3.151-0.788-6.302-1.575-9.452l7.877-6.302l-7.089-11.028l-8.665,3.938
	c-2.363-2.363-4.726-3.938-7.877-5.514l0.788-9.452l-12.603-3.151l-3.151,9.452c-3.151,0-6.302,0.788-9.452,1.575l-6.302-7.877
	l-11.028,7.089l3.938,8.665c-2.363,2.363-3.938,4.726-5.514,7.877l-9.452-0.788l-3.151,12.603l9.452,3.151
	c0,3.151,0.788,6.302,1.575,9.452l-7.877,6.302l7.089,11.028l8.665-3.938c2.363,2.363,4.726,3.938,7.877,5.514l-0.788,9.452
	l12.603,3.151l3.151-9.452c3.151,0,6.302-0.788,9.452-1.575l6.302,7.877l11.028-7.089l-3.938-8.665
	c2.363-2.363,3.938-4.726,5.514-7.877l9.452,0.788l3.151-12.603L360.763,175.655z M341.858,179.594
	c-1.575,7.877-9.452,12.603-17.329,10.24c-7.877-1.575-12.603-9.452-10.24-17.329c1.575-7.877,9.452-12.603,17.329-10.24
	C339.495,163.84,344.222,171.717,341.858,179.594z"/>
<circle style="fill:#FFFFFF;" cx="454.498" cy="175.655" r="21.268"/>
<path style="fill:#183651;" d="M454.498,204.8c-15.754,0-29.145-13.391-29.145-29.145s13.391-29.145,29.145-29.145
	s29.145,13.391,29.145,29.145C483.643,192.197,470.252,204.8,454.498,204.8z M454.498,162.265c-7.089,0-13.391,6.302-13.391,13.391
	s6.302,13.391,13.391,13.391c7.089,0,13.391-6.302,13.391-13.391S461.588,162.265,454.498,162.265z"/>
<circle style="fill:#FFFFFF;" cx="202.437" cy="175.655" r="21.268"/>
<path style="fill:#183651;" d="M202.437,204.8c-15.754,0-29.145-13.391-29.145-29.145s13.391-29.145,29.145-29.145
	s29.145,13.391,29.145,29.145C231.582,192.197,218.191,204.8,202.437,204.8z M202.437,162.265c-7.089,0-13.391,6.302-13.391,13.391
	s6.302,13.391,13.391,13.391c7.089,0,13.391-6.302,13.391-13.391S209.526,162.265,202.437,162.265z"/>
<circle style="fill:#FFFFFF;" cx="328.468" cy="301.686" r="21.268"/>
<path style="fill:#183651;" d="M328.468,330.831c-15.754,0-29.145-13.391-29.145-29.145s13.391-29.145,29.145-29.145
	s29.145,13.391,29.145,29.145C357.612,318.228,344.222,330.831,328.468,330.831z M328.468,288.295
	c-7.089,0-13.391,6.302-13.391,13.391c0,7.089,6.302,13.391,13.391,13.391c7.089,0,13.391-6.302,13.391-13.391
	C341.858,294.597,335.557,288.295,328.468,288.295z"/>
<circle style="fill:#FFFFFF;" cx="328.468" cy="49.625" r="21.268"/>
<g>
	<path style="fill:#183651;" d="M328.468,78.769c-15.754,0-29.145-13.391-29.145-29.145s13.391-29.145,29.145-29.145
		s29.145,13.391,29.145,29.145C357.612,66.166,344.222,78.769,328.468,78.769z M328.468,36.234c-7.089,0-13.391,6.302-13.391,13.391
		s6.302,13.391,13.391,13.391c7.089,0,13.391-6.302,13.391-13.391S335.557,36.234,328.468,36.234z"/>
	
		<rect x="369.283" y="119.241" transform="matrix(-0.707 -0.7072 0.7072 -0.707 554.5881 484.0001)" style="fill:#183651;" width="16.541" height="15.754"/>
	
		<rect x="271.237" y="216.782" transform="matrix(-0.7071 -0.7071 0.7071 -0.7071 318.2913 581.1583)" style="fill:#183651;" width="16.541" height="15.754"/>
	
		<rect x="369.447" y="216.63" transform="matrix(-0.7071 -0.7071 0.7071 -0.7071 485.1023 650.7381)" style="fill:#183651;" width="15.754" height="16.541"/>
	
		<rect x="270.798" y="118.572" transform="matrix(-0.7071 -0.7071 0.7071 -0.7071 386.0367 413.5875)" style="fill:#183651;" width="15.754" height="16.541"/>
</g>
<g>
	<rect x="91.372" y="334.769" style="fill:#FFFFFF;" width="15.754" height="15.754"/>
	<polygon style="fill:#FFFFFF;" points="91.372,241.822 91.372,319.015 107.126,319.015 107.126,257.575 185.895,257.575 
		185.895,241.822 	"/>
</g>
<g>
</g>
<g>
</g>
<g>
</g>
<g>
</g>
<g>
</g>
<g>
</g>
<g>
</g>
<g>
</g>
<g>
</g>
<g>
</g>
<g>
</g>
<g>
</g>
<g>
</g>
<g>
</g>
<g>
</g>
</svg>
