<?xml version="1.0" encoding="iso-8859-1"?>
<!-- Generator: Adobe Illustrator 19.0.0, SVG Export Plug-In . SVG Version: 6.00 Build 0)  -->
<svg version="1.1" id="Capa_1" xmlns="http://www.w3.org/2000/svg" xmlns:xlink="http://www.w3.org/1999/xlink" x="0px" y="0px"
	 viewBox="0 0 504.199 504.199" style="enable-background:new 0 0 504.199 504.199;" xml:space="preserve">
<path style="fill:#183651;" d="M271.633,475.865l-0.788-15.754c4.726,0,10.24-0.788,14.966-0.788l1.575,15.754
	C282.661,475.077,277.147,475.865,271.633,475.865z M255.092,475.865c-5.514,0-11.028-0.788-16.542-1.575l1.575-15.754
	c4.726,0.788,10.24,0.788,14.966,0.788V475.865z M303.928,472.714l-2.363-15.754c4.726-0.788,10.24-1.575,14.966-3.151l3.938,14.966
	C314.956,470.351,309.442,471.926,303.928,472.714z M222.796,471.926c-5.514-0.788-11.028-2.363-15.754-3.151l3.938-14.966
	c4.726,1.575,10.24,2.363,14.966,3.151L222.796,471.926z M335.436,464.837l-4.726-14.966c4.726-1.575,9.452-3.151,14.178-4.726
	l5.514,14.966C345.676,461.686,340.95,463.262,335.436,464.837z M191.288,464.049c-5.514-1.575-10.24-3.938-14.966-5.514
	l6.302-14.966c4.726,1.575,9.452,3.938,14.178,5.514L191.288,464.049z M366.156,453.022l-7.089-14.178
	c4.726-2.363,9.452-4.726,13.391-7.089l7.877,13.391C375.608,448.295,370.882,450.658,366.156,453.022z M161.356,452.234
	c-4.726-2.363-9.452-4.726-14.178-7.877l7.877-13.391c4.726,2.363,8.665,4.726,13.391,7.089L161.356,452.234z M394.513,437.268
	l-8.665-13.391c3.938-3.151,8.665-5.514,12.603-8.665l9.452,12.603C403.178,430.966,399.239,434.117,394.513,437.268z
	 M132.999,435.692c-4.726-3.151-8.665-6.302-13.391-9.452l10.24-12.603c3.938,3.151,7.877,6.302,12.603,8.665L132.999,435.692z
	 M420.507,417.575l-10.24-11.815c3.938-3.151,7.877-7.089,11.028-10.24l11.028,11.028
	C428.384,410.486,424.445,414.425,420.507,417.575z M107.005,415.212c-3.151-3.151-6.302-6.302-9.452-9.452l-2.363-2.363
	l11.028-11.028l2.363,2.363c3.151,3.151,6.302,5.514,8.665,8.665L107.005,415.212z M435.473,403.397l-11.028-11.028
	c3.151-3.938,7.089-7.089,10.24-11.028l11.815,10.24C442.562,395.52,439.411,399.458,435.473,403.397z M84.95,392.369
	c-3.151-3.938-7.089-8.665-10.24-12.603l12.603-9.452c3.151,3.938,6.302,7.877,9.452,11.815L84.95,392.369z M455.953,378.978
	l-12.603-9.452c3.151-3.938,5.514-8.665,8.665-12.603l13.391,8.665C462.255,369.526,459.104,374.252,455.953,378.978z
	 M65.258,366.375c-3.151-4.726-5.514-9.452-8.665-14.178l14.178-7.877c2.363,4.726,4.726,8.665,7.877,13.391L65.258,366.375z
	 M473.282,351.409l-14.178-7.089c2.363-4.726,4.726-8.665,7.089-13.391l14.178,6.302
	C478.796,341.169,476.433,346.683,473.282,351.409z M49.504,337.231c-2.363-4.726-4.726-10.24-6.302-14.966l14.966-5.514
	c1.575,4.726,3.938,9.452,5.514,14.178L49.504,337.231z M486.673,321.477l-14.966-5.514c1.575-4.726,3.151-9.452,4.726-14.178
	l14.966,4.726C490.612,311.237,489.036,315.963,486.673,321.477z M38.476,307.298c-1.575-5.514-3.151-10.24-3.938-15.754
	l15.754-3.151c0.788,4.726,2.363,10.24,3.938,14.966L38.476,307.298z M496.125,289.969l-15.754-3.151
	c0.788-4.726,2.363-10.24,2.363-14.966l15.754,2.363C498.488,279.729,496.913,284.455,496.125,289.969z M31.387,275.003
	c-0.788-5.514-1.575-11.028-1.575-16.542l15.754-1.575c0.788,4.726,0.788,10.24,1.575,14.966L31.387,275.003z M500.852,257.674
	l-15.754-1.575c0.788-4.726,0.788-10.24,0.788-14.966h15.754C501.639,247.434,501.639,252.16,500.852,257.674z M28.236,242.708
	v-3.151c0-3.938,0-8.665,0-12.603l15.754,0.788c0,3.938,0,7.877,0,11.815v3.151H28.236z M485.885,226.166
	c0-4.726-0.788-10.24-1.575-14.966l15.754-2.363c0.788,5.514,1.575,11.028,1.575,16.542L485.885,226.166z M45.565,211.988
	l-15.754-1.575c0.788-5.514,1.575-11.028,2.363-15.754l15.754,3.151C47.141,201.748,46.353,207.262,45.565,211.988z
	 M481.947,196.234c-0.788-4.726-2.363-10.24-3.151-14.966l14.966-3.938c1.575,5.514,2.363,10.24,3.938,15.754L481.947,196.234z
	 M51.867,182.055l-14.966-3.938c1.575-5.514,3.151-10.24,4.726-15.754l14.966,4.726C54.23,172.603,52.655,177.329,51.867,182.055z
	 M474.07,167.089c-1.575-4.726-3.151-9.452-5.514-14.178l14.178-6.302c2.363,4.726,3.938,10.24,5.514,14.966L474.07,167.089z
	 M61.319,153.698l-14.178-6.302c2.363-4.726,4.726-10.24,7.089-14.966l14.178,7.089C65.258,144.246,62.895,148.972,61.319,153.698z
	 M461.467,138.732c-2.363-4.726-4.726-8.665-7.089-13.391l13.391-7.877c3.151,4.726,5.514,9.452,7.877,14.178L461.467,138.732z
	 M74.71,126.129l-13.391-7.877c3.151-4.726,5.514-9.452,8.665-13.391l12.603,8.665C80.224,117.465,77.861,122.191,74.71,126.129z
	 M446.501,112.738c-3.151-3.938-6.302-7.877-9.452-11.815l12.603-10.24c3.151,3.938,7.089,8.665,9.452,13.391L446.501,112.738z
	 M92.039,101.711l-12.603-9.452c3.151-3.938,7.089-8.665,10.24-12.603l11.815,11.028C99.128,93.834,95.19,97.772,92.039,101.711z
	 M426.808,89.108c-1.575-2.363-3.938-3.938-5.514-6.302c-1.575-1.575-3.151-3.151-4.726-4.726l10.24-11.028
	c1.575,1.575,3.151,3.151,5.514,4.726c2.363,2.363,3.938,3.938,6.302,6.302L426.808,89.108z M112.519,78.868L101.492,67.84
	c3.938-3.938,7.877-7.089,11.815-11.028l10.24,11.815C120.396,71.778,116.458,75.717,112.519,78.868z M404.753,67.84
	c-3.938-3.151-7.877-6.302-11.815-9.452l9.452-12.603c4.726,3.151,8.665,6.302,12.603,10.24L404.753,67.84z M136.15,59.963
	l-9.452-12.603c4.726-3.151,8.665-6.302,13.391-8.665l8.665,12.603C144.815,53.662,140.088,56.812,136.15,59.963z M380.335,50.511
	c-4.726-2.363-8.665-5.514-13.391-7.089l7.089-14.178c4.726,2.363,9.452,5.514,14.178,7.877L380.335,50.511z M162.144,43.422
	l-7.089-14.178c4.726-2.363,9.452-4.726,14.966-7.089l6.302,14.178C171.596,38.695,166.87,41.058,162.144,43.422z M353.553,36.332
	c-4.726-2.363-9.452-3.938-14.178-5.514l5.514-14.966c4.726,1.575,10.24,3.938,14.966,6.302L353.553,36.332z M189.713,31.606
	l-4.726-14.966c4.726-1.575,10.24-3.151,15.754-4.726l3.938,14.966C199.953,28.455,194.439,29.243,189.713,31.606z M324.408,26.092
	c-4.726-1.575-9.452-2.363-14.966-3.938L312.593,6.4c5.514,0.788,10.24,2.363,15.754,3.938L324.408,26.092z M218.858,22.942
	l-3.151-15.754c5.514-0.788,11.028-2.363,15.754-3.151l2.363,15.754C229.098,21.366,224.372,22.154,218.858,22.942z M294.476,20.578
	c-4.726-0.788-9.452-1.575-14.966-1.575l0.788-15.754c5.514,0,11.028,0.788,16.542,1.575L294.476,20.578z M249.578,19.003
	L248.79,3.249c5.514,0,11.028-0.788,16.542-0.788v15.754C259.818,18.215,254.304,18.215,249.578,19.003z"/>
<path style="fill:#FBBD5E;" d="M263.756,275.003l-34.658-34.658L25.085,411.274c-22.055,18.117-23.631,51.2-3.151,70.892
	c20.48,19.692,52.775,18.905,70.892-3.151L263.756,275.003z"/>
<path style="fill:#183651;" d="M16.421,487.68c-23.631-23.631-21.268-61.44,3.938-82.708l204.012-170.142
	c3.151-2.363,7.877-2.363,10.24,0.788l34.658,34.658c3.151,3.151,3.151,7.877,0.788,10.24L99.128,483.742
	C77.861,508.948,40.052,511.311,16.421,487.68z M228.31,251.372L29.812,416.788c-18.117,15.754-18.905,43.323-2.363,59.865
	s44.111,15.754,59.865-2.363l165.415-198.498L228.31,251.372z"/>
<circle style="fill:#FFFFFF;" cx="312.593" cy="191.508" r="183.532"/>
<path style="fill:#183651;" d="M312.593,382.129c-51.2,0-99.249-19.692-135.483-55.926c-74.831-74.831-74.831-195.348,0-270.178
	c37.022-36.234,85.071-55.926,135.483-55.926c51.2,0,99.249,19.692,135.483,55.926c74.831,74.831,74.831,195.348,0,270.178
	C411.842,362.437,363.793,382.129,312.593,382.129z M312.593,15.852c-46.474,0-90.585,18.117-123.668,51.2
	c-68.529,68.529-68.529,179.594,0,248.123c33.083,33.083,77.194,51.2,123.668,51.2s90.585-18.117,123.668-51.2
	c68.529-68.529,68.529-179.594,0-248.123C403.965,33.969,359.855,15.852,312.593,15.852z"/>
<circle style="fill:#2EA0DA;" cx="312.593" cy="191.508" r="149.662"/>
<path style="fill:#FFFFFF;" d="M438.624,191.508c-69.317-96.886-181.957-96.886-251.274,0l0,0l0,0
	C256.667,288.394,369.307,288.394,438.624,191.508L438.624,191.508L438.624,191.508z"/>
<circle style="fill:#F06151;" cx="312.593" cy="191.508" r="59.077"/>
<circle style="fill:#FFFFFF;" cx="334.648" cy="166.302" r="14.178"/>
<g>
	
		<rect x="58.049" y="429.875" transform="matrix(-0.7071 -0.7071 0.7071 -0.7071 -196.9943 793.9065)" style="fill:#183651;" width="15.754" height="15.754"/>
	
		<rect x="96.801" y="391.609" transform="matrix(-0.7071 -0.7071 0.7071 -0.7071 -103.7838 755.9834)" style="fill:#183651;" width="15.754" height="15.754"/>
	
		<rect x="135.552" y="353.312" transform="matrix(-0.7071 -0.7071 0.7071 -0.7071 -10.5509 718.0065)" style="fill:#183651;" width="15.754" height="15.754"/>
</g>
<g>
</g>
<g>
</g>
<g>
</g>
<g>
</g>
<g>
</g>
<g>
</g>
<g>
</g>
<g>
</g>
<g>
</g>
<g>
</g>
<g>
</g>
<g>
</g>
<g>
</g>
<g>
</g>
<g>
</g>
</svg>
