<?xml version="1.0" encoding="iso-8859-1"?>
<!-- Generator: Adobe Illustrator 19.0.0, SVG Export Plug-In . SVG Version: 6.00 Build 0)  -->
<svg version="1.1" id="Capa_1" xmlns="http://www.w3.org/2000/svg" xmlns:xlink="http://www.w3.org/1999/xlink" x="0px" y="0px"
	 viewBox="0 0 504.911 504.911" style="enable-background:new 0 0 504.911 504.911;" xml:space="preserve">
<circle style="fill:#FBBD5E;" cx="252.455" cy="252.849" r="252.062"/>
<rect x="8.271" y="446.622" style="fill:#E0E4E8;" width="488.369" height="50.412"/>
<path style="fill:#183651;" d="M496.64,504.911H8.271c-4.726,0-7.877-3.151-7.877-7.877v-50.412c0-4.726,3.151-7.877,7.877-7.877
	H496.64c4.726,0,7.877,3.151,7.877,7.877v50.412C504.517,501.76,501.366,504.911,496.64,504.911z M16.148,489.157h472.615v-34.658
	H16.148V489.157z"/>
<rect x="39.778" y="226.068" style="fill:#FFFFFF;" width="97.674" height="221.342"/>
<path style="fill:#183651;" d="M137.452,454.498H39.778c-4.726,0-7.877-3.151-7.877-7.877V226.068c0-4.726,3.151-7.877,7.877-7.877
	h97.674c4.726,0,7.877,3.151,7.877,7.877v221.342C145.329,451.348,141.391,454.498,137.452,454.498z M47.655,438.745h81.92v-204.8
	h-81.92V438.745z"/>
<rect x="203.618" y="153.6" style="fill:#FFFFFF;" width="97.674" height="295.385"/>
<path style="fill:#183651;" d="M301.292,456.862h-97.674c-4.726,0-7.877-3.151-7.877-7.877V153.6c0-4.726,3.151-7.877,7.877-7.877
	h97.674c4.726,0,7.877,3.151,7.877,7.877v295.385C309.169,452.923,305.231,456.862,301.292,456.862z M211.495,441.108h81.92V161.477
	h-81.92V441.108z"/>
<rect x="367.458" y="261.514" style="fill:#FFFFFF;" width="97.674" height="185.895"/>
<path style="fill:#183651;" d="M465.132,454.498h-97.674c-4.726,0-7.877-3.151-7.877-7.877V261.514c0-4.726,3.151-7.877,7.877-7.877
	h97.674c4.726,0,7.877,3.151,7.877,7.877v185.895C473.009,451.348,469.071,454.498,465.132,454.498z M375.335,438.745h81.92V269.391
	h-81.92V438.745z"/>
<polyline style="fill:#2EA0DA;" points="137.452,380.455 137.452,226.068 39.778,226.068 39.778,380.455 "/>
<path style="fill:#183651;" d="M137.452,388.332c-4.726,0-7.877-3.151-7.877-7.877V233.945h-81.92v146.511
	c0,4.726-3.151,7.877-7.877,7.877s-7.877-3.151-7.877-7.877V226.068c0-4.726,3.151-7.877,7.877-7.877h97.674
	c4.726,0,7.877,3.151,7.877,7.877v154.388C145.329,384.394,141.391,388.332,137.452,388.332z"/>
<polyline style="fill:#F06151;" points="301.292,380.455 301.292,153.6 203.618,153.6 203.618,380.455 "/>
<path style="fill:#183651;" d="M301.292,388.332c-4.726,0-7.877-3.151-7.877-7.877V161.477h-81.92v218.978
	c0,4.726-3.151,7.877-7.877,7.877c-4.726,0-7.877-3.151-7.877-7.877V153.6c0-4.726,3.151-7.877,7.877-7.877h97.674
	c4.726,0,7.877,3.151,7.877,7.877v226.855C309.169,384.394,305.231,388.332,301.292,388.332z"/>
<polyline style="fill:#4FBF9F;" points="465.132,380.455 465.132,261.514 367.458,261.514 367.458,380.455 "/>
<path style="fill:#183651;" d="M465.132,388.332c-4.726,0-7.877-3.151-7.877-7.877V269.391h-81.92v111.065
	c0,4.726-3.151,7.877-7.877,7.877c-4.726,0-7.877-3.151-7.877-7.877V261.514c0-4.726,3.151-7.877,7.877-7.877h97.674
	c4.726,0,7.877,3.151,7.877,7.877v118.942C473.009,384.394,469.071,388.332,465.132,388.332z"/>
<g>
	<path style="fill:#FFFFFF;" d="M105.945,292.234v9.452H71.286c0-3.151,1.575-7.089,3.151-10.24
		c1.575-3.151,5.514-7.089,11.028-12.603c4.726-3.938,7.089-7.089,8.665-8.665c1.575-2.363,2.363-3.938,2.363-6.302
		c0-2.363-0.788-3.938-1.575-5.514c-1.575-1.575-3.151-1.575-4.726-1.575c-2.363,0-3.938,0.788-4.726,1.575
		c-0.788,0.788-1.575,3.151-2.363,6.302l-11.028,0c0.788-5.514,2.363-9.452,5.514-11.815s7.089-3.938,11.815-3.938
		c5.514,0,9.452,1.575,11.815,3.938c3.151,3.151,4.726,6.302,4.726,10.24c0,2.363-0.788,4.726-1.575,7.089
		c-0.788,2.363-2.363,4.726-3.938,6.302c-1.575,1.575-3.151,3.938-6.302,6.302c-3.151,3.151-5.514,4.726-6.302,5.514
		s-1.575,1.575-2.363,3.151h20.48V292.234z"/>
	<path style="fill:#FFFFFF;" d="M398.966,323.742l9.452-0.788c0,2.363,0.788,4.726,2.363,5.514c1.575,1.575,3.151,1.575,4.726,1.575
		c2.363,0,3.938-0.788,5.514-2.363c1.575-1.575,2.363-3.938,2.363-6.302s-0.788-4.726-2.363-6.302
		c-1.575-1.575-3.151-2.363-4.726-2.363c-1.575,0-3.151,0-4.726,0.788l0.788-7.877c2.363,0,4.726-0.788,6.302-1.575
		c1.575-1.575,2.363-3.151,2.363-4.726c0-1.575-0.788-3.151-1.575-3.938c-0.788-0.788-2.363-1.575-3.938-1.575
		c-1.575,0-3.151,0.788-4.726,1.575c-1.575,1.575-1.575,3.151-2.363,5.514l-9.452-1.575c0.788-3.151,1.575-5.514,3.151-7.877
		c1.575-1.575,3.151-3.151,5.514-4.726c2.363-1.575,4.726-1.575,7.877-1.575c4.726,0,8.665,1.575,11.815,4.726
		c2.363,2.363,3.938,5.514,3.938,8.665c0,4.726-2.363,7.877-7.877,11.028c3.151,0.788,5.514,2.363,7.089,3.938
		c1.575,1.575,2.363,4.726,2.363,7.877c0,4.726-1.575,8.665-4.726,11.815s-7.877,4.726-12.603,4.726s-8.665-1.575-11.815-3.938
		C401.329,331.618,399.754,327.68,398.966,323.742z"/>
	<polygon style="fill:#FFFFFF;" points="252.455,8.665 279.237,71.68 346.978,77.194 295.778,122.092 310.745,189.046 
		252.455,153.6 194.166,189.046 209.132,122.092 157.932,77.194 225.674,71.68 	"/>
</g>
<path style="fill:#183651;" d="M306.806,196.135l-54.351-33.083l-54.351,33.083c-2.363,1.575-6.302,1.575-8.665,0
	c-2.363-1.575-3.938-4.726-3.151-7.877l14.178-62.228l-48.049-42.535c-2.363-2.363-3.151-5.514-2.363-8.665
	c0.788-3.151,3.938-5.514,7.089-5.514l63.803-5.514l24.418-59.077C246.942,1.575,249.305,0,252.455,0
	c3.151,0,6.302,1.575,7.089,4.726l24.418,59.077l63.803,5.514c3.151,0,5.514,2.363,7.089,5.514c1.575,3.151,0,6.302-2.363,8.665
	l-48.049,41.748l14.178,62.228c0.788,3.151-0.788,6.302-3.151,7.877C313.108,197.711,309.957,197.711,306.806,196.135z
	 M252.455,145.723c1.575,0,3.151,0,3.938,0.788l42.535,25.994l-11.028-48.049c-0.788-3.151,0-5.514,2.363-7.877l37.809-32.295
	l-49.625-3.938c-3.151,0-5.514-2.363-6.302-4.726l-19.692-45.686l-19.692,44.898c-0.788,2.363-3.938,4.726-6.302,4.726
	l-49.625,3.938l37.809,32.295c2.363,1.575,3.151,4.726,2.363,7.877l-11.028,48.837l42.535-25.994
	C249.305,146.511,250.88,145.723,252.455,145.723z"/>
<path style="fill:#FFFFFF;" d="M260.332,265.452h-9.452v-36.234c-3.151,3.151-7.877,5.514-12.603,7.089v-8.665
	c2.363-0.788,5.514-2.363,7.877-4.726c3.151-2.363,4.726-4.726,6.302-7.877h7.877V265.452z"/>
<g>
</g>
<g>
</g>
<g>
</g>
<g>
</g>
<g>
</g>
<g>
</g>
<g>
</g>
<g>
</g>
<g>
</g>
<g>
</g>
<g>
</g>
<g>
</g>
<g>
</g>
<g>
</g>
<g>
</g>
</svg>
