<?xml version="1.0" encoding="iso-8859-1"?>
<!-- Generator: Adobe Illustrator 19.0.0, SVG Export Plug-In . SVG Version: 6.00 Build 0)  -->
<svg version="1.1" id="Capa_1" xmlns="http://www.w3.org/2000/svg" xmlns:xlink="http://www.w3.org/1999/xlink" x="0px" y="0px"
	 viewBox="0 0 504.123 504.123" style="enable-background:new 0 0 504.123 504.123;" xml:space="preserve">
<circle style="fill:#4FBF9F;" cx="252.062" cy="231.582" r="231.582"/>
<path style="fill:#FFFFFF;" d="M98.462,496.246h307.2c0-62.228-36.234-115.003-89.009-139.422
	c-14.966,13.391-35.446,23.631-62.228,23.631c-9.452,0-18.905-0.788-29.145-3.151c-10.24-1.575-25.206-7.877-38.597-19.692
	C134.695,382.031,98.462,434.806,98.462,496.246z"/>
<path style="fill:#183651;" d="M405.662,504.123h-307.2c-3.938,0-7.877-3.151-7.877-7.877c0-62.228,36.234-119.729,92.948-146.511
	c3.151-1.575,6.302-0.788,8.665,1.575c14.966,13.391,30.72,17.329,34.658,18.117c9.452,2.363,18.905,3.151,27.569,3.151
	c22.843,0,41.748-7.089,57.502-21.268c2.363-2.363,5.514-2.363,8.665-1.575c55.926,26.782,92.948,84.283,92.948,146.511
	C413.538,500.972,410.388,504.123,405.662,504.123z M106.338,489.157h291.446c-2.363-51.988-33.083-99.249-79.557-122.88
	c-24.418,20.48-56.714,26.782-94.523,18.117c-12.603-2.363-26.782-8.665-38.597-18.117
	C139.422,389.908,108.702,437.169,106.338,489.157z"/>
<path style="fill:#F06151;" d="M132.332,466.314c7.877-29.932,25.994-55.926,51.988-72.468
	c11.028,6.302,22.843,11.028,34.658,13.391s23.631,3.938,34.658,3.938c24.418,0,46.474-6.302,65.378-17.329
	c25.994,17.329,44.111,43.323,51.988,72.468H132.332z"/>
<path style="fill:#FBBD5E;" d="M326.105,272.542c0,0-7.089,92.16-95.311,71.68c0,0-41.748-6.302-46.474-55.926l-3.938-14.178
	l-11.028-70.105l47.262-33.083l76.406-3.151l36.234,26.782v55.926L326.105,272.542z"/>
<path style="fill:#183651;" d="M254.425,354.462c-7.877,0-16.542-0.788-25.206-3.151c-15.754-2.363-48.049-18.905-51.988-61.44
	l-3.938-13.391v-0.788l-11.815-70.105c-0.788-3.151,0.788-5.514,3.151-7.089l47.262-33.083c1.575-0.788,2.363-1.575,3.938-1.575
	l76.406-3.151c1.575,0,3.151,0.788,4.726,1.575l36.234,26.782c1.575,1.575,3.151,3.938,3.151,6.302v55.926v0.788l-2.363,22.055
	C331.618,300.898,311.926,354.462,254.425,354.462z M187.471,272.542l3.938,13.391c0,0.788,0,0.788,0,1.575
	c3.938,42.535,39.385,48.837,40.172,48.837c8.665,1.575,15.754,3.151,22.843,3.151c57.502,0,63.803-64.591,63.803-67.742
	l2.363-21.268v-51.988l-30.72-22.843l-70.892,3.151l-41.748,29.145L187.471,272.542z"/>
<path style="fill:#E0E4E8;" d="M179.594,274.117c0,0,3.938-13.391-13.391-22.843c0,0-29.932-78.769,41.748-102.4
	c0,0-5.514-6.302-3.938-14.966c0,0,10.24,6.302,61.44,3.938c0,0,33.871,3.151,43.323,30.72c0,0,51.988,0,28.357,81.132
	c0,0-12.603,7.089-11.815,22.843c0,0,11.028-87.434-33.083-77.982c0,0-40.172,19.692-68.529-7.877
	C224.492,186.683,171.717,183.532,179.594,274.117z"/>
<g>
	<path style="fill:#183651;" d="M179.594,281.994L179.594,281.994c-4.726,0-7.089-3.151-7.877-7.089
		c0-3.151-0.788-5.514-0.788-8.665c-1.575-3.151-3.938-6.302-8.665-8.665c-1.575-0.788-2.363-2.363-3.151-3.938
		s-15.754-40.96,0.788-74.043c7.089-15.754,19.692-26.782,37.809-34.658c-0.788-3.151-1.575-7.089-0.788-11.815
		c0-2.363,2.363-4.726,4.726-5.514c2.363-0.788,4.726-0.788,7.089,0.788c0,0,6.302,3.151,34.658,3.151
		c7.089,0,14.178,0,22.055-0.788h0.788c1.575,0,34.658,3.151,48.049,30.72c6.302,1.575,18.117,4.726,26.782,16.542
		c11.815,15.754,13.391,40.96,3.938,74.043c-0.788,1.575-1.575,3.151-3.938,4.726l0,0c0,0-5.514,3.151-7.089,9.452
		c0,4.726-0.788,7.089-0.788,7.089c-0.788,3.938-3.938,7.089-7.877,6.302c-3.938,0-7.089-3.151-7.089-7.089
		c0-3.151,0-6.302,0.788-9.452c1.575-27.569-1.575-49.625-10.24-58.289c-3.938-3.938-7.877-4.726-14.178-3.938
		c-3.938,1.575-17.329,7.089-33.871,7.089c-15.754,0-29.145-4.726-40.172-14.178c-3.938,0.788-12.603,2.363-19.692,10.24
		c-11.028,11.815-15.754,32.295-14.966,59.865c1.575,6.302,0.788,11.815,0.788,12.603
		C186.683,279.631,183.532,281.994,179.594,281.994z M214.252,144.935c1.575,1.575,2.363,4.726,1.575,7.089
		c-0.788,2.363-2.363,4.726-4.726,5.514c-18.117,5.514-29.932,15.754-37.022,29.932c-9.452,20.48-5.514,44.111-2.363,55.926
		c1.575-21.268,7.877-37.022,18.905-48.049c13.391-14.178,29.932-14.966,33.083-14.966h0.788c1.575,0,3.938,0.788,4.726,2.363
		c8.665,7.877,18.905,12.603,31.508,12.603c14.966,0,27.569-6.302,27.569-6.302c0.788,0,0.788-0.788,1.575-0.788
		c11.815-2.363,22.055,0.788,29.145,8.665c8.665,8.665,11.815,23.631,13.391,37.809c3.938-20.48,2.363-36.234-4.726-46.474
		c-7.877-10.24-19.692-11.028-19.692-11.028c-3.151,0-6.302-2.363-7.089-5.514c-7.089-20.48-32.295-24.418-36.234-25.206
		c-7.877,0.788-15.754,0.788-22.843,0.788C230.006,146.511,220.554,145.723,214.252,144.935z"/>
	<rect x="198.498" y="430.08" style="fill:#183651;" width="14.966" height="14.966"/>
	<rect x="244.185" y="430.08" style="fill:#183651;" width="14.966" height="14.966"/>
	<rect x="289.871" y="430.08" style="fill:#183651;" width="14.966" height="14.966"/>
	<polygon style="fill:#183651;" points="410.388,244.972 377.305,217.403 410.388,189.834 419.84,201.649 400.935,217.403 
		419.84,233.157 	"/>
	<rect x="389.12" y="209.526" style="fill:#183651;" width="65.378" height="14.966"/>
	<polygon style="fill:#183651;" points="93.735,244.972 84.283,233.157 103.188,217.403 84.283,201.649 93.735,189.834 
		126.818,217.403 	"/>
	<rect x="49.625" y="209.526" style="fill:#183651;" width="65.378" height="14.966"/>
	<polygon style="fill:#183651;" points="340.283,129.182 344.222,85.858 359.975,87.434 357.612,111.852 382.031,109.489 
		383.606,125.243 	"/>
	
		<rect x="364.285" y="64.304" transform="matrix(-0.7071 -0.7071 0.7071 -0.7071 566.0629 428.4567)" style="fill:#183651;" width="14.966" height="65.378"/>
	<polygon style="fill:#183651;" points="159.902,348.948 144.148,347.372 146.511,322.954 122.092,325.317 120.517,309.563 
		163.84,305.625 	"/>
	
		<rect x="124.327" y="304.556" transform="matrix(-0.7071 -0.7071 0.7071 -0.7071 -13.4543 668.9163)" style="fill:#183651;" width="14.966" height="65.378"/>
	<polygon style="fill:#183651;" points="252.062,92.16 224.492,59.077 236.308,49.625 252.062,68.529 267.815,49.625 
		279.631,59.077 	"/>
	<rect x="244.185" y="14.966" style="fill:#183651;" width="14.966" height="65.378"/>
	<polygon style="fill:#183651;" points="163.84,129.182 120.517,125.243 122.092,109.489 146.511,111.852 144.148,87.434 
		159.902,85.858 	"/>
	
		<rect x="99.511" y="89.677" transform="matrix(-0.7071 -0.7071 0.7071 -0.7071 156.9778 259.3415)" style="fill:#183651;" width="65.378" height="14.966"/>
	<polygon style="fill:#183651;" points="344.222,348.948 340.283,305.625 383.606,309.563 382.031,325.317 357.612,322.954 
		359.975,347.372 	"/>
	
		<rect x="339.763" y="329.619" transform="matrix(-0.7071 -0.7071 0.7071 -0.7071 397.4486 838.8317)" style="fill:#183651;" width="65.378" height="14.966"/>
</g>
<g>
</g>
<g>
</g>
<g>
</g>
<g>
</g>
<g>
</g>
<g>
</g>
<g>
</g>
<g>
</g>
<g>
</g>
<g>
</g>
<g>
</g>
<g>
</g>
<g>
</g>
<g>
</g>
<g>
</g>
</svg>
