<?xml version="1.0" encoding="iso-8859-1"?>
<!-- Generator: Adobe Illustrator 19.0.0, SVG Export Plug-In . SVG Version: 6.00 Build 0)  -->
<svg version="1.1" id="Capa_1" xmlns="http://www.w3.org/2000/svg" xmlns:xlink="http://www.w3.org/1999/xlink" x="0px" y="0px"
	 viewBox="0 0 504.32 504.32" style="enable-background:new 0 0 504.32 504.32;" xml:space="preserve">
<circle style="fill:#4FBF9F;" cx="176.935" cy="224.689" r="166.991"/>
<path style="fill:#FFFFFF;" d="M10.732,496.443h331.618c0-66.954-39.385-123.668-96.098-150.449
	c-15.754,14.966-37.809,25.206-66.954,25.206c-9.452,0-20.48-1.575-30.72-3.938c-11.028-2.363-27.569-8.665-41.748-21.268
	C50.117,372.775,10.732,430.277,10.732,496.443z"/>
<path style="fill:#183651;" d="M342.351,504.32H10.732c-3.938,0-7.877-3.151-7.877-7.877c0-66.954,39.385-128.394,100.037-156.751
	c3.151-1.575,6.302-0.788,8.665,1.575c16.542,14.966,33.083,18.117,37.809,18.905c38.597,8.665,69.317,1.575,91.372-19.692
	c2.363-2.363,5.514-2.363,8.665-1.575c60.652,28.357,100.037,89.797,100.037,157.538C350.228,501.169,346.289,504.32,342.351,504.32
	z M18.609,488.566h315.077c-3.151-56.714-36.234-107.914-86.646-133.12c-25.994,22.055-60.652,29.145-101.612,19.692
	c-13.391-2.363-29.145-9.452-40.96-19.692C54.843,381.44,21.76,432.64,18.609,488.566z"/>
<path style="fill:#F06151;" d="M40.665,469.662c7.877-37.022,30.72-70.892,63.015-90.585c12.603,7.877,25.994,13.391,38.597,15.754
	c12.603,2.363,24.418,3.938,36.234,3.938c25.994,0,49.625-7.089,70.105-19.692c33.083,20.48,55.926,53.563,63.015,90.585H40.665z"/>
<path style="fill:#FBBD5E;" d="M255.705,255.409c0,0-7.089,99.249-102.4,77.194c0,0-44.898-7.089-49.625-59.865l-4.726-14.966
	l-11.815-75.618l50.412-35.446l81.92-3.938l39.385,28.357v60.652L255.705,255.409z"/>
<path style="fill:#183651;" d="M179.298,343.631c-8.665,0-18.117-0.788-27.569-3.151l0,0c0,0-49.625-8.665-55.926-66.166
	l-4.726-14.178v-0.788l-11.815-75.618c-0.788-3.151,0.788-5.514,3.151-7.877l50.412-35.446c1.575-0.788,2.363-1.575,3.938-1.575
	l81.92-3.938c1.575,0,3.151,0.788,4.726,1.575l39.385,28.357c2.363,1.575,3.151,3.938,3.151,6.302v60.652v0.788l-3.151,23.631
	C261.218,286.129,240.738,343.631,179.298,343.631z M106.831,256.197l3.938,14.178c0,0.788,0,0.788,0,1.575
	c4.726,46.474,41.748,52.775,43.323,52.775c8.665,2.363,17.329,3.151,24.418,3.151c63.015,0,68.529-70.105,69.317-73.255
	l3.151-23.631v-55.926l-33.871-24.418l-76.406,3.151l-44.898,31.508L106.831,256.197z"/>
<path style="fill:#E0E4E8;" d="M98.954,257.772c0,0,3.938-14.966-14.178-24.418c0,0-32.295-84.283,44.898-110.277
	c0,0-5.514-6.302-3.938-16.542c0,0,11.028,7.089,66.166,3.938c0,0,36.234,3.151,46.474,33.083c0,0,55.926,0,30.72,87.434
	c0,0-13.391,7.877-12.603,24.418c0,0,11.815-94.523-35.446-84.283c0,0-43.323,21.268-73.255-8.665
	C146.215,162.462,89.502,160.098,98.954,257.772z"/>
<path style="fill:#183651;" d="M98.954,265.649C98.954,265.649,98.166,265.649,98.954,265.649c-4.726,0-7.089-3.151-7.877-7.089
	c0-3.151-0.788-6.302-0.788-9.452c-1.575-3.938-4.726-7.089-9.452-9.452c-1.575-0.788-3.151-2.363-3.151-3.938
	c-0.788-1.575-16.542-44.111,0.788-79.557c7.877-16.542,21.268-29.145,40.96-37.022c-0.788-3.938-1.575-7.877-0.788-13.391
	c0-2.363,2.363-4.726,4.726-6.302c2.363-0.788,5.514-0.788,7.089,0.788l0,0c0,0,7.877,3.151,37.022,3.151
	c7.089,0,15.754,0,24.418-0.788h0.788c1.575,0,37.809,3.938,51.2,33.083c7.089,1.575,19.692,4.726,29.145,17.329
	c12.603,17.329,14.178,44.111,3.938,79.557c-0.788,1.575-1.575,3.938-3.938,4.726c0,0-6.302,3.938-7.877,11.028
	c0,4.726-0.788,7.877-0.788,7.877c-0.788,3.938-3.938,7.089-7.877,7.089c-3.938,0-7.089-3.151-7.877-7.089
	c0-3.151,0-6.302,0.788-9.452c2.363-29.932-2.363-53.563-11.028-63.015c-3.938-3.938-8.665-5.514-15.754-4.726
	c-3.938,1.575-18.117,7.877-36.234,7.877c-16.542,0-31.508-5.514-42.535-15.754c-4.726,0.788-13.391,2.363-22.055,11.028
	c-11.815,12.603-17.329,34.658-15.754,64.591c2.363,7.089,0.788,12.603,0.788,13.391
	C105.255,263.286,102.105,265.649,98.954,265.649z M135.188,116.775C135.188,117.563,135.975,117.563,135.188,116.775
	c2.363,3.151,3.151,5.514,2.363,7.877c-0.788,2.363-2.363,4.726-4.726,5.514c-18.905,6.302-32.295,17.329-40.172,32.295
	c-11.028,23.631-4.726,51.2-1.575,62.228c1.575-23.631,8.665-41.748,20.48-54.351c14.966-14.966,32.295-15.754,35.446-15.754h0.788
	c1.575,0,3.938,0.788,4.726,2.363c9.452,8.665,20.48,13.391,34.658,13.391c16.542,0,29.932-6.302,29.932-6.302
	c0.788,0,0.788-0.788,1.575-0.788c12.603-2.363,22.843,0.788,30.72,8.665c9.452,10.24,13.391,26.782,14.966,43.323
	c4.726-23.631,3.151-41.748-4.726-52.775c-8.665-11.815-21.268-11.815-22.055-11.815c-3.151,0-6.302-2.363-7.089-5.514
	c-7.877-22.843-35.446-26.782-39.385-27.569c-8.665,0.788-16.542,0.788-24.418,0.788
	C152.517,119.138,142.277,118.351,135.188,116.775z"/>
<path style="fill:#E0E4E8;" d="M398.277,193.969c40.172,0,74.043,24.418,88.222,59.077c4.726-11.028,7.089-23.631,7.089-36.234
	c0-52.775-42.535-95.311-95.311-95.311s-95.311,41.748-95.311,95.311c0,12.603,2.363,25.206,7.089,36.234
	C324.234,218.388,358.892,193.969,398.277,193.969z"/>
<path style="fill:#183651;" d="M486.498,260.923c-3.151,0-6.302-1.575-7.089-4.726c-13.391-33.083-45.686-54.351-81.132-54.351
	s-67.742,21.268-81.132,54.351c-1.575,3.151-3.938,4.726-7.089,4.726s-6.302-1.575-7.089-4.726
	c-5.514-12.603-7.877-25.994-7.877-39.385c0-56.714,46.474-103.188,103.188-103.188s103.188,46.474,103.188,103.188
	c0,13.391-2.363,26.782-7.877,39.385C492.8,259.348,489.649,260.923,486.498,260.923z M398.277,186.092
	c35.446,0,67.742,18.117,86.646,46.474c0.788-5.514,1.575-11.028,1.575-16.542c0-48.837-39.385-88.222-88.222-88.222
	s-88.222,39.385-88.222,88.222c0,5.514,0.788,11.028,1.575,16.542C331.323,204.209,362.831,186.092,398.277,186.092z"/>
<path style="fill:#FFFFFF;" d="M435.298,233.354c44.111-72.468,31.508-164.628-36.234-225.28l0,0l0,0
	c-68.529,60.652-81.132,153.6-37.022,225.28H435.298z"/>
<path id="SVGCleanerId_0" style="fill:#183651;" d="M435.298,241.231h-73.255c-2.363,0-5.514-1.575-6.302-3.938
	C309.268,160.098,325.022,64,393.551,1.772c3.151-2.363,7.089-2.363,10.24,0c69.317,61.44,84.283,158.326,37.809,235.52
	C440.025,239.655,437.662,241.231,435.298,241.231z M366.769,225.477h63.803c38.597-67.742,25.994-151.237-32.295-207.163
	C340.775,74.24,327.385,157.735,366.769,225.477z"/>
<path style="fill:#E0E4E8;" d="M343.138,191.606c3.938,14.178,10.24,28.357,18.905,41.748h73.255
	c7.877-13.391,14.178-27.569,18.905-41.748"/>
<path style="fill:#183651;" d="M435.298,241.231h-73.255c-2.363,0-5.514-1.575-6.302-3.938
	c-8.665-13.391-14.966-28.357-19.692-43.323c-1.575-3.938,0.788-8.665,5.514-9.452c3.938-1.575,8.665,0.788,9.452,5.514
	c3.938,12.603,8.665,24.418,15.754,36.234h63.803c6.302-11.815,11.815-23.631,15.754-36.234c1.575-3.938,5.514-6.302,9.452-5.514
	c3.938,1.575,6.302,5.514,5.514,9.452c-4.726,14.966-11.028,29.932-19.692,43.323C440.025,239.655,437.662,241.231,435.298,241.231z
	"/>
<path style="fill:#F06151;" d="M398.277,8.074L398.277,8.074L398.277,8.074C379.372,24.615,364.406,43.52,353.378,64h90.585
	C432.148,43.52,417.182,24.615,398.277,8.074z"/>
<path style="fill:#FBBD5E;" d="M373.071,233.354c-7.877,29.145,0,60.652,25.206,83.495l0,0l0,0
	c25.206-22.843,33.871-54.351,25.206-83.495H373.071z"/>
<path style="fill:#183651;" d="M398.277,324.726c-1.575,0-3.938-0.788-5.514-2.363c-26.782-23.631-37.022-59.077-27.569-91.372
	c0.788-3.151,3.938-5.514,7.877-5.514h51.2c3.151,0,6.302,2.363,7.877,5.514c9.452,33.083-1.575,67.742-27.569,91.372
	C402.215,324.726,400.64,324.726,398.277,324.726z M379.372,241.231c-4.726,23.631,2.363,47.262,19.692,65.378
	c17.329-18.117,24.418-41.748,19.692-65.378H379.372L379.372,241.231z"/>
<g>
	<path id="SVGCleanerId_0_1_" style="fill:#183651;" d="M435.298,241.231h-73.255c-2.363,0-5.514-1.575-6.302-3.938
		C309.268,160.098,325.022,64,393.551,1.772c3.151-2.363,7.089-2.363,10.24,0c69.317,61.44,84.283,158.326,37.809,235.52
		C440.025,239.655,437.662,241.231,435.298,241.231z M366.769,225.477h63.803c38.597-67.742,25.994-151.237-32.295-207.163
		C340.775,74.24,327.385,157.735,366.769,225.477z"/>
</g>
<circle style="fill:#2EA0DA;" cx="398.277" cy="113.625" r="28.357"/>
<circle style="fill:#FFFFFF;" cx="405.366" cy="101.809" r="7.089"/>
<g>
	<rect x="122.585" y="424.763" style="fill:#183651;" width="15.754" height="15.754"/>
	<rect x="169.058" y="424.763" style="fill:#183651;" width="15.754" height="15.754"/>
	<rect x="215.532" y="424.763" style="fill:#183651;" width="15.754" height="15.754"/>
	<path style="fill:#183651;" d="M18.609,364.111H2.855v-15.754h15.754V364.111z M18.609,332.603H2.855v-15.754h15.754V332.603z
		 M18.609,301.883H2.855v-15.754h15.754V301.883z M18.609,270.375H2.855v-15.754h15.754V270.375z M18.609,239.655H2.855
		c0-5.514,0-11.028,0.788-15.754l15.754,0.788C18.609,229.415,18.609,234.142,18.609,239.655z M20.972,208.935l-15.754-2.363
		c0.788-5.514,1.575-10.24,3.151-15.754l14.966,3.151C22.548,199.483,21.76,204.209,20.972,208.935z M27.274,179.791l-14.966-3.938
		c1.575-5.514,3.151-10.24,4.726-14.966L32,166.4C29.637,170.338,28.062,175.065,27.274,179.791z M37.514,151.434l-14.178-6.302
		c2.363-4.726,4.726-9.452,7.089-14.178l13.391,7.089C41.452,142.769,39.089,146.708,37.514,151.434z M50.905,125.44l-13.391-7.877
		c3.151-4.726,5.514-9.452,8.665-13.391l13.391,8.665C56.418,116.775,54.055,120.714,50.905,125.44z M69.022,101.022l-12.603-10.24
		c3.151-3.938,7.089-7.877,11.028-11.815l11.028,11.028C75.323,93.145,72.172,97.083,69.022,101.022z M89.502,78.966l-10.24-11.815
		c3.938-3.938,7.877-7.089,12.603-10.24l9.452,11.815C96.591,71.877,93.44,75.815,89.502,78.966z M113.132,60.062l-8.665-12.603
		c4.726-3.151,8.665-6.302,13.391-8.665l7.877,13.391C121.009,54.548,117.071,56.911,113.132,60.062z M139.126,44.308l-7.089-14.178
		c4.726-2.363,9.452-4.726,14.966-7.089l6.302,14.178C147.791,40.369,143.065,42.732,139.126,44.308z M166.695,33.28l-4.726-14.966
		c4.726-1.575,10.24-3.151,15.754-4.726l3.938,14.966C176.148,30.129,171.422,31.705,166.695,33.28z M195.84,25.403l-3.151-14.966
		c5.514-0.788,10.24-1.575,15.754-2.363l1.575,15.754C205.292,23.828,200.566,24.615,195.84,25.403z M224.985,21.465l-0.788-15.754
		c3.938,0,8.665,0,12.603,0h3.938v15.754h-3.151C232.862,21.465,228.923,21.465,224.985,21.465z M302.966,21.465h-15.754V5.711
		h15.754V21.465z M271.458,21.465h-15.754V5.711h15.754V21.465z"/>
	<path style="fill:#183651;" d="M442.388,504.32h-7.089v-15.754h7.089c2.363,0,4.726,0,7.089-0.788l2.363,14.966
		C449.477,504.32,446.326,504.32,442.388,504.32z M420.332,504.32h-15.754v-15.754h15.754V504.32z M388.825,504.32h-15.754v-15.754
		h15.754V504.32z M469.169,498.018l-7.089-14.178c3.938-2.363,7.877-4.726,11.028-7.877l11.028,11.028
		C479.409,491.717,474.683,494.868,469.169,498.018z M495.163,472.812l-13.391-7.089c2.363-3.938,3.938-7.877,4.726-12.603
		l14.966,3.151C499.889,461.785,497.526,468.086,495.163,472.812z M501.465,438.942h-15.754v-15.754h15.754V438.942z
		 M501.465,408.222h-15.754v-15.754h15.754V408.222z M501.465,376.714h-15.754V360.96h15.754V376.714z M501.465,345.994h-15.754
		V330.24h15.754V345.994z M501.465,314.486h-15.754v-15.754h15.754V314.486z"/>
</g>
<g>
</g>
<g>
</g>
<g>
</g>
<g>
</g>
<g>
</g>
<g>
</g>
<g>
</g>
<g>
</g>
<g>
</g>
<g>
</g>
<g>
</g>
<g>
</g>
<g>
</g>
<g>
</g>
<g>
</g>
</svg>
