<?xml version="1.0" encoding="iso-8859-1"?>
<!-- Generator: Adobe Illustrator 19.0.0, SVG Export Plug-In . SVG Version: 6.00 Build 0)  -->
<svg version="1.1" id="Capa_1" xmlns="http://www.w3.org/2000/svg" xmlns:xlink="http://www.w3.org/1999/xlink" x="0px" y="0px"
	 viewBox="0 0 505.305 505.305" style="enable-background:new 0 0 505.305 505.305;" xml:space="preserve">
<path style="fill:#183651;" d="M252.062,377.895c-5.514,0-10.24,0-15.754-0.788l1.575-15.754c4.726,0,9.452,0.788,14.178,0.788
	l0.788,11.028L252.062,377.895L252.062,377.895z M269.391,377.108l-1.575-15.754c4.726-0.788,10.24-0.788,14.966-2.363l3.151,15.754
	C279.631,376.32,274.905,377.108,269.391,377.108z M219.766,375.532c-5.514-0.788-11.028-2.363-15.754-3.151l3.938-14.966
	c4.726,1.575,9.452,2.363,14.966,3.151L219.766,375.532z M301.686,371.594l-3.938-14.966c4.726-1.575,9.452-3.151,14.178-4.726
	l5.514,14.966C311.926,368.443,306.412,370.018,301.686,371.594z M188.258,366.868c-4.726-1.575-10.24-3.938-14.966-6.302
	l6.302-14.178c4.726,2.363,9.452,3.938,14.178,5.514L188.258,366.868z M332.406,360.566l-7.089-14.178
	c4.726-2.363,8.665-4.726,13.391-7.089l7.877,13.391C341.858,355.052,337.132,358.203,332.406,360.566z M158.326,353.477
	c-4.726-2.363-9.452-5.514-14.178-8.665l8.665-12.603c3.938,3.151,8.665,5.514,12.603,7.877L158.326,353.477z M360.763,344.025
	l-9.452-12.603c3.938-3.151,7.877-6.302,11.815-9.452l10.24,11.815C369.428,336.935,364.702,340.874,360.763,344.025z
	 M131.545,334.572c-3.938-3.151-8.665-7.089-11.815-11.028l11.028-11.028c3.938,3.151,7.089,7.089,11.028,10.24L131.545,334.572z
	 M385.969,322.757l-11.815-11.028c3.938-3.938,7.089-7.089,10.24-11.028l11.815,10.24
	C393.058,314.88,389.908,318.818,385.969,322.757z M107.914,311.729c-3.938-3.938-7.089-8.665-10.24-12.603l12.603-9.452
	c3.151,3.938,6.302,7.877,9.452,11.815L107.914,311.729z M406.449,297.551l-12.603-9.452c3.151-3.938,5.514-8.665,7.877-12.603
	l13.391,7.877C412.751,288.098,409.6,292.825,406.449,297.551z M89.009,284.948c-2.363-4.726-5.514-9.452-7.877-14.178l14.178-7.089
	c2.363,4.726,4.726,8.665,7.089,13.391L89.009,284.948z M422.991,269.194l-14.178-6.302c2.363-4.726,3.938-9.452,5.514-14.178
	l14.966,5.514C427.717,258.954,425.354,263.68,422.991,269.194z M74.831,255.015c-1.575-5.514-3.938-10.24-4.726-15.754
	l14.966-3.938c1.575,4.726,3.151,9.452,4.726,14.178L74.831,255.015z M434.018,238.474l-14.966-3.938
	c1.575-4.726,2.363-9.452,3.151-14.966l15.754,2.363C437.169,227.446,435.594,232.96,434.018,238.474z M66.166,223.508
	c-0.788-5.514-1.575-11.028-2.363-16.542l15.754-1.575c0.788,4.726,0.788,10.24,2.363,14.966L66.166,223.508z M440.32,205.391
	l-15.754-1.575c0.788-4.726,0.788-10.24,0.788-14.966v-2.363h15.754v3.151C440.32,195.151,440.32,200.665,440.32,205.391z
	 M63.015,190.425L63.015,190.425c0-6.302,0-11.815,0.788-16.542l15.754,1.575c0,4.726-0.788,9.452-0.788,13.391L63.015,190.425z
	 M423.778,171.52c-0.788-4.726-1.575-10.24-2.363-14.966l15.754-3.151c0.788,5.514,1.575,11.028,2.363,16.542L423.778,171.52z
	 M81.132,160.492l-15.754-2.363c0.788-5.514,2.363-11.028,3.151-15.754l14.966,3.938C83.495,151.04,81.92,155.766,81.132,160.492z
	 M418.265,142.375c-1.575-4.726-3.151-9.452-4.726-14.178l14.966-5.514c1.575,5.514,3.938,10.24,5.514,15.754L418.265,142.375z
	 M89.009,131.348l-14.966-5.514c1.575-5.514,3.938-10.24,6.302-14.966l14.178,6.302C92.16,121.895,90.585,126.622,89.009,131.348z
	 M408.025,114.018c-2.363-4.726-4.726-8.665-7.089-13.391l13.391-7.877c3.151,4.726,5.514,9.452,7.877,14.178L408.025,114.018z
	 M101.612,104.566l-13.391-7.877c2.363-4.726,5.514-9.452,8.665-14.178l12.603,8.665C106.338,95.902,103.975,99.84,101.612,104.566z
	 M392.271,88.025c-3.151-3.938-6.302-7.877-9.452-11.815l11.815-10.24c3.938,3.938,7.089,8.665,10.24,12.603L392.271,88.025z
	 M118.154,79.36l-11.815-10.24c3.151-3.938,7.089-8.665,11.028-11.815l11.028,11.028C125.243,71.483,121.305,75.422,118.154,79.36z
	 M372.578,65.182c-3.938-3.151-7.089-7.089-11.028-10.24l10.24-11.815c3.938,3.151,8.665,7.089,12.603,11.028L372.578,65.182z
	 M139.422,58.092l-10.24-11.815c3.938-3.938,8.665-7.089,13.391-10.24l9.452,12.603C147.298,51.791,143.36,54.942,139.422,58.092z
	 M349.735,46.277c-3.938-3.151-8.665-5.514-12.603-7.877l7.877-13.391c4.726,2.363,9.452,5.514,14.178,8.665L349.735,46.277z
	 M163.84,40.763l-7.877-13.391c4.726-3.151,9.452-5.514,14.178-7.877l7.089,14.178C172.505,35.249,168.566,37.612,163.84,40.763z
	 M322.954,31.311c-4.726-2.363-9.452-3.938-14.178-5.514l5.514-14.966c5.514,1.575,10.24,3.938,14.966,6.302L322.954,31.311z
	 M191.409,27.372l-5.514-14.966c5.514-1.575,10.24-3.938,15.754-4.726l3.938,14.966C200.862,24.222,196.135,25.797,191.409,27.372z
	 M294.597,21.858c-4.726-1.575-9.452-2.363-14.966-3.151l2.363-15.754c5.514,0.788,11.028,2.363,15.754,3.151L294.597,21.858z
	 M219.766,19.495l-3.151-15.754c5.514-0.788,11.028-1.575,16.542-2.363l1.575,15.754C230.006,17.92,225.28,18.708,219.766,19.495z
	 M265.452,17.132c-3.938,0-8.665-0.788-13.391-0.788h-1.575V0.591h2.363c4.726,0,9.452,0,14.178,0.788L265.452,17.132z"/>
<path style="fill:#FBBD5E;" d="M252.062,338.511c-82.708,0-149.662-66.954-149.662-149.662S169.354,39.188,252.062,39.188
	s149.662,66.954,149.662,149.662C400.935,271.557,333.982,338.511,252.062,338.511z"/>
<g>
	<rect x="265.452" y="222.72" style="fill:#183651;" width="15.754" height="78.769"/>
	<polygon style="fill:#183651;" points="273.329,314.092 246.548,280.222 259.151,270.769 273.329,288.098 286.72,270.769 
		299.323,280.222 	"/>
	<rect x="285.145" y="160.492" style="fill:#183651;" width="78.769" height="15.754"/>
	<polygon style="fill:#183651;" points="342.646,194.363 333.194,181.76 351.311,168.369 333.194,154.191 342.646,141.588 
		376.517,168.369 	"/>
	<rect x="222.917" y="77.785" style="fill:#183651;" width="15.754" height="78.769"/>
	<polygon style="fill:#183651;" points="244.972,108.505 230.794,90.388 216.615,108.505 204.8,98.265 230.794,64.394 
		256.788,98.265 	"/>
	<rect x="140.209" y="203.028" style="fill:#183651;" width="78.769" height="15.754"/>
	<polygon style="fill:#183651;" points="161.477,236.898 127.606,210.905 161.477,184.123 170.929,196.726 152.812,210.905 
		170.929,224.295 	"/>
</g>
<path style="fill:#E0E4E8;" d="M378.88,399.951l37.809-51.988h79.557c-17.329-26.782-47.262-44.898-81.132-44.898
	c-40.172,0-74.043,24.418-89.009,59.077l-269.391-8.665c-26.782-0.788-48.837,20.48-48.837,47.262
	c0,26.782,22.055,48.049,48.837,47.262l269.391-10.24c14.966,34.658,48.837,59.077,89.009,59.077
	c33.871,0,63.803-18.117,81.132-44.898h-79.557L378.88,399.951z"/>
<g>
	<path style="fill:#183651;" d="M415.114,504.714c-40.172,0-76.406-22.843-93.735-59.077l-266.24,9.452
		C25.206,455.089,0,430.671,0,399.951s24.418-55.138,55.138-55.138h2.363l263.877,9.452c16.542-35.446,52.775-58.289,93.735-58.289
		c35.446,0,67.742,17.329,87.434,47.262c1.575,1.575,2.363,3.151,2.363,5.514c0,4.726-3.151,7.877-7.877,7.877l0,0h-74.831
		l-32.295,44.111l32.295,44.111h74.831c3.151,0,5.514,1.575,7.089,3.938c1.575,2.363,1.575,5.514,0,7.877
		C483.643,486.597,450.56,504.714,415.114,504.714z M326.105,429.883c3.151,0,6.302,1.575,7.089,4.726
		c14.178,33.083,45.686,54.351,81.92,54.351c25.206,0,48.837-10.24,65.378-29.145h-63.015c-2.363,0-4.726-1.575-6.302-3.151
		l-37.809-51.988c-2.363-3.151-2.363-6.302,0-9.452l37.809-51.988c1.575-2.363,3.938-3.151,6.302-3.151h63.015
		c-16.542-18.117-40.172-29.145-65.378-29.145c-35.446,0-67.742,21.268-81.92,54.351c-1.575,3.151-3.938,4.726-7.877,4.726
		l-270.178-8.665c-21.268,0-39.385,17.329-39.385,39.385c0,22.055,17.329,39.385,39.385,39.385h1.575L326.105,429.883
		C325.317,429.883,326.105,429.883,326.105,429.883z"/>
	<rect x="75.618" y="392.074" style="fill:#183651;" width="15.754" height="15.754"/>
	<rect x="128.394" y="392.074" style="fill:#183651;" width="15.754" height="15.754"/>
	<rect x="181.169" y="392.074" style="fill:#183651;" width="15.754" height="15.754"/>
</g>
<g>
</g>
<g>
</g>
<g>
</g>
<g>
</g>
<g>
</g>
<g>
</g>
<g>
</g>
<g>
</g>
<g>
</g>
<g>
</g>
<g>
</g>
<g>
</g>
<g>
</g>
<g>
</g>
<g>
</g>
</svg>
