<?xml version="1.0" encoding="iso-8859-1"?>
<!-- Generator: Adobe Illustrator 19.0.0, SVG Export Plug-In . SVG Version: 6.00 Build 0)  -->
<svg version="1.1" id="Capa_1" xmlns="http://www.w3.org/2000/svg" xmlns:xlink="http://www.w3.org/1999/xlink" x="0px" y="0px"
	 viewBox="0 0 504.123 504.123" style="enable-background:new 0 0 504.123 504.123;" xml:space="preserve">
<rect x="29.145" y="39.385" style="fill:#FFFFFF;" width="361.551" height="227.643"/>
<path style="fill:#183651;" d="M398.572,274.905H21.268V31.508h377.305L398.572,274.905L398.572,274.905z M37.022,259.151h345.797
	V47.262H37.022V259.151z"/>
<g>
	<rect x="60.652" y="70.892" style="fill:#E0E4E8;" width="298.535" height="164.628"/>
	<path style="fill:#E0E4E8;" d="M396.209,267.028H23.631c-8.665,0-15.754,7.089-15.754,15.754s7.089,15.754,15.754,15.754h372.578
		c8.665,0,15.754-7.089,15.754-15.754C411.963,274.117,404.874,267.028,396.209,267.028z"/>
</g>
<path style="fill:#183651;" d="M396.209,306.412H23.631C10.24,306.412,0,296.172,0,282.782s10.24-23.631,23.631-23.631h372.578
	c13.391,0,23.631,10.24,23.631,23.631S409.6,306.412,396.209,306.412z M23.631,274.905c-4.726,0-7.877,3.151-7.877,7.877
	s3.151,7.877,7.877,7.877h372.578c4.726,0,7.877-3.151,7.877-7.877s-3.151-7.877-7.877-7.877H23.631z"/>
<path style="fill:#E0E4E8;" d="M23.631,39.385h372.578c8.665,0,15.754-7.089,15.754-15.754s-7.089-15.754-15.754-15.754H23.631
	c-8.665,0-15.754,7.089-15.754,15.754S14.966,39.385,23.631,39.385z"/>
<path style="fill:#183651;" d="M396.209,47.262H23.631C10.24,47.262,0,37.022,0,23.631S10.24,0,23.631,0h372.578
	C409.6,0,419.84,10.24,419.84,23.631S409.6,47.262,396.209,47.262z M23.631,15.754c-4.726,0-7.877,3.151-7.877,7.877
	s3.151,7.877,7.877,7.877h372.578c4.726,0,7.877-3.151,7.877-7.877s-3.151-7.877-7.877-7.877H23.631z"/>
<circle style="fill:#FFFFFF;" cx="210.314" cy="363.126" r="22.055"/>
<path style="fill:#183651;" d="M210.314,392.271c-16.542,0-29.932-13.391-29.932-29.932c0-16.542,13.391-29.932,29.932-29.932
	s29.932,13.391,29.932,29.932C239.458,378.88,226.855,392.271,210.314,392.271z M210.314,348.948
	c-7.877,0-14.178,6.302-14.178,14.178s6.302,14.178,14.178,14.178s14.178-6.302,14.178-14.178
	C223.705,355.249,218.191,348.948,210.314,348.948z"/>
<g>
	<rect x="202.437" y="298.535" style="fill:#183651;" width="15.754" height="42.535"/>
	<rect x="85.858" y="96.098" style="fill:#183651;" width="15.754" height="15.754"/>
	<rect x="124.455" y="96.098" style="fill:#183651;" width="15.754" height="15.754"/>
	<rect x="163.052" y="96.098" style="fill:#183651;" width="15.754" height="15.754"/>
	<rect x="85.858" y="135.483" style="fill:#183651;" width="15.754" height="15.754"/>
	<rect x="124.455" y="135.483" style="fill:#183651;" width="15.754" height="15.754"/>
	<rect x="163.052" y="135.483" style="fill:#183651;" width="15.754" height="15.754"/>
</g>
<g>
	<rect x="233.157" y="86.646" style="fill:#FFFFFF;" width="110.277" height="17.329"/>
	<rect x="233.157" y="129.969" style="fill:#FFFFFF;" width="110.277" height="17.329"/>
	<rect x="93.735" y="195.348" style="fill:#FFFFFF;" width="144.935" height="17.329"/>
</g>
<path style="fill:#2EA0DA;" d="M474.191,201.649H311.926c-11.815,0-22.055,9.452-22.055,22.055v251.274
	c0,11.815,9.452,22.055,22.055,22.055h162.265c11.815,0,22.055-9.452,22.055-22.055V223.705
	C496.246,211.889,486.006,201.649,474.191,201.649z"/>
<path style="fill:#183651;" d="M474.191,504.123H311.926c-16.542,0-29.932-13.391-29.932-29.932V223.705
	c0-16.542,13.391-29.932,29.932-29.932h162.265c16.542,0,29.932,13.391,29.932,29.932v251.274
	C504.123,490.732,490.732,504.123,474.191,504.123z M311.926,209.526c-7.877,0-14.178,6.302-14.178,14.178v251.274
	c0,7.877,6.302,14.178,14.178,14.178h162.265c7.877,0,14.178-6.302,14.178-14.178V223.705c0-7.877-6.302-14.178-14.178-14.178
	H311.926z"/>
<path style="fill:#FFFFFF;" d="M290.658,433.231v40.96c0,11.815,9.452,22.055,22.055,22.055h162.265
	c11.815,0,22.055-9.452,22.055-22.055v-40.96"/>
<path style="fill:#183651;" d="M474.191,504.123H311.926c-16.542,0-29.932-13.391-29.932-29.932v-40.96h15.754v40.96
	c0,7.877,6.302,14.178,14.178,14.178h162.265c7.877,0,14.178-6.302,14.178-14.178v-40.96h15.754v40.96
	C504.123,490.732,490.732,504.123,474.191,504.123z"/>
<path style="fill:#FFFFFF;" d="M496.246,252.062v-28.357c0-11.815-9.452-22.055-22.055-22.055H311.926
	c-11.815,0-22.055,9.452-22.055,22.055v28.357"/>
<path style="fill:#183651;" d="M504.123,252.062h-15.754v-28.357c0-7.877-6.302-14.178-14.178-14.178H311.926
	c-7.877,0-14.178,6.302-14.178,14.178v28.357h-15.754v-28.357c0-16.542,13.391-29.932,29.932-29.932h162.265
	c16.542,0,29.932,13.391,29.932,29.932V252.062z"/>
<g>
	<circle style="fill:#CECFD0;" cx="393.058" cy="462.375" r="15.754"/>
	<rect x="364.702" y="223.705" style="fill:#CECFD0;" width="56.714" height="11.815"/>
</g>
<g>
	<rect x="323.742" y="270.966" style="fill:#FFFFFF;" width="29.145" height="29.145"/>
	<rect x="378.88" y="270.966" style="fill:#FFFFFF;" width="29.145" height="29.145"/>
	<rect x="433.231" y="270.966" style="fill:#FFFFFF;" width="29.145" height="29.145"/>
	<rect x="323.742" y="319.803" style="fill:#FFFFFF;" width="29.145" height="29.145"/>
	<rect x="378.88" y="319.803" style="fill:#FFFFFF;" width="29.145" height="29.145"/>
	<rect x="323.742" y="368.64" style="fill:#FFFFFF;" width="29.145" height="29.145"/>
	<polygon style="fill:#FFFFFF;" points="154.388,496.246 154.388,424.566 96.098,324.529 37.022,424.566 37.022,496.246 	"/>
</g>
<path style="fill:#183651;" d="M154.388,504.123H36.234c-4.726,0-7.877-3.151-7.877-7.877v-71.68c0-1.575,0-3.151,0.788-3.938
	l59.077-100.825c1.575-2.363,3.938-3.938,7.089-3.938l0,0c3.151,0,5.514,1.575,7.089,3.938l59.077,100.825
	c0.788,1.575,0.788,2.363,0.788,3.938v71.68C162.265,500.972,159.114,504.123,154.388,504.123z M44.898,488.369h102.4v-61.44
	l-51.2-87.434l-51.2,87.434V488.369z"/>
<polygon style="fill:#F06151;" points="68.529,488.369 68.529,433.231 96.098,386.757 122.88,433.231 122.88,488.369 "/>
<g>
</g>
<g>
</g>
<g>
</g>
<g>
</g>
<g>
</g>
<g>
</g>
<g>
</g>
<g>
</g>
<g>
</g>
<g>
</g>
<g>
</g>
<g>
</g>
<g>
</g>
<g>
</g>
<g>
</g>
</svg>
