<?xml version="1.0" encoding="iso-8859-1"?>
<!-- Generator: Adobe Illustrator 19.0.0, SVG Export Plug-In . SVG Version: 6.00 Build 0)  -->
<svg version="1.1" id="Capa_1" xmlns="http://www.w3.org/2000/svg" xmlns:xlink="http://www.w3.org/1999/xlink" x="0px" y="0px"
	 viewBox="0 0 504.123 504.123" style="enable-background:new 0 0 504.123 504.123;" xml:space="preserve">
<rect x="7.877" y="186.289" style="fill:#FBBD5E;" width="252.062" height="308.775"/>
<path style="fill:#183651;" d="M259.938,503.729H7.877c-4.726,0-7.877-3.151-7.877-7.877V186.289c0-4.726,3.151-7.877,7.877-7.877
	h252.062c4.726,0,7.877,3.151,7.877,7.877v308.775C267.815,499.791,264.665,503.729,259.938,503.729z M15.754,487.975h236.308
	V194.166H15.754V487.975z"/>
<rect x="39.385" y="217.797" style="fill:#FFFFFF;" width="189.834" height="246.548"/>
<path style="fill:#E0E4E8;" d="M472.615,186.289H317.44c-13.391,0-23.631,10.24-23.631,23.631v262.302
	c0,13.391,10.24,23.631,23.631,23.631h155.175c13.391,0,23.631-10.24,23.631-23.631V209.92
	C496.246,197.317,486.006,186.289,472.615,186.289z"/>
<path style="fill:#183651;" d="M472.615,503.729H317.44c-17.329,0-31.508-14.178-31.508-31.508V209.92
	c0-17.329,14.178-31.508,31.508-31.508h155.175c17.329,0,31.508,14.178,31.508,31.508v262.302
	C504.123,489.551,489.945,503.729,472.615,503.729z M317.44,194.166c-8.665,0-15.754,7.089-15.754,15.754v262.302
	c0,8.665,7.089,15.754,15.754,15.754h155.175c8.665,0,15.754-7.089,15.754-15.754V209.92c0-8.665-7.089-15.754-15.754-15.754H317.44
	z"/>
<g>
	<rect x="325.317" y="225.674" style="fill:#FFFFFF;" width="139.422" height="209.526"/>
	<polygon style="fill:#FFFFFF;" points="199.286,217.009 68.529,217.009 84.283,166.597 183.532,166.597 	"/>
</g>
<path style="fill:#183651;" d="M199.286,224.886L199.286,224.886H68.529c-2.363,0-4.726-1.575-6.302-3.151
	c-1.575-2.363-1.575-4.726-0.788-7.089l15.754-50.412c0.788-3.151,3.938-5.514,7.877-5.514h99.249c3.151,0,6.302,2.363,7.877,5.514
	l14.966,48.837c0.788,0.788,0.788,2.363,0.788,3.938C207.163,221.735,204.012,224.886,199.286,224.886z M79.557,209.132h109.489
	l-11.028-34.658H89.797L79.557,209.132z"/>
<circle style="fill:#FFFFFF;" cx="133.908" cy="166.597" r="25.994"/>
<path style="fill:#183651;" d="M133.908,200.468c-18.905,0-33.871-14.966-33.871-33.871s14.966-33.871,33.871-33.871
	c18.905,0,33.871,14.966,33.871,33.871S152.812,200.468,133.908,200.468z M133.908,148.48c-10.24,0-18.117,7.877-18.117,18.117
	c0,10.24,7.877,18.117,18.117,18.117s18.117-7.877,18.117-18.117C152.025,157.145,144.148,148.48,133.908,148.48z"/>
<g>
	<circle style="fill:#CECFD0;" cx="395.422" cy="461.194" r="14.178"/>
	<path style="fill:#CECFD0;" d="M413.538,205.194h-37.022c-2.363,0-3.938,1.575-3.938,3.938s1.575,3.938,3.938,3.938h37.022
		c2.363,0,3.938-1.575,3.938-3.938C418.265,207.557,415.902,205.194,413.538,205.194z"/>
</g>
<g>
	<circle style="fill:#183651;" cx="395.422" cy="354.855" r="9.452"/>
	<path style="fill:#183651;" d="M440.32,314.683c-11.815-11.815-27.569-18.905-44.898-18.905c-17.329,0-33.083,6.302-44.898,18.905
		c-1.575,1.575-1.575,3.938,0,5.514c1.575,1.575,3.938,1.575,5.514,0c10.24-10.24,24.418-16.542,39.385-16.542
		c14.966,0,29.145,5.514,39.385,16.542c1.575,1.575,3.938,1.575,5.514,0S441.895,316.258,440.32,314.683z"/>
	<path style="fill:#183651;" d="M361.551,325.711c-1.575,1.575-1.575,3.938,0,5.514c1.575,1.575,3.938,1.575,5.514,0
		c15.754-15.754,40.96-15.754,55.926,0c1.575,1.575,3.938,1.575,5.514,0c1.575-1.575,1.575-3.938,0-5.514
		C410.388,307.594,380.455,307.594,361.551,325.711z"/>
	<path style="fill:#183651;" d="M395.422,328.074c-8.665,0-16.542,3.151-22.055,9.452c-1.575,1.575-1.575,3.938,0,5.514
		c1.575,1.575,3.938,1.575,5.514,0c9.452-9.452,24.418-9.452,33.083,0c1.575,1.575,3.938,1.575,5.514,0
		c1.575-1.575,1.575-3.938,0-5.514C411.175,331.225,403.298,328.074,395.422,328.074z"/>
</g>
<path style="fill:#F06151;" d="M49.625,7.483c-22.843,0-41.748,18.905-41.748,41.748s18.905,41.748,41.748,41.748H194.56V7.483
	H49.625z"/>
<path style="fill:#183651;" d="M194.56,99.643H49.625C22.055,99.643,0,77.588,0,50.018S22.055,0.394,49.625,0.394H194.56
	c4.726,0,7.877,3.151,7.877,7.877v83.495C202.437,95.705,199.286,99.643,194.56,99.643z M49.625,15.36
	c-18.905,0-33.871,14.966-33.871,33.871S30.72,83.102,49.625,83.102h137.058V15.36H49.625z"/>
<path style="fill:#4FBF9F;" d="M460.8,14.572H194.56v69.317H460.8c18.905,0,34.658-15.754,34.658-34.658
	S479.705,14.572,460.8,14.572z"/>
<path style="fill:#183651;" d="M460.8,92.554H194.56c-4.726,0-7.877-3.151-7.877-7.877V14.572c0-4.726,3.151-7.877,7.877-7.877
	H460.8c23.631,0,42.535,18.905,42.535,42.535S484.431,92.554,460.8,92.554z M202.437,76.8H460.8
	c14.966,0,26.782-11.815,26.782-26.782S475.766,22.449,460.8,22.449H202.437V76.8z"/>
<path style="fill:#FFFFFF;" d="M218.191,61.046V38.203H460.8c6.302,0,11.028,4.726,11.028,11.028s-4.726,11.028-11.028,11.028
	H218.191V61.046z"/>
<g>
	<path style="fill:#183651;" d="M221.342,145.329c-4.726,0-7.877-3.151-7.877-7.877c0-7.089-5.514-12.603-12.603-12.603H49.625
		c-4.726,0-7.877-3.151-7.877-7.877V91.766c0-4.726,3.151-7.877,7.877-7.877s7.877,3.151,7.877,7.877v17.329h144.148
		c15.754,0,28.357,12.603,28.357,28.357C229.218,141.391,226.068,145.329,221.342,145.329z"/>
	<rect x="68.529" y="268.997" style="fill:#183651;" width="130.757" height="15.754"/>
	<rect x="68.529" y="313.895" style="fill:#183651;" width="130.757" height="15.754"/>
	<rect x="68.529" y="358.794" style="fill:#183651;" width="130.757" height="15.754"/>
	<rect x="68.529" y="402.905" style="fill:#183651;" width="15.754" height="15.754"/>
	<rect x="109.489" y="402.905" style="fill:#183651;" width="15.754" height="15.754"/>
	<rect x="150.449" y="402.905" style="fill:#183651;" width="15.754" height="15.754"/>
	<rect x="191.409" y="402.905" style="fill:#183651;" width="15.754" height="15.754"/>
</g>
<g>
</g>
<g>
</g>
<g>
</g>
<g>
</g>
<g>
</g>
<g>
</g>
<g>
</g>
<g>
</g>
<g>
</g>
<g>
</g>
<g>
</g>
<g>
</g>
<g>
</g>
<g>
</g>
<g>
</g>
</svg>
