<?xml version="1.0" encoding="iso-8859-1"?>
<!-- Generator: Adobe Illustrator 19.0.0, SVG Export Plug-In . SVG Version: 6.00 Build 0)  -->
<svg version="1.1" id="Capa_1" xmlns="http://www.w3.org/2000/svg" xmlns:xlink="http://www.w3.org/1999/xlink" x="0px" y="0px"
	 viewBox="0 0 504.123 504.123" style="enable-background:new 0 0 504.123 504.123;" xml:space="preserve">
<path style="fill:#FFFFFF;" d="M476.554,7.877H27.569c-11.028,0-19.692,9.452-19.692,20.48V102.4h488.369V28.357
	C496.246,17.329,487.582,7.877,476.554,7.877z"/>
<path style="fill:#183651;" d="M496.246,110.277H7.877C3.151,110.277,0,107.126,0,102.4V28.357C0,12.603,12.603,0,27.569,0h448.985
	c14.966,0,27.569,12.603,27.569,28.357V102.4C504.123,106.338,500.972,110.277,496.246,110.277z M15.754,94.523h472.615V28.357
	c0-7.089-5.514-12.603-11.815-12.603H27.569c-6.302,0-11.815,5.514-11.815,12.603V94.523z"/>
<path style="fill:#FBBD5E;" d="M7.877,102.4v373.366c0,11.028,8.665,20.48,19.692,20.48h448.985c11.028,0,19.692-9.452,19.692-20.48
	V102.4H7.877z"/>
<path style="fill:#183651;" d="M476.554,504.123H27.569C12.603,504.123,0,491.52,0,475.766V102.4c0-4.726,3.151-7.877,7.877-7.877
	h488.369c4.726,0,7.877,3.151,7.877,7.877v373.366C504.123,491.52,491.52,504.123,476.554,504.123z M15.754,110.277v365.489
	c0,7.089,5.514,12.603,11.815,12.603h448.985c6.302,0,11.815-5.514,11.815-12.603V110.277H15.754z"/>
<rect x="37.022" y="132.332" style="fill:#FFFFFF;" width="430.08" height="333.982"/>
<g>
	<ellipse style="fill:#F06151;" cx="448.197" cy="55.138" rx="12.603" ry="12.603"/>
	<ellipse style="fill:#F06151;" cx="404.874" cy="55.138" rx="12.603" ry="12.603"/>
	<ellipse style="fill:#F06151;" cx="361.551" cy="55.138" rx="12.603" ry="12.603"/>
</g>
<path style="fill:#E1E6E7;" d="M181.957,42.535H51.2c-7.089,0-12.603,5.514-12.603,12.603c0,7.089,5.514,12.603,12.603,12.603
	h130.757c7.089,0,12.603-5.514,12.603-12.603C194.56,48.049,189.046,42.535,181.957,42.535z"/>
<g>
	<path style="fill:#183651;" d="M66.954,433.231c-4.726,0-7.877-3.151-7.877-7.877s3.151-7.877,7.877-7.877h30.72
		c4.726,0,7.877,3.151,7.877,7.877s-3.151,7.877-7.877,7.877H66.954z"/>
	<path style="fill:#183651;" d="M97.674,370.215h-30.72c-4.726,0-7.877-3.151-7.877-7.877s3.151-7.877,7.877-7.877h30.72
		c4.726,0,7.877,3.151,7.877,7.877S101.612,370.215,97.674,370.215z"/>
	<path style="fill:#183651;" d="M66.954,307.2c-4.726,0-7.877-3.151-7.877-7.877c0-4.726,3.151-7.877,7.877-7.877h30.72
		c4.726,0,7.877,3.151,7.877,7.877c0,4.726-3.151,7.877-7.877,7.877H66.954z"/>
	<path style="fill:#183651;" d="M97.674,244.185h-30.72c-4.726,0-7.877-3.151-7.877-7.877s3.151-7.877,7.877-7.877h30.72
		c4.726,0,7.877,3.151,7.877,7.877S101.612,244.185,97.674,244.185z"/>
	<path style="fill:#183651;" d="M97.674,181.169h-30.72c-4.726,0-7.877-3.151-7.877-7.877c0-4.726,3.151-7.877,7.877-7.877h30.72
		c4.726,0,7.877,3.151,7.877,7.877C105.551,178.018,101.612,181.169,97.674,181.169z"/>
	<path style="fill:#183651;" d="M81.92,433.231c-4.726,0-7.877-3.151-7.877-7.877V173.292c0-4.726,3.151-7.877,7.877-7.877
		s7.877,3.151,7.877,7.877v252.849C89.797,430.08,86.646,433.231,81.92,433.231z"/>
</g>
<rect x="155.963" y="173.292" style="fill:#FFFFFF;" width="78.769" height="41.748"/>
<path style="fill:#183651;" d="M234.732,222.917h-78.769c-4.726,0-7.877-3.151-7.877-7.877v-41.748c0-4.726,3.151-7.877,7.877-7.877
	h78.769c4.726,0,7.877,3.151,7.877,7.877v41.748C242.609,218.978,238.671,222.917,234.732,222.917z M163.84,207.163h63.015v-25.994
	H163.84V207.163z"/>
<rect x="367.852" y="173.292" style="fill:#FFFFFF;" width="61.44" height="41.748"/>
<path style="fill:#183651;" d="M429.292,222.917h-61.44c-4.726,0-7.877-3.151-7.877-7.877v-41.748c0-4.726,3.151-7.877,7.877-7.877
	h61.44c4.726,0,7.877,3.151,7.877,7.877v41.748C437.169,218.978,433.231,222.917,429.292,222.917z M375.729,207.163h45.686v-25.994
	h-45.686V207.163z"/>
<rect x="348.948" y="273.329" style="fill:#FFFFFF;" width="80.345" height="41.748"/>
<path style="fill:#183651;" d="M429.292,322.954h-80.345c-4.726,0-7.877-3.151-7.877-7.877v-41.748c0-4.726,3.151-7.877,7.877-7.877
	h80.345c4.726,0,7.877,3.151,7.877,7.877v41.748C437.169,319.015,433.231,322.954,429.292,322.954z M356.825,307.2h64.591v-25.994
	h-64.591V307.2z"/>
<rect x="139.422" y="362.338" style="fill:#FFFFFF;" width="61.44" height="41.748"/>
<path style="fill:#183651;" d="M200.862,412.751h-61.44c-4.726,0-7.877-3.151-7.877-7.877v-41.748c0-4.726,3.151-7.877,7.877-7.877
	h61.44c4.726,0,7.877,3.151,7.877,7.877v41.748C208.738,408.812,205.588,412.751,200.862,412.751z M147.298,396.997h45.686v-25.994
	h-45.686V396.997z"/>
<rect x="356.825" y="383.606" style="fill:#FFFFFF;" width="78.769" height="41.748"/>
<g>
	<path style="fill:#183651;" d="M435.594,433.231h-78.769c-4.726,0-7.877-3.151-7.877-7.877v-41.748
		c0-4.726,3.151-7.877,7.877-7.877h78.769c4.726,0,7.877,3.151,7.877,7.877v41.748C443.471,430.08,440.32,433.231,435.594,433.231z
		 M364.702,417.477h63.015v-25.994h-63.015V417.477z"/>
	<path style="fill:#183651;" d="M356.825,412.751h-68.529c-4.726,0-7.877-3.151-7.877-7.877V201.649h-45.686
		c-4.726,0-7.877-3.151-7.877-7.877c0-4.726,3.151-7.877,7.877-7.877h53.563c4.726,0,7.877,3.151,7.877,7.877v202.437h60.652
		c4.726,0,7.877,3.151,7.877,7.877S361.551,412.751,356.825,412.751z"/>
</g>
<circle style="fill:#FFFFFF;" cx="288.295" cy="299.323" r="25.994"/>
<path style="fill:#183651;" d="M288.295,333.194c-18.905,0-33.871-14.966-33.871-33.871c0-18.905,14.966-33.871,33.871-33.871
	s33.871,14.966,33.871,33.871C322.166,318.228,307.2,333.194,288.295,333.194z M288.295,281.206
	c-10.24,0-18.117,7.877-18.117,18.117c0,10.24,7.877,18.117,18.117,18.117s18.117-7.877,18.117-18.117
	C306.412,289.083,298.535,281.206,288.295,281.206z"/>
<g>
</g>
<g>
</g>
<g>
</g>
<g>
</g>
<g>
</g>
<g>
</g>
<g>
</g>
<g>
</g>
<g>
</g>
<g>
</g>
<g>
</g>
<g>
</g>
<g>
</g>
<g>
</g>
<g>
</g>
</svg>
