<?xml version="1.0" encoding="iso-8859-1"?>
<!-- Generator: Adobe Illustrator 19.0.0, SVG Export Plug-In . SVG Version: 6.00 Build 0)  -->
<svg version="1.1" id="Capa_1" xmlns="http://www.w3.org/2000/svg" xmlns:xlink="http://www.w3.org/1999/xlink" x="0px" y="0px"
	 viewBox="0 0 504.123 504.123" style="enable-background:new 0 0 504.123 504.123;" xml:space="preserve">
<circle style="fill:#E0E4E8;" cx="252.062" cy="252.062" r="252.062"/>
<path style="fill:#F06151;" d="M455.286,275.692v-48.049H419.84c-1.575-13.391-5.514-26.782-10.24-39.385l30.72-17.329
	l-23.631-41.748l-30.72,17.329c-8.665-11.028-18.117-20.48-28.357-28.357l17.329-30.72l-41.748-23.631l-17.329,30.72
	c-12.603-4.726-25.206-8.665-39.385-10.24V48.837h-48.049v35.446c-13.391,1.575-26.782,5.514-39.385,10.24l-17.329-30.72
	l-41.748,23.631l17.329,30.72c-11.028,8.665-20.48,18.117-28.357,28.357l-30.72-16.542l-23.631,41.748l30.72,17.329
	c-4.726,12.603-8.665,25.206-10.24,39.385H48.837v48.049h35.446c1.575,13.391,5.514,26.782,10.24,39.385l-30.72,17.329
	l23.631,41.748l30.72-17.329c8.665,11.028,18.117,20.48,28.357,28.357l-16.542,29.932l41.748,23.631l17.329-30.72
	c12.603,4.726,25.206,8.665,39.385,10.24v35.446h48.049v-35.446c13.391-1.575,26.782-5.514,39.385-10.24l17.329,30.72l41.748-23.631
	l-17.329-30.72c11.028-8.665,20.48-18.117,28.357-28.357l30.72,17.329l23.631-41.748l-30.72-17.329
	c4.726-12.603,8.665-25.206,10.24-39.385H455.286z"/>
<path style="fill:#183651;" d="M275.692,463.163h-48.049c-4.726,0-7.877-3.151-7.877-7.877v-28.357
	c-9.452-1.575-18.905-3.938-27.569-7.089l-14.178,24.418c-0.788,1.575-3.151,3.151-4.726,3.938c-2.363,0.788-3.938,0-6.302-0.788
	l-41.748-23.631c-1.575-0.788-3.151-3.151-3.938-4.726c-0.788-2.363,0-3.938,0.788-6.302l14.178-25.206
	c-7.089-6.302-14.178-13.391-20.48-20.48l-25.206,14.178c0,0.788-2.363,1.575-4.726,0.788c-2.363-0.788-3.938-1.575-4.726-3.938
	l-23.631-41.748c-0.788-1.575-1.575-3.938-0.788-6.302c0.788-2.363,1.575-3.938,3.938-4.726l24.418-14.178
	c-3.151-8.665-5.514-18.117-7.089-27.569H48.837c-4.726,0-7.877-3.151-7.877-7.877v-48.049c0-4.726,3.151-7.877,7.877-7.877h28.357
	c1.575-9.452,3.938-18.905,7.089-27.569l-24.418-14.178c-1.575-0.788-3.151-3.151-3.938-4.726c-0.788-2.363,0-3.938,0.788-6.302
	l23.631-41.748c2.363-3.938,7.089-4.726,11.028-3.151l25.206,14.178c6.302-7.089,13.391-14.178,20.48-20.48L122.88,90.585
	c-0.788,0-1.575-2.363-0.788-4.726c0.788-2.363,1.575-3.938,3.938-4.726l41.748-23.631c3.938-2.363,8.665-0.788,11.028,3.151
	l14.178,24.418c8.665-3.151,18.117-5.514,27.569-7.089V48.837c0-4.726,3.151-7.877,7.877-7.877h48.049
	c4.726,0,7.877,3.151,7.877,7.877v28.357c9.452,1.575,18.905,3.938,27.569,7.089l14.178-24.418
	c2.363-3.938,7.089-4.726,11.028-3.151l41.748,23.631c1.575,0.788,3.151,3.151,3.938,4.726c0.788,2.363,0,3.938-0.788,6.302
	l-14.178,25.206c7.089,6.302,14.178,13.391,20.48,20.48l25.206-14.178c3.938-2.363,8.665-0.788,11.028,3.151l23.631,41.748
	c0.788,1.575,1.575,3.938,0.788,6.302c-0.788,2.363-1.575,3.938-3.938,4.726l-24.418,14.178c3.151,8.665,5.514,18.117,7.089,27.569
	h28.357c4.726,0,7.877,3.151,7.877,7.877v48.049c0,4.726-3.151,7.877-7.877,7.877h-28.357c-1.575,9.452-3.938,18.905-7.089,27.569
	l24.418,14.178c1.575,0.788,3.151,3.151,3.938,4.726c0.788,1.575,0,3.938-0.788,6.302l-23.631,41.748
	c-0.788,1.575-3.151,3.151-4.726,3.938c-2.363,0.788-3.938,0-6.302-0.788l-25.206-14.178c-6.302,7.089-13.391,14.178-20.48,20.48
	l14.178,25.206c0.788,1.575,1.575,3.938,0.788,6.302c-0.788,2.363-1.575,3.938-3.938,4.726l-41.748,23.631
	c-1.575,0.788-3.938,1.575-6.302,0.788c-2.363-0.788-3.938-1.575-4.726-3.938l-14.178-24.418
	c-8.665,3.151-18.117,5.514-27.569,7.089v28.357C283.569,459.225,280.418,463.163,275.692,463.163z M236.308,447.409h32.295V419.84
	c0-3.938,3.151-7.089,7.089-7.877c12.603-1.575,25.206-5.514,37.022-10.24c3.938-1.575,7.877,0,9.452,3.151l13.391,23.631
	l27.569-15.754l-13.391-23.631c-1.575-3.151-0.788-7.877,1.575-10.24c10.24-7.877,19.692-17.329,27.569-27.569
	c2.363-3.151,7.089-3.938,10.24-1.575l23.631,13.391l15.754-27.569l-23.631-13.391c-3.151-1.575-4.726-6.302-3.151-9.452
	c4.726-11.815,7.877-24.418,10.24-37.022c0.788-3.938,3.938-7.089,7.877-7.089h27.569v-32.295H419.84
	c-3.938,0-7.089-3.151-7.877-7.089c-1.575-12.603-5.514-25.206-10.24-37.022c-1.575-3.938,0-7.877,3.151-9.452l23.631-13.391
	l-15.754-27.569l-23.631,13.391c-3.151,1.575-7.877,0.788-10.24-1.575c-7.877-10.24-17.329-19.692-27.569-27.569
	c-3.151-2.363-3.938-7.089-1.575-10.24l13.391-23.631l-27.569-15.754l-13.391,23.631c-1.575,3.151-6.302,4.726-9.452,3.151
	c-11.815-4.726-24.418-7.877-37.022-10.24c-3.938-0.788-7.089-3.938-7.089-7.877V56.714h-32.295v27.569
	c0,3.938-3.151,7.089-7.089,7.877c-12.603,1.575-25.206,5.514-37.022,10.24c-3.938,1.575-7.877,0-9.452-3.151l-13.391-23.631
	l-27.569,15.754l13.391,23.631c1.575,3.151,0.788,7.877-1.575,10.24c-10.24,7.877-19.692,17.329-27.569,27.569
	c-2.363,3.151-7.089,3.938-10.24,1.575L92.16,140.997l-15.754,27.569l23.631,13.391c3.151,1.575,4.726,6.302,3.151,9.452
	c-4.726,11.815-7.877,24.418-10.24,37.022c-0.788,3.938-3.938,7.089-7.877,7.089H56.714v32.295h27.569
	c3.938,0,7.089,3.151,7.877,7.089c1.575,12.603,5.514,25.206,10.24,37.022c1.575,3.938,0,7.877-3.151,9.452l-23.631,13.391
	l15.754,27.569l23.631-13.391c3.151-1.575,7.877-0.788,10.24,1.575c7.877,10.24,17.329,19.692,27.569,27.569
	c3.151,2.363,3.938,7.089,1.575,10.24l-13.391,23.631l27.569,15.754l13.391-23.631c1.575-3.151,6.302-4.726,9.452-3.151
	c11.815,4.726,24.418,7.877,37.022,10.24c3.938,0.788,7.089,3.938,7.089,7.877v28.357H236.308z"/>
<circle style="fill:#FFFFFF;" cx="252.062" cy="252.062" r="127.606"/>
<circle style="fill:#E0E4E8;" cx="252.062" cy="252.062" r="79.557"/>
<circle style="fill:#FFFFFF;" cx="252.062" cy="252.062" r="31.508"/>
<g>
	<path style="fill:#183651;" d="M252.062,291.446c-22.055,0-39.385-17.329-39.385-39.385s17.329-39.385,39.385-39.385
		s39.385,17.329,39.385,39.385S274.117,291.446,252.062,291.446z M252.062,228.431c-13.391,0-23.631,11.028-23.631,23.631
		c0,13.391,11.028,23.631,23.631,23.631c13.391,0,23.631-11.028,23.631-23.631C275.692,238.671,265.452,228.431,252.062,228.431z"/>
	
		<rect x="21.627" y="307.054" transform="matrix(-0.2708 -0.9626 0.9626 -0.2708 -266.1696 428.2392)" style="fill:#183651;" width="14.966" height="15.753"/>
	
		<rect x="466.819" y="181.521" transform="matrix(-0.2708 -0.9626 0.9626 -0.2708 420.4271 697.2673)" style="fill:#183651;" width="14.966" height="15.753"/>
	
		<rect x="82.926" y="409.387" transform="matrix(-0.7158 -0.6983 0.6983 -0.7158 -136.2519 779.076)" style="fill:#183651;" width="14.966" height="15.754"/>
	
		<rect x="406.235" y="78.978" transform="matrix(-0.7158 -0.6983 0.6983 -0.7158 649.2067 437.9261)" style="fill:#183651;" width="14.966" height="15.754"/>
	
		<rect x="187.371" y="468.64" transform="matrix(-0.969 -0.2469 0.2469 -0.969 266.0189 986.3902)" style="fill:#183651;" width="14.966" height="15.753"/>
	
		<rect x="301.759" y="19.711" transform="matrix(-0.969 -0.2469 0.2469 -0.969 602.0965 130.6749)" style="fill:#183651;" width="14.966" height="15.753"/>
	
		<rect x="307.084" y="467.569" transform="matrix(-0.2706 -0.9627 0.9627 -0.2706 -57.14 906.8102)" style="fill:#183651;" width="15.754" height="14.966"/>
	
		<rect x="181.534" y="22.35" transform="matrix(-0.2706 -0.9627 0.9627 -0.2706 211.9443 220.2508)" style="fill:#183651;" width="15.754" height="14.966"/>
	
		<rect x="409.368" y="406.238" transform="matrix(-0.7158 -0.6983 0.6983 -0.7158 427.0063 1001.2274)" style="fill:#183651;" width="15.754" height="14.966"/>
	
		<rect x="78.974" y="82.915" transform="matrix(-0.7158 -0.6983 0.6983 -0.7158 85.8944 215.7528)" style="fill:#183651;" width="15.754" height="14.966"/>
	
		<rect x="468.675" y="301.764" transform="matrix(-0.969 -0.2471 0.2471 -0.969 861.9124 726.6589)" style="fill:#183651;" width="15.754" height="14.966"/>
	
		<rect x="19.702" y="187.389" transform="matrix(-0.9691 -0.2467 0.2467 -0.9691 6.2309 390.5241)" style="fill:#183651;" width="15.754" height="14.966"/>
</g>
<g>
</g>
<g>
</g>
<g>
</g>
<g>
</g>
<g>
</g>
<g>
</g>
<g>
</g>
<g>
</g>
<g>
</g>
<g>
</g>
<g>
</g>
<g>
</g>
<g>
</g>
<g>
</g>
<g>
</g>
</svg>
