<?xml version="1.0" encoding="iso-8859-1"?>
<!-- Generator: Adobe Illustrator 19.0.0, SVG Export Plug-In . SVG Version: 6.00 Build 0)  -->
<svg version="1.1" id="Capa_1" xmlns="http://www.w3.org/2000/svg" xmlns:xlink="http://www.w3.org/1999/xlink" x="0px" y="0px"
	 viewBox="0 0 504.123 504.123" style="enable-background:new 0 0 504.123 504.123;" xml:space="preserve">
<circle style="fill:#E0E4E8;" cx="356.825" cy="356.825" r="147.298"/>
<path style="fill:#FFFFFF;" d="M473.403,396.209v-29.145l-21.268-2.363c-1.575-7.089-4.726-13.391-7.877-19.692l13.391-17.329
	l-20.48-20.48l-17.329,13.391c-6.302-3.938-12.603-6.302-19.692-7.877l-2.363-21.268H368.64l-2.363,21.268
	c-7.089,1.575-13.391,4.726-19.692,7.877L329.255,307.2l-20.48,20.48l13.391,17.329c-3.938,6.302-6.302,12.603-7.877,19.692
	l-21.268,2.363v29.145l21.268,2.363c1.575,7.089,4.726,13.391,7.877,19.692l-13.391,17.329l20.48,20.48l17.329-13.391
	c6.302,3.938,12.603,6.302,19.692,7.877l2.363,21.268h29.145l2.363-21.268c7.089-1.575,13.391-4.726,19.692-7.877l17.329,13.391
	l20.48-20.48l-13.391-17.329c3.938-6.302,6.302-12.603,7.877-19.692L473.403,396.209z"/>
<path style="fill:#183651;" d="M396.209,481.28h-29.145c-3.938,0-7.089-3.151-7.877-7.089l-2.363-16.542
	c-3.938-1.575-7.877-3.151-11.815-4.726l-13.391,10.24c-3.151,2.363-7.877,2.363-10.24-0.788l-20.48-20.48
	c-3.151-3.151-3.151-7.089-0.788-10.24l10.24-13.391c-1.575-3.938-3.938-7.877-4.726-11.815l-16.542-2.363
	c-3.938-0.788-7.089-3.938-7.089-7.877v-29.145c0-3.938,3.151-7.089,7.089-7.877l16.542-2.363c1.575-3.938,3.151-7.877,4.726-11.815
	l-10.24-13.391c-2.363-3.151-2.363-7.877,0.788-10.24l20.48-20.48c3.151-3.151,7.089-3.151,10.24-0.788l13.391,10.24
	c3.938-1.575,7.877-3.938,11.815-4.726l2.363-16.542c0.788-3.938,3.938-7.089,7.877-7.089h29.145c3.938,0,7.089,3.151,7.877,7.089
	l2.363,16.542c3.938,1.575,7.877,3.151,11.815,4.726l13.391-10.24c3.151-2.363,7.877-2.363,10.24,0.788l20.48,20.48
	c3.151,3.151,3.151,7.089,0.788,10.24l-10.24,14.178c1.575,3.938,3.938,7.877,4.726,11.815l16.542,2.363
	c3.938,0.788,7.089,3.938,7.089,7.877v29.145c0,3.938-3.151,7.089-7.089,7.877l-16.542,2.363c-1.575,3.938-3.151,7.877-4.726,11.815
	l10.24,13.391c2.363,3.151,2.363,7.877-0.788,10.24l-20.48,20.48c-3.151,3.151-7.089,3.151-10.24,0.788l-13.391-11.028
	c-3.938,1.575-7.877,3.938-11.815,4.726l-2.363,16.542C404.086,478.129,400.148,481.28,396.209,481.28z M374.154,465.526h14.966
	l1.575-14.966c0.788-3.151,2.363-6.302,6.302-7.089c6.302-1.575,11.815-3.938,17.329-7.089c3.151-1.575,6.302-1.575,8.665,0.788
	l11.815,9.452l11.028-11.028l-8.665-11.815c-2.363-2.363-2.363-6.302-0.788-8.665c3.151-5.514,5.514-11.028,7.089-17.329
	c0.788-3.151,3.151-5.514,7.089-6.302l14.966-1.575v-15.754l-14.966-1.575c-3.151,0-6.302-2.363-7.089-6.302
	c-1.575-6.302-3.938-11.815-7.089-17.329c-1.575-3.151-1.575-6.302,0.788-8.665l9.452-11.815l-11.028-11.028l-11.815,9.452
	c-2.363,2.363-6.302,2.363-8.665,0.788c-5.514-3.151-11.028-5.514-17.329-7.089c-3.151-0.788-5.514-3.151-6.302-7.089l-1.575-14.966
	h-15.754l-1.575,14.966c-0.788,3.151-2.363,6.302-6.302,7.089c-6.302,1.575-11.815,3.938-17.329,7.089
	c-3.151,1.575-6.302,1.575-8.665-0.788l-11.815-9.452l-11.028,11.028l9.452,11.815c2.363,2.363,2.363,6.302,0.788,8.665
	c-3.151,5.514-5.514,11.028-7.089,17.329c-0.788,3.151-3.151,5.514-7.089,6.302l-14.966,1.575v14.966l14.966,1.575
	c3.151,0,6.302,2.363,7.089,6.302c1.575,6.302,3.938,11.815,7.089,17.329c1.575,3.151,1.575,6.302-0.788,8.665l-9.452,11.815
	l11.028,11.028l11.815-9.452c2.363-2.363,6.302-2.363,8.665-0.788c5.514,3.151,11.028,5.514,17.329,7.089
	c3.151,0.788,5.514,3.151,6.302,7.089L374.154,465.526z"/>
<circle style="fill:#4FBF9F;" cx="382.031" cy="382.031" r="51.2"/>
<circle style="fill:#FFFFFF;" cx="382.031" cy="382.031" r="20.48"/>
<path style="fill:#183651;" d="M382.031,410.388c-15.754,0-28.357-12.603-28.357-28.357s12.603-28.357,28.357-28.357
	s28.357,12.603,28.357,28.357S397.785,410.388,382.031,410.388z M382.031,369.428c-7.089,0-12.603,5.514-12.603,12.603
	c0,7.089,5.514,12.603,12.603,12.603c7.089,0,12.603-5.514,12.603-12.603C394.634,374.942,388.332,369.428,382.031,369.428z"/>
<path style="fill:#FFFFFF;" d="M359.975,119.729H23.631c-8.665,0-15.754-7.089-15.754-15.754V23.631
	c0-8.665,7.089-15.754,15.754-15.754h336.345c8.665,0,15.754,7.089,15.754,15.754v80.345
	C375.729,112.64,368.64,119.729,359.975,119.729z"/>
<path style="fill:#183651;" d="M359.975,127.606H23.631C10.24,127.606,0,117.366,0,103.975V23.631C0,10.24,10.24,0,23.631,0h336.345
	c13.391,0,23.631,10.24,23.631,23.631v80.345C383.606,116.578,373.366,127.606,359.975,127.606z M23.631,15.754
	c-4.726,0-7.877,3.151-7.877,7.877v80.345c0,4.726,3.151,7.877,7.877,7.877h336.345c4.726,0,7.877-3.151,7.877-7.877V23.631
	c0-4.726-3.151-7.877-7.877-7.877H23.631z"/>
<rect x="39.385" y="39.385" style="fill:#F06151;" width="145.723" height="48.837"/>
<path style="fill:#FFFFFF;" d="M359.975,230.794H23.631c-8.665,0-15.754-7.089-15.754-15.754v-79.557
	c0-8.665,7.089-15.754,15.754-15.754h336.345c8.665,0,15.754,7.089,15.754,15.754v80.345
	C375.729,223.705,368.64,230.794,359.975,230.794z"/>
<path style="fill:#183651;" d="M359.975,238.671H23.631C10.24,238.671,0,228.431,0,215.04v-79.557
	c0-13.391,10.24-23.631,23.631-23.631h336.345c13.391,0,23.631,10.24,23.631,23.631v80.345
	C383.606,228.431,373.366,238.671,359.975,238.671z M23.631,127.606c-4.726,0-7.877,3.151-7.877,7.877v80.345
	c0,4.726,3.151,7.877,7.877,7.877h336.345c4.726,0,7.877-3.151,7.877-7.877v-80.345c0-4.726-3.151-7.877-7.877-7.877H23.631z"/>
<rect x="39.385" y="151.237" style="fill:#F06151;" width="145.723" height="48.837"/>
<path style="fill:#FFFFFF;" d="M359.975,342.646H23.631c-8.665,0-15.754-7.089-15.754-15.754v-80.345
	c0-8.665,7.089-15.754,15.754-15.754h336.345c8.665,0,15.754,7.089,15.754,15.754v80.345
	C375.729,335.557,368.64,342.646,359.975,342.646z"/>
<path style="fill:#183651;" d="M359.975,350.523H23.631C10.24,350.523,0,340.283,0,326.892v-80.345
	c0-13.391,10.24-23.631,23.631-23.631h336.345c13.391,0,23.631,10.24,23.631,23.631v80.345
	C383.606,339.495,373.366,350.523,359.975,350.523z M23.631,238.671c-4.726,0-7.877,3.151-7.877,7.877v80.345
	c0,4.726,3.151,7.877,7.877,7.877h336.345c4.726,0,7.877-3.151,7.877-7.877v-80.345c0-4.726-3.151-7.877-7.877-7.877H23.631z"/>
<rect x="39.385" y="262.302" style="fill:#F06151;" width="145.723" height="48.837"/>
<g>
	<rect x="222.917" y="55.926" style="fill:#183651;" width="15.754" height="15.754"/>
	<rect x="260.726" y="55.926" style="fill:#183651;" width="15.754" height="15.754"/>
	<rect x="298.535" y="55.926" style="fill:#183651;" width="15.754" height="15.754"/>
	<rect x="222.917" y="166.991" style="fill:#183651;" width="15.754" height="15.754"/>
	<rect x="260.726" y="166.991" style="fill:#183651;" width="15.754" height="15.754"/>
	<rect x="298.535" y="166.991" style="fill:#183651;" width="15.754" height="15.754"/>
	<rect x="222.917" y="278.843" style="fill:#183651;" width="15.754" height="15.754"/>
	<rect x="260.726" y="278.843" style="fill:#183651;" width="15.754" height="15.754"/>
	<rect x="298.535" y="278.843" style="fill:#183651;" width="15.754" height="15.754"/>
</g>
<g>
</g>
<g>
</g>
<g>
</g>
<g>
</g>
<g>
</g>
<g>
</g>
<g>
</g>
<g>
</g>
<g>
</g>
<g>
</g>
<g>
</g>
<g>
</g>
<g>
</g>
<g>
</g>
<g>
</g>
</svg>
