<?xml version="1.0" encoding="iso-8859-1"?>
<!-- Generator: Adobe Illustrator 19.0.0, SVG Export Plug-In . SVG Version: 6.00 Build 0)  -->
<svg version="1.1" id="Capa_1" xmlns="http://www.w3.org/2000/svg" xmlns:xlink="http://www.w3.org/1999/xlink" x="0px" y="0px"
	 viewBox="0 0 504.123 504.123" style="enable-background:new 0 0 504.123 504.123;" xml:space="preserve">
<g>
	<circle style="fill:#E0E4E8;" cx="252.062" cy="209.526" r="209.526"/>
	<rect x="195.348" y="389.12" style="fill:#E0E4E8;" width="114.215" height="77.194"/>
</g>
<path style="fill:#183651;" d="M308.775,474.191H195.348c-3.938,0-7.877-3.151-7.877-7.877V389.12c0-3.938,3.151-7.877,7.877-7.877
	h114.215c3.938,0,7.877,3.151,7.877,7.877v77.194C316.652,471.04,313.502,474.191,308.775,474.191z M202.437,459.225h98.462v-62.228
	h-98.462V459.225z"/>
<path style="fill:#FFFFFF;" d="M233.945,58.289c-72.468,7.877-130.757,66.954-137.846,139.422
	c-6.302,64.591,25.994,121.305,77.194,151.237c13.391,7.877,21.268,21.268,21.268,36.234v3.151h114.215v-4.726
	c0-14.966,7.877-27.569,21.268-35.446c46.474-26.782,77.982-77.194,77.982-135.483C408.025,122.092,328.468,48.049,233.945,58.289z"
	/>
<path style="fill:#183651;" d="M308.775,396.997H195.348c-3.938,0-7.877-3.151-7.877-7.877v-3.151
	c0-12.603-6.302-23.631-18.117-29.932c-55.138-32.295-87.434-94.523-80.345-158.326C96.886,120.517,157.538,59.077,233.157,51.2
	c6.302-0.788,12.603-0.788,18.905-0.788c90.585,0,163.84,73.255,163.84,163.84c0,58.289-31.508,112.64-81.92,141.785
	c-11.028,6.302-17.329,16.542-17.329,28.357v4.726C316.652,393.058,313.502,396.997,308.775,396.997z M202.437,381.243h99.249
	c0.788-15.754,10.24-30.72,24.418-38.597c45.686-26.782,74.831-75.618,74.831-129.182c0-81.92-66.954-148.874-148.874-148.874
	c-5.514,0-11.028,0-17.329,0.788c-69.317,7.877-123.668,63.015-130.757,132.332c-5.514,59.077,22.843,115.791,73.255,144.935
	C191.409,350.523,200.862,365.489,202.437,381.243z"/>
<path style="fill:#FBBD5E;" d="M252.062,87.434c-4.726,0-9.452,0-14.178,0.788c-58.289,6.302-105.551,53.563-111.065,112.64
	c-4.726,50.412,18.905,96.886,62.228,122.092c22.055,12.603,35.446,36.234,36.234,60.652v4.726h54.351v-4.726
	c0-24.418,14.178-48.049,36.234-60.652c39.385-22.843,63.015-64.591,63.015-109.489C378.092,144.148,321.378,87.434,252.062,87.434z
	"/>
<path style="fill:#183651;" d="M318.228,448.985H185.895c-3.938,0-7.877-3.151-7.877-7.877s3.151-7.877,7.877-7.877h132.332
	c3.938,0,7.877,3.151,7.877,7.877S322.166,448.985,318.228,448.985z"/>
<path style="fill:#183651;" d="M318.228,422.991H185.895c-3.938,0-7.877-3.151-7.877-7.877c0-3.938,3.151-7.877,7.877-7.877h132.332
	c3.938,0,7.877,3.151,7.877,7.877C325.317,419.84,322.166,422.991,318.228,422.991z"/>
<path style="fill:#FFFFFF;" d="M216.615,466.314c0,16.542,13.391,29.932,29.932,29.932h11.028c16.542,0,29.932-13.391,29.932-29.932
	H216.615z"/>
<path style="fill:#183651;" d="M257.575,504.123h-11.028c-20.48,0-37.809-16.542-37.809-37.809c0-3.938,3.151-7.877,7.877-7.877
	h70.892c3.938,0,7.877,3.151,7.877,7.877C295.385,487.582,278.843,504.123,257.575,504.123z M225.28,474.191
	c3.151,8.665,11.028,14.966,21.268,14.966h11.028c9.452,0,18.117-6.302,21.268-14.966H225.28z"/>
<g>
	<path style="fill:#183651;" d="M318.228,396.997H185.895c-3.938,0-7.877-3.151-7.877-7.877c0-3.938,3.151-7.877,7.877-7.877
		h132.332c3.938,0,7.877,3.151,7.877,7.877C325.317,393.058,322.166,396.997,318.228,396.997z"/>
	<path style="fill:#183651;" d="M192.985,218.191c-2.363,0-4.726,0.788-6.302,1.575c-1.575,0.788-2.363,3.151-2.363,4.726
		c0,2.363,0.788,3.938,2.363,5.514c1.575,1.575,5.514,2.363,11.028,3.938s10.24,3.151,12.603,5.514
		c3.151,2.363,3.938,6.302,3.938,11.028s-1.575,8.665-5.514,11.815c-3.938,3.151-8.665,4.726-14.178,4.726
		c-8.665,0-16.542-3.151-22.843-8.665l5.514-7.089c5.514,4.726,11.028,7.089,17.329,7.089c3.151,0,5.514-0.788,7.089-1.575
		c1.575-1.575,2.363-3.151,2.363-5.514c0-2.363-0.788-3.938-2.363-4.726c-1.575-1.575-4.726-2.363-8.665-3.151
		c-3.938-0.788-6.302-2.363-7.877-3.151c-2.363-0.788-3.938-1.575-5.514-3.151c-3.151-2.363-4.726-6.302-4.726-11.028
		c0-4.726,1.575-8.665,5.514-11.815c3.938-3.151,8.665-3.938,14.178-3.938c3.151,0,7.089,0.788,10.24,1.575
		c3.151,0.788,6.302,3.151,8.665,4.726l-4.726,7.089c-1.575-1.575-3.938-2.363-6.302-3.938
		C198.498,218.978,196.135,218.191,192.985,218.191z"/>
	<path style="fill:#183651;" d="M265.452,211.102v8.665h-29.145v14.966h26.782v8.665h-26.782v14.966h30.72v8.665h-39.385v-55.138
		h37.809V211.102z"/>
	<path style="fill:#183651;" d="M323.742,258.363c-5.514,5.514-12.603,7.877-20.48,7.877s-14.966-2.363-20.48-7.877
		c-5.514-5.514-8.665-12.603-8.665-20.48s3.151-14.966,8.665-20.48c5.514-5.514,12.603-7.877,20.48-7.877s14.966,2.363,20.48,7.877
		c5.514,5.514,8.665,12.603,8.665,20.48C331.618,246.548,329.255,252.849,323.742,258.363z M316.652,223.705
		c-3.938-3.938-8.665-5.514-14.178-5.514s-10.24,1.575-14.178,5.514c-3.938,3.938-5.514,8.665-5.514,14.178
		s1.575,10.24,5.514,14.178c3.938,3.938,8.665,5.514,14.178,5.514s10.24-1.575,14.178-5.514c3.938-3.938,5.514-8.665,5.514-14.178
		S320.591,227.643,316.652,223.705z"/>
</g>
<path style="fill:#FFFFFF;" d="M346.585,183.532c-8.665-30.72-33.083-55.926-64.591-64.591c-4.726-1.575-9.452,1.575-10.24,5.514
	c-1.575,4.726,1.575,9.452,5.514,10.24c25.206,7.089,45.686,27.569,52.775,52.775c1.575,4.726,6.302,7.089,10.24,5.514
	C345.009,192.985,348.16,188.258,346.585,183.532z"/>
<g>
	<rect x="59.865" y="202.437" style="fill:#183651;" width="14.966" height="14.178"/>
	<rect x="429.292" y="202.437" style="fill:#183651;" width="14.966" height="14.178"/>
	
		<rect x="85.259" y="294.733" transform="matrix(-0.5 -0.866 0.866 -0.5 -123.201 533.3019)" style="fill:#183651;" width="14.178" height="14.966"/>
	
		<rect x="405.456" y="109.252" transform="matrix(-0.5 -0.866 0.866 -0.5 517.7281 532.3749)" style="fill:#183651;" width="14.178" height="14.966"/>
	
		<rect x="337.441" y="41.555" transform="matrix(-0.866 -0.5 0.5 -0.866 618.3807 263.7744)" style="fill:#183651;" width="14.178" height="14.966"/>
	<rect x="244.972" y="17.329" style="fill:#183651;" width="14.178" height="14.966"/>
	
		<rect x="152.252" y="42.315" transform="matrix(-0.4996 -0.8663 0.8663 -0.4996 196.7385 212.4586)" style="fill:#183651;" width="14.967" height="14.179"/>
	
		<rect x="404.829" y="295.314" transform="matrix(-0.8661 -0.4999 0.4999 -0.8661 618.2409 770.4221)" style="fill:#183651;" width="14.966" height="14.179"/>
	
		<rect x="84.351" y="110.133" transform="matrix(-0.8661 -0.4999 0.4999 -0.8661 112.7724 264.6542)" style="fill:#183651;" width="14.966" height="14.179"/>
</g>
<g>
</g>
<g>
</g>
<g>
</g>
<g>
</g>
<g>
</g>
<g>
</g>
<g>
</g>
<g>
</g>
<g>
</g>
<g>
</g>
<g>
</g>
<g>
</g>
<g>
</g>
<g>
</g>
<g>
</g>
</svg>
