<?xml version="1.0" encoding="iso-8859-1"?>
<!-- Generator: Adobe Illustrator 19.0.0, SVG Export Plug-In . SVG Version: 6.00 Build 0)  -->
<svg version="1.1" id="Capa_1" xmlns="http://www.w3.org/2000/svg" xmlns:xlink="http://www.w3.org/1999/xlink" x="0px" y="0px"
	 viewBox="0 0 504.123 504.123" style="enable-background:new 0 0 504.123 504.123;" xml:space="preserve">
<path style="fill:#FFFFFF;" d="M190.622,68.529c0,33.871-27.569,74.831-60.652,74.831S69.317,102.4,69.317,68.529
	S96.886,7.877,129.969,7.877S190.622,35.446,190.622,68.529z"/>
<path style="fill:#183651;" d="M129.969,151.237c-37.809,0-68.529-44.898-68.529-82.708S92.16,0,129.969,0
	s68.529,30.72,68.529,68.529S167.778,151.237,129.969,151.237z M129.969,15.754c-29.145,0-52.775,23.631-52.775,52.775
	c0,29.932,24.418,66.954,52.775,66.954s52.775-37.022,52.775-66.954C182.745,39.385,159.114,15.754,129.969,15.754z"/>
<path style="fill:#2EA0DA;" d="M197.711,146.511L197.711,146.511c-30.72,51.2-104.763,51.2-135.483,0l0,0
	c-31.508,9.452-54.351,38.597-54.351,72.468V327.68h244.185V218.978C252.062,185.108,229.218,155.963,197.711,146.511z"/>
<path style="fill:#183651;" d="M252.062,335.557H7.877c-4.726,0-7.877-3.151-7.877-7.877V218.978
	c0-37.022,24.418-70.105,59.865-80.345c3.938-0.788,7.089,0.788,9.452,3.938c12.603,21.268,35.446,34.658,60.652,34.658
	s48.049-12.603,60.652-34.658c1.575-3.151,5.514-4.726,8.665-3.151c35.446,10.24,59.865,43.323,59.865,80.345v108.702
	C259.938,332.406,256.788,335.557,252.062,335.557z M15.754,319.803h228.431V218.978c0-28.357-17.329-53.563-43.323-63.803
	c-16.542,22.843-42.535,36.234-70.892,36.234s-54.351-13.391-70.892-36.234c-25.994,10.24-43.323,35.446-43.323,63.803V319.803z"/>
<path style="fill:#FFFFFF;" d="M39.385,296.172v-77.194c0-12.603,5.514-25.206,14.966-33.083
	c20.48,18.905,47.262,29.932,75.618,29.932c29.145,0,55.138-11.028,75.618-29.932c9.452,7.877,14.966,20.48,14.966,33.083v77.194
	H39.385z"/>
<rect x="105.551" y="400.935" style="fill:#FBBD5E;" width="390.695" height="95.311"/>
<path style="fill:#183651;" d="M496.246,504.123H105.551c-4.726,0-7.877-3.151-7.877-7.877v-95.311c0-4.726,3.151-7.877,7.877-7.877
	h390.695c4.726,0,7.877,3.151,7.877,7.877v95.311C504.123,500.972,500.972,504.123,496.246,504.123z M113.428,488.369h374.942
	v-79.557H113.428V488.369z"/>
<g>
	<rect x="140.209" y="435.594" style="fill:#FFFFFF;" width="321.378" height="51.988"/>
	<circle style="fill:#FFFFFF;" cx="195.348" cy="307.2" r="33.083"/>
</g>
<path style="fill:#183651;" d="M195.348,348.948c-22.843,0-40.96-18.905-40.96-40.96c0-22.055,18.905-40.96,40.96-40.96
	s40.96,18.905,40.96,40.96C236.308,330.043,218.191,348.948,195.348,348.948z M195.348,281.994
	c-14.178,0-25.206,11.815-25.206,25.206s11.815,25.206,25.206,25.206s25.206-11.815,25.206-25.206S209.526,281.994,195.348,281.994z
	"/>
<path style="fill:#F06151;" d="M195.348,341.071c-33.083,0-59.865,26.782-59.865,59.865H256
	C255.212,367.852,228.431,341.071,195.348,341.071z"/>
<path style="fill:#183651;" d="M255.212,408.812H134.695c-4.726,0-7.877-3.151-7.877-7.877c0-37.809,30.72-67.742,67.742-67.742
	s67.742,30.72,67.742,67.742C263.089,405.662,259.938,408.812,255.212,408.812z M143.36,393.058h103.188
	c-3.938-25.206-25.206-44.111-51.988-44.111S147.298,367.852,143.36,393.058z"/>
<circle style="fill:#FFFFFF;" cx="315.865" cy="307.2" r="33.083"/>
<path style="fill:#183651;" d="M315.865,348.948c-22.843,0-40.96-18.905-40.96-40.96c0-22.055,18.905-40.96,40.96-40.96
	c22.843,0,40.96,18.905,40.96,40.96C356.825,330.043,338.708,348.948,315.865,348.948z M315.865,281.994
	c-14.178,0-25.206,11.815-25.206,25.206s11.815,25.206,25.206,25.206c14.178,0,25.206-11.815,25.206-25.206
	S330.043,281.994,315.865,281.994z"/>
<path style="fill:#F06151;" d="M315.865,341.071c-33.083,0-59.865,26.782-59.865,59.865h120.517
	C375.729,367.852,348.948,341.071,315.865,341.071z"/>
<path style="fill:#183651;" d="M375.729,408.812H255.212c-4.726,0-7.877-3.151-7.877-7.877c0-37.809,30.72-67.742,67.742-67.742
	c37.809,0,67.742,30.72,67.742,67.742C383.606,405.662,380.455,408.812,375.729,408.812z M263.877,393.058h103.188
	c-3.938-25.206-25.206-44.111-51.988-44.111C288.295,348.948,267.815,367.852,263.877,393.058z"/>
<circle style="fill:#FFFFFF;" cx="436.382" cy="307.2" r="33.083"/>
<path style="fill:#183651;" d="M436.382,348.948c-22.843,0-40.96-18.905-40.96-40.96c0-22.055,18.905-40.96,40.96-40.96
	c22.055,0,40.96,18.905,40.96,40.96C477.342,330.043,459.225,348.948,436.382,348.948z M436.382,281.994
	c-14.178,0-25.206,11.815-25.206,25.206s11.815,25.206,25.206,25.206s25.206-11.815,25.206-25.206S449.772,281.994,436.382,281.994z
	"/>
<path style="fill:#F06151;" d="M436.382,341.071c-33.083,0-59.865,26.782-59.865,59.865h120.517
	C496.246,367.852,469.465,341.071,436.382,341.071z"/>
<path style="fill:#183651;" d="M496.246,408.812H375.729c-4.726,0-7.877-3.151-7.877-7.877c0-37.809,30.72-67.742,67.742-67.742
	s67.742,30.72,67.742,67.742C504.123,405.662,500.972,408.812,496.246,408.812z M384.394,393.058h103.188
	c-3.938-25.206-25.206-44.111-51.988-44.111S388.332,367.852,384.394,393.058z"/>
<path style="fill:#E0E4E8;" d="M274.117,23.631v19.692h-57.502l57.502,64.591v59.077c0,8.665,7.089,15.754,15.754,15.754h190.622
	c8.665,0,15.754-7.089,15.754-15.754V23.631c0-8.665-7.089-15.754-15.754-15.754H289.871
	C281.206,7.877,274.117,14.966,274.117,23.631z"/>
<path style="fill:#183651;" d="M480.492,190.622H289.871c-13.391,0-23.631-10.24-23.631-23.631v-55.926l-55.138-62.228
	c-2.363-2.363-3.151-5.514-1.575-8.665c1.575-2.363,3.938-4.726,7.089-4.726h49.625V23.631C266.24,10.24,276.48,0,289.871,0h190.622
	c13.391,0,23.631,10.24,23.631,23.631v143.36C504.123,180.382,493.883,190.622,480.492,190.622z M234.732,51.2l45.686,51.2
	c1.575,1.575,2.363,3.151,2.363,5.514v59.077c0,4.726,3.151,7.877,7.877,7.877H481.28c4.726,0,7.877-3.151,7.877-7.877V23.631
	c0-4.726-3.151-7.877-7.877-7.877H289.871c-4.726,0-7.877,3.151-7.877,7.877v19.692c0,4.726-3.151,7.877-7.877,7.877H234.732z"/>
<path style="fill:#FFFFFF;" d="M305.625,135.483V96.098L286.72,74.831h18.905V55.138c0-8.665,7.089-15.754,15.754-15.754h127.606
	c8.665,0,15.754,7.089,15.754,15.754v80.345c0,8.665-7.089,15.754-15.754,15.754H321.378
	C312.714,151.237,305.625,144.935,305.625,135.483z"/>
<g>
	<path style="fill:#183651;" d="M388.332,104.763h-11.028v-5.514c0-2.363,0-4.726,0.788-5.514c0.788-1.575,1.575-3.151,3.938-4.726
		l7.089-7.089c1.575-1.575,2.363-3.151,2.363-5.514c0-2.363-0.788-3.938-2.363-5.514c-1.575-1.575-3.151-2.363-5.514-2.363
		s-4.726,0.788-6.302,2.363c-1.575,1.575-2.363,3.151-3.151,6.302h-11.815c0.788-5.514,3.151-10.24,6.302-13.391
		c5.514-4.726,10.24-6.302,15.754-6.302s10.24,1.575,13.391,4.726c3.151,3.151,5.514,7.089,5.514,12.603
		c0,3.938-0.788,7.089-3.151,9.452c-1.575,1.575-2.363,2.363-2.363,3.151c0,0.788-1.575,1.575-2.363,2.363s-1.575,1.575-2.363,2.363
		c-0.788,0.788-1.575,1.575-1.575,1.575c-0.788,1.575-1.575,3.151-1.575,5.514v5.514H388.332z M383.606,126.031
		c-2.363,0-3.938-0.788-5.514-2.363c-1.575-1.575-2.363-3.151-2.363-4.726c0-1.575,0.788-3.938,2.363-4.726
		c1.575-1.575,3.151-2.363,4.726-2.363s3.938,0.788,5.514,2.363c1.575,1.575,2.363,3.151,2.363,4.726
		c0,1.575-0.788,3.151-2.363,4.726C387.545,125.243,385.182,126.031,383.606,126.031z"/>
	<rect x="181.169" y="453.711" style="fill:#183651;" width="15.754" height="15.754"/>
	<rect x="226.068" y="453.711" style="fill:#183651;" width="15.754" height="15.754"/>
	<rect x="270.966" y="453.711" style="fill:#183651;" width="15.754" height="15.754"/>
	<rect x="315.865" y="453.711" style="fill:#183651;" width="15.754" height="15.754"/>
	<rect x="360.763" y="453.711" style="fill:#183651;" width="15.754" height="15.754"/>
	<rect x="404.874" y="453.711" style="fill:#183651;" width="15.754" height="15.754"/>
</g>
<g>
</g>
<g>
</g>
<g>
</g>
<g>
</g>
<g>
</g>
<g>
</g>
<g>
</g>
<g>
</g>
<g>
</g>
<g>
</g>
<g>
</g>
<g>
</g>
<g>
</g>
<g>
</g>
<g>
</g>
</svg>
