<?xml version="1.0" encoding="iso-8859-1"?>
<!-- Generator: Adobe Illustrator 19.0.0, SVG Export Plug-In . SVG Version: 6.00 Build 0)  -->
<svg version="1.1" id="Capa_1" xmlns="http://www.w3.org/2000/svg" xmlns:xlink="http://www.w3.org/1999/xlink" x="0px" y="0px"
	 viewBox="0 0 504.282 504.282" style="enable-background:new 0 0 504.282 504.282;" xml:space="preserve">
<circle style="fill:#F06151;" cx="252.062" cy="252.141" r="252.062"/>
<path style="fill:#4FBF9F;" d="M300.898,249.778V361.63H75.618V249.778c0-28.357,22.055-51.2,49.625-52.775
	c14.966,22.843,37.022,36.234,63.015,36.234c25.206,0,48.049-14.178,63.015-36.234C278.055,198.578,300.898,221.421,300.898,249.778
	z"/>
<path style="fill:#183651;" d="M308.775,369.507H67.742V249.778c0-32.295,25.206-59.077,57.502-60.652h4.726l2.363,3.938
	c13.391,21.268,33.871,33.083,55.926,33.083s42.535-11.815,55.926-33.083l2.363-3.938h4.726
	c32.295,1.575,57.502,28.357,57.502,60.652V369.507z M83.495,353.753h209.526V249.778c0-22.843-16.542-40.96-38.597-44.111
	c-16.542,22.843-40.172,36.234-66.166,36.234s-49.625-13.391-66.166-36.234c-22.055,3.151-38.597,22.055-38.597,44.111V353.753z"/>
<path style="fill:#FFFFFF;" d="M106.338,329.335v-79.557c0-6.302,3.151-12.603,7.877-16.542
	c19.692,20.48,45.686,31.508,73.255,31.508s53.563-11.028,73.255-31.508c4.726,3.938,7.877,10.24,7.877,16.542v79.557
	L106.338,329.335L106.338,329.335z"/>
<ellipse style="fill:#FBBD5E;" cx="188.258" cy="124.535" rx="54.351" ry="74.043"/>
<path style="fill:#183651;" d="M188.258,206.455c-33.871,0-62.228-37.022-62.228-81.92s27.569-81.92,62.228-81.92
	c33.871,0,62.228,37.022,62.228,81.92S222.129,206.455,188.258,206.455z M188.258,58.369c-25.206,0-46.474,29.932-46.474,66.166
	s20.48,66.166,46.474,66.166c25.206,0,46.474-29.932,46.474-66.166S213.465,58.369,188.258,58.369z"/>
<path style="fill:#FFFFFF;" d="M247.335,72.547c-1.575-13.391-11.815-22.843-23.631-29.145c-22.055-11.028-48.837-11.028-70.892,0
	c-11.815,6.302-22.055,14.966-23.631,29.145c0,0-16.542,11.815,5.514,63.803c0,0-5.514-12.603,11.028-25.206
	c0,0-7.877-23.631,13.391-24.418c0,0,18.117,9.452,28.357,7.877c11.028,2.363,28.357-7.877,28.357-7.877
	c21.268,0,13.391,24.418,13.391,24.418c16.542,12.603,11.028,25.206,11.028,25.206C263.877,84.362,247.335,72.547,247.335,72.547z"
	/>
<g>
	<path style="fill:#183651;" d="M248.123,138.713l-14.966-6.302c0-0.788,2.363-7.877-8.665-16.542l-4.726-3.151l1.575-5.514
		c0.788-3.151,1.575-9.452,0-11.815c-0.788-0.788-2.363-1.575-3.938-1.575c-5.514,2.363-19.692,8.665-29.932,7.877
		c-10.24,1.575-24.418-4.726-29.932-7.877c-2.363,0-3.151,0.788-3.938,1.575c-1.575,2.363-0.788,8.665,0,11.815l1.575,5.514
		l-4.726,3.151c-11.028,8.665-8.665,15.754-8.665,16.542l-14.966,6.302c-19.692-44.898-11.815-63.803-6.302-70.105
		c2.363-13.391,11.815-24.418,27.569-32.295c23.631-12.603,53.563-12.603,77.982,0c15.754,7.877,25.206,18.905,27.569,32.295
		C259.938,74.91,268.603,93.815,248.123,138.713z M133.12,78.849c0,0-6.302,7.089,0.788,32.295c0.788-0.788,2.363-2.363,3.151-3.151
		c-0.788-5.514-0.788-14.178,3.151-20.48c2.363-3.938,7.877-8.665,18.905-8.665h2.363l1.575,0.788
		c3.938,2.363,16.542,7.877,23.631,7.089h1.575h1.575c7.089,1.575,19.692-4.726,23.631-7.089l1.575-0.788h2.363
		c10.24,0,15.754,4.726,18.905,8.665c4.726,6.302,4.726,14.966,3.151,20.48c1.575,0.788,2.363,2.363,3.151,3.151
		c7.089-25.206,0-32.295,0-32.295l-3.151-2.363v-3.151c-0.788-8.665-7.877-16.542-19.692-22.843
		c-19.692-10.24-44.111-10.24-63.015,0c-11.815,6.302-18.905,14.178-19.692,22.843l-0.788,3.151L133.12,78.849L133.12,78.849z"/>
	<rect x="137.058" y="292.313" style="fill:#183651;" width="15.754" height="17.329"/>
	<rect x="180.382" y="292.313" style="fill:#183651;" width="15.754" height="17.329"/>
	<rect x="222.917" y="292.313" style="fill:#183651;" width="15.754" height="17.329"/>
</g>
<path style="fill:#E1E6E7;" d="M496.246,373.446c-2.363-44.898-37.809-81.92-82.708-85.858
	c-48.049-3.938-89.009,29.145-96.886,74.043H23.631c-8.665,0-15.754,7.089-15.754,15.754l0,0c0,8.665,7.089,15.754,15.754,15.754
	h293.022c7.089,42.535,44.111,74.831,89.009,74.831C456.862,467.969,498.609,425.433,496.246,373.446z"/>
<path style="fill:#183651;" d="M405.662,475.846c-45.686,0-84.283-30.72-95.311-74.831H23.631C10.24,401.015,0,390.775,0,377.384
	c0-13.391,10.24-23.631,23.631-23.631h286.72c11.028-46.474,55.138-78.769,103.975-74.043c48.837,3.938,87.434,44.111,89.797,92.948
	c1.575,27.569-8.665,52.775-26.782,72.468C458.437,464.818,433.231,475.846,405.662,475.846z M23.631,369.507
	c-4.726,0-7.877,3.151-7.877,7.877c0,4.726,3.151,7.877,7.877,7.877h293.022c3.938,0,7.089,2.363,7.877,6.302
	c7.089,39.385,40.96,68.529,81.132,68.529c22.843,0,44.111-9.452,59.865-25.206c15.754-16.542,23.631-37.809,22.843-60.652
	c-1.575-40.172-34.658-74.831-74.831-77.982c-43.323-3.938-81.132,25.994-88.222,67.742c-0.788,3.938-3.938,6.302-7.877,6.302
	H23.631V369.507z"/>
<circle style="fill:#FFFFFF;" cx="437.169" cy="377.384" r="25.206"/>
<path style="fill:#183651;" d="M437.169,410.467c-18.117,0-33.083-14.966-33.083-33.083c0-18.117,14.966-33.083,33.083-33.083
	c18.117,0,33.083,14.966,33.083,33.083S455.286,410.467,437.169,410.467z M437.169,360.055c-9.452,0-17.329,7.877-17.329,17.329
	c0,9.452,7.877,17.329,17.329,17.329c9.452,0,17.329-7.877,17.329-17.329C454.498,367.932,446.622,360.055,437.169,360.055z"/>
<polygon style="fill:#E1E6E7;" points="37.809,393.138 37.809,456.941 70.105,456.941 70.105,425.433 98.462,425.433 
	98.462,456.941 130.757,456.941 130.757,393.138 "/>
<g>
	<path style="fill:#183651;" d="M130.757,464.818H98.462c-4.726,0-7.877-3.151-7.877-7.877v-24.418H77.982v24.418
		c0,4.726-3.151,7.877-7.877,7.877H37.809c-4.726,0-7.877-3.151-7.877-7.877v-63.803c0-4.726,3.151-7.877,7.877-7.877h92.948
		c4.726,0,7.877,3.151,7.877,7.877v63.803C138.634,461.667,135.483,464.818,130.757,464.818z M106.338,449.064h16.542v-48.049
		H45.686v48.049h16.542v-24.418c0-4.726,3.151-7.877,7.877-7.877h28.357c4.726,0,7.877,3.151,7.877,7.877V449.064z"/>
	<rect x="364.702" y="336.424" style="fill:#183651;" width="15.754" height="15.754"/>
	<rect x="364.702" y="369.507" style="fill:#183651;" width="15.754" height="15.754"/>
	<rect x="364.702" y="403.378" style="fill:#183651;" width="15.754" height="15.754"/>
</g>
<g>
</g>
<g>
</g>
<g>
</g>
<g>
</g>
<g>
</g>
<g>
</g>
<g>
</g>
<g>
</g>
<g>
</g>
<g>
</g>
<g>
</g>
<g>
</g>
<g>
</g>
<g>
</g>
<g>
</g>
</svg>
