<?xml version="1.0" encoding="iso-8859-1"?>
<!-- Generator: Adobe Illustrator 19.0.0, SVG Export Plug-In . SVG Version: 6.00 Build 0)  -->
<svg version="1.1" id="Capa_1" xmlns="http://www.w3.org/2000/svg" xmlns:xlink="http://www.w3.org/1999/xlink" x="0px" y="0px"
	 viewBox="0 0 503.867 503.867" style="enable-background:new 0 0 503.867 503.867;" xml:space="preserve">
<circle style="fill:#FBBD5E;" cx="207.44" cy="296.96" r="204.8"/>
<path style="fill:#F06151;" d="M474.468,7.877h-143.36c-7.877,0-14.966,3.938-18.905,10.24l-23.631,39.385
	c-3.938,6.302-11.028,10.24-18.905,10.24H71.169c-11.815,0.788-21.268,10.24-21.268,22.843v254.425
	c0,11.815,9.452,22.055,22.055,22.055h403.298c11.815,0,22.055-9.452,22.055-22.055V29.932
	C496.523,18.117,487.071,7.877,474.468,7.877z"/>
<path style="fill:#183651;" d="M474.468,374.942H71.169c-16.542,0-29.932-13.391-29.932-29.932V90.585
	c0-16.542,13.391-29.932,29.932-29.932h198.498c4.726,0,9.452-2.363,11.815-7.089l23.631-39.385C310.628,5.514,320.08,0,330.32,0
	h143.36c16.542,0,29.932,13.391,29.932,29.932v315.077C504.4,361.551,491.009,374.942,474.468,374.942z M71.169,76.406
	c-7.877,0-14.178,6.302-14.178,14.178v254.425c0,7.877,6.302,14.178,14.178,14.178h403.298c7.877,0,14.178-6.302,14.178-14.178
	V29.932c0-7.877-6.302-14.178-14.178-14.178h-143.36c-4.726,0-9.452,2.363-11.815,7.089l-23.631,39.385
	c-5.514,8.665-14.966,14.178-25.206,14.178H71.169z"/>
<g>
	<path style="fill:#FFFFFF;" d="M80.622,335.557v-235.52h201.649c11.028,0,21.268-5.514,26.782-14.966l27.569-44.898h128.394
		v296.172H80.622V335.557z"/>
	<path style="fill:#FFFFFF;" d="M168.055,363.914l-28.357-28.357L20.757,433.231c-15.754,13.391-17.329,37.809-2.363,51.988
		c14.966,14.966,38.597,13.391,51.988-2.363L168.055,363.914z"/>
</g>
<path style="fill:#183651;" d="M12.88,491.52c-18.117-18.117-16.542-48.049,3.151-63.803l118.942-97.674
	c3.151-2.363,7.877-2.363,10.24,0.788l28.357,28.357c3.151,3.151,3.151,7.089,0.788,10.24L76.683,488.369
	C60.929,508.062,30.997,508.849,12.88,491.52z M139.698,346.585L26.271,439.532c-12.603,10.24-13.391,29.145-2.363,40.96
	c11.815,11.815,30.72,10.24,40.96-2.363l92.948-113.428L139.698,346.585z"/>
<circle style="fill:#FFFFFF;" cx="233.434" cy="270.178" r="127.606"/>
<path style="fill:#183651;" d="M233.434,405.662c-74.043,0-134.695-60.652-134.695-135.483s60.652-134.695,134.695-134.695
	s134.695,60.652,134.695,134.695S308.265,405.662,233.434,405.662z M233.434,151.237c-66.166,0-119.729,53.563-119.729,119.729
	s54.351,118.942,119.729,118.942c66.166,0,119.729-53.563,119.729-119.729S299.6,151.237,233.434,151.237z"/>
<path style="fill:#2EA0DA;" d="M233.434,366.277c-52.775,0-96.098-43.323-96.098-96.098s43.323-96.098,96.098-96.098
	s96.098,43.323,96.098,96.098S286.209,366.277,233.434,366.277z"/>
<path style="fill:#FFFFFF;" d="M175.145,278.055c-3.938,0-7.877-3.151-7.877-7.877c0-36.234,29.932-66.166,66.166-66.166
	c3.938,0,7.877,3.151,7.877,7.877c0,3.938-3.151,7.877-7.877,7.877c-27.569,0-50.412,22.843-50.412,50.412
	C183.022,274.905,179.083,278.055,175.145,278.055z"/>
<g>
	<rect x="338.985" y="102.4" style="fill:#183651;" width="15.754" height="15.754"/>
	<rect x="381.52" y="102.4" style="fill:#183651;" width="15.754" height="15.754"/>
	<rect x="423.268" y="102.4" style="fill:#183651;" width="15.754" height="15.754"/>
</g>
<g>
</g>
<g>
</g>
<g>
</g>
<g>
</g>
<g>
</g>
<g>
</g>
<g>
</g>
<g>
</g>
<g>
</g>
<g>
</g>
<g>
</g>
<g>
</g>
<g>
</g>
<g>
</g>
<g>
</g>
</svg>
