<?xml version="1.0" encoding="iso-8859-1"?>
<!-- Generator: Adobe Illustrator 19.0.0, SVG Export Plug-In . SVG Version: 6.00 Build 0)  -->
<svg version="1.1" id="Capa_1" xmlns="http://www.w3.org/2000/svg" xmlns:xlink="http://www.w3.org/1999/xlink" x="0px" y="0px"
	 viewBox="0 0 504.232 504.232" style="enable-background:new 0 0 504.232 504.232;" xml:space="preserve">
<circle style="fill:#FBBD5E;" cx="251.88" cy="206.375" r="206.375"/>
<circle style="fill:#F06151;" cx="251.88" cy="206.375" r="178.806"/>
<path style="fill:#183651;" d="M251.88,392.271c-102.4,0-185.895-83.495-185.895-185.895S149.48,20.48,251.88,20.48
	s185.895,83.495,185.895,185.895S354.28,392.271,251.88,392.271z M251.88,35.446c-94.523,0-170.929,76.406-170.929,170.929
	s76.406,170.929,170.929,170.929s170.929-76.406,170.929-170.929S346.403,35.446,251.88,35.446z"/>
<path style="fill:#FFFFFF;" d="M251.88,352.098c-80.345,0-145.723-65.378-145.723-145.723S171.535,60.652,251.88,60.652
	s145.723,65.378,145.723,145.723S332.225,352.098,251.88,352.098z"/>
<circle style="fill:#F06151;" cx="251.88" cy="206.375" r="103.188"/>
<g>
	<circle style="fill:#FFFFFF;" cx="251.88" cy="206.375" r="49.625"/>
</g>
<g>
	<path style="fill:#183651;" d="M251.88,448.985c-3.938,0-7.877-3.151-7.877-7.877v-55.926c0-3.938,3.151-7.877,7.877-7.877
		c3.938,0,7.877,3.151,7.877,7.877v55.926C259.757,445.046,255.818,448.985,251.88,448.985z"/>
	<path style="fill:#183651;" d="M294.415,501.76l-42.535-48.837l-42.535,48.837c-2.363,3.151-7.877,3.151-11.028,0.788
		c-3.151-2.363-3.151-7.877-0.788-11.028l48.049-55.138c3.151-3.151,8.665-3.151,11.815,0l48.049,55.138
		c2.363,3.151,2.363,7.877-0.788,11.028C301.505,504.911,296.778,504.911,294.415,501.76z"/>
</g>
<circle style="fill:#FFFFFF;" cx="251.88" cy="103.188" r="19.692"/>
<path style="fill:#183651;" d="M251.88,129.969c-14.966,0-26.782-11.815-26.782-26.782s11.815-26.782,26.782-26.782
	s26.782,11.815,26.782,26.782S266.846,129.969,251.88,129.969z M251.88,91.372c-6.302,0-11.815,5.514-11.815,11.815
	c0,6.302,5.514,11.815,11.815,11.815c6.302,0,11.815-5.514,11.815-11.815C263.695,96.886,258.182,91.372,251.88,91.372z"/>
<circle style="fill:#FFFFFF;" cx="251.88" cy="309.563" r="18.905"/>
<path style="fill:#183651;" d="M251.88,336.345c-14.966,0-26.782-11.815-26.782-26.782c0-14.966,11.815-26.782,26.782-26.782
	s26.782,11.815,26.782,26.782C278.662,324.529,266.846,336.345,251.88,336.345z M251.88,297.748
	c-6.302,0-11.815,5.514-11.815,11.815c0,6.302,5.514,11.815,11.815,11.815c6.302,0,11.815-5.514,11.815-11.815
	C263.695,303.262,258.182,297.748,251.88,297.748z"/>
<circle style="fill:#FFFFFF;" cx="355.068" cy="206.375" r="18.905"/>
<path style="fill:#183651;" d="M355.068,233.157c-14.966,0-26.782-11.815-26.782-26.782c0-14.966,11.815-26.782,26.782-26.782
	c14.966,0,26.782,11.815,26.782,26.782C381.849,221.342,370.034,233.157,355.068,233.157z M355.068,194.56
	c-6.302,0-11.815,5.514-11.815,11.815c0,6.302,5.514,11.815,11.815,11.815c6.302,0,11.815-5.514,11.815-11.815
	C366.883,200.074,361.369,194.56,355.068,194.56z"/>
<circle style="fill:#FFFFFF;" cx="148.692" cy="206.375" r="18.905"/>
<g>
	<path style="fill:#183651;" d="M148.692,233.157c-14.966,0-26.782-11.815-26.782-26.782c0-14.966,11.815-26.782,26.782-26.782
		s26.782,11.815,26.782,26.782C175.474,221.342,163.658,233.157,148.692,233.157z M148.692,194.56
		c-6.302,0-11.815,5.514-11.815,11.815c0,6.302,5.514,11.815,11.815,11.815s11.815-5.514,11.815-11.815
		C160.508,200.074,154.994,194.56,148.692,194.56z"/>
	<polygon style="fill:#183651;" points="317.258,200.862 257.394,200.862 257.394,140.997 246.366,140.997 246.366,200.862 
		186.502,200.862 186.502,211.889 246.366,211.889 246.366,270.966 257.394,270.966 257.394,211.889 317.258,211.889 	"/>
</g>
<circle style="fill:#F06151;" cx="251.88" cy="206.375" r="22.055"/>
<g>
	
		<rect x="37.102" y="366.333" transform="matrix(-0.7071 -0.7071 0.7071 -0.7071 -188.2169 669.67)" style="fill:#183651;" width="14.966" height="14.966"/>
	
		<rect x="74.801" y="404.191" transform="matrix(-0.7071 -0.7071 0.7071 -0.7071 -150.6302 760.9544)" style="fill:#183651;" width="14.966" height="14.966"/>
	
		<rect x="112.484" y="442.048" transform="matrix(-0.7071 -0.7071 0.7071 -0.7071 -113.0704 852.2277)" style="fill:#183651;" width="14.966" height="14.966"/>
	
		<rect x="452.164" y="366.414" transform="matrix(-0.707 -0.7072 0.7072 -0.707 520.1987 963.3102)" style="fill:#183651;" width="14.966" height="14.966"/>
	
		<rect x="414.349" y="404.151" transform="matrix(-0.7074 -0.7069 0.7069 -0.7074 429.2518 1000.9822)" style="fill:#183651;" width="14.967" height="14.967"/>
	
		<rect x="376.496" y="441.804" transform="matrix(-0.707 -0.7072 0.7072 -0.707 337.7158 1038.4894)" style="fill:#183651;" width="14.966" height="14.966"/>
</g>
<g>
</g>
<g>
</g>
<g>
</g>
<g>
</g>
<g>
</g>
<g>
</g>
<g>
</g>
<g>
</g>
<g>
</g>
<g>
</g>
<g>
</g>
<g>
</g>
<g>
</g>
<g>
</g>
<g>
</g>
</svg>
