<?xml version="1.0" encoding="iso-8859-1"?>
<!-- Generator: Adobe Illustrator 19.0.0, SVG Export Plug-In . SVG Version: 6.00 Build 0)  -->
<svg version="1.1" id="Capa_1" xmlns="http://www.w3.org/2000/svg" xmlns:xlink="http://www.w3.org/1999/xlink" x="0px" y="0px"
	 viewBox="0 0 504.123 504.123" style="enable-background:new 0 0 504.123 504.123;" xml:space="preserve">
<path style="fill:#FFFFFF;" d="M412.751,168.566c0-89.009-71.68-160.689-160.689-160.689S91.372,79.557,91.372,168.566
	c0,63.803,37.022,118.942,91.372,144.935v30.72h138.634v-30.72C375.729,287.508,412.751,232.369,412.751,168.566z"/>
<path style="fill:#183651;" d="M321.378,352.098H182.745c-4.726,0-7.877-3.151-7.877-7.877v-25.994
	c-55.926-29.145-91.372-86.646-91.372-149.662C83.495,75.618,159.114,0,252.062,0s168.566,75.618,168.566,168.566
	c0,63.015-35.446,120.517-91.372,149.662v25.994C329.255,348.948,326.105,352.098,321.378,352.098z M190.622,336.345h122.88v-22.843
	c0-3.151,1.575-5.514,4.726-7.089c52.775-25.206,86.646-79.557,86.646-137.846c0-84.283-68.529-152.812-152.812-152.812
	S99.249,84.283,99.249,168.566c0,58.289,33.871,112.64,86.646,137.846c2.363,1.575,4.726,3.938,4.726,7.089V336.345z"/>
<path style="fill:#FBBD5E;" d="M215.828,342.646v-50.412l-18.905-9.452c-44.898-21.268-72.468-65.378-72.468-115.003
	c0-70.105,56.714-127.606,127.606-127.606c70.105,0,127.606,56.714,127.606,127.606c0,49.625-27.569,92.948-72.468,115.003
	l-18.905,9.452v50.412H215.828z"/>
<rect x="169.354" y="344.222" style="fill:#E0E4E8;" width="164.628" height="118.942"/>
<path style="fill:#183651;" d="M334.769,471.04H169.354c-4.726,0-7.877-3.151-7.877-7.877V344.222c0-4.726,3.151-7.877,7.877-7.877
	h165.415c4.726,0,7.877,3.151,7.877,7.877v118.942C342.646,467.889,338.708,471.04,334.769,471.04z M177.231,455.286h149.662
	V352.098H177.231V455.286z"/>
<rect x="205.588" y="463.163" style="fill:#FFFFFF;" width="92.948" height="33.083"/>
<path style="fill:#183651;" d="M298.535,504.123h-92.948c-4.726,0-7.877-3.151-7.877-7.877v-33.083c0-4.726,3.151-7.877,7.877-7.877
	h92.948c4.726,0,7.877,3.151,7.877,7.877v33.083C306.412,500.972,303.262,504.123,298.535,504.123z M213.465,488.369h77.194V471.04
	h-77.194L213.465,488.369L213.465,488.369z"/>
<path style="fill:#183651;" d="M342.646,379.668H159.902c-4.726,0-7.877-3.151-7.877-7.877s3.151-7.877,7.877-7.877h182.745
	c4.726,0,7.877,3.151,7.877,7.877S347.372,379.668,342.646,379.668z"/>
<path style="fill:#183651;" d="M342.646,411.963H159.902c-4.726,0-7.877-3.151-7.877-7.877c0-4.726,3.151-7.877,7.877-7.877h182.745
	c4.726,0,7.877,3.151,7.877,7.877C350.523,408.812,347.372,411.963,342.646,411.963z"/>
<g>
	<path style="fill:#183651;" d="M342.646,443.471H159.902c-4.726,0-7.877-3.151-7.877-7.877s3.151-7.877,7.877-7.877h182.745
		c4.726,0,7.877,3.151,7.877,7.877S347.372,443.471,342.646,443.471z"/>
	<path style="fill:#183651;" d="M252.062,238.671C129.969,238.671,0,213.465,0,167.778c0-33.083,66.166-51.2,105.551-58.289
		c3.938-0.788,8.665,2.363,9.452,6.302c0.788,3.938-2.363,8.665-6.302,9.452c-63.803,12.603-92.948,30.72-92.948,43.323
		c0,22.843,89.797,55.138,236.308,55.138s236.308-32.295,236.308-55.138c0-12.603-28.357-30.72-92.948-43.323
		c-3.938-0.788-7.089-4.726-6.302-9.452c0.788-3.938,4.726-7.089,9.452-6.302c39.385,7.877,105.551,25.206,105.551,58.289
		C504.123,214.252,374.154,238.671,252.062,238.671z"/>
	<path style="fill:#183651;" d="M207.951,223.705C112.64,147.298,25.994,46.474,55.138,11.028
		c18.905-23.631,70.105-4.726,110.277,15.754c3.938,1.575,5.514,6.302,3.151,10.24c-1.575,3.938-6.302,5.514-10.24,3.151
		C101.612,12.603,74.043,11.815,66.954,20.48c-14.178,18.117,36.234,99.249,150.449,190.622s204.8,122.092,218.978,103.975
		c7.089-8.665,0-36.234-40.172-85.071c-3.151-3.151-2.363-8.665,0.788-11.028c3.151-3.151,8.665-2.363,11.028,0.788
		c29.145,34.658,59.077,81.132,40.172,104.763C412.751,371.003,256,261.514,207.951,223.705z"/>
	<path style="fill:#183651;" d="M55.138,324.529c-18.905-23.631,11.815-70.105,40.172-104.763c3.151-3.151,7.877-3.938,11.028-0.788
		c3.151,3.151,3.938,7.877,0.788,11.028c-40.172,48.837-46.474,76.406-40.172,85.071c6.302,7.877,28.357,8.665,74.043-11.815
		c42.535-18.905,94.523-51.988,144.935-92.16C400.935,119.729,451.348,38.597,437.169,20.48
		c-7.089-8.665-35.446-7.877-92.948,21.268c-3.938,1.575-8.665,0.788-10.24-3.151c-1.575-3.938-0.788-8.665,3.151-10.24
		c40.96-20.48,93.735-40.172,112.64-16.542c28.357,36.234-57.502,136.271-152.812,212.677
		c-51.2,40.96-103.975,74.831-148.086,94.523C121.305,329.255,72.468,347.372,55.138,324.529z"/>
	<rect x="435.594" y="377.305" style="fill:#183651;" width="15.754" height="15.754"/>
	<rect x="435.594" y="421.415" style="fill:#183651;" width="15.754" height="15.754"/>
	<rect x="435.594" y="464.738" style="fill:#183651;" width="15.754" height="15.754"/>
	<rect x="52.775" y="377.305" style="fill:#183651;" width="15.754" height="15.754"/>
	<rect x="52.775" y="421.415" style="fill:#183651;" width="15.754" height="15.754"/>
	<rect x="52.775" y="464.738" style="fill:#183651;" width="15.754" height="15.754"/>
</g>
<polygon style="fill:#FFFFFF;" points="246.548,86.646 271.754,86.646 253.637,127.606 280.418,127.606 236.308,189.046 
	248.123,147.298 223.705,147.298 "/>
<g>
</g>
<g>
</g>
<g>
</g>
<g>
</g>
<g>
</g>
<g>
</g>
<g>
</g>
<g>
</g>
<g>
</g>
<g>
</g>
<g>
</g>
<g>
</g>
<g>
</g>
<g>
</g>
<g>
</g>
</svg>
