<?xml version="1.0" encoding="iso-8859-1"?>
<!-- Generator: Adobe Illustrator 19.0.0, SVG Export Plug-In . SVG Version: 6.00 Build 0)  -->
<svg version="1.1" id="Capa_1" xmlns="http://www.w3.org/2000/svg" xmlns:xlink="http://www.w3.org/1999/xlink" x="0px" y="0px"
	 viewBox="0 0 504.123 504.123" style="enable-background:new 0 0 504.123 504.123;" xml:space="preserve">
<circle style="fill:#2EA0DA;" cx="252.062" cy="192.985" r="192.985"/>
<polygon style="fill:#F06151;" points="431.655,453.711 374.154,444.258 346.585,496.246 208.738,223.705 293.809,180.382 "/>
<path style="fill:#183651;" d="M346.585,504.123L346.585,504.123c-3.151,0-5.514-1.575-7.089-3.938L201.649,226.855
	c-0.788-1.575-0.788-3.938-0.788-5.514s2.363-3.151,3.938-4.726l85.071-43.323c3.938-1.575,7.877-0.788,10.24,3.151l137.846,271.754
	c3.938,5.514,0,13.391-7.089,11.815l-52.775-7.877l-24.418,47.262C352.098,502.548,349.735,504.123,346.585,504.123z
	 M218.191,226.855l128.394,253.637l20.48-39.385c1.575-3.151,4.726-4.726,7.877-3.938l43.323,6.302L290.658,190.622L218.191,226.855
	z"/>
<polygon style="fill:#FFFFFF;" points="248.911,237.095 280.418,220.554 378.092,414.326 356.825,411.175 347.372,430.868 "/>
<polygon style="fill:#F06151;" points="72.468,453.711 129.969,444.258 157.538,496.246 295.385,223.705 210.314,180.382 "/>
<path style="fill:#183651;" d="M157.538,504.123c-3.151,0-5.514-1.575-6.302-3.938l-24.418-47.262L74.043,460.8
	c-3.151,0.788-5.514-0.788-7.089-3.151c-1.575-2.363-1.575-5.514-0.788-7.877l137.846-272.542c1.575-3.938,6.302-5.514,10.24-3.151
	l85.071,42.535c1.575,0.788,3.151,2.363,3.938,4.726s0.788,3.938-0.788,5.514L164.628,500.185
	C163.052,502.548,160.689,504.123,157.538,504.123L157.538,504.123z M129.969,437.169c3.151,0,5.514,1.575,6.302,3.938l20.48,39.385
	l128.394-253.637l-71.68-36.234L85.858,443.471l43.323-6.302H129.969z"/>
<polygon style="fill:#FFFFFF;" points="147.298,411.175 126.031,414.326 223.705,220.554 255.212,237.095 156.751,430.868 "/>
<path style="fill:#FBBD5E;" d="M237.095,352.886L237.095,352.886c-11.815,9.452-29.145,5.514-36.234-7.877l0,0
	c-5.514-9.452-16.542-14.966-26.782-11.815l0,0c-14.178,3.151-28.357-7.089-29.932-22.055l0,0
	c-0.788-11.028-8.665-19.692-19.692-22.055l0,0c-14.966-2.363-23.631-18.117-18.117-32.295l0,0c3.938-10.24,0-22.055-9.452-28.357
	l0,0c-12.603-8.665-14.178-25.994-3.938-37.022l0,0c7.877-7.877,8.665-19.692,3.151-29.145l0,0
	c-7.877-12.603-2.363-29.145,11.028-35.446l0,0c10.24-3.938,16.542-14.966,14.966-25.206l0,0
	c-2.363-14.966,9.452-27.569,24.418-27.569l0,0c11.028,0,20.48-7.089,23.631-17.329l0,0c3.938-14.178,20.48-21.268,33.871-14.966
	l0,0c10.24,4.726,22.055,2.363,29.145-6.302l0,0c9.452-11.028,27.569-11.028,37.022,0l0,0c7.089,8.665,18.905,11.028,29.145,6.302
	l0,0c13.391-6.302,29.145,0.788,33.871,14.966l0,0c3.151,10.24,12.603,17.329,23.631,17.329l0,0
	c14.966-0.788,26.782,12.603,24.418,27.569l0,0c-1.575,11.028,4.726,21.268,14.966,25.206l0,0
	c14.178,5.514,18.905,22.055,11.028,35.446l0,0c-5.514,9.452-4.726,21.268,3.151,29.145l0,0c10.24,11.028,8.665,28.357-3.938,37.022
	l0,0c-9.452,6.302-12.603,18.117-9.452,28.357l0,0c4.726,14.178-3.938,29.145-18.117,32.295l0,0
	c-11.028,2.363-18.905,11.028-19.692,22.055l0,0c-0.788,14.966-14.966,25.206-29.932,22.055l0,0
	c-11.028-2.363-22.055,2.363-26.782,11.815l0,0c-7.089,13.391-24.418,16.542-36.234,7.877l0,0
	C258.363,346.585,245.76,346.585,237.095,352.886z"/>
<path style="fill:#183651;" d="M281.206,365.489c-7.089,0-13.391-2.363-19.692-6.302c-5.514-4.726-14.178-4.726-20.48,0
	c-5.514,3.938-12.603,6.302-19.692,6.302c-11.815,0-22.055-6.302-28.357-16.542c-3.151-6.302-11.028-10.24-18.905-8.665
	c-2.363,0.788-4.726,0.788-7.877,0.788c-16.542,0-30.72-12.603-31.508-29.145c-0.788-7.877-6.302-13.391-13.391-14.966
	c-7.089-1.575-14.966-7.089-19.692-14.966s-5.514-18.117-2.363-26.782c2.363-7.089,0-14.966-6.302-19.692
	c-7.877-5.514-12.603-13.391-13.391-22.843c-0.788-9.452,2.363-18.117,8.665-25.206c5.514-5.514,6.302-14.178,2.363-20.48
	c-4.726-7.877-6.302-17.329-3.151-26.782c3.151-8.665,9.452-15.754,18.117-19.692c7.089-3.151,11.028-10.24,10.24-17.329
	c-1.575-9.452,1.575-18.117,7.877-25.206c6.302-7.089,14.966-11.028,23.631-11.028h0.788c7.877,0,14.178-4.726,16.542-11.815
	c3.938-13.391,16.542-22.843,30.72-22.843c4.726,0,9.452,0.788,13.391,3.151c7.089,3.151,14.966,1.575,19.692-3.938
	c6.302-7.089,14.966-11.028,24.418-11.028c9.452,0,18.117,3.938,24.418,11.028c4.726,5.514,13.391,7.089,19.692,3.938
	c3.938-2.363,8.665-3.151,13.391-3.151c14.178,0,26.782,9.452,30.72,22.843c2.363,7.089,8.665,11.815,15.754,11.815h1.575
	c9.452,0,18.117,3.938,23.631,11.028c6.302,7.089,8.665,15.754,7.877,25.206c-0.788,7.877,3.151,14.966,10.24,17.329
	c8.665,3.938,14.966,11.028,18.117,19.692c3.151,8.665,1.575,18.905-3.151,26.782c-3.938,6.302-3.151,14.966,2.363,20.48
	c6.302,7.089,9.452,15.754,8.665,25.206s-6.302,17.329-13.391,22.843c-6.302,3.938-8.665,12.603-6.302,19.692
	c3.151,8.665,2.363,18.117-2.363,26.782c-4.726,7.877-12.603,13.391-22.055,14.966c-7.089,1.575-13.391,7.877-13.391,14.966
	c-1.575,16.542-14.966,29.145-31.508,29.145c-2.363,0-4.726,0-7.877-0.788c-7.089-1.575-14.966,1.575-18.905,8.665
	C304.049,359.188,293.022,365.489,281.206,365.489z M252.062,340.283c7.089,0,14.178,2.363,19.692,6.302
	c3.151,2.363,6.302,3.151,10.24,3.151c6.302,0,11.815-3.151,14.966-8.665c7.089-12.603,21.268-18.905,35.446-15.754
	c10.24,2.363,19.692-4.726,20.48-14.966c0.788-14.178,11.815-25.994,25.994-29.145c4.726-0.788,8.665-3.938,11.815-7.877
	c2.363-3.938,3.151-9.452,1.575-14.178c-4.726-13.391,0-28.357,11.815-37.022c3.938-3.151,6.302-7.089,7.089-11.815
	c0.788-4.726-0.788-9.452-4.726-13.391c-10.24-10.24-11.815-25.994-3.938-38.597c2.363-3.938,3.151-9.452,1.575-14.178
	c-1.575-4.726-4.726-8.665-9.452-10.24c-13.391-5.514-21.268-18.905-19.692-33.871c0.788-4.726-0.788-9.452-3.938-13.391
	c-3.151-3.938-7.877-5.514-12.603-5.514h-1.575c-14.178,0-26.782-9.452-30.72-22.843c-3.151-9.452-14.178-14.966-22.843-10.24
	c-12.603,6.302-29.145,2.363-37.809-7.877c-6.302-7.089-18.905-7.089-25.206,0c-9.452,11.028-25.206,14.178-37.809,7.877
	c-9.452-3.938-20.48,0.788-22.843,10.24c-3.938,13.391-16.542,22.843-30.72,22.843h-0.788c-5.514,0-9.452,2.363-12.603,5.514
	c-3.151,3.938-4.726,8.665-3.938,13.391c1.575,14.178-6.302,28.357-19.692,33.871c-4.726,1.575-7.877,5.514-9.452,10.24
	c-1.575,4.726-0.788,9.452,1.575,14.178c7.877,12.603,5.514,28.357-3.938,38.597c-3.151,3.151-4.726,8.665-4.726,13.391
	c0.788,4.726,3.151,9.452,7.089,11.815c11.815,7.877,16.542,23.631,11.815,37.022c-1.575,4.726-0.788,9.452,1.575,14.178
	c2.363,3.938,6.302,7.089,11.815,7.877c14.178,2.363,25.206,14.178,25.994,29.145c0.788,10.24,11.028,17.329,20.48,14.966
	c14.178-3.151,28.357,3.151,35.446,15.754c3.151,5.514,8.665,8.665,14.966,8.665c3.938,0,7.089-1.575,10.24-3.151
	C237.883,342.646,244.972,340.283,252.062,340.283z"/>
<circle style="fill:#FFFFFF;" cx="252.062" cy="192.985" r="124.455"/>
<polygon style="fill:#E0E4E8;" points="237.883,241.822 192.197,196.135 211.102,177.231 237.883,204.8 297.748,144.935 
	316.652,163.052 "/>
<g>
	<rect x="207.163" y="102.4" style="fill:#183651;" width="14.966" height="14.966"/>
	<rect x="244.185" y="102.4" style="fill:#183651;" width="14.966" height="14.966"/>
	<rect x="281.994" y="102.4" style="fill:#183651;" width="14.966" height="14.966"/>
	<rect x="207.163" y="269.391" style="fill:#183651;" width="14.966" height="14.966"/>
	<rect x="244.185" y="269.391" style="fill:#183651;" width="14.966" height="14.966"/>
	<rect x="281.994" y="269.391" style="fill:#183651;" width="14.966" height="14.966"/>
</g>
<g>
</g>
<g>
</g>
<g>
</g>
<g>
</g>
<g>
</g>
<g>
</g>
<g>
</g>
<g>
</g>
<g>
</g>
<g>
</g>
<g>
</g>
<g>
</g>
<g>
</g>
<g>
</g>
<g>
</g>
</svg>
