<?xml version="1.0" encoding="iso-8859-1"?>
<!-- Generator: Adobe Illustrator 19.0.0, SVG Export Plug-In . SVG Version: 6.00 Build 0)  -->
<svg version="1.1" id="Capa_1" xmlns="http://www.w3.org/2000/svg" xmlns:xlink="http://www.w3.org/1999/xlink" x="0px" y="0px"
	 viewBox="0 0 504.123 504.123" style="enable-background:new 0 0 504.123 504.123;" xml:space="preserve">
<rect x="79.557" y="7.877" style="fill:#4FBF9F;" width="416.689" height="396.209"/>
<path style="fill:#183651;" d="M496.246,411.963H79.557c-4.726,0-7.877-3.151-7.877-7.877V7.877C71.68,3.151,74.831,0,79.557,0
	h416.689c4.726,0,7.877,3.151,7.877,7.877v396.209C504.123,408.812,500.972,411.963,496.246,411.963z M87.434,396.209h400.935
	V15.754H87.434V396.209z"/>
<rect x="111.065" y="39.385" style="fill:#FFFFFF;" width="353.674" height="333.194"/>
<rect x="7.877" y="84.283" style="fill:#E0E4E8;" width="416.689" height="411.963"/>
<path style="fill:#183651;" d="M424.566,504.123H7.877c-4.726,0-7.877-3.151-7.877-7.877V84.283c0-4.726,3.151-7.877,7.877-7.877
	h416.689c4.726,0,7.877,3.151,7.877,7.877v411.963C432.443,500.972,429.292,504.123,424.566,504.123z M15.754,488.369h400.935V92.16
	H15.754V488.369z"/>
<rect x="39.385" y="115.791" style="fill:#FFFFFF;" width="353.674" height="348.948"/>
<path style="fill:#F06151;" d="M159.902,171.717c0,18.117-14.178,39.385-32.295,39.385s-32.295-22.055-32.295-39.385
	s14.178-32.295,32.295-32.295S159.902,153.6,159.902,171.717z"/>
<path style="fill:#FBBD5E;" d="M163.84,209.526L163.84,209.526c-16.542,26.782-55.138,26.782-71.68,0l0,0
	c-17.329,4.726-29.145,19.692-29.145,38.597v41.748h129.182v-41.748C192.197,229.218,180.382,214.252,163.84,209.526z"/>
<g>
	<rect x="71.68" y="421.415" style="fill:#183651;" width="49.625" height="15.754"/>
	<rect x="152.025" y="421.415" style="fill:#183651;" width="49.625" height="15.754"/>
	<rect x="231.582" y="421.415" style="fill:#183651;" width="129.182" height="15.754"/>
	<rect x="71.68" y="374.154" style="fill:#183651;" width="49.625" height="15.754"/>
	<rect x="152.025" y="374.154" style="fill:#183651;" width="133.12" height="15.754"/>
	<rect x="311.926" y="374.154" style="fill:#183651;" width="49.625" height="15.754"/>
	<rect x="71.68" y="326.105" style="fill:#183651;" width="133.12" height="15.754"/>
	<rect x="231.582" y="326.105" style="fill:#183651;" width="49.625" height="15.754"/>
	<rect x="311.926" y="326.105" style="fill:#183651;" width="49.625" height="15.754"/>
	<rect x="231.582" y="278.055" style="fill:#183651;" width="49.625" height="15.754"/>
	<rect x="311.926" y="278.055" style="fill:#183651;" width="49.625" height="15.754"/>
	<rect x="231.582" y="230.794" style="fill:#183651;" width="49.625" height="15.754"/>
	<rect x="311.926" y="230.794" style="fill:#183651;" width="49.625" height="15.754"/>
	<rect x="231.582" y="182.745" style="fill:#183651;" width="49.625" height="15.754"/>
	<rect x="311.926" y="182.745" style="fill:#183651;" width="49.625" height="15.754"/>
	<rect x="231.582" y="139.422" style="fill:#183651;" width="15.754" height="15.754"/>
	<rect x="269.391" y="139.422" style="fill:#183651;" width="15.754" height="15.754"/>
	<rect x="307.2" y="139.422" style="fill:#183651;" width="15.754" height="15.754"/>
	<rect x="345.009" y="139.422" style="fill:#183651;" width="15.754" height="15.754"/>
</g>
<g>
</g>
<g>
</g>
<g>
</g>
<g>
</g>
<g>
</g>
<g>
</g>
<g>
</g>
<g>
</g>
<g>
</g>
<g>
</g>
<g>
</g>
<g>
</g>
<g>
</g>
<g>
</g>
<g>
</g>
</svg>
