<?xml version="1.0" encoding="iso-8859-1"?>
<!-- Generator: Adobe Illustrator 19.0.0, SVG Export Plug-In . SVG Version: 6.00 Build 0)  -->
<svg version="1.1" id="Capa_1" xmlns="http://www.w3.org/2000/svg" xmlns:xlink="http://www.w3.org/1999/xlink" x="0px" y="0px"
	 viewBox="0 0 504.123 504.123" style="enable-background:new 0 0 504.123 504.123;" xml:space="preserve">
<circle style="fill:#4FBF9F;" cx="252.062" cy="252.062" r="252.062"/>
<g>
	
		<rect x="395.239" y="272.568" transform="matrix(-0.7071 -0.7071 0.7071 -0.7071 489.8564 763.7953)" style="fill:#183651;" width="15.754" height="15.754"/>
	
		<rect x="422.445" y="299.187" transform="matrix(-0.7071 -0.7071 0.7071 -0.7071 517.4795 828.4738)" style="fill:#183651;" width="15.754" height="15.754"/>
	
		<rect x="449.581" y="326.919" transform="matrix(-0.7071 -0.7071 0.7071 -0.7071 544.1938 895.0038)" style="fill:#183651;" width="15.754" height="15.754"/>
	
		<rect x="92.838" y="272.39" transform="matrix(-0.7071 -0.7071 0.7071 -0.7071 -26.2467 549.6617)" style="fill:#183651;" width="15.754" height="15.754"/>
	
		<rect x="66.22" y="299.557" transform="matrix(-0.7071 -0.7071 0.7071 -0.7071 -90.8974 577.2175)" style="fill:#183651;" width="15.754" height="15.754"/>
	
		<rect x="38.479" y="326.691" transform="matrix(-0.7072 -0.707 0.707 -0.7072 -157.4017 603.9503)" style="fill:#183651;" width="15.754" height="15.754"/>
</g>
<polygon style="fill:#FFFFFF;" points="443.471,161.477 481.28,216.615 415.902,229.218 426.929,211.102 368.64,184.32 
	380.455,155.175 439.532,182.745 "/>
<path style="fill:#183651;" d="M408.812,233.157c-1.575-2.363-1.575-6.302,0-8.665l6.302-10.24l-50.412-23.631
	c-3.938-1.575-5.514-6.302-3.938-10.24l11.815-28.357c0.788-2.363,2.363-3.151,4.726-3.938c2.363-0.788,3.938-0.788,6.302,0
	l49.625,22.843l2.363-11.028c0.788-3.151,3.151-5.514,6.302-6.302c3.151-0.788,6.302,0.788,7.877,3.151l37.809,55.138
	c1.575,2.363,1.575,4.726,0.788,7.877c-0.788,2.363-3.151,3.938-5.514,4.726l-66.166,11.815
	C413.538,237.095,410.388,235.52,408.812,233.157z M378.88,180.382l51.988,23.631c2.363,0.788,3.938,3.151,3.938,4.726
	c0.788,2.363,0,4.726-0.788,6.302l-1.575,2.363l35.446-6.302l-20.48-29.932l-0.788,2.363c-0.788,2.363-2.363,4.726-3.938,5.514
	c-1.575,0.788-4.726,0.788-7.089,0l-51.2-23.631L378.88,180.382z"/>
<polygon style="fill:#FFFFFF;" points="415.902,31.508 481.28,44.111 443.471,99.249 439.532,77.982 378.092,100.825 366.277,71.68 
	427.717,49.625 "/>
<path style="fill:#183651;" d="M371.003,103.188l-11.815-28.357c-0.788-2.363-0.788-3.938,0-6.302
	c0.788-1.575,2.363-3.151,4.726-3.938l51.2-18.905l-6.302-9.452c-1.575-2.363-1.575-6.302,0-8.665
	c1.575-2.363,4.726-3.938,7.877-3.151l66.166,11.815c2.363,0.788,4.726,2.363,5.514,4.726c0.788,2.363,0.788,5.514-0.788,7.877
	l-37.809,55.138c-1.575,2.363-4.726,3.938-7.877,3.151c-3.151-0.788-5.514-3.151-6.302-6.302l-2.363-11.815l-51.988,18.905
	C377.305,109.489,372.578,107.126,371.003,103.188z M377.305,76.406l5.514,14.178l53.563-19.692
	c2.363-0.788,4.726-0.788,6.302,0.788c2.363,0.788,3.151,3.151,3.938,5.514l0.788,2.363l20.48-29.932l-35.446-6.302l1.575,2.363
	c1.575,2.363,1.575,4.726,0.788,7.089c-0.788,2.363-2.363,3.938-4.726,4.726L377.305,76.406z"/>
<polygon style="fill:#FFFFFF;" points="60.652,161.477 22.843,216.615 88.222,229.218 77.194,211.102 135.483,184.32 
	123.668,155.175 64.591,182.745 "/>
<path style="fill:#183651;" d="M87.434,236.308l-66.166-11.815c-2.363-0.788-4.726-2.363-5.514-4.726
	c-0.788-2.363-0.788-5.514,0.788-7.877l37.809-55.138c1.575-2.363,4.726-3.151,7.877-3.151c3.151,0.788,5.514,3.151,6.302,6.302
	l2.363,11.028l49.625-22.843c1.575-0.788,3.938-0.788,6.302,0c2.363,0.788,3.938,2.363,4.726,3.938l11.815,28.357
	c1.575,3.938,0,8.665-3.938,10.24l-50.412,23.631l5.514,8.665c1.575,1.575,2.363,3.151,2.363,5.514
	C96.886,233.945,92.16,237.883,87.434,236.308z M36.234,211.102l35.446,6.302l-1.575-2.363c-1.575-1.575-1.575-3.938-0.788-6.302
	c0.788-2.363,2.363-3.938,3.938-4.726l51.988-23.631l-5.514-14.178l-51.2,23.631c-2.363,0.788-4.726,0.788-7.089,0
	c-2.363-0.788-3.938-3.151-3.938-5.514l-0.788-2.363L36.234,211.102z"/>
<polygon style="fill:#FFFFFF;" points="88.222,31.508 22.843,44.111 60.652,99.249 64.591,77.982 126.031,100.825 137.846,71.68 
	76.406,49.625 "/>
<path style="fill:#183651;" d="M122.88,107.914L70.892,89.009l-2.363,11.815c-0.788,3.151-3.151,5.514-6.302,5.514
	c-3.151,0.788-6.302-0.788-7.877-3.151L16.542,48.049c-1.575-1.575-2.363-4.726-1.575-7.089c0.788-2.363,3.151-3.938,5.514-4.726
	l66.166-11.815c3.151-0.788,6.302,0.788,7.877,3.151c1.575,2.363,1.575,6.302,0,8.665l-6.302,9.452l51.2,18.905
	c2.363,0.788,3.938,2.363,4.726,3.938c0.788,1.575,0.788,3.938,0,6.302l-11.815,28.357
	C131.545,107.126,126.818,109.489,122.88,107.914z M64.591,70.105c0.788,0,1.575,0,2.363,0.788l53.563,19.692l5.514-14.178
	L74.043,56.714c-2.363-0.788-3.938-2.363-4.726-4.726c-0.788-2.363-0.788-4.726,0.788-7.089l1.575-2.363l-35.446,7.089l20.48,29.932
	l0.788-2.363c0-3.151,1.575-4.726,3.938-6.302C62.228,70.892,63.803,70.105,64.591,70.105z"/>
<path style="fill:#F06151;" d="M367.065,318.228L367.065,318.228c-29.932-31.508-71.68-48.837-115.003-48.837l0,0
	c-43.323,0-85.071,17.329-115.003,48.837c-11.815,11.815-18.117,28.357-18.117,44.898v70.892h266.24v-70.892
	C385.182,345.797,378.88,330.043,367.065,318.228z"/>
<path style="fill:#183651;" d="M385.182,441.895h-266.24c-4.726,0-7.877-3.151-7.877-7.877v-70.892
	c0-18.905,7.089-36.234,20.48-50.412c31.508-32.295,75.618-51.2,120.517-51.2c45.686,0,89.009,18.905,120.517,51.2
	c13.391,13.391,20.48,31.508,20.48,50.412v70.892C393.058,437.957,389.908,441.895,385.182,441.895z M126.818,426.142h250.486
	v-63.015c0-14.966-5.514-28.357-15.754-39.385c-28.357-29.932-68.529-46.474-109.489-46.474s-81.132,17.329-109.489,46.474
	c-10.24,10.24-15.754,24.418-15.754,39.385V426.142z"/>
<path style="fill:#FFFFFF;" d="M151.237,401.723v-38.597c0-8.665,3.151-16.542,8.665-22.055
	c23.631-25.206,57.502-39.385,92.16-39.385s67.742,14.178,92.16,39.385c5.514,6.302,8.665,14.178,8.665,22.055v38.597H151.237z"/>
<polygon style="fill:#2EA0DA;" points="260.726,294.597 266.24,274.117 250.486,257.575 234.732,274.117 240.246,294.597 
	223.705,364.702 250.486,396.209 277.268,364.702 "/>
<path style="fill:#FBBD5E;" d="M306.412,116.578l-37.809-6.302l-54.351,18.117l-28.357,34.658l8.665,59.865
	c0,0,0,9.452,2.363,14.966c15.754,48.049,81.92,51.2,104.763,6.302c3.151-6.302,6.302-18.905,7.877-27.569l7.877-68.529
	L306.412,116.578z"/>
<path style="fill:#183651;" d="M250.486,283.569L250.486,283.569c-28.357,0-51.988-17.329-60.652-43.323
	c-1.575-6.302-2.363-14.178-2.363-16.542l-8.665-59.077c0-2.363,0-4.726,1.575-6.302l28.357-34.658
	c0.788-0.788,2.363-2.363,3.938-2.363l54.351-18.117c1.575-0.788,2.363-0.788,3.938,0l37.809,6.302
	c3.151,0.788,5.514,2.363,6.302,5.514l11.028,32.295c0.788,0.788,0.788,2.363,0.788,3.938l-7.877,68.529v0.788l-3.151,3.938
	c-2.363,8.665-4.726,18.117-7.089,23.631C297.748,270.178,274.905,283.569,250.486,283.569z M194.56,165.415l8.665,55.926v0.788
	c0,2.363,0.788,9.452,1.575,12.603c6.302,19.692,24.418,33.083,45.686,33.083l0,0c18.905,0,35.446-10.24,44.111-27.569
	c2.363-3.938,3.938-13.391,6.302-20.48l1.575-5.514l7.877-66.166l-9.452-25.994l-30.72-4.726l-50.412,16.542L194.56,165.415z"/>
<path style="fill:#E0E4E8;" d="M287.508,130.757c0,0-5.514,33.083-67.742,27.569c0,0-29.145-14.178-23.631,39.385
	c0,0,0.788,18.905-1.575,25.206c0,0-67.742-109.489,22.843-144.935c0,0,52.775-26.782,76.406,18.117c0,0,54.351,5.514,30.72,85.071
	l-14.966,35.446C309.563,216.615,316.652,123.668,287.508,130.757z"/>
<path style="fill:#183651;" d="M195.348,230.794c-2.363,0-5.514-1.575-7.089-3.938s-37.809-61.44-21.268-109.489
	c7.089-21.268,23.631-37.022,48.049-46.474c0,0,16.542-8.665,36.234-8.665c20.48,0,37.022,9.452,48.049,26.782
	c7.089,1.575,20.48,6.302,29.932,20.48c11.815,17.329,12.603,41.748,3.151,73.255l-14.966,37.022
	c-1.575,3.938-5.514,5.514-9.452,4.726c-3.938-0.788-6.302-4.726-6.302-7.877c1.575-25.994,0-66.954-8.665-77.194l0,0
	c-4.726,10.24-19.692,27.569-59.865,27.569c-4.726,0-8.665,0-13.391-0.788c-0.788,0-1.575,0-3.151-0.788l0,0
	c0,0-2.363-0.788-3.938-0.788c-2.363,0-3.151,0.788-3.938,1.575c-1.575,2.363-5.514,8.665-3.151,30.72
	c0,3.938,0.788,21.268-1.575,28.357c-0.788,3.151-3.151,4.726-6.302,5.514C195.348,230.794,195.348,230.794,195.348,230.794z
	 M251.274,77.194c-15.754,0-29.932,7.089-29.932,7.089c-20.48,7.877-33.871,20.48-39.385,37.809
	c-7.089,22.055-0.788,48.049,6.302,67.742c-0.788-15.754,1.575-26.782,7.877-33.871c3.938-4.726,9.452-7.089,15.754-7.089
	c3.938,0,7.877,0.788,9.452,1.575c3.938,0,7.877,0.788,11.028,0.788c41.748,0,46.474-21.268,47.262-22.055
	c0.788-3.151,3.151-5.514,6.302-6.302c7.089-1.575,13.391,0.788,18.905,5.514c8.665,9.452,11.815,28.357,13.391,47.262
	c7.089-25.206,7.089-44.898-1.575-57.502c-8.665-12.603-22.843-14.178-22.843-14.178c-2.363,0-4.726-1.575-6.302-3.938
	C279.631,84.283,267.815,77.194,251.274,77.194z"/>
<g>
</g>
<g>
</g>
<g>
</g>
<g>
</g>
<g>
</g>
<g>
</g>
<g>
</g>
<g>
</g>
<g>
</g>
<g>
</g>
<g>
</g>
<g>
</g>
<g>
</g>
<g>
</g>
<g>
</g>
</svg>
