<?xml version="1.0" encoding="iso-8859-1"?>
<!-- Generator: Adobe Illustrator 19.0.0, SVG Export Plug-In . SVG Version: 6.00 Build 0)  -->
<svg version="1.1" id="Capa_1" xmlns="http://www.w3.org/2000/svg" xmlns:xlink="http://www.w3.org/1999/xlink" x="0px" y="0px"
	 viewBox="0 0 504.123 504.123" style="enable-background:new 0 0 504.123 504.123;" xml:space="preserve">
<circle style="fill:#F06151;" cx="252.062" cy="252.062" r="252.062"/>
<path style="fill:#FFFFFF;" d="M85.071,86.646v378.092c0,17.329,14.178,31.508,31.508,31.508h270.178
	c17.329,0,31.508-14.178,31.508-31.508V86.646H85.071z"/>
<path style="fill:#183651;" d="M387.545,504.123H116.578c-22.055,0-39.385-17.329-39.385-39.385V86.646
	c0-4.726,3.151-7.877,7.877-7.877h333.194c4.726,0,7.877,3.151,7.877,7.877v378.092
	C426.929,486.794,408.812,504.123,387.545,504.123z M92.948,94.523v370.215c0,13.391,10.24,23.631,23.631,23.631h270.178
	c13.391,0,23.631-10.24,23.631-23.631V94.523H92.948z"/>
<g>
	<rect x="116.578" y="118.154" style="fill:#E0E4E8;" width="270.178" height="346.585"/>
	<rect x="66.954" y="48.049" style="fill:#E0E4E8;" width="370.215" height="38.597"/>
</g>
<g>
	<path style="fill:#183651;" d="M437.169,94.523H66.954c-4.726,0-7.877-3.151-7.877-7.877V48.049c0-4.726,3.151-7.877,7.877-7.877
		h370.215c4.726,0,7.877,3.151,7.877,7.877v38.597C445.046,90.585,441.108,94.523,437.169,94.523z M74.831,78.769h354.462V55.926
		H74.831V78.769z"/>
	<path style="fill:#183651;" d="M295.385,55.926h-86.646c-4.726,0-7.877-3.151-7.877-7.877V7.877c0-4.726,3.151-7.877,7.877-7.877
		h86.646c4.726,0,7.877,3.151,7.877,7.877v40.172C303.262,52.775,300.111,55.926,295.385,55.926z M216.615,40.172h70.892V15.754
		h-70.892V40.172z"/>
</g>
<g>
	<path style="fill:#FFFFFF;" d="M164.628,408.812L164.628,408.812c-7.877,0-13.391-6.302-13.391-13.391V187.471
		c0-7.877,6.302-13.391,13.391-13.391l0,0c7.877,0,13.391,6.302,13.391,13.391v207.951
		C178.806,402.511,172.505,408.812,164.628,408.812z"/>
	<path style="fill:#FFFFFF;" d="M222.917,408.812L222.917,408.812c-7.877,0-13.391-6.302-13.391-13.391V187.471
		c0-7.877,6.302-13.391,13.391-13.391l0,0c7.877,0,13.391,6.302,13.391,13.391v207.951
		C236.308,402.511,230.794,408.812,222.917,408.812z"/>
	<path style="fill:#FFFFFF;" d="M281.206,408.812L281.206,408.812c-7.877,0-13.391-6.302-13.391-13.391V187.471
		c0-7.877,6.302-13.391,13.391-13.391l0,0c7.877,0,13.391,6.302,13.391,13.391v207.951
		C294.597,402.511,288.295,408.812,281.206,408.812z"/>
	<path style="fill:#FFFFFF;" d="M339.495,408.812L339.495,408.812c-7.877,0-13.391-6.302-13.391-13.391V187.471
		c0-7.877,6.302-13.391,13.391-13.391l0,0c7.877,0,13.391,6.302,13.391,13.391v207.951
		C352.886,402.511,346.585,408.812,339.495,408.812z"/>
</g>
<g>
	<rect x="189.834" y="133.908" style="fill:#183651;" width="15.754" height="15.754"/>
	<rect x="244.185" y="133.908" style="fill:#183651;" width="15.754" height="15.754"/>
	<rect x="298.535" y="133.908" style="fill:#183651;" width="15.754" height="15.754"/>
	<rect x="189.834" y="433.231" style="fill:#183651;" width="15.754" height="15.754"/>
	<rect x="244.185" y="433.231" style="fill:#183651;" width="15.754" height="15.754"/>
	<rect x="298.535" y="433.231" style="fill:#183651;" width="15.754" height="15.754"/>
</g>
<g>
</g>
<g>
</g>
<g>
</g>
<g>
</g>
<g>
</g>
<g>
</g>
<g>
</g>
<g>
</g>
<g>
</g>
<g>
</g>
<g>
</g>
<g>
</g>
<g>
</g>
<g>
</g>
<g>
</g>
</svg>
