<?xml version="1.0" encoding="iso-8859-1"?>
<!-- Generator: Adobe Illustrator 19.0.0, SVG Export Plug-In . SVG Version: 6.00 Build 0)  -->
<svg version="1.1" id="Capa_1" xmlns="http://www.w3.org/2000/svg" xmlns:xlink="http://www.w3.org/1999/xlink" x="0px" y="0px"
	 viewBox="0 0 504.32 504.32" style="enable-background:new 0 0 504.32 504.32;" xml:space="preserve">
<circle style="fill:#E1E6E7;" cx="252.062" cy="252.062" r="252.062"/>
<g>
	<path style="fill:#183651;" d="M394.634,88.222c-1.575-1.575-3.151-3.938-5.514-5.514l11.028-11.028
		c1.575,1.575,3.938,3.938,5.514,5.514L394.634,88.222z"/>
	<path style="fill:#183651;" d="M244.185,467.889l-0.788-15.754c4.726,0,10.24-0.788,15.754-0.788l1.575,15.754
		C255.212,467.889,249.698,467.889,244.185,467.889z M227.643,467.889c-5.514,0-11.028-0.788-16.542-0.788l1.575-15.754
		c4.726,0.788,10.24,0.788,15.754,0.788L227.643,467.889z M195.348,464.738c-5.514-0.788-11.028-2.363-16.542-3.151l3.938-14.966
		c4.726,1.575,10.24,2.363,14.966,3.151L195.348,464.738z M277.268,464.738l-3.151-15.754c4.726-0.788,10.24-2.363,14.966-3.151
		l3.938,14.966C288.295,462.375,282.782,463.951,277.268,464.738z M163.052,456.862c-5.514-1.575-10.24-3.938-15.754-5.514
		l6.302-14.178c4.726,1.575,9.452,3.938,14.178,5.514L163.052,456.862z M309.563,456.074l-4.726-14.966
		c4.726-1.575,9.452-3.151,14.178-5.514l6.302,14.178C319.803,452.923,315.077,454.498,309.563,456.074z M132.332,443.471
		c-4.726-2.363-9.452-5.514-14.178-7.877l7.877-13.391c4.726,2.363,8.665,4.726,13.391,7.089L132.332,443.471z M340.283,443.471
		l-7.089-14.178c4.726-2.363,9.452-4.726,13.391-7.089l7.877,13.391C349.735,438.745,345.009,441.108,340.283,443.471z
		 M103.975,426.929c-4.726-3.151-8.665-6.302-13.391-10.24l10.24-12.603c3.938,3.151,7.877,6.302,12.603,9.452L103.975,426.929z
		 M368.64,426.929l-8.665-13.391c3.938-3.151,8.665-6.302,12.603-9.452l10.24,12.603C378.092,419.84,373.366,423.778,368.64,426.929
		z M394.634,405.662l-11.028-11.815c1.575-1.575,3.938-3.151,5.514-5.514c1.575-1.575,3.938-3.938,5.514-5.514l11.815,11.028
		c-1.575,2.363-3.938,3.938-5.514,6.302C398.572,402.511,396.209,404.086,394.634,405.662z M416.689,382.031l-12.603-10.24
		c3.151-3.938,6.302-7.877,9.452-12.603l12.603,8.665C423.778,372.578,420.628,377.305,416.689,382.031z M435.594,354.462
		l-13.391-7.877c2.363-4.726,4.726-8.665,7.089-13.391l14.178,7.089C441.108,345.009,438.745,349.735,435.594,354.462z
		 M450.56,324.529l-14.178-5.514c1.575-4.726,3.938-9.452,5.514-14.178l14.966,4.726
		C454.498,314.289,452.923,319.803,450.56,324.529z M460.8,293.022l-14.966-3.938c1.575-4.726,2.363-10.24,3.151-14.966
		l15.754,3.151C463.951,282.782,462.375,288.295,460.8,293.022z M467.102,260.726l-15.754-1.575
		c0.788-4.726,0.788-10.24,0.788-15.754l15.754,0.788C467.889,249.698,467.889,255.212,467.102,260.726z M452.135,228.431
		c0-4.726-0.788-10.24-0.788-15.754l15.754-1.575c0.788,5.514,0.788,11.028,0.788,16.542L452.135,228.431z M448.985,197.711
		c-0.788-4.726-2.363-10.24-3.151-14.966l14.966-3.938c1.575,5.514,2.363,11.028,3.151,16.542L448.985,197.711z M441.895,167.778
		c-1.575-4.726-3.151-9.452-5.514-14.178l14.178-6.302c2.363,4.726,3.938,10.24,5.514,15.754L441.895,167.778z M430.08,139.422
		c-2.363-4.726-4.726-9.452-7.089-13.391l13.391-7.877c3.151,4.726,5.514,9.452,7.877,14.178L430.08,139.422z M413.538,112.64
		c-3.151-3.938-6.302-8.665-9.452-12.603l12.603-10.24c3.151,3.938,7.089,8.665,10.24,13.391L413.538,112.64z"/>
	<path style="fill:#183651;" d="M77.982,405.662c-2.363-1.575-3.938-3.938-5.514-5.514l11.028-11.028
		c1.575,1.575,3.938,3.151,5.514,5.514L77.982,405.662z"/>
</g>
<path style="fill:#CFD0D1;" d="M259.151,335.557l144.935,144.935c21.268,21.268,55.138,21.268,76.406,0
	c21.268-21.268,21.268-55.138,0-76.406L335.557,259.151L259.151,335.557z"/>
<path style="fill:#183651;" d="M398.572,486.006L253.637,341.071c-3.151-3.151-3.151-7.877,0-11.028l76.406-76.406
	c3.151-3.151,7.877-3.151,11.028,0l144.935,144.935c24.418,24.418,24.418,63.015,0,87.434
	C461.588,510.425,422.991,510.425,398.572,486.006z M270.178,335.557L409.6,474.978c18.117,18.117,47.262,18.117,65.378,0
	s18.117-47.262,0-65.378L335.557,270.178L270.178,335.557z"/>
<g>
	<path style="fill:#FFFFFF;" d="M426.142,458.437l-122.88-122.88l32.295-32.295l122.88,122.88c8.665,8.665,8.665,22.843,0,32.295
		C448.985,467.102,434.806,467.102,426.142,458.437z"/>
	<circle style="fill:#FFFFFF;" cx="201.649" cy="201.649" r="192.985"/>
</g>
<path id="SVGCleanerId_0" style="fill:#183651;" d="M201.649,402.511c-110.277,0-200.862-89.797-200.862-200.862
	C0.788,91.372,90.585,0.788,201.649,0.788c110.277,0,200.862,89.797,200.862,200.862S312.714,402.511,201.649,402.511z
	 M201.649,17.329c-101.612,0-184.32,82.708-184.32,184.32s82.708,185.108,185.108,185.108s185.108-82.708,185.108-185.108
	S304.049,17.329,201.649,17.329z"/>
<g>
	
		<rect x="359.345" y="359.108" transform="matrix(-0.7071 -0.7071 0.7071 -0.7071 367.3903 886.1469)" style="fill:#183651;" width="15.754" height="15.754"/>
	
		<rect x="390.853" y="390.582" transform="matrix(-0.7071 -0.7071 0.7071 -0.7071 398.9214 962.1566)" style="fill:#183651;" width="15.754" height="15.754"/>
	
		<rect x="422.361" y="422.12" transform="matrix(-0.7071 -0.7071 0.7071 -0.7071 430.4079 1038.274)" style="fill:#183651;" width="15.754" height="15.754"/>
</g>
<path style="fill:#2CA0DA;" d="M264.665,220.554c-15.754,19.692-37.809,31.508-63.015,31.508c-24.418,0-46.474-11.815-63.015-31.508
	c-22.843,0.788-41.748,19.692-41.748,42.535v100.825c29.932,19.692,66.166,30.72,104.763,30.72s74.831-11.028,104.763-30.72V263.089
	C306.412,239.458,288.295,220.554,264.665,220.554z"/>
<ellipse style="fill:#FBBD5E;" cx="201.649" cy="140.997" rx="57.502" ry="79.557"/>
<path style="fill:#173651;" d="M265.452,85.071c-1.575-14.966-12.603-24.418-25.206-30.72c-23.631-11.815-51.988-11.815-75.618,0
	c-12.603,6.302-23.631,16.542-25.206,30.72c0,0-18.117,12.603,6.302,67.742c0,0-5.514-22.843,11.815-36.234
	c0,0-8.665-25.206,14.178-25.994c0,0,18.905,10.24,30.72,7.877c11.028,2.363,30.72-7.877,30.72-7.877
	c22.843,0,14.178,25.994,14.178,25.994c17.329,13.391,11.815,36.234,11.815,36.234C283.569,97.674,265.452,85.071,265.452,85.071z"
	/>
<ellipse style="fill:#FBBD5E;" cx="327.68" cy="193.772" rx="30.72" ry="42.535"/>
<path style="fill:#173651;" d="M361.551,164.628c-0.788-7.877-7.089-13.391-13.391-16.542c-12.603-6.302-27.569-6.302-40.172,0
	c-7.089,3.151-12.603,8.665-13.391,16.542c0,0-9.452,7.089,3.151,36.234c0,0-3.151-12.603,6.302-19.692
	c0,0-4.726-13.391,7.877-13.391c0,0,10.24,5.514,16.542,3.938c6.302,0.788,16.542-3.938,16.542-3.938
	c11.815,0,7.877,13.391,7.877,13.391c8.665,7.089,5.514,19.692,5.514,19.692C371.791,170.929,361.551,164.628,361.551,164.628z"/>
<g>
	<path style="fill:#F06151;" d="M359.975,237.095c-8.665,9.452-19.692,15.754-32.295,15.754s-23.631-5.514-32.295-15.754
		c-10.24,0.788-18.905,9.452-18.905,20.48v122.092c45.686-18.905,81.92-55.138,101.612-100.037v-22.055
		C378.88,246.548,370.215,237.883,359.975,237.095z"/>
	<path style="fill:#F06151;" d="M111.065,237.095c-8.665,9.452-19.692,15.754-32.295,15.754s-23.631-5.514-32.295-15.754
		c-10.24,0.788-18.905,9.452-18.905,20.48v28.357c20.48,42.535,56.714,77.194,101.612,94.523v-122.88
		C129.969,246.548,121.305,237.883,111.065,237.095z"/>
</g>
<ellipse style="fill:#FBBD5E;" cx="79.557" cy="193.772" rx="30.72" ry="42.535"/>
<path style="fill:#173651;" d="M112.64,164.628c-0.788-7.877-7.089-13.391-13.391-16.542c-12.603-6.302-27.569-6.302-40.172,0
	c-7.089,3.151-12.603,8.665-13.391,16.542c0,0-9.452,7.089,3.151,36.234c0,0-3.151-12.603,6.302-19.692
	c0,0-4.726-13.391,7.877-13.391c0,0,10.24,5.514,16.542,3.938c6.302,0.788,16.542-3.938,16.542-3.938
	c11.815,0,7.877,13.391,7.877,13.391c9.452,7.089,6.302,19.692,6.302,19.692C122.88,170.929,112.64,164.628,112.64,164.628z"/>
<g>
	<path id="SVGCleanerId_0_1_" style="fill:#183651;" d="M201.649,402.511c-110.277,0-200.862-89.797-200.862-200.862
		C0.788,91.372,90.585,0.788,201.649,0.788c110.277,0,200.862,89.797,200.862,200.862S312.714,402.511,201.649,402.511z
		 M201.649,17.329c-101.612,0-184.32,82.708-184.32,184.32s82.708,185.108,185.108,185.108s185.108-82.708,185.108-185.108
		S304.049,17.329,201.649,17.329z"/>
</g>
<g>
</g>
<g>
</g>
<g>
</g>
<g>
</g>
<g>
</g>
<g>
</g>
<g>
</g>
<g>
</g>
<g>
</g>
<g>
</g>
<g>
</g>
<g>
</g>
<g>
</g>
<g>
</g>
<g>
</g>
</svg>
