<?xml version="1.0" encoding="iso-8859-1"?>
<!-- Generator: Adobe Illustrator 19.0.0, SVG Export Plug-In . SVG Version: 6.00 Build 0)  -->
<svg version="1.1" id="Capa_1" xmlns="http://www.w3.org/2000/svg" xmlns:xlink="http://www.w3.org/1999/xlink" x="0px" y="0px"
	 viewBox="0 0 504.911 504.911" style="enable-background:new 0 0 504.911 504.911;" xml:space="preserve">
<rect x="8.074" y="71.68" style="fill:#E0E4E8;" width="347.372" height="425.354"/>
<path style="fill:#183651;" d="M355.446,504.911H8.074c-4.726,0-7.877-3.151-7.877-7.877V71.68c0-4.726,3.151-7.877,7.877-7.877
	h347.372c4.726,0,7.877,3.151,7.877,7.877v425.354C363.323,501.76,360.172,504.911,355.446,504.911z M15.951,489.157h331.618v-409.6
	H15.951V489.157z"/>
<g>
	<rect x="39.582" y="103.188" style="fill:#FFFFFF;" width="284.357" height="362.338"/>
	<polygon style="fill:#FFFFFF;" points="271.951,113.428 91.569,113.428 113.625,44.898 250.683,44.898 	"/>
</g>
<path style="fill:#183651;" d="M271.951,121.305L271.951,121.305H91.569c-2.363,0-4.726-1.575-6.302-3.151
	c-1.575-1.575-1.575-4.726-0.788-7.089l21.268-69.317c0.788-3.151,3.938-5.514,7.877-5.514h137.058c3.151,0,6.302,2.363,7.877,5.514
	l21.268,67.742c0.788,0.788,0.788,2.363,0.788,3.938C279.828,118.154,275.889,121.305,271.951,121.305z M102.597,105.551h158.326
	l-16.542-53.563H119.138L102.597,105.551z"/>
<circle style="fill:#FFFFFF;" cx="182.154" cy="44.898" r="36.234"/>
<g>
	<path style="fill:#183651;" d="M182.154,88.222c-24.418,0-44.111-19.692-44.111-44.111S157.735,0,182.154,0
		s44.111,19.692,44.111,44.111S205.785,88.222,182.154,88.222z M182.154,16.542c-15.754,0-28.357,12.603-28.357,28.357
		s12.603,28.357,28.357,28.357s28.357-12.603,28.357-28.357S197.12,16.542,182.154,16.542z"/>
	<rect x="91.569" y="187.471" style="fill:#183651;" width="179.594" height="15.754"/>
	<rect x="91.569" y="249.698" style="fill:#183651;" width="179.594" height="15.754"/>
	<rect x="91.569" y="311.138" style="fill:#183651;" width="179.594" height="15.754"/>
	<rect x="94.72" y="370.215" style="fill:#183651;" width="15.754" height="15.754"/>
	<rect x="135.68" y="370.215" style="fill:#183651;" width="15.754" height="15.754"/>
</g>
<rect x="417.674" y="67.742" style="fill:#4FBF9F;" width="78.769" height="187.471"/>
<path style="fill:#183651;" d="M496.443,263.089h-78.769c-4.726,0-7.877-3.151-7.877-7.877V67.742c0-4.726,3.151-7.877,7.877-7.877
	h78.769c4.726,0,7.877,3.151,7.877,7.877v187.471C504.32,259.938,501.169,263.089,496.443,263.089z M425.551,247.335h63.015V75.618
	h-63.015V247.335z"/>
<rect x="442.88" y="98.462" style="fill:#FFFFFF;" width="27.569" height="126.818"/>
<path style="fill:#F06151;" d="M429.489,8.665c-6.302,0-11.815,5.514-11.815,11.815c0,15.754,0,48.049,0,48.049h78.769V20.48
	c0-6.302-5.514-11.815-11.815-11.815L429.489,8.665z"/>
<path style="fill:#183651;" d="M496.443,75.618h-78.769c-2.363,0-3.938-0.788-5.514-2.363c-1.575-1.575-2.363-3.151-2.363-5.514
	V19.692C409.797,8.665,418.462,0,429.489,0h55.138c11.028,0,19.692,8.665,19.692,19.692v48.049
	C504.32,72.468,501.169,75.618,496.443,75.618z M425.551,59.865h63.015V20.48c0-2.363-1.575-3.938-3.938-3.938h-55.138
	c-2.363,0-3.938,1.575-3.938,3.938V59.865z"/>
<polygon style="fill:#FBBD5E;" points="417.674,255.212 457.058,329.255 496.443,255.212 "/>
<g>
	<path style="fill:#183651;" d="M457.058,337.132L457.058,337.132c-3.151,0-5.514-1.575-7.089-3.938l-39.385-74.043
		c-1.575-2.363-1.575-5.514,0-7.877c1.575-2.363,3.938-3.938,7.089-3.938h78.769c3.151,0,5.514,1.575,7.089,3.938
		c1.575,2.363,1.575,5.514,0,7.877l-39.385,74.043C462.572,335.557,460.209,337.132,457.058,337.132z M431.065,263.089
		l25.994,49.625l25.994-49.625H431.065z"/>
	<polyline style="fill:#183651;" points="443.668,304.049 457.058,329.255 470.449,304.049 	"/>
	<path style="fill:#183651;" d="M457.058,337.132c-3.151,0-5.514-1.575-7.089-3.938l-13.391-25.206
		c-2.363-3.938-0.788-8.665,3.151-11.028c3.938-2.363,8.665-0.788,11.028,3.151l6.302,11.815l6.302-11.815
		c2.363-3.938,7.089-5.514,11.028-3.151c3.938,2.363,5.514,7.089,3.151,11.028l-13.391,25.206
		C462.572,335.557,460.209,337.132,457.058,337.132z"/>
</g>
<path style="fill:#FFFFFF;" d="M495.655,415.114c-77.982-109.489-205.588-109.489-283.569,0l0,0l0,0
	C290.068,524.603,416.886,524.603,495.655,415.114L495.655,415.114L495.655,415.114z"/>
<path style="fill:#183651;" d="M353.871,504.911c-55.926,0-108.702-30.72-148.086-85.858c-1.575-2.363-1.575-6.302,0-9.452
	c39.385-55.138,92.16-85.858,148.086-85.858s108.702,30.72,148.086,85.858c1.575,2.363,1.575,6.302,0,9.452
	C462.572,474.191,409.797,504.911,353.871,504.911z M221.538,415.114c36.234,48.049,82.708,74.043,132.332,74.043
	s96.098-25.994,132.332-74.043c-36.234-48.049-82.708-74.043-132.332-74.043C304.246,340.283,257.772,367.065,221.538,415.114z"/>
<circle style="fill:#F06151;" cx="353.871" cy="415.114" r="59.865"/>
<circle style="fill:#FFFFFF;" cx="375.138" cy="389.908" r="14.178"/>
<g>
</g>
<g>
</g>
<g>
</g>
<g>
</g>
<g>
</g>
<g>
</g>
<g>
</g>
<g>
</g>
<g>
</g>
<g>
</g>
<g>
</g>
<g>
</g>
<g>
</g>
<g>
</g>
<g>
</g>
</svg>
