<?xml version="1.0" encoding="iso-8859-1"?>
<!-- Generator: Adobe Illustrator 19.0.0, SVG Export Plug-In . SVG Version: 6.00 Build 0)  -->
<svg version="1.1" id="Capa_1" xmlns="http://www.w3.org/2000/svg" xmlns:xlink="http://www.w3.org/1999/xlink" x="0px" y="0px"
	 viewBox="0 0 504.123 504.123" style="enable-background:new 0 0 504.123 504.123;" xml:space="preserve">
<circle style="fill:#4FBF9F;" cx="252.062" cy="252.062" r="252.062"/>
<path style="fill:#FBBD5E;" d="M207.163,53.563v55.926c0,24.418,19.692,44.898,44.898,44.898c24.418,0,44.898-19.692,44.898-44.898
	V53.563H207.163z"/>
<path style="fill:#183651;" d="M252.062,161.477c-29.145,0-52.775-23.631-52.775-52.775V53.563c0-3.938,3.151-7.877,7.877-7.877
	h89.009c3.938,0,7.877,3.151,7.877,7.877v55.926C304.837,137.846,281.206,161.477,252.062,161.477z M215.04,60.652v48.049
	c0,20.48,16.542,37.022,37.022,37.022s37.022-16.542,37.022-37.022V60.652H215.04z"/>
<path style="fill:#E1E6E7;" d="M207.163,109.489c0,0-34.658-74.831,11.028-84.283c0,0,25.994-33.871,73.255,0
	c0,0,54.351,10.24,5.514,84.283c0,0-4.726-26.782,0-52.775c-18.117,5.514-31.508,22.055-78.769,2.363
	C218.191,59.865,219.766,79.557,207.163,109.489z"/>
<path style="fill:#183651;" d="M296.96,117.366c-0.788,0-0.788,0-1.575,0c-3.151-0.788-5.514-3.151-6.302-6.302
	c0-0.788-3.938-19.692-1.575-41.748c-7.877,3.151-17.329,7.089-30.72,7.089c-9.452,0-19.692-1.575-30.72-5.514
	c-0.788,9.452-3.938,24.418-11.028,41.748c-1.575,3.151-3.938,4.726-7.089,4.726c-3.151,0-6.302-1.575-7.089-4.726
	c-2.363-4.726-22.055-49.625-8.665-76.406c4.726-8.665,12.603-14.966,22.843-17.329c4.726-4.726,17.329-15.754,37.809-15.754
	c14.178,0,28.357,5.514,42.535,15.754c5.514,1.575,20.48,7.089,26.782,22.843c7.877,18.117,1.575,42.535-18.117,73.255
	C301.686,115.791,299.323,117.366,296.96,117.366z M251.274,18.117c-17.329,0-26.782,11.815-26.782,11.815
	c-0.788,1.575-3.151,2.363-4.726,3.151c-7.089,1.575-11.815,4.726-14.178,10.24c-5.514,11.028-2.363,28.357,1.575,42.535
	c3.938-15.754,3.938-25.994,3.938-25.994c0-2.363,0.788-5.514,3.151-7.089c2.363-1.575,4.726-1.575,7.089-0.788
	c13.391,5.514,25.206,8.665,35.446,8.665c11.028,0,18.117-3.151,25.994-7.089c3.938-1.575,7.877-3.151,11.815-4.726
	c2.363-0.788,5.514,0,7.877,1.575c2.363,1.575,3.151,4.726,2.363,7.089c-1.575,8.665-2.363,17.329-2.363,25.206
	c7.089-14.966,8.665-27.569,4.726-37.022c-4.726-11.028-17.329-14.178-17.329-14.178c-0.788,0-2.363-0.788-3.151-1.575
	C274.117,22.843,262.302,18.117,251.274,18.117z"/>
<path style="fill:#FFFFFF;" d="M358.4,230.794l-3.938-17.329c-3.938-18.117-18.117-33.083-37.022-37.022l-25.206-5.514
	c-11.028,8.665-25.206,13.391-40.172,13.391s-29.145-4.726-40.172-13.391l-25.206,5.514c-18.117,3.938-33.083,18.117-37.022,37.022
	l-3.938,17.329H358.4z"/>
<path style="fill:#183651;" d="M358.4,238.671H145.723c-2.363,0-4.726-0.788-6.302-3.151c-1.575-1.575-2.363-3.938-1.575-6.302
	l3.938-17.329c4.726-21.268,21.268-37.809,42.535-42.535l25.206-5.514c2.363-0.788,4.726,0,6.302,1.575
	c10.24,7.877,22.843,11.815,35.446,11.815c13.391,0,25.206-3.938,35.446-11.815c1.575-1.575,3.938-1.575,6.302-1.575l25.206,5.514
	c21.268,4.726,37.809,21.268,42.535,42.535l3.938,17.329c0.788,2.363,0,4.726-1.575,6.302
	C363.126,237.095,360.763,238.671,358.4,238.671z M155.963,222.917h192.985l-1.575-7.877c-3.151-14.966-15.754-27.569-30.72-30.72
	l-21.268-4.726c-12.603,8.665-26.782,13.391-42.535,13.391c-14.966,0-29.932-4.726-42.535-13.391l-21.268,4.726
	c-14.966,3.151-27.569,15.754-30.72,30.72L155.963,222.917z"/>
<polygon style="fill:#FFFFFF;" points="444.258,230.794 59.865,230.794 91.372,329.255 412.751,329.255 "/>
<path style="fill:#183651;" d="M412.751,337.132H91.372c-3.151,0-6.302-2.363-7.089-5.514l-31.508-99.249
	c-0.788-2.363,0-4.726,0.788-7.089c1.575-2.363,3.938-3.151,6.302-3.151h384.394c2.363,0,4.726,1.575,6.302,3.151
	c1.575,2.363,1.575,4.726,0.788,7.089l-31.508,99.249C419.84,334.769,416.689,337.132,412.751,337.132z M96.886,321.378h310.351
	l25.994-83.495H70.892L96.886,321.378z"/>
<polygon style="fill:#E1E6E7;" points="114.215,298.535 102.4,261.514 401.723,261.514 389.908,298.535 "/>
<rect x="170.929" y="329.255" style="fill:#FFFFFF;" width="161.477" height="147.298"/>
<path style="fill:#183651;" d="M333.194,484.431H170.929c-3.938,0-7.877-3.151-7.877-7.877V329.255c0-3.938,3.151-7.877,7.877-7.877
	h161.477c3.938,0,7.877,3.151,7.877,7.877v147.298C341.071,481.28,337.132,484.431,333.194,484.431z M178.806,468.677h146.511
	V337.132H178.806V468.677z"/>
<rect x="202.437" y="360.763" style="fill:#E1E6E7;" width="99.249" height="85.071"/>
<g>
	<rect x="196.923" y="272.542" style="fill:#183651;" width="15.754" height="15.754"/>
	<rect x="244.185" y="272.542" style="fill:#183651;" width="15.754" height="15.754"/>
	<rect x="291.446" y="272.542" style="fill:#183651;" width="15.754" height="15.754"/>
</g>
<g>
</g>
<g>
</g>
<g>
</g>
<g>
</g>
<g>
</g>
<g>
</g>
<g>
</g>
<g>
</g>
<g>
</g>
<g>
</g>
<g>
</g>
<g>
</g>
<g>
</g>
<g>
</g>
<g>
</g>
</svg>
