<?xml version="1.0" encoding="iso-8859-1"?>
<!-- Generator: Adobe Illustrator 19.0.0, SVG Export Plug-In . SVG Version: 6.00 Build 0)  -->
<svg version="1.1" id="Capa_1" xmlns="http://www.w3.org/2000/svg" xmlns:xlink="http://www.w3.org/1999/xlink" x="0px" y="0px"
	 viewBox="0 0 504.123 504.123" style="enable-background:new 0 0 504.123 504.123;" xml:space="preserve">
<circle style="fill:#F06151;" cx="252.062" cy="251.274" r="251.274"/>
<g>
	<rect x="0.788" y="135.483" style="fill:#183651;" width="15.754" height="13.391"/>
	
		<rect x="10.989" y="97.568" transform="matrix(-0.8661 -0.4999 0.4999 -0.8661 -16.9155 203.9957)" style="fill:#183651;" width="15.754" height="13.391"/>
	
		<rect x="38.559" y="69.922" transform="matrix(-0.5001 -0.866 0.866 -0.5001 3.313 155.1467)" style="fill:#183651;" width="15.753" height="13.39"/>
	
		<rect x="40.07" y="199.4" transform="matrix(-0.866 -0.5001 0.5001 -0.866 -16.3931 410.1603)" style="fill:#183651;" width="13.391" height="15.754"/>
	
		<rect x="12.386" y="171.835" transform="matrix(-0.5001 -0.866 0.866 -0.5001 -127.0021 286.1082)" style="fill:#183651;" width="13.391" height="15.754"/>
</g>
<path style="fill:#FFFFFF;" d="M346.585,98.462c24.418,0,43.323,19.692,43.323,43.323c0,24.418-19.692,43.323-43.323,43.323h-66.954
	V98.462H346.585z"/>
<path style="fill:#183651;" d="M346.585,192.985h-66.954c-3.938,0-7.877-3.151-7.877-7.877V98.462c0-3.938,3.151-7.877,7.877-7.877
	h66.954c28.357,0,51.2,22.843,51.2,51.2S374.942,192.985,346.585,192.985z M287.508,177.231h59.865
	c19.692,0,35.446-15.754,35.446-35.446s-16.542-35.446-36.234-35.446h-59.077V177.231z"/>
<polygon style="fill:#FFFFFF;" points="84.283,275.692 279.631,185.108 279.631,98.462 84.283,7.877 "/>
<path style="fill:#183651;" d="M80.345,281.994c-2.363-1.575-3.938-3.938-3.938-6.302V7.877c0-2.363,1.575-5.514,3.938-6.302
	C82.708,0,85.071,0,88.222,0.788l194.56,90.585c3.151,1.575,4.726,3.938,4.726,7.089v86.646c0,3.151-1.575,5.514-4.726,7.089
	l-194.56,90.585C85.858,283.569,82.708,283.569,80.345,281.994z M92.16,20.48v243.397l179.594-83.495v-77.194L92.16,20.48z"/>
<polygon style="fill:#2CA0DA;" points="250.486,166.991 250.486,116.578 113.428,53.563 113.428,230.006 "/>
<path style="fill:#E1E6E7;" d="M293.022,185.108L266.24,285.145c-3.938,14.966,7.089,29.932,22.843,29.932
	c10.24,0,19.692-7.089,22.843-17.329l29.932-112.64H293.022z"/>
<path style="fill:#183651;" d="M288.295,322.954c-10.24,0-18.905-4.726-25.206-12.603s-7.877-18.117-5.514-27.569l26.782-100.037
	c0.788-3.151,3.938-5.514,7.877-5.514h48.837c2.363,0,4.726,0.788,6.302,3.151c1.575,1.575,2.363,4.726,1.575,7.089l-29.932,111.852
	C315.077,313.502,302.474,322.954,288.295,322.954z M298.535,192.985l-25.206,94.523c-1.575,4.726,0,9.452,2.363,13.391
	c3.151,3.938,7.877,6.302,12.603,6.302c7.089,0,13.391-4.726,14.966-11.815l27.569-102.4H298.535z"/>
<path style="fill:#FFFFFF;" d="M84.283,92.16v99.249c-26.782,0-48.837-22.055-48.837-49.625S57.502,92.16,84.283,92.16z"/>
<path style="fill:#183651;" d="M84.283,199.286c-31.508,0-57.502-25.994-57.502-57.502s25.994-57.502,57.502-57.502
	c3.938,0,7.877,3.151,7.877,7.877v99.249C92.16,195.348,89.009,199.286,84.283,199.286z M77.194,100.825
	c-19.692,3.938-33.871,20.48-33.871,40.96s14.178,37.022,33.871,40.96V100.825z"/>
<rect x="299.323" y="115.003" style="fill:#183651;" width="46.474" height="12.603"/>
<rect x="299.323" y="135.483" style="fill:#183651;" width="46.474" height="12.603"/>
<g>
	<rect x="299.323" y="155.963" style="fill:#183651;" width="46.474" height="12.603"/>
	<rect x="487.582" y="316.652" style="fill:#183651;" width="15.754" height="13.391"/>
	
		<rect x="478.013" y="277.703" transform="matrix(-0.5 -0.866 0.866 -0.5 479.7495 848.1398)" style="fill:#183651;" width="13.39" height="15.753"/>
	
		<rect x="450.492" y="250.319" transform="matrix(-0.866 -0.5 0.5 -0.866 724.0185 710.3972)" style="fill:#183651;" width="13.39" height="15.753"/>
	
		<rect x="449.45" y="382.034" transform="matrix(-0.4999 -0.8661 0.8661 -0.4999 349.267 979.138)" style="fill:#183651;" width="15.754" height="13.391"/>
	
		<rect x="477.227" y="354.521" transform="matrix(-0.8661 -0.4999 0.4999 -0.8661 724.6767 916.5608)" style="fill:#183651;" width="15.754" height="13.391"/>
</g>
<path style="fill:#FFFFFF;" d="M157.538,279.631c-24.418,0-43.323,19.692-43.323,43.323c0,24.418,19.692,43.323,43.323,43.323
	h66.954v-86.646H157.538z"/>
<path style="fill:#183651;" d="M224.492,374.941h-66.954c-28.357,0-51.2-22.843-51.2-51.2s22.843-51.2,51.2-51.2h66.954
	c3.938,0,7.877,3.151,7.877,7.877v86.646C232.369,371.003,229.218,374.941,224.492,374.941z M157.538,287.508
	c-19.692,0-35.446,15.754-35.446,35.446c0,19.692,15.754,35.446,35.446,35.446h59.077v-70.892H157.538z"/>
<polygon style="fill:#FFFFFF;" points="419.84,456.862 224.492,367.065 224.492,279.631 419.84,189.834 "/>
<path style="fill:#183651;" d="M415.902,463.951l-194.56-89.797c-3.151-1.575-4.726-3.938-4.726-7.089v-87.434
	c0-3.151,1.575-5.514,4.726-7.089l194.56-90.585c2.363-0.788,5.514-0.788,7.877,0.788c2.363,1.575,3.938,3.938,3.938,6.302v267.815
	c0,2.363-1.575,5.514-3.938,6.302C421.415,464.738,418.265,465.526,415.902,463.951z M232.369,361.551l179.594,83.495V201.649
	l-179.594,83.495V361.551z"/>
<polygon style="fill:#FBBD5E;" points="253.637,348.16 253.637,298.535 390.695,234.732 390.695,411.963 "/>
<path style="fill:#E1E6E7;" d="M238.671,466.314l-26.782-100.037h-48.837l29.932,112.64c3.151,10.24,11.815,17.329,22.843,17.329
	C231.582,496.246,242.609,481.28,238.671,466.314z"/>
<path style="fill:#183651;" d="M215.828,504.123c-14.178,0-26.782-9.452-29.932-22.843l-30.72-111.852
	c-0.788-2.363,0-4.726,1.575-7.089c1.575-1.575,3.938-3.151,6.302-3.151h48.837c3.151,0,6.302,2.363,7.877,5.514l26.782,100.037
	C251.274,484.431,236.308,504.123,215.828,504.123z M172.505,374.941l28.357,101.612c1.575,7.089,7.877,11.815,14.966,11.815
	c10.24,0,18.117-10.24,14.966-19.692l-25.206-93.735H172.505z"/>
<path style="fill:#FFFFFF;" d="M419.84,274.117v99.249c27.569,0,49.625-22.055,49.625-49.625
	C468.677,296.172,446.622,274.117,419.84,274.117z"/>
<path style="fill:#183651;" d="M419.84,380.455c-3.938,0-7.877-3.151-7.877-7.877v-98.462c0-3.938,3.151-7.877,7.877-7.877
	c31.508,0,57.502,25.994,57.502,57.502S451.348,380.455,419.84,380.455z M426.929,282.782v81.92
	c18.905-3.938,33.871-20.48,33.871-40.96S446.622,285.932,426.929,282.782z"/>
<rect x="158.326" y="296.96" style="fill:#183651;" width="46.474" height="12.603"/>
<rect x="158.326" y="316.652" style="fill:#183651;" width="46.474" height="12.603"/>
<g>
	<rect x="158.326" y="337.132" style="fill:#183651;" width="46.474" height="12.603"/>
	<rect x="359.188" y="278.055" style="fill:#183651;" width="15.754" height="15.754"/>
	<rect x="359.188" y="314.289" style="fill:#183651;" width="15.754" height="15.754"/>
	<rect x="359.188" y="349.735" style="fill:#183651;" width="15.754" height="15.754"/>
	<rect x="129.182" y="97.674" style="fill:#183651;" width="15.754" height="15.754"/>
	<rect x="129.182" y="133.908" style="fill:#183651;" width="15.754" height="15.754"/>
	<rect x="129.182" y="170.142" style="fill:#183651;" width="15.754" height="15.754"/>
</g>
<g>
</g>
<g>
</g>
<g>
</g>
<g>
</g>
<g>
</g>
<g>
</g>
<g>
</g>
<g>
</g>
<g>
</g>
<g>
</g>
<g>
</g>
<g>
</g>
<g>
</g>
<g>
</g>
<g>
</g>
</svg>
