<?xml version="1.0" encoding="iso-8859-1"?>
<!-- Generator: Adobe Illustrator 19.0.0, SVG Export Plug-In . SVG Version: 6.00 Build 0)  -->
<svg version="1.1" id="Capa_1" xmlns="http://www.w3.org/2000/svg" xmlns:xlink="http://www.w3.org/1999/xlink" x="0px" y="0px"
	 viewBox="0 0 504.123 504.123" style="enable-background:new 0 0 504.123 504.123;" xml:space="preserve">
<circle style="fill:#FBBD5E;" cx="178.806" cy="223.705" r="178.806"/>
<circle style="fill:#E0E4E8;" cx="178.806" cy="223.705" r="148.086"/>
<path style="fill:#183651;" d="M178.806,379.668c-85.858,0-155.963-70.105-155.963-155.963S92.948,66.954,178.806,66.954
	s155.963,70.105,155.963,156.751S264.665,379.668,178.806,379.668z M178.806,82.708c-77.194,0-140.209,63.015-140.209,140.209
	s63.015,140.209,140.209,140.209s140.209-63.015,140.209-140.209S256,82.708,178.806,82.708z"/>
<g>
	<path style="fill:#FFFFFF;" d="M178.806,348.16c-68.529,0-124.455-55.926-124.455-124.455S110.277,99.249,178.806,99.249
		c68.529-0.788,124.455,55.138,124.455,124.455S247.335,348.16,178.806,348.16z"/>
	<path style="fill:#FFFFFF;" d="M206.375,44.898v33.083c-8.665-1.575-18.117-2.363-27.569-2.363c-9.452,0-18.117,0.788-27.569,2.363
		V44.898H206.375z"/>
</g>
<path style="fill:#183651;" d="M214.252,87.434l-9.452-1.575c-15.754-3.151-33.871-3.151-51.988,0l-9.452,1.575V37.022h70.105
	v50.412H214.252z M159.114,52.775v15.754c13.391-1.575,25.994-1.575,38.597,0V52.775H159.114z"/>
<rect x="133.908" y="7.877" style="fill:#FFFFFF;" width="90.585" height="37.022"/>
<path style="fill:#183651;" d="M231.582,52.775H126.031V0h106.338v52.775H231.582z M141.785,37.022h74.831V15.754h-74.831V37.022z"
	/>
<rect x="122.31" y="301.094" transform="matrix(-0.8661 -0.4999 0.4999 -0.8661 88.8818 640.1769)" style="fill:#183651;" width="15.754" height="14.179"/>
<rect x="220.082" y="130.724" transform="matrix(-0.8661 -0.4999 0.4999 -0.8661 356.4999 371.1273)" style="fill:#183651;" width="15.754" height="14.179"/>
<rect x="170.929" y="314.289" style="fill:#183651;" width="15.754" height="14.178"/>
<rect x="170.929" y="118.154" style="fill:#183651;" width="15.754" height="14.178"/>
<rect x="220.34" y="300.539" transform="matrix(-0.4999 -0.8661 0.8661 -0.4999 74.0047 659.5647)" style="fill:#183651;" width="14.179" height="15.754"/>
<rect x="122.186" y="130.192" transform="matrix(-0.4999 -0.8661 0.8661 -0.4999 74.3193 319.0522)" style="fill:#183651;" width="14.179" height="15.754"/>
<rect x="86.773" y="166.225" transform="matrix(-0.866 -0.5001 0.5001 -0.866 88.079 371.8101)" style="fill:#183651;" width="14.179" height="15.754"/>
<rect x="269.391" y="215.828" style="fill:#183651;" width="14.178" height="15.754"/>
<rect x="73.255" y="215.828" style="fill:#183651;" width="14.178" height="15.754"/>
<rect x="256.716" y="264.709" transform="matrix(-0.8661 -0.4999 0.4999 -0.8661 356.0197 640.5446)" style="fill:#183651;" width="14.179" height="15.754"/>
<rect x="256.163" y="167.189" transform="matrix(-0.4999 -0.8661 0.8661 -0.4999 245.0921 490.0803)" style="fill:#183651;" width="15.754" height="14.179"/>
<rect x="85.824" y="265.39" transform="matrix(-0.4999 -0.8661 0.8661 -0.4999 -95.4495 489.8434)" style="fill:#183651;" width="15.754" height="14.179"/>
<g>
	<path style="fill:#CECFD0;" d="M178.806,148.874c-4.726,0-7.877,3.151-7.877,7.877V204.8h15.754v-48.049
		C186.683,152.812,182.745,148.874,178.806,148.874z"/>
	<path style="fill:#CECFD0;" d="M229.218,215.828h-32.295v15.754h32.295c4.726,0,7.877-3.151,7.877-7.877
		C237.095,218.978,233.945,215.828,229.218,215.828z"/>
</g>
<circle style="fill:#F06151;" cx="178.806" cy="223.705" r="22.843"/>
<rect y="488.369" style="fill:#183651;" width="72.468" height="15.754"/>
<rect x="46.474" y="448.985" style="fill:#183651;" width="72.468" height="15.754"/>
<rect x="128.394" y="488.369" style="fill:#183651;" width="72.468" height="15.754"/>
<rect x="174.868" y="448.985" style="fill:#183651;" width="72.468" height="15.754"/>
<rect x="256.788" y="488.369" style="fill:#183651;" width="72.468" height="15.754"/>
<rect x="303.262" y="448.985" style="fill:#183651;" width="72.468" height="15.754"/>
<rect x="385.182" y="488.369" style="fill:#183651;" width="72.468" height="15.754"/>
<rect x="431.655" y="448.985" style="fill:#183651;" width="72.468" height="15.754"/>
<ellipse style="fill:#4FBF9F;" cx="383.606" cy="382.818" rx="58.289" ry="30.72"/>
<path style="fill:#183651;" d="M383.606,421.415c-37.022,0-66.166-17.329-66.166-38.597c0-22.055,29.145-38.597,66.166-38.597
	s66.166,17.329,66.166,38.597C449.772,404.874,420.628,421.415,383.606,421.415z M383.606,359.188
	c-28.357,0-50.412,11.815-50.412,22.843s21.268,22.843,50.412,22.843s50.412-11.815,50.412-22.843S411.963,359.188,383.606,359.188z
	"/>
<path style="fill:#183651;" d="M383.606,382.818c-4.726,0-7.877-3.151-7.877-7.877V189.046c0-4.726,3.151-7.877,7.877-7.877
	c4.726,0,7.877,3.151,7.877,7.877v185.895C391.483,378.88,388.332,382.818,383.606,382.818z"/>
<polygon style="fill:#F06151;" points="495.458,261.514 383.606,261.514 383.606,189.046 495.458,189.046 464.738,224.492 "/>
<path style="fill:#183651;" d="M496.246,269.391L496.246,269.391h-112.64c-4.726,0-7.877-3.151-7.877-7.877v-73.255
	c0-4.726,3.151-7.877,7.877-7.877h111.852c3.151,0,6.302,1.575,7.089,4.726c1.575,3.151,0.788,6.302-1.575,8.665l-25.994,30.72
	L500.972,256c1.575,1.575,3.151,3.938,3.151,6.302C504.123,266.24,500.185,269.391,496.246,269.391z M391.483,253.637h87.434
	l-20.48-24.418c-2.363-3.151-2.363-7.089,0-10.24l19.692-22.843h-86.646L391.483,253.637L391.483,253.637z"/>
<g>
</g>
<g>
</g>
<g>
</g>
<g>
</g>
<g>
</g>
<g>
</g>
<g>
</g>
<g>
</g>
<g>
</g>
<g>
</g>
<g>
</g>
<g>
</g>
<g>
</g>
<g>
</g>
<g>
</g>
</svg>
