<?xml version="1.0" encoding="iso-8859-1"?>
<!-- Generator: Adobe Illustrator 19.0.0, SVG Export Plug-In . SVG Version: 6.00 Build 0)  -->
<svg version="1.1" id="Capa_1" xmlns="http://www.w3.org/2000/svg" xmlns:xlink="http://www.w3.org/1999/xlink" x="0px" y="0px"
	 viewBox="0 0 504.123 504.123" style="enable-background:new 0 0 504.123 504.123;" xml:space="preserve">
<path style="fill:#FFFFFF;" d="M464.738,7.877H39.385c-17.329,0-31.508,14.178-31.508,31.508v332.406
	c0,17.329,14.178,31.508,31.508,31.508h425.354c17.329,0,31.508-14.178,31.508-31.508V39.385
	C496.246,22.055,482.068,7.877,464.738,7.877z"/>
<path style="fill:#183651;" d="M464.738,411.175H39.385C17.329,411.175,0,393.846,0,371.791V39.385C0,17.329,17.329,0,39.385,0
	h425.354c22.055,0,39.385,17.329,39.385,39.385v332.406C504.123,393.846,486.794,411.175,464.738,411.175z M39.385,15.754
	c-13.391,0-23.631,10.24-23.631,23.631v332.406c0,13.391,10.24,23.631,23.631,23.631h425.354c13.391,0,23.631-10.24,23.631-23.631
	V39.385c0-13.391-10.24-23.631-23.631-23.631H39.385z"/>
<rect x="47.262" y="47.262" style="fill:#2CA0DA;" width="409.6" height="282.782"/>
<polygon style="fill:#CFD0D1;" points="345.009,463.163 159.114,463.163 181.957,403.298 322.166,403.298 "/>
<path style="fill:#183651;" d="M345.009,471.04L345.009,471.04H159.114c-2.363,0-4.726-1.575-6.302-3.151
	c-1.575-2.363-1.575-4.726-0.788-7.089l22.843-59.865c0.788-3.151,3.938-4.726,7.089-4.726h140.209c3.151,0,6.302,2.363,7.089,4.726
	l22.055,58.289c0.788,1.575,1.575,2.363,1.575,3.938C352.886,467.889,348.948,471.04,345.009,471.04z M170.929,455.286h162.265
	l-16.542-44.111H187.471L170.929,455.286z"/>
<rect x="120.517" y="463.163" style="fill:#E1E6E7;" width="262.302" height="33.083"/>
<path style="fill:#183651;" d="M383.606,504.123H120.517c-4.726,0-7.877-3.151-7.877-7.877v-33.083c0-4.726,3.151-7.877,7.877-7.877
	h262.302c4.726,0,7.877,3.151,7.877,7.877v33.083C391.483,500.972,387.545,504.123,383.606,504.123z M128.394,488.369h246.548
	V471.04H128.394V488.369z"/>
<g>
	<circle style="fill:#CFD0D1;" cx="314.289" cy="363.126" r="17.329"/>
	<circle style="fill:#CFD0D1;" cx="252.062" cy="363.126" r="17.329"/>
	<circle style="fill:#CFD0D1;" cx="189.834" cy="363.126" r="17.329"/>
</g>
<rect x="201.649" y="74.043" style="fill:#FFFFFF;" width="100.825" height="229.218"/>
<g>
	<polygon style="fill:#E1E6E7;" points="302.474,97.674 355.249,97.674 355.249,106.338 302.474,149.662 	"/>
	<polygon style="fill:#E1E6E7;" points="302.474,169.354 355.249,169.354 355.249,178.806 302.474,222.129 	"/>
	<polygon style="fill:#E1E6E7;" points="302.474,241.822 355.249,241.822 355.249,250.486 302.474,293.809 	"/>
	<polygon style="fill:#E1E6E7;" points="201.649,97.674 148.874,97.674 148.874,106.338 201.649,149.662 	"/>
	<polygon style="fill:#E1E6E7;" points="201.649,169.354 148.874,169.354 148.874,178.806 201.649,222.129 	"/>
	<polygon style="fill:#E1E6E7;" points="201.649,241.822 148.874,241.822 148.874,250.486 201.649,293.809 	"/>
</g>
<circle style="fill:#F06151;" cx="252.062" cy="114.215" r="25.206"/>
<circle style="fill:#FBBD5E;" cx="252.062" cy="188.258" r="25.206"/>
<circle style="fill:#4FBF9F;" cx="252.062" cy="263.089" r="25.206"/>
<g>
	<path style="fill:#FFFFFF;" d="M252.062,102.4c6.302,0,11.028,4.726,11.028,11.028c0,1.575,1.575,2.363,2.363,2.363
		c0.788,0,2.363-0.788,2.363-2.363c0-9.452-7.089-16.542-16.542-16.542c-1.575,0-2.363,0.788-2.363,2.363
		C248.911,100.825,250.486,102.4,252.062,102.4z"/>
	<path style="fill:#FFFFFF;" d="M252.062,171.717c-1.575,0-2.363,1.575-2.363,2.363c0,0.788,0.788,2.363,2.363,2.363
		c6.302,0,11.028,4.726,11.028,11.028c0,1.575,1.575,2.363,2.363,2.363c0.788,0,2.363-0.788,2.363-2.363
		C268.603,179.594,261.514,171.717,252.062,171.717z"/>
	<path style="fill:#FFFFFF;" d="M252.062,246.548c-1.575,0-2.363,1.575-2.363,2.363c0,1.575,0.788,2.363,2.363,2.363
		c6.302,0,11.028,4.726,11.028,11.028c0,1.575,1.575,2.363,2.363,2.363c0.788,0,2.363-1.575,2.363-2.363
		C268.603,254.425,261.514,246.548,252.062,246.548z"/>
</g>
<g>
	<rect x="401.723" y="115.003" style="fill:#183651;" width="15.754" height="15.754"/>
	<rect x="401.723" y="180.382" style="fill:#183651;" width="15.754" height="15.754"/>
	<rect x="401.723" y="246.548" style="fill:#183651;" width="15.754" height="15.754"/>
	<rect x="86.646" y="115.003" style="fill:#183651;" width="15.754" height="15.754"/>
	<rect x="86.646" y="180.382" style="fill:#183651;" width="15.754" height="15.754"/>
	<rect x="86.646" y="246.548" style="fill:#183651;" width="15.754" height="15.754"/>
</g>
<g>
</g>
<g>
</g>
<g>
</g>
<g>
</g>
<g>
</g>
<g>
</g>
<g>
</g>
<g>
</g>
<g>
</g>
<g>
</g>
<g>
</g>
<g>
</g>
<g>
</g>
<g>
</g>
<g>
</g>
</svg>
