<?xml version="1.0" encoding="iso-8859-1"?>
<!-- Generator: Adobe Illustrator 19.0.0, SVG Export Plug-In . SVG Version: 6.00 Build 0)  -->
<svg version="1.1" id="Capa_1" xmlns="http://www.w3.org/2000/svg" xmlns:xlink="http://www.w3.org/1999/xlink" x="0px" y="0px"
	 viewBox="0 0 504.123 504.123" style="enable-background:new 0 0 504.123 504.123;" xml:space="preserve">
<circle style="fill:#F06151;" cx="252.471" cy="251.274" r="251.274"/>
<path style="fill:#FBBD5E;" d="M116.988,330.043c-39.385,26.782-66.166,72.468-66.166,122.88l0,0
	c51.2-0.788,96.098-26.782,122.88-66.166L116.988,330.043z"/>
<path style="fill:#2EA0DA;" d="M287.13,460.012c-15.754,15.754-33.871,27.569-52.775,36.234
	c27.569-63.015,15.754-138.634-36.234-190.622c-51.2-51.2-127.606-63.803-190.622-36.234c8.665-18.905,20.48-37.022,36.234-52.775
	c66.954-66.954,176.443-66.954,243.397,0C354.084,284.357,354.084,393.058,287.13,460.012z"/>
<path style="fill:#183651;" d="M234.354,504.123c-2.363,0-3.938-0.788-5.514-2.363c-2.363-2.363-3.151-5.514-1.575-8.665
	c26.782-62.228,13.391-133.908-34.658-181.957c-30.72-30.72-72.468-48.049-115.791-48.049c-22.843,0-44.898,4.726-65.378,13.391
	c-3.151,1.575-6.302,0.788-8.665-1.575s-3.151-5.514-1.575-8.665c8.665-20.48,21.268-39.385,37.809-55.138
	c33.871-33.871,79.557-52.775,127.606-52.775s92.948,18.905,126.818,52.775s52.775,79.557,52.775,127.606
	s-18.905,92.948-52.775,127.606c-15.754,16.542-34.658,29.145-55.138,37.809C235.93,504.123,235.142,504.123,234.354,504.123z
	 M76.028,247.335c48.049,0,92.948,18.905,126.818,52.775c48.049,48.049,64.591,116.578,44.898,180.382
	c11.815-7.089,22.843-15.754,33.083-25.206c30.72-30.72,48.049-72.468,48.049-115.791c0-44.111-17.329-85.071-48.049-116.578
	c-30.72-30.72-72.468-48.049-115.791-48.049c-44.111,0-85.071,17.329-116.578,48.049c-10.24,10.24-18.905,21.268-25.206,33.083
	C40.582,250.486,57.911,247.335,76.028,247.335z"/>
<path style="fill:#2EA0DA;" d="M472.238,31.508L472.238,31.508c-54.351,0-97.674,3.151-144.148,23.631l120.517,120.517
	C468.299,129.182,472.238,85.858,472.238,31.508z"/>
<path style="fill:#183651;" d="M448.607,183.532c-2.363,0-3.938-0.788-5.514-2.363L322.576,60.652
	c-1.575-1.575-2.363-4.726-2.363-7.089c0.788-2.363,2.363-4.726,4.726-5.514c46.474-20.48,89.009-24.418,147.298-24.418
	c4.726,0,7.877,3.151,7.877,7.877c0,57.502-3.938,100.825-24.418,147.298c-0.788,2.363-3.151,3.938-5.514,4.726
	C449.394,183.532,448.607,183.532,448.607,183.532z M341.481,58.289l103.975,103.975c14.966-37.809,18.117-74.831,18.905-122.092
	C417.099,40.172,380.078,43.323,341.481,58.289z"/>
<path style="fill:#E0E4E8;" d="M183.154,396.209C292.644,358.4,410.01,263.877,448.607,175.655L328.09,55.138
	c-88.222,38.597-181.957,155.963-220.554,265.452L183.154,396.209z"/>
<path style="fill:#183651;" d="M183.154,404.086c-2.363,0-3.938-0.788-5.514-2.363l-75.618-75.618
	c-2.363-2.363-3.151-5.514-1.575-7.877C140.619,202.437,237.505,85.858,324.939,48.049c3.151-1.575,6.302-0.788,8.665,1.575
	l120.517,120.517c2.363,2.363,3.151,5.514,1.575,8.665c-37.809,87.434-154.388,184.32-270.178,224.492
	C184.73,404.086,183.942,404.086,183.154,404.086z M116.988,319.015l68.529,68.529c108.702-39.385,215.828-127.606,254.425-209.526
	L326.514,64.591C244.594,103.188,155.585,210.314,116.988,319.015z"/>
<path style="fill:#183651;" d="M472.238,39.385c-2.363,0-3.938-0.788-5.514-2.363c-3.151-3.151-3.151-7.877,0-11.028l23.631-23.631
	c3.151-3.151,7.877-3.151,11.028,0s3.151,7.877,0,11.028l-23.631,23.631C476.176,38.597,473.813,39.385,472.238,39.385z"/>
<circle style="fill:#FFFFFF;" cx="328.878" cy="174.868" r="36.234"/>
<path style="fill:#183651;" d="M328.878,218.978c-11.815,0-22.843-4.726-30.72-12.603c-17.329-17.329-17.329-44.898,0-62.228
	c8.665-8.665,18.905-12.603,30.72-12.603c11.815,0,22.843,4.726,30.72,12.603c17.329,17.329,17.329,44.898,0,62.228
	C351.721,214.252,340.693,218.978,328.878,218.978z M328.878,146.511c-7.877,0-14.966,3.151-19.692,7.877
	c-11.028,11.028-11.028,29.145,0,40.172c11.028,10.24,29.145,10.24,40.172,0c11.028-11.028,11.028-29.145,0-40.172
	C343.056,149.662,335.967,146.511,328.878,146.511z"/>
<circle style="fill:#FFFFFF;" cx="255.622" cy="248.123" r="25.206"/>
<g>
	<path style="fill:#183651;" d="M255.622,281.206c-8.665,0-17.329-3.151-23.631-9.452c-13.391-13.391-13.391-33.871,0-47.262
		c6.302-6.302,14.966-9.452,23.631-9.452c8.665,0,17.329,3.151,23.631,9.452c6.302,6.302,9.452,14.966,9.452,23.631
		s-3.151,17.329-9.452,23.631C272.951,278.055,264.287,281.206,255.622,281.206z M255.622,230.006
		c-4.726,0-9.452,1.575-12.603,5.514c-7.089,7.089-7.089,18.117,0,25.206c6.302,6.302,18.117,6.302,25.206,0
		c3.151-3.151,5.514-7.877,5.514-12.603s-1.575-9.452-5.514-12.603C264.287,232.369,260.348,230.006,255.622,230.006z"/>
	
		<rect x="133.517" y="109.989" transform="matrix(-0.7071 -0.7071 0.7071 -0.7071 158.0301 301.1893)" style="fill:#183651;" width="15.754" height="15.754"/>
	
		<rect x="174.21" y="70.271" transform="matrix(-0.7071 -0.7071 0.7071 -0.7071 255.5824 262.1613)" style="fill:#183651;" width="15.754" height="15.754"/>
	
		<rect x="214.338" y="30.004" transform="matrix(-0.7071 -0.7071 0.7071 -0.7071 352.5587 221.7966)" style="fill:#183651;" width="15.754" height="15.754"/>
	
		<rect x="377.485" y="354.243" transform="matrix(-0.7072 -0.707 0.707 -0.7072 401.8714 890.6678)" style="fill:#183651;" width="15.754" height="15.754"/>
	
		<rect x="418.24" y="313.417" transform="matrix(-0.707 -0.7072 0.7072 -0.707 500.1635 849.803)" style="fill:#183651;" width="15.754" height="15.754"/>
	
		<rect x="458.353" y="273.142" transform="matrix(-0.707 -0.7072 0.7072 -0.707 597.1184 809.4221)" style="fill:#183651;" width="15.754" height="15.754"/>
</g>
<g>
</g>
<g>
</g>
<g>
</g>
<g>
</g>
<g>
</g>
<g>
</g>
<g>
</g>
<g>
</g>
<g>
</g>
<g>
</g>
<g>
</g>
<g>
</g>
<g>
</g>
<g>
</g>
<g>
</g>
</svg>
