<?xml version="1.0" encoding="iso-8859-1"?>
<!-- Generator: Adobe Illustrator 19.0.0, SVG Export Plug-In . SVG Version: 6.00 Build 0)  -->
<svg version="1.1" id="Capa_1" xmlns="http://www.w3.org/2000/svg" xmlns:xlink="http://www.w3.org/1999/xlink" x="0px" y="0px"
	 viewBox="0 0 504.123 504.123" style="enable-background:new 0 0 504.123 504.123;" xml:space="preserve">
<rect x="183.532" y="75.618" style="fill:#FBBD5E;" width="312.714" height="420.628"/>
<path style="fill:#183651;" d="M496.246,504.123H183.532c-4.726,0-7.877-3.151-7.877-7.877V75.618c0-4.726,3.151-7.877,7.877-7.877
	h312.714c4.726,0,7.877,3.151,7.877,7.877v420.628C504.123,500.972,500.972,504.123,496.246,504.123z M191.409,488.369h296.96
	V83.495h-296.96V488.369z"/>
<polygon style="fill:#FFFFFF;" points="210.314,469.465 210.314,102.4 469.465,102.4 469.465,390.695 397.785,469.465 "/>
<polygon style="fill:#E0E4E8;" points="469.465,390.695 397.785,469.465 397.785,390.695 "/>
<g>
	<rect x="255.212" y="181.957" style="fill:#183651;" width="168.566" height="15.754"/>
	<rect x="255.212" y="134.695" style="fill:#183651;" width="168.566" height="15.754"/>
	<rect x="255.212" y="229.218" style="fill:#183651;" width="168.566" height="15.754"/>
	<rect x="255.212" y="276.48" style="fill:#183651;" width="168.566" height="15.754"/>
	<rect x="411.175" y="323.742" style="fill:#183651;" width="13.391" height="15.754"/>
	<rect x="378.092" y="323.742" style="fill:#183651;" width="13.391" height="15.754"/>
	<rect x="345.797" y="323.742" style="fill:#183651;" width="13.391" height="15.754"/>
</g>
<path style="fill:#FFFFFF;" d="M163.84,194.56l25.994-27.569c35.446-37.809,55.138-84.283,55.138-132.332L24.418,35.446l0,0
	c0,48.049,18.905,93.735,55.138,132.332l25.994,27.569l-25.994,27.569C44.111,260.726,24.418,307.2,24.418,355.249h218.978l0,0
	c0-48.049-18.905-93.735-55.138-132.332L163.84,194.56z"/>
<path style="fill:#183651;" d="M244.185,362.338H24.418c-4.726,0-7.877-3.151-7.877-7.877c0-49.625,20.48-98.462,57.502-137.846
	l20.48-22.055l-20.48-22.055C37.022,133.908,16.542,85.071,16.542,35.446c0-4.726,3.151-7.877,7.877-7.877h218.978
	c2.363,0,3.938,0.788,5.514,2.363c1.575,1.575,2.363,3.151,2.363,5.514c0,49.625-20.48,98.462-56.714,137.058l-20.48,22.055
	l20.48,22.055c37.022,39.385,56.714,88.222,56.714,137.058C252.062,358.4,248.123,362.338,244.185,362.338z M33.083,346.585h203.225
	c-2.363-42.535-20.48-84.283-52.775-118.942l-25.994-27.569c-3.151-3.151-3.151-7.877,0-11.028l25.994-27.569
	c32.295-33.871,50.412-76.406,52.775-118.942H33.083c2.363,42.535,20.48,84.283,52.775,118.942l25.994,27.569
	c3.151,3.151,3.151,7.877,0,11.028l-25.994,27.569C53.563,261.514,34.658,303.262,33.083,346.585z"/>
<rect x="7.877" y="354.462" style="fill:#FFFFFF;" width="252.849" height="27.569"/>
<path style="fill:#183651;" d="M260.726,389.908H7.877c-4.726,0-7.877-3.151-7.877-7.877v-27.569c0-4.726,3.151-7.877,7.877-7.877
	h252.849c4.726,0,7.877,3.151,7.877,7.877v27.569C268.603,385.969,265.452,389.908,260.726,389.908z M15.754,374.154h237.095
	v-11.815H15.754V374.154z"/>
<rect x="7.877" y="7.877" style="fill:#FFFFFF;" width="252.849" height="27.569"/>
<path style="fill:#183651;" d="M260.726,43.323H7.877C3.151,43.323,0,40.172,0,35.446V7.877C0,3.151,3.151,0,7.877,0h252.849
	c4.726,0,7.877,3.151,7.877,7.877v27.569C268.603,39.385,265.452,43.323,260.726,43.323z M15.754,27.569h237.095V15.754H15.754
	V27.569z"/>
<g>
	<path style="fill:#E1E6E7;" d="M70.105,282.782c-7.089,14.178-12.603,29.145-14.966,44.111h159.114
		c-3.151-14.966-7.877-29.932-15.754-44.111H70.105z"/>
	<path style="fill:#E1E6E7;" d="M134.695,185.895l34.658-37.022c14.178-14.966,25.206-32.295,33.083-49.625L66.166,98.462
		c7.877,18.117,18.905,34.658,33.083,49.625L134.695,185.895z"/>
	<circle style="fill:#E1E6E7;" cx="134.695" cy="222.917" r="7.089"/>
	<circle style="fill:#E1E6E7;" cx="134.695" cy="256" r="7.877"/>
</g>
<g>
</g>
<g>
</g>
<g>
</g>
<g>
</g>
<g>
</g>
<g>
</g>
<g>
</g>
<g>
</g>
<g>
</g>
<g>
</g>
<g>
</g>
<g>
</g>
<g>
</g>
<g>
</g>
<g>
</g>
</svg>
