<?xml version="1.0" encoding="iso-8859-1"?>
<!-- Generator: Adobe Illustrator 19.0.0, SVG Export Plug-In . SVG Version: 6.00 Build 0)  -->
<svg version="1.1" id="Capa_1" xmlns="http://www.w3.org/2000/svg" xmlns:xlink="http://www.w3.org/1999/xlink" x="0px" y="0px"
	 viewBox="0 0 504.32 504.32" style="enable-background:new 0 0 504.32 504.32;" xml:space="preserve">
<path style="fill:#FFFFFF;" d="M311.138,266.437l40.96,10.24l11.028-29.932c10.24,0,20.48-1.575,30.72-4.726l19.692,24.418
	l36.234-22.055l-13.391-29.145c7.089-7.089,13.391-15.754,18.117-25.206l31.508,3.938l10.24-40.96l-29.145-11.028
	c0-10.24-1.575-20.48-4.726-30.72l24.418-19.692l-22.055-36.234l-28.357,13.391c-7.089-7.089-15.754-13.391-25.206-18.117
	l3.938-31.508l-40.96-8.665l-11.028,29.932c-10.24,0-20.48,1.575-30.72,4.726l-19.692-25.206L276.48,41.945l13.391,29.145
	c-7.089,7.089-13.391,15.754-18.117,25.206l-31.508-3.938l-10.24,40.96l29.145,11.028c0,10.24,1.575,20.48,4.726,30.72
	l-24.418,19.692l22.055,36.234l28.357-13.391c7.089,7.089,15.754,13.391,25.206,18.117L311.138,266.437z"/>
<path style="fill:#183651;" d="M352.098,284.554c-0.788,0-1.575,0-1.575,0l-40.96-10.24c-3.938-0.788-6.302-4.726-6.302-8.665
	l3.151-25.994c-6.302-3.938-12.603-7.877-18.117-13.391l-23.631,11.028c-3.938,1.575-7.877,0-10.24-3.151l-22.055-36.234
	c-2.363-3.151-1.575-7.877,1.575-10.24l20.48-16.542c-1.575-7.089-3.151-14.966-3.151-22.055l-24.418-9.452
	c-3.938-1.575-5.514-5.514-4.726-9.452l10.24-40.96c0.788-3.938,4.726-6.302,8.665-5.514l25.994,3.151
	c3.938-6.302,7.877-12.603,13.391-18.117l-11.028-23.631c-1.575-3.938,0-7.877,3.151-10.24L308.775,12.8
	c3.151-2.363,7.877-1.575,10.24,1.575l15.754,21.268c7.089-1.575,14.966-3.151,22.055-3.151l9.452-25.206
	c1.575-3.938,5.514-5.514,9.452-4.726l40.96,10.24c3.938,0.788,6.302,4.726,6.302,8.665l-3.151,25.994
	c6.302,3.938,12.603,7.877,18.117,13.391l23.631-11.028c3.938-1.575,7.877,0,10.24,3.151l22.055,36.234
	c2.363,3.151,1.575,7.877-1.575,10.24l-20.48,16.542c1.575,7.089,3.151,14.966,3.151,22.055l24.418,9.452
	c3.938,1.575,5.514,5.514,4.726,9.452l-10.24,40.96c-0.788,3.938-4.726,6.302-8.665,5.514l-25.994-3.151
	c-3.938,6.302-7.877,12.603-13.391,18.117l11.028,23.631c1.575,3.938,0,7.877-3.151,10.24l-36.234,22.055
	c-3.151,2.363-7.877,1.575-10.24-1.575l-16.542-20.48c-7.089,1.575-14.966,3.151-22.055,3.151l-9.452,24.418
	C358.4,282.191,355.249,284.554,352.098,284.554z M319.803,260.923l27.569,7.089l8.665-22.843c0.788-3.151,3.938-4.726,7.089-4.726
	c9.452,0,18.905-1.575,28.357-4.726c3.151-0.788,6.302,0,8.665,2.363l14.966,19.692l24.418-14.966l-10.24-22.843
	c-1.575-3.151-0.788-6.302,1.575-8.665c7.089-7.089,12.603-14.178,16.542-22.843c1.575-3.151,4.726-4.726,7.877-3.938l24.418,3.151
	l7.089-27.569l-22.843-8.665c-3.151-0.788-4.726-3.938-4.726-7.089c0-9.452-1.575-18.905-4.726-28.357
	c-0.788-3.151,0-6.302,2.363-8.665l19.692-16.542l-14.966-24.418l-22.055,10.24c-3.151,1.575-6.302,0.788-8.665-1.575
	c-7.089-7.089-14.178-12.603-22.843-16.542c-3.151-1.575-4.726-4.726-3.938-7.877l3.151-24.418l-27.569-7.089l-8.665,22.843
	c-0.788,3.151-3.938,4.726-7.089,4.726c-9.452,0-18.905,1.575-28.357,4.726c-3.151,0.788-6.302,0-8.665-2.363l-15.754-18.905
	L286.72,45.095l10.24,22.055c1.575,3.151,0.788,6.302-1.575,8.665c-7.089,7.089-12.603,14.178-16.542,22.843
	c-1.575,3.151-4.726,4.726-7.877,3.938l-24.418-3.151l-7.089,27.569l22.843,8.665c3.151,0.788,4.726,3.938,4.726,7.089
	c0,9.452,1.575,18.905,4.726,28.357c0.788,3.151,0,6.302-2.363,8.665l-19.692,14.966l14.966,24.418l22.055-10.24
	c3.151-1.575,6.302-0.788,8.665,1.575c7.089,7.089,14.178,12.603,22.843,16.542c3.151,1.575,4.726,4.726,3.938,7.877
	L319.803,260.923z"/>
<circle style="fill:#F06151;" cx="363.126" cy="143.557" r="76.406"/>
<circle style="fill:#FFFFFF;" cx="363.126" cy="143.557" r="37.022"/>
<path style="fill:#183651;" d="M363.126,188.455c-3.938,0-7.089-0.788-11.028-1.575c-11.815-3.151-21.268-10.24-27.569-20.48
	c-6.302-10.24-7.877-22.055-5.514-33.871c4.726-20.48,22.843-34.658,43.323-34.658c3.938,0,7.089,0.788,11.028,1.575
	c11.815,3.151,21.268,10.24,27.569,20.48s7.877,22.055,5.514,33.871C401.723,174.277,383.606,188.455,363.126,188.455z
	 M363.126,113.625c-13.391,0-25.206,9.452-28.357,22.055c-1.575,7.877-0.788,15.754,3.151,22.055
	c3.938,7.089,10.24,11.028,18.117,13.391c2.363,0.788,4.726,0.788,7.089,0.788c13.391,0,25.206-9.452,28.357-22.055
	c1.575-7.877,0.788-15.754-3.151-22.055c-3.938-7.089-10.24-11.028-18.117-13.391C367.852,114.412,365.489,113.625,363.126,113.625z
	"/>
<path style="fill:#FFFFFF;" d="M331.618,486.991l29.932,7.089l7.877-22.055c7.877,0,14.966-1.575,22.055-3.151l14.178,18.117
	l26.782-16.542l-9.452-21.268c5.514-5.514,9.452-11.815,13.391-18.117l22.843,2.363l7.089-29.932l-22.055-7.877
	c0-7.877-1.575-14.966-3.151-22.055l18.117-14.178l-16.542-26.782l-21.268,9.452c-5.514-5.514-11.815-9.452-18.117-13.391
	l2.363-22.843l-29.932-7.089l-7.877,22.055c-7.877,0-14.966,1.575-22.055,3.151l-14.178-18.117l-26.782,16.542l9.452,21.268
	c-5.514,5.514-9.452,11.815-13.391,18.117l-22.843-2.363l-6.302,29.145l22.055,7.877c0,7.877,1.575,14.966,3.151,22.055
	l-18.117,14.178l16.542,26.782l21.268-9.452c5.514,5.514,11.815,9.452,18.117,13.391L331.618,486.991z"/>
<path style="fill:#183651;" d="M361.551,501.957c-0.788,0-1.575,0-1.575,0l-29.932-7.089c-3.938-0.788-6.302-4.726-6.302-8.665
	l2.363-18.117c-3.938-2.363-7.877-5.514-11.815-8.665l-16.542,7.089c-3.938,1.575-7.877,0-10.24-3.151l-15.754-25.994
	c-2.363-3.151-1.575-7.877,1.575-10.24l14.178-11.028c-0.788-4.726-1.575-9.452-2.363-14.178l-16.542-6.302
	c-3.938-1.575-5.514-5.514-4.726-9.452l7.089-29.932c0.788-3.938,4.726-6.302,8.665-6.302l18.117,2.363
	c2.363-3.938,5.514-7.877,8.665-11.815l-7.089-16.542c-1.575-3.938,0-7.877,3.151-10.24l26.782-16.542
	c3.151-2.363,7.877-1.575,10.24,1.575l11.028,14.178c4.726-0.788,9.452-1.575,14.178-2.363l6.302-16.542
	c1.575-3.938,5.514-5.514,9.452-4.726l29.932,7.089c3.938,0.788,6.302,4.726,6.302,8.665l-3.151,19.692
	c3.938,2.363,7.877,5.514,11.815,8.665l16.542-7.089c3.938-1.575,7.877,0,10.24,3.151l16.542,26.782
	c2.363,3.151,1.575,7.877-1.575,10.24l-14.178,11.028c0.788,4.726,1.575,9.452,2.363,14.178l16.542,6.302
	c3.938,1.575,5.514,5.514,4.726,9.452l-7.089,29.932c-0.788,3.938-4.726,6.302-8.665,5.514l-18.117-2.363
	c-2.363,3.938-5.514,7.877-8.665,11.815l7.089,16.542c1.575,3.938,0,7.877-3.151,10.24l-26.782,16.542
	c-3.151,2.363-7.877,1.575-10.24-1.575l-11.028-15.754c-4.726,0.788-9.452,1.575-14.178,2.363l-6.302,16.542
	C367.852,500.382,364.702,501.957,361.551,501.957z M340.283,480.689l16.542,3.938l5.514-14.966
	c0.788-3.151,3.938-4.726,7.089-4.726c7.089,0,13.391-0.788,20.48-3.151c3.151-0.788,6.302,0,8.665,2.363l10.24,12.603l14.966-8.665
	l-7.089-14.966c-1.575-3.151-0.788-6.302,1.575-8.665c4.726-4.726,8.665-10.24,11.815-16.542c1.575-3.151,4.726-4.726,7.877-3.938
	l16.542,1.575l3.938-16.542l-14.966-5.514c-3.151-0.788-4.726-3.938-4.726-7.089c0-7.089-0.788-13.391-3.151-20.48
	c-0.788-3.151,0-6.302,2.363-8.665l12.603-10.24l-8.665-14.179l-14.966,7.089c-3.151,1.575-6.302,0.788-8.665-1.575
	c-4.726-4.726-10.24-8.665-16.542-11.815c-3.151-1.575-4.726-4.726-3.938-7.877l1.575-16.542l-16.542-3.938l-5.514,14.966
	c-0.788,3.151-3.938,4.726-7.089,4.726c-7.089,0-13.391,0.788-20.48,3.151c-3.151,0.788-6.302,0-8.665-2.363l-10.24-12.603
	l-14.966,8.665l7.089,14.966c1.575,3.151,0.788,6.302-1.575,8.665c-4.726,4.726-8.665,10.24-11.815,16.542
	c-1.575,3.151-4.726,4.726-7.877,3.938l-16.542-2.363l-3.938,16.542l14.966,5.514c3.151,0.788,4.726,3.938,4.726,7.089
	c0,7.089,0.788,13.391,3.151,20.48c0.788,3.151,0,6.302-2.363,8.665l-12.603,10.24l8.665,14.966l14.966-7.089
	c3.151-1.575,6.302-0.788,8.665,1.575c4.726,4.726,10.24,8.665,16.542,11.815c3.151,1.575,4.726,4.726,3.938,7.877L340.283,480.689z
	"/>
<circle style="fill:#FBBD5E;" cx="369.428" cy="396.406" r="55.926"/>
<circle style="fill:#FFFFFF;" cx="369.428" cy="396.406" r="27.569"/>
<path style="fill:#183651;" d="M369.428,431.852c-3.151,0-5.514,0-8.665-0.788c-18.905-4.726-30.72-23.631-25.994-42.535
	c3.938-15.754,18.117-26.782,33.871-26.782c3.151,0,5.514,0,8.665,0.788c18.905,4.726,30.72,23.631,25.994,42.535
	C400.148,420.825,385.969,431.852,369.428,431.852z M369.428,376.714c-8.665,0-16.542,6.302-18.905,14.966
	c-2.363,10.24,3.938,21.268,14.178,23.631s21.268-3.938,23.631-14.178s-3.938-21.268-14.178-23.631
	C372.578,376.714,371.003,376.714,369.428,376.714z"/>
<path style="fill:#FFFFFF;" d="M157.538,104.96c0,0-4.726,63.015-65.378,49.625c0,0-28.357-4.726-32.295-38.597l-3.151-9.452
	l-7.089-36.234L81.92,47.458l51.988-14.178l25.206,18.117v38.597L157.538,104.96z"/>
<path style="fill:#183651;" d="M107.914,164.037c-5.514,0-11.815-0.788-18.117-2.363c-11.028-1.575-34.658-13.391-37.809-44.111
	l-2.363-8.665l-7.877-37.022c-0.788-3.151,0.788-6.302,3.151-7.877l32.295-22.843c0.788-0.788,1.575-0.788,2.363-0.788
	l51.988-14.178c2.363-0.788,4.726,0,6.302,1.575l25.206,18.117c2.363,1.575,3.151,3.938,3.151,6.302v38.597v0.788l-1.575,14.966
	C163.84,126.228,149.662,164.037,107.914,164.037z M58.289,73.452l6.302,31.508l2.363,9.452c0,0.788,0,0.788,0,1.575
	c2.363,27.569,25.206,31.508,25.206,31.508c5.514,1.575,11.028,1.575,14.966,1.575c37.809,0,40.96-42.535,41.748-44.111
	l1.575-14.966V55.335l-18.905-13.391L84.283,54.548L58.289,73.452z"/>
<path style="fill:#E1E6E7;" d="M56.714,106.535c0,0,2.363-9.452-8.665-15.754c0,0-20.48-54.351,28.357-70.105
	c0,0-3.938-3.938-2.363-10.24c0,0,7.089,4.726,42.535,2.363c0,0,22.843,2.363,29.932,21.268c0,0,35.446,0,19.692,55.926
	c0,0-8.665,4.726-7.877,15.754c0,0,7.877-48.837-22.843-41.748c0,0-27.569,13.391-47.262-5.514
	C87.434,57.698,51.2,44.308,56.714,106.535z"/>
<path style="fill:#183651;" d="M56.714,114.412L56.714,114.412c-4.726,0-7.089-3.151-7.877-7.089c0-1.575,0-3.938-0.788-5.514
	c-0.788-1.575-2.363-3.151-4.726-3.938c-1.575-0.788-3.151-2.363-3.151-3.938c-0.788-0.788-11.028-29.145,0.788-53.563
	c4.726-11.028,13.391-18.905,25.206-24.418c0-1.575,0-3.938,0-7.089c0.788-2.363,2.363-4.726,4.726-5.514
	c2.363-0.788,5.514-0.788,7.089,0.788c0,0,4.726,1.575,22.055,1.575c4.726,0,9.452,0,14.966-0.788h0.788
	c0.788,0,24.418,2.363,34.658,21.268c5.514,1.575,13.391,4.726,18.905,11.815c8.665,11.815,9.452,29.932,3.151,53.563
	c-0.788,1.575-1.575,3.938-3.938,4.726l0,0c0,0-2.363,1.575-3.938,4.726c0,3.151-0.788,5.514-0.788,5.514
	c-0.788,3.938-3.938,7.089-7.877,6.302c-3.938,0-7.089-3.151-7.089-7.089c0-2.363,0-4.726,0.788-7.089
	c0.788-11.815-0.788-21.268-4.726-25.206c-1.575-2.363-4.726-2.363-8.665-1.575c-3.151,1.575-12.603,4.726-23.631,4.726
	s-21.268-3.938-29.932-11.028c-0.788,0-2.363-0.788-3.938-0.788c-3.938,0-6.302,0.788-8.665,3.938
	c-3.151,3.151-6.302,11.028-5.514,29.932c1.575,4.726,0.788,8.665,0,9.452C63.803,112.049,60.652,114.412,56.714,114.412z
	 M84.283,19.889c0,0.788,0,1.575,0,2.363c-0.788,2.363-2.363,4.726-4.726,5.514c-11.815,3.938-19.692,10.24-23.631,18.905
	c-3.938,7.877-3.938,16.542-3.938,23.631c1.575-5.514,4.726-10.24,7.877-13.391c4.726-5.514,11.815-7.877,19.692-7.877
	c5.514,0,10.24,1.575,11.028,1.575c0.788,0,1.575,0.788,2.363,1.575c5.514,5.514,11.815,7.877,20.48,7.877
	c9.452,0,18.117-3.938,18.117-3.938c0.788,0,0.788-0.788,1.575-0.788c9.452-2.363,18.117,0,24.418,6.302
	c1.575,2.363,3.151,4.726,4.726,7.089c0.788-9.452-0.788-16.542-3.938-21.268c-5.514-5.514-12.603-6.302-12.603-6.302
	c-3.151,0-6.302-2.363-7.089-5.514c-4.726-12.603-19.692-14.966-22.843-15.754C101.612,21.465,91.372,20.677,84.283,19.889z"/>
<path style="fill:#FFFFFF;" d="M170.929,156.948c-13.391,17.329-33.871,30.72-63.015,30.72c-7.089,0-14.966-0.788-23.631-2.363
	c-11.815-2.363-30.72-10.24-43.323-27.569c-18.905,3.938-33.871,20.48-33.871,40.96v139.422H204.8V198.695
	C205.588,177.428,190.622,160.886,170.929,156.948z"/>
<path style="fill:#183651;" d="M205.588,345.994H7.877c-3.938,0-7.877-3.151-7.877-7.877V198.695
	c0-23.631,16.542-44.111,40.172-48.837c3.151-0.788,6.302,0.788,7.877,3.151c11.028,14.966,26.782,22.055,38.597,24.418
	c34.658,7.877,60.652-1.575,78.769-25.206c1.575-2.363,4.726-3.151,7.877-3.151c23.631,3.938,40.96,25.206,40.96,48.837v139.422
	C213.465,342.843,209.526,345.994,205.588,345.994z M15.754,330.24h181.957V198.695c0-14.966-9.452-28.357-23.631-32.295
	c-22.055,25.206-53.563,34.658-90.585,26.782c-12.603-2.363-30.72-10.24-44.898-26.782c-13.391,4.726-22.843,17.329-22.843,32.295
	C15.754,198.695,15.754,330.24,15.754,330.24z"/>
<path style="fill:#4FBF9F;" d="M39.385,306.609V197.908c16.542,11.815,33.083,16.542,39.385,17.329
	c10.24,2.363,19.692,3.151,29.932,3.151c24.418,0,47.262-7.089,66.166-21.268v0.788v108.702H39.385z"/>
<rect x="43.323" y="338.117" style="fill:#FFFFFF;" width="126.031" height="155.963"/>
<path style="fill:#183651;" d="M169.354,501.957H43.323c-3.938,0-7.877-3.151-7.877-7.877V338.117c0-3.938,3.151-7.877,7.877-7.877
	h126.031c3.938,0,7.877,3.151,7.877,7.877V494.08C177.231,498.806,174.08,501.957,169.354,501.957z M51.2,486.203h110.277V345.994
	H51.2V486.203z"/>
<rect x="74.831" y="345.994" style="fill:#4FBF9F;" width="63.803" height="140.209"/>
<g>
	<path style="fill:#183651;" d="M106.338,501.957c-3.938,0-7.877-3.151-7.877-7.877V379.077c0-3.938,3.151-7.877,7.877-7.877
		c3.938,0,7.877,3.151,7.877,7.877v115.791C114.215,498.806,111.065,501.957,106.338,501.957z"/>
	<rect x="56.714" y="259.348" style="fill:#183651;" width="15.754" height="17.329"/>
	<rect x="98.462" y="259.348" style="fill:#183651;" width="15.754" height="17.329"/>
	<rect x="140.997" y="259.348" style="fill:#183651;" width="15.754" height="17.329"/>
</g>
<g>
</g>
<g>
</g>
<g>
</g>
<g>
</g>
<g>
</g>
<g>
</g>
<g>
</g>
<g>
</g>
<g>
</g>
<g>
</g>
<g>
</g>
<g>
</g>
<g>
</g>
<g>
</g>
<g>
</g>
</svg>
