<?xml version="1.0" encoding="iso-8859-1"?>
<!-- Generator: Adobe Illustrator 19.0.0, SVG Export Plug-In . SVG Version: 6.00 Build 0)  -->
<svg version="1.1" id="Capa_1" xmlns="http://www.w3.org/2000/svg" xmlns:xlink="http://www.w3.org/1999/xlink" x="0px" y="0px"
	 viewBox="0 0 504.123 504.123" style="enable-background:new 0 0 504.123 504.123;" xml:space="preserve">
<circle style="fill:#E0E4E8;" cx="252.062" cy="252.062" r="248.911"/>
<path id="SVGCleanerId_1" style="fill:#183651;" d="M92.16,452.135c-2.363-1.575-3.938-3.151-6.302-5.514l10.24-11.815
	c1.575,1.575,3.938,3.151,5.514,4.726L92.16,452.135z"/>
<path id="SVGCleanerId_2" style="fill:#183651;" d="M197.711,497.034c-4.726-0.788-9.452-1.575-14.178-2.363l3.151-14.966
	c4.726,0.788,8.665,1.575,13.391,2.363L197.711,497.034z M169.354,492.308c-4.726-1.575-9.452-2.363-14.178-3.938l4.726-14.966
	c3.938,1.575,8.665,3.151,12.603,3.938L169.354,492.308z M141.785,482.068c-4.726-1.575-8.665-3.938-13.391-6.302l7.089-14.178
	c3.938,2.363,7.877,3.938,11.815,5.514L141.785,482.068z M115.791,468.677c-3.938-2.363-7.877-5.514-11.815-7.877l9.452-12.603
	c3.938,2.363,7.089,4.726,11.028,7.089L115.791,468.677z"/>
<path id="SVGCleanerId_3" style="fill:#183651;" d="M220.554,498.609c-2.363,0-5.514,0-7.877,0l0.788-15.754
	c2.363,0,4.726,0,7.089,0V498.609z"/>
<path id="SVGCleanerId_4" style="fill:#183651;" d="M85.858,446.622c-41.748-37.809-65.378-92.16-65.378-148.086h15.754
	c0,51.988,22.055,101.612,60.652,136.271L85.858,446.622z"/>
<polygon style="fill:#183651;" points="12.603,332.406 0,322.954 26.782,287.508 62.228,314.289 52.775,326.892 29.932,309.563 "/>
<path id="SVGCleanerId_6" style="fill:#183651;" d="M408.025,69.317c-2.363-2.363-3.938-3.938-6.302-5.514l10.24-11.815
	c2.363,1.575,3.938,3.151,6.302,5.514L408.025,69.317z"/>
<path id="SVGCleanerId_7" style="fill:#183651;" d="M391.483,55.926c-3.938-2.363-7.089-4.726-11.028-7.089l7.877-13.391
	c3.938,2.363,7.877,5.514,11.815,7.877L391.483,55.926z M368.64,41.748c-3.938-2.363-7.877-3.938-11.815-5.514l6.302-14.178
	c4.726,1.575,8.665,3.938,13.391,6.302L368.64,41.748z M344.222,31.508c-3.938-1.575-8.665-3.151-12.603-3.938l3.151-15.754
	c4.726,1.575,9.452,2.363,14.178,3.938L344.222,31.508z M318.228,24.418c-4.726-0.788-8.665-1.575-13.391-2.363l1.575-15.754
	c4.726,0.788,9.452,1.575,14.178,2.363L318.228,24.418z"/>
<path id="SVGCleanerId_8" style="fill:#183651;" d="M291.446,21.268c-2.363,0-4.726,0-7.089,0V5.514c2.363,0,5.514,0,7.877,0
	L291.446,21.268z"/>
<path id="SVGCleanerId_9" style="fill:#183651;" d="M483.643,205.588h-15.754c0-51.988-22.055-101.612-60.652-136.271l10.24-11.815
	C460.012,95.311,483.643,149.662,483.643,205.588z"/>
<polygon style="fill:#183651;" points="477.342,216.615 441.895,189.834 451.348,177.231 474.191,194.56 491.52,171.717 
	504.123,181.169 "/>
<g>
	<path id="SVGCleanerId_1_1_" style="fill:#183651;" d="M92.16,452.135c-2.363-1.575-3.938-3.151-6.302-5.514l10.24-11.815
		c1.575,1.575,3.938,3.151,5.514,4.726L92.16,452.135z"/>
</g>
<g>
	<path id="SVGCleanerId_2_1_" style="fill:#183651;" d="M197.711,497.034c-4.726-0.788-9.452-1.575-14.178-2.363l3.151-14.966
		c4.726,0.788,8.665,1.575,13.391,2.363L197.711,497.034z M169.354,492.308c-4.726-1.575-9.452-2.363-14.178-3.938l4.726-14.966
		c3.938,1.575,8.665,3.151,12.603,3.938L169.354,492.308z M141.785,482.068c-4.726-1.575-8.665-3.938-13.391-6.302l7.089-14.178
		c3.938,2.363,7.877,3.938,11.815,5.514L141.785,482.068z M115.791,468.677c-3.938-2.363-7.877-5.514-11.815-7.877l9.452-12.603
		c3.938,2.363,7.089,4.726,11.028,7.089L115.791,468.677z"/>
</g>
<g>
	<path id="SVGCleanerId_3_1_" style="fill:#183651;" d="M220.554,498.609c-2.363,0-5.514,0-7.877,0l0.788-15.754
		c2.363,0,4.726,0,7.089,0V498.609z"/>
</g>
<g>
	<path id="SVGCleanerId_4_1_" style="fill:#183651;" d="M85.858,446.622c-41.748-37.809-65.378-92.16-65.378-148.086h15.754
		c0,51.988,22.055,101.612,60.652,136.271L85.858,446.622z"/>
</g>
<polygon style="fill:#183651;" points="12.603,332.406 0,322.954 26.782,287.508 62.228,314.289 52.775,326.892 29.932,309.563 "/>
<g>
	<path id="SVGCleanerId_6_1_" style="fill:#183651;" d="M408.025,69.317c-2.363-2.363-3.938-3.938-6.302-5.514l10.24-11.815
		c2.363,1.575,3.938,3.151,6.302,5.514L408.025,69.317z"/>
</g>
<g>
	<path id="SVGCleanerId_7_1_" style="fill:#183651;" d="M391.483,55.926c-3.938-2.363-7.089-4.726-11.028-7.089l7.877-13.391
		c3.938,2.363,7.877,5.514,11.815,7.877L391.483,55.926z M368.64,41.748c-3.938-2.363-7.877-3.938-11.815-5.514l6.302-14.178
		c4.726,1.575,8.665,3.938,13.391,6.302L368.64,41.748z M344.222,31.508c-3.938-1.575-8.665-3.151-12.603-3.938l3.151-15.754
		c4.726,1.575,9.452,2.363,14.178,3.938L344.222,31.508z M318.228,24.418c-4.726-0.788-8.665-1.575-13.391-2.363l1.575-15.754
		c4.726,0.788,9.452,1.575,14.178,2.363L318.228,24.418z"/>
</g>
<g>
	<path id="SVGCleanerId_8_1_" style="fill:#183651;" d="M291.446,21.268c-2.363,0-4.726,0-7.089,0V5.514c2.363,0,5.514,0,7.877,0
		L291.446,21.268z"/>
</g>
<g>
	<path id="SVGCleanerId_9_1_" style="fill:#183651;" d="M483.643,205.588h-15.754c0-51.988-22.055-101.612-60.652-136.271
		l10.24-11.815C460.012,95.311,483.643,149.662,483.643,205.588z"/>
</g>
<polygon style="fill:#183651;" points="477.342,216.615 441.895,189.834 451.348,177.231 474.191,194.56 491.52,171.717 
	504.123,181.169 "/>
<path id="SVGCleanerId_11" style="fill:#183651;" d="M63.803,102.4L51.988,92.16c1.575-2.363,3.151-3.938,5.514-6.302l11.815,10.24
	C66.954,98.462,65.378,100.037,63.803,102.4z"/>
<path id="SVGCleanerId_12" style="fill:#183651;" d="M22.055,199.286l-15.754-1.575c0.788-4.726,1.575-9.452,2.363-14.178
	l14.966,3.151C23.631,190.622,22.843,195.348,22.055,199.286z M27.569,173.292l-15.754-3.938c1.575-4.726,2.363-9.452,3.938-14.178
	l14.966,4.726C29.932,164.628,28.357,168.566,27.569,173.292z M36.234,147.298l-14.178-6.302c1.575-4.726,3.938-8.665,6.302-13.391
	l14.178,7.089C39.385,139.422,37.809,143.36,36.234,147.298z M48.049,123.668l-13.391-7.877c2.363-3.938,5.514-7.877,7.877-11.815
	l12.603,9.452C53.563,116.578,50.412,119.729,48.049,123.668z"/>
<path id="SVGCleanerId_13" style="fill:#183651;" d="M21.268,220.554H5.514c0-2.363,0-5.514,0-7.877l15.754,0.788
	C21.268,215.04,21.268,218.191,21.268,220.554z"/>
<path id="SVGCleanerId_14" style="fill:#183651;" d="M69.317,96.098l-11.815-10.24c37.809-41.748,92.16-65.378,148.086-65.378
	v15.754C153.6,36.234,103.975,58.289,69.317,96.098z"/>
<polygon style="fill:#183651;" points="189.834,62.228 177.231,52.775 194.56,29.932 171.717,12.603 181.169,0 216.615,26.782 "/>
<path id="SVGCleanerId_16" style="fill:#183651;" d="M446.622,418.265l-11.815-10.24c1.575-1.575,3.151-3.938,4.726-5.514
	l11.815,10.24C450.56,414.326,448.197,415.902,446.622,418.265z"/>
<path id="SVGCleanerId_17" style="fill:#183651;" d="M460.8,400.935l-12.603-9.452c2.363-3.938,4.726-7.089,7.089-11.028
	l13.391,7.877C466.314,392.271,463.951,396.997,460.8,400.935z M476.554,375.729l-14.178-7.089
	c2.363-3.938,3.938-7.877,5.514-11.815l14.178,6.302C480.492,367.065,478.129,371.791,476.554,375.729z M487.582,348.948
	l-14.966-4.726c1.575-3.938,3.151-8.665,3.938-12.603l15.754,3.151C490.732,339.495,489.157,344.222,487.582,348.948z
	 M495.458,320.591l-14.966-3.151c0.788-4.726,1.575-8.665,2.363-13.391l15.754,1.575
	C497.034,311.138,496.246,315.865,495.458,320.591z"/>
<path id="SVGCleanerId_18" style="fill:#183651;" d="M498.609,291.446l-15.754-0.788c0-2.363,0-4.726,0-7.089h15.754
	C498.609,286.72,498.609,289.083,498.609,291.446z"/>
<path id="SVGCleanerId_19" style="fill:#183651;" d="M298.535,483.643v-15.754c51.988,0,101.612-22.055,136.271-60.652l11.815,10.24
	C408.812,460.012,354.462,483.643,298.535,483.643z"/>
<polygon style="fill:#183651;" points="322.954,504.123 287.508,477.342 314.289,441.895 326.892,451.348 309.563,474.191 
	332.406,491.52 "/>
<g>
	<path id="SVGCleanerId_11_1_" style="fill:#183651;" d="M63.803,102.4L51.988,92.16c1.575-2.363,3.151-3.938,5.514-6.302
		l11.815,10.24C66.954,98.462,65.378,100.037,63.803,102.4z"/>
</g>
<g>
	<path id="SVGCleanerId_12_1_" style="fill:#183651;" d="M22.055,199.286l-15.754-1.575c0.788-4.726,1.575-9.452,2.363-14.178
		l14.966,3.151C23.631,190.622,22.843,195.348,22.055,199.286z M27.569,173.292l-15.754-3.938c1.575-4.726,2.363-9.452,3.938-14.178
		l14.966,4.726C29.932,164.628,28.357,168.566,27.569,173.292z M36.234,147.298l-14.178-6.302c1.575-4.726,3.938-8.665,6.302-13.391
		l14.178,7.089C39.385,139.422,37.809,143.36,36.234,147.298z M48.049,123.668l-13.391-7.877c2.363-3.938,5.514-7.877,7.877-11.815
		l12.603,9.452C53.563,116.578,50.412,119.729,48.049,123.668z"/>
</g>
<g>
	<path id="SVGCleanerId_13_1_" style="fill:#183651;" d="M21.268,220.554H5.514c0-2.363,0-5.514,0-7.877l15.754,0.788
		C21.268,215.04,21.268,218.191,21.268,220.554z"/>
</g>
<g>
	<path id="SVGCleanerId_14_1_" style="fill:#183651;" d="M69.317,96.098l-11.815-10.24c37.809-41.748,92.16-65.378,148.086-65.378
		v15.754C153.6,36.234,103.975,58.289,69.317,96.098z"/>
</g>
<polygon style="fill:#183651;" points="189.834,62.228 177.231,52.775 194.56,29.932 171.717,12.603 181.169,0 216.615,26.782 "/>
<g>
	<path id="SVGCleanerId_16_1_" style="fill:#183651;" d="M446.622,418.265l-11.815-10.24c1.575-1.575,3.151-3.938,4.726-5.514
		l11.815,10.24C450.56,414.326,448.197,415.902,446.622,418.265z"/>
</g>
<g>
	<path id="SVGCleanerId_17_1_" style="fill:#183651;" d="M460.8,400.935l-12.603-9.452c2.363-3.938,4.726-7.089,7.089-11.028
		l13.391,7.877C466.314,392.271,463.951,396.997,460.8,400.935z M476.554,375.729l-14.178-7.089
		c2.363-3.938,3.938-7.877,5.514-11.815l14.178,6.302C480.492,367.065,478.129,371.791,476.554,375.729z M487.582,348.948
		l-14.966-4.726c1.575-3.938,3.151-8.665,3.938-12.603l15.754,3.151C490.732,339.495,489.157,344.222,487.582,348.948z
		 M495.458,320.591l-14.966-3.151c0.788-4.726,1.575-8.665,2.363-13.391l15.754,1.575
		C497.034,311.138,496.246,315.865,495.458,320.591z"/>
</g>
<g>
	<path id="SVGCleanerId_18_1_" style="fill:#183651;" d="M498.609,291.446l-15.754-0.788c0-2.363,0-4.726,0-7.089h15.754
		C498.609,286.72,498.609,289.083,498.609,291.446z"/>
</g>
<g>
	<path id="SVGCleanerId_19_1_" style="fill:#183651;" d="M298.535,483.643v-15.754c51.988,0,101.612-22.055,136.271-60.652
		l11.815,10.24C408.812,460.012,354.462,483.643,298.535,483.643z"/>
</g>
<polygon style="fill:#183651;" points="322.954,504.123 287.508,477.342 314.289,441.895 326.892,451.348 309.563,474.191 
	332.406,491.52 "/>
<path style="fill:#FFFFFF;" d="M293.022,207.163l-5.514-34.658l-25.994,0.788c-3.151-7.877-7.877-14.966-13.391-22.055
	l12.603-22.843l-28.357-20.48l-18.117,18.905c-7.877-3.151-15.754-5.514-24.418-6.302l-7.089-25.206l-34.658,5.514l0.788,25.994
	c-7.877,3.151-14.966,7.877-22.055,13.391l-22.843-12.603l-20.48,28.357L102.4,174.08c-3.151,7.877-5.514,15.754-6.302,24.418
	l-25.206,7.089l5.514,34.658l25.994-0.788c3.151,7.877,7.877,14.966,13.391,22.055l-12.603,22.843l28.357,20.48l18.117-18.905
	c7.877,3.151,15.754,5.514,24.418,6.302l7.089,25.206l35.446-6.302l-0.788-25.994c7.877-3.151,14.966-7.877,22.055-13.391
	l22.843,12.603L281.206,256l-18.905-18.117c3.151-7.877,5.514-15.754,6.302-24.418L293.022,207.163z"/>
<path style="fill:#183651;" d="M181.957,324.529c-3.151,0-6.302-2.363-7.089-5.514l-5.514-19.692
	c-5.514-0.788-11.028-2.363-16.542-3.938l-14.178,14.966c-2.363,3.151-7.089,3.151-10.24,0.788l-28.357-20.48
	c-3.151-2.363-3.938-6.302-2.363-10.24l10.24-18.117c-3.151-4.726-6.302-9.452-8.665-14.178l-20.48,0.788
	c-3.938,0-7.089-2.363-7.877-6.302l-5.514-34.658c-0.788-3.938,1.575-7.877,5.514-8.665l19.692-5.514
	c0.788-5.514,2.363-11.028,3.938-16.542l-14.966-14.178c-3.151-2.363-3.151-7.089-0.788-10.24l20.48-28.357
	c2.363-3.151,6.302-3.938,10.24-2.363l18.117,10.24c4.726-3.151,9.452-6.302,14.178-8.665l-0.788-20.48
	c0-3.938,2.363-7.089,6.302-7.877l34.658-5.514c3.938-0.788,7.877,1.575,8.665,5.514l5.514,19.692
	c5.514,0.788,11.028,2.363,16.542,3.938l14.178-14.966c2.363-3.151,7.089-3.151,10.24-0.788l28.357,20.48
	c3.151,2.363,3.938,6.302,2.363,10.24l-10.24,18.117c3.151,4.726,6.302,9.452,8.665,14.178l20.48-0.788
	c3.938,0,7.089,2.363,7.877,6.302l5.514,34.658c0.788,3.938-1.575,7.877-5.514,8.665l-19.692,5.514
	c-0.788,5.514-2.363,11.028-3.938,16.542l14.966,14.178c3.151,2.363,3.151,7.089,0.788,10.24l-20.48,28.357
	c-2.363,3.151-6.302,3.938-10.24,2.363l-18.117-10.24c-4.726,3.151-9.452,6.302-14.178,8.665l0.788,20.48
	c0,3.938-2.363,7.089-6.302,7.877l-34.658,5.514C183.532,324.529,182.745,324.529,181.957,324.529z M150.449,278.055
	c0.788,0,2.363,0,3.151,0.788c7.089,3.151,14.966,4.726,22.843,5.514c3.151,0,6.302,2.363,7.089,5.514l5.514,18.117l21.268-3.151
	l-0.788-18.905c0-3.151,1.575-6.302,4.726-7.089c7.089-3.151,14.178-7.089,19.692-11.815c2.363-2.363,6.302-2.363,8.665-0.788
	l16.542,9.452l12.603-17.329l-14.178-13.391c-2.363-2.363-3.151-5.514-1.575-8.665c3.151-7.089,4.726-14.966,5.514-22.843
	c0-3.151,2.363-6.302,5.514-7.089l18.117-5.514l-3.151-21.268l-18.905,0.788c-3.151,0-6.302-1.575-7.089-4.726
	c-3.151-7.089-7.089-14.178-11.815-19.692c-2.363-2.363-2.363-6.302-0.788-8.665l9.452-16.542l-17.329-12.603l-13.391,14.178
	c-2.363,2.363-5.514,3.151-8.665,1.575c-7.089-3.151-14.966-4.726-22.843-5.514c-3.151,0-6.302-2.363-7.089-5.514l-6.301-18.117
	l-21.268,3.151l0.788,18.905c0,3.151-1.575,6.302-4.726,7.089c-7.089,3.151-13.391,7.089-19.692,11.815
	c-2.363,2.363-6.302,2.363-8.665,0.788l-16.542-9.452l-12.603,17.329l14.178,13.391c2.363,2.363,3.151,5.514,1.575,8.665
	c-3.151,7.089-4.726,14.966-5.514,22.843c0,3.151-2.363,6.302-5.514,7.089l-18.117,5.514l3.151,21.268l18.905-0.788
	c3.151,0,6.302,1.575,7.089,4.726c3.151,7.089,7.089,14.178,11.815,19.692c2.363,2.363,2.363,6.302,0.788,8.665l-8.665,16.542
	l17.329,12.603l13.391-14.178C146.511,278.843,148.086,278.055,150.449,278.055z"/>
<circle style="fill:#F06151;" cx="182.745" cy="206.375" r="60.652"/>
<circle style="fill:#FFFFFF;" cx="182.745" cy="206.375" r="21.268"/>
<path style="fill:#183651;" d="M182.745,235.52c-14.178,0-26.782-10.24-28.357-24.418c-1.575-7.877,0.788-14.966,5.514-21.268
	c4.726-6.302,11.028-10.24,18.905-11.815c16.542-2.363,30.72,8.665,33.083,24.418c1.575,7.877-0.788,14.966-5.514,21.268
	c-4.726,6.302-11.028,10.24-18.905,11.815C185.895,235.52,184.32,235.52,182.745,235.52z M182.745,192.985c-0.788,0-1.575,0-2.363,0
	c-3.938,0.788-6.302,2.363-8.665,5.514c-2.363,3.151-3.151,6.302-2.363,10.24c0.788,7.089,7.877,12.603,15.754,11.028
	c7.089-0.788,12.603-7.877,11.028-15.754C194.56,197.711,189.046,192.985,182.745,192.985z"/>
<path style="fill:#FFFFFF;" d="M428.505,290.658l-14.178-19.692l-15.754,8.665c-4.726-3.938-9.452-7.089-14.966-9.452l0.788-18.117
	l-24.418-3.938l-5.514,17.329c-5.514,0.788-11.815,1.575-17.329,3.938L324.529,256l-19.692,14.178l8.665,15.754
	c-3.938,4.726-7.089,9.452-9.452,14.966l-18.117-0.788l-3.938,24.418l17.329,5.514c0.788,5.514,1.575,11.815,3.938,17.329
	L289.871,358.4l14.178,19.692l15.754-8.665c4.726,3.938,9.452,7.089,14.966,9.452l-0.788,18.905l24.418,3.938l5.514-17.329
	c5.514-0.788,11.815-1.575,17.329-3.938l12.603,13.391l19.692-14.178l-8.665-15.754c3.938-4.726,7.089-9.452,9.452-14.966
	l18.117,0.788l3.938-24.418l-17.329-5.514c-0.788-5.514-1.575-11.815-3.938-17.329L428.505,290.658z"/>
<path style="fill:#183651;" d="M358.4,409.6c-0.788,0-0.788,0-1.575,0l-24.418-3.938c-3.938-0.788-6.302-3.938-6.302-7.877
	l0.788-13.391c-2.363-1.575-5.514-3.151-7.877-4.726l-11.815,6.302c-3.151,1.575-7.877,0.788-10.24-2.363l-14.178-19.692
	c-2.363-3.151-1.575-7.877,0.788-10.24l9.452-8.665c-0.788-3.151-1.575-6.302-2.363-9.452l-11.028-4.726
	c-3.938-0.788-6.302-4.726-5.514-8.665l3.938-24.418c0.788-3.938,3.938-6.302,7.877-6.302l13.391,0.788
	c1.575-2.363,3.151-5.514,4.726-7.877l-6.302-11.815c-1.575-3.151-0.788-7.877,2.363-10.24l19.692-14.178
	c3.151-2.363,7.877-1.575,10.24,0.788l8.665,9.452c3.151-0.788,6.302-1.575,9.452-2.363l3.938-12.603
	c0.788-3.938,4.726-6.302,8.665-5.514l24.418,3.938c3.938,0.788,6.302,3.938,6.302,7.877l-0.788,13.391
	c2.363,1.575,5.514,3.151,7.877,4.726l11.815-6.302c3.151-1.575,7.877-0.788,10.24,2.363l14.178,19.692
	c2.363,3.151,1.575,7.877-0.788,10.24l-9.452,8.665c0.788,3.151,1.575,6.302,2.363,9.452l12.603,3.938
	c3.938,0.788,6.302,4.726,5.514,8.665l-3.938,24.418c-0.788,3.938-3.938,6.302-7.877,6.302l-13.391-0.788
	c-1.575,2.363-3.151,5.514-4.726,7.877l6.302,11.815c1.575,3.151,0.788,7.877-2.363,10.24l-21.268,15.754
	c-3.151,2.363-7.877,1.575-10.24-0.788l-8.665-9.452c-3.151,0.788-6.302,1.575-9.452,2.363l-3.938,12.603
	C364.702,407.237,361.551,409.6,358.4,409.6z M342.646,391.483l10.24,1.575l3.151-11.028c0.788-3.151,3.938-5.514,7.089-5.514
	c5.514,0,10.24-1.575,14.966-3.151c3.151-0.788,6.302,0,8.665,2.363l7.877,8.665l8.665-6.302l-5.514-10.24
	c-1.575-3.151-0.788-6.302,0.788-8.665c3.151-3.938,6.302-8.665,8.665-13.391c1.575-3.151,4.726-4.726,7.877-4.726l11.028,0.788
	l1.575-10.24l-11.028-3.151c-3.151-0.788-5.514-3.938-5.514-7.089c0-5.514-1.575-10.24-3.151-14.966
	c-0.788-3.151,0-6.302,2.363-8.665l8.665-7.877l-6.302-8.665l-10.24,5.514c-3.151,1.575-6.302,0.788-8.665-0.788
	c-3.938-3.151-8.665-6.302-13.391-8.665c-3.151-1.575-4.726-3.938-4.726-7.877l0.788-11.028L365.489,256l-3.151,11.028
	c-0.788,3.151-3.938,5.514-7.089,5.514c-5.514,0-10.24,1.575-14.966,3.151c-3.151,0.788-6.302,0-8.665-2.363l-7.877-8.665
	l-7.877,7.089l5.514,10.24c1.575,3.151,0.788,6.302-0.788,8.665c-3.151,3.938-6.302,8.665-8.665,13.391
	c-1.575,3.151-3.938,4.726-7.877,4.726l-11.028-0.788l-1.575,10.24l11.028,3.151c3.151,0.788,5.514,3.938,5.514,7.089
	c0,5.514,1.575,10.24,3.151,14.966c0.788,3.151,0,6.302-2.363,8.665l-8.665,7.877l6.302,8.665l10.24-5.514
	c3.151-1.575,6.302-0.788,8.665,0.788c3.938,3.151,8.665,6.302,13.391,8.665c3.151,1.575,4.726,3.938,4.726,7.877L342.646,391.483z"
	/>
<circle style="fill:#FFFFFF;" cx="359.188" cy="324.529" r="22.055"/>
<path style="fill:#183651;" d="M359.188,354.462c-9.452,0-18.905-4.726-24.418-12.603c-9.452-13.391-6.302-32.295,7.089-41.748
	c4.726-3.938,11.028-5.514,17.329-5.514c9.452,0,18.905,4.726,24.418,12.603c9.452,13.391,6.302,32.295-7.089,41.748
	C371.791,352.886,365.489,354.462,359.188,354.462z M359.188,310.351c-3.151,0-5.514,0.788-7.877,2.363
	c-6.302,4.726-7.877,13.391-3.151,19.692s13.391,7.877,19.692,3.151c6.302-4.726,7.877-13.391,3.151-19.692
	C368.64,312.714,363.914,310.351,359.188,310.351z"/>
<g>
</g>
<g>
</g>
<g>
</g>
<g>
</g>
<g>
</g>
<g>
</g>
<g>
</g>
<g>
</g>
<g>
</g>
<g>
</g>
<g>
</g>
<g>
</g>
<g>
</g>
<g>
</g>
<g>
</g>
</svg>
