<?xml version="1.0" encoding="iso-8859-1"?>
<!-- Generator: Adobe Illustrator 19.0.0, SVG Export Plug-In . SVG Version: 6.00 Build 0)  -->
<svg version="1.1" id="Capa_1" xmlns="http://www.w3.org/2000/svg" xmlns:xlink="http://www.w3.org/1999/xlink" x="0px" y="0px"
	 viewBox="0 0 504.1 504.1" style="enable-background:new 0 0 504.1 504.1;" xml:space="preserve">
<circle style="fill:#FBBD5E;" cx="340.3" cy="339.5" r="163.8"/>
<path style="fill:#FFFFFF;" d="M405.7,8.7H31.5C18.1,8.7,7.9,18.9,7.9,32.3v75.6h421.4V32.3C429.3,18.9,418.3,8.7,405.7,8.7z"/>
<path style="fill:#183651;" d="M429.3,115.8H7.9c-4.7,0-7.9-3.2-7.9-7.9V32.3C0,15,14.2,0.8,31.5,0.8h374.2
	c17.3,0,31.5,14.2,31.5,31.5v75.6C437.2,111.9,433.3,115.8,429.3,115.8z M15.8,100.1h405.7V32.3c0-8.7-7.1-15.8-15.8-15.8H31.5
	c-8.7,0-15.8,7.1-15.8,15.8v67.8H15.8z"/>
<path style="fill:#FFFFFF;" d="M7.9,108v265.5c0,13.4,10.2,23.6,23.6,23.6h374.2c13.4,0,23.6-10.2,23.6-23.6V108H7.9z"/>
<path style="fill:#183651;" d="M405.7,404.9H31.5C14.2,404.9,0,390.7,0,373.4V108c0-4.7,3.2-7.9,7.9-7.9h421.4
	c4.7,0,7.9,3.2,7.9,7.9v265.5C437.2,390.7,423,404.9,405.7,404.9z M15.8,115.8v257.6c0,8.7,7.1,15.8,15.8,15.8h374.2
	c8.7,0,15.8-7.1,15.8-15.8V115.8H15.8z"/>
<circle style="fill:#FFFFFF;" cx="345.8" cy="58.3" r="19.7"/>
<path style="fill:#183651;" d="M345.8,85.9c-15,0-27.6-12.6-27.6-27.6s12.6-27.6,27.6-27.6s27.6,12.6,27.6,27.6
	S361.6,85.9,345.8,85.9z M345.8,45.7c-6.3,0-11.8,5.5-11.8,11.8s5.5,11.8,11.8,11.8s11.8-5.5,11.8-11.8S352.9,45.7,345.8,45.7z"/>
<circle style="fill:#FFFFFF;" cx="90.6" cy="58.3" r="19.7"/>
<path style="fill:#183651;" d="M90.6,85.9c-15,0-27.6-12.6-27.6-27.6s12.6-27.6,27.6-27.6s27.6,12.6,27.6,27.6S106.4,85.9,90.6,85.9
	z M90.6,45.7c-6.3,0-11.8,5.5-11.8,11.8s5.5,11.8,11.8,11.8s11.8-5.5,11.8-11.8S97.7,45.7,90.6,45.7z"/>
<path style="fill:#FFFFFF;" d="M289.9,460.1l40.2,9.5l11-29.1c10.2,0,20.5-1.6,29.9-4.7l18.9,25.2l35.4-21.3l-12.6-28.4
	c7.1-7.1,13.4-15,18.1-24.4l29.9,3.2l9.5-40.2l-29.1-11c0-10.2-1.6-20.5-4.7-29.9l24.4-18.9l-21.3-35.4l-28.3,12.4
	c-7.1-7.1-15-13.4-24.4-18.1l3.9-30.7l-40.2-8.7l-11,29.1c-10.2,0-20.5,1.6-29.9,4.7L290.7,219L256,240.3l12.6,28.4
	c-7.1,7.1-13.4,15-18.1,24.4l-30.7-3.9l-9.5,40.2l29.1,11c0,10.2,1.6,20.5,4.7,29.9l-24.4,18.9l21.3,35.4l28.4-12.6
	c7.1,7.1,15,13.4,24.4,18.1L289.9,460.1z"/>
<path style="fill:#183651;" d="M330.1,477.4c-0.8,0-1.6,0-1.6,0l-40.2-9.5c-3.9-0.8-6.3-4.7-6.3-8.7l3.2-25.2
	c-6.3-3.9-11.8-7.9-17.3-12.6l-22.8,10.2c-3.9,1.6-7.9,0-10.2-3.2l-21.4-35.3c-2.4-3.2-1.6-7.9,1.6-10.2l19.7-15.8
	c-1.6-7.1-3.2-14.2-3.2-21.3l-23.6-8.7c-3.9-1.6-5.5-5.5-4.7-9.5l9.5-40.2c0.8-3.9,4.7-6.3,8.7-6.3l25.2,3.2
	c3.9-6.3,7.9-11.8,12.6-17.3l-10.2-22.8c-1.6-3.9,0-7.9,3.2-10.2l35.4-21.3c3.2-2.4,7.9-1.6,10.2,1.6l15.8,19.7
	c7.1-1.6,14.2-3.2,21.3-3.2l8.7-23.6c1.6-3.9,5.5-5.5,9.5-4.7l40.2,9.5c3.9,0.8,6.3,4.7,6.3,8.7l-3.2,25.2
	c6.3,3.9,11.8,7.9,17.3,12.6l22.8-10.2c3.9-1.6,7.9,0,10.2,3.2l21.3,35.4c2.4,3.2,1.6,7.9-1.6,10.2l-19.7,15.8
	c1.6,7.1,3.2,14.2,3.2,21.3l23.6,8.7c3.9,1.6,5.5,5.5,4.7,9.5l-9.5,40.2c-0.8,3.9-4.7,6.3-8.7,6.3l-25.2-3.2
	c-3.9,6.3-7.9,11.8-12.6,17.3l10.2,22.8c1.6,3.9,0,7.9-3.2,10.2l-35.4,21.1c-3.2,2.4-7.9,1.6-10.2-1.6l-15.8-19.7
	c-7.1,1.6-14.2,3.2-21.3,3.2l-8.7,23.6C336.4,475.8,333.2,477.4,330.1,477.4z M298.6,453.7l26.8,6.3l8.7-22.1
	c0.8-3.2,3.9-4.7,7.1-4.7c9.5,0,18.9-1.6,27.6-3.9c3.2-0.8,6.3,0,8.7,2.4l15,18.9l23.6-14.2l-9.5-22.1c-1.6-3.2-0.8-6.3,1.6-8.7
	c6.3-6.3,11.8-14.2,16.5-22.1c1.6-3.2,4.7-4.7,7.9-3.9l23.6,3.2l6.3-26.8l-22.1-8.7c-3.2-0.8-4.7-3.9-4.7-7.1
	c0-9.5-1.6-18.9-3.9-27.6c-0.8-3.2,0-6.3,2.4-8.7l18.9-15l-14.2-23.6l-22.1,9.5c-3.2,1.6-6.3,0.8-8.7-1.6
	c-6.3-6.3-14.2-11.8-22.1-16.5c-3.2-1.6-4.7-4.7-3.9-7.9l3.2-23.6l-26.8-6.3l-8.7,22.1c-0.8,3.2-3.9,4.7-7.1,4.7
	c-9.5,0-18.9,1.6-27.6,3.9c-3.2,0.8-6.3,0-8.7-2.4l-15-18.9l-23.6,14.2l9.5,22.1c1.6,3.2,0.8,6.3-1.6,8.7
	c-6.3,6.3-11.8,14.2-16.5,22.1c-1.6,3.2-4.7,4.7-7.9,3.9l-23.6-3.2l-6.3,26.8l22.1,8.7c3.2,0.8,4.7,3.9,4.7,7.1
	c0,9.5,1.6,18.9,3.9,27.6c0.8,3.2,0,6.3-2.4,8.7l-18.9,15l14.2,23.6l22.1-9.5c3.2-1.6,6.3-0.8,8.7,1.6c6.3,6.3,14.2,11.8,22.1,16.5
	c3.2,1.6,4.7,4.7,3.9,7.9L298.6,453.7z"/>
<circle style="fill:#F06151;" cx="340.3" cy="339.5" r="74"/>
<circle style="fill:#FFFFFF;" cx="340.3" cy="339.5" r="36.2"/>
<g>
	<rect x="39.4" y="139.5" style="fill:#2CA0DA;" width="42.5" height="42.5"/>
	<rect x="118.2" y="139.5" style="fill:#2CA0DA;" width="42.5" height="42.5"/>
	<rect x="197" y="139.5" style="fill:#2CA0DA;" width="42.5" height="42.5"/>
	<rect x="275.7" y="139.5" style="fill:#2CA0DA;" width="42.5" height="42.5"/>
	<rect x="354.5" y="139.5" style="fill:#2CA0DA;" width="42.5" height="42.5"/>
	<rect x="39.4" y="230.8" style="fill:#2CA0DA;" width="42.5" height="42.5"/>
	<rect x="118.2" y="230.8" style="fill:#2CA0DA;" width="42.5" height="42.5"/>
	<rect x="39.4" y="323" style="fill:#2CA0DA;" width="42.5" height="42.5"/>
	<rect x="118.2" y="323" style="fill:#2CA0DA;" width="42.5" height="42.5"/>
</g>
<g>
	<rect x="166.2" y="50.5" style="fill:#183651;" width="15.8" height="15.8"/>
	<rect x="210.4" y="50.5" style="fill:#183651;" width="15.8" height="15.8"/>
	<rect x="255.3" y="50.5" style="fill:#183651;" width="15.8" height="15.8"/>
	<path style="fill:#183651;" d="M349.8,297c-3.2-0.8-7.1-1.6-10.2-1.6c-20.5,0-37.8,14.2-42.5,33.9c-2.4,11-0.8,23.6,5.5,33.1
		s15.8,16.5,27.6,19.7c3.2,0.8,7.1,1.6,10.2,1.6c20.5,0,37.8-13.4,41.7-33.1C387.6,326.9,373.4,302.5,349.8,297z M340.3,367.3
		c-16,0-28.9-13-28.9-28.9c0-16,13-28.9,28.9-28.9c16,0,28.9,13,28.9,28.9C369.3,354.4,356.3,367.3,340.3,367.3z"/>
</g>
<g>
</g>
<g>
</g>
<g>
</g>
<g>
</g>
<g>
</g>
<g>
</g>
<g>
</g>
<g>
</g>
<g>
</g>
<g>
</g>
<g>
</g>
<g>
</g>
<g>
</g>
<g>
</g>
<g>
</g>
</svg>
