<?xml version="1.0" encoding="iso-8859-1"?>
<!-- Generator: Adobe Illustrator 19.0.0, SVG Export Plug-In . SVG Version: 6.00 Build 0)  -->
<svg version="1.1" id="Capa_1" xmlns="http://www.w3.org/2000/svg" xmlns:xlink="http://www.w3.org/1999/xlink" x="0px" y="0px"
	 viewBox="0 0 504.155 504.155" style="enable-background:new 0 0 504.155 504.155;" xml:space="preserve">
<path style="fill:#2CA0DA;" d="M404.874,7.909H39.385c-17.329,0-31.508,14.178-31.508,31.508v272.542
	c0,17.329,14.178,31.508,31.508,31.508h425.354c17.329,0,31.508-14.178,31.508-31.508V99.281L404.874,7.909z"/>
<path style="fill:#183651;" d="M464.738,351.343H39.385C17.329,351.343,0,334.013,0,311.958V39.417
	C0,17.361,17.329,0.032,39.385,0.032h365.489c2.363,0,3.938,0.788,5.514,2.363l91.372,91.372c1.575,1.575,2.363,3.151,2.363,5.514
	v212.677C504.123,334.013,486.794,351.343,464.738,351.343z M39.385,15.786c-13.391,0-23.631,10.24-23.631,23.631v272.542
	c0,13.391,10.24,23.631,23.631,23.631h425.354c13.391,0,23.631-10.24,23.631-23.631V102.432l-86.646-86.646H39.385z"/>
<polygon style="fill:#FFFFFF;" points="39.385,311.958 39.385,39.417 404.874,39.417 464.738,99.281 464.738,311.958 "/>
<polygon style="fill:#E0E4E8;" points="404.874,99.281 496.246,99.281 404.874,7.909 "/>
<path style="fill:#183651;" d="M496.246,107.158h-91.372c-4.726,0-7.877-3.151-7.877-7.877V7.909c0-3.151,1.575-6.302,4.726-7.089
	c3.151-1.575,6.302-0.788,8.665,1.575l91.372,91.372c2.363,2.363,3.151,5.514,1.575,8.665
	C502.548,105.583,499.397,107.158,496.246,107.158z M412.751,91.404h64.591l-64.591-64.591V91.404z"/>
<rect x="232.369" y="327.712" style="fill:#E1E6E7;" width="210.314" height="168.566"/>
<path style="fill:#183651;" d="M442.683,504.155H232.369c-4.726,0-7.877-3.151-7.877-7.877V327.712c0-4.726,3.151-7.877,7.877-7.877
	h210.314c4.726,0,7.877,3.151,7.877,7.877v168.566C450.56,501.004,446.622,504.155,442.683,504.155z M240.246,488.401h194.56
	V335.589h-194.56V488.401z"/>
<g>
	<rect x="263.877" y="359.22" style="fill:#FFFFFF;" width="147.298" height="105.551"/>
	<path style="fill:#FFFFFF;" d="M278.843,327.712v-25.994c0-32.295,26.782-59.077,59.077-59.077s59.077,26.782,59.077,59.077v25.994
		h29.145v-25.994c0-48.837-39.385-88.222-88.222-88.222s-88.222,39.385-88.222,88.222v25.994H278.843z"/>
</g>
<path style="fill:#183651;" d="M425.354,335.589h-29.145c-4.726,0-7.877-3.151-7.877-7.877v-25.994c0-28.357-22.843-51.2-51.2-51.2
	c-28.357,0-51.2,22.843-51.2,51.2v25.994c0,4.726-3.151,7.877-7.877,7.877h-29.145c-4.726,0-7.877-3.151-7.877-7.877v-25.994
	c0-52.775,43.323-96.098,96.098-96.098s96.098,43.323,96.098,96.098v25.994C433.231,331.65,430.08,335.589,425.354,335.589z
	 M404.086,319.835h13.391v-18.117c0-44.111-36.234-80.345-80.345-80.345s-80.345,36.234-80.345,80.345v18.117h13.391v-18.117
	c0-37.022,29.932-66.954,66.954-66.954s66.954,29.932,66.954,66.954V319.835z"/>
<path style="fill:#173651;" d="M334.769,374.973c-9.452,0.788-16.542,8.665-18.117,17.329c-1.575,10.24,3.938,18.905,11.815,22.843
	v24.418c0,4.726,3.938,8.665,8.665,8.665c4.726,0,8.665-3.938,8.665-8.665v-24.418c7.089-3.151,12.603-11.028,12.603-18.905
	C358.4,383.638,348.16,373.398,334.769,374.973z"/>
<rect x="133.12" y="63.835" style="fill:#FBBD5E;" width="51.2" height="34.658"/>
<path style="fill:#183651;" d="M184.32,106.37h-51.2c-4.726,0-7.877-3.151-7.877-7.877V63.835c0-4.726,3.151-7.877,7.877-7.877h51.2
	c4.726,0,7.877,3.151,7.877,7.877v34.658C192.197,103.22,189.046,106.37,184.32,106.37z M140.997,90.617h35.446V71.712h-35.446
	V90.617z"/>
<rect x="62.228" y="163.872" style="fill:#FBBD5E;" width="51.2" height="34.658"/>
<path style="fill:#183651;" d="M113.428,206.407h-51.2c-4.726,0-7.877-3.151-7.877-7.877v-34.658c0-4.726,3.151-7.877,7.877-7.877
	h51.2c4.726,0,7.877,3.151,7.877,7.877v34.658C121.305,203.257,118.154,206.407,113.428,206.407z M70.105,190.653h35.446v-18.905
	H70.105V190.653z"/>
<rect x="203.225" y="163.872" style="fill:#FBBD5E;" width="51.2" height="34.658"/>
<path style="fill:#183651;" d="M255.212,206.407h-51.2c-4.726,0-7.877-3.151-7.877-7.877v-34.658c0-4.726,3.151-7.877,7.877-7.877
	h51.2c4.726,0,7.877,3.151,7.877,7.877v34.658C263.089,203.257,259.151,206.407,255.212,206.407z M211.102,190.653h35.446v-18.905
	h-35.446V190.653z"/>
<g>
	<path style="fill:#183651;" d="M158.326,137.878c-4.726,0-7.877-3.151-7.877-7.877V98.493c0-4.726,3.151-7.877,7.877-7.877
		c4.726,0,7.877,3.151,7.877,7.877v31.508C166.203,134.727,163.052,137.878,158.326,137.878z"/>
	<path style="fill:#183651;" d="M230.794,171.749c-4.726,0-7.877-3.151-7.877-7.877v-25.994H94.523v25.206
		c0,4.726-3.151,7.877-7.877,7.877s-7.877-3.151-7.877-7.877v-33.083c0-4.726,3.151-7.877,7.877-7.877h144.148
		c4.726,0,7.877,3.151,7.877,7.877v33.083C238.671,167.81,234.732,171.749,230.794,171.749z"/>
	<rect x="62.228" y="262.333" style="fill:#183651;" width="134.695" height="15.754"/>
	<rect x="353.674" y="68.561" style="fill:#183651;" width="15.754" height="15.754"/>
	<rect x="353.674" y="107.158" style="fill:#183651;" width="15.754" height="15.754"/>
	<rect x="353.674" y="146.543" style="fill:#183651;" width="15.754" height="15.754"/>
	<rect x="17.329" y="464.77" style="fill:#183651;" width="15.754" height="15.754"/>
	<rect x="72.468" y="464.77" style="fill:#183651;" width="15.754" height="15.754"/>
	<rect x="127.606" y="464.77" style="fill:#183651;" width="15.754" height="15.754"/>
	<rect x="62.228" y="417.509" style="fill:#183651;" width="15.754" height="15.754"/>
	<rect x="117.366" y="417.509" style="fill:#183651;" width="15.754" height="15.754"/>
	<rect x="172.505" y="417.509" style="fill:#183651;" width="15.754" height="15.754"/>
	<rect x="306.412" y="68.561" style="fill:#183651;" width="15.754" height="93.735"/>
</g>
<g>
</g>
<g>
</g>
<g>
</g>
<g>
</g>
<g>
</g>
<g>
</g>
<g>
</g>
<g>
</g>
<g>
</g>
<g>
</g>
<g>
</g>
<g>
</g>
<g>
</g>
<g>
</g>
<g>
</g>
</svg>
