<?xml version="1.0" encoding="iso-8859-1"?>
<!-- Generator: Adobe Illustrator 19.0.0, SVG Export Plug-In . SVG Version: 6.00 Build 0)  -->
<svg version="1.1" id="Capa_1" xmlns="http://www.w3.org/2000/svg" xmlns:xlink="http://www.w3.org/1999/xlink" x="0px" y="0px"
	 viewBox="0 0 504.123 504.123" style="enable-background:new 0 0 504.123 504.123;" xml:space="preserve">
<circle style="fill:#E0E4E8;" cx="251.274" cy="205.588" r="205.588"/>
<path style="fill:#FFFFFF;" d="M271.754,380.455v-38.597c59.865-8.665,107.126-55.926,115.791-115.791h38.597v-40.172h-38.597
	c-7.877-60.652-55.138-107.914-115.791-116.578V30.72h-40.172v38.597c-59.865,8.665-107.126,55.926-115.791,115.791H77.194v40.172
	h38.597c8.665,59.865,55.926,107.126,115.791,115.791v38.597L271.754,380.455z"/>
<path style="fill:#183651;" d="M271.754,388.332h-39.385c-4.726,0-7.877-3.151-7.877-7.877V348.16
	c-57.502-11.028-103.975-57.502-115.003-115.003H77.194c-4.726,0-7.877-3.151-7.877-7.877v-40.172c0-4.726,3.151-7.877,7.877-7.877
	h32.295c11.028-57.502,56.714-103.188,115.003-114.215V30.72c0-4.726,3.151-7.877,7.877-7.877h39.385
	c4.726,0,7.877,3.151,7.877,7.877v32.295c57.502,11.028,103.975,57.502,115.003,115.003h32.295c4.726,0,7.877,3.151,7.877,7.877
	v40.172c0,4.726-3.151,7.877-7.877,7.877h-32.295c-11.028,57.502-57.502,103.975-115.003,115.003v32.295
	C279.631,385.182,276.48,388.332,271.754,388.332z M240.246,372.578h23.631v-30.72c0-3.938,3.151-7.089,7.089-7.877
	c55.926-7.877,101.612-53.563,109.489-109.489c0.788-3.938,3.938-7.089,7.877-7.089h30.72v-24.418h-30.72
	c-3.938,0-7.089-3.151-7.877-7.089c-7.877-55.926-53.563-101.612-109.489-109.489c-3.938-0.788-7.089-3.938-7.089-7.877V38.597
	h-23.631v30.72c0,3.938-3.151,7.089-7.089,7.877c-55.926,7.877-101.612,53.563-109.489,109.489
	c-0.788,3.938-3.938,7.089-7.877,7.089h-30.72v24.418h30.72c3.938,0,7.089,3.151,7.877,7.089
	c7.877,55.926,53.563,101.612,109.489,109.489c3.938,0.788,7.089,3.938,7.089,7.877V372.578z"/>
<path style="fill:#FBBD5E;" d="M146.511,205.588c0-58.289,47.262-105.551,105.551-105.551s105.551,47.262,105.551,105.551
	s-47.262,105.551-105.551,105.551S146.511,263.877,146.511,205.588z"/>
<path style="fill:#FFFFFF;" d="M216.615,205.588c0-19.692,15.754-35.446,35.446-35.446s35.446,15.754,35.446,35.446
	s-15.754,35.446-35.446,35.446S216.615,225.28,216.615,205.588z"/>
<g>
	<path style="fill:#183651;" d="M252.062,248.911c-23.631,0-43.323-19.692-43.323-43.323s19.692-43.323,43.323-43.323
		s43.323,19.692,43.323,43.323S275.692,248.911,252.062,248.911z M252.062,178.018c-14.966,0-27.569,12.603-27.569,27.569
		c0,14.966,12.603,27.569,27.569,27.569c14.966,0,27.569-12.603,27.569-27.569C279.631,190.622,267.028,178.018,252.062,178.018z"/>
	<polygon style="fill:#183651;" points="504.123,504.123 488.369,504.123 488.369,345.009 370.215,275.692 378.092,262.302 
		504.123,335.557 	"/>
	<polygon style="fill:#183651;" points="464.738,504.123 448.985,504.123 448.985,379.668 431.655,368.64 439.532,355.249 
		464.738,370.215 	"/>
	
		<rect x="404.272" y="340.15" transform="matrix(-0.8582 -0.5133 0.5133 -0.8582 586.4816 858.0615)" style="fill:#183651;" width="14.966" height="15.754"/>
	
		<rect x="373.41" y="323.048" transform="matrix(-0.8604 -0.5096 0.5096 -0.8604 541.4415 810.1616)" style="fill:#183651;" width="16.541" height="15.754"/>
	<polygon style="fill:#183651;" points="15.754,504.123 0,504.123 0,335.557 126.031,262.302 133.908,275.692 15.754,345.009 	"/>
	<polygon style="fill:#183651;" points="55.138,504.123 39.385,504.123 39.385,370.215 64.591,355.249 72.468,368.64 
		55.138,379.668 	"/>
	
		<rect x="84.212" y="340.933" transform="matrix(-0.5131 -0.8583 0.8583 -0.5131 -159.7128 606.2338)" style="fill:#183651;" width="15.753" height="14.966"/>
	
		<rect x="115.29" y="322.62" transform="matrix(-0.5097 -0.8603 0.8603 -0.5097 -98.7299 605.5184)" style="fill:#183651;" width="15.753" height="16.541"/>
	<rect x="166.991" y="197.711" style="fill:#183651;" width="15.754" height="15.754"/>
	<rect x="321.378" y="197.711" style="fill:#183651;" width="15.754" height="15.754"/>
	
		<rect x="189.976" y="252.194" transform="matrix(-0.707 -0.7072 0.7072 -0.707 153.8117 583.8655)" style="fill:#183651;" width="15.754" height="15.754"/>
	
		<rect x="298.527" y="143.215" transform="matrix(-0.707 -0.7072 0.7072 -0.707 416.1808 474.6059)" style="fill:#183651;" width="15.754" height="15.754"/>
	<rect x="244.185" y="274.905" style="fill:#183651;" width="15.754" height="15.754"/>
	<rect x="244.185" y="120.517" style="fill:#183651;" width="15.754" height="15.754"/>
	
		<rect x="298.708" y="251.964" transform="matrix(-0.7071 -0.7071 0.7071 -0.7071 339.6378 660.364)" style="fill:#183651;" width="15.754" height="15.754"/>
	
		<rect x="189.699" y="143.381" transform="matrix(-0.7071 -0.7071 0.7071 -0.7071 230.328 397.9203)" style="fill:#183651;" width="15.754" height="15.754"/>
	<rect x="315.865" y="422.203" style="fill:#183651;" width="15.754" height="81.92"/>
	<rect x="315.865" y="390.695" style="fill:#183651;" width="15.754" height="15.754"/>
	<rect x="315.865" y="359.188" style="fill:#183651;" width="15.754" height="15.754"/>
	<rect x="172.505" y="422.203" style="fill:#183651;" width="15.754" height="81.92"/>
	<rect x="172.505" y="390.695" style="fill:#183651;" width="15.754" height="15.754"/>
	<rect x="172.505" y="359.188" style="fill:#183651;" width="15.754" height="15.754"/>
</g>
<g>
</g>
<g>
</g>
<g>
</g>
<g>
</g>
<g>
</g>
<g>
</g>
<g>
</g>
<g>
</g>
<g>
</g>
<g>
</g>
<g>
</g>
<g>
</g>
<g>
</g>
<g>
</g>
<g>
</g>
</svg>
