<?xml version="1.0" encoding="iso-8859-1"?>
<!-- Generator: Adobe Illustrator 19.0.0, SVG Export Plug-In . SVG Version: 6.00 Build 0)  -->
<svg version="1.1" id="Capa_1" xmlns="http://www.w3.org/2000/svg" xmlns:xlink="http://www.w3.org/1999/xlink" x="0px" y="0px"
	 viewBox="0 0 504.911 504.911" style="enable-background:new 0 0 504.911 504.911;" xml:space="preserve">
<path style="fill:#E0E4E8;" d="M449.779,183.532H53.57c-13.391,0-23.631,10.24-23.631,23.631v251.274H473.41V207.163
	C473.41,194.56,462.382,183.532,449.779,183.532z"/>
<path style="fill:#183651;" d="M473.41,466.314H29.939c-4.726,0-7.877-3.151-7.877-7.877V207.163
	c0-17.329,14.178-31.508,31.508-31.508h396.209c17.329,0,31.508,14.178,31.508,31.508v251.274
	C481.286,463.163,477.348,466.314,473.41,466.314z M37.816,450.56h427.717V207.163c0-8.665-7.089-15.754-15.754-15.754H53.57
	c-8.665,0-15.754,7.089-15.754,15.754V450.56z"/>
<rect x="61.446" y="215.04" style="fill:#FFFFFF;" width="380.455" height="243.397"/>
<path style="fill:#FBBD5E;" d="M421.422,8.665c-38.597,0.788-70.105,33.871-70.105,73.255c0,22.843,11.028,43.323,27.569,55.926
	c8.665,6.302,13.391,16.542,13.391,27.569h62.228c0-11.028,5.514-21.268,14.178-28.357c16.542-13.391,26.782-33.083,26.782-55.926
	C495.465,40.172,462.382,7.089,421.422,8.665z"/>
<path style="fill:#183651;" d="M454.505,172.505h-62.228c-3.938,0-7.877-3.151-7.877-7.877c0-8.665-3.938-16.542-10.24-21.268
	c-18.905-14.966-30.72-37.809-30.72-62.228c0-43.323,34.658-79.557,77.982-81.132h2.363c44.111,0,80.345,36.234,80.345,80.345
	c0,24.418-11.028,46.474-29.145,62.228c-7.089,6.302-11.815,14.178-11.815,22.055C462.382,169.354,459.231,172.505,454.505,172.505z
	 M399.366,156.751h48.837c2.363-10.24,7.877-18.905,16.542-25.994c14.966-12.603,23.631-30.72,23.631-49.625
	c0-35.446-29.145-64.591-64.591-64.591h-2.363c-33.871,0.788-63.015,30.72-62.228,64.591c0,19.692,9.452,37.809,24.418,49.625
	C391.49,137.846,397.003,146.511,399.366,156.751z"/>
<path style="fill:#F06151;" d="M385.188,164.628v17.329c0,21.268,17.329,37.809,37.809,37.809l0,0
	c21.268,0,37.809-17.329,37.809-37.809v-17.329H385.188z"/>
<path style="fill:#183651;" d="M422.997,228.431c-25.206,0-45.686-20.48-45.686-45.686v-17.329c0-4.726,3.151-7.877,7.877-7.877
	h76.406c4.726,0,7.877,3.151,7.877,7.877v17.329C469.471,207.163,448.991,228.431,422.997,228.431z M393.065,172.505v9.452
	c0,16.542,13.391,29.932,29.932,29.932s29.932-13.391,29.932-29.932v-9.452H393.065z"/>
<path style="fill:#2EA0DA;" d="M78.776,8.665C40.179,9.452,8.671,42.535,8.671,81.92c0,22.843,11.028,43.323,27.569,55.926
	c8.665,6.302,13.391,16.542,13.391,27.569h62.228c0-11.028,5.514-21.268,14.178-28.357c16.542-13.391,26.782-33.083,26.782-55.926
	C152.819,40.172,119.736,7.089,78.776,8.665z"/>
<path style="fill:#183651;" d="M111.859,172.505H49.631c-3.938,0-7.877-3.151-7.877-7.877c0-8.665-3.938-16.542-10.24-21.268
	c-18.905-14.966-30.72-37.809-30.72-62.228C0.006,38.597,35.453,2.363,77.988,0.788h2.363c44.111,0,80.345,36.234,80.345,80.345
	c0,24.418-11.028,46.474-29.145,62.228c-7.089,6.302-11.815,14.178-11.815,22.055C119.736,169.354,116.585,172.505,111.859,172.505z
	 M56.72,156.751h48.837c2.363-10.24,7.877-18.905,16.542-25.994c14.966-12.603,23.631-30.72,23.631-49.625
	c0-35.446-29.145-64.591-64.591-64.591h-1.575c-33.871,0.788-63.015,30.72-62.228,64.591c0,19.692,9.452,37.809,24.418,49.625
	C48.843,137.846,54.357,146.511,56.72,156.751z"/>
<path style="fill:#F06151;" d="M42.542,164.628v17.329c0,21.268,17.329,37.809,37.809,37.809l0,0
	c21.268,0,37.809-17.329,37.809-37.809v-17.329H42.542z"/>
<path style="fill:#183651;" d="M81.139,228.431c-25.206,0-45.686-20.48-45.686-45.686v-17.329c0-4.726,3.151-7.877,7.877-7.877
	h76.406c4.726,0,7.877,3.151,7.877,7.877v17.329C126.825,207.163,106.345,228.431,81.139,228.431z M50.419,172.505v9.452
	c0,16.542,13.391,29.932,29.932,29.932s29.932-13.391,29.932-29.932v-9.452H50.419z"/>
<g>
	<circle style="fill:#FFFFFF;" cx="422.997" cy="81.92" r="37.809"/>
	<circle style="fill:#FFFFFF;" cx="81.139" cy="81.92" r="37.809"/>
	<path style="fill:#FFFFFF;" d="M305.631,420.628v30.72H197.717v-30.72H8.671v21.268c0,30.72,24.418,55.138,55.138,55.138h376.517
		c30.72,0,55.138-24.418,55.138-55.138v-21.268H305.631z"/>
</g>
<g>
	<path style="fill:#183651;" d="M439.539,504.911H63.81c-34.658,0-63.015-28.357-63.015-63.015v-21.268
		c0-4.726,3.151-7.877,7.877-7.877h189.046c4.726,0,7.877,3.151,7.877,7.877v22.843h92.16v-22.843c0-4.726,3.151-7.877,7.877-7.877
		h189.046c4.726,0,7.877,3.151,7.877,7.877v21.268C502.554,476.554,474.197,504.911,439.539,504.911z M16.548,428.505v13.391
		c0,25.994,21.268,47.262,47.262,47.262h376.517c25.994,0,47.262-21.268,47.262-47.262v-13.391H314.296v22.843
		c0,4.726-3.151,7.877-7.877,7.877H197.717c-4.726,0-7.877-3.151-7.877-7.877v-22.843H16.548z"/>
	<rect x="345.803" y="450.56" style="fill:#183651;" width="15.754" height="15.754"/>
	<rect x="385.188" y="450.56" style="fill:#183651;" width="15.754" height="15.754"/>
	<rect x="423.785" y="450.56" style="fill:#183651;" width="15.754" height="15.754"/>
	<rect x="63.022" y="450.56" style="fill:#183651;" width="15.754" height="15.754"/>
	<rect x="102.406" y="450.56" style="fill:#183651;" width="15.754" height="15.754"/>
	<rect x="141.003" y="450.56" style="fill:#183651;" width="15.754" height="15.754"/>
	<rect x="341.077" y="74.043" style="fill:#183651;" width="7.877" height="15.754"/>
	<rect x="315.871" y="74.043" style="fill:#183651;" width="12.603" height="15.754"/>
	<rect x="286.726" y="74.043" style="fill:#183651;" width="15.754" height="15.754"/>
	<path style="fill:#183651;" d="M302.48,298.535h-15.754v-14.966h15.754V298.535z M302.48,268.603h-15.754v-14.966h15.754V268.603z
		 M302.48,238.671h-15.754v-14.966h15.754V238.671z M302.48,208.738h-15.754v-14.966h15.754V208.738z M302.48,178.806h-15.754
		V163.84h15.754V178.806z M302.48,148.874h-15.754v-14.966h15.754V148.874z M302.48,118.942h-15.754v-14.966h15.754V118.942z"/>
	<rect x="286.726" y="313.502" style="fill:#183651;" width="15.754" height="15.754"/>
	<rect x="317.446" y="313.502" style="fill:#183651;" width="7.877" height="15.754"/>
</g>
<rect x="331.625" y="281.994" style="fill:#FFFFFF;" width="77.982" height="77.982"/>
<g>
	<path style="fill:#183651;" d="M409.606,367.852h-77.982c-4.726,0-7.877-3.151-7.877-7.877v-77.982
		c0-4.726,3.151-7.877,7.877-7.877h77.982c4.726,0,7.877,3.151,7.877,7.877v77.982C417.483,364.702,414.333,367.852,409.606,367.852
		z M339.502,352.098h62.228v-62.228h-62.228V352.098z"/>
	<rect x="154.394" y="74.043" style="fill:#183651;" width="7.877" height="15.754"/>
	<rect x="174.874" y="74.043" style="fill:#183651;" width="12.603" height="15.754"/>
	<rect x="200.868" y="74.043" style="fill:#183651;" width="15.754" height="15.754"/>
	<path style="fill:#183651;" d="M216.622,298.535h-15.754v-14.966h15.754V298.535z M216.622,268.603h-15.754v-14.966h15.754V268.603
		z M216.622,238.671h-15.754v-14.966h15.754V238.671z M216.622,208.738h-15.754v-14.966h15.754V208.738z M216.622,178.806h-15.754
		V163.84h15.754V178.806z M216.622,148.874h-15.754v-14.966h15.754V148.874z M216.622,118.942h-15.754v-14.966h15.754V118.942z"/>
	<rect x="200.868" y="313.502" style="fill:#183651;" width="15.754" height="15.754"/>
	<rect x="178.025" y="313.502" style="fill:#183651;" width="7.877" height="15.754"/>
</g>
<rect x="93.742" y="281.994" style="fill:#FFFFFF;" width="77.982" height="77.982"/>
<path style="fill:#183651;" d="M171.723,367.852H93.742c-4.726,0-7.877-3.151-7.877-7.877v-77.982c0-4.726,3.151-7.877,7.877-7.877
	h77.982c4.726,0,7.877,3.151,7.877,7.877v77.982C179.6,364.702,175.662,367.852,171.723,367.852z M101.619,352.098h62.228v-62.228
	h-62.228V352.098z"/>
<g>
</g>
<g>
</g>
<g>
</g>
<g>
</g>
<g>
</g>
<g>
</g>
<g>
</g>
<g>
</g>
<g>
</g>
<g>
</g>
<g>
</g>
<g>
</g>
<g>
</g>
<g>
</g>
<g>
</g>
</svg>
