<?xml version="1.0" encoding="iso-8859-1"?>
<!-- Generator: Adobe Illustrator 19.0.0, SVG Export Plug-In . SVG Version: 6.00 Build 0)  -->
<svg version="1.1" id="Capa_1" xmlns="http://www.w3.org/2000/svg" xmlns:xlink="http://www.w3.org/1999/xlink" x="0px" y="0px"
	 viewBox="0 0 504.123 504.123" style="enable-background:new 0 0 504.123 504.123;" xml:space="preserve">
<circle style="fill:#4FBF9F;" cx="252.062" cy="252.062" r="252.062"/>
<circle style="fill:#FFFFFF;" cx="252.062" cy="182.745" r="157.538"/>
<path style="fill:#183651;" d="M252.062,347.372c-90.585,0-164.628-74.043-164.628-164.628S161.477,18.117,252.062,18.117
	S416.689,92.16,416.689,182.745S342.646,347.372,252.062,347.372z M252.062,33.083c-82.708,0-149.662,66.954-149.662,149.662
	s66.954,149.662,149.662,149.662s149.662-66.954,149.662-149.662S334.769,33.083,252.062,33.083z"/>
<path style="fill:#FFFFFF;" d="M352.886,411.963v-32.295l-23.631-3.151c-1.575-7.877-4.726-14.966-8.665-22.055l14.966-18.905
	l-22.843-22.843l-18.905,14.966c-6.302-3.938-14.178-7.089-22.055-8.665l0,0c-1.575-15.754-3.151-32.295-3.151-48.049V245.76h24.418
	l-40.96-67.742l-40.96,67.742h24.418v25.206c0,15.754-0.788,32.295-3.151,48.049c-7.877,1.575-14.966,4.726-22.055,8.665
	l-18.905-14.966l-22.055,23.631l14.966,18.905c-3.938,6.302-7.089,14.178-8.665,22.055l-23.631,3.151v32.295l23.631,3.151
	c1.575,7.877,4.726,14.966,8.665,22.055l-14.966,17.329l22.843,22.843l18.905-14.966c6.302,3.938,14.178,7.089,22.055,8.665
	l3.151,23.631h32.295l3.151-23.631c7.877-1.575,14.966-4.726,22.055-8.665l18.905,14.966l22.843-22.843l-14.966-18.905
	c3.938-6.302,7.089-14.178,8.665-22.055L352.886,411.963z"/>
<path style="fill:#183651;" d="M274.905,504.123h-45.686l-3.151-25.206c-4.726-1.575-9.452-3.151-14.178-5.514l-20.48,15.754
	l-32.295-32.295l15.754-20.48c-2.363-4.726-4.726-9.452-5.514-14.178l-25.206-3.151v-45.686l25.206-3.151
	c1.575-4.726,3.151-9.452,5.514-14.178l-15.754-20.48l32.295-32.295l20.48,15.754c4.726-2.363,9.452-4.726,14.178-5.514
	c1.575-14.178,2.363-28.357,2.363-41.748v-17.329h-30.72l54.351-89.797l54.351,89.797h-30.72v17.329
	c0,14.178,0.788,28.357,2.363,41.748c4.726,1.575,9.452,3.151,14.178,5.514l20.48-15.754l32.295,32.295l-15.754,20.48
	c2.363,4.726,4.726,9.452,5.514,14.178l25.206,3.151v45.686l-25.206,3.151c-1.575,4.726-3.151,9.452-5.514,14.178l15.754,20.48
	l-32.295,32.295l-20.48-15.754c-4.726,2.363-9.452,4.726-14.178,5.514L274.905,504.123z M242.609,489.157h18.905l2.363-22.055
	l4.726-1.575c7.089-1.575,13.391-4.726,19.692-7.877l4.726-2.363l18.117,13.391l13.391-13.391l-14.178-18.117l2.363-4.726
	c3.938-6.302,6.302-12.603,7.877-19.692l1.575-4.726l22.055-2.363v-18.905l-22.055-2.363l-1.575-4.726
	c-1.575-7.089-4.726-13.391-7.877-19.692l-2.363-4.726l14.178-18.117l-13.391-13.391l-18.117,14.178l-3.938-3.151
	c-6.302-3.938-12.603-6.302-19.692-7.877l-5.514-1.575v-5.514c-1.575-15.754-3.151-32.295-3.151-48.837v-32.295h18.905
	l-27.569-45.686l-27.569,45.686h18.905v32.295c0,16.542-0.788,33.083-3.151,48.837v5.514l-5.514,1.575
	c-7.089,1.575-13.391,4.726-19.692,7.877l-4.726,2.363l-17.329-13.391l-13.391,13.391l14.178,18.117l-2.363,4.726
	c-3.938,6.302-6.302,12.603-7.877,19.692l-1.575,4.726l-22.055,2.363v18.905l22.055,2.363l1.575,4.726
	c1.575,7.089,4.726,13.391,7.877,19.692l2.363,4.726l-14.178,18.117l13.391,13.391l18.117-14.178l4.726,2.363
	c6.302,3.938,12.603,6.302,19.692,7.877l4.726,1.575L242.609,489.157z"/>
<circle style="fill:#F06151;" cx="252.062" cy="396.209" r="55.926"/>
<circle style="fill:#FFFFFF;" cx="252.062" cy="396.209" r="20.48"/>
<g>
	<path style="fill:#183651;" d="M252.062,423.778c-15.754,0-27.569-12.603-27.569-27.569s12.603-27.569,27.569-27.569
		c7.089,0,14.178,3.151,19.692,7.877c5.514,5.514,7.877,12.603,7.877,19.692C279.631,411.175,267.815,423.778,252.062,423.778z
		 M252.062,382.818c-7.089,0-12.603,5.514-12.603,12.603c0,7.089,5.514,12.603,12.603,12.603c7.089,0,12.603-5.514,12.603-12.603
		C264.665,389.12,259.151,382.818,252.062,382.818z"/>
	<rect x="197.711" y="134.695" style="fill:#183651;" width="14.966" height="14.966"/>
	<rect x="244.185" y="134.695" style="fill:#183651;" width="14.966" height="14.966"/>
	<rect x="291.446" y="134.695" style="fill:#183651;" width="14.966" height="14.966"/>
</g>
<rect x="319.015" y="174.868" style="fill:#183651;" width="90.585" height="14.966"/>
<rect x="94.523" y="174.868" style="fill:#183651;" width="90.585" height="14.966"/>
<g>
	<rect x="244.185" y="25.206" style="fill:#183651;" width="14.966" height="90.585"/>
	<path style="fill:#183651;" d="M354.462,160.689c-8.665-40.172-40.172-71.68-80.345-80.345l3.151-14.966
		c45.686,9.452,81.92,45.686,92.16,92.16L354.462,160.689z"/>
	<path style="fill:#183651;" d="M149.662,160.689l-14.966-3.151c9.452-45.686,45.686-81.92,92.16-92.16l3.151,14.966
		C189.834,89.009,158.326,120.517,149.662,160.689z"/>
	<path style="fill:#183651;" d="M301.686,291.446l-6.302-14.178c29.932-13.391,51.988-40.96,58.289-73.255l14.966,3.151
		C360.763,244.185,336.345,275.692,301.686,291.446z"/>
	<path style="fill:#183651;" d="M201.649,290.658c-33.871-15.754-58.289-47.262-66.166-83.495l14.966-3.151
		c7.089,31.508,28.357,59.077,57.502,72.468L201.649,290.658z"/>
	<polygon style="fill:#183651;" points="450.56,361.551 425.354,331.618 400.148,361.551 388.332,351.311 425.354,307.988 
		461.588,351.311 	"/>
	<polygon style="fill:#183651;" points="493.095,456.074 417.477,456.074 417.477,319.803 432.443,319.803 432.443,441.108 
		493.095,441.108 	"/>
	<polygon style="fill:#183651;" points="103.975,361.551 78.769,331.618 53.563,361.551 42.535,351.311 78.769,307.988 
		115.791,351.311 	"/>
	<polygon style="fill:#183651;" points="86.646,456.074 11.028,456.074 11.028,441.108 71.68,441.108 71.68,319.803 86.646,319.803 
			"/>
</g>
<g>
</g>
<g>
</g>
<g>
</g>
<g>
</g>
<g>
</g>
<g>
</g>
<g>
</g>
<g>
</g>
<g>
</g>
<g>
</g>
<g>
</g>
<g>
</g>
<g>
</g>
<g>
</g>
<g>
</g>
</svg>
