<?xml version="1.0" encoding="iso-8859-1"?>
<!-- Generator: Adobe Illustrator 19.0.0, SVG Export Plug-In . SVG Version: 6.00 Build 0)  -->
<svg version="1.1" id="Capa_1" xmlns="http://www.w3.org/2000/svg" xmlns:xlink="http://www.w3.org/1999/xlink" x="0px" y="0px"
	 viewBox="0 0 504.123 504.123" style="enable-background:new 0 0 504.123 504.123;" xml:space="preserve">
<circle style="fill:#FBBD5E;" cx="291.446" cy="212.677" r="212.677"/>
<g>
	<rect x="453.711" y="460.8" style="fill:#183651;" width="15.754" height="15.754"/>
	<rect x="414.326" y="460.8" style="fill:#183651;" width="15.754" height="15.754"/>
	<rect x="374.942" y="460.8" style="fill:#183651;" width="15.754" height="15.754"/>
	<rect x="335.557" y="460.8" style="fill:#183651;" width="15.754" height="15.754"/>
	<rect x="296.172" y="460.8" style="fill:#183651;" width="15.754" height="15.754"/>
	<rect x="256.788" y="460.8" style="fill:#183651;" width="15.754" height="15.754"/>
	<rect x="217.403" y="460.8" style="fill:#183651;" width="15.754" height="15.754"/>
</g>
<circle style="fill:#FFFFFF;" cx="291.446" cy="212.677" r="175.655"/>
<path style="fill:#183651;" d="M291.446,396.209c-48.837,0-95.311-18.905-129.969-53.563s-53.563-81.132-53.563-129.969
	s18.905-95.311,53.563-129.969s81.132-53.563,129.969-53.563s95.311,18.905,129.969,53.563s53.563,81.132,53.563,129.969
	s-18.905,95.311-53.563,129.969S341.071,396.209,291.446,396.209z M291.446,44.111c-44.898,0-87.434,17.329-118.942,48.837
	s-48.837,74.043-48.837,118.942s17.329,87.434,48.837,118.942s74.043,48.837,118.942,48.837s87.434-17.329,118.942-48.837
	s48.837-74.043,48.837-118.942s-17.329-87.434-48.837-118.942S336.345,44.111,291.446,44.111z"/>
<path style="fill:#E0E4E8;" d="M291.446,212.677l45.686-139.422c-51.2-16.542-109.489-4.726-149.662,35.446L291.446,212.677
	L291.446,212.677z"/>
<path style="fill:#4FBF9F;" d="M437.957,212.677c0-37.809-14.178-74.831-42.535-103.975C378.88,92.16,358.4,80.345,337.92,73.255
	l-45.686,139.422H437.957z"/>
<g>
	<path style="fill:#F06151;" d="M291.446,212.677l103.975,103.975c28.357-28.357,42.535-66.166,42.535-103.975H291.446
		L291.446,212.677z"/>
	<path style="fill:#F06151;" d="M291.446,212.677L291.446,212.677L291.446,212.677z"/>
</g>
<path style="fill:#2EA0DA;" d="M291.446,212.677L291.446,212.677L188.258,108.702c-57.502,57.502-57.502,150.449,0,207.163
	c28.357,28.357,66.166,42.535,103.975,42.535L291.446,212.677z"/>
<g>
	<path style="fill:#FBBD5E;" d="M291.446,212.677L291.446,212.677v146.511c37.809,0,74.831-14.178,103.975-42.535L291.446,212.677z"
		/>
	<path style="fill:#FBBD5E;" d="M291.446,212.677L291.446,212.677L291.446,212.677z"/>
</g>
<path style="fill:#FFFFFF;" d="M126.818,314.289H99.249L85.858,466.314c-1.575,16.542,11.028,29.932,27.569,29.932
	s29.145-14.178,27.569-29.932L126.818,314.289z"/>
<path style="fill:#183651;" d="M112.64,504.123c-20.48,0-37.022-18.117-35.446-38.597l13.391-152.025
	c0-3.938,3.938-7.089,7.877-7.089h27.569c3.938,0,7.089,3.151,7.877,7.089l13.391,152.025
	C150.449,486.006,133.908,504.123,112.64,504.123z M106.338,322.166L92.948,467.102c-2.363,28.357,41.748,28.357,39.385,0
	l-13.391-144.935H106.338z"/>
<circle style="fill:#F06151;" cx="112.64" cy="251.274" r="104.763"/>
<path style="fill:#183651;" d="M112.64,364.702C50.412,364.702,0,314.289,0,252.062s50.412-112.64,112.64-112.64
	s112.64,50.412,112.64,112.64S175.655,364.702,112.64,364.702z M112.64,154.388c-53.563,0-96.886,43.323-96.886,96.886
	s43.323,97.674,96.886,97.674s96.886-43.323,96.886-96.886S166.991,154.388,112.64,154.388z"/>
<circle style="fill:#FFFFFF;" cx="112.64" cy="251.274" r="72.468"/>
<path style="fill:#183651;" d="M154.388,259.151c-4.726,0-7.877-3.151-7.877-7.877c0-18.117-14.966-33.083-33.083-33.083
	c-4.726,0-7.877-3.151-7.877-7.877c0-4.726,3.151-7.877,7.877-7.877c26.782,0,48.837,22.055,48.837,48.837
	C162.265,256,158.326,259.151,154.388,259.151z"/>
<g>
</g>
<g>
</g>
<g>
</g>
<g>
</g>
<g>
</g>
<g>
</g>
<g>
</g>
<g>
</g>
<g>
</g>
<g>
</g>
<g>
</g>
<g>
</g>
<g>
</g>
<g>
</g>
<g>
</g>
</svg>
