<?xml version="1.0" encoding="iso-8859-1"?>
<!-- Generator: Adobe Illustrator 19.0.0, SVG Export Plug-In . SVG Version: 6.00 Build 0)  -->
<svg version="1.1" id="Capa_1" xmlns="http://www.w3.org/2000/svg" xmlns:xlink="http://www.w3.org/1999/xlink" x="0px" y="0px"
	 viewBox="0 0 504.123 504.123" style="enable-background:new 0 0 504.123 504.123;" xml:space="preserve">
<circle style="fill:#E0E4E8;" cx="252.455" cy="194.56" r="194.56"/>
<path style="fill:#2EA0DA;" d="M243.791,32.295c-80.345,3.938-145.723,71.68-147.298,152.812
	c-0.788,50.412,22.055,95.311,59.077,124.455c13.391,10.24,20.48,26.782,20.48,44.111v44.111h151.237v-45.686
	c0-16.542,7.089-33.083,20.48-43.323c36.234-28.357,59.077-72.468,59.077-122.092C407.631,98.462,333.588,27.569,243.791,32.295z"/>
<path style="fill:#183651;" d="M328.074,405.662H176.049c-3.938,0-7.877-3.151-7.877-7.877v-44.898
	c0-14.966-6.302-29.145-17.329-37.809c-40.172-31.508-63.015-79.557-61.44-130.757C90.978,99.249,158.72,29.145,243.791,24.418
	c93.735-4.726,170.929,70.105,170.929,163.052c0,50.412-22.843,96.886-62.228,127.606c-11.028,8.665-17.329,22.843-17.329,37.022
	v45.686C335.163,402.511,332.012,405.662,328.074,405.662z M183.926,390.695h136.271v-38.597c0-19.692,8.665-37.809,22.843-48.837
	c36.234-28.357,56.714-70.892,56.714-115.791c0-84.283-70.892-152.025-155.963-147.298
	c-76.406,3.151-137.846,66.954-139.422,144.148c-0.788,46.474,19.692,89.797,55.926,118.154
	c14.966,11.815,23.631,29.932,23.631,49.625V390.695z"/>
<path style="fill:#FFFFFF;" d="M206.769,367.852v-14.966c0-26.782-11.815-51.2-32.295-67.742
	c-30.72-24.418-48.049-60.652-47.262-100.037C128,120.517,181.563,65.378,245.366,62.228c2.363,0,4.726,0,7.089,0
	c69.317,0,125.243,55.926,125.243,125.243c0,38.597-17.329,74.831-48.049,98.462c-19.692,15.754-31.508,40.172-31.508,66.954v15.754
	h-91.372V367.852z"/>
<g>
	<rect x="244.578" y="256.788" style="fill:#183651;" width="14.966" height="14.966"/>
	<rect x="244.578" y="286.72" style="fill:#183651;" width="14.966" height="14.966"/>
	<rect x="244.578" y="316.652" style="fill:#183651;" width="14.966" height="14.966"/>
</g>
<path style="fill:#FBBD5E;" d="M484.825,140.997v-29.932l-22.055-2.363c-1.575-7.089-4.726-14.178-8.665-20.48l14.178-18.117
	l-21.268-21.268l-18.117,14.178c-7.089-3.938-13.391-7.089-20.48-8.665l-2.363-22.055h-29.932l-2.363,22.055
	c-7.089,1.575-14.178,4.726-20.48,8.665l-18.117-14.178l-21.268,21.268l14.178,18.117c-3.938,6.302-6.302,13.391-8.665,20.48
	l-23.631,2.363v29.932l22.055,2.363c1.575,7.089,4.726,14.178,8.665,20.48l-14.178,18.117l21.268,21.268l18.117-14.178
	c6.302,3.938,13.391,6.302,20.48,8.665l2.363,22.055h29.932l2.363-22.055c7.089-1.575,14.178-4.726,20.48-8.665l18.117,14.178
	l21.268-21.268l-14.178-18.117c3.938-6.302,6.302-13.391,8.665-20.48L484.825,140.997z"/>
<path style="fill:#183651;" d="M405.268,228.431h-29.932c-3.938,0-7.089-3.151-7.089-6.302l-2.363-17.329
	c-4.726-1.575-8.665-3.151-12.603-5.514l-14.178,11.028c-3.151,2.363-7.089,2.363-10.24-0.788l-21.268-21.268
	c-2.363-2.363-3.151-7.089-0.788-10.24l11.028-14.178c-2.363-3.938-3.938-8.665-5.514-12.603l-17.329-2.363
	c-3.938-0.788-6.302-3.938-6.302-7.089v-29.932c0-3.938,3.151-7.089,6.302-7.089l17.329-2.363c1.575-4.726,3.151-8.665,5.514-12.603
	l-11.028-14.966c-2.363-3.151-2.363-7.089,0.788-10.24l21.268-21.268c2.363-2.363,7.089-3.151,10.24-0.788l14.178,11.028
	c3.938-2.363,8.665-3.938,12.603-5.514l2.363-17.329c0.788-3.938,3.938-6.302,7.089-6.302h29.932c3.938,0,7.089,3.151,7.089,6.302
	l2.363,17.329c4.726,1.575,8.665,3.151,12.603,5.514l14.178-11.028c3.151-2.363,7.089-2.363,10.24,0.788l21.268,21.268
	c2.363,2.363,3.151,7.089,0.788,10.24l-11.028,14.178c2.363,3.938,3.938,8.665,5.514,12.603l17.329,2.363
	c3.938,0.788,6.302,3.938,6.302,7.089v29.932c0,3.938-3.151,7.089-6.302,7.089l-17.329,2.363c-1.575,4.726-3.151,8.665-5.514,12.603
	l11.028,14.178c2.363,3.151,2.363,7.089-0.788,10.24l-21.268,21.268c-2.363,2.363-7.089,3.151-10.24,0.788l-14.178-11.028
	c-3.938,2.363-8.665,3.938-12.603,5.514l-2.363,17.329C412.357,225.28,409.206,228.431,405.268,228.431z M381.637,213.465h17.329
	l1.575-15.754c0-3.151,2.363-5.514,5.514-6.302c6.302-1.575,12.603-3.938,18.117-7.877c2.363-1.575,6.302-1.575,8.665,0.788
	l12.603,9.452l11.815-11.815l-9.452-12.603c-1.575-2.363-2.363-5.514-0.788-8.665c3.151-5.514,6.302-11.815,7.877-18.117
	c0.788-3.151,3.151-5.514,6.302-5.514l15.754-1.575v-17.329l-15.754-1.575c-3.151,0-5.514-2.363-6.302-5.514
	c-1.575-6.302-3.938-12.603-7.877-18.117c-1.575-2.363-1.575-6.302,0.788-8.665l9.452-12.603L445.44,59.077l-12.603,9.452
	c-2.363,1.575-5.514,2.363-8.665,0.788c-5.514-3.151-11.815-6.302-18.117-7.877c-3.151-0.788-5.514-3.151-5.514-6.302l-1.575-15.754
	h-17.329l-1.575,15.754c0,3.151-2.363,5.514-5.514,6.302c-6.302,1.575-12.603,3.938-18.117,7.877
	c-2.363,1.575-6.302,1.575-8.665-0.788l-13.391-9.452L322.56,70.892l9.452,12.603c1.575,2.363,2.363,5.514,0.788,8.665
	c-3.151,5.514-6.302,11.815-7.877,18.117c-0.788,3.151-3.151,5.514-6.302,5.514l-15.754,1.575v17.329l15.754,1.575
	c3.151,0,5.514,2.363,6.302,5.514c1.575,6.302,3.938,12.603,7.877,18.117c1.575,2.363,1.575,6.302-0.788,8.665l-9.452,12.603
	l11.815,11.815l12.603-9.452c2.363-1.575,5.514-2.363,8.665-0.788c5.514,3.151,11.815,6.302,18.117,7.877
	c3.151,0.788,5.514,3.151,5.514,6.302L381.637,213.465z"/>
<circle style="fill:#FFFFFF;" cx="390.302" cy="126.031" r="33.083"/>
<path style="fill:#183651;" d="M390.302,166.991L390.302,166.991c-22.055,0-40.172-18.117-40.172-40.172
	s18.117-40.172,40.172-40.172c22.055,0,40.172,18.117,40.172,40.172S412.357,166.991,390.302,166.991z M390.302,100.825
	c-14.178,0-25.206,11.815-25.206,25.206s11.815,25.206,25.206,25.206c14.178,0,25.206-11.815,25.206-25.206
	S404.48,100.825,390.302,100.825z"/>
<rect x="20.086" y="147.298" style="fill:#FFFFFF;" width="138.634" height="103.188"/>
<path style="fill:#183651;" d="M158.72,257.575L158.72,257.575H20.086c-3.938,0-7.877-3.151-7.877-7.877v-102.4
	c0-2.363,0.788-3.938,2.363-5.514c1.575-1.575,3.151-2.363,5.514-2.363l0,0H158.72c3.938,0,7.877,3.151,7.877,7.877v103.188
	c0,2.363-0.788,3.938-2.363,5.514C162.658,256.788,161.083,257.575,158.72,257.575z M27.963,242.609h123.668v-88.222H27.963V242.609
	z"/>
<rect x="42.929" y="177.231" style="fill:#4FBF9F;" width="86.646" height="43.323"/>
<polygon style="fill:#FBBD5E;" points="158.72,250.486 255.606,198.498 158.72,147.298 "/>
<g>
	<path style="fill:#183651;" d="M158.72,257.575c-1.575,0-2.363,0-3.938-0.788c-2.363-1.575-3.938-3.938-3.938-6.302V147.298
		c0-2.363,1.575-4.726,3.938-6.302c2.363-1.575,4.726-1.575,7.089,0l96.886,51.2c2.363,1.575,3.938,3.938,3.938,6.302
		c0,3.151-1.575,5.514-3.938,6.302L161.871,256C161.083,257.575,160.295,257.575,158.72,257.575z M166.597,159.902v77.982
		l73.255-39.385L166.597,159.902z"/>
	<polyline style="fill:#183651;" points="223.311,215.828 255.606,198.498 223.311,181.169 	"/>
	<path style="fill:#183651;" d="M223.311,223.705c-2.363,0-5.514-1.575-6.302-3.938c-1.575-3.938-0.788-7.877,3.151-10.24
		l20.48-11.028l-20.48-11.028c-3.938-1.575-4.726-6.302-3.151-10.24c1.575-3.938,6.302-4.726,10.24-3.151l33.083,17.329
		c2.363,1.575,3.938,3.938,3.938,6.302c0,3.151-1.575,5.514-3.938,6.302l-33.083,17.329
		C225.674,223.705,224.098,223.705,223.311,223.705z"/>
</g>
<path style="fill:#E0E4E8;" d="M317.834,496.246H186.289c-11.815,0-21.268-9.452-21.268-21.268V367.065h174.08v107.914
	C339.102,486.794,329.649,496.246,317.834,496.246z"/>
<path style="fill:#183651;" d="M318.622,504.123h-133.12c-14.966,0-27.569-12.603-27.569-27.569V367.065
	c0-3.938,3.151-7.877,7.877-7.877h174.08c3.938,0,7.877,3.151,7.877,7.877v109.489C346.191,491.52,334.375,504.123,318.622,504.123z
	 M172.898,374.942v101.612c0,7.089,5.514,12.603,12.603,12.603h133.12c7.089,0,12.603-5.514,12.603-12.603V374.942H172.898z"/>
<path style="fill:#183651;" d="M350.129,402.511H153.994c-3.938,0-7.877-3.151-7.877-7.877c0-3.938,3.151-7.877,7.877-7.877h196.135
	c3.938,0,7.877,3.151,7.877,7.877C358.006,399.36,354.068,402.511,350.129,402.511z"/>
<path style="fill:#183651;" d="M350.129,439.532H153.994c-3.938,0-7.877-3.151-7.877-7.877c0-4.726,3.151-7.877,7.877-7.877h196.135
	c3.938,0,7.877,3.151,7.877,7.877C358.006,436.382,354.068,439.532,350.129,439.532z"/>
<path style="fill:#183651;" d="M350.129,475.766H153.994c-3.938,0-7.877-3.151-7.877-7.877s3.151-7.877,7.877-7.877h196.135
	c3.938,0,7.877,3.151,7.877,7.877S354.068,475.766,350.129,475.766z"/>
<g>
</g>
<g>
</g>
<g>
</g>
<g>
</g>
<g>
</g>
<g>
</g>
<g>
</g>
<g>
</g>
<g>
</g>
<g>
</g>
<g>
</g>
<g>
</g>
<g>
</g>
<g>
</g>
<g>
</g>
</svg>
