<?xml version="1.0" encoding="iso-8859-1"?>
<!-- Generator: Adobe Illustrator 19.0.0, SVG Export Plug-In . SVG Version: 6.00 Build 0)  -->
<svg version="1.1" id="Capa_1" xmlns="http://www.w3.org/2000/svg" xmlns:xlink="http://www.w3.org/1999/xlink" x="0px" y="0px"
	 viewBox="0 0 504.123 504.123" style="enable-background:new 0 0 504.123 504.123;" xml:space="preserve">
<circle style="fill:#4FBF9F;" cx="252.062" cy="252.062" r="252.062"/>
<path style="fill:#FBBD5E;" d="M464.738,220.554c-9.452,0-18.117,3.938-23.631,11.028V63.015H272.542
	c6.302-5.514,11.028-14.178,11.028-23.631c0-17.329-14.178-31.508-31.508-31.508s-31.508,14.178-31.508,31.508
	c0,9.452,3.938,18.117,11.028,23.631H63.015v168.566c-5.514-6.302-14.178-11.028-23.631-11.028
	c-17.329,0-31.508,14.178-31.508,31.508s14.178,31.508,31.508,31.508c9.452,0,18.117-3.938,23.631-11.028v168.566h168.566
	c-6.302,5.514-11.028,14.178-11.028,23.631c0,17.329,14.178,31.508,31.508,31.508s31.508-14.178,31.508-31.508
	c0-9.452-3.938-18.117-11.028-23.631h168.566V272.542c5.514,6.302,14.178,11.028,23.631,11.028
	c17.329,0,31.508-14.178,31.508-31.508S482.068,220.554,464.738,220.554z"/>
<path style="fill:#183651;" d="M252.062,504.123c-22.055,0-39.385-17.329-39.385-39.385c0-5.514,0.788-11.028,3.151-15.754H63.015
	c-4.726,0-7.877-3.151-7.877-7.877V288.295c-4.726,2.363-10.24,3.151-15.754,3.151C17.329,291.446,0,274.117,0,252.062
	s17.329-39.385,39.385-39.385c5.514,0,11.028,0.788,15.754,3.151V63.015c0-4.726,3.151-7.877,7.877-7.877h152.812
	c-2.363-4.726-3.151-10.24-3.151-15.754C212.677,17.329,230.006,0,252.062,0s39.385,17.329,39.385,39.385
	c0,5.514-0.788,11.028-3.151,15.754h152.812c4.726,0,7.877,3.151,7.877,7.877v152.812c4.726-2.363,10.24-3.151,15.754-3.151
	c22.055,0,39.385,17.329,39.385,39.385s-17.329,39.385-39.385,39.385c-5.514,0-11.028-0.788-15.754-3.151v152.812
	c0,4.726-3.151,7.877-7.877,7.877H288.295c2.363,4.726,3.151,10.24,3.151,15.754C291.446,486.794,274.117,504.123,252.062,504.123z
	 M70.892,433.231h160.689c3.151,0,6.302,2.363,7.089,4.726c0.788,2.363,0,6.302-2.363,8.665c-5.514,4.726-7.877,11.028-7.877,17.329
	c0,13.391,10.24,23.631,23.631,23.631c13.391,0,23.631-10.24,23.631-23.631c0-7.089-3.151-13.391-7.877-17.329
	c-2.363-2.363-3.151-5.514-2.363-8.665c0.788-3.151,3.938-4.726,7.089-4.726h160.689V272.542c0-3.151,2.363-6.302,4.726-7.089
	c3.151-0.788,6.302,0,8.665,2.363c4.726,5.514,11.028,7.877,17.329,7.877c13.391,0,23.631-10.24,23.631-23.631
	c0-13.391-10.24-23.631-23.631-23.631c-7.089,0-13.391,3.151-17.329,7.877c-2.363,2.363-5.514,3.151-8.665,2.363
	c-3.151-0.788-4.726-3.938-4.726-7.089V70.892H272.542c-3.151,0-6.302-2.363-7.089-4.726c-0.788-2.363,0-6.302,2.363-8.665
	c5.514-4.726,7.877-11.028,7.877-17.329c0-13.391-10.24-23.631-23.631-23.631c-13.391,0-23.631,10.24-23.631,23.631
	c0,7.089,3.151,13.391,7.877,17.329c3.151,1.575,3.938,5.514,2.363,8.665c-1.575,3.151-3.938,4.726-7.089,4.726H70.892v160.689
	c0,3.151-2.363,6.302-4.726,7.089c-3.151,0.788-6.302,0-8.665-2.363c-4.726-5.514-11.028-7.877-17.329-7.877
	c-13.391,0-23.631,10.24-23.631,23.631c0,13.391,10.24,23.631,23.631,23.631c7.089,0,13.391-3.151,17.329-7.877
	c1.575-3.151,5.514-3.938,8.665-2.363c3.151,0.788,4.726,3.938,4.726,7.089V433.231z"/>
<rect x="94.523" y="94.523" style="fill:#FFFFFF;" width="315.077" height="315.077"/>
<polygon style="fill:#F06151;" points="268.603,240.246 235.52,240.246 244.185,256 239.458,312.714 264.665,312.714 
	260.726,255.212 "/>
<path style="fill:#E1E6E7;" d="M293.809,234.732l-41.748,74.043l-41.748-74.043c-40.172,16.542-68.529,55.926-68.529,102.4h221.342
	C363.126,290.658,333.982,251.274,293.809,234.732z"/>
<circle style="fill:#173651;" cx="252.062" cy="179.594" r="44.111"/>
<g>
	<rect x="119.729" y="118.154" style="fill:#183651;" width="15.754" height="15.754"/>
	<rect x="368.64" y="118.154" style="fill:#183651;" width="15.754" height="15.754"/>
	<rect x="119.729" y="362.338" style="fill:#183651;" width="15.754" height="15.754"/>
	<rect x="368.64" y="362.338" style="fill:#183651;" width="15.754" height="15.754"/>
</g>
<g>
</g>
<g>
</g>
<g>
</g>
<g>
</g>
<g>
</g>
<g>
</g>
<g>
</g>
<g>
</g>
<g>
</g>
<g>
</g>
<g>
</g>
<g>
</g>
<g>
</g>
<g>
</g>
<g>
</g>
</svg>
