<?xml version="1.0" encoding="iso-8859-1"?>
<!-- Generator: Adobe Illustrator 19.0.0, SVG Export Plug-In . SVG Version: 6.00 Build 0)  -->
<svg version="1.1" id="Capa_1" xmlns="http://www.w3.org/2000/svg" xmlns:xlink="http://www.w3.org/1999/xlink" x="0px" y="0px"
	 viewBox="0 0 504.123 504.123" style="enable-background:new 0 0 504.123 504.123;" xml:space="preserve">
<circle style="fill:#2EA0DA;" cx="350.523" cy="350.523" r="153.6"/>
<rect x="7.877" y="7.877" style="fill:#FBBD5E;" width="460.012" height="351.311"/>
<path style="fill:#183651;" d="M467.889,367.065H7.877c-4.726,0-7.877-3.151-7.877-7.877V7.877C0,3.151,3.151,0,7.877,0h460.012
	c4.726,0,7.877,3.151,7.877,7.877v351.311C475.766,363.126,471.828,367.065,467.889,367.065z M15.754,351.311h444.258V15.754H15.754
	V351.311z"/>
<g>
	<rect x="39.385" y="39.385" style="fill:#FFFFFF;" width="396.997" height="288.295"/>
	<circle style="fill:#FFFFFF;" cx="350.523" cy="350.523" r="122.88"/>
</g>
<path style="fill:#183651;" d="M350.523,481.28c-72.468,0-130.757-59.077-130.757-130.757c0-72.468,59.077-130.757,130.757-130.757
	c72.468,0,130.757,59.077,130.757,130.757C481.28,422.991,422.991,481.28,350.523,481.28z M350.523,235.52
	c-63.803,0-115.003,51.988-115.003,115.003s51.2,115.003,115.003,115.003s115.003-51.2,115.003-115.003
	S414.326,235.52,350.523,235.52z"/>
<path style="fill:#2EA0DA;" d="M350.523,256.788c-51.988,0-93.735,42.535-93.735,93.735h93.735V256.788z"/>
<path style="fill:#E0E4E8;" d="M350.523,350.523v93.735l0,0c51.988,0,93.735-42.535,93.735-93.735H350.523z"/>
<path style="fill:#4FBF9F;" d="M350.523,350.523h-93.735c0,51.988,42.535,93.735,93.735,93.735V350.523L350.523,350.523z"/>
<path style="fill:#F06151;" d="M350.523,256.788L350.523,256.788v93.735l0,0l66.166-66.166
	C400.148,267.028,376.517,256.788,350.523,256.788z"/>
<path style="fill:#FBBD5E;" d="M416.689,284.357l-66.166,66.166h93.735l0,0C444.258,324.529,434.018,300.898,416.689,284.357z"/>
<path style="fill:#183651;" d="M219.766,161.477c-2.363,0-3.938-0.788-5.514-2.363L153.6,99.249l-44.111,44.111
	c-3.151,3.151-7.877,3.151-11.028,0c-3.151-3.151-3.151-7.877,0-11.028l49.625-49.625c3.151-3.151,7.877-3.151,11.028,0
	l59.865,59.865l44.898-44.111c3.151-3.151,7.877-3.151,11.028,0s3.151,7.877,0,11.028l-49.625,49.625
	C223.705,160.689,221.342,161.477,219.766,161.477z"/>
<circle style="fill:#FFFFFF;" cx="219.766" cy="153.6" r="23.631"/>
<path style="fill:#183651;" d="M219.766,185.108c-17.329,0-31.508-14.178-31.508-31.508s14.178-31.508,31.508-31.508
	s31.508,14.178,31.508,31.508S237.095,185.108,219.766,185.108z M219.766,137.846c-8.665,0-15.754,7.089-15.754,15.754
	c0,8.665,7.089,15.754,15.754,15.754c8.665,0,15.754-7.089,15.754-15.754C235.52,144.935,228.431,137.846,219.766,137.846z"/>
<circle style="fill:#FFFFFF;" cx="286.72" cy="86.646" r="23.631"/>
<path style="fill:#183651;" d="M286.72,118.942c-17.329,0-31.508-14.178-31.508-31.508s14.178-31.508,31.508-31.508
	c17.329,0,31.508,14.178,31.508,31.508S304.049,118.942,286.72,118.942z M286.72,70.892c-8.665,0-15.754,7.089-15.754,15.754
	s7.089,15.754,15.754,15.754c8.665,0,15.754-7.089,15.754-15.754S295.385,70.892,286.72,70.892z"/>
<circle style="fill:#FFFFFF;" cx="86.646" cy="153.6" r="23.631"/>
<path style="fill:#183651;" d="M86.646,185.108c-17.329,0-31.508-14.178-31.508-31.508s14.178-31.508,31.508-31.508
	s31.508,14.178,31.508,31.508S103.975,185.108,86.646,185.108z M86.646,137.846c-8.665,0-15.754,7.089-15.754,15.754
	c0,8.665,7.089,15.754,15.754,15.754S102.4,162.265,102.4,153.6C102.4,144.935,95.311,137.846,86.646,137.846z"/>
<circle style="fill:#FFFFFF;" cx="153.6" cy="86.646" r="23.631"/>
<path style="fill:#183651;" d="M153.6,118.942c-17.329,0-31.508-14.178-31.508-31.508s14.178-31.508,31.508-31.508
	s31.508,14.178,31.508,31.508S170.929,118.942,153.6,118.942z M153.6,70.892c-8.665,0-15.754,7.089-15.754,15.754
	S144.935,102.4,153.6,102.4c8.665,0,15.754-7.089,15.754-15.754S162.265,70.892,153.6,70.892z"/>
<rect x="356.825" y="78.769" style="fill:#183651;" width="56.714" height="15.754"/>
<rect x="356.825" y="115.003" style="fill:#183651;" width="56.714" height="15.754"/>
<rect x="356.825" y="151.237" style="fill:#183651;" width="56.714" height="15.754"/>
<rect x="67.742" y="211.889" style="fill:#183651;" width="106.338" height="15.754"/>
<g>
	<rect x="67.742" y="251.274" style="fill:#183651;" width="106.338" height="15.754"/>
	<rect x="67.742" y="291.446" style="fill:#183651;" width="15.754" height="15.754"/>
	<rect x="112.64" y="291.446" style="fill:#183651;" width="15.754" height="15.754"/>
	<rect x="158.326" y="291.446" style="fill:#183651;" width="15.754" height="15.754"/>
</g>
<g>
</g>
<g>
</g>
<g>
</g>
<g>
</g>
<g>
</g>
<g>
</g>
<g>
</g>
<g>
</g>
<g>
</g>
<g>
</g>
<g>
</g>
<g>
</g>
<g>
</g>
<g>
</g>
<g>
</g>
</svg>
