<?xml version="1.0" encoding="iso-8859-1"?>
<!-- Generator: Adobe Illustrator 19.0.0, SVG Export Plug-In . SVG Version: 6.00 Build 0)  -->
<svg version="1.1" id="Capa_1" xmlns="http://www.w3.org/2000/svg" xmlns:xlink="http://www.w3.org/1999/xlink" x="0px" y="0px"
	 viewBox="0 0 504.123 504.123" style="enable-background:new 0 0 504.123 504.123;" xml:space="preserve">
<circle style="fill:#4FBF9F;" cx="252.062" cy="252.062" r="252.062"/>
<path style="fill:#E0E4E8;" d="M496.246,247.335V146.511c0-22.843-18.117-40.96-40.96-40.96c-22.843,0-41.748,18.117-41.748,40.96
	v100.825L496.246,247.335L496.246,247.335z"/>
<path style="fill:#183651;" d="M496.246,255.212h-82.708c-4.726,0-7.877-3.151-7.877-7.877V146.511
	c0-26.782,22.055-48.837,48.837-48.837s48.837,22.055,48.837,48.837v100.825C504.123,251.274,500.185,255.212,496.246,255.212z
	 M421.415,239.458h66.954v-92.948c0-18.117-14.966-33.083-33.083-33.083c-18.117,0-33.871,14.178-33.871,33.083V239.458z"/>
<path style="fill:#FFFFFF;" d="M437.169,223.705v-77.194c0-9.452,7.877-17.329,17.329-17.329c9.452,0,17.329,7.877,17.329,17.329
	v77.194H437.169L437.169,223.705z"/>
<path style="fill:#F06151;" d="M130.757,104.763c-22.843,0-40.96,18.117-40.96,40.96V460.8l34.658,34.658l42.535-42.535
	l42.535,42.535l42.535-42.535l42.535,42.535l42.535-42.535l42.535,42.535l34.658-34.658V145.723c0-22.843,18.117-40.96,40.96-40.96
	H130.757z"/>
<path style="fill:#183651;" d="M293.809,504.123c-2.363,0-3.938-0.788-5.514-2.363l-37.022-37.022l-37.022,37.022
	c-3.151,3.151-7.877,3.151-11.028,0l-37.022-37.022l-36.234,37.022c-3.151,3.151-7.877,3.151-11.028,0l-34.658-34.658
	c-1.575-1.575-2.363-3.151-2.363-5.514V146.511c0-26.782,22.055-48.837,48.837-48.837h323.742c4.726,0,7.877,3.151,7.877,7.877
	s-3.151,7.877-7.877,7.877c-18.117,0-33.083,14.966-33.083,33.083v315.077c0,2.363-0.788,3.938-2.363,5.514l-34.658,34.658
	c-3.151,3.151-7.877,3.151-11.028,0l-37.022-37.022l-37.022,37.022C297.748,503.335,296.172,504.123,293.809,504.123z
	 M97.674,458.437l26.782,26.782l37.022-37.022c3.151-3.151,7.877-3.151,11.028,0l37.022,37.022l37.022-37.022
	c3.151-3.151,7.877-3.151,11.028,0l37.022,37.022l37.022-37.022c3.151-3.151,7.877-3.151,11.028,0l37.022,37.022l26.782-26.782
	V146.511c0-12.603,4.726-24.418,13.391-33.083H130.757c-18.117,0-33.083,14.966-33.083,33.083
	C97.674,146.511,97.674,458.437,97.674,458.437z"/>
<path style="fill:#FFFFFF;" d="M336.345,409.6l-42.535,42.535L251.274,409.6l-42.535,42.535L166.203,409.6l-42.535,42.535
	l-3.151-3.151V146.511c0-5.514,4.726-9.452,9.452-9.452h251.274c0.788,3.151,0.788,6.302,0.788,9.452v301.686l-3.151,3.151
	L336.345,409.6z"/>
<path style="fill:#FBBD5E;" d="M126.031,196.135H89.009l-9.452,130.757c-0.788,16.542,11.815,29.932,28.357,29.932l0,0
	c16.542,0,29.145-14.178,28.357-29.932L126.031,196.135z"/>
<path style="fill:#183651;" d="M107.126,364.702c-20.48,0-37.022-17.329-35.446-38.597l9.452-130.757
	c0-3.938,3.938-7.089,7.877-7.089h37.022c3.938,0,7.877,3.151,7.877,7.089l9.452,131.545
	C144.935,347.372,128.394,364.702,107.126,364.702z M96.098,204.012L87.434,327.68c-0.788,11.028,7.877,21.268,18.905,21.268
	s22.055-7.877,21.268-21.268l-8.665-123.668L96.098,204.012L96.098,204.012z"/>
<circle style="fill:#2EA0DA;" cx="107.126" cy="107.126" r="99.249"/>
<path style="fill:#183651;" d="M107.126,215.04C48.049,215.04,0,166.991,0,107.914S48.049,0,107.126,0
	s107.126,48.049,107.126,107.126S166.991,215.04,107.126,215.04z M107.126,15.754c-50.412,0-91.372,40.96-91.372,91.372
	s40.96,91.372,91.372,91.372s91.372-40.96,91.372-91.372S157.538,15.754,107.126,15.754z"/>
<path style="fill:#FFFFFF;" d="M107.126,175.655c-37.809,0-67.742-30.72-67.742-67.742s30.72-67.742,67.742-67.742
	s67.742,30.72,67.742,67.742S144.935,175.655,107.126,175.655z"/>
<g>
	<path style="fill:#183651;" d="M144.148,115.003c-4.726,0-7.877-3.151-7.877-7.877c0-15.754-12.603-28.357-28.357-28.357
		c-4.726,0-7.877-3.151-7.877-7.877c0-4.726,3.151-7.877,7.877-7.877c24.418,0,44.111,19.692,44.111,44.111
		C152.025,111.852,148.086,115.003,144.148,115.003z"/>
	<rect x="194.56" y="204.012" style="fill:#183651;" width="160.689" height="15.754"/>
	<rect x="194.56" y="243.397" style="fill:#183651;" width="160.689" height="15.754"/>
	<rect x="194.56" y="282.782" style="fill:#183651;" width="160.689" height="15.754"/>
	<rect x="194.56" y="322.166" style="fill:#183651;" width="160.689" height="15.754"/>
	<rect x="194.56" y="361.551" style="fill:#183651;" width="15.754" height="15.754"/>
	<rect x="233.945" y="361.551" style="fill:#183651;" width="15.754" height="15.754"/>
	<rect x="273.329" y="361.551" style="fill:#183651;" width="15.754" height="15.754"/>
	<rect x="312.714" y="361.551" style="fill:#183651;" width="15.754" height="15.754"/>
</g>
<g>
</g>
<g>
</g>
<g>
</g>
<g>
</g>
<g>
</g>
<g>
</g>
<g>
</g>
<g>
</g>
<g>
</g>
<g>
</g>
<g>
</g>
<g>
</g>
<g>
</g>
<g>
</g>
<g>
</g>
</svg>
