<?xml version="1.0" encoding="iso-8859-1"?>
<!-- Generator: Adobe Illustrator 19.0.0, SVG Export Plug-In . SVG Version: 6.00 Build 0)  -->
<svg version="1.1" id="Capa_1" xmlns="http://www.w3.org/2000/svg" xmlns:xlink="http://www.w3.org/1999/xlink" x="0px" y="0px"
	 viewBox="0 0 504.123 504.123" style="enable-background:new 0 0 504.123 504.123;" xml:space="preserve">
<g>
	<rect x="14.966" y="104.763" style="fill:#183651;" width="15.754" height="15.754"/>
	<rect x="63.015" y="104.763" style="fill:#183651;" width="15.754" height="15.754"/>
	<rect x="111.065" y="104.763" style="fill:#183651;" width="15.754" height="15.754"/>
	<rect x="63.015" y="51.2" style="fill:#183651;" width="15.754" height="15.754"/>
	<rect x="111.065" y="51.2" style="fill:#183651;" width="15.754" height="15.754"/>
	<rect x="159.902" y="51.2" style="fill:#183651;" width="15.754" height="15.754"/>
</g>
<rect x="7.877" y="158.326" style="fill:#FBBD5E;" width="488.369" height="337.92"/>
<path style="fill:#183651;" d="M496.246,504.123H7.877c-4.726,0-7.877-3.151-7.877-7.877v-337.92c0-4.726,3.151-7.877,7.877-7.877
	h488.369c4.726,0,7.877,3.151,7.877,7.877v337.92C504.123,500.972,500.972,504.123,496.246,504.123z M15.754,488.369h472.615
	V166.203H15.754V488.369z"/>
<rect x="39.385" y="189.834" style="fill:#FFFFFF;" width="425.354" height="274.905"/>
<g>
	<path style="fill:#183651;" d="M66.166,261.514c-3.151-2.363-3.938-7.877-1.575-11.028l24.418-33.083
		c3.151-3.938,9.452-3.938,12.603,0l24.418,33.083c2.363,3.151,1.575,8.665-1.575,11.028c-3.151,2.363-8.665,1.575-11.028-1.575
		L95.311,235.52l-18.117,24.418C74.831,263.089,69.317,263.877,66.166,261.514z"/>
	<path style="fill:#183651;" d="M417.477,441.108H95.311c-4.726,0-7.877-3.151-7.877-7.877V221.342c0-4.726,3.151-7.877,7.877-7.877
		c4.726,0,7.877,3.151,7.877,7.877v204.012h314.289c4.726,0,7.877,3.151,7.877,7.877S421.415,441.108,417.477,441.108z"/>
</g>
<rect x="144.935" y="277.268" style="fill:#E0E4E8;" width="35.446" height="132.332"/>
<rect x="200.862" y="302.474" style="fill:#F06151;" width="35.446" height="107.126"/>
<rect x="256.788" y="322.166" style="fill:#FBBD5E;" width="35.446" height="87.434"/>
<rect x="312.714" y="338.708" style="fill:#2EA0DA;" width="35.446" height="70.892"/>
<rect x="368.64" y="352.098" style="fill:#4FBF9F;" width="35.446" height="57.502"/>
<path style="fill:#FFFFFF;" d="M334.769,285.932h44.898l3.938-33.083c11.028-2.363,20.48-7.089,29.932-12.603l25.994,20.48
	l31.508-31.508l-20.48-25.994c5.514-9.452,9.452-18.905,12.603-29.932l33.083-3.938v-44.898l-33.083-3.938
	c-2.363-11.028-7.089-20.48-12.603-29.932l20.48-25.994l-31.508-31.508l-25.994,20.48c-9.452-5.514-18.905-9.452-29.932-12.603
	l-3.938-33.083h-44.898l-3.938,33.083c-11.028,2.363-20.48,7.089-29.932,12.603l-25.994-20.48l-31.508,31.508l20.48,25.994
	c-5.514,9.452-9.452,18.905-12.603,29.932l-33.083,3.938v44.898l33.083,3.938c2.363,11.028,7.089,20.48,12.603,29.932l-20.48,25.994
	l31.508,31.508l25.994-20.48c9.452,5.514,18.905,9.452,29.932,12.603L334.769,285.932z"/>
<path style="fill:#183651;" d="M379.668,293.809h-44.898c-3.938,0-7.089-3.151-7.877-7.089l-3.151-27.569
	c-7.877-2.363-14.966-5.514-22.055-9.452l-22.055,17.329c-3.151,2.363-7.877,2.363-10.24-0.788l-31.508-31.508
	c-3.151-3.151-3.151-7.089-0.788-10.24l17.329-22.055c-3.938-7.089-7.089-14.178-9.452-22.055l-27.569-3.151
	c-3.938-0.788-7.089-3.938-7.089-7.877v-44.898c0-3.938,3.151-7.089,7.089-7.877l27.569-3.151
	c2.363-7.877,5.514-14.966,9.452-22.055l-17.329-22.055c-2.363-3.151-2.363-7.877,0.788-10.24l31.508-31.508
	c2.363-3.151,7.089-3.151,10.24-0.788l22.055,17.329c7.089-3.938,14.178-7.089,22.055-9.452l3.151-27.569
	C327.68,3.151,330.831,0,334.769,0l0,0h44.898c3.938,0,7.089,3.151,7.877,7.089l3.151,27.569c7.877,2.363,14.966,5.514,22.055,9.452
	l22.055-17.329c3.151-2.363,7.877-2.363,10.24,0.788l31.508,31.508c3.151,3.151,3.151,7.089,0.788,10.24l-17.329,22.055
	c3.938,7.089,7.089,14.178,9.452,22.055l27.569,3.151c3.938,0.788,7.089,3.938,7.089,7.877v44.898c0,3.938-3.151,7.089-7.089,7.877
	l-27.569,3.151c-2.363,7.877-5.514,14.966-9.452,22.055l17.329,22.055c2.363,3.151,2.363,7.877-0.788,10.24l-31.508,31.508
	c-3.151,3.151-7.089,3.151-10.24,0.788l-22.055-17.329c-7.089,3.938-14.178,7.089-22.055,9.452l-3.151,27.569
	C386.757,290.658,383.606,293.809,379.668,293.809z M341.858,278.055h30.72l3.151-25.994c0.788-3.151,2.363-6.302,6.302-6.302
	c9.452-2.363,18.905-6.302,27.569-11.815c3.151-1.575,6.302-1.575,8.665,0.788l20.48,16.542l22.055-22.055l-16.542-20.48
	c-2.363-2.363-2.363-6.302-0.788-8.665c5.514-8.665,9.452-18.117,11.815-27.569c0.788-3.151,3.151-5.514,7.089-6.302l25.994-3.151
	v-30.72l-25.994-3.151c-3.151-0.788-6.302-2.363-7.089-6.302c-2.363-9.452-6.302-18.905-11.815-27.569
	c-1.575-3.151-1.575-6.302,0.788-8.665L460.8,65.378l-22.055-22.055l-20.48,16.542c-2.363,2.363-6.302,2.363-8.665,0.788
	c-8.665-5.514-18.117-9.452-27.569-11.815c-3.151-0.788-5.514-3.151-6.302-6.302l-3.151-25.994h-30.72l-3.151,25.994
	c0,3.151-2.363,6.302-6.302,6.302c-10.24,2.363-18.905,6.302-27.569,11.815c-3.151,1.575-6.302,1.575-8.665-0.788l-20.48-16.542
	l-22.055,22.055l16.542,20.48c2.363,2.363,2.363,6.302,0.788,8.665c-5.514,8.665-9.452,18.117-11.815,27.569
	c-0.788,3.151-3.151,5.514-7.089,6.302l-25.994,3.151v30.72l25.994,3.151c3.151,0.788,6.302,2.363,7.089,6.302
	c2.363,9.452,6.302,18.905,11.815,27.569c1.575,3.151,1.575,6.302-0.788,8.665l-16.542,20.48l22.055,22.055l20.48-16.542
	c2.363-2.363,6.302-2.363,8.665-0.788c8.665,5.514,18.117,9.452,27.569,11.815c3.151,0.788,5.514,3.151,6.302,6.302L341.858,278.055
	z"/>
<circle style="fill:#2EA0DA;" cx="357.612" cy="146.511" r="80.345"/>
<circle style="fill:#FFFFFF;" cx="357.612" cy="146.511" r="39.385"/>
<path style="fill:#183651;" d="M357.612,193.772c-25.994,0-47.262-21.268-47.262-47.262c0-12.603,4.726-24.418,13.391-33.083
	s20.48-13.391,33.083-13.391c25.994,0,47.262,21.268,47.262,47.262c0,12.603-4.726,24.418-13.391,33.083
	S370.215,193.772,357.612,193.772z M357.612,115.791c-8.665,0-16.542,3.151-22.055,9.452c-5.514,6.302-9.452,13.391-9.452,22.055
	c0,17.329,14.178,31.508,31.508,31.508c8.665,0,16.542-3.151,22.055-9.452s9.452-13.391,9.452-22.055
	C388.332,129.969,374.154,115.791,357.612,115.791z"/>
<g>
</g>
<g>
</g>
<g>
</g>
<g>
</g>
<g>
</g>
<g>
</g>
<g>
</g>
<g>
</g>
<g>
</g>
<g>
</g>
<g>
</g>
<g>
</g>
<g>
</g>
<g>
</g>
<g>
</g>
</svg>
