<?xml version="1.0" encoding="iso-8859-1"?>
<!-- Generator: Adobe Illustrator 19.0.0, SVG Export Plug-In . SVG Version: 6.00 Build 0)  -->
<svg version="1.1" id="Capa_1" xmlns="http://www.w3.org/2000/svg" xmlns:xlink="http://www.w3.org/1999/xlink" x="0px" y="0px"
	 viewBox="0 0 504.123 504.123" style="enable-background:new 0 0 504.123 504.123;" xml:space="preserve">
<circle style="fill:#4FBF9F;" cx="251.274" cy="252.455" r="244.972"/>
<g>
	<rect x="434.018" y="199.68" style="fill:#183651;" width="15.754" height="15.754"/>
	<rect x="434.018" y="244.578" style="fill:#183651;" width="15.754" height="15.754"/>
	<rect x="434.018" y="289.477" style="fill:#183651;" width="15.754" height="15.754"/>
	<rect x="52.775" y="199.68" style="fill:#183651;" width="15.754" height="15.754"/>
	<rect x="52.775" y="244.578" style="fill:#183651;" width="15.754" height="15.754"/>
	<rect x="52.775" y="289.477" style="fill:#183651;" width="15.754" height="15.754"/>
	<rect x="288.295" y="435.2" style="fill:#183651;" width="15.754" height="15.754"/>
	<rect x="243.397" y="435.2" style="fill:#183651;" width="15.754" height="15.754"/>
	<rect x="198.498" y="435.2" style="fill:#183651;" width="15.754" height="15.754"/>
	<rect x="288.295" y="53.957" style="fill:#183651;" width="15.754" height="15.754"/>
	<rect x="243.397" y="53.957" style="fill:#183651;" width="15.754" height="15.754"/>
	<rect x="198.498" y="53.957" style="fill:#183651;" width="15.754" height="15.754"/>
</g>
<path style="fill:#FFFFFF;" d="M363.914,162.658h-225.28c-10.24,0-18.905,8.665-18.905,18.905v155.175
	c0,10.24,8.665,18.905,18.905,18.905h225.28c10.24,0,18.905-8.665,18.905-18.905V181.563
	C382.818,171.323,374.154,162.658,363.914,162.658z"/>
<path style="fill:#183651;" d="M363.914,364.308h-225.28c-14.966,0-26.782-11.815-26.782-26.782V181.563
	c0-14.966,11.815-26.782,26.782-26.782h225.28c14.966,0,26.782,11.815,26.782,26.782v155.175
	C390.695,352.492,378.88,364.308,363.914,364.308z M138.634,170.535c-6.302,0-11.028,4.726-11.028,11.028v155.175
	c0,6.302,4.726,11.028,11.028,11.028h225.28c6.302,0,11.028-4.726,11.028-11.028V181.563c0-6.302-4.726-11.028-11.028-11.028
	H138.634z"/>
<rect x="148.874" y="192.591" style="fill:#E0E4E8;" width="204.012" height="134.695"/>
<g>
	<path style="fill:#183651;" d="M363.914,268.209h-225.28c-14.966,0-26.782-11.815-26.782-26.782c0-4.726,3.151-7.877,7.877-7.877
		c4.726,0,7.877,3.151,7.877,7.877c0,6.302,4.726,11.028,11.028,11.028h225.28c6.302,0,11.028-4.726,11.028-11.028
		c0-4.726,3.151-7.877,7.877-7.877s7.877,3.151,7.877,7.877C390.695,256.394,378.88,268.209,363.914,268.209z"/>
	<path style="fill:#183651;" d="M302.474,170.535h-102.4c-4.726,0-7.877-3.151-7.877-7.877v-41.748c0-4.726,3.151-7.877,7.877-7.877
		h103.188c4.726,0,7.877,3.151,7.877,7.877v41.748C310.351,167.385,307.2,170.535,302.474,170.535z M207.951,154.782h86.646v-25.994
		h-86.646L207.951,154.782L207.951,154.782z"/>
</g>
<path style="fill:#FFFFFF;" d="M234.732,224.886v53.563c0,8.665,7.089,16.542,16.542,16.542c8.665,0,16.542-7.089,16.542-16.542
	v-53.563L234.732,224.886L234.732,224.886z"/>
<path style="fill:#183651;" d="M251.274,302.08c-13.391,0-24.418-11.028-24.418-24.418v-53.563c0-4.726,3.151-7.877,7.877-7.877
	h33.083c4.726,0,7.877,3.151,7.877,7.877v53.563C275.692,291.84,264.665,302.08,251.274,302.08z M242.609,232.763v45.686
	c0,4.726,3.938,8.665,8.665,8.665c4.726,0,8.665-3.938,8.665-8.665v-45.686L242.609,232.763L242.609,232.763z"/>
<path style="fill:#183651;" d="M280.418,232.763h-57.502c-4.726,0-7.877-3.151-7.877-7.877c0-4.726,3.151-7.877,7.877-7.877h57.502
	c4.726,0,7.877,3.151,7.877,7.877C288.295,229.612,284.357,232.763,280.418,232.763z"/>
<circle style="fill:#FFFFFF;" cx="435.594" cy="68.135" r="60.652"/>
<g>
	<path style="fill:#183651;" d="M435.594,137.452c-37.809,0-68.529-30.72-68.529-68.529s30.72-68.529,68.529-68.529
		s68.529,30.72,68.529,68.529S473.403,137.452,435.594,137.452z M435.594,15.36c-29.145,0-52.775,23.631-52.775,52.775
		s23.631,52.775,52.775,52.775s52.775-23.631,52.775-52.775S464.738,15.36,435.594,15.36z"/>
	<path style="fill:#183651;" d="M433.231,100.431v-5.514c-7.089-0.788-13.391-3.151-18.905-8.665l5.514-6.302
		c3.938,3.938,8.665,6.302,13.391,6.302V71.286c-5.514-1.575-10.24-3.151-12.603-5.514c-2.363-2.363-3.938-5.514-3.938-10.24
		s1.575-7.877,4.726-11.028c3.151-3.151,7.089-3.938,11.815-4.726v-3.151h4.726v3.938c5.514,0.788,11.028,2.363,15.754,5.514
		l-4.726,7.089c-3.151-2.363-7.089-3.938-11.028-4.726v14.178l0,0c5.514,1.575,10.24,3.151,12.603,5.514
		c2.363,2.363,3.938,5.514,3.938,10.24s-1.575,7.877-4.726,11.028c-3.151,3.151-7.089,3.938-12.603,4.726v5.514h-3.938V100.431z
		 M428.505,50.806c-1.575,0.788-1.575,2.363-1.575,3.938s0.788,3.151,1.575,3.938c0.788,0.788,3.151,1.575,5.514,3.151V48.443
		C431.655,49.231,429.292,50.018,428.505,50.806z M444.258,83.889c1.575-0.788,2.363-2.363,2.363-4.726
		c0-1.575-0.788-3.151-1.575-3.938c-0.788-0.788-3.151-2.363-6.302-3.151v13.391C441.108,86.252,442.683,85.465,444.258,83.889z"/>
</g>
<circle style="fill:#FFFFFF;" cx="68.529" cy="68.135" r="60.652"/>
<g>
	<path style="fill:#183651;" d="M68.529,137.452C30.72,137.452,0,106.732,0,68.923S30.72,0.394,68.529,0.394
		s68.529,30.72,68.529,68.529S107.126,137.452,68.529,137.452z M68.529,15.36c-29.145,0-52.775,23.631-52.775,52.775
		s23.631,52.775,52.775,52.775s52.775-23.631,52.775-52.775S98.462,15.36,68.529,15.36z"/>
	<path style="fill:#183651;" d="M66.954,100.431v-5.514c-7.089-0.788-13.391-3.151-18.905-8.665l5.514-6.302
		c3.938,3.938,8.665,6.302,13.391,6.302V71.286c-5.514-1.575-9.452-3.151-12.603-5.514c-3.151-2.363-3.938-5.514-3.938-9.452
		s1.575-7.877,4.726-11.028c3.151-3.151,7.089-4.726,11.815-4.726v-3.938h4.726v3.938c5.514,0.788,11.028,2.363,15.754,5.514
		l-4.726,7.089c-3.151-2.363-7.089-3.938-11.028-3.938v14.178l0,0c6.302,1.575,11.028,3.151,13.391,5.514
		c2.363,2.363,3.938,5.514,3.938,10.24s-1.575,7.877-4.726,11.028c-3.151,3.151-7.089,3.938-12.603,4.726v5.514H66.954z
		 M61.44,50.806c-0.788,0.788-1.575,2.363-1.575,3.938s0.788,3.151,1.575,3.938c0.788,1.575,3.151,2.363,5.514,3.151V48.443
		C64.591,49.231,63.015,50.018,61.44,50.806z M77.982,83.889c1.575-0.788,2.363-2.363,2.363-4.726c0-1.575-0.788-3.151-1.575-3.938
		c-1.575-0.788-3.938-1.575-7.089-2.363v13.391C74.831,86.252,76.406,85.465,77.982,83.889z"/>
</g>
<circle style="fill:#FFFFFF;" cx="435.594" cy="435.2" r="60.652"/>
<g>
	<path style="fill:#183651;" d="M435.594,503.729c-37.809,0-68.529-30.72-68.529-68.529s30.72-68.529,68.529-68.529
		s68.529,30.72,68.529,68.529S473.403,503.729,435.594,503.729z M435.594,381.637c-29.932,0-53.563,23.631-53.563,53.563
		c0,29.932,23.631,52.775,52.775,52.775s52.775-23.631,52.775-52.775S464.738,381.637,435.594,381.637z"/>
	<path style="fill:#183651;" d="M433.231,466.708v-5.514c-7.089-0.788-13.391-3.151-18.905-8.665l5.514-6.302
		c3.938,3.938,8.665,6.302,13.391,6.302v-14.966c-5.514-1.575-10.24-3.151-12.603-5.514c-2.363-2.363-3.938-5.514-3.938-10.24
		c0-4.726,1.575-7.877,4.726-11.028c3.151-3.151,7.089-3.938,11.815-4.726v-3.938h4.726v3.938
		c5.514,0.788,11.028,2.363,15.754,5.514l-4.726,7.089c-3.151-2.363-7.089-3.938-11.028-4.726v14.178l0,0
		c5.514,1.575,10.24,3.151,12.603,5.514s3.938,5.514,3.938,10.24s-1.575,7.877-4.726,11.028c-3.151,3.151-7.089,3.938-12.603,4.726
		v5.514h-3.938V466.708z M428.505,417.083c-1.575,0.788-1.575,2.363-1.575,3.938c0,1.575,0.788,3.151,1.575,3.938
		c0.788,0.788,3.151,1.575,5.514,3.151V414.72C431.655,415.508,429.292,416.295,428.505,417.083z M444.258,450.954
		c1.575-0.788,2.363-2.363,2.363-4.726c0-1.575-0.788-3.151-1.575-3.938c-0.788-0.788-3.151-2.363-6.302-3.151v13.391
		C441.108,452.529,442.683,451.742,444.258,450.954z"/>
</g>
<circle style="fill:#FFFFFF;" cx="68.529" cy="435.2" r="60.652"/>
<g>
	<path style="fill:#183651;" d="M68.529,503.729C30.72,503.729,0,473.009,0,435.2s30.72-68.529,68.529-68.529
		s68.529,30.72,68.529,68.529C137.846,473.009,107.126,503.729,68.529,503.729z M68.529,381.637
		c-29.145,0-52.775,23.631-52.775,52.775s23.631,52.775,52.775,52.775s52.775-23.631,52.775-52.775S98.462,381.637,68.529,381.637z"
		/>
	<path style="fill:#183651;" d="M66.954,466.708v-5.514c-7.089-0.788-13.391-3.938-18.905-8.665l5.514-6.302
		c4.726,3.151,9.452,5.514,13.391,6.302v-14.966c-5.514-1.575-10.24-3.151-12.603-5.514c-2.363-2.363-3.938-5.514-3.938-10.24
		c0-4.726,1.575-7.877,4.726-11.028c3.151-3.151,7.089-3.938,11.815-4.726v-3.938h4.726v3.938
		c5.514,0.788,11.028,2.363,15.754,5.514l-4.726,8.665c-3.151-2.363-7.089-3.938-11.028-4.726v14.178l0,0
		c5.514,1.575,10.24,3.151,12.603,5.514c2.363,2.363,3.938,5.514,3.938,10.24c0,4.726-1.575,7.877-4.726,11.028
		c-3.151,3.151-7.089,3.938-12.603,4.726v5.514L66.954,466.708L66.954,466.708z M61.44,417.083
		c-1.575,0.788-1.575,2.363-1.575,3.938c0,1.575,0.788,3.151,1.575,3.938c0.788,0.788,3.151,1.575,5.514,3.151V414.72
		C64.591,415.508,63.015,416.295,61.44,417.083z M77.982,450.954c1.575-0.788,2.363-2.363,2.363-4.726
		c0-1.575-0.788-3.151-1.575-3.938c-0.788-0.788-3.151-2.363-6.302-3.151v13.391C74.831,452.529,76.406,451.742,77.982,450.954z"/>
</g>
<g>
</g>
<g>
</g>
<g>
</g>
<g>
</g>
<g>
</g>
<g>
</g>
<g>
</g>
<g>
</g>
<g>
</g>
<g>
</g>
<g>
</g>
<g>
</g>
<g>
</g>
<g>
</g>
<g>
</g>
</svg>
