<?xml version="1.0" encoding="iso-8859-1"?>
<!-- Generator: Adobe Illustrator 19.0.0, SVG Export Plug-In . SVG Version: 6.00 Build 0)  -->
<svg version="1.1" id="Capa_1" xmlns="http://www.w3.org/2000/svg" xmlns:xlink="http://www.w3.org/1999/xlink" x="0px" y="0px"
	 viewBox="0 0 504.123 504.123" style="enable-background:new 0 0 504.123 504.123;" xml:space="preserve">
<circle style="fill:#F06151;" cx="252.062" cy="252.062" r="252.062"/>
<rect x="39.385" y="39.385" style="fill:#FFFFFF;" width="425.354" height="425.354"/>
<path style="fill:#183651;" d="M464.738,472.615H39.385c-4.726,0-7.877-3.151-7.877-7.877V39.385c0-4.726,3.151-7.877,7.877-7.877
	h425.354c4.726,0,7.877,3.151,7.877,7.877v425.354C472.615,468.677,469.465,472.615,464.738,472.615z M47.262,456.862h409.6v-409.6
	h-409.6V456.862z"/>
<rect x="70.892" y="70.892" style="fill:#FBBD5E;" width="362.338" height="362.338"/>
<rect x="285.932" y="107.914" style="fill:#FFFFFF;" width="109.489" height="109.489"/>
<path style="fill:#183651;" d="M396.209,225.28H285.932c-4.726,0-7.877-3.151-7.877-7.877V107.914c0-4.726,3.151-7.877,7.877-7.877
	h109.489c4.726,0,7.877,3.151,7.877,7.877v109.489C404.086,222.129,400.148,225.28,396.209,225.28z M293.809,209.526h93.735v-93.735
	h-93.735V209.526z"/>
<rect x="107.914" y="107.914" style="fill:#FFFFFF;" width="109.489" height="109.489"/>
<path style="fill:#183651;" d="M218.191,225.28H107.914c-4.726,0-7.877-3.151-7.877-7.877V107.914c0-4.726,3.151-7.877,7.877-7.877
	h109.489c4.726,0,7.877,3.151,7.877,7.877v109.489C226.068,222.129,222.129,225.28,218.191,225.28z M115.791,209.526h93.735v-93.735
	h-93.735V209.526z"/>
<rect x="285.932" y="285.932" style="fill:#FFFFFF;" width="109.489" height="109.489"/>
<path style="fill:#183651;" d="M396.209,404.086H285.932c-4.726,0-7.877-3.151-7.877-7.877V285.932c0-4.726,3.151-7.877,7.877-7.877
	h109.489c4.726,0,7.877,3.151,7.877,7.877v109.489C404.086,400.148,400.148,404.086,396.209,404.086z M293.809,388.332h93.735
	v-94.523h-93.735V388.332z"/>
<rect x="107.914" y="285.932" style="fill:#FFFFFF;" width="109.489" height="109.489"/>
<path style="fill:#183651;" d="M218.191,404.086H107.914c-4.726,0-7.877-3.151-7.877-7.877V285.932c0-4.726,3.151-7.877,7.877-7.877
	h109.489c4.726,0,7.877,3.151,7.877,7.877v109.489C226.068,400.148,222.129,404.086,218.191,404.086z M115.791,388.332h93.735
	v-94.523h-93.735V388.332z"/>
<g>
	<polygon style="fill:#E0E4E8;" points="334.769,185.895 310.351,161.477 319.015,152.025 334.769,167.778 363.126,139.422 
		372.578,148.086 	"/>
	<polygon style="fill:#E0E4E8;" points="334.769,364.702 310.351,339.495 319.015,330.831 334.769,345.797 363.126,317.44 
		372.578,326.892 	"/>
	<polygon style="fill:#E0E4E8;" points="185.895,326.892 177.231,317.44 163.052,331.618 148.874,317.44 139.422,326.892 
		153.6,341.071 139.422,355.249 148.874,364.702 163.052,349.735 177.231,364.702 185.895,355.249 171.717,341.071 	"/>
</g>
<g>
	<rect x="244.185" y="80.345" style="fill:#183651;" width="15.754" height="13.391"/>
	<rect x="244.185" y="107.914" style="fill:#183651;" width="15.754" height="13.391"/>
	<rect x="244.185" y="382.031" style="fill:#183651;" width="15.754" height="13.391"/>
	<rect x="244.185" y="409.6" style="fill:#183651;" width="15.754" height="13.391"/>
</g>
<g>
	<rect x="244.185" y="135.483" style="fill:#183651;" width="15.754" height="233.157"/>
	<rect x="409.6" y="244.185" style="fill:#183651;" width="13.391" height="15.754"/>
	<rect x="382.031" y="244.185" style="fill:#183651;" width="13.391" height="15.754"/>
	<rect x="107.914" y="244.185" style="fill:#183651;" width="13.391" height="15.754"/>
	<rect x="81.132" y="244.185" style="fill:#183651;" width="13.391" height="15.754"/>
</g>
<rect x="135.483" y="244.185" style="fill:#183651;" width="233.157" height="15.754"/>
<circle style="fill:#E0E4E8;" cx="163.052" cy="163.052" r="17.329"/>
<g>
</g>
<g>
</g>
<g>
</g>
<g>
</g>
<g>
</g>
<g>
</g>
<g>
</g>
<g>
</g>
<g>
</g>
<g>
</g>
<g>
</g>
<g>
</g>
<g>
</g>
<g>
</g>
<g>
</g>
</svg>
