<?xml version="1.0" encoding="iso-8859-1"?>
<!-- Generator: Adobe Illustrator 19.0.0, SVG Export Plug-In . SVG Version: 6.00 Build 0)  -->
<svg version="1.1" id="Capa_1" xmlns="http://www.w3.org/2000/svg" xmlns:xlink="http://www.w3.org/1999/xlink" x="0px" y="0px"
	 viewBox="0 0 504.123 504.123" style="enable-background:new 0 0 504.123 504.123;" xml:space="preserve">
<circle style="fill:#FBBD5E;" cx="252.062" cy="252.062" r="252.062"/>
<path style="fill:#2CA0DA;" d="M417.477,391.483v-51.988c-14.178-42.535-28.357-65.378-107.126-96.098l-129.969,4.726
	c0,0-89.797,33.083-99.249,92.16v51.988h336.345V391.483z"/>
<g>
	<path style="fill:#183651;" d="M417.477,399.36H81.132c-4.726,0-7.877-3.151-7.877-7.877v-51.988v-0.788
		c9.452-63.015,100.037-96.886,103.975-98.462c0.788,0,1.575-0.788,2.363-0.788l130.757-3.938c0.788,0,2.363,0,3.151,0.788
		c80.345,31.508,96.098,55.926,111.852,100.825c0,0.788,0.788,1.575,0.788,2.363v51.988
		C425.354,396.209,422.203,399.36,417.477,399.36z M89.009,383.606h321.378v-42.535c-12.603-37.809-23.631-59.077-100.825-89.009
		L181.957,256c-10.24,3.938-85.071,34.658-92.948,85.071V383.606z"/>
	<rect x="401.723" y="113.428" style="fill:#183651;" width="15.754" height="15.754"/>
	<rect x="401.723" y="164.628" style="fill:#183651;" width="15.754" height="15.754"/>
	<rect x="401.723" y="215.828" style="fill:#183651;" width="15.754" height="15.754"/>
	<rect x="86.646" y="113.428" style="fill:#183651;" width="15.754" height="15.754"/>
	<rect x="86.646" y="164.628" style="fill:#183651;" width="15.754" height="15.754"/>
	<rect x="86.646" y="215.828" style="fill:#183651;" width="15.754" height="15.754"/>
</g>
<path style="fill:#E1E6E7;" d="M207.951,202.437c0,0,2.363,26.782-27.569,45.686c0,0,71.68,51.2,130.757-3.938
	c0,0-17.329-12.603-18.117-46.474L207.951,202.437z"/>
<path style="fill:#183651;" d="M247.335,277.268L247.335,277.268c-39.385,0-70.892-22.055-72.468-22.843
	c-2.363-1.575-3.151-3.938-3.151-6.302s1.575-4.726,3.938-6.302c25.994-15.754,23.631-37.809,23.631-37.809
	c0-2.363,0.788-3.938,1.575-5.514c1.575-1.575,3.151-2.363,5.514-2.363l85.071-4.726c2.363,0,3.938,0.788,5.514,2.363
	c1.575,1.575,2.363,3.938,2.363,5.514c0,29.145,14.178,40.172,14.178,40.172c1.575,1.575,3.151,3.938,3.151,6.302
	s-0.788,4.726-2.363,6.302C296.172,267.815,273.329,277.268,247.335,277.268z M194.56,247.335
	c11.028,6.302,31.508,14.178,53.563,14.178l0,0c18.905,0,36.234-6.302,51.2-18.117c-5.514-7.089-11.815-18.905-14.178-37.809
	l-70.105,3.938C214.252,218.978,209.526,233.945,194.56,247.335z"/>
<path style="fill:#FFFFFF;" d="M180.382,155.175c0,0,11.815,55.926,66.166,63.803c0,0,54.351-1.575,72.468-75.618l10.24-18.117
	V81.132l-19.692-26.782l-48.837-5.514l-71.68,22.843l-23.631,44.898L180.382,155.175z"/>
<path style="fill:#183651;" d="M246.548,227.643c-0.788,0-0.788,0-1.575,0c-55.926-8.665-70.105-62.228-72.468-69.317
	l-15.754-37.022c-0.788-2.363-0.788-4.726,0-7.089l23.631-44.898c0.788-1.575,2.363-3.151,4.726-3.938l71.68-22.843
	c0.788,0,2.363-0.788,3.151,0l48.837,5.514c2.363,0,3.938,1.575,5.514,3.151l19.692,26.782c0.788,1.575,1.575,3.151,1.575,4.726
	v44.111c0,1.575,0,2.363-0.788,3.938l-10.24,17.329C306.412,225.28,248.911,226.855,246.548,227.643L246.548,227.643z
	 M173.292,118.154l14.178,33.871c0,0.788,0,0.788,0.788,1.575c0.788,2.363,11.028,49.625,58.289,57.502
	c6.302-0.788,48.837-5.514,64.591-70.105c0-0.788,0.788-1.575,0.788-2.363l9.452-16.542V82.708l-16.542-22.055l-43.323-4.726
	L194.56,77.194L173.292,118.154z"/>
<path style="fill:#E1E6E7;" d="M285.932,18.905c95.311,41.748,33.083,124.455,33.083,124.455c23.631-71.68-40.96-81.92-40.96-81.92
	c-24.418,28.357-52.775,25.206-52.775,25.206c-70.105,8.665-44.111,68.529-44.111,68.529
	C103.975,57.502,206.375-15.754,285.932,18.905z"/>
<path style="fill:#183651;" d="M180.382,163.052L180.382,163.052c-2.363,0-4.726-0.788-6.302-3.151
	c-38.597-49.625-29.145-87.434-20.48-106.338c14.966-31.508,50.412-51.2,90.585-51.2c15.754,0,30.72,3.151,44.898,9.452
	c30.72,13.391,49.625,32.295,55.926,56.714c10.24,40.172-18.117,78.769-18.905,80.345c-2.363,3.151-6.302,3.938-10.24,2.363
	c-3.151-1.575-4.726-5.514-3.938-9.452c7.089-20.48,6.302-37.022-0.788-49.625c-7.877-13.391-22.843-18.905-29.932-21.268
	c-21.268,22.055-44.111,24.418-52.775,24.418c-0.788,0-1.575,0-2.363,0c-18.905,2.363-31.508,8.665-37.022,18.905
	c-7.877,14.178-2.363,32.295-0.788,37.022c0.788,1.575,1.575,2.363,1.575,3.938C188.258,159.902,185.108,163.052,180.382,163.052z
	 M244.185,18.117c-33.871,0-63.803,16.542-76.406,42.535c-8.665,18.117-8.665,39.385,1.575,60.652
	c0.788-4.726,2.363-10.24,5.514-14.966c8.665-14.966,25.206-24.418,49.625-27.569c0.788,0,1.575,0,1.575,0
	c0.788,0,24.418,2.363,46.474-22.843c1.575-2.363,4.726-3.151,7.089-2.363c1.575,0,29.932,4.726,44.898,29.145
	c2.363,4.726,4.726,9.452,6.302,14.178c1.575-7.877,1.575-17.329-0.788-25.994c-4.726-18.905-20.48-34.658-46.474-45.686
	C270.178,20.48,257.575,18.117,244.185,18.117z"/>
<path style="fill:#FFFFFF;" d="M233.945,496.246h30.72l2.363-22.843c7.089-1.575,14.178-4.726,20.48-8.665l18.117,14.178
	l21.268-22.055l-14.178-18.117c3.938-6.302,6.302-13.391,8.665-20.48l22.843-3.151v-30.72l-22.055-2.363
	c-1.575-7.089-4.726-14.178-8.665-20.48l14.178-18.117l-22.055-21.268l-18.117,13.391c-6.302-3.938-13.391-6.302-20.48-8.665
	l-3.151-22.055h-30.72l-2.363,22.843c-7.089,1.575-14.178,4.726-20.48,8.665l-18.117-14.178l-21.268,22.055l14.178,18.117
	c-3.938,6.302-6.302,13.391-8.665,20.48l-22.843,2.363v30.72l22.843,2.363c1.575,7.089,4.726,14.178,8.665,20.48l-14.178,18.117
	l22.055,21.268l18.117-14.178c6.302,3.938,13.391,6.302,20.48,8.665L233.945,496.246z"/>
<path style="fill:#183651;" d="M233.945,504.123c-3.938,0-7.089-3.151-7.877-7.089l-1.575-17.329
	c-4.726-1.575-8.665-3.151-12.603-5.514l-14.178,11.028c-3.151,2.363-7.877,2.363-10.24-0.788l-22.055-21.268
	c-3.151-3.151-3.151-7.089-0.788-10.24l11.028-14.178c-2.363-3.938-3.938-8.665-5.514-12.603l-17.329-2.363
	c-3.938-0.788-7.089-3.938-7.089-7.877v-30.72c0-3.938,3.151-7.089,7.089-7.877l17.329-2.363c1.575-4.726,3.151-8.665,5.514-12.603
	l-11.028-14.178c-2.363-3.151-2.363-7.877,0.788-10.24l21.268-22.055c3.151-3.151,7.089-3.151,10.24-0.788l14.178,11.028
	c3.938-2.363,8.665-3.938,12.603-5.514l2.363-17.329c0.788-3.938,3.938-7.089,7.877-7.089h30.72l0,0
	c3.938,0,7.089,3.151,7.877,7.089l2.363,17.329c4.726,1.575,8.665,3.151,12.603,5.514l14.178-11.028
	c3.151-2.363,7.877-2.363,10.24,0.788l22.055,21.268c3.151,3.151,3.151,7.089,0.788,10.24l-11.028,14.178
	c2.363,3.938,3.938,8.665,5.514,12.603l17.329,2.363c3.938,0.788,7.089,3.938,7.089,7.877v30.72c0,3.938-3.151,7.089-7.089,7.877
	l-17.329,2.363c-1.575,4.726-3.151,8.665-5.514,12.603l11.028,14.178c2.363,3.151,2.363,7.877-0.788,10.24l-22.055,22.055
	c-3.151,3.151-7.089,3.151-10.24,0.788l-14.178-11.028c-3.938,2.363-8.665,3.938-12.603,5.514l-2.363,17.329
	c-0.788,3.938-3.938,7.089-7.877,7.089H233.945L233.945,504.123z M210.314,456.862c1.575,0,3.151,0,3.938,0.788
	c5.514,3.151,11.815,6.302,18.905,7.877c3.151,0.788,5.514,3.151,6.302,6.302l2.363,15.754h16.542l1.575-15.754
	c0-3.151,2.363-6.302,5.514-7.089c6.302-1.575,12.603-3.938,18.117-7.877c3.151-1.575,6.302-1.575,8.665,0.788l12.603,9.452
	l11.815-11.815l-10.24-12.603c-2.363-2.363-2.363-6.302-0.788-8.665c3.151-5.514,6.302-11.815,7.877-18.905
	c0.788-3.151,3.151-5.514,6.302-6.302l15.754-2.363v-16.542l-15.754-1.575c-3.151,0-6.302-2.363-7.089-5.514
	c-1.575-6.302-3.938-12.603-7.877-18.117c-1.575-3.151-1.575-6.302,0.788-8.665l9.452-12.603l-11.815-11.815l-12.603,10.24
	c-2.363,2.363-6.302,2.363-8.665,0.788c-5.514-3.151-11.815-6.302-18.905-7.877c-3.151-0.788-5.514-3.151-6.302-6.302l-2.363-15.754
	h-16.542l-1.575,15.754c0,3.151-2.363,6.302-5.514,7.089c-6.302,1.575-12.603,3.938-18.117,7.877
	c-3.151,1.575-6.302,1.575-8.665-0.788l-11.028-10.24l-11.815,11.815l10.24,12.603c2.363,2.363,2.363,6.302,0.788,8.665
	c-3.151,5.514-6.302,11.815-7.877,18.905c-0.788,3.151-3.151,5.514-6.302,6.302l-15.754,2.363V409.6l15.754,1.575
	c3.151,0,6.302,2.363,7.089,5.514c1.575,6.302,3.938,12.603,7.877,18.117c1.575,3.151,1.575,6.302-0.788,8.665l-9.452,12.603
	l10.24,12.603l12.603-10.24C207.163,457.649,208.738,456.862,210.314,456.862z"/>
<circle style="fill:#F06151;" cx="248.911" cy="400.148" r="55.138"/>
<circle style="fill:#FFFFFF;" cx="248.911" cy="400.148" r="22.843"/>
<path style="fill:#183651;" d="M248.911,430.868c-16.542,0-30.72-13.391-30.72-30.72c0-7.877,3.151-15.754,8.665-21.268
	c5.514-5.514,13.391-8.665,21.268-8.665c16.542,0,30.72,13.391,30.72,30.72c0,7.877-3.151,15.754-8.665,21.268
	C265.452,427.717,257.575,430.868,248.911,430.868C249.698,430.868,248.911,430.868,248.911,430.868z M248.911,385.969
	c-3.938,0-7.877,1.575-10.24,4.726s-3.938,6.302-3.938,10.24c0,7.877,6.302,14.966,14.966,14.966v7.877v-7.877
	c7.877,0,14.966-7.089,14.966-14.966C263.877,392.271,257.575,385.969,248.911,385.969z"/>
<g>
</g>
<g>
</g>
<g>
</g>
<g>
</g>
<g>
</g>
<g>
</g>
<g>
</g>
<g>
</g>
<g>
</g>
<g>
</g>
<g>
</g>
<g>
</g>
<g>
</g>
<g>
</g>
<g>
</g>
</svg>
