<?xml version="1.0" encoding="iso-8859-1"?>
<!-- Generator: Adobe Illustrator 19.0.0, SVG Export Plug-In . SVG Version: 6.00 Build 0)  -->
<svg version="1.1" id="Capa_1" xmlns="http://www.w3.org/2000/svg" xmlns:xlink="http://www.w3.org/1999/xlink" x="0px" y="0px"
	 viewBox="0 0 504.123 504.123" style="enable-background:new 0 0 504.123 504.123;" xml:space="preserve">
<circle style="fill:#F06151;" cx="369.034" cy="133.908" r="133.908"/>
<path style="fill:#E0E4E8;" d="M425.748,356.825H77.588c-38.597,0-69.317,31.508-69.317,69.317s31.508,69.317,69.317,69.317h348.948
	c38.597,0,69.317-31.508,69.317-69.317S464.345,356.825,425.748,356.825z"/>
<path style="fill:#183651;" d="M425.748,504.123H77.588c-42.535,0-77.194-34.658-77.194-77.194s34.658-77.194,77.194-77.194h348.948
	c42.535,0,77.194,34.658,77.194,77.194S469.071,504.123,425.748,504.123z M77.588,364.702c-33.871,0-61.44,27.569-61.44,61.44
	s27.569,61.44,61.44,61.44h348.948c33.871,0,61.44-27.569,61.44-61.44s-27.569-61.44-61.44-61.44H77.588z"/>
<circle style="fill:#FFFFFF;" cx="433.625" cy="426.929" r="27.569"/>
<path style="fill:#183651;" d="M433.625,461.588c-19.692,0-35.446-15.754-35.446-35.446c0-19.692,15.754-35.446,35.446-35.446
	c19.692,0,35.446,15.754,35.446,35.446C469.071,445.834,453.317,461.588,433.625,461.588z M433.625,407.237
	c-11.028,0-19.692,8.665-19.692,19.692s8.665,19.692,19.692,19.692s19.692-8.665,19.692-19.692S444.652,407.237,433.625,407.237z"/>
<circle style="fill:#FFFFFF;" cx="344.615" cy="426.929" r="27.569"/>
<path style="fill:#183651;" d="M344.615,461.588c-19.692,0-35.446-15.754-35.446-35.446c0-19.692,15.754-35.446,35.446-35.446
	c19.692,0,35.446,15.754,35.446,35.446C380.062,445.834,364.308,461.588,344.615,461.588z M344.615,407.237
	c-11.028,0-19.692,8.665-19.692,19.692s8.665,19.692,19.692,19.692s19.692-8.665,19.692-19.692S355.643,407.237,344.615,407.237z"/>
<circle style="fill:#FFFFFF;" cx="247.729" cy="426.929" r="27.569"/>
<path style="fill:#183651;" d="M247.729,461.588c-19.692,0-35.446-15.754-35.446-35.446c0-19.692,15.754-35.446,35.446-35.446
	s35.446,15.754,35.446,35.446C283.175,445.834,266.634,461.588,247.729,461.588z M247.729,407.237
	c-11.028,0-19.692,8.665-19.692,19.692s8.665,19.692,19.692,19.692s19.692-8.665,19.692-19.692S257.969,407.237,247.729,407.237z"/>
<circle style="fill:#FFFFFF;" cx="158.72" cy="426.929" r="27.569"/>
<path style="fill:#183651;" d="M158.72,461.588c-19.692,0-35.446-15.754-35.446-35.446c0-19.692,15.754-35.446,35.446-35.446
	s35.446,15.754,35.446,35.446C194.166,445.834,177.625,461.588,158.72,461.588z M158.72,407.237
	c-11.028,0-19.692,8.665-19.692,19.692s8.665,19.692,19.692,19.692c11.028,0,19.692-8.665,19.692-19.692
	S168.96,407.237,158.72,407.237z"/>
<circle style="fill:#FFFFFF;" cx="69.711" cy="426.929" r="27.569"/>
<path style="fill:#183651;" d="M69.711,461.588c-19.692,0-35.446-15.754-35.446-35.446c0-19.692,15.754-35.446,35.446-35.446
	s35.446,15.754,35.446,35.446C105.157,445.834,88.615,461.588,69.711,461.588z M69.711,407.237
	c-11.028,0-19.692,8.665-19.692,19.692s8.665,19.692,19.692,19.692s19.692-8.665,19.692-19.692S79.951,407.237,69.711,407.237z"/>
<rect x="61.046" y="89.797" style="fill:#FFFFFF;" width="267.815" height="267.815"/>
<path style="fill:#183651;" d="M328.862,364.702H61.046c-4.726,0-7.877-3.151-7.877-7.877V89.009c0-4.726,3.151-7.877,7.877-7.877
	h267.815c4.726,0,7.877,3.151,7.877,7.877v267.815C336.738,361.551,332.8,364.702,328.862,364.702z M68.923,348.948h252.062V96.886
	H68.923C68.923,96.886,68.923,348.948,68.923,348.948z"/>
<rect x="92.554" y="121.305" style="fill:#FBBD5E;" width="204.8" height="204.8"/>
<polygon style="fill:#F06151;" points="161.083,165.415 161.083,97.674 228.825,97.674 228.825,165.415 194.954,148.086 "/>
<g>
	<rect x="53.169" y="32.295" style="fill:#183651;" width="15.754" height="15.754"/>
	<rect x="99.643" y="32.295" style="fill:#183651;" width="15.754" height="15.754"/>
	<rect x="146.117" y="32.295" style="fill:#183651;" width="15.754" height="15.754"/>
	<rect x="468.283" y="233.157" style="fill:#183651;" width="15.754" height="15.754"/>
	<rect x="468.283" y="279.631" style="fill:#183651;" width="15.754" height="15.754"/>
	<rect x="468.283" y="326.105" style="fill:#183651;" width="15.754" height="15.754"/>
</g>
<path style="fill:#FFFFFF;" d="M476.948,151.237v-34.658l-25.206-3.151c-2.363-8.665-5.514-15.754-9.452-23.631l15.754-20.48
	l-24.418-24.418l-20.48,15.754c-7.089-3.938-14.966-7.877-23.631-9.452l-3.151-25.206h-34.658L348.554,51.2
	c-8.665,2.363-15.754,5.514-23.631,9.452l-20.48-15.754l-24.418,24.418l15.754,20.48c-3.938,7.089-7.877,14.966-9.452,23.631
	l-25.206,3.151v34.658l25.206,3.151c2.363,8.665,5.514,15.754,9.452,23.631l-15.754,20.48l24.418,24.418l20.48-15.754
	c7.089,3.938,14.966,7.877,23.631,9.452l3.151,25.206h34.658l3.151-25.206c8.665-2.363,15.754-5.514,23.631-9.452l20.48,15.754
	l24.418-24.418l-15.754-20.48c3.938-7.089,7.877-14.966,9.452-23.631L476.948,151.237z"/>
<path style="fill:#183651;" d="M386.363,249.698h-34.658c-3.938,0-7.089-3.151-7.877-7.089l-2.363-20.48
	c-5.514-1.575-10.24-3.938-15.754-6.302l-16.542,12.603c-3.151,2.363-7.877,2.363-10.24-0.788l-24.418-24.418
	c-3.151-3.151-3.151-7.089-0.788-10.24l13.391-15.754c-2.363-4.726-4.726-10.24-6.302-15.754l-20.48-2.363
	c-3.938-0.788-7.089-3.938-7.089-7.877v-34.658c0-3.938,3.151-7.089,7.089-7.877l20.48-2.363c1.575-5.514,3.938-10.24,6.302-15.754
	l-12.603-15.754c-2.363-3.151-2.363-7.877,0.788-10.24l24.418-24.418c3.151-3.151,7.089-3.151,10.24-0.788l16.542,12.603
	c4.726-2.363,10.24-4.726,15.754-6.302l2.363-20.48c0.788-3.938,3.938-7.089,7.877-7.089h34.658c3.938,0,7.089,3.151,7.877,7.089
	l2.363,20.48c5.514,1.575,10.24,3.938,15.754,6.302l15.754-12.603c3.151-2.363,7.877-2.363,10.24,0.788l24.418,24.418
	c3.151,3.151,3.151,7.089,0.788,10.24l-12.603,16.542c2.363,4.726,4.726,10.24,6.302,15.754l20.48,2.363
	c3.938,0.788,7.089,3.938,7.089,7.877v34.658c0,3.938-3.151,7.089-7.089,7.877l-20.48,1.575c-1.575,5.514-3.938,10.24-6.302,15.754
	l12.603,16.542c2.363,3.151,2.363,7.877-0.788,10.24l-24.418,24.418c-3.151,3.151-7.089,3.151-10.24,0.788l-16.542-12.603
	c-4.726,2.363-10.24,4.726-15.754,6.302l-2.363,20.48C394.24,246.548,390.302,249.698,386.363,249.698z M358.794,233.945h20.48
	l2.363-18.905c0.788-3.151,2.363-5.514,6.302-6.302c7.089-1.575,14.178-4.726,21.268-8.665c3.151-1.575,6.302-1.575,8.665,0.788
	l14.966,11.815l14.966-14.966l-11.815-14.966c-2.363-2.363-2.363-6.302-0.788-8.665c3.938-6.302,7.089-13.391,8.665-21.268
	c0.788-3.151,3.151-5.514,6.302-6.302l18.905-2.363v-20.48l-18.905-2.363c-3.151-0.788-5.514-2.363-6.302-6.302
	c-1.575-7.089-4.726-14.178-8.665-21.268c-1.575-3.151-1.575-6.302,0.788-8.665l11.815-14.966l-14.966-14.966l-14.966,11.815
	c-2.363,2.363-6.302,2.363-8.665,0.788c-6.302-3.938-13.391-7.089-21.268-8.665c-3.151,0-5.514-3.151-6.301-6.302l-2.363-18.905
	h-20.48l-2.363,18.905c-0.788,3.151-2.363,5.514-6.302,6.302c-7.089,1.575-14.178,4.726-21.268,8.665
	c-3.151,1.575-6.302,1.575-8.665-0.788l-14.966-11.815l-14.966,14.966l11.815,14.966c2.363,2.363,2.363,6.302,0.788,8.665
	c-3.938,6.302-7.089,13.391-8.665,21.268c-0.788,3.151-3.151,5.514-6.302,6.302l-18.905,2.363v20.48l18.905,2.363
	c3.151,0,5.514,2.363,6.302,6.302c1.575,7.089,4.726,14.178,8.665,21.268c1.575,3.151,1.575,6.302-0.788,8.665l-11.815,14.966
	l14.966,14.966l14.966-11.815c2.363-2.363,6.302-2.363,8.665-0.788c6.302,3.938,13.391,7.089,21.268,8.665
	c3.151,0.788,5.514,3.151,6.302,6.302L358.794,233.945z"/>
<circle style="fill:#4FBF9F;" cx="369.034" cy="133.908" r="55.926"/>
<circle style="fill:#FFFFFF;" cx="369.034" cy="133.908" r="22.055"/>
<path style="fill:#183651;" d="M369.034,163.84c-16.542,0-29.932-13.391-29.932-29.932s13.391-29.932,29.932-29.932
	c16.542,0,29.932,13.391,29.932,29.932S385.575,163.84,369.034,163.84z M369.034,119.729c-7.877,0-14.178,6.302-14.178,14.178
	s6.302,14.178,14.178,14.178s14.178-6.302,14.178-14.178S376.911,119.729,369.034,119.729z"/>
<g>
</g>
<g>
</g>
<g>
</g>
<g>
</g>
<g>
</g>
<g>
</g>
<g>
</g>
<g>
</g>
<g>
</g>
<g>
</g>
<g>
</g>
<g>
</g>
<g>
</g>
<g>
</g>
<g>
</g>
</svg>
