<?xml version="1.0" encoding="iso-8859-1"?>
<!-- Generator: Adobe Illustrator 19.0.0, SVG Export Plug-In . SVG Version: 6.00 Build 0)  -->
<svg version="1.1" id="Capa_1" xmlns="http://www.w3.org/2000/svg" xmlns:xlink="http://www.w3.org/1999/xlink" x="0px" y="0px"
	 viewBox="0 0 504.123 504.123" style="enable-background:new 0 0 504.123 504.123;" xml:space="preserve">
<path style="fill:#F06151;" d="M383.606,504.123c-66.166,0-120.517-53.563-120.517-120.517s54.351-119.729,120.517-119.729
	s120.517,53.563,120.517,120.517S450.56,504.123,383.606,504.123z"/>
<g>
	<rect x="488.369" y="23.631" style="fill:#183651;" width="15.754" height="15.754"/>
	<rect x="488.369" y="83.495" style="fill:#183651;" width="15.754" height="15.754"/>
	<rect x="488.369" y="143.36" style="fill:#183651;" width="15.754" height="15.754"/>
	<rect x="488.369" y="202.437" style="fill:#183651;" width="15.754" height="15.754"/>
	<rect x="488.369" y="262.302" style="fill:#183651;" width="15.754" height="15.754"/>
	<rect x="262.302" y="488.369" style="fill:#183651;" width="15.754" height="15.754"/>
	<rect x="202.437" y="488.369" style="fill:#183651;" width="15.754" height="15.754"/>
	<rect x="143.36" y="488.369" style="fill:#183651;" width="15.754" height="15.754"/>
	<rect x="83.495" y="488.369" style="fill:#183651;" width="15.754" height="15.754"/>
	<rect x="23.631" y="488.369" style="fill:#183651;" width="15.754" height="15.754"/>
</g>
<path style="fill:#FBBD5E;" d="M409.6,7.877H31.508c-13.391,0-23.631,10.24-23.631,23.631V358.4
	c0,13.391,10.24,23.631,23.631,23.631H409.6c13.391,0,23.631-10.24,23.631-23.631V31.508C433.231,18.117,422.991,7.877,409.6,7.877z
	"/>
<path style="fill:#183651;" d="M409.6,389.908H31.508C14.178,389.908,0,375.729,0,358.4V31.508C0,14.178,14.178,0,31.508,0H409.6
	c17.329,0,31.508,14.178,31.508,31.508V358.4C441.108,375.729,426.929,389.908,409.6,389.908z M31.508,15.754
	c-8.665,0-15.754,7.089-15.754,15.754V358.4c0,8.665,7.089,15.754,15.754,15.754H409.6c8.665,0,15.754-7.089,15.754-15.754V31.508
	c0-8.665-7.089-15.754-15.754-15.754H31.508z"/>
<rect x="39.385" y="39.385" style="fill:#FFFFFF;" width="362.338" height="311.138"/>
<circle style="fill:#F06151;" cx="220.554" cy="248.123" r="73.255"/>
<g>
	<polygon style="fill:#FFFFFF;" points="220.554,200.074 234.732,229.218 267.028,233.945 244.185,256.788 248.911,288.295 
		220.554,273.329 192.197,288.295 196.923,256.788 174.08,233.945 206.375,229.218 	"/>
	<path style="fill:#FFFFFF;" d="M270.966,70.892H170.142c-11.028,0-19.692,8.665-19.692,19.692s8.665,19.692,19.692,19.692h100.037
		c11.028,0,19.692-8.665,19.692-19.692S281.206,70.892,270.966,70.892z"/>
</g>
<path style="fill:#183651;" d="M270.966,118.154H170.142c-14.966,0-27.569-12.603-27.569-27.569s12.603-27.569,27.569-27.569
	h100.037c14.966,0,27.569,12.603,27.569,27.569S285.932,118.154,270.966,118.154z M170.142,78.769
	c-6.302,0-11.815,5.514-11.815,11.815c0,6.302,5.514,11.815,11.815,11.815h100.037c6.302,0,11.815-5.514,11.815-11.815
	c0-6.302-5.514-11.815-11.815-11.815H170.142z"/>
<circle style="fill:#4FBF9F;" cx="383.606" cy="383.606" r="96.098"/>
<path style="fill:#183651;" d="M383.606,487.582c-57.502,0-103.975-46.474-103.975-103.975s47.262-103.188,103.975-103.188
	s103.975,46.474,103.975,103.188S441.108,487.582,383.606,487.582z M383.606,296.172c-48.837,0-88.222,39.385-88.222,88.222
	s39.385,88.222,88.222,88.222s88.222-39.385,88.222-88.222S432.443,296.172,383.606,296.172z"/>
<path style="fill:#FFFFFF;" d="M383.606,447.409c-34.658,0-63.015-28.357-63.015-63.015s28.357-63.015,63.015-63.015
	s63.015,28.357,63.015,63.015S419.052,447.409,383.606,447.409z"/>
<polygon style="fill:#173651;" points="374.154,413.538 345.797,385.969 357.612,374.154 374.154,389.908 410.388,354.462 
	422.203,366.277 "/>
<g>
</g>
<g>
</g>
<g>
</g>
<g>
</g>
<g>
</g>
<g>
</g>
<g>
</g>
<g>
</g>
<g>
</g>
<g>
</g>
<g>
</g>
<g>
</g>
<g>
</g>
<g>
</g>
<g>
</g>
</svg>
