<?xml version="1.0" encoding="iso-8859-1"?>
<!-- Generator: Adobe Illustrator 19.0.0, SVG Export Plug-In . SVG Version: 6.00 Build 0)  -->
<svg version="1.1" id="Capa_1" xmlns="http://www.w3.org/2000/svg" xmlns:xlink="http://www.w3.org/1999/xlink" x="0px" y="0px"
	 viewBox="0 0 504.127 504.127" style="enable-background:new 0 0 504.127 504.127;" xml:space="preserve">
<circle style="fill:#E0E4E8;" cx="252.063" cy="393.85" r="110.277"/>
<rect x="41.75" y="85.862" style="fill:#F06151;" width="420.628" height="304.049"/>
<path style="fill:#183651;" d="M462.377,397.788H41.75c-4.726,0-7.877-3.151-7.877-7.877V85.862c0-4.726,3.151-7.877,7.877-7.877
	h420.628c4.726,0,7.877,3.151,7.877,7.877v304.049C470.254,394.637,466.316,397.788,462.377,397.788z M49.626,382.034H454.5V93.739
	H49.626V382.034z"/>
<rect x="73.257" y="117.37" style="fill:#FFFFFF;" width="356.825" height="241.034"/>
<g>
	<path style="fill:#183651;" d="M252.063,93.739H151.239c-1.575,0-3.151-0.788-4.726-1.575
		c-21.268-16.542-26.782-46.474-11.815-69.317C150.451-0.784,181.959-7.086,205.59,8.668c19.692,12.603,51.988,63.803,54.351,75.618
		c0.788,2.363,0,4.726-1.575,6.302C256.789,92.164,254.426,93.739,252.063,93.739z M154.39,77.985h85.858
		c-9.452-16.542-29.932-47.262-42.535-55.926c-16.542-11.028-38.597-6.302-48.837,9.452C137.848,46.477,140.999,66.17,154.39,77.985
		z"/>
	<path style="fill:#183651;" d="M352.888,93.739H252.063c-2.363,0-4.726-0.788-6.302-3.151c-1.575-1.575-2.363-3.938-1.575-6.302
		c2.363-11.815,34.658-63.015,54.351-75.618c23.631-15.754,55.138-9.452,70.892,14.178c14.966,22.843,9.452,52.775-11.815,69.317
		C356.039,92.951,354.463,93.739,352.888,93.739z M264.666,77.985h85.858c13.391-11.815,15.754-31.508,6.302-46.474
		c-11.028-16.542-33.083-20.48-48.837-9.452C294.599,29.936,273.331,61.444,264.666,77.985z"/>
</g>
<g>
	<rect x="73.257" y="213.468" style="fill:#FBBD5E;" width="356.825" height="48.837"/>
	<rect x="227.645" y="117.37" style="fill:#FBBD5E;" width="48.837" height="241.034"/>
</g>
<circle style="fill:#4FBF9F;" cx="252.063" cy="393.85" r="83.495"/>
<path style="fill:#183651;" d="M252.063,485.222c-50.412,0-91.372-40.96-91.372-91.372s40.96-91.372,91.372-91.372
	s91.372,40.96,91.372,91.372S302.476,485.222,252.063,485.222z M252.063,319.019c-41.748,0-75.618,33.871-75.618,75.618
	s33.871,75.618,75.618,75.618s75.618-33.871,75.618-75.618S293.811,319.019,252.063,319.019z"/>
<path style="fill:#FFFFFF;" d="M252.063,452.139c-32.295,0-58.289-25.994-58.289-58.289s25.994-58.289,58.289-58.289
	s58.289,25.994,58.289,58.289S284.359,452.139,252.063,452.139z"/>
<g>
	<polygon style="fill:#E0E4E8;" points="237.097,429.296 223.706,429.296 267.03,358.404 280.42,358.404 	"/>
	<circle style="fill:#E0E4E8;" cx="267.03" cy="419.056" r="10.24"/>
	<circle style="fill:#E0E4E8;" cx="237.097" cy="369.431" r="10.24"/>
</g>
<g>
	<rect x="308.777" y="155.967" style="fill:#183651;" width="15.754" height="15.754"/>
	<rect x="346.586" y="155.967" style="fill:#183651;" width="15.754" height="15.754"/>
	<rect x="385.183" y="155.967" style="fill:#183651;" width="15.754" height="15.754"/>
	<rect x="103.19" y="155.967" style="fill:#183651;" width="15.754" height="15.754"/>
	<rect x="140.999" y="155.967" style="fill:#183651;" width="15.754" height="15.754"/>
	<rect x="179.596" y="155.967" style="fill:#183651;" width="15.754" height="15.754"/>
</g>
<g>
</g>
<g>
</g>
<g>
</g>
<g>
</g>
<g>
</g>
<g>
</g>
<g>
</g>
<g>
</g>
<g>
</g>
<g>
</g>
<g>
</g>
<g>
</g>
<g>
</g>
<g>
</g>
<g>
</g>
</svg>
