<?xml version="1.0" encoding="iso-8859-1"?>
<!-- Generator: Adobe Illustrator 19.0.0, SVG Export Plug-In . SVG Version: 6.00 Build 0)  -->
<svg version="1.1" id="Capa_1" xmlns="http://www.w3.org/2000/svg" xmlns:xlink="http://www.w3.org/1999/xlink" x="0px" y="0px"
	 viewBox="0 0 504.123 504.123" style="enable-background:new 0 0 504.123 504.123;" xml:space="preserve">
<circle style="fill:#F06151;" cx="365.489" cy="365.489" r="138.634"/>
<rect x="27.569" y="158.326" style="fill:#FFFFFF;" width="369.428" height="257.575"/>
<path style="fill:#183651;" d="M396.997,424.566H27.569c-4.726,0-7.877-3.151-7.877-7.877V158.326c0-4.726,3.151-7.877,7.877-7.877
	h369.428c4.726,0,7.877,3.151,7.877,7.877v257.575C404.874,420.628,400.935,424.566,396.997,424.566z M35.446,408.812H389.12
	V166.203H35.446V408.812z"/>
<rect x="59.077" y="189.834" style="fill:#E1E6E7;" width="306.412" height="194.56"/>
<rect x="122.88" y="7.877" style="fill:#FFFFFF;" width="178.806" height="63.015"/>
<path style="fill:#183651;" d="M301.686,78.769H122.88c-4.726,0-7.877-3.151-7.877-7.877V7.877c0-4.726,3.151-7.877,7.877-7.877
	h178.806c4.726,0,7.877,3.151,7.877,7.877v63.015C309.563,74.831,305.625,78.769,301.686,78.769z M130.757,63.015h163.052V15.754
	H130.757V63.015z"/>
<path style="fill:#183651;" d="M311.926,15.754H111.852c-4.726,0-7.877-3.151-7.877-7.877S107.126,0,111.852,0h200.074
	c4.726,0,7.877,3.151,7.877,7.877S316.652,15.754,311.926,15.754z"/>
<polygon style="fill:#FFFFFF;" points="416.689,182.745 211.889,267.815 7.877,182.745 7.877,70.892 416.689,70.892 "/>
<path style="fill:#183651;" d="M211.889,275.692c-0.788,0-2.363,0-3.151-0.788L4.726,189.834C1.575,188.258,0,185.895,0,182.745
	V70.892c0-4.726,3.151-7.877,7.877-7.877h408.812c4.726,0,7.877,3.151,7.877,7.877v111.852c0,3.151-1.575,6.302-4.726,7.089
	l-204.8,85.071C214.252,275.692,213.465,275.692,211.889,275.692z M15.754,177.231l196.135,81.92l196.923-81.92V78.769H15.754
	V177.231z"/>
<polygon style="fill:#4FBF9F;" points="39.385,161.477 39.385,102.4 385.182,102.4 385.182,161.477 211.889,233.157 "/>
<path style="fill:#FFFFFF;" d="M211.102,302.474L211.102,302.474c-16.542,0-29.145-13.391-29.145-29.145v-83.495h58.289v83.495
	C240.246,289.871,226.855,302.474,211.102,302.474z"/>
<path style="fill:#183651;" d="M211.102,310.351c-20.48,0-37.022-16.542-37.022-37.022v-83.495c0-4.726,3.151-7.877,7.877-7.877
	h58.289c4.726,0,7.877,3.151,7.877,7.877v83.495C248.123,293.809,231.582,310.351,211.102,310.351z M189.046,197.711v75.618
	c0,11.815,9.452,21.268,21.268,21.268s21.268-9.452,21.268-21.268v-75.618H189.046z"/>
<path style="fill:#183651;" d="M254.425,197.711h-87.434c-4.726,0-7.877-3.151-7.877-7.877c0-4.726,3.151-7.877,7.877-7.877h87.434
	c4.726,0,7.877,3.151,7.877,7.877C262.302,194.56,259.151,197.711,254.425,197.711z"/>
<path style="fill:#FFFFFF;" d="M322.954,467.102l33.871,7.877l9.452-24.418c8.665,0,17.329-1.575,25.206-3.938l15.754,20.48
	l29.932-18.117l-11.028-23.631c6.302-6.302,11.028-12.603,14.966-20.48l25.994,3.151l7.877-33.871l-24.418-9.452
	c0-8.665-1.575-17.329-3.938-25.206l20.48-15.754l-18.117-29.932l-23.631,11.028c-6.302-6.302-12.603-11.028-20.48-14.966
	l3.151-25.994L374.154,256l-9.452,24.418c-8.665,0-17.329,1.575-25.206,3.938l-15.754-20.48l-29.932,18.117l11.028,23.631
	c-6.302,6.302-11.028,12.603-14.966,20.48l-25.994-3.151L256,356.825l24.418,9.452c0,8.665,1.575,17.329,3.938,25.206l-20.48,15.754
	l18.117,29.932l23.631-11.028c6.302,6.302,12.603,11.028,20.48,14.966L322.954,467.102z"/>
<path style="fill:#183651;" d="M356.825,483.643c-0.788,0-1.575,0-1.575,0l-33.871-7.877c-3.938-0.788-6.302-4.726-6.302-8.665
	l2.363-20.48c-4.726-3.151-9.452-6.302-13.391-10.24l-18.905,8.665c-3.938,1.575-7.877,0-10.24-3.151l-18.117-29.932
	c-2.363-3.151-1.575-7.877,1.575-10.24l16.542-12.603c-1.575-5.514-2.363-11.028-2.363-16.542l-19.692-7.089
	c-3.938-1.575-5.514-5.514-4.726-9.452L256,322.166c0.788-3.938,4.726-6.302,8.665-6.302l20.48,2.363
	c3.151-4.726,6.302-9.452,10.24-13.391l-7.877-19.692c-1.575-3.938,0-7.877,3.151-10.24l29.932-18.117
	c3.151-2.363,7.877-1.575,10.24,1.575l12.603,16.542c5.514-1.575,11.028-2.363,16.542-2.363l7.089-19.692
	c1.575-3.938,5.514-5.514,9.452-4.726L410.388,256c3.938,0.788,6.302,4.726,6.302,8.665l-3.151,21.268
	c4.726,3.151,9.452,6.302,13.391,10.24l18.905-8.665c3.938-1.575,7.877,0,10.24,3.151l18.117,29.932
	c2.363,3.151,1.575,7.877-1.575,10.24l-16.542,12.603c1.575,5.514,2.363,11.028,2.363,16.542l19.692,7.089
	c3.938,1.575,5.514,5.514,4.726,9.452l-7.877,33.871c-0.788,3.938-4.726,6.302-8.665,6.302l-20.48-3.151
	c-3.151,4.726-6.302,9.452-10.24,13.391l8.665,18.905c1.575,3.938,0,7.877-3.151,10.24l-29.932,18.117
	c-3.151,2.363-7.877,1.575-10.24-1.575l-12.603-16.542c-5.514,1.575-11.028,2.363-16.542,2.363l-7.089,19.692
	C363.126,481.28,359.975,483.643,356.825,483.643z M331.618,461.588l20.48,4.726l7.089-18.117c0.788-3.151,3.938-4.726,7.089-4.726
	c7.877,0,15.754-1.575,22.843-3.151c3.151-0.788,6.302,0,8.665,2.363l11.815,14.966l18.117-11.028l-7.877-17.329
	c-1.575-3.151-0.788-6.302,1.575-8.665c5.514-5.514,10.24-11.815,13.391-18.905c1.575-3.151,4.726-4.726,7.877-3.938l18.905,2.363
	l4.726-20.48l-18.117-7.089c-3.151-0.788-4.726-3.938-4.726-7.089c0-7.877-1.575-15.754-3.151-22.843
	c-0.788-3.151,0-6.302,2.363-8.665l14.966-11.815l-11.028-18.117l-17.329,7.877c-3.151,1.575-6.302,0.788-8.665-1.575
	c-5.514-5.514-11.815-10.24-18.905-13.391c-3.151-1.575-4.726-4.726-3.938-7.877l2.363-18.905l-20.48-4.726l-7.089,18.117
	c-0.788,3.151-3.938,4.726-7.089,4.726c-7.877,0-15.754,1.575-22.843,3.151c-3.151,0.788-6.302,0-8.665-2.363l-11.815-14.966
	l-18.117,11.028l7.877,17.329c1.575,3.151,0.788,6.302-1.575,8.665c-5.514,5.514-10.24,11.815-13.391,18.905
	c-1.575,3.151-4.726,4.726-7.877,3.938l-18.905-2.363l-4.726,20.48l18.117,7.089c3.151,0.788,4.726,3.938,4.726,7.089
	c0,7.877,1.575,15.754,3.151,22.843c0.788,3.151,0,6.302-2.363,8.665L274.117,409.6l11.028,18.117l17.329-7.877
	c3.151-1.575,6.302-0.788,8.665,1.575c5.514,5.514,11.815,10.24,18.905,13.391c3.151,1.575,4.726,4.726,3.938,7.877L331.618,461.588
	z"/>
<circle style="fill:#2EA0DA;" cx="365.489" cy="365.489" r="63.015"/>
<circle style="fill:#FFFFFF;" cx="365.489" cy="365.489" r="30.72"/>
<g>
	<path style="fill:#183651;" d="M365.489,404.086c-3.151,0-6.302,0-9.452-0.788c-20.48-4.726-33.083-25.994-28.357-46.474
		c3.938-17.329,19.692-29.145,37.022-29.145c3.151,0,6.302,0,9.452,0.788c10.24,2.363,18.117,8.665,23.631,17.329
		c5.514,8.665,7.089,18.905,4.726,29.145C398.572,392.271,383.606,404.086,365.489,404.086z M365.489,342.646
		c-10.24,0-19.692,7.089-22.055,17.329c-3.151,11.815,4.726,24.418,16.542,27.569c11.815,3.151,24.418-4.726,27.569-16.542
		c1.575-6.302,0.788-11.815-2.363-17.329c-3.151-5.514-7.877-8.665-14.178-10.24C369.428,343.434,367.852,342.646,365.489,342.646z"
		/>
	<rect x="104.763" y="126.031" style="fill:#183651;" width="15.754" height="15.754"/>
	<rect x="154.388" y="126.031" style="fill:#183651;" width="15.754" height="15.754"/>
	<rect x="204.012" y="126.031" style="fill:#183651;" width="15.754" height="15.754"/>
	<rect x="253.637" y="126.031" style="fill:#183651;" width="15.754" height="15.754"/>
	<rect x="304.049" y="126.031" style="fill:#183651;" width="15.754" height="15.754"/>
</g>
<g>
</g>
<g>
</g>
<g>
</g>
<g>
</g>
<g>
</g>
<g>
</g>
<g>
</g>
<g>
</g>
<g>
</g>
<g>
</g>
<g>
</g>
<g>
</g>
<g>
</g>
<g>
</g>
<g>
</g>
</svg>
