<?xml version="1.0" encoding="iso-8859-1"?>
<!-- Generator: Adobe Illustrator 19.0.0, SVG Export Plug-In . SVG Version: 6.00 Build 0)  -->
<svg version="1.1" id="Capa_1" xmlns="http://www.w3.org/2000/svg" xmlns:xlink="http://www.w3.org/1999/xlink" x="0px" y="0px"
	 viewBox="0 0 504.123 504.123" style="enable-background:new 0 0 504.123 504.123;" xml:space="preserve">
<circle style="fill:#F06151;" cx="252.062" cy="252.062" r="252.062"/>
<g>
	<rect x="99.249" y="96.886" style="fill:#183651;" width="15.754" height="15.754"/>
	<rect x="99.249" y="153.6" style="fill:#183651;" width="15.754" height="15.754"/>
	<rect x="99.249" y="209.526" style="fill:#183651;" width="15.754" height="15.754"/>
	<rect x="389.12" y="96.886" style="fill:#183651;" width="15.754" height="15.754"/>
	<rect x="389.12" y="153.6" style="fill:#183651;" width="15.754" height="15.754"/>
	<rect x="389.12" y="209.526" style="fill:#183651;" width="15.754" height="15.754"/>
</g>
<path style="fill:#FFFFFF;" d="M401.723,268.603H102.4c-12.603,0-22.055,10.24-22.055,22.055v182.745
	c0,12.603,10.24,22.055,22.055,22.055h300.111c12.603,0,22.055-10.24,22.055-22.055V290.658
	C424.566,278.843,414.326,268.603,401.723,268.603z"/>
<path style="fill:#183651;" d="M401.723,504.123H102.4c-16.542,0-29.932-13.391-29.932-29.932V290.658
	c0-16.542,13.391-29.932,29.932-29.932h300.111c16.542,0,29.932,13.391,29.932,29.932v182.745
	C432.443,490.732,418.265,504.123,401.723,504.123z M102.4,276.48c-7.877,0-14.178,6.302-14.178,14.178v182.745
	c0,7.877,6.302,14.178,14.178,14.178h300.111c7.877,0,14.178-6.302,14.178-14.178V290.658c0-7.877-6.302-14.178-14.178-14.178
	L102.4,276.48L102.4,276.48z"/>
<rect x="111.065" y="300.111" style="fill:#4FBF9F;" width="281.206" height="164.628"/>
<g>
	<path style="fill:#183651;" d="M401.723,391.483H102.4c-16.542,0-29.932-13.391-29.932-29.932c0-4.726,3.151-7.877,7.877-7.877
		s7.877,3.151,7.877,7.877c0,7.877,6.302,14.178,14.178,14.178h300.111c7.877,0,14.178-6.302,14.178-14.178
		c0-4.726,3.151-7.877,7.877-7.877s7.877,3.151,7.877,7.877C432.443,377.305,418.265,391.483,401.723,391.483z"/>
	<path style="fill:#183651;" d="M344.222,276.48h-184.32c-4.726,0-7.877-3.151-7.877-7.877v-60.652c0-4.726,3.151-7.877,7.877-7.877
		h183.532c4.726,0,7.877,3.151,7.877,7.877v60.652C352.098,273.329,348.16,276.48,344.222,276.48z M167.778,260.726h167.778v-44.898
		H167.778V260.726z"/>
</g>
<path style="fill:#FFFFFF;" d="M233.157,341.071v63.015c0,11.028,8.665,18.905,18.905,18.905c11.028,0,18.905-8.665,18.905-18.905
	v-63.015H233.157z"/>
<path style="fill:#183651;" d="M252.062,431.655c-14.966,0-26.782-11.815-26.782-26.782v-63.015c0-4.726,3.151-7.877,7.877-7.877
	h38.597c4.726,0,7.877,3.151,7.877,7.877v63.015C278.843,419.052,267.028,431.655,252.062,431.655z M241.034,348.948v55.138
	c0,6.302,4.726,11.028,11.028,11.028s11.028-4.726,11.028-11.028v-55.138H241.034z"/>
<path style="fill:#183651;" d="M285.932,348.948h-67.742c-4.726,0-7.877-3.151-7.877-7.877s3.151-7.877,7.877-7.877h67.742
	c4.726,0,7.877,3.151,7.877,7.877S290.658,348.948,285.932,348.948z"/>
<path style="fill:#FBBD5E;" d="M333.982,87.434l-27.569-23.631H195.348c-7.089,18.117-11.028,50.412-11.028,70.105v85.071
	c0,8.665,6.302,16.542,14.966,17.329c9.452,0.788,18.117-6.302,18.117-16.542c0,8.665,7.089,16.542,16.542,16.542h0.788
	c8.665,0,16.542-7.089,16.542-16.542c0,8.665,7.089,16.542,16.542,16.542h0.788c8.665,0,16.542-7.089,16.542-16.542v0.788
	c0,8.665,7.089,16.542,16.542,16.542h0.788c8.665,0,16.542-7.089,16.542-16.542v-59.077c0,9.452,7.877,17.329,17.329,16.542
	c8.665-0.788,15.754-8.665,15.754-17.329v-18.117C351.311,128.394,345.009,96.098,333.982,87.434z"/>
<path style="fill:#183651;" d="M301.686,244.185h-0.788c-6.302,0-12.603-2.363-16.542-6.302c-3.938,3.938-10.24,6.302-15.754,6.302
	h-0.788c-6.302,0-11.815-2.363-16.542-6.302c-3.938,3.938-10.24,6.302-16.542,6.302h-0.788c-6.302,0-11.815-2.363-16.542-6.302
	c-4.726,4.726-11.815,7.089-18.905,6.302c-11.815-1.575-22.055-11.815-22.055-25.206v-85.071c0-21.268,3.938-54.351,11.028-73.255
	c1.575-3.151,3.938-4.726,7.089-4.726h111.065c1.575,0,3.938,0.788,4.726,1.575l27.569,23.631
	c14.178,11.815,19.692,48.049,19.692,61.44v18.117c0,13.391-10.24,24.418-23.631,25.206h-1.575c-3.151,0-6.302-0.788-8.665-1.575
	v35.446C325.317,233.157,314.289,244.185,301.686,244.185z M292.234,219.766c0,4.726,3.938,8.665,8.665,8.665h0.788
	c4.726,0,8.665-3.938,8.665-8.665v-58.289c0-4.726,3.151-7.877,7.877-7.877c4.726,0,7.877,3.151,7.877,7.877
	c0,4.726,3.938,8.665,8.665,8.665s8.665-4.726,8.665-9.452v-18.117c0-14.178-6.302-42.535-14.178-49.625L303.262,71.68h-102.4
	c-5.514,16.542-8.665,44.111-8.665,62.228v85.071c0,4.726,3.151,8.665,7.877,9.452c4.726,0.788,9.452-3.151,9.452-8.665
	c0-4.726,3.151-7.877,7.877-7.877c4.726,0,7.877,3.151,7.877,7.877c0,4.726,3.938,8.665,8.665,8.665h0.788
	c4.726,0,8.665-3.938,8.665-8.665c0-4.726,3.151-7.877,7.877-7.877c4.726,0,7.877,3.151,7.877,7.877
	c0,4.726,3.938,8.665,8.665,8.665h0.788c4.726,0,8.665-3.938,8.665-8.665c0-4.726,3.151-7.877,7.877-7.877
	S292.234,215.04,292.234,219.766z"/>
<rect x="181.169" y="7.877" style="fill:#FFFFFF;" width="147.298" height="55.926"/>
<path style="fill:#183651;" d="M328.468,71.68H181.169c-4.726,0-7.877-3.151-7.877-7.877V7.877c0-4.726,3.151-7.877,7.877-7.877
	h147.298c4.726,0,7.877,3.151,7.877,7.877v55.926C336.345,67.742,332.406,71.68,328.468,71.68z M189.046,55.926h131.545V15.754
	H189.046V55.926z"/>
<path style="fill:#183651;" d="M284.357,227.643c-4.726,0-7.877-3.151-7.877-7.877v-41.748c0-4.726,3.151-7.877,7.877-7.877
	s7.877,3.151,7.877,7.877v41.748C292.234,224.492,288.295,227.643,284.357,227.643z"/>
<path style="fill:#183651;" d="M250.486,227.643c-4.726,0-7.877-3.151-7.877-7.877v-41.748c0-4.726,3.151-7.877,7.877-7.877
	s7.877,3.151,7.877,7.877v41.748C258.363,223.705,255.212,227.643,250.486,227.643z"/>
<path style="fill:#183651;" d="M217.403,227.643c-4.726,0-7.877-3.151-7.877-7.877v-41.748c0-4.726,3.151-7.877,7.877-7.877
	c4.726,0,7.877,3.151,7.877,7.877v41.748C225.28,223.705,221.342,227.643,217.403,227.643z"/>
<path style="fill:#183651;" d="M317.44,169.354c-4.726,0-7.877-3.151-7.877-7.877v-24.418c0-4.726,3.151-7.877,7.877-7.877
	s7.877,3.151,7.877,7.877v24.418C325.317,165.415,322.166,169.354,317.44,169.354z"/>
<g>
</g>
<g>
</g>
<g>
</g>
<g>
</g>
<g>
</g>
<g>
</g>
<g>
</g>
<g>
</g>
<g>
</g>
<g>
</g>
<g>
</g>
<g>
</g>
<g>
</g>
<g>
</g>
<g>
</g>
</svg>
