<?xml version="1.0" encoding="iso-8859-1"?>
<!-- Generator: Adobe Illustrator 19.0.0, SVG Export Plug-In . SVG Version: 6.00 Build 0)  -->
<svg version="1.1" id="Capa_1" xmlns="http://www.w3.org/2000/svg" xmlns:xlink="http://www.w3.org/1999/xlink" x="0px" y="0px"
	 viewBox="0 0 504.123 504.123" style="enable-background:new 0 0 504.123 504.123;" xml:space="preserve">
<circle style="fill:#E0E4E8;" cx="363.914" cy="364.702" r="139.422"/>
<path style="fill:#FFFFFF;" d="M474.191,398.572v-29.145l-21.268-2.363c-1.575-7.089-4.726-13.391-7.877-19.692l13.391-17.329
	l-21.268-19.692l-17.329,13.391c-6.302-3.938-12.603-6.302-19.692-7.877l-2.363-21.268H368.64l-2.363,21.268
	c-7.089,1.575-13.391,4.726-19.692,7.877l-17.329-13.391l-20.48,20.48l13.391,17.329c-3.938,6.302-6.302,12.603-7.877,19.692
	l-21.268,2.363v29.145l21.268,2.363c1.575,7.089,4.726,13.391,7.877,19.692l-13.391,17.329l20.48,20.48l17.329-13.391
	c6.302,3.938,12.603,6.302,19.692,7.877l2.363,21.268h29.145l2.363-21.268c7.089-1.575,13.391-4.726,19.692-7.877l17.329,13.391
	l20.48-20.48l-13.391-17.329c3.938-6.302,6.302-12.603,7.877-19.692L474.191,398.572z"/>
<path style="fill:#183651;" d="M398.572,482.855h-29.145c-3.938,0-7.089-3.151-7.877-7.089l-2.363-16.542
	c-3.938-1.575-7.877-3.151-11.815-4.726l-12.603,10.24c-3.151,2.363-7.877,2.363-10.24-0.788l-20.48-20.48
	c-3.151-3.151-3.151-7.089-0.788-10.24l10.24-12.603c-1.575-3.938-3.151-7.877-4.726-11.815l-16.542-2.363
	c-3.938-0.788-7.089-3.938-7.089-7.877v-29.145c0-3.938,3.151-7.089,7.089-7.877l16.542-2.363c1.575-3.938,3.151-7.877,4.726-11.815
	l-10.24-11.815c-2.363-3.151-2.363-7.877,0.788-10.24l20.48-20.48c3.151-3.151,7.089-3.151,10.24-0.788l12.603,10.24
	c3.938-1.575,7.877-3.151,11.815-4.726l2.363-16.542c0.788-3.938,3.938-7.089,7.877-7.089h29.145c3.938,0,7.089,3.151,7.877,7.089
	l2.363,16.542c3.938,1.575,7.877,3.151,11.815,4.726l12.603-10.24c3.151-2.363,7.877-2.363,10.24,0.788l20.48,20.48
	c3.151,3.151,3.151,7.089,0.788,10.24l-10.24,12.603c1.575,3.938,3.151,7.877,4.726,11.815l16.542,2.363
	c3.938,0.788,7.089,3.938,7.089,7.877v29.145c0,3.938-3.151,7.089-7.089,7.877l-16.542,2.363c-1.575,3.938-3.151,7.877-4.726,11.815
	l10.24,12.603c2.363,3.151,2.363,7.877-0.788,10.24l-20.48,20.48c-3.151,3.151-7.089,3.151-10.24,0.788l-12.603-10.24
	c-3.938,1.575-7.877,3.151-11.815,4.726l-2.363,16.542C405.662,479.705,402.511,482.855,398.572,482.855z M376.517,467.102h14.966
	l1.575-14.178c0.788-3.151,2.363-6.302,6.302-7.089c6.302-1.575,11.815-3.938,17.329-7.089c3.151-1.575,6.302-1.575,8.665,0.788
	l11.815,8.665l10.24-10.24l-8.665-11.815c-2.363-2.363-2.363-6.302-0.788-8.665c3.151-5.514,5.514-11.028,7.089-17.329
	c0.788-3.151,3.151-5.514,7.089-6.302l14.178-1.575v-14.966l-14.178-1.575c-3.151,0-6.302-2.363-7.089-6.302
	c-1.575-6.302-3.938-11.815-7.089-17.329c-1.575-3.151-1.575-6.302,0.788-8.665l8.665-11.815l-10.24-10.24l-11.815,8.665
	c-2.363,2.363-6.302,2.363-8.665,0.788c-5.514-3.151-11.028-5.514-17.329-7.089c-3.151-0.788-5.514-3.151-6.302-7.089l-1.575-14.178
	h-14.966l-2.363,14.179c-0.788,3.151-2.363,6.302-6.302,7.089c-6.302,1.575-11.815,3.938-17.329,7.089
	c-3.151,1.575-6.302,1.575-8.665-0.788l-11.815-8.665l-10.24,10.24l8.665,11.815c2.363,2.363,2.363,6.302,0.788,8.665
	c-3.151,5.514-5.514,11.028-7.089,17.329c-0.788,3.151-3.151,5.514-7.089,6.302l-14.178,1.575v14.966l14.178,1.575
	c3.151,0.788,6.302,2.363,7.089,6.302c1.575,6.302,3.938,11.815,7.089,17.329c1.575,3.151,1.575,6.302-0.788,8.665l-7.877,11.028
	l10.24,10.24l11.815-8.665c2.363-2.363,6.302-2.363,8.665-0.788c5.514,3.151,11.028,5.514,17.329,7.089
	c3.151,0.788,5.514,3.151,6.302,7.089L376.517,467.102z"/>
<circle style="fill:#F06151;" cx="383.606" cy="384.394" r="50.412"/>
<circle style="fill:#FFFFFF;" cx="383.606" cy="384.394" r="20.48"/>
<path style="fill:#183651;" d="M383.606,412.751c-15.754,0-28.357-12.603-28.357-28.357s12.603-28.357,28.357-28.357
	s28.357,12.603,28.357,28.357C411.963,400.148,399.36,412.751,383.606,412.751z M383.606,371.791
	c-7.089,0-12.603,5.514-12.603,12.603c0,7.089,5.514,12.603,12.603,12.603c7.089,0,12.603-5.514,12.603-12.603
	C396.209,377.305,390.695,371.791,383.606,371.791z"/>
<path style="fill:#FFFFFF;" d="M145.723,38.597C83.495,57.502,41.748,117.366,41.748,182.745l0,0
	c0,48.049,22.055,90.585,57.502,118.154c18.905,14.966,28.357,37.809,28.357,61.44v23.631h130.757v-23.631
	c0-23.631,10.24-46.474,28.357-61.44c34.658-27.569,57.502-70.105,57.502-118.154l0,0C345.009,83.495,249.698,7.089,145.723,38.597z
	"/>
<path style="fill:#183651;" d="M259.151,393.846H128.394c-4.726,0-7.877-3.151-7.877-7.877v-23.631
	c0-22.055-9.452-42.535-25.994-55.138c-38.597-30.72-60.652-75.618-60.652-124.455c0-69.317,44.898-131.545,109.489-151.237
	c16.542-4.726,33.083-7.877,50.412-7.877c87.434,0,159.114,71.68,159.114,159.114c0,48.837-22.055,94.523-60.652,124.455
	c-15.754,12.603-25.994,33.083-25.994,55.138v23.631C267.028,390.695,263.877,393.846,259.151,393.846z M136.271,378.092h115.003
	v-15.754c0-26.782,11.815-51.988,31.508-67.742c34.658-27.569,54.351-68.529,54.351-111.852c0-78.769-64.591-143.36-143.36-143.36
	c-14.966,0-30.72,2.363-45.686,7.089c-57.502,17.329-97.674,74.043-97.674,136.271c0,44.111,19.692,85.071,54.351,112.64
	c19.692,15.754,31.508,40.96,31.508,67.742V378.092z"/>
<rect x="137.846" y="385.969" style="fill:#FFFFFF;" width="111.852" height="75.618"/>
<path style="fill:#183651;" d="M249.698,469.465H137.846c-4.726,0-7.877-3.151-7.877-7.877v-75.618c0-4.726,3.151-7.877,7.877-7.877
	h111.852c4.726,0,7.877,3.151,7.877,7.877v75.618C257.575,466.314,254.425,469.465,249.698,469.465z M145.723,453.711h96.098
	v-59.865h-96.098V453.711z"/>
<path style="fill:#FFFFFF;" d="M170.142,496.246h47.262c7.877-6.302,12.603-16.542,12.603-27.569v-7.089h-73.255v7.089
	C157.538,479.705,162.265,489.945,170.142,496.246z"/>
<path style="fill:#183651;" d="M217.403,504.123h-47.262c-1.575,0-3.938-0.788-4.726-1.575c-10.24-8.665-15.754-20.48-15.754-33.871
	v-7.089c0-4.726,3.151-7.877,7.877-7.877h73.255c4.726,0,7.877,3.151,7.877,7.877v7.089c0,12.603-5.514,25.206-15.754,33.871
	C221.342,503.335,218.978,504.123,217.403,504.123z M173.292,488.369h40.96c4.726-4.726,7.877-11.815,7.877-18.905h-56.714
	C165.415,476.554,168.566,483.643,173.292,488.369z"/>
<path style="fill:#183651;" d="M267.815,431.655h-18.117c-4.726,0-7.877-3.151-7.877-7.877c0-4.726,3.151-7.877,7.877-7.877h18.117
	c4.726,0,7.877,3.151,7.877,7.877C275.692,428.505,272.542,431.655,267.815,431.655z"/>
<path style="fill:#183651;" d="M137.846,431.655h-18.117c-4.726,0-7.877-3.151-7.877-7.877c0-4.726,3.151-7.877,7.877-7.877h18.117
	c4.726,0,7.877,3.151,7.877,7.877C145.723,428.505,141.785,431.655,137.846,431.655z"/>
<path style="fill:#FBBD5E;" d="M193.772,61.44c-12.603,0-25.994,2.363-39.385,6.302C106.338,81.92,71.68,129.969,71.68,182.745
	c0,37.022,16.542,71.68,46.474,95.311c23.631,18.905,37.809,47.262,39.385,77.982v22.055h71.68v-22.055
	c1.575-31.508,15.754-59.077,39.385-77.982c29.145-23.631,46.474-58.289,46.474-95.311C315.865,115.791,260.726,61.44,193.772,61.44
	z"/>
<g>
	<rect x="163.84" y="415.902" style="fill:#183651;" width="15.754" height="15.754"/>
	<rect x="207.951" y="415.902" style="fill:#183651;" width="15.754" height="15.754"/>
	<path style="fill:#183651;" d="M211.102,393.846h-34.658c-4.726,0-7.877-3.151-7.877-7.877V205.588
		c0-4.726,3.151-7.877,7.877-7.877h34.658c4.726,0,7.877,3.151,7.877,7.877v180.382C218.978,390.695,215.04,393.846,211.102,393.846
		z M184.32,378.092h18.905V213.465H184.32V378.092z"/>
</g>
<circle style="fill:#FFFFFF;" cx="193.772" cy="192.985" r="52.775"/>
<path style="fill:#183651;" d="M193.772,253.637c-33.871,0-60.652-27.569-60.652-60.652s27.569-60.652,60.652-60.652
	s60.652,27.569,60.652,60.652S227.643,253.637,193.772,253.637z M193.772,148.086c-24.418,0-44.898,20.48-44.898,44.898
	s20.48,44.898,44.898,44.898s44.898-20.48,44.898-44.898S218.191,148.086,193.772,148.086z"/>
<circle style="fill:#F06151;" cx="193.772" cy="192.985" r="21.268"/>
<g>
	<rect x="0.788" y="185.108" style="fill:#183651;" width="15.754" height="15.754"/>
	<rect x="371.003" y="185.108" style="fill:#183651;" width="15.754" height="15.754"/>
	
		<rect x="25.183" y="277.787" transform="matrix(-0.4999 -0.8661 0.8661 -0.4999 -197.8241 457.0987)" style="fill:#183651;" width="15.754" height="15.754"/>
	
		<rect x="346.208" y="93.003" transform="matrix(-0.5 -0.866 0.866 -0.5 443.7676 457.9651)" style="fill:#183651;" width="15.753" height="15.753"/>
	
		<rect x="278.605" y="25.309" transform="matrix(-0.8659 -0.5002 0.5002 -0.8659 517.9487 205.2221)" style="fill:#183651;" width="15.754" height="15.754"/>
	<rect x="185.895" style="fill:#183651;" width="15.754" height="15.754"/>
	
		<rect x="92.766" y="24.762" transform="matrix(-0.4999 -0.8661 0.8661 -0.4999 122.6859 136.1214)" style="fill:#183651;" width="15.754" height="15.754"/>
	
		<rect x="25.088" y="92.795" transform="matrix(-0.8661 -0.4999 0.4999 -0.8661 11.1901 204.3422)" style="fill:#183651;" width="15.754" height="15.754"/>
</g>
<g>
</g>
<g>
</g>
<g>
</g>
<g>
</g>
<g>
</g>
<g>
</g>
<g>
</g>
<g>
</g>
<g>
</g>
<g>
</g>
<g>
</g>
<g>
</g>
<g>
</g>
<g>
</g>
<g>
</g>
</svg>
