<?xml version="1.0" encoding="iso-8859-1"?>
<!-- Generator: Adobe Illustrator 19.0.0, SVG Export Plug-In . SVG Version: 6.00 Build 0)  -->
<svg version="1.1" id="Capa_1" xmlns="http://www.w3.org/2000/svg" xmlns:xlink="http://www.w3.org/1999/xlink" x="0px" y="0px"
	 viewBox="0 0 504.123 504.123" style="enable-background:new 0 0 504.123 504.123;" xml:space="preserve">
<path style="fill:#E0E4E8;" d="M8.271,374.154c0,44.111,81.132,79.557,181.169,79.557s181.169-35.446,181.169-79.557V87.434H8.271
	L8.271,374.154L8.271,374.154z"/>
<g>
	<path style="fill:#183651;" d="M189.44,461.588c-106.338,0-189.046-38.597-189.046-87.434V79.557h378.092v294.597
		C378.486,423.778,295.778,461.588,189.44,461.588z M16.148,95.311v278.843c0,38.597,79.557,71.68,173.292,71.68
		s173.292-33.083,173.292-71.68V95.311H16.148z"/>
	<path style="fill:#183651;" d="M189.44,389.908c-106.338,0-189.046-38.597-189.046-87.434h15.754
		c0,38.597,79.557,71.68,173.292,71.68s173.292-33.083,173.292-71.68h15.754C378.486,352.098,295.778,389.908,189.44,389.908z"/>
	<path style="fill:#183651;" d="M189.44,318.228c-106.338,0-189.046-38.597-189.046-87.434h15.754
		c0,38.597,79.557,71.68,173.292,71.68s173.292-33.083,173.292-71.68h15.754C378.486,280.418,295.778,318.228,189.44,318.228z"/>
	<path style="fill:#183651;" d="M189.44,246.548c-106.338,0-189.046-38.597-189.046-87.434h15.754
		c0,38.597,79.557,71.68,173.292,71.68s173.292-33.083,173.292-71.68h15.754C378.486,208.738,295.778,246.548,189.44,246.548z"/>
</g>
<ellipse style="fill:#CECFD0;" cx="189.44" cy="87.434" rx="181.169" ry="79.557"/>
<path style="fill:#183651;" d="M189.44,174.868c-106.338,0-189.046-38.597-189.046-87.434S83.102,0,189.44,0
	s189.046,38.597,189.046,87.434C378.486,137.058,295.778,174.868,189.44,174.868z M189.44,15.754
	c-93.735,0-173.292,33.083-173.292,71.68s79.557,71.68,173.292,71.68s173.292-33.083,173.292-71.68S283.175,15.754,189.44,15.754z"
	/>
<path style="fill:#FFFFFF;" d="M189.44,138.634c-96.886,0-149.662-33.871-149.662-51.2s52.775-51.2,149.662-51.2
	s149.662,33.871,149.662,51.2S286.326,138.634,189.44,138.634z"/>
<g>
	<rect x="139.028" y="79.557" style="fill:#183651;" width="15.754" height="15.754"/>
	<rect x="181.563" y="79.557" style="fill:#183651;" width="15.754" height="15.754"/>
	<rect x="224.098" y="79.557" style="fill:#183651;" width="15.754" height="15.754"/>
</g>
<circle style="fill:#FBBD5E;" cx="346.978" cy="347.372" r="148.874"/>
<path style="fill:#183651;" d="M346.978,504.123c-86.646,0-156.751-70.105-156.751-156.751s70.105-156.751,156.751-156.751
	s156.751,70.105,156.751,156.751S432.837,504.123,346.978,504.123z M346.978,207.163c-77.194,0-140.997,63.015-140.997,140.997
	s63.015,140.997,140.997,140.997s140.997-63.015,140.997-140.997S424.172,207.163,346.978,207.163z"/>
<path style="fill:#FFFFFF;" d="M346.978,464.738c-64.591,0-117.366-52.775-117.366-117.366s52.775-117.366,117.366-117.366
	s117.366,52.775,117.366,117.366S411.569,464.738,346.978,464.738z"/>
<g>
	<path style="fill:#FBBD5E;" d="M343.04,409.6v-11.028c-13.391-1.575-25.994-7.089-37.022-16.542l11.028-12.603
		c8.665,7.089,17.329,11.815,25.994,12.603v-29.145c-11.028-2.363-18.905-5.514-24.418-10.24
		c-5.514-4.726-7.877-11.028-7.877-19.692c0-8.665,3.151-15.754,8.665-21.268c6.302-5.514,14.178-8.665,23.631-8.665v-7.089h9.452
		v7.877c11.028,0.788,21.268,4.726,30.72,11.028l-9.452,13.391c-6.302-4.726-13.391-7.877-21.268-8.665v28.357h0.788
		c11.815,2.363,19.692,6.302,25.206,11.028c5.514,4.726,7.877,11.028,7.877,19.692c0,8.665-3.151,15.754-9.452,21.268
		c-6.302,5.514-14.178,8.665-24.418,8.665V409.6L343.04,409.6L343.04,409.6z M332.8,313.502c-2.363,2.363-3.938,4.726-3.938,8.665
		c0,3.151,0.788,6.302,3.151,7.877s5.514,3.938,11.028,5.514v-25.994C339.102,309.563,335.163,311.138,332.8,313.502z
		 M364.308,378.88c3.151-2.363,3.938-5.514,3.938-8.665c0-3.151-0.788-6.302-3.151-8.665c-2.363-2.363-6.302-3.938-12.603-5.514
		v26.782C358.006,382.031,361.157,381.243,364.308,378.88z"/>
	<circle style="fill:#FBBD5E;" cx="432.837" cy="347.372" r="11.815"/>
	<circle style="fill:#FBBD5E;" cx="260.332" cy="347.372" r="11.815"/>
</g>
<g>
</g>
<g>
</g>
<g>
</g>
<g>
</g>
<g>
</g>
<g>
</g>
<g>
</g>
<g>
</g>
<g>
</g>
<g>
</g>
<g>
</g>
<g>
</g>
<g>
</g>
<g>
</g>
<g>
</g>
</svg>
