<?xml version="1.0" encoding="iso-8859-1"?>
<!-- Generator: Adobe Illustrator 19.0.0, SVG Export Plug-In . SVG Version: 6.00 Build 0)  -->
<svg version="1.1" id="Capa_1" xmlns="http://www.w3.org/2000/svg" xmlns:xlink="http://www.w3.org/1999/xlink" x="0px" y="0px"
	 viewBox="0 0 504.123 504.123" style="enable-background:new 0 0 504.123 504.123;" xml:space="preserve">
<circle style="fill:#E1E6E7;" cx="252.062" cy="252.062" r="252.062"/>
<path style="fill:#2CA0DA;" d="M304.837,289.871c-13.391,20.48-33.083,33.083-56.714,33.083s-43.323-12.603-56.714-33.083
	c-25.206,1.575-44.898,22.055-44.898,47.262c11.815,8.665,24.418,17.329,38.597,24.418c21.268,11.815,42.535,22.055,63.015,30.72
	c21.268-7.877,42.535-18.117,63.015-30.72c13.391-7.877,25.994-15.754,38.597-24.418
	C349.735,311.926,330.043,291.446,304.837,289.871z"/>
<ellipse style="fill:#FBBD5E;" cx="248.123" cy="232.369" rx="48.837" ry="66.954"/>
<path style="fill:#173651;" d="M301.686,185.108c-1.575-12.603-11.028-20.48-21.268-25.994c-19.692-10.24-44.111-10.24-63.803,0
	c-10.24,5.514-19.692,13.391-21.268,25.994c0,0-14.966,11.028,5.514,57.502c0,0-4.726-18.905,10.24-30.72
	c0,0-7.089-21.268,11.815-22.055c0,0,15.754,8.665,25.994,7.089c9.452,1.575,25.994-7.089,25.994-7.089
	c18.905,0,11.815,22.055,11.815,22.055c14.966,11.815,10.24,30.72,10.24,30.72C316.652,196.135,301.686,185.108,301.686,185.108z"/>
<g>
	<rect x="240.246" y="59.077" style="fill:#183651;" width="15.754" height="15.754"/>
	<rect x="240.246" y="429.292" style="fill:#183651;" width="15.754" height="15.754"/>
	
		<rect x="80.638" y="336.47" transform="matrix(-0.4999 -0.8661 0.8661 -0.4999 -165.4723 593.1452)" style="fill:#183651;" width="15.754" height="15.754"/>
	
		<rect x="400.561" y="152.06" transform="matrix(-0.5001 -0.866 0.866 -0.5001 474.1903 593.6161)" style="fill:#183651;" width="15.754" height="15.754"/>
	
		<rect x="401.078" y="336.489" transform="matrix(-0.8661 -0.4999 0.4999 -0.8661 590.9987 847.0511)" style="fill:#183651;" width="15.754" height="15.754"/>
	
		<rect x="80.198" y="151.967" transform="matrix(-0.8661 -0.4999 0.4999 -0.8661 84.4515 342.3113)" style="fill:#183651;" width="15.754" height="15.754"/>
	<path style="fill:#183651;" d="M248.123,504.123c-75.618,0-134.695-111.065-134.695-252.062S172.505,0,248.123,0
		s134.695,111.065,134.695,252.062S323.742,504.123,248.123,504.123z M248.123,15.754c-65.378,0-118.154,106.338-118.154,236.308
		s53.563,236.308,118.942,236.308s118.942-106.338,118.942-236.308S314.289,15.754,248.123,15.754z"/>
	<path style="fill:#183651;" d="M133.12,423.778c-49.625,0-85.858-16.542-103.188-45.686
		c-18.117-32.295-11.815-74.831,17.329-121.305c28.357-44.898,76.406-87.434,133.908-121.305
		c61.44-35.446,127.606-55.138,181.957-55.138c49.625,0,85.858,16.542,103.188,45.686c37.809,65.378-28.357,171.717-151.237,242.609
		C254.425,404.086,188.258,423.778,133.12,423.778z M363.126,96.098c-51.988,0-115.791,19.692-174.08,53.563
		c-55.138,32.295-100.825,73.255-128.394,115.791c-25.994,40.96-32.295,78.769-17.329,105.551
		c14.178,24.418,45.686,37.809,89.797,37.809c51.988,0,115.791-19.692,174.08-53.563
		c113.428-65.378,178.806-164.628,145.723-221.342C438.745,109.489,407.237,96.098,363.126,96.098z"/>
	<path style="fill:#183651;" d="M363.126,423.778c-55.138,0-121.305-20.48-181.957-55.138
		c-57.502-33.083-104.763-76.406-133.908-121.305c-29.145-46.474-35.446-89.009-17.329-121.305
		C47.262,96.098,83.495,80.345,133.12,80.345c55.138,0,121.305,20.48,181.957,55.138
		c122.092,70.892,189.046,177.231,151.237,242.609C449.772,408.025,412.751,423.778,363.126,423.778z M133.12,96.098
		c-43.323,0-75.618,13.391-89.797,37.809c-15.754,26.782-9.452,63.803,17.329,105.551c27.569,42.535,73.255,84.283,128.394,115.791
		c59.077,33.871,122.092,53.563,174.08,53.563c43.323,0,75.618-13.391,89.797-37.809c33.083-56.714-32.295-155.963-144.935-221.342
		C248.911,115.003,185.895,96.098,133.12,96.098z"/>
</g>
<circle style="fill:#FFFFFF;" cx="469.465" cy="322.954" r="24.418"/>
<path style="fill:#183651;" d="M469.465,355.249c-18.117,0-32.295-14.178-32.295-32.295s14.178-32.295,32.295-32.295
	s32.295,14.178,32.295,32.295S486.794,355.249,469.465,355.249z M469.465,306.412c-9.452,0-16.542,7.089-16.542,16.542
	c0,9.452,7.089,16.542,16.542,16.542c9.452,0,16.542-7.089,16.542-16.542C486.006,313.502,478.129,306.412,469.465,306.412z"/>
<circle style="fill:#FFFFFF;" cx="196.923" cy="32.295" r="24.418"/>
<path style="fill:#183651;" d="M196.923,64.591c-18.117,0-32.295-14.178-32.295-32.295S178.806,0,196.923,0
	s32.295,14.178,32.295,32.295S215.04,64.591,196.923,64.591z M196.923,15.754c-9.452,0-16.542,7.089-16.542,16.542
	s7.089,16.542,16.542,16.542s16.542-7.089,16.542-16.542S206.375,15.754,196.923,15.754z"/>
<circle style="fill:#FFFFFF;" cx="85.858" cy="407.237" r="24.418"/>
<path style="fill:#183651;" d="M85.858,439.532c-18.117,0-32.295-14.178-32.295-32.295s14.178-32.295,32.295-32.295
	s32.295,14.178,32.295,32.295S103.188,439.532,85.858,439.532z M85.858,390.695c-9.452,0-16.542,7.089-16.542,16.542
	c0,9.452,7.089,16.542,16.542,16.542s16.542-7.089,16.542-16.542C102.4,397.785,94.523,390.695,85.858,390.695z"/>
<g>
</g>
<g>
</g>
<g>
</g>
<g>
</g>
<g>
</g>
<g>
</g>
<g>
</g>
<g>
</g>
<g>
</g>
<g>
</g>
<g>
</g>
<g>
</g>
<g>
</g>
<g>
</g>
<g>
</g>
</svg>
