<?xml version="1.0" encoding="iso-8859-1"?>
<!-- Generator: Adobe Illustrator 19.0.0, SVG Export Plug-In . SVG Version: 6.00 Build 0)  -->
<svg version="1.1" id="Capa_1" xmlns="http://www.w3.org/2000/svg" xmlns:xlink="http://www.w3.org/1999/xlink" x="0px" y="0px"
	 viewBox="0 0 504.155 504.155" style="enable-background:new 0 0 504.155 504.155;" xml:space="preserve">
<circle style="fill:#FBBD5E;" cx="252.093" cy="251.274" r="251.274"/>
<path style="fill:#2EA0DA;" d="M163.872,378.092l-36.234-36.234l-77.982,25.206c0,0-11.815,68.529-40.172,129.182
	c61.44-28.357,129.182-40.172,129.182-40.172L163.872,378.092z"/>
<path style="fill:#183651;" d="M3.183,501.76c-2.363-2.363-3.151-5.514-1.575-8.665c27.569-59.865,39.385-126.818,39.385-127.606
	c0.788-3.151,2.363-5.514,5.514-6.302l77.982-25.206c3.151-0.788,5.514,0,7.877,1.575l36.234,36.234
	c2.363,2.363,3.151,5.514,1.575,7.877l-24.418,78.769c-0.788,3.151-3.151,4.726-6.302,5.514c-0.788,0-67.742,11.815-127.606,39.385
	C9.484,504.911,5.546,504.123,3.183,501.76z M55.958,372.578c-3.151,14.966-12.603,61.44-32.295,108.702
	c47.262-18.905,93.735-29.145,108.702-32.295l22.055-69.317l-29.145-29.145L55.958,372.578z"/>
<g>
	<path style="fill:#FFFFFF;" d="M50.444,454.498c9.452-29.145,15.754-55.138,18.905-70.105l51.2-16.542l16.542,16.542l-16.542,51.2
		C105.583,438.745,79.589,445.046,50.444,454.498z"/>
	
		<rect x="116.85" y="328.603" transform="matrix(-0.7071 -0.7071 0.7071 -0.7071 25.5735 704.0332)" style="fill:#FFFFFF;" width="83.495" height="36.233"/>
</g>
<path style="fill:#183651;" d="M174.9,396.997c-2.363,0-3.938-0.788-5.514-2.363l-59.077-59.077c-3.151-3.151-3.151-7.877,0-11.028
	l25.994-25.994c3.151-3.151,7.877-3.151,11.028,0l59.077,59.077c1.575,1.575,2.363,3.151,2.363,5.514s-0.788,3.938-2.363,5.514
	l-25.994,25.994C178.838,396.209,177.263,396.997,174.9,396.997z M126.85,330.043l48.049,48.049l14.178-14.178l-48.049-48.049
	L126.85,330.043z"/>
<path style="fill:#F06151;" d="M479.737,25.206c-20.48-20.48-53.563-20.48-74.043,0L133.94,296.96l74.043,74.043L479.737,99.249
	C500.217,78.769,500.217,45.686,479.737,25.206z"/>
<path style="fill:#183651;" d="M207.983,378.88c-2.363,0-3.938-0.788-5.514-2.363l-74.043-74.043
	c-1.575-1.575-2.363-3.151-2.363-5.514s0.788-3.938,2.363-5.514L400.18,19.692c23.631-23.631,61.44-23.631,85.071,0
	c23.631,23.631,23.631,61.44,0,85.071L213.497,376.517C211.921,378.092,210.346,378.88,207.983,378.88z M144.967,296.96
	l63.015,63.015l266.24-266.24c17.329-17.329,17.329-45.686,0-63.015c-17.329-17.329-45.686-17.329-63.015,0L144.967,296.96z"/>
<rect x="141.29" y="170.764" transform="matrix(-0.7071 0.7071 -0.7071 -0.7071 667.9202 114.4914)" style="fill:#FFFFFF;" width="337.917" height="49.624"/>
<g>
	<path style="fill:#183651;" d="M367.096,319.015c-17.329-17.329-17.329-45.686,0-63.015l115.791-115.791L377.337,34.658
		c-3.151-3.151-3.151-7.877,0-11.028c3.151-3.151,7.877-3.151,11.028,0l111.065,111.065c1.575,1.575,2.363,3.151,2.363,5.514
		s-0.788,3.938-2.363,5.514L378.124,267.028c-11.028,11.028-11.028,29.932,0,40.96c3.151,3.151,3.151,7.877,0,11.028
		C374.973,322.166,370.247,322.166,367.096,319.015z"/>
	<circle style="fill:#183651;" cx="91.404" cy="414.326" r="14.966"/>
</g>
<g>
	<path style="fill:#183651;" d="M4.758,500.185c-2.363-2.363-2.363-6.302,0-8.665l71.68-71.68c2.363-2.363,6.302-2.363,8.665,0
		c2.363,2.363,2.363,6.302,0,8.665l-71.68,71.68C11.06,502.548,7.121,502.548,4.758,500.185z"/>
	
		<rect x="47.944" y="252.897" transform="matrix(-0.7072 -0.707 0.707 -0.7072 -89.0723 484.6611)" style="fill:#183651;" width="15.754" height="15.754"/>
	
		<rect x="84.288" y="216.921" transform="matrix(-0.707 -0.7072 0.7072 -0.707 -1.6523 448.9119)" style="fill:#183651;" width="15.754" height="15.754"/>
	
		<rect x="120.034" y="180.388" transform="matrix(-0.7069 -0.7074 0.7074 -0.7069 85.1549 411.8217)" style="fill:#183651;" width="15.755" height="15.755"/>
	
		<rect x="155.83" y="144.938" transform="matrix(-0.7072 -0.707 0.707 -0.7072 171.4402 376.6292)" style="fill:#183651;" width="15.754" height="15.754"/>
	
		<rect x="192.161" y="108.949" transform="matrix(-0.7072 -0.707 0.707 -0.7072 258.909 340.8747)" style="fill:#183651;" width="15.754" height="15.754"/>
	
		<rect x="227.957" y="72.395" transform="matrix(-0.707 -0.7072 0.7072 -0.707 345.8007 303.8079)" style="fill:#183651;" width="15.754" height="15.754"/>
	
		<rect x="263.731" y="36.962" transform="matrix(-0.707 -0.7072 0.7072 -0.707 431.9256 268.6223)" style="fill:#183651;" width="15.754" height="15.754"/>
	
		<rect x="260.962" y="465.458" transform="matrix(-0.707 -0.7072 0.7072 -0.707 124.1642 998.1102)" style="fill:#183651;" width="15.754" height="15.754"/>
	
		<rect x="296.673" y="430.02" transform="matrix(-0.7072 -0.707 0.707 -0.7072 210.3343 962.8987)" style="fill:#183651;" width="15.754" height="15.754"/>
	
		<rect x="333.031" y="394.032" transform="matrix(-0.7071 -0.7071 0.7071 -0.7071 297.7743 927.1605)" style="fill:#183651;" width="15.754" height="15.754"/>
	
		<rect x="368.833" y="357.487" transform="matrix(-0.707 -0.7072 0.7072 -0.707 384.6583 890.0899)" style="fill:#183651;" width="15.754" height="15.754"/>
	
		<rect x="404.63" y="322.069" transform="matrix(-0.707 -0.7072 0.7072 -0.707 470.8124 854.948)" style="fill:#183651;" width="15.754" height="15.754"/>
	
		<rect x="440.914" y="286.064" transform="matrix(-0.7072 -0.707 0.707 -0.7072 558.3616 819.1155)" style="fill:#183651;" width="15.754" height="15.754"/>
	
		<rect x="476.696" y="249.486" transform="matrix(-0.7072 -0.707 0.707 -0.7072 645.3088 781.9683)" style="fill:#183651;" width="15.754" height="15.754"/>
</g>
<g>
</g>
<g>
</g>
<g>
</g>
<g>
</g>
<g>
</g>
<g>
</g>
<g>
</g>
<g>
</g>
<g>
</g>
<g>
</g>
<g>
</g>
<g>
</g>
<g>
</g>
<g>
</g>
<g>
</g>
</svg>
