<?xml version="1.0" encoding="iso-8859-1"?>
<!-- Generator: Adobe Illustrator 19.0.0, SVG Export Plug-In . SVG Version: 6.00 Build 0)  -->
<svg version="1.1" id="Capa_1" xmlns="http://www.w3.org/2000/svg" xmlns:xlink="http://www.w3.org/1999/xlink" x="0px" y="0px"
	 viewBox="0 0 504.911 504.911" style="enable-background:new 0 0 504.911 504.911;" xml:space="preserve">
<circle style="fill:#E1E6E7;" cx="252.455" cy="252.849" r="252.062"/>
<polygon style="fill:#FFFFFF;" points="398.178,207.951 438.351,207.951 438.351,79.557 462.769,79.557 417.871,24.418 
	373.76,79.557 398.178,79.557 "/>
<path style="fill:#183651;" d="M438.351,215.828h-40.172c-4.726,0-7.877-3.151-7.877-7.877V87.434H373.76
	c-3.151,0-5.514-1.575-7.089-4.726c-1.575-2.363-0.788-6.302,0.788-8.665l44.111-55.138c3.151-3.938,9.452-3.938,12.603,0
	l43.323,54.351c1.575,1.575,2.363,3.938,2.363,6.302c0,4.726-3.151,7.877-7.877,7.877l0,0H445.44v120.517
	C446.228,212.677,442.289,215.828,438.351,215.828z M406.055,200.074h24.418V79.557c0-4.726,3.151-7.877,7.877-7.877h7.877
	l-28.357-34.658L390.302,71.68h7.877c4.726,0,7.877,3.151,7.877,7.877V200.074z"/>
<polygon style="fill:#FFFFFF;" points="66.56,207.951 106.732,207.951 106.732,79.557 131.151,79.557 87.04,24.418 42.142,79.557 
	66.56,79.557 "/>
<g>
	<path style="fill:#183651;" d="M106.732,215.828H66.56c-4.726,0-7.877-3.151-7.877-7.877V87.434H42.142
		c-3.151,0-5.514-1.575-7.089-4.726c-1.575-2.363-0.788-5.514,0.788-7.877l44.111-55.138c3.151-3.938,9.452-3.938,12.603,0
		l43.323,54.351c1.575,1.575,2.363,3.938,2.363,6.302c0,4.726-3.151,7.877-7.877,7.877l0,0h-15.754v120.517
		C114.609,212.677,111.458,215.828,106.732,215.828z M74.437,200.074h24.418V79.557c0-4.726,3.151-7.877,7.877-7.877h7.877
		L86.252,37.022L58.683,71.68h7.877c4.726,0,7.877,3.151,7.877,7.877V200.074z"/>
	<rect x="210.708" y="280.418" style="fill:#183651;" width="15.754" height="15.754"/>
	<rect x="210.708" y="322.954" style="fill:#183651;" width="15.754" height="15.754"/>
	<rect x="210.708" y="365.489" style="fill:#183651;" width="15.754" height="15.754"/>
	<rect x="278.449" y="280.418" style="fill:#183651;" width="15.754" height="15.754"/>
	<rect x="278.449" y="322.954" style="fill:#183651;" width="15.754" height="15.754"/>
	<rect x="278.449" y="365.489" style="fill:#183651;" width="15.754" height="15.754"/>
</g>
<path style="fill:#2CA0DA;" d="M179.2,441.895v56.714H6.695v-56.714c0-19.692,17.329-36.234,38.597-37.022
	c11.028,15.754,28.357,25.994,48.049,25.994s37.022-10.24,48.049-25.994C161.871,405.662,179.2,422.203,179.2,441.895z"/>
<path style="fill:#183651;" d="M179.2,504.911H6.695c-3.151,0-6.302-3.151-6.302-6.302v-56.714
	c0-22.843,19.692-42.535,44.111-43.323c2.363,0,3.938,0.788,5.514,2.363c10.24,14.966,25.994,22.843,42.535,22.843
	s32.295-8.665,42.535-22.843c1.575-1.575,3.151-3.151,5.514-2.363c24.418,1.575,44.111,20.48,44.111,43.323v56.714
	C185.502,501.76,182.351,504.911,179.2,504.911z M12.997,492.308h159.902v-50.412c0-15.754-12.603-28.357-29.145-30.72
	c-12.603,16.542-30.72,25.206-51.2,25.206c-19.692,0-37.809-9.452-51.2-25.206c-16.542,2.363-29.145,14.966-29.145,30.72v50.412
	H12.997z"/>
<path style="fill:#FFFFFF;" d="M30.326,474.978v-33.083c0-3.938,2.363-7.877,6.302-11.028
	c15.754,14.966,35.446,22.843,55.926,22.843c21.268,0,40.96-7.877,55.926-22.843c3.938,2.363,6.302,6.302,6.302,11.028v33.083
	H30.326z"/>
<ellipse style="fill:#FBBD5E;" cx="92.554" cy="337.92" rx="45.686" ry="58.289"/>
<path style="fill:#183651;" d="M92.554,402.511c-29.145,0-51.988-29.145-51.988-64.591s23.631-64.591,51.988-64.591
	c29.145,0,51.988,29.145,51.988,64.591S121.698,402.511,92.554,402.511z M92.554,285.932c-22.055,0-39.385,22.843-39.385,51.988
	c0,28.357,18.117,51.988,39.385,51.988c22.055,0,39.385-22.843,39.385-51.988C132.726,309.563,114.609,285.932,92.554,285.932z"/>
<path style="fill:#E1E6E7;" d="M142.966,296.96c-1.575-11.028-10.24-18.117-20.48-22.843c-18.905-8.665-40.96-8.665-59.865,0
	c-10.24,4.726-18.905,11.815-20.48,22.843c0,0-14.178,9.452,4.726,49.625c0,0-4.726-10.24,9.452-19.692
	c0,0-6.302-18.905,11.815-18.905c0,0,14.966,7.877,24.418,6.302c8.665,1.575,24.418-6.302,24.418-6.302
	c18.117,0,11.815,18.905,11.815,18.905c14.178,10.24,9.452,19.692,9.452,19.692C157.145,306.412,142.966,296.96,142.966,296.96z"/>
<path style="fill:#183651;" d="M138.24,353.674c-0.788,0-1.575,0-2.363-0.788c-3.151-1.575-4.726-4.726-3.151-7.877
	c0-0.788,1.575-6.302-7.089-12.603c-3.151-1.575-3.938-4.726-3.151-7.877c0.788-2.363,1.575-6.302,0-8.665
	c-0.788-0.788-2.363-1.575-3.938-1.575c-4.726,2.363-16.542,7.089-25.206,6.302c-8.665,0.788-21.268-3.938-25.206-6.302
	c-1.575,0-3.151,0.788-3.938,1.575c-1.575,2.363-0.788,7.089,0,8.665c0.788,2.363,0,5.514-2.363,7.089
	c-7.877,5.514-7.877,10.24-7.877,11.815c0.788,0.788,0.788,1.575,0.788,3.151c0,3.938-4.726,7.089-8.665,5.514
	c-2.363,0-3.151-0.788-3.938-2.363c-17.329-35.446-10.24-50.412-4.726-55.926c1.575-7.877,7.089-17.329,23.631-25.206
	c19.692-9.452,44.898-9.452,65.378,0c15.754,7.877,22.055,17.329,23.631,25.206c4.726,5.514,11.815,19.692-4.726,55.926
	C142.966,352.098,140.603,353.674,138.24,353.674z M46.08,302.474c0,0-5.514,5.514,0.788,25.206
	c0.788-0.788,2.363-2.363,3.151-3.151c-0.788-3.938-0.788-10.24,2.363-15.754c2.363-3.151,7.089-7.089,15.754-7.089
	c0.788,0,2.363,0,3.151,0.788c3.151,1.575,14.178,6.302,20.48,5.514c0.788,0,1.575,0,2.363,0c6.302,0.788,16.542-3.938,20.48-5.514
	c0.788-0.788,1.575-0.788,3.151-0.788c8.665,0,13.391,3.938,15.754,7.089c3.151,4.726,3.151,11.028,2.363,15.754
	c1.575,0.788,2.363,2.363,3.151,3.151c6.302-19.692,0-25.206,0-25.994c-1.575-0.788-2.363-2.363-2.363-3.938
	c-0.788-7.089-6.302-12.603-16.542-18.117c-16.542-7.877-37.809-7.877-54.351,0c-10.24,4.726-15.754,11.028-16.542,18.117
	C48.443,300.111,47.655,301.686,46.08,302.474L46.08,302.474z"/>
<path style="fill:#4FBF9F;" d="M498.215,441.895v56.714H325.711v-56.714c0-19.692,17.329-36.234,38.597-37.022
	c11.028,15.754,28.357,25.994,48.049,25.994c19.692,0,37.022-10.24,48.049-25.994C480.886,405.662,498.215,422.203,498.215,441.895z
	"/>
<path style="fill:#183651;" d="M498.215,504.911H325.711c-3.151,0-6.302-3.151-6.302-6.302v-56.714
	c0-22.843,19.692-42.535,44.111-43.323c2.363,0,3.938,0.788,5.514,2.363c10.24,14.966,25.994,22.843,42.535,22.843
	c16.542,0,32.295-8.665,42.535-22.843c1.575-1.575,3.151-3.151,5.514-2.363c24.418,1.575,44.111,20.48,44.111,43.323v56.714
	C504.517,501.76,501.366,504.911,498.215,504.911z M332.012,492.308h159.902v-50.412c0-15.754-12.603-28.357-29.145-30.72
	c-12.603,16.542-30.72,25.206-51.2,25.206c-19.692,0-37.809-9.452-51.2-25.206c-16.542,2.363-29.145,14.966-29.145,30.72v50.412
	H332.012z"/>
<path style="fill:#FFFFFF;" d="M349.342,474.978v-33.083c0-3.938,2.363-7.877,6.302-11.028
	c14.966,14.966,34.658,22.843,55.926,22.843c21.268,0,40.96-7.877,55.926-22.843c3.938,2.363,6.302,6.302,6.302,11.028v33.083
	H349.342z"/>
<ellipse style="fill:#FBBD5E;" cx="412.357" cy="337.92" rx="45.686" ry="58.289"/>
<path style="fill:#183651;" d="M412.357,402.511c-29.145,0-51.988-29.145-51.988-64.591s23.631-64.591,51.988-64.591
	c29.145,0,51.988,29.145,51.988,64.591S440.714,402.511,412.357,402.511z M412.357,285.932c-22.055,0-39.385,22.843-39.385,51.988
	c0,28.357,18.117,51.988,39.385,51.988c22.055,0,39.385-22.843,39.385-51.988C451.742,309.563,433.625,285.932,412.357,285.932z"/>
<path style="fill:#E1E6E7;" d="M461.982,296.96c-1.575-11.028-10.24-18.117-20.48-22.843c-18.905-8.665-40.96-8.665-59.865,0
	c-10.24,4.726-18.905,11.815-20.48,22.843c0,0-14.178,9.452,4.726,49.625c0,0-4.726-10.24,9.452-19.692
	c0,0-6.302-18.905,11.815-18.905c0,0,14.966,7.877,24.418,6.302c8.665,1.575,24.418-6.302,24.418-6.302
	c18.117,0,11.815,18.905,11.815,18.905c14.178,10.24,9.452,19.692,9.452,19.692C476.16,306.412,461.982,296.96,461.982,296.96z"/>
<path style="fill:#183651;" d="M457.255,353.674c-0.788,0-1.575,0-2.363-0.788c-3.151-1.575-4.726-4.726-3.151-7.877
	c0-0.788,1.575-6.302-7.089-12.603c-2.363-1.575-3.151-4.726-2.363-7.089c0.788-2.363,1.575-6.302,0-8.665
	c-0.788-0.788-2.363-1.575-3.938-1.575c-4.726,2.363-16.542,7.089-25.206,6.302c-8.665,0.788-21.268-3.938-25.206-6.302
	c-1.575,0-3.151,0.788-3.938,1.575c-1.575,2.363-0.788,7.089,0,8.665c0.788,2.363,0,5.514-2.363,7.089
	c-7.877,5.514-7.877,10.24-7.877,11.815c0.788,0.788,0.788,1.575,0.788,3.151c0,3.151-3.151,6.302-6.302,6.302
	c-0.788,0-1.575,0-2.363-0.788c-1.575-0.788-3.151-1.575-3.151-3.151c-17.329-35.446-10.24-50.412-4.726-55.926
	c1.575-7.877,7.089-17.329,23.631-25.206c19.692-9.452,44.898-9.452,65.378,0c15.754,7.877,22.055,17.329,23.631,25.206
	c4.726,5.514,11.815,19.692-4.726,55.926C461.982,352.098,459.618,353.674,457.255,353.674z M365.095,302.474
	c0,0-5.514,5.514,0.788,25.206c0.788-0.788,2.363-2.363,3.151-3.151c-0.788-3.938-0.788-10.24,2.363-15.754
	c2.363-3.151,7.089-7.089,15.754-7.089c0.788,0,2.363,0,3.151,0.788c3.151,1.575,14.178,6.302,20.48,5.514c0.788,0,1.575,0,2.363,0
	c6.302,0.788,16.542-3.938,20.48-5.514c0.788-0.788,1.575-0.788,3.151-0.788c8.665,0,13.391,3.938,15.754,7.089
	c3.151,4.726,3.151,11.028,2.363,15.754c1.575,0.788,2.363,2.363,3.151,3.151c6.302-19.692,0-25.206,0-25.994
	c-1.575-0.788-2.363-2.363-2.363-3.938c-0.788-7.089-6.302-12.603-16.542-18.117c-16.542-7.877-37.809-7.877-54.351,0
	c-10.24,4.726-15.754,11.028-16.542,18.117C368.246,300.111,366.671,301.686,365.095,302.474L365.095,302.474z"/>
<path style="fill:#F06151;" d="M338.314,181.169v56.714H165.809v-56.714c0-19.692,17.329-36.234,38.597-37.022
	c11.028,15.754,28.357,25.994,48.049,25.994c19.692,0,37.022-10.24,48.049-25.994C321.772,144.935,338.314,160.689,338.314,181.169z
	"/>
<path style="fill:#183651;" d="M338.314,244.185H166.597c-3.151,0-6.302-3.151-6.302-6.302v-56.714
	c0-22.843,19.692-42.535,44.111-43.323c2.363,0,3.938,0.788,5.514,2.363c10.24,14.966,25.994,22.843,42.535,22.843
	s32.295-8.665,42.535-22.843c1.575-1.575,3.151-3.151,5.514-2.363c24.418,1.575,44.111,20.48,44.111,43.323v56.714
	C344.615,241.034,342.252,244.185,338.314,244.185z M172.898,231.582H332.8v-50.412c0-15.754-12.603-28.357-29.145-30.72
	c-12.603,16.542-30.72,25.206-51.2,25.206c-19.692,0-37.809-9.452-51.2-25.206c-16.542,2.363-29.145,14.966-29.145,30.72v50.412
	H172.898z"/>
<path style="fill:#FFFFFF;" d="M190.228,214.252v-33.083c0-3.938,2.363-7.877,6.302-11.028
	c14.966,14.966,34.658,22.843,55.926,22.843s40.96-7.877,55.926-22.843c3.938,2.363,6.302,6.302,6.302,11.028v33.083
	L190.228,214.252L190.228,214.252z"/>
<ellipse style="fill:#FBBD5E;" cx="252.455" cy="77.194" rx="45.686" ry="58.289"/>
<path style="fill:#183651;" d="M252.455,141.785c-29.145,0-51.988-29.145-51.988-64.591s23.631-64.591,51.988-64.591
	c29.145,0,51.988,29.145,51.988,64.591S281.6,141.785,252.455,141.785z M252.455,25.206c-22.055,0-39.385,22.843-39.385,51.988
	s18.117,51.988,39.385,51.988c22.055,0,39.385-22.843,39.385-51.988S274.511,25.206,252.455,25.206z"/>
<path style="fill:#E1E6E7;" d="M302.868,36.234c-1.575-11.028-10.24-18.117-20.48-22.843c-18.905-8.665-40.96-8.665-59.865,0
	c-10.24,4.726-18.905,11.815-20.48,22.843c0,0-14.178,9.452,4.726,49.625c0,0-4.726-10.24,9.452-19.692
	c0,0-6.302-18.905,11.815-18.905c0,0,14.966,7.877,24.418,6.302c8.665,1.575,24.418-6.302,24.418-6.302
	c18.117,0,11.815,18.905,11.815,18.905c14.178,10.24,9.452,19.692,9.452,19.692C317.046,45.686,302.868,36.234,302.868,36.234z"/>
<path style="fill:#183651;" d="M297.354,92.16c-0.788,0-1.575,0-2.363-0.788c-3.151-1.575-4.726-4.726-3.151-7.877
	c0-0.788,1.575-6.302-7.089-12.603c-2.363-1.575-3.151-4.726-2.363-7.089c0.788-2.363,1.575-6.302,0-8.665
	c-0.788-0.788-2.363-1.575-3.938-1.575c-4.726,2.363-16.542,7.089-25.206,6.302c-8.665,0.788-21.268-3.938-25.206-6.302
	c-1.575,0-3.151,0.788-3.938,1.575c-1.575,1.575-0.788,6.302,0,8.665c0.788,2.363,0,5.514-2.363,7.089
	c-7.877,5.514-7.877,10.24-7.877,11.815c0.788,0.788,0.788,1.575,0.788,3.151c0,3.151-3.151,6.302-6.302,6.302
	c-0.788,0-1.575,0-2.363-0.788c-1.575-0.788-3.151-1.575-3.151-3.151c-17.329-35.446-10.24-50.412-4.726-55.926
	c1.575-7.877,7.089-17.329,23.631-25.206c19.692-9.452,44.898-9.452,65.378,0c15.754,7.877,22.055,17.329,23.631,25.206
	c4.726,5.514,11.815,19.692-4.726,55.926C302.08,91.372,299.717,92.16,297.354,92.16z M205.982,41.748c0,0-5.514,5.514,0.788,25.206
	c0.788-0.788,2.363-2.363,3.151-3.151c-0.788-3.938-0.788-10.24,2.363-15.754c2.363-3.151,7.089-7.089,15.754-7.089
	c0.788,0,2.363,0,3.151,0.788c3.151,1.575,14.178,6.302,20.48,5.514c0.788,0,1.575,0,2.363,0c6.302,0.788,16.542-3.938,20.48-5.514
	c0.788-0.788,1.575-0.788,3.151-0.788c8.665,0,13.391,3.938,15.754,7.089c2.363,5.514,2.363,11.815,1.575,15.754
	c1.575,0.788,2.363,2.363,3.151,3.151c6.302-19.692,0-25.206,0-25.994c-1.575-0.788-2.363-2.363-2.363-3.938
	c0-7.089-5.514-12.603-15.754-17.329c-16.542-7.877-37.809-7.877-54.351,0c-10.24,4.726-15.754,11.028-16.542,18.117
	C208.345,39.385,207.557,40.96,205.982,41.748L205.982,41.748z"/>
<g>
</g>
<g>
</g>
<g>
</g>
<g>
</g>
<g>
</g>
<g>
</g>
<g>
</g>
<g>
</g>
<g>
</g>
<g>
</g>
<g>
</g>
<g>
</g>
<g>
</g>
<g>
</g>
<g>
</g>
</svg>
