<?xml version="1.0" encoding="iso-8859-1"?>
<!-- Generator: Adobe Illustrator 19.0.0, SVG Export Plug-In . SVG Version: 6.00 Build 0)  -->
<svg version="1.1" id="Capa_1" xmlns="http://www.w3.org/2000/svg" xmlns:xlink="http://www.w3.org/1999/xlink" x="0px" y="0px"
	 viewBox="0 0 504.911 504.911" style="enable-background:new 0 0 504.911 504.911;" xml:space="preserve">
<circle style="fill:#E1E6E7;" cx="252.062" cy="252.455" r="252.062"/>
<path style="fill:#FBBD5E;" d="M152.025,435.2l-62.228-33.871L27.569,435.2c-11.815,6.302-18.905,18.905-18.905,32.295v29.145
	h163.052v-29.145C170.929,454.105,163.84,441.502,152.025,435.2z"/>
<path style="fill:#183651;" d="M170.929,504.517H7.877c-4.726,0-7.877-3.151-7.877-7.877v-29.145
	c0-16.542,8.665-31.508,22.843-39.385l62.228-33.871c2.363-1.575,5.514-1.575,7.877,0l62.228,33.871
	c14.178,7.877,22.843,22.843,22.843,39.385v29.145C178.806,501.366,174.868,504.517,170.929,504.517z M15.754,488.763h147.298
	v-21.268c0-10.24-5.514-20.48-14.966-25.206l-59.077-32.295l-59.077,32.295c-9.452,4.726-14.966,14.966-14.966,25.206v21.268H15.754
	z"/>
<path style="fill:#F06151;" d="M314.289,435.2l-62.228-33.871L189.834,435.2c-11.815,6.302-18.905,18.905-18.905,32.295v29.145
	h163.052v-29.145C333.194,454.105,326.105,441.502,314.289,435.2z"/>
<path style="fill:#183651;" d="M333.194,504.517H170.929c-4.726,0-7.877-3.151-7.877-7.877v-29.145
	c0-16.542,8.665-31.508,22.843-39.385l62.228-33.871c2.363-1.575,5.514-1.575,7.877,0l62.228,33.871
	c14.178,7.877,22.843,22.843,22.843,39.385v29.145C341.071,501.366,337.92,504.517,333.194,504.517z M178.806,488.763h147.298
	v-21.268c0-10.24-5.514-20.48-14.966-25.206l-59.077-32.295l-59.077,32.295c-9.452,4.726-14.966,14.966-14.966,25.206v21.268
	H178.806z"/>
<path style="fill:#FFFFFF;" d="M166.991,451.742c-3.151-7.089-8.665-12.603-14.966-16.542l-62.228-33.871L27.569,435.2
	c-7.089,3.938-11.815,9.452-14.966,16.542"/>
<path style="fill:#183651;" d="M166.991,459.618c-3.151,0-5.514-1.575-7.089-4.726c-2.363-5.514-7.089-10.24-11.815-12.603
	l-59.077-32.295l-59.077,32.295c-5.514,3.151-9.452,7.089-11.815,12.603c-1.575,3.938-6.302,6.302-10.24,3.938
	c-3.938-1.575-5.514-6.302-3.938-10.24c3.938-8.665,10.24-15.754,18.905-19.692l62.228-33.871c2.363-1.575,5.514-1.575,7.877,0
	l62.228,33.871c7.877,4.726,14.966,11.028,18.905,19.692c1.575,3.938,0,8.665-3.938,10.24
	C169.354,459.618,168.566,459.618,166.991,459.618z"/>
<path style="fill:#FFFFFF;" d="M330.043,451.742c-3.151-7.089-8.665-12.603-14.966-16.542l-62.228-33.871L190.622,435.2
	c-7.089,3.938-11.815,9.452-14.966,16.542"/>
<g>
	<path style="fill:#183651;" d="M174.08,459.618c-0.788,0-2.363,0-3.151-0.788c-3.938-1.575-5.514-6.302-3.938-10.24
		c3.938-8.665,10.24-15.754,18.905-19.692l62.228-33.871c2.363-1.575,5.514-1.575,7.877,0l62.228,33.871
		c7.877,4.726,14.966,11.028,18.905,19.692c1.575,3.938,0,8.665-3.938,10.24c-3.938,1.575-8.665,0-10.24-3.938
		c-2.363-5.514-7.089-10.24-11.815-12.603l-59.077-32.295l-59.077,32.295c-5.514,3.151-9.452,7.089-11.815,12.603
		C179.594,458.043,177.231,459.618,174.08,459.618z"/>
	<rect x="288.295" y="271.36" style="fill:#183651;" width="15.754" height="15.754"/>
	<rect x="326.105" y="271.36" style="fill:#183651;" width="15.754" height="15.754"/>
	<rect x="363.126" y="271.36" style="fill:#183651;" width="15.754" height="15.754"/>
	<rect x="125.243" y="271.36" style="fill:#183651;" width="15.754" height="15.754"/>
	<rect x="162.265" y="271.36" style="fill:#183651;" width="15.754" height="15.754"/>
	<rect x="200.074" y="271.36" style="fill:#183651;" width="15.754" height="15.754"/>
</g>
<path style="fill:#FFFFFF;" d="M130.757,364.308c0,27.569-18.117,59.077-40.96,59.077s-40.96-30.72-40.96-59.077
	c0-28.357,18.117-41.748,40.96-41.748S130.757,336.738,130.757,364.308z"/>
<path style="fill:#183651;" d="M89.009,431.262c-28.357,0-48.837-35.446-48.837-66.954c0-29.932,19.692-49.625,48.837-49.625
	s48.837,19.692,48.837,49.625C138.634,395.815,117.366,431.262,89.009,431.262z M89.009,330.437
	c-20.48,0-33.083,12.603-33.083,33.871c0,25.206,16.542,51.2,33.083,51.2s33.083-25.994,33.083-51.2
	C122.88,343.04,110.277,330.437,89.009,330.437z"/>
<path style="fill:#FFFFFF;" d="M293.022,364.308c0,27.569-18.117,59.077-40.96,59.077s-40.96-30.72-40.96-59.077
	c0-28.357,18.117-41.748,40.96-41.748S293.022,336.738,293.022,364.308z"/>
<path style="fill:#183651;" d="M252.062,431.262c-28.357,0-48.837-35.446-48.837-66.954c0-29.932,19.692-49.625,48.837-49.625
	s48.837,19.692,48.837,49.625C300.898,395.815,280.418,431.262,252.062,431.262z M252.062,330.437
	c-20.48,0-33.083,12.603-33.083,33.871c0,25.206,16.542,51.2,33.083,51.2s33.083-25.994,33.083-51.2
	C285.145,343.04,272.542,330.437,252.062,330.437z"/>
<path style="fill:#FBBD5E;" d="M477.342,435.2l-62.228-33.871L352.886,435.2c-11.815,6.302-18.905,18.905-18.905,32.295v29.145
	h163.052v-29.145C496.246,454.105,489.157,441.502,477.342,435.2z"/>
<path style="fill:#183651;" d="M496.246,504.517H333.194c-4.726,0-7.877-3.151-7.877-7.877v-29.145
	c0-16.542,8.665-31.508,22.843-39.385l63.015-33.871c2.363-1.575,5.514-1.575,7.877,0l63.015,33.871
	c14.178,7.877,22.843,22.843,22.843,39.385v29.145C504.123,501.366,500.972,504.517,496.246,504.517z M341.071,488.763h147.298
	v-21.268c0-10.24-5.514-20.48-14.966-25.206l-59.077-32.295l-59.077,32.295c-9.452,4.726-14.966,14.966-14.966,25.206v21.268
	H341.071z"/>
<path style="fill:#FFFFFF;" d="M493.095,451.742c-3.151-7.089-8.665-12.603-14.966-16.542l-62.228-33.871L353.674,435.2
	c-7.089,3.938-11.815,9.452-14.966,16.542"/>
<path style="fill:#183651;" d="M493.095,459.618c-3.151,0-5.514-1.575-7.089-4.726c-2.363-5.514-7.089-10.24-11.815-12.603
	l-59.077-32.295l-59.077,32.295c-5.514,3.151-9.452,7.089-11.815,12.603c-1.575,3.938-6.302,5.514-10.24,3.938
	c-3.938-1.575-5.514-6.302-3.938-10.24c3.938-8.665,10.24-15.754,18.905-19.692l63.015-33.871c2.363-1.575,5.514-1.575,7.877,0
	l63.015,33.871c7.877,4.726,14.966,11.028,18.905,19.692c1.575,3.938,0,8.665-3.938,10.24
	C494.671,459.618,493.883,459.618,493.095,459.618z"/>
<path style="fill:#FFFFFF;" d="M456.074,364.308c0,27.569-18.117,59.077-40.96,59.077c-22.843,0-40.96-30.72-40.96-59.077
	c0-28.357,18.117-41.748,40.96-41.748C437.169,322.56,456.074,336.738,456.074,364.308z"/>
<path style="fill:#183651;" d="M415.114,431.262c-28.357,0-48.837-35.446-48.837-66.954c0-29.932,19.692-49.625,48.837-49.625
	s48.837,19.692,48.837,49.625C463.951,395.815,442.683,431.262,415.114,431.262z M415.114,330.437
	c-20.48,0-33.083,12.603-33.083,33.871c0,25.206,16.542,51.2,33.083,51.2c16.542,0,33.083-25.994,33.083-51.2
	C448.197,343.04,435.594,330.437,415.114,330.437z"/>
<path style="fill:#4FBF9F;" d="M436.382,120.911L374.154,87.04l-63.015,33.871c-11.815,6.302-18.905,18.905-18.905,32.295v29.145
	h163.052v-29.145C455.286,139.815,448.197,127.212,436.382,120.911z"/>
<path style="fill:#183651;" d="M455.286,190.228H292.234c-4.726,0-7.877-3.151-7.877-7.877v-29.145
	c0-16.542,8.665-31.508,22.843-39.385l63.015-33.871c2.363-1.575,5.514-1.575,7.877,0l63.015,33.871
	c14.178,7.877,22.843,22.843,22.843,39.385v29.145C463.163,186.289,459.225,190.228,455.286,190.228z M300.111,174.474h147.298
	v-21.268c0-10.24-5.514-20.48-14.966-25.206l-59.077-32.295L314.289,128c-9.452,4.726-14.966,14.966-14.966,25.206v21.268H300.111z"
	/>
<path style="fill:#FFFFFF;" d="M451.348,137.452c-3.151-7.089-8.665-12.603-14.966-16.542L374.154,87.04l-63.015,33.871
	c-7.089,3.938-11.815,9.452-14.966,16.542"/>
<path style="fill:#183651;" d="M295.385,145.329c-0.788,0-2.363,0-3.151-0.788c-3.938-1.575-5.514-6.302-3.938-10.24
	c3.938-8.665,10.24-15.754,18.905-19.692l63.015-33.871c2.363-1.575,5.514-1.575,7.877,0l63.015,33.871
	c7.877,4.726,14.966,11.028,18.905,19.692c1.575,3.938,0,8.665-3.938,10.24c-3.938,1.575-8.665,0-10.24-3.938
	c-2.363-5.514-7.089-10.24-11.815-12.603l-59.077-32.295L315.865,128c-5.514,3.151-9.452,7.089-11.815,12.603
	C301.686,143.754,298.535,145.329,295.385,145.329z"/>
<path style="fill:#FFFFFF;" d="M415.114,50.018c0,27.569-18.117,59.077-40.96,59.077c-22.843,0-40.96-30.72-40.96-59.077
	s18.117-41.748,40.96-41.748C396.209,8.271,415.114,22.449,415.114,50.018z"/>
<path style="fill:#183651;" d="M373.366,116.972c-28.357,0-48.837-35.446-48.837-66.954c0-29.932,19.692-49.625,48.837-49.625
	c29.145,0,48.837,19.692,48.837,49.625C422.991,81.526,401.723,116.972,373.366,116.972z M373.366,16.148
	c-20.48,0-33.083,12.603-33.083,33.871c0,25.206,16.542,51.2,33.083,51.2c16.542,0,33.083-25.994,33.083-51.2
	C407.237,28.751,394.634,16.148,373.366,16.148z"/>
<path style="fill:#4FBF9F;" d="M192.985,120.911L129.969,87.04l-62.228,33.871c-11.815,6.302-18.905,18.905-18.905,32.295v29.145
	h163.052v-29.145C211.889,139.815,204.012,127.212,192.985,120.911z"/>
<path style="fill:#183651;" d="M211.889,190.228H48.837c-4.726,0-7.877-3.151-7.877-7.877v-29.145
	c0-16.542,8.665-31.508,22.843-39.385l63.015-33.871c2.363-1.575,5.514-1.575,7.877,0l62.228,33.871
	c14.178,7.877,22.843,22.843,22.843,39.385v29.145C219.766,186.289,215.828,190.228,211.889,190.228z M56.714,174.474h147.298
	v-21.268c0-10.24-5.514-20.48-14.966-25.206l-59.077-32.295L70.892,128c-9.452,4.726-14.966,14.966-14.966,25.206v21.268H56.714z"/>
<path style="fill:#FFFFFF;" d="M207.951,137.452c-3.151-7.089-8.665-12.603-14.966-16.542L129.969,87.04l-62.228,33.871
	c-7.089,3.938-11.815,9.452-14.966,16.542"/>
<path style="fill:#183651;" d="M207.951,145.329c-3.151,0-5.514-1.575-7.089-4.726c-2.363-5.514-7.089-10.24-11.815-12.603
	l-59.077-32.295L70.892,128c-4.726,2.363-9.452,7.089-11.815,12.603c-1.575,3.938-6.302,5.514-10.24,3.938
	c-3.938-1.575-5.514-6.302-3.938-10.24c3.938-8.665,10.24-15.754,18.905-19.692l62.228-33.871c2.363-1.575,5.514-1.575,7.877,0
	l62.228,33.871c7.877,4.726,14.966,11.028,18.905,19.692c1.575,3.938,0,8.665-3.938,10.24
	C210.314,145.329,209.526,145.329,207.951,145.329z"/>
<path style="fill:#FFFFFF;" d="M170.929,50.018c0,27.569-18.117,59.077-40.96,59.077s-40.96-30.72-40.96-59.077
	s18.117-41.748,40.96-41.748S170.929,22.449,170.929,50.018z"/>
<path style="fill:#183651;" d="M129.969,116.972c-28.357,0-48.837-35.446-48.837-66.954c0-29.932,19.692-49.625,48.837-49.625
	s48.837,19.692,48.837,49.625C178.806,81.526,158.326,116.972,129.969,116.972z M129.969,16.148
	c-20.48,0-33.083,12.603-33.083,33.871c0,25.206,16.542,51.2,33.083,51.2s33.083-25.994,33.083-51.2
	C163.052,28.751,150.449,16.148,129.969,16.148z"/>
<path style="fill:#183651;" d="M373.366,252.455c-4.726,0-7.877-3.151-7.877-7.877v-62.228c0-4.726,3.151-7.877,7.877-7.877
	c4.726,0,7.877,3.151,7.877,7.877v62.228C381.243,249.305,378.092,252.455,373.366,252.455z"/>
<g>
	<path style="fill:#183651;" d="M129.969,252.455c-4.726,0-7.877-3.151-7.877-7.877v-62.228c0-4.726,3.151-7.877,7.877-7.877
		c4.726,0,7.877,3.151,7.877,7.877v62.228C137.846,249.305,134.695,252.455,129.969,252.455z"/>
	<path style="fill:#183651;" d="M415.114,330.437c-4.726,0-7.877-3.151-7.877-7.877v-70.105H96.886v70.105
		c0,4.726-3.151,7.877-7.877,7.877s-7.877-3.151-7.877-7.877v-77.982c0-4.726,3.151-7.877,7.877-7.877h325.317
		c4.726,0,7.877,3.151,7.877,7.877v77.982C422.991,327.286,419.052,330.437,415.114,330.437z"/>
</g>
<path style="fill:#183651;" d="M252.062,330.437c-4.726,0-7.877-3.151-7.877-7.877v-77.982c0-4.726,3.151-7.877,7.877-7.877
	s7.877,3.151,7.877,7.877v77.982C259.938,327.286,256.788,330.437,252.062,330.437z"/>
<g>
</g>
<g>
</g>
<g>
</g>
<g>
</g>
<g>
</g>
<g>
</g>
<g>
</g>
<g>
</g>
<g>
</g>
<g>
</g>
<g>
</g>
<g>
</g>
<g>
</g>
<g>
</g>
<g>
</g>
</svg>
