<?xml version="1.0" encoding="iso-8859-1"?>
<!-- Generator: Adobe Illustrator 19.0.0, SVG Export Plug-In . SVG Version: 6.00 Build 0)  -->
<svg version="1.1" id="Capa_1" xmlns="http://www.w3.org/2000/svg" xmlns:xlink="http://www.w3.org/1999/xlink" x="0px" y="0px"
	 viewBox="0 0 503.924 503.924" style="enable-background:new 0 0 503.924 503.924;" xml:space="preserve">
<circle style="fill:#E0E4E8;" cx="252.92" cy="251.62" r="222.917"/>
<path style="fill:#FFFFFF;" d="M293.093,81.479c-7.089,4.726-9.452,14.178-4.726,21.268l57.502,88.222
	c4.726,7.089,14.178,9.452,21.268,4.726c7.089-4.726,9.452-14.178,4.726-21.268L314.36,86.205
	C309.634,79.116,300.182,76.753,293.093,81.479z"/>
<path style="fill:#183651;" d="M339.566,195.694l-57.502-88.222c-7.089-11.028-3.938-25.206,7.089-32.295s25.206-3.938,32.295,7.089
	l57.502,88.222c7.089,11.028,3.938,25.206-7.089,32.295C360.834,209.085,346.656,206.722,339.566,195.694z M300.969,86.993
	c-1.575,0-3.151,0.788-3.938,1.575c-3.151,2.363-4.726,7.089-2.363,10.24l57.502,88.222c2.363,3.151,7.089,4.726,10.24,2.363
	c3.151-2.363,4.726-7.089,2.363-10.24l-57.502-89.009C306.483,88.568,304.12,86.993,300.969,86.993z"/>
<path style="fill:#FFFFFF;" d="M211.96,81.479c7.089,4.726,9.452,14.178,4.726,21.268l-57.502,88.222
	c-4.726,7.089-14.178,9.452-21.268,4.726c-7.089-4.726-9.452-14.178-4.726-21.268l57.502-88.222
	C195.419,79.116,204.871,76.753,211.96,81.479z"/>
<path style="fill:#183651;" d="M133.191,201.996c-11.028-7.089-14.178-21.268-7.089-32.295l57.502-88.222
	c7.089-11.028,21.268-13.391,32.295-7.089c11.028,7.089,14.178,21.268,7.089,32.295l-57.502,88.222
	C158.397,206.722,144.219,209.085,133.191,201.996z M197.782,90.143l-57.502,88.222c-2.363,3.151-1.575,7.877,2.363,10.24
	c3.151,2.363,7.877,0.788,10.24-2.363l57.502-88.222c2.363-3.151,1.575-7.877-2.363-10.24
	C204.083,86.205,200.145,86.993,197.782,90.143z"/>
<path style="fill:#FFFFFF;" d="M108.773,216.174v152.025c0,16.542,13.391,29.145,29.145,29.145h228.431
	c16.542,0,29.145-13.391,29.145-29.145V216.174H108.773z"/>
<path style="fill:#183651;" d="M367.136,405.22H137.917c-20.48,0-37.022-16.542-37.022-37.022V216.174
	c0-4.726,3.151-7.877,7.877-7.877H396.28c4.726,0,7.877,3.151,7.877,7.877v152.025C404.157,388.679,387.616,405.22,367.136,405.22z
	 M116.649,224.051v144.148c0,11.815,9.452,21.268,21.268,21.268h228.431c11.815,0,21.268-9.452,21.268-21.268V224.051H116.649z"/>
<path style="fill:#4FBF9F;" d="M137.917,370.562c-1.575,0-3.151-1.575-3.151-3.151V242.168h234.732v125.243
	c0,1.575-1.575,3.151-3.151,3.151H137.917z"/>
<path style="fill:#FFFFFF;" d="M397.068,180.728H107.985c-9.452,0-17.329,7.877-17.329,17.329l0,0
	c0,9.452,7.877,17.329,17.329,17.329h289.083c9.452,0,17.329-7.877,17.329-17.329l0,0
	C415.185,188.605,407.308,180.728,397.068,180.728z"/>
<path style="fill:#183651;" d="M397.068,224.051H107.985c-14.178,0-25.206-11.815-25.206-25.206s11.815-25.206,25.206-25.206
	h289.083c14.178,0,25.206,11.815,25.206,25.206S411.246,224.051,397.068,224.051z M107.985,188.605
	c-5.514,0-9.452,4.726-9.452,9.452c0,4.726,4.726,9.452,9.452,9.452h289.083c5.514,0,9.452-4.726,9.452-9.452
	c0-4.726-4.726-9.452-9.452-9.452H107.985z"/>
<g>
	<path style="fill:#FFFFFF;" d="M169.425,261.86c-5.514,0-11.028,4.726-11.028,11.028v67.742c0,5.514,4.726,11.028,11.028,11.028
		c5.514,0,11.028-4.726,11.028-11.028v-67.742C179.665,267.374,174.939,261.86,169.425,261.86z"/>
	<path style="fill:#FFFFFF;" d="M224.563,261.86c-5.514,0-11.028,4.726-11.028,11.028v67.742c0,5.514,4.726,11.028,11.028,11.028
		c5.514,0,11.028-4.726,11.028-11.028v-67.742C235.591,267.374,230.865,261.86,224.563,261.86z"/>
	<path style="fill:#FFFFFF;" d="M280.489,261.86c-5.514,0-11.028,4.726-11.028,11.028v67.742c0,5.514,4.726,11.028,11.028,11.028
		c5.514,0,11.028-4.726,11.028-11.028v-67.742C290.729,267.374,286.003,261.86,280.489,261.86z"/>
	<path style="fill:#FFFFFF;" d="M335.628,261.86c-5.514,0-11.028,4.726-11.028,11.028v67.742c0,5.514,4.726,11.028,11.028,11.028
		c5.514,0,11.028-4.726,11.028-11.028v-67.742C346.656,267.374,341.93,261.86,335.628,261.86z"/>
	<polygon style="fill:#FFFFFF;" points="458.508,423.337 496.317,478.476 430.151,491.079 441.966,472.962 382.889,446.18 
		395.493,417.036 453.782,444.605 	"/>
</g>
<path style="fill:#183651;" d="M423.849,495.017c-1.575-2.363-1.575-6.302,0-8.665l6.302-10.24l-50.412-23.631
	c-3.938-1.575-5.514-6.302-3.938-10.24l11.815-28.357c0.788-2.363,2.363-3.151,4.726-3.938s3.938-0.788,6.302,0l49.625,22.843
	l2.363-11.028c0.788-3.151,3.151-5.514,6.302-6.302c3.151-0.788,6.302,0.788,7.877,3.151l37.809,55.138
	c1.575,2.363,1.575,4.726,0.788,7.877c-0.788,2.363-3.151,3.938-5.514,4.726l-66.166,11.815
	C428.576,498.956,425.425,498.168,423.849,495.017z M393.129,442.242l51.988,23.631c2.363,0.788,3.938,3.151,3.938,4.726
	c0.788,2.363,0,4.726-0.788,6.302l-1.575,2.363l35.446-6.302l-20.48-29.932l-0.788,2.363c-0.788,2.363-2.363,4.726-3.938,5.514
	c-2.363,0.788-4.726,0.788-7.089,0l-51.2-23.631L393.129,442.242z"/>
<polygon style="fill:#FFFFFF;" points="430.151,12.162 496.317,24.765 458.508,79.903 453.782,58.636 393.129,81.479 
	381.314,52.334 441.966,30.279 "/>
<path style="fill:#183651;" d="M386.04,83.842l-11.815-28.357c-0.788-2.363-0.788-3.938,0-6.302
	c0.788-1.575,2.363-3.151,4.726-3.938l51.2-18.905l-6.302-9.452c-1.575-2.363-1.575-6.302,0-8.665
	c1.575-2.363,4.726-3.938,7.877-3.151l66.166,11.815c2.363,0,4.726,2.363,5.514,4.726c0.788,2.363,0.788,5.514-0.788,7.877
	L464.81,84.63c-1.575,2.363-4.726,3.938-7.877,3.151s-5.514-3.151-6.302-6.302l-2.363-11.815L396.28,88.568
	C392.342,90.143,387.616,87.78,386.04,83.842z M391.554,57.06l6.302,14.178l53.563-19.692c2.363-0.788,4.726-0.788,6.302,0
	c2.363,0.788,3.151,3.151,3.938,5.514l0.788,2.363l20.48-29.932L447.48,23.19l1.575,2.363c1.575,2.363,1.575,4.726,0.788,7.089
	c-0.788,2.363-2.363,3.938-4.726,4.726L391.554,57.06z"/>
<polygon style="fill:#FFFFFF;" points="45.757,423.337 7.948,478.476 74.114,491.079 62.299,472.962 121.376,446.18 
	108.773,417.036 50.483,444.605 "/>
<path style="fill:#183651;" d="M72.539,498.956L6.373,487.14c-2.363-0.788-4.726-3.151-5.514-5.514s-0.788-5.514,0.788-7.877
	l37.809-55.138c1.575-2.363,4.726-3.938,7.877-3.151c3.151,0.788,5.514,3.151,6.302,6.302l2.363,11.028l49.625-22.843
	c1.575-0.788,3.938-0.788,6.302,0s3.938,2.363,4.726,3.938l11.815,28.357c1.575,3.938,0,8.665-3.938,10.24l-50.412,23.631
	l5.514,8.665c1.575,1.575,2.363,3.151,2.363,5.514C81.991,495.805,77.265,499.743,72.539,498.956z M21.339,472.962l35.446,6.302
	l-1.575-2.363c-1.575-1.575-1.575-3.938-0.788-6.302c0.788-2.363,2.363-3.938,3.938-4.726l51.988-23.631l-5.514-14.178l-51.2,23.631
	c-2.363,0.788-4.726,0.788-7.089,0c-2.363-0.788-3.938-3.151-3.938-5.514l-0.788-2.363L21.339,472.962z"/>
<polygon style="fill:#FFFFFF;" points="74.114,12.162 7.948,24.765 45.757,79.903 50.483,58.636 111.136,81.479 122.951,52.334 
	62.299,30.279 "/>
<path style="fill:#183651;" d="M107.985,88.568L55.997,69.663l-2.363,11.815c-0.788,3.151-3.151,5.514-6.302,6.302
	c-3.151,0.788-6.302-0.788-7.877-3.151L1.646,29.491c-1.575-2.363-2.363-5.514-0.788-7.877c0.788-2.363,3.151-4.726,5.514-4.726
	L72.539,5.073c3.151-0.788,6.302,0.788,7.877,3.151c1.575,2.363,1.575,6.302,0,8.665l-6.302,9.452l51.2,18.905
	c2.363,0.788,3.938,2.363,4.726,3.938c0.788,1.575,0.788,3.938,0,6.302l-11.815,28.357C116.649,87.78,111.923,90.143,107.985,88.568
	z M50.483,50.759c0.788,0,1.575,0,2.363,0.788l53.563,19.692l5.514-14.178L59.148,37.368c-2.363-0.788-3.938-2.363-4.726-4.726
	c-0.788-2.363,0-4.726,0.788-7.089l1.575-2.363l-35.446,7.089l20.48,29.932l0.788-2.363c0.788-3.151,1.575-4.726,3.938-6.302
	C47.333,51.546,48.908,50.759,50.483,50.759z"/>
<g>
</g>
<g>
</g>
<g>
</g>
<g>
</g>
<g>
</g>
<g>
</g>
<g>
</g>
<g>
</g>
<g>
</g>
<g>
</g>
<g>
</g>
<g>
</g>
<g>
</g>
<g>
</g>
<g>
</g>
</svg>
