<?xml version="1.0" encoding="iso-8859-1"?>
<!-- Generator: Adobe Illustrator 19.0.0, SVG Export Plug-In . SVG Version: 6.00 Build 0)  -->
<svg version="1.1" id="Capa_1" xmlns="http://www.w3.org/2000/svg" xmlns:xlink="http://www.w3.org/1999/xlink" x="0px" y="0px"
	 viewBox="0 0 504.911 504.911" style="enable-background:new 0 0 504.911 504.911;" xml:space="preserve">
<rect x="7.877" y="8.271" style="fill:#E1E6E7;" width="488.369" height="329.255"/>
<path style="fill:#183651;" d="M496.246,345.403H7.877c-4.726,0-7.877-3.151-7.877-7.877V8.271c0-4.726,3.151-7.877,7.877-7.877
	h488.369c4.726,0,7.877,3.151,7.877,7.877v329.255C504.123,341.465,500.972,345.403,496.246,345.403z M15.754,329.649h472.615
	V16.148H15.754V329.649z"/>
<rect x="39.385" y="39.778" style="fill:#FFFFFF;" width="425.354" height="266.24"/>
<path style="fill:#2CA0DA;" d="M192.197,202.831c0,0,66.166,28.357,65.378,70.105H63.803c0,0-14.178-28.357,66.954-71.68
	L192.197,202.831z"/>
<path style="fill:#FBBD5E;" d="M179.594,179.988c0,0-0.788,13.391,13.391,22.843c0,0-33.871,25.994-61.44-1.575
	c0,0,8.665-6.302,8.665-23.631L179.594,179.988z"/>
<path style="fill:#E1E6E7;" d="M194.56,153.206c0,0-6.302,30.72-33.871,34.658c0,0-27.569-0.788-37.022-41.748l-5.514-10.24v-23.631
	l10.24-14.178l24.418-3.151l36.234,12.603l11.815,24.418L194.56,153.206z"/>
<path style="fill:#173651;" d="M194.56,153.206c0,0,13.391-32.295-22.843-37.022c0,0-14.178,1.575-26.782-14.178
	c0,0-33.083,5.514-21.268,44.898c0,0-32.295-46.474,17.329-68.529s66.954,22.055,66.954,22.055S218.978,133.514,194.56,153.206z"/>
<path style="fill:#4FBF9F;" d="M482.068,450.954l-47.262-25.994l-47.262,25.994c-8.665,4.726-14.178,14.178-14.178,24.418v22.055
	h122.092v-22.055C496.246,465.132,490.732,455.68,482.068,450.954z"/>
<path style="fill:#183651;" d="M496.246,504.517H374.154c-4.726,0-7.877-3.151-7.877-7.877v-22.055
	c0-12.603,7.089-25.206,18.117-30.72l47.262-25.994c2.363-1.575,5.514-1.575,7.877,0l47.262,25.994
	c11.028,6.302,18.117,18.117,18.117,30.72v22.055C504.123,501.366,500.972,504.517,496.246,504.517z M382.031,488.763h106.338
	v-14.178c0-7.089-3.938-13.391-10.24-17.329l-43.323-23.631l-43.323,23.631c-5.514,3.938-9.452,10.24-9.452,17.329V488.763z"/>
<path style="fill:#FFFFFF;" d="M465.526,397.391c0,20.48-13.391,44.111-30.72,44.111c-17.329,0-30.72-23.631-30.72-44.111
	s13.391-31.508,30.72-31.508C452.135,365.883,465.526,376.911,465.526,397.391z"/>
<path style="fill:#183651;" d="M435.594,449.378c-22.055,0-38.597-27.569-38.597-51.988c0-23.631,15.754-39.385,38.597-39.385
	s38.597,15.754,38.597,39.385C473.403,421.809,457.649,449.378,435.594,449.378z M435.594,374.548
	c-14.178,0-22.843,8.665-22.843,23.631c0,17.329,11.815,36.234,22.843,36.234s22.843-18.905,22.843-36.234
	C457.649,383.212,449.772,374.548,435.594,374.548z"/>
<path style="fill:#FBBD5E;" d="M359.975,450.954l-47.262-25.994l-47.262,25.994c-8.665,4.726-14.178,14.178-14.178,24.418v22.055
	h122.88v-22.055C374.154,465.132,368.64,455.68,359.975,450.954z"/>
<path style="fill:#183651;" d="M374.154,504.517H252.062c-4.726,0-7.877-3.151-7.877-7.877v-22.055
	c0-12.603,7.089-25.206,18.117-30.72l47.262-25.994c2.363-1.575,5.514-1.575,7.877,0l47.262,25.994
	c11.028,6.302,18.117,18.117,18.117,30.72v22.055C382.031,501.366,378.88,504.517,374.154,504.517z M259.938,488.763h106.338
	v-14.178c0-7.089-3.938-13.391-10.24-17.329l-43.323-23.631l-43.323,23.631c-6.302,3.151-10.24,10.24-10.24,17.329v14.178H259.938z"
	/>
<path style="fill:#FFFFFF;" d="M343.434,397.391c0,20.48-13.391,44.111-30.72,44.111c-17.329,0-30.72-23.631-30.72-44.111
	s13.391-31.508,30.72-31.508C330.043,365.883,343.434,376.911,343.434,397.391z"/>
<path style="fill:#183651;" d="M313.502,449.378c-22.055,0-38.597-27.569-38.597-51.988c0-23.631,15.754-39.385,38.597-39.385
	c22.843,0,38.597,15.754,38.597,39.385C351.311,421.809,335.557,449.378,313.502,449.378z M313.502,374.548
	c-14.178,0-22.843,8.665-22.843,23.631c0,17.329,11.815,36.234,22.843,36.234s22.843-18.905,22.843-36.234
	C335.557,383.212,327.68,374.548,313.502,374.548z"/>
<path style="fill:#4FBF9F;" d="M237.883,450.954l-47.262-25.994l-47.262,25.994c-8.665,4.726-14.178,14.178-14.178,24.418v22.055
	h122.092v-22.055C252.062,465.132,246.548,455.68,237.883,450.954z"/>
<path style="fill:#183651;" d="M252.062,504.517H129.969c-4.726,0-7.877-3.151-7.877-7.877v-22.055
	c0-12.603,7.089-25.206,18.117-30.72l47.262-25.994c2.363-1.575,5.514-1.575,7.877,0l47.262,25.994
	c11.028,6.302,18.117,18.117,18.117,30.72v22.055C259.938,501.366,256.788,504.517,252.062,504.517z M137.846,488.763h106.338
	v-14.178c0-7.089-3.938-13.391-10.24-17.329l-43.323-23.631l-43.323,23.631c-5.514,3.938-9.452,10.24-9.452,17.329V488.763z"/>
<path style="fill:#FFFFFF;" d="M221.342,397.391c0,20.48-13.391,44.111-30.72,44.111s-30.72-23.631-30.72-44.111
	s13.391-31.508,30.72-31.508S221.342,376.911,221.342,397.391z"/>
<path style="fill:#183651;" d="M191.409,449.378c-22.055,0-38.597-27.569-38.597-51.988c0-23.631,15.754-39.385,38.597-39.385
	s38.597,15.754,38.597,39.385C229.218,421.809,213.465,449.378,191.409,449.378z M191.409,374.548
	c-14.178,0-22.843,8.665-22.843,23.631c0,17.329,11.815,36.234,22.843,36.234s22.843-18.905,22.843-36.234
	C213.465,383.212,205.588,374.548,191.409,374.548z"/>
<path style="fill:#FBBD5E;" d="M115.791,450.954L68.529,424.96l-47.262,25.994c-8.665,4.726-14.178,14.178-14.178,24.418v22.055
	h122.88v-22.055C129.969,465.132,124.455,455.68,115.791,450.954z"/>
<path style="fill:#183651;" d="M129.969,504.517H7.877c-4.726,0-7.877-3.151-7.877-7.877v-22.055
	c0-12.603,7.089-25.206,18.117-30.72l47.262-25.994c2.363-1.575,5.514-1.575,7.877,0l47.262,25.994
	c11.028,6.302,18.117,18.117,18.117,30.72v22.055C137.846,501.366,134.695,504.517,129.969,504.517z M15.754,488.763h106.338
	v-14.178c0-7.089-3.938-13.391-10.24-17.329l-43.323-23.631l-43.323,23.631c-5.514,3.938-9.452,10.24-9.452,17.329V488.763z"/>
<path style="fill:#FFFFFF;" d="M99.249,397.391c0,20.48-13.391,44.111-30.72,44.111s-30.72-23.631-30.72-44.111
	s13.391-31.508,30.72-31.508S99.249,376.911,99.249,397.391z"/>
<path style="fill:#183651;" d="M69.317,449.378c-22.055,0-38.597-27.569-38.597-51.988c0-23.631,15.754-39.385,38.597-39.385
	s38.597,15.754,38.597,39.385C107.126,421.809,91.372,449.378,69.317,449.378z M69.317,374.548
	c-14.178,0-22.843,8.665-22.843,23.631c0,17.329,11.815,36.234,22.843,36.234s22.843-18.905,22.843-36.234
	C91.372,383.212,83.495,374.548,69.317,374.548z"/>
<rect x="291.446" y="79.163" style="fill:#183651;" width="15.754" height="15.754"/>
<rect x="335.557" y="79.163" style="fill:#183651;" width="15.754" height="15.754"/>
<rect x="380.455" y="79.163" style="fill:#183651;" width="15.754" height="15.754"/>
<rect x="425.354" y="79.163" style="fill:#183651;" width="15.754" height="15.754"/>
<rect x="291.446" y="136.665" style="fill:#183651;" width="149.662" height="15.754"/>
<rect x="291.446" y="193.378" style="fill:#183651;" width="149.662" height="15.754"/>
<rect x="291.446" y="250.092" style="fill:#183651;" width="149.662" height="15.754"/>
<g>
</g>
<g>
</g>
<g>
</g>
<g>
</g>
<g>
</g>
<g>
</g>
<g>
</g>
<g>
</g>
<g>
</g>
<g>
</g>
<g>
</g>
<g>
</g>
<g>
</g>
<g>
</g>
<g>
</g>
</svg>
