<?xml version="1.0" encoding="iso-8859-1"?>
<!-- Generator: Adobe Illustrator 19.0.0, SVG Export Plug-In . SVG Version: 6.00 Build 0)  -->
<svg version="1.1" id="Capa_1" xmlns="http://www.w3.org/2000/svg" xmlns:xlink="http://www.w3.org/1999/xlink" x="0px" y="0px"
	 viewBox="0 0 504.123 504.123" style="enable-background:new 0 0 504.123 504.123;" xml:space="preserve">
<rect x="33.083" y="161.477" style="fill:#E1E6E7;" width="438.745" height="287.508"/>
<path style="fill:#183651;" d="M471.04,456.862H33.083c-4.726,0-7.877-3.151-7.877-7.877V161.477c0-4.726,3.151-7.877,7.877-7.877
	h438.745c4.726,0,7.877,3.151,7.877,7.877v287.508C478.917,453.711,475.766,456.862,471.04,456.862z M40.96,441.108h422.991V169.354
	H40.96V441.108z"/>
<rect x="64.591" y="192.985" style="fill:#FFFFFF;" width="375.729" height="256"/>
<polygon style="fill:#CFD0D1;" points="496.246,428.505 496.246,460.012 448.985,496.246 55.138,496.246 7.877,460.012 
	7.877,428.505 188.258,428.505 188.258,448.985 315.077,448.985 315.077,428.505 "/>
<path style="fill:#183651;" d="M448.985,504.123H55.138c-1.575,0-3.151-0.788-4.726-1.575L3.151,466.314
	C1.575,464.738,0,462.375,0,460.012v-31.508c0-4.726,3.151-7.877,7.877-7.877h180.382c4.726,0,7.877,3.151,7.877,7.877v12.603H307.2
	v-12.603c0-4.726,3.151-7.877,7.877-7.877h181.169c4.726,0,7.877,3.151,7.877,7.877v31.508c0,2.363-0.788,4.726-3.151,6.302
	l-47.262,36.234C452.135,503.335,450.56,504.123,448.985,504.123z M57.502,488.369h388.332l41.748-32.295v-19.692H322.166v12.603
	c0,4.726-3.151,7.877-7.877,7.877H188.258c-4.726,0-7.877-3.151-7.877-7.877v-12.603H15.754v19.692L57.502,488.369z"/>
<path style="fill:#F06151;" d="M407.237,408.812v-37.809c0-18.117-14.178-33.083-32.295-34.658
	c-9.452,14.966-24.418,23.631-40.96,23.631c-16.542,0-31.508-9.452-40.96-23.631c-18.117,0.788-32.295,15.754-32.295,34.658v37.809
	H407.237z"/>
<ellipse style="fill:#FBBD5E;" cx="333.982" cy="289.083" rx="35.446" ry="48.049"/>
<path style="fill:#173651;" d="M372.578,255.212c-0.788-8.665-7.877-14.966-15.754-18.905c-14.178-7.089-31.508-7.089-45.686,0
	c-7.877,3.938-14.178,10.24-15.754,18.905c0,0-11.028,7.877,3.938,40.96c0,0-3.151-8.665,7.089-16.542
	c0,0-4.726-15.754,8.665-15.754c0,0,11.815,6.302,18.905,4.726c7.089,1.575,18.905-4.726,18.905-4.726
	c14.178,0,8.665,15.754,8.665,15.754c11.028,7.877,7.089,16.542,7.089,16.542C383.606,263.089,372.578,255.212,372.578,255.212z"/>
<g>
	<rect x="115.791" y="252.849" style="fill:#183651;" width="15.754" height="15.754"/>
	<rect x="155.175" y="252.849" style="fill:#183651;" width="15.754" height="15.754"/>
	<rect x="193.772" y="252.849" style="fill:#183651;" width="15.754" height="15.754"/>
	<rect x="115.791" y="294.597" style="fill:#183651;" width="93.735" height="15.754"/>
	<rect x="115.791" y="337.132" style="fill:#183651;" width="93.735" height="15.754"/>
	<rect x="115.791" y="378.88" style="fill:#183651;" width="93.735" height="15.754"/>
</g>
<polygon style="fill:#4FBF9F;" points="123.668,7.877 123.668,177.231 155.963,177.231 155.963,226.068 256,177.231 
	376.517,177.231 376.517,7.877 "/>
<path style="fill:#183651;" d="M155.963,233.945c-1.575,0-3.151-0.788-3.938-1.575c-2.363-1.575-3.938-3.938-3.938-6.302v-40.96
	H122.88c-4.726,0-7.877-3.151-7.877-7.877V7.877c0-4.726,3.151-7.877,7.877-7.877h252.849c4.726,0,7.877,3.151,7.877,7.877v169.354
	c0,4.726-3.151,7.877-7.877,7.877H257.575l-98.462,48.049C158.326,233.945,157.538,233.945,155.963,233.945z M131.545,169.354
	h25.206c4.726,0,7.877,3.151,7.877,7.877v36.234l88.222-43.323c0.788-0.788,2.363-0.788,3.151-0.788h111.852v-153.6H131.545V169.354
	z"/>
<polygon style="fill:#FFFFFF;" points="187.471,145.723 155.175,145.723 155.175,39.385 345.009,39.385 345.009,145.723 
	248.911,145.723 187.471,175.655 "/>
<g>
	<circle style="fill:#E1E6E7;" cx="200.862" cy="92.948" r="14.178"/>
	<circle style="fill:#E1E6E7;" cx="249.698" cy="92.948" r="14.178"/>
	<circle style="fill:#E1E6E7;" cx="298.535" cy="92.948" r="14.178"/>
</g>
<g>
</g>
<g>
</g>
<g>
</g>
<g>
</g>
<g>
</g>
<g>
</g>
<g>
</g>
<g>
</g>
<g>
</g>
<g>
</g>
<g>
</g>
<g>
</g>
<g>
</g>
<g>
</g>
<g>
</g>
</svg>
