<?xml version="1.0" encoding="iso-8859-1"?>
<!-- Generator: Adobe Illustrator 19.0.0, SVG Export Plug-In . SVG Version: 6.00 Build 0)  -->
<svg version="1.1" id="Capa_1" xmlns="http://www.w3.org/2000/svg" xmlns:xlink="http://www.w3.org/1999/xlink" x="0px" y="0px"
	 viewBox="0 0 504.123 504.123" style="enable-background:new 0 0 504.123 504.123;" xml:space="preserve">
<circle style="fill:#E0E4E8;" cx="252.062" cy="252.062" r="252.062"/>
<path style="fill:#4FBF9F;" d="M452.135,97.674H51.988c-24.418,0-44.111,19.692-44.111,44.111v293.022
	c0,24.418,19.692,44.111,44.111,44.111h399.36c24.418,0,44.111-19.692,44.111-44.111V142.572
	C496.246,117.366,476.554,97.674,452.135,97.674z"/>
<path style="fill:#183651;" d="M452.135,487.582H51.988C22.843,487.582,0,463.951,0,435.594V142.572
	c0-29.145,23.631-51.988,51.988-51.988h399.36c29.145,0,51.988,23.631,51.988,51.988v293.022
	C504.123,463.951,480.492,487.582,452.135,487.582z M51.988,105.551c-20.48,0-36.234,16.542-36.234,36.234v293.022
	c0,20.48,16.542,36.234,36.234,36.234h399.36c20.48,0,36.234-16.542,36.234-36.234V142.572c0-20.48-16.542-36.234-36.234-36.234
	H51.988V105.551z"/>
<path style="fill:#FFFFFF;" d="M452.135,129.182H51.988c-7.089,0-12.603,5.514-12.603,12.603v293.022
	c0,7.089,5.514,12.603,12.603,12.603h399.36c7.089,0,12.603-5.514,12.603-12.603V142.572
	C464.738,135.483,459.225,129.182,452.135,129.182z"/>
<path style="fill:#FBBD5E;" d="M89.009,97.674v121.305c0,16.542,13.391,29.145,29.145,29.145h267.028
	c16.542,0,29.145-13.391,29.145-29.145V97.674H89.009z"/>
<path style="fill:#183651;" d="M385.969,256H118.154c-20.48,0-37.022-16.542-37.022-37.022V97.674c0-4.726,3.151-7.877,7.877-7.877
	h326.105c4.726,0,7.877,3.151,7.877,7.877v121.305C422.991,239.458,406.449,256,385.969,256z M96.886,105.551v113.428
	c0,11.815,9.452,21.268,21.268,21.268h267.028c11.815,0,21.268-9.452,21.268-21.268V105.551H96.886z"/>
<g>
	<path style="fill:#FFFFFF;" d="M120.517,105.551v87.434c0,13.391,10.24,23.631,23.631,23.631h215.828
		c13.391,0,23.631-10.24,23.631-23.631v-87.434H120.517z"/>
	<rect x="181.957" y="248.123" style="fill:#FFFFFF;" width="140.209" height="70.105"/>
</g>
<path style="fill:#183651;" d="M322.166,326.105H181.957c-4.726,0-7.877-3.151-7.877-7.877v-70.105c0-4.726,3.151-7.877,7.877-7.877
	h140.209c4.726,0,7.877,3.151,7.877,7.877v70.105C330.043,322.954,326.892,326.105,322.166,326.105z M189.834,310.351h124.455V256
	H189.834V310.351z"/>
<rect x="212.677" y="296.172" style="fill:#F06151;" width="79.557" height="45.686"/>
<g>
	<path style="fill:#183651;" d="M291.446,348.948h-78.769c-4.726,0-7.877-3.151-7.877-7.877v-45.686
		c0-4.726,3.151-7.877,7.877-7.877h79.557c4.726,0,7.877,3.151,7.877,7.877v45.686C299.323,345.797,296.172,348.948,291.446,348.948
		z M220.554,333.194h63.803v-29.932h-63.803L220.554,333.194L220.554,333.194z"/>
	<rect x="204.8" y="153.6" style="fill:#183651;" width="15.754" height="15.754"/>
	<rect x="244.185" y="153.6" style="fill:#183651;" width="15.754" height="15.754"/>
	<rect x="283.569" y="153.6" style="fill:#183651;" width="15.754" height="15.754"/>
	<rect x="362.338" y="248.123" style="fill:#183651;" width="15.754" height="200.074"/>
	<rect x="126.031" y="248.123" style="fill:#183651;" width="15.754" height="200.074"/>
	<path style="fill:#183651;" d="M326.892,77.982c-4.726,0-7.877-3.151-7.877-7.877V44.111c0-7.877-6.302-14.178-14.178-14.178
		H198.498c-7.877,0-14.178,6.302-14.178,14.178v25.994c0,4.726-3.151,7.877-7.877,7.877c-4.726,0-7.877-3.151-7.877-7.877V44.111
		c0-16.542,13.391-29.932,29.932-29.932h106.338c16.542,0,29.932,13.391,29.932,29.932v25.994
		C334.769,74.831,331.618,77.982,326.892,77.982z"/>
	<path style="fill:#183651;" d="M346.585,105.551H307.2c-4.726,0-7.877-3.151-7.877-7.877V70.105c0-4.726,3.151-7.877,7.877-7.877
		h39.385c4.726,0,7.877,3.151,7.877,7.877v27.569C354.462,102.4,351.311,105.551,346.585,105.551z M315.077,89.797h23.631V77.982
		h-23.631V89.797z"/>
	<path style="fill:#183651;" d="M196.923,105.551h-39.385c-4.726,0-7.877-3.151-7.877-7.877V70.105c0-4.726,3.151-7.877,7.877-7.877
		h39.385c4.726,0,7.877,3.151,7.877,7.877v27.569C204.8,102.4,200.862,105.551,196.923,105.551z M165.415,89.797h23.631V77.982
		h-23.631V89.797z"/>
</g>
<g>
</g>
<g>
</g>
<g>
</g>
<g>
</g>
<g>
</g>
<g>
</g>
<g>
</g>
<g>
</g>
<g>
</g>
<g>
</g>
<g>
</g>
<g>
</g>
<g>
</g>
<g>
</g>
<g>
</g>
</svg>
