<?xml version="1.0" encoding="iso-8859-1"?>
<!-- Generator: Adobe Illustrator 19.0.0, SVG Export Plug-In . SVG Version: 6.00 Build 0)  -->
<svg version="1.1" id="Capa_1" xmlns="http://www.w3.org/2000/svg" xmlns:xlink="http://www.w3.org/1999/xlink" x="0px" y="0px"
	 viewBox="0 0 504.123 504.123" style="enable-background:new 0 0 504.123 504.123;" xml:space="preserve">
<path style="fill:#E0E4E8;" d="M299.323,7.877H46.474c-21.268,0-38.597,17.329-38.597,38.597v411.175
	c0,21.268,17.329,38.597,38.597,38.597h252.849c21.268,0,38.597-17.329,38.597-38.597V46.474
	C337.132,25.206,320.591,7.877,299.323,7.877z"/>
<path style="fill:#183651;" d="M299.323,504.123H46.474C21.268,504.123,0,483.643,0,457.649V46.474C0,21.268,20.48,0,46.474,0
	h252.849c25.206,0,46.474,20.48,46.474,46.474v411.175C345.009,482.855,324.529,504.123,299.323,504.123z M46.474,15.754
	c-16.542,0-30.72,13.391-30.72,30.72v411.175c0,16.542,13.391,30.72,30.72,30.72h252.849c16.542,0,30.72-13.391,30.72-30.72V46.474
	c0-16.542-13.391-30.72-30.72-30.72H46.474z"/>
<rect x="39.385" y="62.228" style="fill:#FFFFFF;" width="266.24" height="342.646"/>
<g>
	<circle style="fill:#CECFD0;" cx="172.505" cy="440.32" r="22.843"/>
	<path style="fill:#CECFD0;" d="M203.225,38.597h-60.652c-3.938,0-7.089,3.151-7.089,7.089s3.151,7.089,7.089,7.089h60.652
		c3.938,0,7.089-3.151,7.089-7.089S207.163,38.597,203.225,38.597z"/>
</g>
<rect x="240.246" y="218.978" style="fill:#4FBF9F;" width="256" height="152.025"/>
<path style="fill:#183651;" d="M496.246,378.88h-256c-4.726,0-7.877-3.151-7.877-7.877V218.978c0-4.726,3.151-7.877,7.877-7.877h256
	c4.726,0,7.877,3.151,7.877,7.877v152.025C504.123,375.729,500.972,378.88,496.246,378.88z M248.123,363.126h240.246V226.855
	H248.123V363.126z"/>
<polygon style="fill:#4FBF9F;" points="496.246,371.003 368.64,274.117 240.246,371.003 "/>
<path style="fill:#183651;" d="M496.246,378.88h-256c-3.151,0-6.302-2.363-7.089-5.514c-0.788-3.151,0-7.089,2.363-8.665
	l127.606-96.886c3.151-2.363,7.089-2.363,9.452,0l127.606,96.886c2.363,2.363,3.938,5.514,2.363,8.665
	C502.548,376.517,499.397,378.88,496.246,378.88z M263.877,363.126h208.738L368.64,284.357L263.877,363.126z"/>
<polygon style="fill:#FFFFFF;" points="496.246,218.978 496.246,218.978 496.246,218.978 368.64,145.723 240.246,218.978 
	240.246,218.978 240.246,218.978 240.246,218.978 240.246,218.978 368.64,315.865 496.246,218.978 "/>
<path style="fill:#183651;" d="M368.64,323.742c-1.575,0-3.151-0.788-4.726-1.575L235.52,225.28
	c-2.363-1.575-3.151-3.938-3.151-7.089c0-3.151,1.575-4.726,3.938-6.302l127.606-73.255c2.363-1.575,5.514-1.575,7.877,0
	l128.394,73.255c2.363,1.575,3.938,3.938,3.938,6.302c0,2.363-0.788,5.514-3.151,7.089l-127.606,96.886
	C371.791,322.954,370.215,323.742,368.64,323.742z M254.425,219.766l113.428,86.646l113.428-86.646l-113.428-65.378L254.425,219.766
	z"/>
<path style="fill:#FBBD5E;" d="M366.277,52.775c-38.597,0.788-70.105,33.871-69.317,72.468c0,22.843,11.028,42.535,27.569,55.926
	c8.665,6.302,12.603,16.542,13.391,27.569h62.228c0-11.028,5.514-21.268,14.178-28.357c15.754-13.391,26.782-33.083,26.782-55.926
	C440.32,84.283,406.449,51.2,366.277,52.775z"/>
<path style="fill:#183651;" d="M399.36,215.828h-62.228c-3.938,0-7.877-3.151-7.877-7.877c0-8.665-3.938-16.542-10.24-21.268
	c-18.905-14.966-29.932-37.809-30.72-61.44c-0.788-43.323,34.658-78.769,77.194-80.345h2.363c44.111,0,79.557,35.446,79.557,79.557
	c0,23.631-11.028,46.474-29.145,61.44c-7.089,6.302-11.028,13.391-11.815,22.055C407.237,212.677,403.298,215.828,399.36,215.828z
	 M344.222,200.074h48.049c2.363-10.24,7.877-18.905,16.542-25.994c14.966-11.815,23.631-29.932,23.631-49.625
	c0-35.446-28.357-63.803-63.803-63.803h-1.575c-33.871,0.788-62.228,30.72-62.228,64.591c0,19.692,9.452,37.809,24.418,49.625
	C337.132,181.169,341.858,189.834,344.222,200.074z"/>
<path style="fill:#FFFFFF;" d="M330.043,207.951v17.329c0,21.268,17.329,37.809,37.809,37.809l0,0
	c21.268,0,37.809-17.329,37.809-37.809v-17.329L330.043,207.951L330.043,207.951z"/>
<path style="fill:#183651;" d="M368.64,270.966c-25.206,0-45.686-20.48-45.686-45.686v-17.329c0-4.726,3.151-7.877,7.877-7.877
	h75.618c4.726,0,7.877,3.151,7.877,7.877v17.329C414.326,250.486,393.846,270.966,368.64,270.966z M337.92,215.828v9.452
	c0,16.542,13.391,29.932,29.932,29.932c16.542,0,29.932-13.391,29.932-29.932v-9.452L337.92,215.828L337.92,215.828z"/>
<circle style="fill:#FFFFFF;" cx="368.64" cy="126.818" r="41.748"/>
<circle style="fill:#F06151;" cx="127.606" cy="244.185" r="72.468"/>
<polygon style="fill:#FFFFFF;" points="116.578,278.055 82.708,244.185 95.311,231.582 116.578,252.849 159.114,210.314 
	171.717,222.917 "/>
<g>
</g>
<g>
</g>
<g>
</g>
<g>
</g>
<g>
</g>
<g>
</g>
<g>
</g>
<g>
</g>
<g>
</g>
<g>
</g>
<g>
</g>
<g>
</g>
<g>
</g>
<g>
</g>
<g>
</g>
</svg>
