<?xml version="1.0" encoding="iso-8859-1"?>
<!-- Generator: Adobe Illustrator 19.0.0, SVG Export Plug-In . SVG Version: 6.00 Build 0)  -->
<svg version="1.1" id="Capa_1" xmlns="http://www.w3.org/2000/svg" xmlns:xlink="http://www.w3.org/1999/xlink" x="0px" y="0px"
	 viewBox="0 0 504.123 504.123" style="enable-background:new 0 0 504.123 504.123;" xml:space="preserve">
<circle style="fill:#E0E4E8;" cx="252.062" cy="252.062" r="252.062"/>
<g>
	<rect x="336.345" y="140.209" style="fill:#183651;" width="15.754" height="15.754"/>
	<rect x="385.969" y="140.209" style="fill:#183651;" width="15.754" height="15.754"/>
	<rect x="435.594" y="140.209" style="fill:#183651;" width="15.754" height="15.754"/>
	<rect x="52.775" y="140.209" style="fill:#183651;" width="15.754" height="15.754"/>
	<rect x="102.4" y="140.209" style="fill:#183651;" width="15.754" height="15.754"/>
	<rect x="152.025" y="140.209" style="fill:#183651;" width="15.754" height="15.754"/>
</g>
<path style="fill:#FFFFFF;" d="M410.388,203.225H265.452v-63.015c0-8.665-7.089-15.754-15.754-15.754
	c-8.665,0-15.754,7.089-15.754,15.754v63.015H93.735c-8.665,0-15.754,7.089-15.754,15.754v61.44c0,8.665,7.089,15.754,15.754,15.754
	s15.754-7.089,15.754-15.754v-45.686h124.455v112.64c0,8.665,7.089,15.754,15.754,15.754c8.665,0,15.754-7.089,15.754-15.754
	v-112.64h129.182v45.686c0,8.665,7.089,15.754,15.754,15.754c8.665,0,15.754-7.089,15.754-15.754v-61.44
	C426.142,210.314,419.052,203.225,410.388,203.225z"/>
<path style="fill:#183651;" d="M249.698,371.791c-13.391,0-23.631-10.24-23.631-23.631V242.609H117.366v37.809
	c0,13.391-10.24,23.631-23.631,23.631s-23.631-10.24-23.631-23.631v-61.44c0-13.391,10.24-23.631,23.631-23.631h132.332v-55.138
	c0-13.391,10.24-23.631,23.631-23.631c13.391,0,23.631,10.24,23.631,23.631v55.138h137.059c13.391,0,23.631,10.24,23.631,23.631
	v61.44c0,13.391-10.24,23.631-23.631,23.631c-13.391,0-23.631-10.24-23.631-23.631v-37.809H273.329v104.763
	C273.329,360.763,263.089,371.791,249.698,371.791z M109.489,226.855h124.455c4.726,0,7.877,3.151,7.877,7.877v112.64
	c0,4.726,3.151,7.877,7.877,7.877s7.877-3.151,7.877-7.877v-112.64c0-4.726,3.151-7.877,7.877-7.877h129.182
	c4.726,0,7.877,3.151,7.877,7.877v45.686c0,4.726,3.151,7.877,7.877,7.877c4.726,0,7.877-3.151,7.877-7.877v-61.44
	c0-4.726-3.151-7.877-7.877-7.877H265.452c-4.726,0-7.877-3.151-7.877-7.877v-63.015c0-4.726-3.151-7.877-7.877-7.877
	c-4.726,0-7.877,3.151-7.877,7.877v63.015c0,4.726-3.151,7.877-7.877,7.877H93.735c-4.726,0-7.877,3.151-7.877,7.877v61.44
	c0,4.726,3.151,7.877,7.877,7.877s7.877-3.151,7.877-7.877v-45.686C101.612,230.794,105.551,226.855,109.489,226.855z"/>
<circle style="fill:#FFFFFF;" cx="249.698" cy="77.982" r="62.228"/>
<path style="fill:#183651;" d="M249.698,148.086c-38.597,0-70.105-31.508-70.105-70.105s31.508-70.105,70.105-70.105
	s70.105,31.508,70.105,70.105S288.295,148.086,249.698,148.086z M249.698,23.631c-29.932,0-54.351,24.418-54.351,54.351
	s24.418,54.351,54.351,54.351s54.351-24.418,54.351-54.351C304.049,48.049,279.631,23.631,249.698,23.631z"/>
<path style="fill:#F06151;" d="M249.698,108.702c-17.329,0-30.72-14.178-30.72-30.72s14.178-30.72,30.72-30.72
	s30.72,14.178,30.72,30.72S267.028,108.702,249.698,108.702z"/>
<circle style="fill:#FFFFFF;" cx="249.698" cy="410.388" r="62.228"/>
<path style="fill:#183651;" d="M249.698,480.492c-38.597,0-70.105-31.508-70.105-70.105s31.508-70.105,70.105-70.105
	s70.105,31.508,70.105,70.105S288.295,480.492,249.698,480.492z M249.698,356.037c-29.932,0-54.351,24.418-54.351,54.351
	c0,29.932,24.418,54.351,54.351,54.351s54.351-24.418,54.351-54.351C304.049,380.455,279.631,356.037,249.698,356.037z"/>
<path style="fill:#2EA0DA;" d="M249.698,441.108c-17.329,0-30.72-14.178-30.72-30.72c0-16.542,14.178-30.72,30.72-30.72
	s30.72,14.178,30.72,30.72C280.418,426.929,267.028,441.108,249.698,441.108z"/>
<circle style="fill:#FFFFFF;" cx="410.388" cy="342.646" r="62.228"/>
<path style="fill:#183651;" d="M410.388,413.538c-38.597,0-70.105-31.508-70.105-70.105s31.508-70.105,70.105-70.105
	s70.105,31.508,70.105,70.105S448.985,413.538,410.388,413.538z M410.388,288.295c-29.932,0-54.351,24.418-54.351,54.351
	s24.418,54.351,54.351,54.351c29.932,0,54.351-24.418,54.351-54.351C464.738,312.714,440.32,288.295,410.388,288.295z"/>
<path style="fill:#FBBD5E;" d="M410.388,374.154c-17.329,0-30.72-14.178-30.72-30.72s14.178-30.72,30.72-30.72
	c16.542,0,30.72,14.178,30.72,30.72S426.929,374.154,410.388,374.154z"/>
<circle style="fill:#FFFFFF;" cx="93.735" cy="342.646" r="62.228"/>
<path style="fill:#183651;" d="M93.735,413.538c-38.597,0-70.105-31.508-70.105-70.105s31.508-70.105,70.105-70.105
	s70.105,31.508,70.105,70.105S132.332,413.538,93.735,413.538z M93.735,288.295c-29.932,0-54.351,24.418-54.351,54.351
	s24.418,54.351,54.351,54.351s54.351-24.418,54.351-54.351C148.086,312.714,123.668,288.295,93.735,288.295z"/>
<path style="fill:#FBBD5E;" d="M93.735,374.154c-17.329,0-30.72-14.178-30.72-30.72s14.178-30.72,30.72-30.72
	s30.72,14.178,30.72,30.72S111.065,374.154,93.735,374.154z"/>
<g>
</g>
<g>
</g>
<g>
</g>
<g>
</g>
<g>
</g>
<g>
</g>
<g>
</g>
<g>
</g>
<g>
</g>
<g>
</g>
<g>
</g>
<g>
</g>
<g>
</g>
<g>
</g>
<g>
</g>
</svg>
