<?xml version="1.0" encoding="iso-8859-1"?>
<!-- Generator: Adobe Illustrator 19.0.0, SVG Export Plug-In . SVG Version: 6.00 Build 0)  -->
<svg version="1.1" id="Capa_1" xmlns="http://www.w3.org/2000/svg" xmlns:xlink="http://www.w3.org/1999/xlink" x="0px" y="0px"
	 viewBox="0 0 504.123 504.123" style="enable-background:new 0 0 504.123 504.123;" xml:space="preserve">
<rect x="7.877" y="8.665" style="fill:#4FBF9F;" width="488.369" height="267.815"/>
<path style="fill:#183651;" d="M496.246,284.357H7.877c-4.726,0-7.877-3.151-7.877-7.877V8.665c0-4.726,3.151-7.877,7.877-7.877
	h488.369c4.726,0,7.877,3.151,7.877,7.877V276.48C504.123,281.206,500.972,284.357,496.246,284.357z M15.754,268.603h472.615V16.542
	H15.754V268.603z"/>
<path style="fill:#FFFFFF;" d="M39.385,206.375V79.557c22.055,0,39.385-17.329,39.385-39.385h346.585
	c0,22.055,17.329,39.385,39.385,39.385v126.818c-22.055,0-39.385,17.329-39.385,39.385H78.769
	C78.769,223.705,60.652,206.375,39.385,206.375z"/>
<g>
	<ellipse style="fill:#4FBF9F;" cx="252.062" cy="142.572" rx="81.132" ry="108.702"/>
	<circle style="fill:#4FBF9F;" cx="402.511" cy="142.572" r="18.905"/>
	<circle style="fill:#4FBF9F;" cx="101.612" cy="142.572" r="18.905"/>
</g>
<path style="fill:#FFFFFF;" d="M249.698,181.957v-7.089c-8.665-0.788-16.542-3.938-22.843-10.24l7.089-7.877
	c5.514,4.726,11.028,7.089,16.542,7.877v-18.117c-7.089-1.575-12.603-3.938-15.754-6.302c-3.151-3.151-4.726-7.089-4.726-12.603
	c0-5.514,1.575-10.24,5.514-13.391s8.665-5.514,14.966-5.514v-4.726H256v4.726c7.089,0.788,13.391,3.151,19.692,7.089l-6.302,8.665
	c-3.938-3.151-8.665-4.726-13.391-5.514v17.329l0,0c7.089,1.575,12.603,3.938,15.754,7.089c3.151,3.151,4.726,7.089,4.726,12.603
	s-1.575,10.24-5.514,13.391c-3.938,3.151-8.665,5.514-15.754,5.514v7.089L249.698,181.957L249.698,181.957z M243.397,121.305
	c-1.575,1.575-2.363,3.151-2.363,5.514c0,2.363,0.788,3.938,1.575,4.726c1.575,1.575,3.938,2.363,7.089,3.151v-16.542
	C247.335,118.942,244.972,119.729,243.397,121.305z M263.089,162.265c1.575-1.575,2.363-3.151,2.363-5.514
	c0-2.363-0.788-3.938-2.363-5.514c-1.575-1.575-3.938-2.363-7.877-3.938v17.329C259.151,164.628,261.514,163.84,263.089,162.265z"/>
<rect x="14.178" y="350.523" style="fill:#F06151;" width="181.957" height="144.935"/>
<g>
	<path style="fill:#183651;" d="M196.135,503.335H14.178c-4.726,0-7.877-3.151-7.877-7.877V350.523c0-4.726,3.151-7.877,7.877-7.877
		h181.957c4.726,0,7.877,3.151,7.877,7.877v144.935C204.012,500.185,200.074,503.335,196.135,503.335z M22.055,487.582h166.203
		V358.4H22.055V487.582z"/>
	<path style="fill:#183651;" d="M178.806,358.4H30.72c-4.726,0-7.877-3.151-7.877-7.877v-33.871c0-44.898,37.022-81.92,81.92-81.92
		s81.92,37.022,81.92,81.92v33.871C186.683,355.249,183.532,358.4,178.806,358.4z M38.597,342.646h132.332v-25.994
		c0-36.234-29.932-66.166-66.166-66.166s-66.166,29.932-66.166,66.166C38.597,316.652,38.597,342.646,38.597,342.646z"/>
</g>
<path style="fill:#FFFFFF;" d="M122.88,410.388c0-10.24-7.877-18.117-18.117-18.117s-18.117,7.877-18.117,18.117
	c0,7.089,3.938,12.603,9.452,15.754l-4.726,27.569h27.569l-4.726-27.569C118.942,422.991,122.88,417.477,122.88,410.388z"/>
<rect x="448.985" y="314.289" style="fill:#E0E4E8;" width="45.686" height="181.169"/>
<path style="fill:#183651;" d="M494.671,503.335h-45.686c-4.726,0-7.877-3.151-7.877-7.877V314.289c0-4.726,3.151-7.877,7.877-7.877
	h45.686c4.726,0,7.877,3.151,7.877,7.877v181.169C502.548,500.185,499.397,503.335,494.671,503.335z M456.862,487.582h29.932
	V322.166h-29.932V487.582z"/>
<rect x="361.551" y="361.551" style="fill:#FBBD5E;" width="45.686" height="133.908"/>
<path style="fill:#183651;" d="M407.237,503.335h-45.686c-4.726,0-7.877-3.151-7.877-7.877V361.551c0-4.726,3.151-7.877,7.877-7.877
	h45.686c4.726,0,7.877,3.151,7.877,7.877v133.908C415.114,500.185,411.175,503.335,407.237,503.335z M369.428,487.582h29.932
	V369.428h-29.932V487.582z"/>
<rect x="274.117" y="400.148" style="fill:#4FBF9F;" width="45.686" height="95.311"/>
<g>
	<path style="fill:#183651;" d="M319.015,503.335h-45.686c-4.726,0-7.877-3.151-7.877-7.877v-95.311
		c0-4.726,3.151-7.877,7.877-7.877h45.686c4.726,0,7.877,3.151,7.877,7.877v95.311C326.892,500.185,323.742,503.335,319.015,503.335
		z M281.994,487.582h29.932v-79.557h-29.932V487.582z"/>
	<rect x="252.849" y="342.646" style="fill:#183651;" width="15.754" height="15.754"/>
	<rect x="284.357" y="342.646" style="fill:#183651;" width="15.754" height="15.754"/>
	<rect x="315.865" y="342.646" style="fill:#183651;" width="15.754" height="15.754"/>
</g>
<g>
</g>
<g>
</g>
<g>
</g>
<g>
</g>
<g>
</g>
<g>
</g>
<g>
</g>
<g>
</g>
<g>
</g>
<g>
</g>
<g>
</g>
<g>
</g>
<g>
</g>
<g>
</g>
<g>
</g>
</svg>
