<?xml version="1.0" encoding="iso-8859-1"?>
<!-- Generator: Adobe Illustrator 19.0.0, SVG Export Plug-In . SVG Version: 6.00 Build 0)  -->
<svg version="1.1" id="Capa_1" xmlns="http://www.w3.org/2000/svg" xmlns:xlink="http://www.w3.org/1999/xlink" x="0px" y="0px"
	 viewBox="0 0 504.911 504.911" style="enable-background:new 0 0 504.911 504.911;" xml:space="preserve">
<path style="fill:#FFFFFF;" d="M475.766,223.311h-143.36c-11.815,0-21.268,9.452-21.268,21.268v230.794
	c0,11.815,9.452,21.268,21.268,21.268h143.36c11.815,0,21.268-9.452,21.268-21.268V244.578
	C497.034,232.763,487.582,223.311,475.766,223.311z"/>
<path style="fill:#183651;" d="M475.766,504.517h-143.36c-16.542,0-29.145-13.391-29.145-29.145V244.578
	c0-16.542,13.391-29.145,29.145-29.145h143.36c16.542,0,29.145,13.391,29.145,29.145v230.794
	C504.911,491.126,491.52,504.517,475.766,504.517z M332.406,231.188c-7.877,0-13.391,6.302-13.391,13.391v230.794
	c0,7.877,6.302,13.391,13.391,13.391h143.36c7.877,0,13.391-6.302,13.391-13.391V244.578c0-7.877-6.302-13.391-13.391-13.391
	H332.406z"/>
<rect x="342.646" y="269.785" style="fill:#2CA0DA;" width="122.88" height="170.929"/>
<path style="fill:#FFFFFF;" d="M173.292,223.311H29.932c-11.815,0-21.268,9.452-21.268,21.268v230.794
	c0,11.815,9.452,21.268,21.268,21.268h143.36c11.815,0,21.268-9.452,21.268-21.268V244.578
	C194.56,232.763,185.108,223.311,173.292,223.311z"/>
<path style="fill:#183651;" d="M173.292,504.517H29.932c-16.542,0-29.145-13.391-29.145-29.145V244.578
	c0-16.542,13.391-29.145,29.145-29.145h143.36c16.542,0,29.145,13.391,29.145,29.145v230.794
	C202.437,491.126,189.834,504.517,173.292,504.517z M29.932,231.188c-7.877,0-13.391,6.302-13.391,13.391v230.794
	c0,7.877,6.302,13.391,13.391,13.391h143.36c7.877,0,13.391-6.302,13.391-13.391V244.578c0-7.877-6.302-13.391-13.391-13.391H29.932
	z"/>
<rect x="40.172" y="269.785" style="fill:#FBBD5E;" width="122.88" height="170.929"/>
<g>
	<rect x="74.043" y="175.262" style="fill:#183651;" width="15.754" height="15.754"/>
	<rect x="142.572" y="175.262" style="fill:#183651;" width="15.754" height="15.754"/>
	<rect x="211.102" y="175.262" style="fill:#183651;" width="15.754" height="15.754"/>
	<rect x="278.843" y="175.262" style="fill:#183651;" width="15.754" height="15.754"/>
	<rect x="347.372" y="175.262" style="fill:#183651;" width="15.754" height="15.754"/>
	<rect x="415.902" y="175.262" style="fill:#183651;" width="15.754" height="15.754"/>
	<rect x="244.972" y="144.542" style="fill:#183651;" width="15.754" height="15.754"/>
	<rect x="244.972" y="78.375" style="fill:#183651;" width="15.754" height="15.754"/>
	<rect x="244.972" y="11.422" style="fill:#183651;" width="15.754" height="15.754"/>
	<rect x="244.972" y="210.708" style="fill:#183651;" width="15.754" height="15.754"/>
	<rect x="244.972" y="277.662" style="fill:#183651;" width="15.754" height="15.754"/>
	<rect x="244.972" y="343.828" style="fill:#183651;" width="15.754" height="15.754"/>
	<rect x="244.972" y="409.994" style="fill:#183651;" width="15.754" height="15.754"/>
	<rect x="244.972" y="476.16" style="fill:#183651;" width="15.754" height="15.754"/>
</g>
<g>
	<circle style="fill:#E1E6E7;" cx="404.086" cy="464.345" r="13.391"/>
	<path style="fill:#E1E6E7;" d="M433.231,243.791h-58.289c-3.151,0-5.514,2.363-5.514,5.514c0,3.151,2.363,5.514,5.514,5.514h58.289
		c3.151,0,5.514-2.363,5.514-5.514C437.957,246.154,435.594,243.791,433.231,243.791z"/>
	<circle style="fill:#E1E6E7;" cx="101.612" cy="464.345" r="13.391"/>
	<path style="fill:#E1E6E7;" d="M130.757,243.791H72.468c-3.151,0-5.514,2.363-5.514,5.514c0,3.151,2.363,5.514,5.514,5.514h58.289
		c3.151,0,5.514-2.363,5.514-5.514C136.271,246.154,133.908,243.791,130.757,243.791z"/>
</g>
<path style="fill:#F06151;" d="M178.806,8.271H24.418c-8.665,0-15.754,7.089-15.754,15.754v92.16
	c0,8.665,7.089,15.754,15.754,15.754h15.754v38.597l76.406-38.597h63.015c8.665,0,15.754-7.089,15.754-15.754v-92.16
	C194.56,15.36,187.471,8.271,178.806,8.271z"/>
<path style="fill:#183651;" d="M35.446,176.837c-2.363-1.575-3.938-3.938-3.938-7.089v-30.72h-7.877
	C10.24,139.028,0,128.788,0,115.397V24.025C0,10.634,10.24,0.394,23.631,0.394h154.388c13.391,0,23.631,10.24,23.631,23.631v92.16
	c0,13.391-10.24,23.631-23.631,23.631h-61.44l-74.831,37.809C40.96,178.412,37.809,178.412,35.446,176.837z M24.418,16.148
	c-4.726,0-7.877,3.151-7.877,7.877v92.16c0,4.726,3.151,7.877,7.877,7.877h15.754c4.726,0,7.877,3.151,7.877,7.877v25.206
	l64.591-32.295c0.788-0.788,2.363-0.788,3.151-0.788h63.015c4.726,0,7.877-3.151,7.877-7.877v-92.16
	c0-4.726-3.151-7.877-7.877-7.877H24.418z"/>
<polygon style="fill:#FFFFFF;" points="71.68,100.431 40.172,100.431 40.172,39.778 163.052,39.778 163.052,100.431 
	108.702,100.431 71.68,119.335 "/>
<path style="fill:#F06151;" d="M326.892,8.271H481.28c8.665,0,15.754,7.089,15.754,15.754v92.16c0,8.665-7.089,15.754-15.754,15.754
	h-15.754v38.597l-76.406-38.597h-63.015c-8.665,0-15.754-7.089-15.754-15.754v-92.16C311.138,15.36,318.228,8.271,326.892,8.271z"/>
<path style="fill:#183651;" d="M462.375,176.837l-74.831-37.809h-61.44c-13.391,0-23.631-10.24-23.631-23.631V24.025
	c0-13.391,10.24-23.631,23.631-23.631h154.388c13.391,0,23.631,10.24,23.631,23.631v92.16c0,13.391-10.24,23.631-23.631,23.631
	h-7.877v30.72c0,2.363-1.575,5.514-3.938,7.089C467.889,178.412,464.738,178.412,462.375,176.837z M326.892,16.148
	c-4.726,0-7.877,3.151-7.877,7.877v92.16c0,4.726,3.151,7.877,7.877,7.877h63.015c1.575,0,2.363,0,3.151,0.788l64.591,32.295
	v-25.206c0-4.726,3.151-7.877,7.877-7.877h15.754c4.726,0,7.877-3.151,7.877-7.877v-92.16c0-4.726-3.151-7.877-7.877-7.877H326.892z
	"/>
<polygon style="fill:#FFFFFF;" points="434.018,100.431 465.526,100.431 465.526,39.778 342.646,39.778 342.646,100.431 
	396.997,100.431 434.018,119.335 "/>
<g>
	<circle style="fill:#E1E6E7;" cx="369.428" cy="68.135" r="9.452"/>
	<circle style="fill:#E1E6E7;" cx="404.086" cy="68.135" r="9.452"/>
	<circle style="fill:#E1E6E7;" cx="438.745" cy="68.135" r="9.452"/>
	<circle style="fill:#E1E6E7;" cx="66.954" cy="68.135" r="9.452"/>
	<circle style="fill:#E1E6E7;" cx="101.612" cy="68.135" r="9.452"/>
	<circle style="fill:#E1E6E7;" cx="136.271" cy="68.135" r="9.452"/>
</g>
<g>
</g>
<g>
</g>
<g>
</g>
<g>
</g>
<g>
</g>
<g>
</g>
<g>
</g>
<g>
</g>
<g>
</g>
<g>
</g>
<g>
</g>
<g>
</g>
<g>
</g>
<g>
</g>
<g>
</g>
</svg>
