<?xml version="1.0" encoding="iso-8859-1"?>
<!-- Generator: Adobe Illustrator 19.0.0, SVG Export Plug-In . SVG Version: 6.00 Build 0)  -->
<svg version="1.1" id="Capa_1" xmlns="http://www.w3.org/2000/svg" xmlns:xlink="http://www.w3.org/1999/xlink" x="0px" y="0px"
	 viewBox="0 0 504.123 504.123" style="enable-background:new 0 0 504.123 504.123;" xml:space="preserve">
<circle style="fill:#FBBD5E;" cx="252.062" cy="251.274" r="251.274"/>
<rect x="396.209" y="392.271" style="fill:#FFFFFF;" width="26.782" height="103.975"/>
<path style="fill:#183651;" d="M422.991,504.123h-26.782c-4.726,0-7.877-3.151-7.877-7.877V392.271c0-3.938,3.151-7.877,7.877-7.877
	h26.782c4.726,0,7.877,3.151,7.877,7.877v103.975C430.868,500.972,426.929,504.123,422.991,504.123z M404.086,488.369h11.028
	v-88.222h-11.028V488.369z"/>
<path style="fill:#FFFFFF;" d="M315.077,105.551c0-54.351-44.111-97.674-97.674-97.674c-54.351,0-97.674,44.111-97.674,97.674
	l97.674,97.674C270.966,203.225,315.077,159.902,315.077,105.551z"/>
<path style="fill:#183651;" d="M217.403,211.102c-2.363,0-3.938-0.788-5.514-2.363l-97.674-97.674
	c-1.575-1.575-2.363-3.151-2.363-5.514C111.852,47.262,159.114,0,217.403,0s105.551,47.262,105.551,105.551
	S275.692,211.102,217.403,211.102z M127.606,102.4l92.948,92.948c48.049-1.575,86.646-40.96,86.646-89.797
	c0-49.625-40.172-89.797-89.797-89.797C168.566,15.754,129.182,54.351,127.606,102.4z"/>
<path style="fill:#E1E6E7;" d="M124.455,111.065L13.391,273.329c-7.089,10.24-5.514,24.418,3.151,33.083
	c8.665,8.665,22.843,10.24,33.083,3.151l163.052-111.065L124.455,111.065z"/>
<path style="fill:#183651;" d="M34.658,321.378L34.658,321.378c-8.665,0-17.329-3.151-23.631-10.24
	c-11.815-11.815-13.391-29.145-3.938-42.535l111.065-162.265c1.575-1.575,3.151-3.151,5.514-3.151c2.363,0,4.726,0.788,6.302,2.363
	l87.434,87.434c1.575,1.575,2.363,3.938,2.363,6.302c0,2.363-1.575,4.726-3.151,5.514L53.563,315.865
	C48.049,319.803,41.748,321.378,34.658,321.378z M126.031,122.88L19.692,278.055c-4.726,7.089-3.938,16.542,2.363,22.843
	c6.302,6.302,15.754,7.089,22.843,2.363l155.175-105.551L126.031,122.88z"/>
<g>
	<circle style="fill:#E1E6E7;" cx="217.403" cy="38.597" r="7.877"/>
	<circle style="fill:#E1E6E7;" cx="257.575" cy="61.44" r="7.877"/>
	<circle style="fill:#E1E6E7;" cx="286.72" cy="102.4" r="7.877"/>
	<circle style="fill:#E1E6E7;" cx="273.329" cy="148.086" r="7.877"/>
	<circle style="fill:#E1E6E7;" cx="170.929" cy="56.714" r="7.877"/>
	<circle style="fill:#E1E6E7;" cx="217.403" cy="74.043" r="7.877"/>
	<circle style="fill:#E1E6E7;" cx="251.274" cy="107.914" r="7.877"/>
	<circle style="fill:#E1E6E7;" cx="218.191" cy="107.914" r="7.877"/>
	<circle style="fill:#E1E6E7;" cx="225.28" cy="163.84" r="7.877"/>
	<circle style="fill:#E1E6E7;" cx="190.622" cy="128.394" r="7.877"/>
	<circle style="fill:#E1E6E7;" cx="155.963" cy="93.735" r="7.877"/>
</g>
<path style="fill:#183651;" d="M261.514,195.348L127.606,61.44c-3.151-3.151-3.151-7.877,0-11.028c3.151-3.151,7.877-3.151,11.028,0
	L272.542,184.32c3.151,3.151,3.151,7.877,0,11.028C270.178,198.498,264.665,198.498,261.514,195.348z"/>
<path style="fill:#E1E6E7;" d="M409.6,133.12c-47.262,0-85.858,38.597-85.858,85.858v100.037c0,47.262,38.597,85.858,85.858,85.858
	s85.858-38.597,85.858-85.858V218.978C495.458,171.717,456.862,133.12,409.6,133.12z"/>
<path style="fill:#183651;" d="M409.6,411.963c-51.2,0-93.735-41.748-93.735-93.735v-99.249c0-51.2,41.748-93.735,93.735-93.735
	s93.735,41.748,93.735,93.735v100.037C503.335,370.215,460.8,411.963,409.6,411.963z M409.6,140.997
	c-43.323,0-77.982,34.658-77.982,77.982v100.037c0,43.323,34.658,77.982,77.982,77.982s77.982-34.658,77.982-77.982V218.978
	C487.582,175.655,452.135,140.997,409.6,140.997z"/>
<g>
	<path style="fill:#FFFFFF;" d="M409.6,377.305c-32.295,0-58.289-25.994-58.289-58.289V218.978
		c0-32.295,25.994-58.289,58.289-58.289s58.289,25.994,58.289,58.289v100.037C467.889,350.523,441.895,377.305,409.6,377.305z"/>
</g>
<path style="fill:#183651;" d="M453.711,504.123h-89.009c-4.726,0-7.877-3.151-7.877-7.877s3.151-7.877,7.877-7.877h89.009
	c4.726,0,7.877,3.151,7.877,7.877S458.437,504.123,453.711,504.123z"/>
<path style="fill:#183651;" d="M495.458,320.591h-43.323c-4.726,0-7.877-3.151-7.877-7.877s3.151-7.877,7.877-7.877h43.323
	c4.726,0,7.877,3.151,7.877,7.877S499.397,320.591,495.458,320.591z"/>
<path style="fill:#183651;" d="M495.458,276.48h-43.323c-4.726,0-7.877-3.151-7.877-7.877s3.151-7.877,7.877-7.877h43.323
	c4.726,0,7.877,3.151,7.877,7.877S499.397,276.48,495.458,276.48z"/>
<path style="fill:#183651;" d="M495.458,232.369h-43.323c-4.726,0-7.877-3.151-7.877-7.877c0-4.726,3.151-7.877,7.877-7.877h43.323
	c4.726,0,7.877,3.151,7.877,7.877C503.335,229.218,499.397,232.369,495.458,232.369z"/>
<path style="fill:#183651;" d="M367.065,320.591h-43.323c-4.726,0-7.877-3.151-7.877-7.877s3.151-7.877,7.877-7.877h43.323
	c4.726,0,7.877,3.151,7.877,7.877S371.791,320.591,367.065,320.591z"/>
<path style="fill:#183651;" d="M367.065,276.48h-43.323c-4.726,0-7.877-3.151-7.877-7.877s3.151-7.877,7.877-7.877h43.323
	c4.726,0,7.877,3.151,7.877,7.877S371.791,276.48,367.065,276.48z"/>
<path style="fill:#183651;" d="M367.065,232.369h-43.323c-4.726,0-7.877-3.151-7.877-7.877c0-4.726,3.151-7.877,7.877-7.877h43.323
	c4.726,0,7.877,3.151,7.877,7.877C374.942,229.218,371.791,232.369,367.065,232.369z"/>
<path style="fill:#183651;" d="M129.182,405.662c-4.726,0-7.877-3.151-7.877-7.877V255.212c0-3.938,3.151-7.877,7.877-7.877
	c4.726,0,7.877,3.151,7.877,7.877v142.572C137.058,402.511,133.12,405.662,129.182,405.662z"/>
<g>
	<path style="fill:#183651;" d="M173.292,405.662H84.283c-4.726,0-7.877-3.151-7.877-7.877s3.151-7.877,7.877-7.877h89.009
		c4.726,0,7.877,3.151,7.877,7.877S178.018,405.662,173.292,405.662z"/>
	<rect x="401.723" y="222.129" style="fill:#183651;" width="15.754" height="15.754"/>
	<rect x="401.723" y="260.726" style="fill:#183651;" width="15.754" height="15.754"/>
	<rect x="401.723" y="300.111" style="fill:#183651;" width="15.754" height="15.754"/>
	
		<rect x="129.837" y="176.92" transform="matrix(-0.707 -0.7072 0.7072 -0.707 104.3885 412.8424)" style="fill:#183651;" width="15.754" height="15.754"/>
	
		<rect x="102.217" y="204.479" transform="matrix(-0.7071 -0.7071 0.7071 -0.7071 37.7831 440.3613)" style="fill:#183651;" width="15.754" height="15.754"/>
	
		<rect x="74.624" y="232.04" transform="matrix(-0.707 -0.7072 0.7072 -0.707 -28.8405 467.8853)" style="fill:#183651;" width="15.754" height="15.754"/>
</g>
<g>
</g>
<g>
</g>
<g>
</g>
<g>
</g>
<g>
</g>
<g>
</g>
<g>
</g>
<g>
</g>
<g>
</g>
<g>
</g>
<g>
</g>
<g>
</g>
<g>
</g>
<g>
</g>
<g>
</g>
</svg>
