<?xml version="1.0" encoding="iso-8859-1"?>
<!-- Generator: Adobe Illustrator 19.0.0, SVG Export Plug-In . SVG Version: 6.00 Build 0)  -->
<svg version="1.1" id="Capa_1" xmlns="http://www.w3.org/2000/svg" xmlns:xlink="http://www.w3.org/1999/xlink" x="0px" y="0px"
	 viewBox="0 0 504.123 504.123" style="enable-background:new 0 0 504.123 504.123;" xml:space="preserve">
<circle style="fill:#E1E6E7;" cx="250.486" cy="252.062" r="250.486"/>
<path style="fill:#FBBD5E;" d="M428.505,250.486c0,34.658-27.569,68.529-62.228,68.529s-62.228-33.871-62.228-68.529
	s27.569-62.228,62.228-62.228S428.505,215.828,428.505,250.486z"/>
<path style="fill:#183651;" d="M366.277,326.892c-37.809,0-70.105-35.446-70.105-76.406c0-38.597,31.508-70.105,70.105-70.105
	s70.105,31.508,70.105,70.105C436.382,290.658,403.298,326.892,366.277,326.892z M366.277,195.348
	c-29.932,0-54.351,24.418-54.351,54.351c0,31.508,25.994,60.652,54.351,60.652c28.357,0,54.351-29.145,54.351-60.652
	C420.628,220.554,396.209,195.348,366.277,195.348z"/>
<path style="fill:#F06151;" d="M316.652,338.708L316.652,338.708c23.631,35.446,74.831,35.446,98.462,0l0,0
	c47.262,19.692,81.132,66.166,81.132,120.517v34.658H236.308v-34.658C236.308,404.874,269.391,358.4,316.652,338.708z"/>
<path style="fill:#183651;" d="M496.246,502.548H236.308c-3.938,0-7.877-3.151-7.877-7.877v-34.658
	c0-55.926,33.871-106.338,85.858-127.606c3.151-1.575,7.089,0,9.452,3.151c9.452,14.178,25.206,22.843,42.535,22.843
	c17.329,0,33.083-8.665,42.535-22.843c2.363-3.151,6.302-3.938,9.452-3.151c51.988,21.268,85.858,71.68,85.858,127.606v34.658
	C504.123,498.609,500.972,502.548,496.246,502.548z M244.185,486.794h244.972v-27.569c0-48.049-27.569-90.585-70.892-111.065
	c-12.603,15.754-31.508,24.418-51.988,24.418s-39.385-8.665-51.988-24.418c-43.323,19.692-70.892,63.015-70.892,111.065v27.569
	H244.185z"/>
<g>
	<path style="fill:#FFFFFF;" d="M267.028,463.163v-3.938c0-33.083,16.542-63.803,43.323-81.92
		c15.754,11.815,35.446,18.905,55.138,18.905c20.48,0,40.172-7.089,55.138-18.905c26.782,18.117,43.323,48.837,43.323,81.92v3.938
		L267.028,463.163L267.028,463.163z"/>
	<path style="fill:#FFFFFF;" d="M223.705,177.231v144.935H7.877V177.231c0-22.055,18.117-40.172,40.172-40.172h22.055
		c13.391,8.665,29.145,14.178,45.686,14.178s32.295-4.726,45.686-14.178h22.055C205.588,137.058,223.705,155.175,223.705,177.231z"
		/>
</g>
<path style="fill:#183651;" d="M223.705,330.043H7.877c-3.938,0-7.877-3.151-7.877-7.877V177.231
	c0-25.994,21.268-48.049,48.049-48.049h22.055c1.575,0,3.151,0.788,4.726,1.575c24.418,16.542,58.289,16.542,82.708,0
	c1.575-0.788,3.151-1.575,4.726-1.575h22.055c26.782,0,48.049,21.268,48.049,48.049v144.935
	C231.582,326.105,228.431,330.043,223.705,330.043z M15.754,314.289h200.074V177.231c0-18.117-14.178-32.295-32.295-32.295H163.84
	c-28.357,18.117-66.954,18.117-96.098,0H48.049c-18.117,0-32.295,14.178-32.295,32.295V314.289z"/>
<path style="fill:#4FBF9F;" d="M39.385,290.658v-86.646c0-15.754,12.603-28.357,28.357-28.357h96.886
	c15.754,0,28.357,12.603,28.357,28.357v85.858h-153.6V290.658z"/>
<circle style="fill:#FFFFFF;" cx="115.791" cy="64.591" r="54.351"/>
<path style="fill:#183651;" d="M115.791,126.818c-34.658,0-62.228-28.357-62.228-62.228S81.92,2.363,115.791,2.363
	s62.228,28.357,62.228,62.228S150.449,126.818,115.791,126.818z M115.791,17.329c-25.994,0-46.474,21.268-46.474,46.474
	s21.268,46.474,46.474,46.474s46.474-21.268,46.474-46.474S141.785,17.329,115.791,17.329z"/>
<rect x="51.988" y="322.166" style="fill:#4FBF9F;" width="128.394" height="172.505"/>
<path style="fill:#183651;" d="M180.382,502.548H51.988c-3.938,0-7.877-3.151-7.877-7.877V322.166c0-3.938,3.151-7.877,7.877-7.877
	h128.394c3.938,0,7.877,3.151,7.877,7.877v172.505C187.471,498.609,184.32,502.548,180.382,502.548z M59.077,486.794h112.64V330.043
	H59.077V486.794z"/>
<g>
	<rect x="82.708" y="352.886" style="fill:#FFFFFF;" width="66.166" height="133.12"/>
</g>
<path style="fill:#183651;" d="M174.868,330.043c-3.938,0-7.877-3.151-7.877-7.877V217.403c0-3.938,3.151-7.877,7.877-7.877
	c4.726,0,7.877,3.151,7.877,7.877v104.763C182.745,326.105,178.806,330.043,174.868,330.043z"/>
<path style="fill:#183651;" d="M56.714,330.043c-3.938,0-7.877-3.151-7.877-7.877V217.403c0-3.938,3.151-7.877,7.877-7.877
	s7.877,3.151,7.877,7.877v104.763C64.591,326.105,61.44,330.043,56.714,330.043z"/>
<g>
	<path style="fill:#183651;" d="M115.791,502.548c-3.938,0-7.877-3.151-7.877-7.877v-90.585c0-3.938,3.151-7.877,7.877-7.877
		c4.726,0,7.877,3.151,7.877,7.877v90.585C123.668,498.609,119.729,502.548,115.791,502.548z"/>
	<rect x="170.142" y="56.714" style="fill:#183651;" width="7.877" height="15.754"/>
	<path style="fill:#183651;" d="M374.154,165.415H358.4v-14.966h15.754V165.415z M374.154,135.483H358.4v-14.966h15.754V135.483z
		 M357.612,107.126c-0.788-3.938-2.363-7.877-3.938-11.815l14.178-7.089c2.363,4.726,4.726,10.24,5.514,15.754L357.612,107.126z
		 M346.585,85.071c-3.151-3.151-6.302-5.514-10.24-7.877l7.877-13.391c4.726,3.151,9.452,6.302,13.391,10.24L346.585,85.071z
		 M324.529,73.255c-3.151-0.788-6.302-0.788-9.452-0.788h-3.938V56.714h3.938c3.938,0,8.665,0.788,12.603,1.575L324.529,73.255z
		 M296.96,72.468h-14.966V56.714h14.966V72.468z M267.028,72.468h-14.966V56.714h14.966V72.468z M237.883,72.468h-14.966V56.714
		h14.966V72.468z M207.951,72.468h-14.966V56.714h14.966V72.468z"/>
	<rect x="358.4" y="180.382" style="fill:#183651;" width="15.754" height="7.877"/>
</g>
<g>
</g>
<g>
</g>
<g>
</g>
<g>
</g>
<g>
</g>
<g>
</g>
<g>
</g>
<g>
</g>
<g>
</g>
<g>
</g>
<g>
</g>
<g>
</g>
<g>
</g>
<g>
</g>
<g>
</g>
</svg>
