<?xml version="1.0" encoding="iso-8859-1"?>
<!-- Generator: Adobe Illustrator 19.0.0, SVG Export Plug-In . SVG Version: 6.00 Build 0)  -->
<svg version="1.1" id="Capa_1" xmlns="http://www.w3.org/2000/svg" xmlns:xlink="http://www.w3.org/1999/xlink" x="0px" y="0px"
	 viewBox="0 0 504.123 504.123" style="enable-background:new 0 0 504.123 504.123;" xml:space="preserve">
<circle style="fill:#E0E4E8;" cx="252.062" cy="252.062" r="252.062"/>
<rect x="7.877" y="151.237" style="fill:#FFFFFF;" width="29.145" height="119.729"/>
<path style="fill:#183651;" d="M37.022,278.843H7.877c-4.726,0-7.877-3.151-7.877-7.877V151.237c0-4.726,3.151-7.877,7.877-7.877
	h29.145c4.726,0,7.877,3.151,7.877,7.877v119.729C44.898,275.692,40.96,278.843,37.022,278.843z M15.754,263.089h13.391V159.114
	H15.754V263.089z"/>
<rect x="37.022" y="137.058" style="fill:#FFFFFF;" width="136.271" height="148.086"/>
<path style="fill:#183651;" d="M173.292,293.022H37.022c-4.726,0-7.877-3.151-7.877-7.877V137.058c0-4.726,3.151-7.877,7.877-7.877
	h136.271c4.726,0,7.877,3.151,7.877,7.877v148.086C181.169,289.871,177.231,293.022,173.292,293.022z M44.898,277.268h120.517
	V144.935H44.898V277.268z"/>
<rect x="68.529" y="168.566" style="fill:#F06151;" width="73.255" height="85.071"/>
<polygon style="fill:#FFFFFF;" points="409.6,371.003 173.292,285.145 173.292,137.058 409.6,51.2 "/>
<path style="fill:#183651;" d="M409.6,378.88c-0.788,0-1.575,0-2.363-0.788l-236.308-85.858c-3.151-0.788-5.514-3.938-5.514-7.089
	V137.058c0-3.151,2.363-6.302,5.514-7.089l236.308-86.646c2.363-0.788,4.726-0.788,7.089,0.788c2.363,1.575,3.151,3.938,3.151,6.302
	v319.803c0,2.363-1.575,4.726-3.151,6.302C412.751,378.88,411.175,378.88,409.6,378.88z M181.169,279.631l220.554,80.345V62.228
	l-220.554,80.345V279.631z"/>
<polygon style="fill:#F06151;" points="204.8,263.089 204.8,159.114 378.092,96.098 378.092,326.105 "/>
<rect x="409.6" y="51.2" style="fill:#FFFFFF;" width="30.72" height="319.803"/>
<path style="fill:#183651;" d="M440.32,378.88H409.6c-4.726,0-7.877-3.151-7.877-7.877V51.2c0-4.726,3.151-7.877,7.877-7.877h30.72
	c4.726,0,7.877,3.151,7.877,7.877v319.803C448.197,375.729,445.046,378.88,440.32,378.88z M417.477,363.126h14.966V59.077h-14.966
	V363.126z"/>
<path style="fill:#E0E4E8;" d="M55.926,285.145v163.84h28.357c22.055,0,39.385-17.329,39.385-39.385V285.145H55.926z"/>
<path style="fill:#183651;" d="M83.495,457.649H55.926c-4.726,0-7.877-3.151-7.877-7.877V285.145c0-4.726,3.151-7.877,7.877-7.877
	h67.742c4.726,0,7.877,3.151,7.877,7.877V409.6C130.757,436.382,110.277,457.649,83.495,457.649z M63.803,441.895h20.48
	c17.329,0,31.508-14.178,31.508-31.508V293.022H63.803V441.895z"/>
<path style="fill:#FFFFFF;" d="M140.997,338.708H122.88v-53.563h30.72v40.172C154.388,332.406,148.086,338.708,140.997,338.708z"/>
<path style="fill:#183651;" d="M140.997,346.585H122.88c-4.726,0-7.877-3.151-7.877-7.877v-53.563c0-4.726,3.151-7.877,7.877-7.877
	h30.72c4.726,0,7.877,3.151,7.877,7.877v40.172C162.265,337.132,152.812,346.585,140.997,346.585z M130.757,330.831h10.24
	c3.151,0,5.514-2.363,5.514-5.514v-32.295h-14.966v37.809H130.757z"/>
<path style="fill:#FBBD5E;" d="M440.32,155.175V266.24c30.72,0,55.926-25.206,55.926-55.926
	C496.246,180.382,471.04,155.175,440.32,155.175z"/>
<g>
	<path style="fill:#183651;" d="M440.32,274.905c-4.726,0-7.877-3.151-7.877-7.877V155.175c0-4.726,3.151-7.877,7.877-7.877
		c35.446,0,63.803,28.357,63.803,63.803S475.766,274.905,440.32,274.905z M448.197,163.84v94.523
		c22.843-3.938,40.172-23.631,40.172-47.262S471.04,167.778,448.197,163.84z"/>
	<rect x="322.954" y="156.751" style="fill:#183651;" width="15.754" height="15.754"/>
	<rect x="322.954" y="203.225" style="fill:#183651;" width="15.754" height="15.754"/>
	<rect x="322.954" y="250.486" style="fill:#183651;" width="15.754" height="15.754"/>
</g>
<g>
</g>
<g>
</g>
<g>
</g>
<g>
</g>
<g>
</g>
<g>
</g>
<g>
</g>
<g>
</g>
<g>
</g>
<g>
</g>
<g>
</g>
<g>
</g>
<g>
</g>
<g>
</g>
<g>
</g>
</svg>
