<?xml version="1.0" encoding="iso-8859-1"?>
<!-- Generator: Adobe Illustrator 19.0.0, SVG Export Plug-In . SVG Version: 6.00 Build 0)  -->
<svg version="1.1" id="Capa_1" xmlns="http://www.w3.org/2000/svg" xmlns:xlink="http://www.w3.org/1999/xlink" x="0px" y="0px"
	 viewBox="0 0 504.123 504.123" style="enable-background:new 0 0 504.123 504.123;" xml:space="preserve">
<rect x="33.083" y="155.963" style="fill:#E1E6E7;" width="437.957" height="292.234"/>
<path style="fill:#183651;" d="M471.04,456.074H33.083c-4.726,0-7.877-3.151-7.877-7.877V155.963c0-4.726,3.151-7.877,7.877-7.877
	H471.04c4.726,0,7.877,3.151,7.877,7.877v292.234C478.917,452.923,474.978,456.074,471.04,456.074z M40.96,440.32h422.203V163.84
	H40.96V440.32z"/>
<rect x="64.591" y="187.471" style="fill:#FFFFFF;" width="374.942" height="229.218"/>
<polygon style="fill:#CFD0D1;" points="496.246,426.929 496.246,459.225 448.197,496.246 55.926,496.246 7.877,459.225 
	7.877,426.929 191.409,426.929 191.409,448.197 312.714,448.197 312.714,426.929 "/>
<path style="fill:#183651;" d="M448.197,504.123H55.926c-1.575,0-3.151-0.788-4.726-1.575L3.151,465.526
	C1.575,463.951,0,461.588,0,459.225v-32.295c0-4.726,3.151-7.877,7.877-7.877h183.532c4.726,0,7.877,3.151,7.877,7.877v13.391
	h105.551v-13.391c0-4.726,3.151-7.877,7.877-7.877h183.532c4.726,0,7.877,3.151,7.877,7.877v32.295c0,2.363-0.788,4.726-3.151,6.302
	l-48.049,37.022C451.348,503.335,449.772,504.123,448.197,504.123z M58.289,488.369h386.757l42.535-33.083v-20.48H320.591v13.391
	c0,4.726-3.151,7.877-7.877,7.877H191.409c-4.726,0-7.877-3.151-7.877-7.877v-13.391H15.754v20.48L58.289,488.369z"/>
<g>
	<circle style="fill:#2CA0DA;" cx="126.818" cy="245.76" r="21.268"/>
	<circle style="fill:#2CA0DA;" cx="295.385" cy="367.065" r="21.268"/>
</g>
<circle style="fill:#F06151;" cx="166.203" cy="348.16" r="51.2"/>
<circle style="fill:#FFFFFF;" cx="184.32" cy="330.043" r="25.994"/>
<path style="fill:#FBBD5E;" d="M243.397,7.877c-38.597,0-70.105,31.508-70.105,70.105v130.757h40.172v56.714l115.003-56.714h50.412
	c38.597,0,70.105-31.508,70.105-70.105V7.877H243.397z"/>
<path style="fill:#183651;" d="M209.526,272.542c-2.363-1.575-3.938-3.938-3.938-6.302v-49.625h-32.295
	c-4.726,0-7.877-3.151-7.877-7.877V77.982C165.415,34.658,200.862,0,243.397,0h205.588c4.726,0,7.877,3.151,7.877,7.877v130.757
	c0,43.323-35.446,77.982-77.982,77.982h-48.837l-113.428,55.926C214.252,274.117,211.889,274.117,209.526,272.542z M181.169,200.862
	h32.295c4.726,0,7.877,3.151,7.877,7.877v44.111l103.188-51.2c0.788-0.788,2.363-0.788,3.151-0.788h50.412
	c34.658,0,62.228-28.357,62.228-62.228V15.754H243.397c-34.658,0-62.228,28.357-62.228,62.228V200.862z"/>
<path style="fill:#FFFFFF;" d="M244.972,177.231H204.8V77.982c0-21.268,17.329-38.597,38.597-38.597h174.08v99.249
	c0,21.268-17.329,38.597-38.597,38.597h-57.502l-76.406,37.809L244.972,177.231L244.972,177.231z"/>
<g>
	<circle style="fill:#E1E6E7;" cx="256" cy="107.914" r="16.542"/>
	<circle style="fill:#E1E6E7;" cx="311.138" cy="107.914" r="16.542"/>
	<circle style="fill:#E1E6E7;" cx="366.277" cy="107.914" r="16.542"/>
</g>
<g>
	<rect x="316.652" y="286.72" style="fill:#183651;" width="15.754" height="15.754"/>
	<rect x="358.4" y="286.72" style="fill:#183651;" width="15.754" height="15.754"/>
	<rect x="400.148" y="286.72" style="fill:#183651;" width="15.754" height="15.754"/>
</g>
<g>
</g>
<g>
</g>
<g>
</g>
<g>
</g>
<g>
</g>
<g>
</g>
<g>
</g>
<g>
</g>
<g>
</g>
<g>
</g>
<g>
</g>
<g>
</g>
<g>
</g>
<g>
</g>
<g>
</g>
</svg>
