<?xml version="1.0" encoding="iso-8859-1"?>
<!-- Generator: Adobe Illustrator 19.0.0, SVG Export Plug-In . SVG Version: 6.00 Build 0)  -->
<svg version="1.1" id="Capa_1" xmlns="http://www.w3.org/2000/svg" xmlns:xlink="http://www.w3.org/1999/xlink" x="0px" y="0px"
	 viewBox="0 0 504.28 504.28" style="enable-background:new 0 0 504.28 504.28;" xml:space="preserve">
<circle style="fill:#E1E6E7;" cx="328.625" cy="328.546" r="175.655"/>
<circle style="fill:#FFFFFF;" cx="328.625" cy="328.546" r="144.148"/>
<path style="fill:#183651;" d="M328.625,480.571c-83.495,0-152.025-68.529-152.025-152.025s68.529-152.025,152.025-152.025
	s152.025,68.529,152.025,152.025S412.12,480.571,328.625,480.571z M328.625,192.275c-74.831,0-136.271,61.44-136.271,136.271
	s61.44,136.271,136.271,136.271s136.271-61.44,136.271-136.271C464.895,252.928,403.455,192.275,328.625,192.275z"/>
<path style="fill:#2CA0DA;" d="M214.409,328.546c0,63.015,51.2,114.215,114.215,114.215c31.508,0,59.865-12.603,80.345-33.083
	l-80.345-81.132H214.409z"/>
<path style="fill:#E1E6E7;" d="M328.625,214.331c-63.015,0-114.215,51.2-114.215,114.215h114.215V214.331z"/>
<path style="fill:#FBBD5E;" d="M408.969,408.891c20.48-20.48,33.083-48.837,33.083-80.345H327.837L408.969,408.891z"/>
<path style="fill:#F06151;" d="M328.625,214.331v114.215H442.84C442.84,265.531,391.64,214.331,328.625,214.331z"/>
<path style="fill:#FBBD5E;" d="M154.545,306.491l-37.809-25.994L15.911,402.589c-13.391,16.542-9.452,40.96,7.877,52.775
	c17.329,11.815,40.96,7.089,51.988-11.028L154.545,306.491z"/>
<path style="fill:#183651;" d="M44.268,469.543L44.268,469.543c-8.665,0-17.329-2.363-25.206-7.877
	C-2.206,446.7-6.145,417.555,9.609,397.863l100.825-122.092c2.363-3.151,7.089-3.938,10.24-1.575l37.809,25.994
	c3.151,2.363,4.726,7.089,2.363,10.24L82.865,448.275C74.988,461.666,60.022,469.543,44.268,469.543z M118.311,291.525
	L22.212,408.103c-10.24,12.603-7.877,31.508,6.302,40.96c13.391,9.452,32.295,5.514,40.96-8.665l75.618-130.757L118.311,291.525z"/>
<rect x="135.077" y="246.055" transform="matrix(-0.8227 -0.5685 0.5685 -0.8227 120.9782 581.8311)" style="fill:#FFFFFF;" width="32.296" height="51.988"/>
<path style="fill:#183651;" d="M149.031,310.429c-1.575,0-3.151-0.788-4.726-1.575l-26.782-18.117
	c-3.938-2.363-4.726-7.089-2.363-11.028l29.932-43.323c2.363-3.938,7.089-4.726,11.028-2.363l26.782,18.117
	c1.575,1.575,3.151,3.151,3.151,4.726c0,2.363,0,3.938-1.575,5.514l-29.932,43.323c-1.575,1.575-3.151,3.151-4.726,3.151
	C149.818,310.429,149.818,310.429,149.031,310.429z M133.277,282.86l13.391,9.452l20.48-29.932l-13.391-9.452L133.277,282.86z"/>
<circle style="fill:#FFFFFF;" cx="238.828" cy="145.014" r="137.058"/>
<path style="fill:#183651;" d="M238.828,289.949c-79.557,0-144.935-65.378-144.935-144.935S159.271,0.078,238.828,0.078
	s144.935,65.378,144.935,144.935C383.763,225.358,318.385,289.949,238.828,289.949z M238.828,15.832
	c-70.892,0-129.182,58.289-129.182,129.182s58.289,129.182,129.182,129.182s129.182-57.502,129.182-129.182
	S309.72,15.832,238.828,15.832z"/>
<path style="fill:#2CA0DA;" d="M238.828,250.565c-58.289,0-105.551-47.262-105.551-105.551S180.538,39.463,238.828,39.463
	s105.551,47.262,105.551,105.551S297.117,250.565,238.828,250.565z"/>
<path style="fill:#FFFFFF;" d="M305.782,146.589c-4.726,0-7.877-3.151-7.877-7.877c0-29.145-23.631-52.775-52.775-52.775
	c-4.726,0-7.877-3.151-7.877-7.877c0-4.726,3.151-7.877,7.877-7.877c37.809,0,68.529,30.72,68.529,68.529
	C313.658,142.651,310.508,146.589,305.782,146.589z"/>
<g>
	<rect x="16.698" y="263.955" style="fill:#183651;" width="15.754" height="15.754"/>
	<rect x="16.698" y="216.694" style="fill:#183651;" width="15.754" height="15.754"/>
	<rect x="16.698" y="169.432" style="fill:#183651;" width="15.754" height="15.754"/>
	<rect x="16.698" y="122.171" style="fill:#183651;" width="15.754" height="15.754"/>
	<rect x="16.698" y="74.909" style="fill:#183651;" width="15.754" height="15.754"/>
	<rect x="16.698" y="27.648" style="fill:#183651;" width="15.754" height="15.754"/>
</g>
<g>
</g>
<g>
</g>
<g>
</g>
<g>
</g>
<g>
</g>
<g>
</g>
<g>
</g>
<g>
</g>
<g>
</g>
<g>
</g>
<g>
</g>
<g>
</g>
<g>
</g>
<g>
</g>
<g>
</g>
</svg>
