<?xml version="1.0" encoding="iso-8859-1"?>
<!-- Generator: Adobe Illustrator 19.0.0, SVG Export Plug-In . SVG Version: 6.00 Build 0)  -->
<svg version="1.1" id="Capa_1" xmlns="http://www.w3.org/2000/svg" xmlns:xlink="http://www.w3.org/1999/xlink" x="0px" y="0px"
	 viewBox="0 0 503.631 503.631" style="enable-background:new 0 0 503.631 503.631;" xml:space="preserve">
<path style="fill:#F06151;" d="M372.726,291.742c66.954-66.954,66.954-175.655,0-241.822s-175.655-66.954-241.822,0
	s-66.954,175.655,0,241.822S305.773,358.696,372.726,291.742z"/>
<path style="fill:#E1E6E7;" d="M358.548,219.274L483.003,343.73c16.542,16.542,16.542,42.535,0,59.077
	c-16.542,16.542-42.535,16.542-59.077,0L300.259,278.351L358.548,219.274z"/>
<path style="fill:#183651;" d="M418.413,408.32L294.745,283.865c-3.151-3.151-3.151-7.877,0-11.028l59.077-59.077
	c3.151-3.151,7.877-3.151,11.028,0l124.455,124.455c18.905,18.905,18.905,50.412,0,70.105
	C469.613,427.225,438.105,427.225,418.413,408.32z M311.286,278.351l118.942,118.942c13.391,13.391,34.658,13.391,47.262,0
	c13.391-13.391,13.391-34.658,0-47.262L358.548,230.302L311.286,278.351z"/>
<path style="fill:#FFFFFF;" d="M152.173,71.188L152.173,71.188c55.138-55.138,144.148-55.138,199.286,0l0,0
	c55.138,55.138,55.138,144.148,0,199.286l0,0c-55.138,55.138-144.148,55.138-199.286,0l0,0
	C97.034,215.336,97.034,126.327,152.173,71.188z"/>
<path style="fill:#183651;" d="M146.659,275.988c-58.289-58.289-58.289-152.025,0-210.314s152.025-58.289,210.314,0
	s58.289,152.025,0,210.314C298.683,333.49,204.16,333.49,146.659,275.988z M157.686,76.702c-51.988,51.988-51.988,136.271,0,187.471
	c51.988,51.988,135.483,51.988,187.471,0s51.988-136.271,0-187.471C293.169,24.714,209.674,24.714,157.686,76.702z"/>
<path style="fill:#2CA0DA;" d="M330.191,249.207c43.323-43.323,43.323-113.428,0-156.751s-113.428-43.323-156.751,0
	s-43.323,113.428,0,156.751S286.868,292.53,330.191,249.207z"/>
<path style="fill:#FFFFFF;" d="M204.16,214.548c3.151-3.151,3.151-7.877,0-10.24c-18.117-18.117-18.117-48.837,0-66.954
	c3.151-3.151,3.151-7.877,0-10.24c-3.151-2.363-7.877-3.151-10.24,0c-24.418,24.418-24.418,63.803,0,88.222
	C196.283,217.699,201.009,217.699,204.16,214.548z"/>
<g>
	
		<rect x="373.585" y="294.931" transform="matrix(-0.7071 -0.7071 0.7071 -0.7071 437.0789 786.659)" style="fill:#183651;" width="15.754" height="15.754"/>
	
		<rect x="404.793" y="326.586" transform="matrix(-0.7071 -0.7071 0.7071 -0.7071 467.971 862.7665)" style="fill:#183651;" width="15.754" height="15.754"/>
	
		<rect x="436.002" y="357.105" transform="matrix(-0.7071 -0.7071 0.7071 -0.7071 499.6674 936.9319)" style="fill:#183651;" width="15.754" height="15.754"/>
</g>
<rect x="25.354" y="297.256" style="fill:#2CA0DA;" width="38.597" height="198.498"/>
<path style="fill:#183651;" d="M63.951,503.631H25.354c-4.726,0-7.877-3.151-7.877-7.877V297.256c0-4.726,3.151-7.877,7.877-7.877
	h38.597c4.726,0,7.877,3.151,7.877,7.877v198.498C71.828,500.48,67.889,503.631,63.951,503.631z M33.231,487.877h22.843V305.133
	H33.231V487.877z"/>
<rect x="100.973" y="342.154" style="fill:#FFFFFF;" width="38.597" height="153.6"/>
<path style="fill:#183651;" d="M139.569,503.631h-38.597c-4.726,0-7.877-3.151-7.877-7.877v-153.6c0-4.726,3.151-7.877,7.877-7.877
	h38.597c4.726,0,7.877,3.151,7.877,7.877v153.6C147.446,500.48,144.296,503.631,139.569,503.631z M108.849,487.877h22.843V350.031
	h-22.843V487.877z"/>
<rect x="176.591" y="377.6" style="fill:#FBBD5E;" width="38.597" height="118.154"/>
<path style="fill:#183651;" d="M215.188,503.631h-38.597c-4.726,0-7.877-3.151-7.877-7.877V377.6c0-4.726,3.151-7.877,7.877-7.877
	h38.597c4.726,0,7.877,3.151,7.877,7.877v118.154C223.065,500.48,219.914,503.631,215.188,503.631z M184.468,487.877h22.843v-102.4
	h-22.843V487.877z"/>
<rect x="252.997" y="405.957" style="fill:#E1E6E7;" width="38.597" height="89.797"/>
<path style="fill:#183651;" d="M290.806,503.631h-38.597c-4.726,0-7.877-3.151-7.877-7.877v-89.797c0-4.726,3.151-7.877,7.877-7.877
	h38.597c4.726,0,7.877,3.151,7.877,7.877v89.797C298.683,500.48,295.533,503.631,290.806,503.631z M260.874,487.877h22.843v-74.043
	h-22.843V487.877z"/>
<path style="fill:#183651;" d="M308.923,503.631H8.025c-4.726,0-7.877-3.151-7.877-7.877s3.151-7.877,7.877-7.877h300.898
	c4.726,0,7.877,3.151,7.877,7.877S312.862,503.631,308.923,503.631z"/>
<g>
</g>
<g>
</g>
<g>
</g>
<g>
</g>
<g>
</g>
<g>
</g>
<g>
</g>
<g>
</g>
<g>
</g>
<g>
</g>
<g>
</g>
<g>
</g>
<g>
</g>
<g>
</g>
<g>
</g>
</svg>
