<?xml version="1.0" encoding="iso-8859-1"?>
<!-- Generator: Adobe Illustrator 19.0.0, SVG Export Plug-In . SVG Version: 6.00 Build 0)  -->
<svg version="1.1" id="Capa_1" xmlns="http://www.w3.org/2000/svg" xmlns:xlink="http://www.w3.org/1999/xlink" x="0px" y="0px"
	 viewBox="0 0 504.123 504.123" style="enable-background:new 0 0 504.123 504.123;" xml:space="preserve">
<circle style="fill:#F06151;" cx="248.123" cy="252.455" r="248.123"/>
<rect x="220.554" y="331.225" style="fill:#FFFFFF;" width="44.898" height="161.477"/>
<path style="fill:#183651;" d="M264.665,500.578h-44.898c-3.938,0-7.877-3.151-7.877-7.877V331.225c0-3.938,3.151-7.877,7.877-7.877
	h44.898c3.938,0,7.877,3.151,7.877,7.877v161.477C272.542,497.428,269.391,500.578,264.665,500.578z M227.643,484.825h29.145
	V339.102h-29.145L227.643,484.825L227.643,484.825z"/>
<path style="fill:#FFFFFF;" d="M7.877,331.225h129.969V76.8c0-35.446-29.145-64.591-65.378-64.591l0,0
	c-36.234,0-64.591,29.145-64.591,64.591V331.225z"/>
<path style="fill:#183651;" d="M137.846,339.102H7.877c-3.938,0-7.877-3.151-7.877-7.877V76.8C0,36.628,32.295,4.332,72.468,4.332
	s72.468,32.295,72.468,72.468v254.425C145.723,335.951,141.785,339.102,137.846,339.102z M15.754,324.135h114.215V76.8
	c0-31.508-25.994-57.502-57.502-57.502S14.966,45.292,14.966,76.8v247.335H15.754z"/>
<path style="fill:#E0E4E8;" d="M38.597,300.505V76.8c0-18.905,14.966-33.871,33.871-33.871s33.871,14.966,33.871,33.871v223.705
	H38.597z"/>
<path style="fill:#FFFFFF;" d="M496.246,76.8v254.425h-358.4V76.8c0-35.446-29.145-64.591-65.378-64.591h359.188
	C467.102,12.209,496.246,41.354,496.246,76.8z"/>
<path style="fill:#183651;" d="M496.246,339.102h-358.4c-3.938,0-7.877-3.151-7.877-7.877V76.8
	c0-31.508-25.994-57.502-57.502-57.502c-3.938,0-7.877-3.151-7.877-7.877s3.151-7.877,7.877-7.877h359.188
	c40.172,0,72.468,32.295,72.468,72.468v254.425C504.123,335.951,500.972,339.102,496.246,339.102z M144.935,324.135h343.434V76.8
	c0-31.508-25.994-57.502-57.502-57.502H117.366c17.329,13.391,27.569,33.871,27.569,57.502V324.135z"/>
<path style="fill:#2EA0DA;" d="M168.566,300.505V76.8c0-11.815-2.363-23.631-6.302-33.871h269.391
	c18.905,0,33.871,14.966,33.871,33.871v223.705H168.566z"/>
<path style="fill:#FFFFFF;" d="M434.018,145.329c-3.938,0-7.877-3.151-7.877-7.877v-31.508c0-13.391-11.028-24.418-24.418-24.418
	h-89.009c-3.938,0-7.877-3.151-7.877-7.877c0-3.938,3.151-7.877,7.877-7.877h89.797c22.055,0,40.172,18.117,40.172,40.172v31.508
	C441.895,142.178,438.745,145.329,434.018,145.329z"/>
<g>
	<rect x="52.775" y="98.068" style="fill:#183651;" width="39.385" height="15.754"/>
	<rect x="207.951" y="249.305" style="fill:#183651;" width="15.754" height="15.754"/>
	<rect x="249.698" y="249.305" style="fill:#183651;" width="15.754" height="15.754"/>
	<rect x="291.446" y="249.305" style="fill:#183651;" width="15.754" height="15.754"/>
</g>
<g>
</g>
<g>
</g>
<g>
</g>
<g>
</g>
<g>
</g>
<g>
</g>
<g>
</g>
<g>
</g>
<g>
</g>
<g>
</g>
<g>
</g>
<g>
</g>
<g>
</g>
<g>
</g>
<g>
</g>
</svg>
