<?xml version="1.0" encoding="iso-8859-1"?>
<!-- Generator: Adobe Illustrator 19.0.0, SVG Export Plug-In . SVG Version: 6.00 Build 0)  -->
<svg version="1.1" id="Capa_1" xmlns="http://www.w3.org/2000/svg" xmlns:xlink="http://www.w3.org/1999/xlink" x="0px" y="0px"
	 viewBox="0 0 504.123 504.123" style="enable-background:new 0 0 504.123 504.123;" xml:space="preserve">
<path style="fill:#4FBF9F;" d="M252.062,504.123C113.428,504.123,0,390.695,0,252.062S113.428,0,252.062,0
	s252.062,113.428,252.062,252.062S390.695,504.123,252.062,504.123L252.062,504.123z"/>
<rect x="292.345" y="282.546" transform="matrix(-0.7071 0.7071 -0.7071 -0.7071 754.0301 311.8379)" style="fill:#FFFFFF;" width="40.172" height="59.076"/>
<path style="fill:#183651;" d="M319.015,355.249c-2.363,0-3.938-0.788-5.514-2.363l-42.535-41.748
	c-3.151-3.151-3.151-7.877,0-11.028l28.357-28.357c3.151-3.151,7.877-3.151,11.028,0l41.748,41.748
	c3.151,3.151,3.151,7.877,0,11.028l-28.357,28.357C322.954,354.462,320.591,355.249,319.015,355.249z M288.295,305.625l30.72,30.72
	l17.329-17.329l-30.72-30.72L288.295,305.625z"/>
<path style="fill:#FBBD5E;" d="M357.612,307.988l-48.837,48.837l106.338,122.88c17.329,20.48,48.837,21.268,67.742,2.363l0,0
	c18.905-18.905,18.117-50.412-2.363-67.742L357.612,307.988z"/>
<path style="fill:#183651;" d="M408.812,485.218L302.474,363.126c-2.363-3.151-2.363-7.877,0-11.028l48.837-48.837
	c3.151-3.151,7.877-3.151,11.028,0L485.219,409.6c23.631,20.48,25.206,57.502,2.363,79.557
	C465.526,510.425,429.292,508.849,408.812,485.218z M319.015,357.612l101.612,117.366c14.178,16.542,40.172,18.117,56.714,1.575
	c15.754-15.754,14.966-41.748-1.575-56.714L357.612,319.015L319.015,357.612z"/>
<circle style="fill:#FFFFFF;" cx="192.985" cy="192.985" r="160.689"/>
<path style="fill:#183651;" d="M192.985,361.551L192.985,361.551c-93.735,0-169.354-75.618-169.354-168.566
	S99.249,24.418,192.197,24.418s169.354,75.618,169.354,169.354C361.551,285.932,285.932,361.551,192.985,361.551z M192.985,39.385
	c-40.96,0-79.557,15.754-108.702,44.898s-44.898,67.742-44.898,108.702c0,84.283,68.529,153.6,152.812,153.6v7.877v-7.877
	c84.283,0,152.812-68.529,152.812-152.812C345.797,107.914,277.268,39.385,192.985,39.385z"/>
<path style="fill:#2EA0DA;" d="M192.985,318.228c-69.317,0-126.031-56.714-126.031-126.031S123.668,66.166,192.985,66.166
	s126.031,56.714,126.031,126.031C318.228,262.302,262.302,318.228,192.985,318.228L192.985,318.228z"/>
<path style="fill:#FFFFFF;" d="M277.268,200.862c-4.726,0-7.877-3.151-7.877-7.877c0-41.748-34.658-76.406-76.406-76.406
	c-4.726,0-7.877-3.151-7.877-7.877s3.151-7.877,7.877-7.877c51.2,0,92.16,41.748,92.16,92.16
	C285.145,196.923,281.206,200.862,277.268,200.862z"/>
<g>
	
		<rect x="372.153" y="371.645" transform="matrix(-0.7071 -0.7071 0.7071 -0.7071 380.389 916.6069)" style="fill:#183651;" width="15.754" height="15.754"/>
	
		<rect x="404.862" y="404.901" transform="matrix(-0.7069 -0.7074 0.7074 -0.7069 412.5055 996.5071)" style="fill:#183651;" width="15.755" height="15.755"/>
	
		<rect x="437.563" y="438.105" transform="matrix(-0.7071 -0.7071 0.7071 -0.7071 445.0567 1076.3126)" style="fill:#183651;" width="15.754" height="15.754"/>
</g>
<g>
</g>
<g>
</g>
<g>
</g>
<g>
</g>
<g>
</g>
<g>
</g>
<g>
</g>
<g>
</g>
<g>
</g>
<g>
</g>
<g>
</g>
<g>
</g>
<g>
</g>
<g>
</g>
<g>
</g>
</svg>
