<svg xmlns="http://www.w3.org/2000/svg" xmlns:xlink="http://www.w3.org/1999/xlink" width="256" height="256" viewBox="0 0 2000 2000">
  <defs>
    <style>
      .cls-1 {
        fill: #275362;
        fill-rule: evenodd;
        filter: url(#filter);
      }
    </style>
    <filter id="filter" x="185" y="26" width="1630" height="1948" filterUnits="userSpaceOnUse">
      <feFlood result="flood" flood-color="#275362"/>
      <feComposite result="composite" operator="in" in2="SourceGraphic"/>
      <feBlend result="blend" in2="SourceGraphic"/>
    </filter>
  </defs>
  <path id="Rounded_Rectangle_2_copy_3" data-name="Rounded Rectangle 2 copy 3" class="cls-1" d="M285,261.261H1715a100,100,0,0,1,100,100V1874a100,100,0,0,1-100,100H285a100,100,0,0,1-100-100V361.261A100,100,0,0,1,285,261.261ZM1393.56,26h173.43a35,35,0,0,1,35,35V261.261H1358.56V61A35,35,0,0,1,1393.56,26ZM433.006,26H606.441a35,35,0,0,1,35,35V261.261H398.006V61A35,35,0,0,1,433.006,26ZM185,573.59H1815V707.445H185V573.59ZM428.948,938.65H647.013a35,35,0,0,1,35,35v217.99a35,35,0,0,1-35,35H428.948a35,35,0,0,1-35-35V973.65A35,35,0,0,1,428.948,938.65Zm466.584,0H1113.6a35,35,0,0,1,35,35v217.99a35,35,0,0,1-35,35H895.532a35,35,0,0,1-35-35V973.65A35,35,0,0,1,895.532,938.65Zm457.458,0h218.06a35,35,0,0,1,35,35v217.99a35,35,0,0,1-35,35H1352.99a35,35,0,0,1-35-35V973.65A35,35,0,0,1,1352.99,938.65ZM428.948,1444.66H647.013a35,35,0,0,1,35,35v217.99a35,35,0,0,1-35,35H428.948a35,35,0,0,1-35-35V1479.66A35,35,0,0,1,428.948,1444.66Zm466.584,0H1113.6a35,35,0,0,1,35,35v217.99a35,35,0,0,1-35,35H895.532a35,35,0,0,1-35-35V1479.66A35,35,0,0,1,895.532,1444.66Zm457.458,0h218.06a35,35,0,0,1,35,35v217.99a35,35,0,0,1-35,35H1352.99a35,35,0,0,1-35-35V1479.66A35,35,0,0,1,1352.99,1444.66Z"/>
</svg>
