<svg xmlns="http://www.w3.org/2000/svg" width="256" height="256" viewBox="0 0 2000 2000">
  <defs>
    <style>
      .cls-1 {
        fill: #fff;
        fill-rule: evenodd;
      }
    </style>
  </defs>
  <path id="Forma_1" data-name="Forma 1" class="cls-1" d="M1664.95,25H335.045A88.673,88.673,0,0,0,246.4,113.706V1887.29A88.7,88.7,0,0,0,335.045,1976H1664.95a88.676,88.676,0,0,0,88.65-88.71V113.706A88.678,88.678,0,0,0,1664.95,25Zm-88.68,177.33V468.365H423.731V202.329H1576.27ZM423.731,1798.63V645.737H1576.27V1798.59H423.731v0.04ZM740.749,724.19H556.7a44.319,44.319,0,0,0-44.322,44.332V952.743A44.344,44.344,0,0,0,556.7,997.075H740.749a44.345,44.345,0,0,0,44.322-44.332V768.522A44.238,44.238,0,0,0,740.749,724.19Zm351.261,0H907.994a44.319,44.319,0,0,0-44.322,44.332V952.743a44.318,44.318,0,0,0,44.322,44.332H1092.01a44.347,44.347,0,0,0,44.32-44.332V768.522A44.293,44.293,0,0,0,1092.01,724.19Zm351.29,0H1259.25a44.32,44.32,0,0,0-44.32,44.332V952.743a44.32,44.32,0,0,0,44.32,44.332H1443.3a44.34,44.34,0,0,0,44.32-44.332V768.522A44.313,44.313,0,0,0,1443.3,724.19ZM740.749,1085.74H556.7a44.317,44.317,0,0,0-44.322,44.33v184.22a44.32,44.32,0,0,0,44.322,44.34H740.749a44.326,44.326,0,0,0,44.322-44.34V1130.07A44.238,44.238,0,0,0,740.749,1085.74Zm351.261,0H907.994a44.317,44.317,0,0,0-44.322,44.33v184.22a44.294,44.294,0,0,0,44.322,44.34H1092.01a44.327,44.327,0,0,0,44.32-44.34V1130.07A44.293,44.293,0,0,0,1092.01,1085.74ZM740.749,1447.33H556.7a44.309,44.309,0,0,0-44.322,44.29v184.22a44.32,44.32,0,0,0,44.322,44.34H740.749a44.326,44.326,0,0,0,44.322-44.34V1491.62A44.229,44.229,0,0,0,740.749,1447.33Zm351.261,0H907.994a44.309,44.309,0,0,0-44.322,44.29v184.22a44.294,44.294,0,0,0,44.322,44.34H1092.01a44.327,44.327,0,0,0,44.32-44.34V1491.62A44.285,44.285,0,0,0,1092.01,1447.33Zm351.29-361.59H1259.25a44.319,44.319,0,0,0-44.32,44.33v545.77a44.3,44.3,0,0,0,44.32,44.34H1443.3a44.321,44.321,0,0,0,44.32-44.34V1130.07A44.312,44.312,0,0,0,1443.3,1085.74Z"/>
</svg>
