<?xml version="1.0" encoding="iso-8859-1"?>
<!-- Generator: Adobe Illustrator 19.0.0, SVG Export Plug-In . SVG Version: 6.00 Build 0)  -->
<svg version="1.1" id="Capa_1" xmlns="http://www.w3.org/2000/svg" xmlns:xlink="http://www.w3.org/1999/xlink" x="0px" y="0px"
	 viewBox="0 0 504.911 504.911" style="enable-background:new 0 0 504.911 504.911;" xml:space="preserve">
<circle style="fill:#F06151;" cx="252.062" cy="252.652" r="252.062"/>
<path style="fill:#2EA0DA;" d="M378.092,114.018c0-44.898-23.631-83.495-58.289-105.551v103.188l-67.742,48.837l-67.742-48.837
	V8.468c-34.658,22.055-58.289,61.44-58.289,105.551c0,51.988,31.508,96.886,77.194,115.791L188.258,427.52
	c-3.151,37.022,26.782,68.529,63.803,68.529s66.166-31.508,63.803-68.529l-14.966-197.711
	C345.797,210.905,378.092,166.794,378.092,114.018z"/>
<path style="fill:#183651;" d="M252.062,504.714c-41.748,0-74.831-35.446-71.68-77.194l14.178-192.197
	c-46.474-22.055-76.406-68.529-76.406-120.517c0-45.686,22.843-87.434,61.44-112.64c2.363-1.575,5.514-1.575,7.877,0
	s3.938,3.938,3.938,7.089v99.249l59.865,43.323l59.865-43.323V8.468c0-3.151,1.575-5.514,3.938-7.089s5.514-1.575,7.877,0
	c38.597,24.418,62.228,66.954,62.228,112.64c0,51.988-29.932,98.462-76.406,120.517l14.178,192.197
	C326.892,469.268,293.809,504.714,252.062,504.714z M176.443,24.222c-26.782,22.055-42.535,55.138-42.535,90.585
	c0,47.262,28.357,90.585,72.468,108.702c3.151,1.575,4.726,4.726,4.726,7.877l-14.966,197.711
	c-2.363,32.295,22.843,59.865,55.926,59.865c32.295,0,58.289-27.569,55.926-59.865l-14.966-197.711c0-3.151,1.575-6.302,4.726-7.877
	c44.111-18.117,72.468-61.44,72.468-108.702c0-35.446-15.754-68.529-42.535-90.585v87.434c0,2.363-1.575,4.726-3.151,6.302
	l-67.742,48.837c-3.151,2.363-6.302,2.363-9.452,0l-67.742-48.837c-2.363-1.575-3.151-3.938-3.151-6.302L176.443,24.222
	L176.443,24.222z"/>
<path style="fill:#FFFFFF;" d="M300.898,230.597c44.898-18.905,77.194-63.803,77.194-115.791c0-44.898-23.631-83.495-58.289-105.551
	v103.188l-67.742,48.837l-67.742-48.837V8.468c-34.658,22.055-58.289,61.44-58.289,105.551c0,51.988,31.508,96.886,77.194,115.791"
	/>
<path style="fill:#183651;" d="M300.898,238.474c-3.151,0-6.302-1.575-7.089-4.726c-1.575-3.938,0-8.665,3.938-10.24
	c44.111-18.117,72.468-61.44,72.468-108.702c0-35.446-15.754-68.529-42.535-90.585v87.434c0,2.363-1.575,4.726-3.151,6.302
	l-67.742,48.837c-3.151,2.363-6.302,2.363-9.452,0l-67.742-48.837c-2.363-1.575-3.151-3.938-3.151-6.302V24.222
	c-26.782,22.055-42.535,55.138-42.535,90.585c0,47.262,28.357,90.585,72.468,108.702c3.938,1.575,5.514,6.302,3.938,10.24
	s-6.302,6.302-10.24,3.938c-49.625-21.268-81.92-69.317-81.92-122.88c0-45.686,22.843-87.434,61.44-112.64
	c2.363-1.575,5.514-1.575,7.877,0s3.938,3.938,3.938,7.089v99.249l59.865,43.323l59.865-43.323V8.468
	c0-3.151,1.575-5.514,3.938-7.089s5.514-1.575,7.877,0c38.597,24.418,62.228,66.954,62.228,112.64
	c0,53.563-32.295,102.4-81.92,122.88C302.474,237.686,301.686,238.474,300.898,238.474z"/>
<polygon style="fill:#CECFD0;" points="252.062,114.806 211.102,93.538 211.102,40.763 252.062,62.031 "/>
<polygon style="fill:#E0E4E8;" points="252.062,114.806 293.022,93.538 293.022,40.763 252.062,62.031 "/>
<g>
	<polygon style="fill:#FFFFFF;" points="293.022,40.763 252.062,62.031 211.102,40.763 252.062,17.92 	"/>
	<circle style="fill:#FFFFFF;" cx="252.062" cy="427.52" r="20.48"/>
</g>
<path style="fill:#183651;" d="M252.062,455.089c-15.754,0-28.357-12.603-28.357-28.357s12.603-28.357,28.357-28.357
	s28.357,12.603,28.357,28.357S267.815,455.089,252.062,455.089z M252.062,414.917c-7.089,0-12.603,5.514-12.603,12.603
	c0,7.089,5.514,12.603,12.603,12.603c7.089,0,12.603-5.514,12.603-12.603C264.665,420.431,259.151,414.917,252.062,414.917z"/>
<path style="fill:#FFFFFF;" d="M166.203,310.942v-25.206l-18.905-2.363c-1.575-6.302-3.938-11.815-7.089-17.329l11.815-14.966
	l-18.117-18.117l-14.966,11.815c-5.514-3.151-11.028-5.514-17.329-7.089l-2.363-18.905H74.043l-2.363,18.905
	c-6.302,1.575-11.815,3.938-17.329,7.089L39.385,232.96l-18.117,18.117l11.815,14.966c-3.151,5.514-5.514,11.028-7.089,17.329
	l-18.905,2.363v25.206l18.905,2.363c1.575,6.302,3.938,11.815,7.089,17.329L21.268,345.6l18.117,18.117l14.966-11.815
	c5.514,3.151,11.028,5.514,17.329,7.089l2.363,18.905h25.206l2.363-18.905c6.302-1.575,11.815-3.938,17.329-7.089l14.966,11.815
	l18.117-18.117l-11.815-14.966c3.151-5.514,5.514-11.028,7.089-17.329L166.203,310.942z"/>
<path style="fill:#183651;" d="M100.037,384.985H74.043c-3.938,0-7.089-3.151-7.877-7.089l-1.575-13.391
	c-3.151-0.788-6.302-2.363-9.452-3.938l-11.028,8.665c-3.151,2.363-7.877,2.363-10.24-0.788l-17.329-17.329
	c-3.151-3.151-3.151-7.089-0.788-10.24l8.665-11.028c-1.575-3.151-2.363-6.302-3.938-9.452l-13.391-1.575
	C3.151,318.031,0,314.88,0,310.942v-25.206c0-3.938,3.151-7.089,7.089-7.877l13.391-1.575c0.788-3.151,2.363-6.302,3.938-9.452
	l-8.665-10.24c-2.363-3.151-2.363-7.877,0.788-10.24l18.117-18.117c2.363-3.151,7.089-3.151,10.24-0.788l11.028,8.665
	c3.151-1.575,6.302-2.363,9.452-3.938l1.575-13.391c0.788-3.938,3.938-7.089,7.877-7.089h25.206c3.938,0,7.089,3.151,7.877,7.089
	l1.575,13.391c3.151,0.788,6.302,2.363,9.452,3.938l11.028-8.665c3.151-2.363,7.877-2.363,10.24,0.788l18.117,18.117
	c3.151,3.151,3.151,7.089,0.788,10.24l-8.665,11.028c1.575,3.151,2.363,6.302,3.938,9.452l13.391,1.575
	c3.938,0.788,7.089,3.938,7.089,7.877v25.206c0,3.938-3.151,7.089-7.089,7.877l-14.178,0.788c-0.788,3.151-2.363,6.302-3.938,9.452
	l8.665,11.028c2.363,3.151,2.363,7.877-0.788,10.24l-18.117,18.117c-3.151,3.151-7.089,3.151-10.24,0.788l-11.028-8.665
	c-3.151,1.575-6.302,2.363-9.452,3.938l-1.575,13.391C107.126,382.622,103.975,384.985,100.037,384.985z M81.132,369.231h11.815
	l1.575-11.815c0.788-3.151,2.363-6.302,6.302-7.089c5.514-1.575,10.24-3.151,14.966-6.302c3.151-1.575,6.302-1.575,8.665,0.788
	l9.452,7.089l7.877-7.877l-7.877-8.665c-2.363-2.363-2.363-6.302-0.788-8.665c3.151-4.726,4.726-9.452,6.302-14.966
	c0.788-3.151,3.151-5.514,7.089-6.302l11.815-1.575v-11.815l-11.815-1.575c-3.151,0-6.302-2.363-7.089-6.302
	c-1.575-5.514-3.151-10.24-6.302-14.966c-1.575-3.151-1.575-6.302,0.788-8.665l7.089-9.452l-7.877-7.877l-9.452,7.089
	c-2.363,2.363-6.302,2.363-8.665,0.788c-4.726-3.151-9.452-4.726-14.966-6.302c-3.151-0.788-5.514-3.151-6.302-7.089l-1.575-11.815
	H80.345l-1.575,11.815c-0.788,3.151-2.363,6.302-6.302,7.089c-3.938,2.363-8.665,3.938-13.391,7.089
	c-3.151,1.575-6.302,1.575-8.665-0.788l-9.452-7.089l-7.877,7.877l7.089,9.452c2.363,2.363,2.363,6.302,0.788,8.665
	c-3.151,4.726-5.514,10.24-6.302,14.966c-0.788,3.151-3.938,5.514-7.089,6.302l-11.815,1.575v11.028l11.815,1.575
	c3.151,0.788,6.302,2.363,7.089,6.302c1.575,5.514,3.151,10.24,6.302,14.966c1.575,3.151,1.575,6.302-0.788,8.665l-7.089,9.452
	l7.877,7.877l9.452-7.089c2.363-2.363,5.514-2.363,8.665-0.788c4.726,3.151,9.452,4.726,14.966,6.302
	c3.151,0.788,5.514,3.151,6.302,7.089L81.132,369.231z"/>
<circle style="fill:#4FBF9F;" cx="86.646" cy="298.338" r="40.96"/>
<circle style="fill:#FFFFFF;" cx="86.646" cy="298.338" r="15.754"/>
<path style="fill:#183651;" d="M86.646,321.969c-13.391,0-23.631-11.028-23.631-23.631c0-12.603,11.028-23.631,23.631-23.631
	s23.631,11.028,23.631,23.631C110.277,310.942,100.037,321.969,86.646,321.969z M86.646,290.462c-4.726,0-7.877,3.938-7.877,7.877
	c0,3.938,3.938,7.877,7.877,7.877s7.877-3.938,7.877-7.877C94.523,294.4,91.372,290.462,86.646,290.462z"/>
<path style="fill:#FFFFFF;" d="M496.246,310.942v-25.206l-18.905-2.363c-1.575-6.302-3.938-11.815-7.089-17.329l11.815-14.966
	l-18.117-18.117l-14.966,11.815c-5.514-3.151-11.028-5.514-17.329-7.089l-2.363-18.905h-25.206l-2.363,18.905
	c-6.302,1.575-11.815,3.938-17.329,7.089l-14.966-11.815l-18.117,18.117l11.815,14.966c-3.151,5.514-5.514,11.028-7.089,17.329
	l-18.905,2.363v25.206l18.905,2.363c1.575,6.302,3.938,11.815,7.089,17.329L351.311,345.6l18.117,18.117l14.966-11.815
	c5.514,3.151,11.028,5.514,17.329,7.089l2.363,18.905h25.206l2.363-18.905c6.302-1.575,11.815-3.938,17.329-7.089l14.966,11.815
	l18.117-18.117l-11.815-14.966c3.151-5.514,5.514-11.028,7.089-17.329L496.246,310.942z"/>
<path style="fill:#183651;" d="M430.08,384.985h-25.206c-3.938,0-7.089-3.151-7.877-7.089l-1.575-13.391
	c-3.151-0.788-6.302-2.363-9.452-3.938l-11.028,8.665c-3.151,2.363-7.877,2.363-10.24-0.788l-18.117-17.329
	c-3.151-3.151-3.151-7.089-0.788-10.24l8.665-11.028c-1.575-3.151-2.363-6.302-3.938-9.452l-13.391-1.575
	c-3.938-0.788-7.089-3.938-7.089-7.877v-25.206c0-3.938,3.151-7.089,7.089-7.877l13.391-1.575c0.788-3.151,2.363-6.302,3.938-9.452
	l-8.665-10.24c-2.363-3.151-2.363-7.877,0.788-10.24l18.117-18.117c3.151-3.151,7.089-3.151,10.24-0.788l11.028,8.665
	c3.151-1.575,6.302-2.363,9.452-3.938l1.575-13.391c0.788-3.938,3.938-7.089,7.877-7.089h25.206c3.938,0,7.089,3.151,7.877,7.089
	l1.575,13.391c3.151,0.788,6.302,2.363,9.452,3.938l11.028-8.665c3.151-2.363,7.877-2.363,10.24,0.788l18.117,18.117
	c3.151,3.151,3.151,7.089,0.788,10.24l-8.665,11.028c1.575,3.151,2.363,6.302,3.938,9.452l13.391,1.575
	c3.938,0.788,7.089,3.938,7.089,7.877v25.206c0,3.938-3.151,7.089-7.089,7.877l-13.391,1.575c-0.788,3.151-2.363,6.302-3.938,9.452
	l8.665,11.028c2.363,3.151,2.363,7.877-0.788,10.24l-18.117,18.117c-3.151,3.151-7.089,3.151-10.24,0.788l-11.028-8.665
	c-3.151,1.575-6.302,2.363-9.452,3.938l-1.575,13.391C437.169,382.622,434.018,384.985,430.08,384.985z M411.175,369.231h11.815
	l1.575-11.815c0.788-3.151,2.363-6.302,6.302-7.089c5.514-1.575,10.24-3.151,14.966-6.302c3.151-1.575,6.302-1.575,8.665,0.788
	l9.452,7.089l7.877-7.877l-7.877-8.665c-2.363-2.363-2.363-6.302-0.788-8.665c3.151-4.726,4.726-9.452,6.302-14.966
	c0.788-3.151,3.151-5.514,7.089-6.302l11.815-1.575v-11.815l-11.815-0.788c-3.151,0-6.302-2.363-7.089-6.302
	c-1.575-5.514-3.151-10.24-6.302-14.966c-1.575-3.151-1.575-6.302,0.788-8.665l7.089-9.452l-7.877-7.877l-9.452,7.089
	c-2.363,2.363-6.302,2.363-8.665,0.788c-4.726-3.151-9.452-4.726-14.966-6.302c-3.151-0.788-5.514-3.151-6.302-7.089l-1.575-11.815
	h-11.815l-1.575,11.815c0,3.151-2.363,6.302-6.302,7.089c-5.514,1.575-10.24,3.151-14.966,6.302
	c-3.151,1.575-6.302,1.575-8.665-0.788l-9.452-7.089l-7.877,7.877l7.089,9.452c2.363,2.363,2.363,6.302,0.788,8.665
	c-3.151,4.726-4.726,9.452-6.302,14.966c-0.788,3.151-3.151,5.514-7.089,6.302l-11.815,1.575v11.028l11.815,1.575
	c3.151,0.788,6.302,2.363,7.089,6.302c1.575,5.514,3.151,10.24,6.302,14.966c1.575,3.151,1.575,6.302-0.788,8.665l-7.089,9.452
	l7.877,7.877l9.452-7.089c2.363-2.363,6.302-2.363,8.665-0.788c4.726,3.151,9.452,4.726,14.966,6.302
	c3.151,0.788,5.514,3.151,6.302,7.089L411.175,369.231z"/>
<circle style="fill:#4FBF9F;" cx="417.477" cy="298.338" r="40.96"/>
<circle style="fill:#FFFFFF;" cx="417.477" cy="298.338" r="15.754"/>
<g>
	<path style="fill:#183651;" d="M417.477,321.969c-13.391,0-23.631-11.028-23.631-23.631c0-12.603,11.028-23.631,23.631-23.631
		s23.631,11.028,23.631,23.631C441.108,310.942,430.08,321.969,417.477,321.969z M417.477,290.462c-4.726,0-7.877,3.938-7.877,7.877
		c0,3.938,3.938,7.877,7.877,7.877c3.938,0,7.877-3.938,7.877-7.877C425.354,294.4,421.415,290.462,417.477,290.462z"/>
	<rect x="244.185" y="273.92" style="fill:#183651;" width="15.754" height="15.754"/>
	<rect x="244.185" y="314.092" style="fill:#183651;" width="15.754" height="15.754"/>
	<rect x="244.185" y="354.265" style="fill:#183651;" width="15.754" height="15.754"/>
</g>
<g>
</g>
<g>
</g>
<g>
</g>
<g>
</g>
<g>
</g>
<g>
</g>
<g>
</g>
<g>
</g>
<g>
</g>
<g>
</g>
<g>
</g>
<g>
</g>
<g>
</g>
<g>
</g>
<g>
</g>
</svg>
