<svg xmlns="http://www.w3.org/2000/svg" width="256" height="256" viewBox="0 0 2000 2000">
  <defs>
    <style>
      .cls-1 {
        fill: #fff;
        fill-rule: evenodd;
      }
    </style>
  </defs>
  <path id="Forma_1" data-name="Forma 1" class="cls-1" d="M1799.01,597.755q-25.755-61.881-61.85-97.966L1335.08,97.531q-36.09-36.067-97.92-61.882-61.845-25.775-113.4-25.776H298.936q-51.544,0-87.631,36.092T175.22,133.63V1866.38q0,51.57,36.085,87.66t87.631,36.09H1701.09q51.54,0,87.6-36.09,36.09-36.09,36.09-87.66V711.213Q1824.78,659.637,1799.01,597.755ZM1164.97,185.2q37.35,12.889,52.83,28.357L1621.19,617.1q15.42,15.484,28.33,52.859H1164.97V185.2ZM1659.83,1825.12H340.172V174.9H1000v536.33q0,51.575,36.084,87.667t87.65,36.091h536.1V1825.12Zm-206.18-495.06H546.368q-18.027,0-29.636,11.57-11.583,11.61-11.6,29.66v82.51q0,18.09,11.6,29.66,11.6,11.6,29.636,11.59H1453.65q18.03,0,29.62-11.59,11.6-11.565,11.61-29.66v-82.51q0-18.045-11.61-29.66Q1471.69,1330.065,1453.65,1330.06ZM516.732,1011.59q-11.583,11.6-11.6,29.67v82.49q0,18.09,11.6,29.67T546.368,1165H1453.65q18.03,0,29.62-11.58,11.6-11.61,11.61-29.67v-82.49q0-18.03-11.61-29.67-11.58-11.58-29.62-11.59H546.368Q528.341,1000,516.732,1011.59Z"/>
</svg>
