<?xml version="1.0" standalone="no"?>
<!DOCTYPE svg PUBLIC "-//W3C//DTD SVG 20010904//EN"
 "http://www.w3.org/TR/2001/REC-SVG-20010904/DTD/svg10.dtd">
<svg version="1.0" xmlns="http://www.w3.org/2000/svg"
 width="1096.000000pt" height="405.000000pt" viewBox="0 0 1096.000000 405.000000"
 preserveAspectRatio="xMidYMid meet">
<metadata>
Created by potrace 1.16, written by Peter Selinger 2001-2019
</metadata>
<g transform="translate(0.000000,405.000000) scale(0.100000,-0.100000)"
fill="#000000" stroke="none">
<path d="M1675 3954 c-16 -2 -66 -9 -110 -15 -99 -13 -344 -73 -391 -95 -41
-20 -78 -71 -93 -129 -26 -100 -31 -314 -31 -1409 l0 -1138 543 5 c613 6 618
6 774 81 279 135 461 347 534 621 33 122 31 316 -4 448 -46 174 -184 395 -312
501 -169 140 -318 178 -775 198 l-265 11 12 226 c6 124 12 228 12 230 1 2 142
1 314 -2 366 -7 398 -12 566 -92 377 -182 654 -488 774 -856 51 -154 62 -232
61 -424 0 -201 -17 -308 -75 -472 -128 -362 -358 -607 -757 -807 -226 -113
-345 -135 -637 -116 -365 23 -578 114 -862 368 -145 130 -283 315 -344 461
-80 192 -109 420 -90 709 6 97 18 201 25 230 22 82 23 82 -219 82 -197 0 -205
-1 -230 -22 -43 -38 -59 -138 -59 -378 -1 -288 25 -448 111 -690 91 -256 182
-406 371 -616 206 -229 427 -378 741 -501 211 -83 275 -95 531 -100 249 -6
382 7 568 52 605 147 1086 593 1296 1203 58 168 76 274 83 478 15 464 -100
894 -314 1179 -227 301 -638 604 -968 713 -153 51 -255 64 -515 67 -129 2
-248 1 -265 -1z m411 -1409 c110 -20 158 -43 228 -113 90 -90 135 -202 136
-339 0 -196 -73 -325 -223 -393 -114 -51 -252 -70 -514 -70 l-163 0 0 465 0
465 224 0 c157 0 250 -5 312 -15z"/>
<path d="M4290 2100 l0 -930 353 0 c715 0 860 25 1012 175 104 101 153 241
141 401 -12 158 -66 276 -173 378 -60 56 -64 64 -60 96 3 19 13 55 23 80 14
36 18 74 18 185 0 226 -29 298 -181 446 l-78 76 -480 12 c-264 6 -501 11 -527
11 l-48 0 0 -930z m765 590 c128 -33 219 -105 232 -183 11 -73 -61 -150 -186
-198 -69 -26 -271 -38 -339 -20 -67 19 -75 40 -80 207 -6 203 2 211 194 213
71 1 124 -5 179 -19z m135 -740 c173 -27 249 -122 209 -263 -35 -127 -162
-167 -536 -167 l-193 0 0 220 0 220 228 0 c125 0 256 -5 292 -10z"/>
<path d="M6090 2100 l0 -930 195 0 195 0 0 930 0 930 -195 0 -195 0 0 -930z"/>
<path d="M7555 3024 c-225 -34 -393 -116 -547 -267 -176 -172 -273 -361 -220
-427 20 -25 23 -25 169 -25 181 0 190 4 270 123 110 164 256 242 453 242 202
0 351 -81 473 -258 28 -40 64 -80 81 -89 37 -19 238 -29 331 -16 56 8 60 10
57 33 -9 72 -161 321 -266 437 -93 101 -240 182 -409 224 -80 20 -320 34 -392
23z"/>
<path d="M8920 2100 l0 -930 190 0 190 0 0 375 0 375 340 0 340 0 0 175 0 175
-340 0 -340 0 0 205 0 205 455 0 455 0 0 175 0 175 -645 0 -645 0 0 -930z"/>
<path d="M10500 2100 l0 -930 175 0 175 0 0 930 0 930 -175 0 -175 0 0 -930z"/>
<path d="M6810 1923 c-67 -24 -48 -124 53 -275 162 -242 403 -422 600 -448
165 -21 433 -8 542 27 202 65 420 255 520 452 27 55 95 231 95 247 0 3 -83 4
-184 2 -217 -4 -215 -3 -280 -113 -57 -98 -141 -179 -218 -214 -221 -99 -470
-67 -612 78 -27 27 -74 87 -105 133 -76 112 -89 118 -261 117 -74 0 -142 -3
-150 -6z"/>
</g>
</svg>
