<?xml version="1.0" encoding="UTF-8"?>
<svg xmlns="http://www.w3.org/2000/svg" xmlns:xlink="http://www.w3.org/1999/xlink" width="24pt" height="24pt" viewBox="0 0 24 24" version="1.1">
<g id="surface265660">
<path style=" stroke:none;fill-rule:nonzero;fill:#275362;fill-opacity:1;" d="M 19.171875 2 C 18.449219 2 17.722656 2.277344 17.171875 2.828125 L 16 4 L 20 8 L 21.171875 6.828125 C 22.277344 5.722656 22.277344 3.933594 21.171875 2.828125 C 20.621094 2.277344 19.894531 2 19.171875 2 Z M 14.5 5.5 L 5 15 C 5 15 6.003906 15.003906 6.5 15.5 C 6.996094 15.996094 6.984375 16.984375 6.984375 16.984375 C 6.984375 16.984375 8.003906 17.003906 8.5 17.5 C 8.996094 17.996094 9 19 9 19 L 18.5 9.5 Z M 3.671875 17 L 3.015625 20.503906 C 2.960938 20.789062 3.210938 21.039062 3.496094 20.988281 L 7 20.332031 Z M 3.671875 17 "/>
</g>
</svg>
