<svg xmlns="http://www.w3.org/2000/svg" width="256" height="256" viewBox="0 0 2000 2000">
  <defs>
    <style>
      .cls-1 {
        fill: #fff;
        fill-rule: evenodd;
      }
    </style>
  </defs>
  <path id="Rounded_Rectangle_1" data-name="Rounded Rectangle 1" class="cls-1" d="M107,727.029h48.6a83,83,0,0,1,83,83V1183.69a83,83,0,0,1-83,83H107a83,83,0,0,1-83-83V810.029A83,83,0,0,1,107,727.029Z"/>
  <path id="Rounded_Rectangle_2" data-name="Rounded Rectangle 2" class="cls-1" d="M1790.19,248H1946a30,30,0,0,1,30,30V1720.57a30,30,0,0,1-30,30H1790.19a30,30,0,0,1-30-30V278A30,30,0,0,1,1790.19,248Z"/>
  <path id="Ellipse_1_copy" data-name="Ellipse 1 copy" class="cls-1" d="M886.979,1086c184.141,0,333.421,149.31,333.421,333.5S1071.12,1753,886.979,1753s-333.416-149.31-333.416-333.5S702.839,1086,886.979,1086ZM886.5,1237A182.5,182.5,0,1,1,704,1419.5,182.5,182.5,0,0,1,886.5,1237Z"/>
  <path id="Color_Fill_1" data-name="Color Fill 1" class="cls-1" d="M127.056,794.942V1214.55M224.05,774.325V1212.12s197.182,60.46,445.2,136.5c420.329,128.87,986.669,302.51,986.669,302.51V341.38Z"/>
</svg>
