<?xml version="1.0" encoding="UTF-8"?>
<svg width="158px" height="24px" viewBox="0 0 158 24" version="1.1" xmlns="http://www.w3.org/2000/svg" xmlns:xlink="http://www.w3.org/1999/xlink">
    <!-- Generator: Sketch 57.1 (83088) - https://sketch.com -->
    <title>Group</title>
    <desc>Created with Sketch.</desc>
    <g id="Page-1" stroke="none" stroke-width="1" fill="none" fill-rule="evenodd">
        <g id="Desktop-HD-Copy-3" transform="translate(-20.000000, -13.000000)" fill-rule="nonzero">
            <g id="Group-9">
                <g id="Group" transform="translate(20.000000, 13.000000)">
                    <path d="M157.536,15.912 C157.536,16.62 156.972,17.184 156.24,17.184 C155.52,17.184 154.944,16.62 154.944,15.912 C154.944,15.204 155.52,14.652 156.252,14.652 C156.96,14.652 157.536,15.204 157.536,15.912 Z M155.268,15.912 C155.268,16.476 155.688,16.92 156.252,16.92 C156.804,16.932 157.212,16.476 157.212,15.924 C157.212,15.36 156.792,14.904 156.24,14.904 C155.688,14.904 155.268,15.36 155.268,15.912 Z M156.048,16.56 L155.76,16.56 L155.76,15.3 C155.88,15.288 156.036,15.264 156.24,15.264 C156.48,15.264 156.588,15.3 156.672,15.36 C156.744,15.408 156.804,15.504 156.804,15.624 C156.804,15.78 156.684,15.876 156.54,15.924 L156.54,15.936 C156.66,15.972 156.72,16.08 156.768,16.248 C156.804,16.44 156.84,16.512 156.864,16.56 L156.552,16.56 C156.516,16.512 156.492,16.404 156.456,16.248 C156.432,16.116 156.36,16.056 156.192,16.056 L156.048,16.056 L156.048,16.56 L156.048,16.56 Z M156.048,15.864 L156.192,15.864 C156.348,15.864 156.48,15.816 156.48,15.684 C156.48,15.564 156.396,15.492 156.216,15.492 C156.144,15.492 156.084,15.504 156.06,15.504 L156.06,15.864 L156.048,15.864 Z" id="Shape" fill="#FFFFFF"></path>
                    <polygon id="Path" fill="#FFFFFF" points="80.652 9.996 82.404 9.996 86.112 18.3 89.748 9.996 90.528 9.996 86.328 19.476 84.96 19.476"></polygon>
                    <path d="M98.436,18.564 L98.436,14.448 L95.88,14.448 C93.708,14.448 93.156,15.084 93.156,16.692 C93.156,18.348 93.744,19.008 95.772,19.008 C96.984,18.996 98.028,18.72 98.436,18.564 M91.476,16.74 C91.476,14.964 92.772,13.944 95.484,13.944 L98.424,13.944 L98.424,12.804 C98.424,10.764 97.164,10.524 95.268,10.5 C94.404,10.5 93.516,10.596 92.712,10.704 L92.712,10.224 C93.552,10.068 94.512,9.9 95.724,9.9 C98.28,9.9 99.984,10.5 99.984,12.864 L99.984,19.488 L98.448,19.488 L98.448,18.888 C97.8,19.272 96.732,19.608 95.352,19.608 C92.7,19.596 91.476,18.456 91.476,16.74" id="Shape" fill="#FFFFFF"></path>
                    <path d="M102.444,9.996 L104.016,9.996 L104.016,10.632 C104.796,10.236 106.056,9.876 107.352,9.876 C109.824,9.876 111.276,10.812 111.276,13.392 L111.276,19.476 L109.668,19.476 L109.668,13.416 C109.668,11.292 108.828,10.572 106.632,10.572 C105.612,10.572 104.832,10.752 104.052,10.992 L104.052,19.476 L102.432,19.476 L102.432,9.996 L102.444,9.996 Z" id="Path" fill="#FFFFFF"></path>
                    <path d="M112.836,9.996 L114.504,9.996 L114.504,7.212 L116.112,7.212 L116.112,9.996 L119.04,9.996 L119.04,10.56 L116.112,10.56 L116.112,17.34 C116.112,18.54 116.652,18.96 117.864,18.96 C118.32,18.96 118.596,18.924 119.028,18.84 L119.028,19.32 C118.524,19.464 118.08,19.536 117.252,19.536 C115.716,19.536 114.504,19.02 114.504,16.932 L114.504,10.56 L112.836,10.56 L112.836,9.996 L112.836,9.996 Z" id="Path" fill="#FFFFFF"></path>
                    <path d="M127.08,18.564 L127.08,14.448 L124.524,14.448 C122.352,14.448 121.8,15.084 121.8,16.692 C121.8,18.348 122.388,19.008 124.416,19.008 C125.64,18.996 126.672,18.72 127.08,18.564 M120.132,16.74 C120.132,14.964 121.428,13.944 124.14,13.944 L127.08,13.944 L127.08,12.804 C127.08,10.764 125.82,10.524 123.924,10.5 C123.06,10.5 122.172,10.596 121.368,10.704 L121.368,10.224 C122.208,10.068 123.168,9.9 124.38,9.9 C126.936,9.9 128.64,10.5 128.64,12.864 L128.64,19.488 L127.104,19.488 L127.104,18.888 C126.456,19.272 125.388,19.608 124.008,19.608 C121.344,19.596 120.132,18.456 120.132,16.74" id="Shape" fill="#FFFFFF"></path>
                    <path d="M138.504,18.564 L138.504,10.908 C137.748,10.668 136.944,10.524 136.14,10.524 C133.716,10.524 132.432,11.58 132.432,14.7 C132.432,17.82 133.728,18.936 136.14,18.936 C136.944,18.936 137.736,18.804 138.504,18.564 M138.504,20.16 L138.504,18.96 C137.592,19.44 136.572,19.56 135.54,19.56 C132.828,19.56 130.752,18.06 130.752,14.736 C130.752,11.412 132.852,9.876 135.54,9.876 C136.596,9.876 137.64,10.032 138.552,10.512 L138.552,9.996 L140.088,9.996 L140.088,19.656 C140.088,22.956 137.832,23.556 134.892,23.556 C133.728,23.556 132.852,23.46 132.06,23.28 L132.06,22.8 C132.888,22.92 133.68,22.98 134.532,22.98 C136.956,22.98 138.504,22.62 138.504,20.16" id="Shape" fill="#FFFFFF"></path>
                    <path d="M143.916,14.484 L149.7,14.484 C149.64,11.76 149.052,10.464 146.844,10.464 C144.672,10.464 143.976,11.796 143.916,14.484 M142.248,14.736 C142.248,11.58 144.216,9.876 146.82,9.876 C149.508,9.876 151.344,11.412 151.344,14.616 C151.344,14.712 151.344,14.88 151.296,15.012 L143.916,15.012 C143.964,18.192 145.044,18.972 148.056,18.972 C148.968,18.972 149.808,18.912 150.696,18.756 L150.696,19.236 C149.808,19.452 148.872,19.572 147.624,19.572 C144.492,19.584 142.248,18.504 142.248,14.736" id="Shape" fill="#FFFFFF"></path>
                    <path d="M42.912,17.952 C42.912,17.52 43.008,17.1 43.176,16.716 C42.312,17.052 41.208,17.292 39.804,17.292 C37.044,17.292 35.448,16.368 34.608,15.624 C33.048,14.256 32.364,12.048 32.364,10.08 C32.364,8.112 33.048,5.904 34.608,4.536 C35.448,3.792 37.044,2.88 39.804,2.88 C42.564,2.88 44.16,3.804 45,4.536 C46.56,5.904 47.244,8.112 47.244,10.08 C47.244,11.676 46.776,13.452 45.756,14.784 C45.96,14.748 46.164,14.724 46.38,14.724 C47.856,14.724 49.104,15.576 49.608,16.776 C51.06,15.216 52.116,12.924 52.116,10.08 C52.116,6.936 50.832,4.464 49.152,2.916 C46.476,0.444 42.6,0 39.792,0 C36.996,0 33.108,0.444 30.432,2.916 C28.752,4.464 27.468,6.936 27.468,10.08 C27.468,13.224 28.752,15.696 30.432,17.244 C33.108,19.716 36.984,20.16 39.792,20.16 C40.932,20.16 42.252,20.088 43.596,19.824 C43.164,19.32 42.912,18.672 42.912,17.952" id="Path" fill="#FFFFFF"></path>
                    <path d="M73.14,14.784 L68.604,9.696 L76.884,0.72 L71.532,0.72 L65.892,7.584 L60.168,0.72 L54.492,0.72 L62.844,9.768 L54.048,19.476 L59.532,19.476 L65.568,12.204 L70.032,17.628 C70.212,16.116 71.496,14.928 73.14,14.784" id="Path" fill="#FFFFFF"></path>
                    <path d="M4.92,8.472 C5.04,6.624 5.964,5.184 6.96,4.368 C8.556,3.072 10.68,2.892 11.964,2.892 C12.84,2.892 15.444,2.964 17.088,4.26 C18.168,5.112 18.972,6.732 19.008,8.472 L4.92,8.472 Z M21.228,2.82 C18.708,0.42 14.832,0.012 11.952,0.012 C9.036,0.012 5.52,0.384 2.916,2.784 C1.392,4.188 0,6.588 0,10.356 C0,14.496 1.764,16.632 2.76,17.556 C5.316,19.92 9,20.172 12.192,20.172 C14.136,20.172 15.708,20.1 17.028,19.872 C16.584,19.332 16.308,18.672 16.308,17.94 C16.308,17.448 16.44,16.992 16.644,16.572 C15.336,17.208 13.716,17.28 12.144,17.28 C10.224,17.28 8.064,17.172 6.504,15.66 C5.064,14.256 4.86,12.408 4.86,11.196 L4.86,10.98 L23.856,10.98 L23.856,10.428 C23.868,7.956 23.592,5.076 21.228,2.82 L21.228,2.82 Z" id="Shape" fill="#FFFFFF"></path>
                    <path d="M21.924,17.952 C21.924,19.044 20.964,19.932 19.776,19.932 C18.588,19.932 17.628,19.044 17.628,17.952 C17.628,16.86 18.588,15.972 19.776,15.972 C20.964,15.972 21.924,16.86 21.924,17.952" id="Path" fill="#ED4524"></path>
                    <path d="M48.516,17.952 C48.516,19.044 47.556,19.932 46.368,19.932 C45.18,19.932 44.22,19.044 44.22,17.952 C44.22,16.86 45.18,15.972 46.368,15.972 C47.556,15.972 48.516,16.86 48.516,17.952" id="Path" fill="#F2BA1C"></path>
                    <path d="M75.612,17.952 C75.612,19.044 74.652,19.932 73.464,19.932 C72.276,19.932 71.316,19.044 71.316,17.952 C71.316,16.86 72.276,15.972 73.464,15.972 C74.652,15.972 75.612,16.86 75.612,17.952" id="Path" fill="#A3C53A"></path>
                </g>
            </g>
        </g>
    </g>
</svg>