<svg xmlns="http://www.w3.org/2000/svg" width="256" height="256" viewBox="0 0 2000 2000">
  <defs>
    <style>
      .cls-1 {
        fill: #fff;
        fill-rule: evenodd;
      }
    </style>
  </defs>
  <path id="Forma_1" data-name="Forma 1" class="cls-1" d="M784.969,1641.32l-14.369-1.26H380.81q-82.461,0-141.187-58.71t-58.71-141.14V560.758q0-82.451,58.71-141.146,58.731-58.723,141.187-58.726H780.6q16.24,0,25.608-8.116t12.481-24.362a210.516,210.516,0,0,0,3.76-29.347c2.4-50.95-2.81-75.241-13.74-86.2q-11.871-11.838-28.109-11.852H380.81q-148.659,0-254.249,105.555Q21.007,412.126,21,560.773V1440.2q0,148.665,105.561,254.2,105.585,105.615,254.249,105.59H780.618q16.242,0,25.609-8.11c6.237-5.44,10.392-13.54,12.481-24.38,1.963-10.19,4.034-48.08,3.13-62.44C819.948,1674.76,826,1644.85,784.969,1641.32Z"/>
  <path class="cls-1" d="M629.822,892l-2.217.485H1577.83l-298.72-299.76a78.628,78.628,0,0,1,0-110.432l46.48-46.563a77.682,77.682,0,0,1,109.75-.058l512.05,512.671a78.451,78.451,0,0,1,0,110.267l-512.05,512.72a77.75,77.75,0,0,1-109.75,0l-46.48-46.56a77.082,77.082,0,0,1-22.65-54.94c0-20.79,8.02-39.28,22.65-53.9l302.09-301.44H628.76c-42.8,0-78.76-36.93-78.76-79.76V968.873C550,926.044,587.025,892,629.822,892Z"/>
</svg>
