<svg xmlns="http://www.w3.org/2000/svg" width="256" height="256" viewBox="0 0 2000 2000">
  <defs>
    <style>
      .cls-1 {
        fill: #fff;
        fill-rule: evenodd;
      }
    </style>
  </defs>
  <path class="cls-1" d="M1961.6,437.008a40.444,40.444,0,0,0-37.3-4.9l-332.38,120.9a161.871,161.871,0,0,0-92.37,84.981c-3.44,7.467-5.7,15.224-7.97,22.969-57.07-16.229-163.14-50.123-268.55-104.444-159.28-82.091-280.972-41.545-385.343,38.081-52.885,1.039-125.776,7.294-197.428,13.609-45.707,4.034-88.9,7.746-123.93,9.883A163.144,163.144,0,0,0,409.092,471.461L76.708,350.551A40.762,40.762,0,0,0,22,388.861V1204.43a40.753,40.753,0,0,0,40.772,40.78H181.859a163.968,163.968,0,0,0,128.229-62.47c16.225,12.34,35.444,26.79,55.6,41.92,47.579,35.81,99.658,74.87,122.511,94.03,151.816,127.11,334.33,264.38,370.679,288.27,33.961,22.3,95.117,46.04,141.623,46.04,18.19,0,64.02,0,96.19-27.2,33.17,13.02,68.92,12.38,102.17-2.27,33.17-14.62,60-42.17,75.61-75.67,31.85,6.53,68.44,1.75,101.61-14.89,31.09-15.57,53.99-39.15,66.25-66.71,29.46,2.71,60.92-6.88,89.06-28.43,40.22-30.75,58.64-76.16,53.43-120.96l103.42-57.22c30.28,41.06,78.42,67.11,130.9,67.11h119.08a40.757,40.757,0,0,0,40.78-40.78V470.421A40.8,40.8,0,0,0,1961.6,437.008ZM258.224,1110.73a81.933,81.933,0,0,1-76.365,52.93H103.54V447.082L381.213,548.074a81.588,81.588,0,0,1,48.493,105.251ZM1481.91,1373.05c-13.82,10.59-33.17,16.48-41.77,7.88-0.44-.44-1.12-0.4-1.57-0.82-0.78-.72-1.17-1.69-2.01-2.37-29.15-23.01-159.74-156.66-240.44-240.85a40.753,40.753,0,0,0-58.85,56.39c18.94,19.78,171.01,178.19,231.87,233.59-4.55,17.9-21.14,28.96-29.57,33.19-26.12,13.1-53.35,10.91-63.55,1.43-0.3-.28-0.75-0.27-1.06-0.54-0.5-.45-0.72-1.07-1.25-1.49-48.89-39.07-171.56-169.45-199.31-199.63a40.776,40.776,0,1,0-60.04,55.19c1.33,1.45,121.55,131.16,189.07,191.4-6.63,19.07-20.15,34.86-37.5,42.52-12.8,5.69-32.82,8.61-55.7-8.3-58.55-49.66-176.046-174.76-199.156-199.49a40.764,40.764,0,1,0-59.562,55.67c27.4,29.33,108.38,115.18,169.938,173.31a175.477,175.477,0,0,1-20.95,1.31c-27,0-73.38-17.24-96.829-32.65-28.587-18.8-208.077-152.76-363.078-282.59-23.449-19.67-76.961-59.93-125.936-96.73-26.247-19.7-50.431-37.87-68.254-51.59L499.057,700.672c39.625-1.732,92.453-6.3,148.361-11.232,31.622-2.787,63.278-5.505,93.527-7.86-46.494,47.738-115.62,133.239-106.507,213.384,4.181,36.479,24.13,66.865,57.773,87.891,66.611,41.695,189.921,6.729,249.323-66.344,38.341-5.536,64.266-15.33,92.526-29.349,47.78,44.92,111.84,97.727,179.13,153.2,117.14,96.53,249.92,205.96,285.04,267.33C1517.78,1341.82,1490.67,1366.35,1481.91,1373.05Zm69.94-131.15c-54.32-72.68-172.08-169.93-286.82-264.5-76.48-63.041-148.71-122.576-194.93-168.808a40.961,40.961,0,0,0-48.06-7.13c-41.53,22.262-60.24,31.46-107.144,36.158a40.8,40.8,0,0,0-30.417,18.836c-31.973,50.735-120.841,74.866-149.03,57.265-16.008-10.035-19.112-20.231-19.987-28-3.941-34.686,31.174-94.737,89.426-153.038,144.252-144.28,247.372-172.513,380.792-103.7,126.76,65.37,251.87,102.33,304.39,116.292,1.51,6.109,2.62,12.279,4.86,18.27l158.3,422.257Zm345.61,3.31h-78.32a81.93,81.93,0,0,1-76.36-52.92L1571.29,734.923a81.616,81.616,0,0,1,48.49-105.293l277.68-100.992V1245.21h0Z"/>
</svg>
