<?xml version="1.0" encoding="iso-8859-1"?>
<!-- Generator: Adobe Illustrator 19.0.0, SVG Export Plug-In . SVG Version: 6.00 Build 0)  -->
<svg version="1.1" id="Capa_1" xmlns="http://www.w3.org/2000/svg" xmlns:xlink="http://www.w3.org/1999/xlink" x="0px" y="0px"
	 viewBox="0 0 504.123 504.123" style="enable-background:new 0 0 504.123 504.123;" xml:space="preserve">
<circle style="fill:#2EA0DA;" cx="252.062" cy="252.062" r="252.062"/>
<path style="fill:#FBBD5E;" d="M406.449,46.474H102.4c-17.329,0-31.508,14.178-31.508,31.508v386.757
	c0,17.329,14.178,31.508,31.508,31.508h304.049c17.329,0,31.508-14.178,31.508-31.508V77.982
	C437.957,60.652,423.778,46.474,406.449,46.474z"/>
<path style="fill:#183651;" d="M406.449,503.335H102.4c-21.268,0-39.385-17.329-39.385-39.385V77.982
	c0-21.268,17.329-39.385,39.385-39.385h304.049c21.268,0,39.385,17.329,39.385,39.385v386.757
	C445.834,486.006,428.505,503.335,406.449,503.335z M102.4,54.351c-12.603,0-23.631,10.24-23.631,23.631v386.757
	c0,12.603,10.24,23.631,23.631,23.631h304.049c12.603,0,23.631-10.24,23.631-23.631V77.982c0-12.603-10.24-23.631-23.631-23.631
	C406.449,54.351,102.4,54.351,102.4,54.351z"/>
<rect x="102.4" y="77.982" style="fill:#FFFFFF;" width="304.049" height="386.757"/>
<polygon style="fill:#E0E4E8;" points="351.311,84.283 157.538,84.283 181.957,8.665 327.68,8.665 "/>
<path style="fill:#183651;" d="M351.311,92.16L351.311,92.16H157.538c-2.363,0-4.726-1.575-6.302-3.151
	c-1.575-2.363-1.575-4.726-0.788-7.089L174.08,6.302c0.788-3.151,3.938-5.514,7.877-5.514h146.511c3.151,0,6.302,2.363,7.877,5.514
	l23.631,74.043c0.788,0.788,0.788,2.363,0.788,3.938C359.188,88.222,356.037,92.16,351.311,92.16z M168.566,76.406h172.505
	l-18.905-59.865H187.471L168.566,76.406z"/>
<circle style="fill:#4FBF9F;" cx="152.025" cy="174.868" r="23.631"/>
<circle style="fill:#2EA0DA;" cx="356.825" cy="174.868" r="23.631"/>
<path style="fill:#F06151;" d="M254.425,111.852c-13.391,0-23.631,11.028-23.631,23.631c0,12.603,11.028,23.631,23.631,23.631
	c12.603,0,23.631-11.028,23.631-23.631C278.055,122.88,267.815,111.852,254.425,111.852z"/>
<circle style="fill:#4FBF9F;" cx="356.825" cy="374.942" r="23.631"/>
<circle style="fill:#2EA0DA;" cx="152.025" cy="374.942" r="23.631"/>
<path style="fill:#F06151;" d="M254.425,389.908c-13.391,0-23.631,11.028-23.631,23.631c0,12.603,11.028,23.631,23.631,23.631
	c12.603,0,23.631-11.028,23.631-23.631C278.055,400.935,267.815,389.908,254.425,389.908z"/>
<path style="fill:#E0E4E8;" d="M300.111,237.883h-91.372c-4.726,0-7.877,3.151-7.877,7.877v55.926c0,4.726,3.151,7.877,7.877,7.877
	h91.372c4.726,0,7.877-3.151,7.877-7.877V245.76C307.988,241.822,304.837,237.883,300.111,237.883z"/>
<g>
	<polygon style="fill:#183651;" points="350.523,222.129 350.523,252.062 307.988,252.062 307.988,263.877 362.338,263.877 
		362.338,222.129 	"/>
	<polygon style="fill:#183651;" points="307.988,295.385 350.523,295.385 350.523,325.317 362.338,325.317 362.338,283.569 
		307.988,283.569 	"/>
	<polygon style="fill:#183651;" points="158.326,222.129 146.511,222.129 146.511,263.877 200.862,263.877 200.862,252.062 
		158.326,252.062 	"/>
	<polygon style="fill:#183651;" points="146.511,325.317 158.326,325.317 158.326,295.385 200.862,295.385 200.862,283.569 
		146.511,283.569 	"/>
	<rect x="248.911" y="309.563" style="fill:#183651;" width="11.815" height="52.775"/>
	<rect x="248.911" y="185.108" style="fill:#183651;" width="11.815" height="52.775"/>
	<rect x="203.225" y="38.597" style="fill:#183651;" width="15.754" height="15.754"/>
	<rect x="246.548" y="38.597" style="fill:#183651;" width="15.754" height="15.754"/>
	<rect x="290.658" y="38.597" style="fill:#183651;" width="15.754" height="15.754"/>
	<rect x="211.889" y="266.24" style="fill:#183651;" width="15.754" height="15.754"/>
	<rect x="246.548" y="266.24" style="fill:#183651;" width="15.754" height="15.754"/>
	<rect x="281.994" y="266.24" style="fill:#183651;" width="15.754" height="15.754"/>
</g>
<g>
</g>
<g>
</g>
<g>
</g>
<g>
</g>
<g>
</g>
<g>
</g>
<g>
</g>
<g>
</g>
<g>
</g>
<g>
</g>
<g>
</g>
<g>
</g>
<g>
</g>
<g>
</g>
<g>
</g>
</svg>
