<svg xmlns="http://www.w3.org/2000/svg" width="256" height="256" viewBox="0 0 2000 2000">
  <defs>
    <style>
      .cls-1 {
        fill: #fff;
        fill-rule: evenodd;
      }
    </style>
  </defs>
  <path id="Forma_1" data-name="Forma 1" class="cls-1" d="M1385.5,1221.12c116.33,0,210.95-94.69,210.95-211.06V371.085C1596.45,254.7,1501.83,160,1385.5,160H216.915C100.614,160,6,254.7,6,371.085V1010.06c0,116.37,94.614,211.06,210.915,211.06h153.5v220.93a66.363,66.363,0,0,0,113.3,46.95L751.4,1221.12h634.1Zm423.85-508.543H1702.63V1010.06c0,174.96-142.26,317.3-317.13,317.3H795.387L671.308,1451.54c14.954,86.98,90.812,153.38,181.939,153.38H1367.06l215.47,215.62a66.362,66.362,0,0,0,113.3-46.95V1604.91h113.53c101.81,0,184.64-82.9,184.64-184.78v-522.8C1993.99,795.462,1911.17,712.577,1809.35,712.577Z"/>
</svg>
